<?xml version="1.0" encoding="UTF-8" standalone="no"?><svg xmlns="http://www.w3.org/2000/svg" xmlns:xlink="http://www.w3.org/1999/xlink" contentScriptType="application/ecmascript" contentStyleType="text/css" height="418px" preserveAspectRatio="none" style="width:656px;height:418px;" version="1.1" viewBox="0 0 656 418" width="656px" zoomAndPan="magnify"><defs><filter height="300%" id="f8k3wy43xhgi5" width="300%" x="-1" y="-1"><feGaussianBlur result="blurOut" stdDeviation="2.0"/><feColorMatrix in="blurOut" result="blurOut2" type="matrix" values="0 0 0 0 0 0 0 0 0 0 0 0 0 0 0 0 0 0 .4 0"/><feOffset dx="4.0" dy="4.0" in="blurOut2" result="blurOut3"/><feBlend in="SourceGraphic" in2="blurOut3" mode="normal"/></filter></defs><g><!--MD5=[c2e276049abfe145c9906edb061abd32]
cluster edu.oakland.production.database--><polygon fill="#FFFFFF" filter="url(#f8k3wy43xhgi5)" points="22,24,292,24,299,46.2969,634,46.2969,634,406,22,406,22,24" style="stroke: #000000; stroke-width: 1.5;"/><line style="stroke: #000000; stroke-width: 1.5;" x1="22" x2="299" y1="46.2969" y2="46.2969"/><text fill="#000000" font-family="sans-serif" font-size="14" font-weight="bold" lengthAdjust="spacingAndGlyphs" textLength="264" x="26" y="38.9951">edu.oakland.production.database</text><!--MD5=[e62c039a107b929dc588966558a86fd5]
class DatabaseCommManagerImplementation--><rect fill="#FEFECE" filter="url(#f8k3wy43xhgi5)" height="141.6328" id="DatabaseCommManagerImplementation" style="stroke: #A80036; stroke-width: 1.5;" width="579" x="38.5" y="248"/><ellipse cx="198.25" cy="264" fill="#ADD1B2" rx="11" ry="11" style="stroke: #A80036; stroke-width: 1.0;"/><path d="M201.2188,269.6406 Q200.6406,269.9375 200,270.0781 Q199.3594,270.2344 198.6563,270.2344 Q196.1563,270.2344 194.8281,268.5938 Q193.5156,266.9375 193.5156,263.8125 Q193.5156,260.6875 194.8281,259.0313 Q196.1563,257.375 198.6563,257.375 Q199.3594,257.375 200,257.5313 Q200.6563,257.6875 201.2188,257.9844 L201.2188,260.7031 Q200.5938,260.125 200,259.8594 Q199.4063,259.5781 198.7813,259.5781 Q197.4375,259.5781 196.75,260.6563 Q196.0625,261.7188 196.0625,263.8125 Q196.0625,265.9063 196.75,266.9844 Q197.4375,268.0469 198.7813,268.0469 Q199.4063,268.0469 200,267.7813 Q200.5938,267.5 201.2188,266.9219 L201.2188,269.6406 Z "/><text fill="#000000" font-family="sans-serif" font-size="12" lengthAdjust="spacingAndGlyphs" textLength="251" x="218.75" y="268.1543">DatabaseCommManagerImplementation</text><line style="stroke: #A80036; stroke-width: 1.5;" x1="39.5" x2="616.5" y1="280" y2="280"/><rect fill="none" height="6" style="stroke: #C82930; stroke-width: 1.0;" width="6" x="46.5" y="288"/><text fill="#000000" font-family="sans-serif" font-size="11" lengthAdjust="spacingAndGlyphs" textLength="317" x="58.5" y="294.2104">DatabasePersistentStorage databasePersistentStorage</text><line style="stroke: #A80036; stroke-width: 1.5;" x1="39.5" x2="616.5" y1="300.8047" y2="300.8047"/><ellipse cx="49.5" cy="311.8047" fill="#84BE84" rx="3" ry="3" style="stroke: #038048; stroke-width: 1.0;"/><text fill="#000000" font-family="sans-serif" font-size="11" lengthAdjust="spacingAndGlyphs" textLength="553" x="58.5" y="315.0151">DatabaseCommManagerImplementation(DatabasePersistentStorage databasePersistentStorage)</text><ellipse cx="49.5" cy="341.4141" fill="#84BE84" rx="3" ry="3" style="stroke: #038048; stroke-width: 1.0;"/><text fill="#000000" font-family="sans-serif" font-size="11" lengthAdjust="spacingAndGlyphs" textLength="141" x="58.5" y="344.6245">int passGetRfidRequest()</text><ellipse cx="49.5" cy="354.2188" fill="#84BE84" rx="3" ry="3" style="stroke: #038048; stroke-width: 1.0;"/><text fill="#000000" font-family="sans-serif" font-size="11" lengthAdjust="spacingAndGlyphs" textLength="359" x="58.5" y="357.4292">LocationDataPoint passGetLocationDataPointRequest(int offset)</text><ellipse cx="49.5" cy="367.0234" fill="#84BE84" rx="3" ry="3" style="stroke: #038048; stroke-width: 1.0;"/><text fill="#000000" font-family="sans-serif" font-size="11" lengthAdjust="spacingAndGlyphs" textLength="271" x="58.5" y="370.2339">TrackData passGetTrackDataRequest(int offset)</text><ellipse cx="49.5" cy="379.8281" fill="#84BE84" rx="3" ry="3" style="stroke: #038048; stroke-width: 1.0;"/><text fill="#000000" font-family="sans-serif" font-size="11" lengthAdjust="spacingAndGlyphs" textLength="312" x="58.5" y="383.0386">void passStoreTrackDataRequest(TrackData trackData)</text><line style="stroke: #A80036; stroke-width: 1.0; stroke-dasharray: 1.0,2.0;" x1="39.5" x2="295" y1="328.0117" y2="328.0117"/><text fill="#000000" font-family="sans-serif" font-size="11" lengthAdjust="spacingAndGlyphs" textLength="66" x="295" y="331.3198">Use Case 1</text><line style="stroke: #A80036; stroke-width: 1.0; stroke-dasharray: 1.0,2.0;" x1="361" x2="616.5" y1="328.0117" y2="328.0117"/><!--MD5=[3cbc5f43b2184d452c2937ae0a744eb6]
class DatabaseCommManager--><rect fill="#FEFECE" filter="url(#f8k3wy43xhgi5)" height="128.8281" id="DatabaseCommManager" style="stroke: #A80036; stroke-width: 1.5;" width="382" x="137" y="59"/><ellipse cx="247.25" cy="75" fill="#B4A7E5" rx="11" ry="11" style="stroke: #A80036; stroke-width: 1.0;"/><path d="M243.1719,70.7656 L243.1719,68.6094 L250.5625,68.6094 L250.5625,70.7656 L248.0938,70.7656 L248.0938,78.8438 L250.5625,78.8438 L250.5625,81 L243.1719,81 L243.1719,78.8438 L245.6406,78.8438 L245.6406,70.7656 L243.1719,70.7656 Z "/><text fill="#000000" font-family="sans-serif" font-size="12" font-style="italic" lengthAdjust="spacingAndGlyphs" textLength="153" x="267.75" y="79.1543">DatabaseCommManager</text><line style="stroke: #A80036; stroke-width: 1.5;" x1="138" x2="518" y1="91" y2="91"/><line style="stroke: #A80036; stroke-width: 1.5;" x1="138" x2="518" y1="99" y2="99"/><ellipse cx="148" cy="126.8047" fill="#84BE84" rx="3" ry="3" style="stroke: #038048; stroke-width: 1.0;"/><text fill="#000000" font-family="sans-serif" font-size="11" font-style="italic" lengthAdjust="spacingAndGlyphs" textLength="140" x="157" y="130.0151">int passGetRfidRequest()</text><ellipse cx="148" cy="139.6094" fill="#84BE84" rx="3" ry="3" style="stroke: #038048; stroke-width: 1.0;"/><text fill="#000000" font-family="sans-serif" font-size="11" font-style="italic" lengthAdjust="spacingAndGlyphs" textLength="356" x="157" y="142.8198">LocationDataPoint passGetLocationDataPointRequest(int offset)</text><ellipse cx="148" cy="152.4141" fill="#84BE84" rx="3" ry="3" style="stroke: #038048; stroke-width: 1.0;"/><text fill="#000000" font-family="sans-serif" font-size="11" font-style="italic" lengthAdjust="spacingAndGlyphs" textLength="268" x="157" y="155.6245">TrackData passGetTrackDataRequest(int offset)</text><ellipse cx="148" cy="165.2188" fill="#84BE84" rx="3" ry="3" style="stroke: #038048; stroke-width: 1.0;"/><text fill="#000000" font-family="sans-serif" font-size="11" font-style="italic" lengthAdjust="spacingAndGlyphs" textLength="310" x="157" y="168.4292">void passStoreTrackDataRequest(TrackData trackData)</text><ellipse cx="148" cy="178.0234" fill="#84BE84" rx="3" ry="3" style="stroke: #038048; stroke-width: 1.0;"/><text fill="#000000" font-family="sans-serif" font-size="11" font-style="italic" lengthAdjust="spacingAndGlyphs" textLength="167" x="157" y="181.2339">String passGetModeRequest()</text><line style="stroke: #A80036; stroke-width: 1.0; stroke-dasharray: 1.0,2.0;" x1="138" x2="295" y1="113.4023" y2="113.4023"/><text fill="#000000" font-family="sans-serif" font-size="11" lengthAdjust="spacingAndGlyphs" textLength="66" x="295" y="116.7104">Use Case 1</text><line style="stroke: #A80036; stroke-width: 1.0; stroke-dasharray: 1.0,2.0;" x1="361" x2="518" y1="113.4023" y2="113.4023"/><!--MD5=[a58b2e4b707a50c1d2b096e4059ce319]
reverse link DatabaseCommManager to DatabaseCommManagerImplementation--><path d="M328,208.45 C328,221.64 328,235.16 328,247.99 " fill="none" id="DatabaseCommManager&lt;-DatabaseCommManagerImplementation" style="stroke: #A80036; stroke-width: 1.0; stroke-dasharray: 7.0,7.0;"/><polygon fill="none" points="321,208.13,328,188.13,335,208.13,321,208.13" style="stroke: #A80036; stroke-width: 1.0;"/><!--MD5=[92dba4258f1d4e6cca084372dd79f4cc]
@startuml DatabaseCommManagerImplementation_DirectDependencies


package edu.oakland.production.database {
    class DatabaseCommManagerImplementation {
        - DatabasePersistentStorage databasePersistentStorage
        __
        + DatabaseCommManagerImplementation(DatabasePersistentStorage databasePersistentStorage)
        .. Use Case 1 ..
        + int passGetRfidRequest()
        + LocationDataPoint passGetLocationDataPointRequest(int offset)
        + TrackData passGetTrackDataRequest(int offset)
        + void passStoreTrackDataRequest(TrackData trackData)
    }
}



package edu.oakland.production.database {
    interface DatabaseCommManager {
        __
        .. Use Case 1 ..
        {abstract} + int passGetRfidRequest()
        {abstract} + LocationDataPoint passGetLocationDataPointRequest(int offset)
        {abstract} + TrackData passGetTrackDataRequest(int offset)
        {abstract} + void passStoreTrackDataRequest(TrackData trackData)
        {abstract} + String passGetModeRequest()
    }
}

DatabaseCommManagerImplementation .up.|> DatabaseCommManager





@enduml

PlantUML version 1.2020.02(Sun Mar 01 10:22:07 GMT 2020)
(GPL source distribution)
Java Runtime: OpenJDK Runtime Environment
JVM: OpenJDK 64-Bit Server VM
Java Version: 11.0.9+11-Ubuntu-0ubuntu1
Operating System: Linux
Default Encoding: ANSI_X3.4-1968
Language: en
Country: US
--></g></svg>