<?xml version="1.0" encoding="UTF-8" standalone="no"?><svg xmlns="http://www.w3.org/2000/svg" xmlns:xlink="http://www.w3.org/1999/xlink" contentScriptType="application/ecmascript" contentStyleType="text/css" height="374px" preserveAspectRatio="none" style="width:418px;height:374px;" version="1.1" viewBox="0 0 418 374" width="418px" zoomAndPan="magnify"><defs><filter height="300%" id="fpoj9b2dqp6h6" width="300%" x="-1" y="-1"><feGaussianBlur result="blurOut" stdDeviation="2.0"/><feColorMatrix in="blurOut" result="blurOut2" type="matrix" values="0 0 0 0 0 0 0 0 0 0 0 0 0 0 0 0 0 0 .4 0"/><feOffset dx="4.0" dy="4.0" in="blurOut2" result="blurOut3"/><feBlend in="SourceGraphic" in2="blurOut3" mode="normal"/></filter></defs><g><!--MD5=[ba602463a52c9ed4bf670ea327ccdb8b]
cluster edu.oakland.production.database01--><polygon fill="#FFFFFF" filter="url(#fpoj9b2dqp6h6)" points="22,24,312,24,319,46.2969,396,46.2969,396,362,22,362,22,24" style="stroke: #000000; stroke-width: 1.5;"/><line style="stroke: #000000; stroke-width: 1.5;" x1="22" x2="319" y1="46.2969" y2="46.2969"/><text fill="#000000" font-family="sans-serif" font-size="14" font-weight="bold" lengthAdjust="spacingAndGlyphs" textLength="284" x="26" y="38.9951">edu.oakland.production.database01</text><!--MD5=[d502c0abe7f4c115aa024d204bba6703]
class DatabaseGisPersistentStorageImplementation--><rect fill="#FEFECE" filter="url(#fpoj9b2dqp6h6)" height="107.2188" id="DatabaseGisPersistentStorageImplementation" style="stroke: #A80036; stroke-width: 1.5;" width="323" x="47.5" y="239"/><ellipse cx="62.5" cy="255" fill="#ADD1B2" rx="11" ry="11" style="stroke: #A80036; stroke-width: 1.0;"/><path d="M65.4688,260.6406 Q64.8906,260.9375 64.25,261.0781 Q63.6094,261.2344 62.9063,261.2344 Q60.4063,261.2344 59.0781,259.5938 Q57.7656,257.9375 57.7656,254.8125 Q57.7656,251.6875 59.0781,250.0313 Q60.4063,248.375 62.9063,248.375 Q63.6094,248.375 64.25,248.5313 Q64.9063,248.6875 65.4688,248.9844 L65.4688,251.7031 Q64.8438,251.125 64.25,250.8594 Q63.6563,250.5781 63.0313,250.5781 Q61.6875,250.5781 61,251.6563 Q60.3125,252.7188 60.3125,254.8125 Q60.3125,256.9063 61,257.9844 Q61.6875,259.0469 63.0313,259.0469 Q63.6563,259.0469 64.25,258.7813 Q64.8438,258.5 65.4688,257.9219 L65.4688,260.6406 Z "/><text fill="#000000" font-family="sans-serif" font-size="12" lengthAdjust="spacingAndGlyphs" textLength="291" x="76.5" y="259.1543">DatabaseGisPersistentStorageImplementation</text><line style="stroke: #A80036; stroke-width: 1.5;" x1="48.5" x2="369.5" y1="271" y2="271"/><line style="stroke: #A80036; stroke-width: 1.5;" x1="48.5" x2="369.5" y1="279" y2="279"/><text fill="#000000" font-family="sans-serif" font-size="11" lengthAdjust="spacingAndGlyphs" textLength="0" x="57.5" y="310.0151"/><line style="stroke: #A80036; stroke-width: 1.0; stroke-dasharray: 1.0,2.0;" x1="48.5" x2="176" y1="293.4023" y2="293.4023"/><text fill="#000000" font-family="sans-serif" font-size="11" lengthAdjust="spacingAndGlyphs" textLength="66" x="176" y="296.7104">Use Case 1</text><line style="stroke: #A80036; stroke-width: 1.0; stroke-dasharray: 1.0,2.0;" x1="242" x2="369.5" y1="293.4023" y2="293.4023"/><text fill="#000000" font-family="sans-serif" font-size="11" lengthAdjust="spacingAndGlyphs" textLength="0" x="57.5" y="339.6245"/><line style="stroke: #A80036; stroke-width: 1.0; stroke-dasharray: 1.0,2.0;" x1="48.5" x2="176" y1="323.0117" y2="323.0117"/><text fill="#000000" font-family="sans-serif" font-size="11" lengthAdjust="spacingAndGlyphs" textLength="66" x="176" y="326.3198">Use Case 2</text><line style="stroke: #A80036; stroke-width: 1.0; stroke-dasharray: 1.0,2.0;" x1="242" x2="369.5" y1="323.0117" y2="323.0117"/><!--MD5=[682ad4bb5de8181c75770070b57ba99f]
class DatabaseGisPersistentStorage--><rect fill="#FEFECE" filter="url(#fpoj9b2dqp6h6)" height="120.0234" id="DatabaseGisPersistentStorage" style="stroke: #A80036; stroke-width: 1.5;" width="341" x="38.5" y="59"/><ellipse cx="110.25" cy="75" fill="#B4A7E5" rx="11" ry="11" style="stroke: #A80036; stroke-width: 1.0;"/><path d="M106.1719,70.7656 L106.1719,68.6094 L113.5625,68.6094 L113.5625,70.7656 L111.0938,70.7656 L111.0938,78.8438 L113.5625,78.8438 L113.5625,81 L106.1719,81 L106.1719,78.8438 L108.6406,78.8438 L108.6406,70.7656 L106.1719,70.7656 Z "/><text fill="#000000" font-family="sans-serif" font-size="12" font-style="italic" lengthAdjust="spacingAndGlyphs" textLength="189" x="130.75" y="79.1543">DatabaseGisPersistentStorage</text><line style="stroke: #A80036; stroke-width: 1.5;" x1="39.5" x2="378.5" y1="91" y2="91"/><line style="stroke: #A80036; stroke-width: 1.5;" x1="39.5" x2="378.5" y1="99" y2="99"/><ellipse cx="49.5" cy="126.8047" fill="#84BE84" rx="3" ry="3" style="stroke: #038048; stroke-width: 1.0;"/><text fill="#000000" font-family="sans-serif" font-size="11" font-style="italic" lengthAdjust="spacingAndGlyphs" textLength="315" x="58.5" y="130.0151">void storeLocation(LocationDataPoint locationDataPoint)</text><line style="stroke: #A80036; stroke-width: 1.0; stroke-dasharray: 1.0,2.0;" x1="39.5" x2="176" y1="113.4023" y2="113.4023"/><text fill="#000000" font-family="sans-serif" font-size="11" lengthAdjust="spacingAndGlyphs" textLength="66" x="176" y="116.7104">Use Case 1</text><line style="stroke: #A80036; stroke-width: 1.0; stroke-dasharray: 1.0,2.0;" x1="242" x2="378.5" y1="113.4023" y2="113.4023"/><ellipse cx="49.5" cy="156.4141" fill="#84BE84" rx="3" ry="3" style="stroke: #038048; stroke-width: 1.0;"/><text fill="#000000" font-family="sans-serif" font-size="11" font-style="italic" lengthAdjust="spacingAndGlyphs" textLength="164" x="58.5" y="159.6245">void storeMode(String mode)</text><ellipse cx="49.5" cy="169.2188" fill="#84BE84" rx="3" ry="3" style="stroke: #038048; stroke-width: 1.0;"/><text fill="#000000" font-family="sans-serif" font-size="11" font-style="italic" lengthAdjust="spacingAndGlyphs" textLength="203" x="58.5" y="172.4292">String getNextSat(String currentSat)</text><line style="stroke: #A80036; stroke-width: 1.0; stroke-dasharray: 1.0,2.0;" x1="39.5" x2="176" y1="143.0117" y2="143.0117"/><text fill="#000000" font-family="sans-serif" font-size="11" lengthAdjust="spacingAndGlyphs" textLength="66" x="176" y="146.3198">Use Case 2</text><line style="stroke: #A80036; stroke-width: 1.0; stroke-dasharray: 1.0,2.0;" x1="242" x2="378.5" y1="143.0117" y2="143.0117"/><!--MD5=[e025a607e776f05335a4830ee56b7438]
reverse link DatabaseGisPersistentStorage to DatabaseGisPersistentStorageImplementation--><path d="M209,199.17 C209,212.66 209,226.38 209,238.97 " fill="none" id="DatabaseGisPersistentStorage&lt;-DatabaseGisPersistentStorageImplementation" style="stroke: #A80036; stroke-width: 1.0; stroke-dasharray: 7.0,7.0;"/><polygon fill="none" points="202,199.02,209,179.02,216,199.02,202,199.02" style="stroke: #A80036; stroke-width: 1.0;"/><!--MD5=[eba24b70a907c735bb52aabad211123f]
@startuml DatabaseGisPersistentStorageImplementation_DirectDependencies


package edu.oakland.production.database01 {
    class DatabaseGisPersistentStorageImplementation {
        __
        .. Use Case 1 ..

        .. Use Case 2 ..

    }
}



package edu.oakland.production.database01 {
    interface DatabaseGisPersistentStorage {
        __
        .. Use Case 1 ..
        {abstract} + void storeLocation(LocationDataPoint locationDataPoint)
        .. Use Case 2 ..
        {abstract} + void storeMode(String mode)
        {abstract} + String getNextSat(String currentSat)
    }
}

DatabaseGisPersistentStorageImplementation .up.|> DatabaseGisPersistentStorage





@enduml

PlantUML version 1.2020.02(Sun Mar 01 10:22:07 GMT 2020)
(GPL source distribution)
Java Runtime: OpenJDK Runtime Environment
JVM: OpenJDK 64-Bit Server VM
Java Version: 11.0.9+11-Ubuntu-0ubuntu1
Operating System: Linux
Default Encoding: ANSI_X3.4-1968
Language: en
Country: US
--></g></svg>