<?xml version="1.0" encoding="UTF-8" standalone="no"?><svg xmlns="http://www.w3.org/2000/svg" xmlns:xlink="http://www.w3.org/1999/xlink" contentScriptType="application/ecmascript" contentStyleType="text/css" height="638px" preserveAspectRatio="none" style="width:492px;height:638px;" version="1.1" viewBox="0 0 492 638" width="492px" zoomAndPan="magnify"><defs><filter height="300%" id="fvm9l3uoysxgg" width="300%" x="-1" y="-1"><feGaussianBlur result="blurOut" stdDeviation="2.0"/><feColorMatrix in="blurOut" result="blurOut2" type="matrix" values="0 0 0 0 0 0 0 0 0 0 0 0 0 0 0 0 0 0 .4 0"/><feOffset dx="4.0" dy="4.0" in="blurOut2" result="blurOut3"/><feBlend in="SourceGraphic" in2="blurOut3" mode="normal"/></filter></defs><g><!--MD5=[3e281e6f49e0b185d62a106a5d994a08]
cluster edu.oakland.production.display01--><polygon fill="#FFFFFF" filter="url(#fvm9l3uoysxgg)" points="31,24,304,24,311,46.2969,461,46.2969,461,439,31,439,31,24" style="stroke: #000000; stroke-width: 1.5;"/><line style="stroke: #000000; stroke-width: 1.5;" x1="31" x2="311" y1="46.2969" y2="46.2969"/><text fill="#000000" font-family="sans-serif" font-size="14" font-weight="bold" lengthAdjust="spacingAndGlyphs" textLength="267" x="35" y="38.9951">edu.oakland.production.display01</text><!--MD5=[d02020cdc9562d037d87b751d110dd8b]
cluster edu.oakland.helper.display01--><polygon fill="#FFFFFF" filter="url(#fvm9l3uoysxgg)" points="22,463,260,463,267,485.2969,470,485.2969,470,626,22,626,22,463" style="stroke: #000000; stroke-width: 1.5;"/><line style="stroke: #000000; stroke-width: 1.5;" x1="22" x2="267" y1="485.2969" y2="485.2969"/><text fill="#000000" font-family="sans-serif" font-size="14" font-weight="bold" lengthAdjust="spacingAndGlyphs" textLength="232" x="26" y="477.9951">edu.oakland.helper.display01</text><!--MD5=[6376794c08ca75f6fa530286e1e32b13]
class DisplayGpsInterfaceImplementation--><rect fill="#FEFECE" filter="url(#fvm9l3uoysxgg)" height="171.2422" id="DisplayGpsInterfaceImplementation" style="stroke: #A80036; stroke-width: 1.5;" width="398" x="47" y="252"/><ellipse cx="131.25" cy="268" fill="#ADD1B2" rx="11" ry="11" style="stroke: #A80036; stroke-width: 1.0;"/><path d="M134.2188,273.6406 Q133.6406,273.9375 133,274.0781 Q132.3594,274.2344 131.6563,274.2344 Q129.1563,274.2344 127.8281,272.5938 Q126.5156,270.9375 126.5156,267.8125 Q126.5156,264.6875 127.8281,263.0313 Q129.1563,261.375 131.6563,261.375 Q132.3594,261.375 133,261.5313 Q133.6563,261.6875 134.2188,261.9844 L134.2188,264.7031 Q133.5938,264.125 133,263.8594 Q132.4063,263.5781 131.7813,263.5781 Q130.4375,263.5781 129.75,264.6563 Q129.0625,265.7188 129.0625,267.8125 Q129.0625,269.9063 129.75,270.9844 Q130.4375,272.0469 131.7813,272.0469 Q132.4063,272.0469 133,271.7813 Q133.5938,271.5 134.2188,270.9219 L134.2188,273.6406 Z "/><text fill="#000000" font-family="sans-serif" font-size="12" lengthAdjust="spacingAndGlyphs" textLength="221" x="151.75" y="272.1543">DisplayGpsInterfaceImplementation</text><line style="stroke: #A80036; stroke-width: 1.5;" x1="48" x2="444" y1="284" y2="284"/><rect fill="none" height="6" style="stroke: #C82930; stroke-width: 1.0;" width="6" x="55" y="292"/><text fill="#000000" font-family="sans-serif" font-size="11" lengthAdjust="spacingAndGlyphs" textLength="162" x="67" y="298.2104">DisplayGpsReciever reciever</text><line style="stroke: #A80036; stroke-width: 1.5;" x1="48" x2="444" y1="304.8047" y2="304.8047"/><ellipse cx="58" cy="315.8047" fill="#84BE84" rx="3" ry="3" style="stroke: #038048; stroke-width: 1.0;"/><text fill="#000000" font-family="sans-serif" font-size="11" lengthAdjust="spacingAndGlyphs" textLength="372" x="67" y="319.0151">DisplayGpsInterfaceImplementation(DisplayGpsReciever reciever)</text><ellipse cx="58" cy="345.4141" fill="#84BE84" rx="3" ry="3" style="stroke: #038048; stroke-width: 1.0;"/><text fill="#000000" font-family="sans-serif" font-size="11" lengthAdjust="spacingAndGlyphs" textLength="264" x="67" y="348.6245">void receiveGpsSignal(Satellite satelliteSignal)</text><line style="stroke: #A80036; stroke-width: 1.0; stroke-dasharray: 1.0,2.0;" x1="48" x2="213" y1="332.0117" y2="332.0117"/><text fill="#000000" font-family="sans-serif" font-size="11" lengthAdjust="spacingAndGlyphs" textLength="66" x="213" y="335.3198">Use Case 1</text><line style="stroke: #A80036; stroke-width: 1.0; stroke-dasharray: 1.0,2.0;" x1="279" x2="444" y1="332.0117" y2="332.0117"/><ellipse cx="58" cy="375.0234" fill="#84BE84" rx="3" ry="3" style="stroke: #038048; stroke-width: 1.0;"/><text fill="#000000" font-family="sans-serif" font-size="11" lengthAdjust="spacingAndGlyphs" textLength="271" x="67" y="378.2339">void reportGpsSignalLoss(String satelliteName)</text><ellipse cx="58" cy="387.8281" fill="#84BE84" rx="3" ry="3" style="stroke: #038048; stroke-width: 1.0;"/><text fill="#000000" font-family="sans-serif" font-size="11" lengthAdjust="spacingAndGlyphs" textLength="274" x="67" y="391.0386">void recheckSignalStength(String satelliteName)</text><ellipse cx="58" cy="400.6328" fill="#84BE84" rx="3" ry="3" style="stroke: #038048; stroke-width: 1.0;"/><text fill="#000000" font-family="sans-serif" font-size="11" lengthAdjust="spacingAndGlyphs" textLength="262" x="67" y="403.8433">void checkSignalStength(String satelliteName)</text><rect fill="#F24D5C" height="6" style="stroke: #C82930; stroke-width: 1.0;" width="6" x="55" y="410.4375"/><text fill="#000000" font-family="sans-serif" font-size="11" lengthAdjust="spacingAndGlyphs" textLength="261" x="67" y="416.6479">int reportSignalStrength(String satelliteName)</text><line style="stroke: #A80036; stroke-width: 1.0; stroke-dasharray: 1.0,2.0;" x1="48" x2="213" y1="361.6211" y2="361.6211"/><text fill="#000000" font-family="sans-serif" font-size="11" lengthAdjust="spacingAndGlyphs" textLength="66" x="213" y="364.9292">Use Case 2</text><line style="stroke: #A80036; stroke-width: 1.0; stroke-dasharray: 1.0,2.0;" x1="279" x2="444" y1="361.6211" y2="361.6211"/><!--MD5=[fa6248c05b5a852ecd50b5411f159754]
class DisplayGpsInterface--><rect fill="#FEFECE" filter="url(#fvm9l3uoysxgg)" height="132.8281" id="DisplayGpsInterface" style="stroke: #A80036; stroke-width: 1.5;" width="297" x="97.5" y="59"/><ellipse cx="179.75" cy="75" fill="#B4A7E5" rx="11" ry="11" style="stroke: #A80036; stroke-width: 1.0;"/><path d="M175.6719,70.7656 L175.6719,68.6094 L183.0625,68.6094 L183.0625,70.7656 L180.5938,70.7656 L180.5938,78.8438 L183.0625,78.8438 L183.0625,81 L175.6719,81 L175.6719,78.8438 L178.1406,78.8438 L178.1406,70.7656 L175.6719,70.7656 Z "/><text fill="#000000" font-family="sans-serif" font-size="12" font-style="italic" lengthAdjust="spacingAndGlyphs" textLength="124" x="200.25" y="79.1543">DisplayGpsInterface</text><line style="stroke: #A80036; stroke-width: 1.5;" x1="98.5" x2="393.5" y1="91" y2="91"/><line style="stroke: #A80036; stroke-width: 1.5;" x1="98.5" x2="393.5" y1="99" y2="99"/><ellipse cx="108.5" cy="126.8047" fill="#84BE84" rx="3" ry="3" style="stroke: #038048; stroke-width: 1.0;"/><text fill="#000000" font-family="sans-serif" font-size="11" font-style="italic" lengthAdjust="spacingAndGlyphs" textLength="261" x="117.5" y="130.0151">void receiveGpsSignal(Satellite satelliteSignal)</text><line style="stroke: #A80036; stroke-width: 1.0; stroke-dasharray: 1.0,2.0;" x1="98.5" x2="213" y1="113.4023" y2="113.4023"/><text fill="#000000" font-family="sans-serif" font-size="11" lengthAdjust="spacingAndGlyphs" textLength="66" x="213" y="116.7104">Use Case 1</text><line style="stroke: #A80036; stroke-width: 1.0; stroke-dasharray: 1.0,2.0;" x1="279" x2="393.5" y1="113.4023" y2="113.4023"/><ellipse cx="108.5" cy="156.4141" fill="#84BE84" rx="3" ry="3" style="stroke: #038048; stroke-width: 1.0;"/><text fill="#000000" font-family="sans-serif" font-size="11" font-style="italic" lengthAdjust="spacingAndGlyphs" textLength="266" x="117.5" y="159.6245">void reportGpsSignalLoss(String satelliteName)</text><ellipse cx="108.5" cy="169.2188" fill="#84BE84" rx="3" ry="3" style="stroke: #038048; stroke-width: 1.0;"/><text fill="#000000" font-family="sans-serif" font-size="11" font-style="italic" lengthAdjust="spacingAndGlyphs" textLength="271" x="117.5" y="172.4292">void recheckSignalStength(String satelliteName)</text><ellipse cx="108.5" cy="182.0234" fill="#84BE84" rx="3" ry="3" style="stroke: #038048; stroke-width: 1.0;"/><text fill="#000000" font-family="sans-serif" font-size="11" font-style="italic" lengthAdjust="spacingAndGlyphs" textLength="259" x="117.5" y="185.2339">void checkSignalStength(String satelliteName)</text><line style="stroke: #A80036; stroke-width: 1.0; stroke-dasharray: 1.0,2.0;" x1="98.5" x2="213" y1="143.0117" y2="143.0117"/><text fill="#000000" font-family="sans-serif" font-size="11" lengthAdjust="spacingAndGlyphs" textLength="66" x="213" y="146.3198">Use Case 2</text><line style="stroke: #A80036; stroke-width: 1.0; stroke-dasharray: 1.0,2.0;" x1="279" x2="393.5" y1="143.0117" y2="143.0117"/><!--MD5=[b7db7f9e4ca1b2f55d32a1a48f9dd068]
class SatelliteSignalCheckRequest--><rect fill="#FEFECE" filter="url(#fvm9l3uoysxgg)" height="112.0234" id="SatelliteSignalCheckRequest" style="stroke: #A80036; stroke-width: 1.5;" width="416" x="38" y="498"/><ellipse cx="152.25" cy="514" fill="#ADD1B2" rx="11" ry="11" style="stroke: #A80036; stroke-width: 1.0;"/><path d="M155.2188,519.6406 Q154.6406,519.9375 154,520.0781 Q153.3594,520.2344 152.6563,520.2344 Q150.1563,520.2344 148.8281,518.5938 Q147.5156,516.9375 147.5156,513.8125 Q147.5156,510.6875 148.8281,509.0313 Q150.1563,507.375 152.6563,507.375 Q153.3594,507.375 154,507.5313 Q154.6563,507.6875 155.2188,507.9844 L155.2188,510.7031 Q154.5938,510.125 154,509.8594 Q153.4063,509.5781 152.7813,509.5781 Q151.4375,509.5781 150.75,510.6563 Q150.0625,511.7188 150.0625,513.8125 Q150.0625,515.9063 150.75,516.9844 Q151.4375,518.0469 152.7813,518.0469 Q153.4063,518.0469 154,517.7813 Q154.5938,517.5 155.2188,516.9219 L155.2188,519.6406 Z "/><text fill="#000000" font-family="sans-serif" font-size="12" lengthAdjust="spacingAndGlyphs" textLength="179" x="172.75" y="518.1543">SatelliteSignalCheckRequest</text><line style="stroke: #A80036; stroke-width: 1.5;" x1="39" x2="453" y1="530" y2="530"/><rect fill="none" height="6" style="stroke: #C82930; stroke-width: 1.0;" width="6" x="46" y="538"/><text fill="#000000" font-family="sans-serif" font-size="11" lengthAdjust="spacingAndGlyphs" textLength="116" x="58" y="544.2104">String satelliteName</text><rect fill="none" height="6" style="stroke: #C82930; stroke-width: 1.0;" width="6" x="46" y="550.8047"/><text fill="#000000" font-family="sans-serif" font-size="11" lengthAdjust="spacingAndGlyphs" textLength="97" x="58" y="557.0151">String checkType</text><line style="stroke: #A80036; stroke-width: 1.5;" x1="39" x2="453" y1="563.6094" y2="563.6094"/><ellipse cx="49" cy="574.6094" fill="#84BE84" rx="3" ry="3" style="stroke: #038048; stroke-width: 1.0;"/><text fill="#000000" font-family="sans-serif" font-size="11" lengthAdjust="spacingAndGlyphs" textLength="390" x="58" y="577.8198">SatelliteSignalCheckRequest(String satelliteName, String checkType)</text><ellipse cx="49" cy="587.4141" fill="#84BE84" rx="3" ry="3" style="stroke: #038048; stroke-width: 1.0;"/><text fill="#000000" font-family="sans-serif" font-size="11" lengthAdjust="spacingAndGlyphs" textLength="143" x="58" y="590.6245">String getSatelliteName()</text><ellipse cx="49" cy="600.2188" fill="#84BE84" rx="3" ry="3" style="stroke: #038048; stroke-width: 1.0;"/><text fill="#000000" font-family="sans-serif" font-size="11" lengthAdjust="spacingAndGlyphs" textLength="125" x="58" y="603.4292">String getCheckType()</text><!--MD5=[5e11d977f08105e989255e48b5831e9e]
reverse link DisplayGpsInterface to DisplayGpsInterfaceImplementation--><path d="M246,212.15 C246,225.22 246,238.7 246,251.74 " fill="none" id="DisplayGpsInterface&lt;-DisplayGpsInterfaceImplementation" style="stroke: #A80036; stroke-width: 1.0; stroke-dasharray: 7.0,7.0;"/><polygon fill="none" points="239,212.08,246,192.08,253,212.08,239,212.08" style="stroke: #A80036; stroke-width: 1.0;"/><!--MD5=[15c92c2a2adf203ad041f33ed955827c]
link DisplayGpsInterfaceImplementation to SatelliteSignalCheckRequest--><path d="M246,423.28 C246,446.48 246,471.15 246,492.67 " fill="none" id="DisplayGpsInterfaceImplementation-&gt;SatelliteSignalCheckRequest" style="stroke: #A80036; stroke-width: 1.0; stroke-dasharray: 7.0,7.0;"/><polygon fill="#A80036" points="246,497.79,250,488.79,246,492.79,242,488.79,246,497.79" style="stroke: #A80036; stroke-width: 1.0;"/><!--MD5=[0c87de1f4f74beab6ff59f3e692c99ea]
@startuml DisplayGpsInterfaceImplementation_DirectDependencies



package edu.oakland.production.display01 {
    class DisplayGpsInterfaceImplementation {
        - DisplayGpsReciever reciever
        __
        + DisplayGpsInterfaceImplementation(DisplayGpsReciever reciever)
        .. Use Case 1 ..
        + void receiveGpsSignal(Satellite satelliteSignal)
        .. Use Case 2 ..
        + void reportGpsSignalLoss(String satelliteName)
        + void recheckSignalStength(String satelliteName)
        + void checkSignalStength(String satelliteName)
        - int reportSignalStrength(String satelliteName)
    }
}



package edu.oakland.production.display01 {
    interface DisplayGpsInterface {
        __
        .. Use Case 1 ..
        {abstract} + void receiveGpsSignal(Satellite satelliteSignal)
        .. Use Case 2 ..
        {abstract} + void reportGpsSignalLoss(String satelliteName)
        {abstract} + void recheckSignalStength(String satelliteName)
        {abstract} + void checkSignalStength(String satelliteName)
    }
}

DisplayGpsInterfaceImplementation .up.|> DisplayGpsInterface


package edu.oakland.helper.display01 {
    class SatelliteSignalCheckRequest {
        - String satelliteName
        - String checkType
        + SatelliteSignalCheckRequest(String satelliteName, String checkType)
        + String getSatelliteName()
        + String getCheckType()
    }
}

DisplayGpsInterfaceImplementation ..> SatelliteSignalCheckRequest



@enduml

PlantUML version 1.2020.02(Sun Mar 01 10:22:07 GMT 2020)
(GPL source distribution)
Java Runtime: OpenJDK Runtime Environment
JVM: OpenJDK 64-Bit Server VM
Java Version: 11.0.9+11-Ubuntu-0ubuntu1
Operating System: Linux
Default Encoding: ANSI_X3.4-1968
Language: en
Country: US
--></g></svg>