<?xml version="1.0" encoding="UTF-8" standalone="no"?><svg xmlns="http://www.w3.org/2000/svg" xmlns:xlink="http://www.w3.org/1999/xlink" contentScriptType="application/ecmascript" contentStyleType="text/css" height="688px" preserveAspectRatio="none" style="width:620px;height:688px;" version="1.1" viewBox="0 0 620 688" width="620px" zoomAndPan="magnify"><defs><filter height="300%" id="f1w328onwx4ptt" width="300%" x="-1" y="-1"><feGaussianBlur result="blurOut" stdDeviation="2.0"/><feColorMatrix in="blurOut" result="blurOut2" type="matrix" values="0 0 0 0 0 0 0 0 0 0 0 0 0 0 0 0 0 0 .4 0"/><feOffset dx="4.0" dy="4.0" in="blurOut2" result="blurOut3"/><feBlend in="SourceGraphic" in2="blurOut3" mode="normal"/></filter></defs><g><!--MD5=[1c31ecb5904c746202b213b50c20f406]
cluster edu.oakland.helper.database--><polygon fill="#FFFFFF" filter="url(#f1w328onwx4ptt)" points="22,24,257,24,264,46.2969,598,46.2969,598,302,22,302,22,24" style="stroke: #000000; stroke-width: 1.5;"/><line style="stroke: #000000; stroke-width: 1.5;" x1="22" x2="264" y1="46.2969" y2="46.2969"/><text fill="#000000" font-family="sans-serif" font-size="14" font-weight="bold" lengthAdjust="spacingAndGlyphs" textLength="229" x="26" y="38.9951">edu.oakland.helper.database</text><!--MD5=[c2e276049abfe145c9906edb061abd32]
cluster edu.oakland.production.database--><polygon fill="#FFFFFF" filter="url(#f1w328onwx4ptt)" points="96,326,366,326,373,348.2969,524,348.2969,524,676,96,676,96,326" style="stroke: #000000; stroke-width: 1.5;"/><line style="stroke: #000000; stroke-width: 1.5;" x1="96" x2="373" y1="348.2969" y2="348.2969"/><text fill="#000000" font-family="sans-serif" font-size="14" font-weight="bold" lengthAdjust="spacingAndGlyphs" textLength="264" x="100" y="340.9951">edu.oakland.production.database</text><!--MD5=[768efef9abab327639742b1d01f0bde7]
class PersistentStorageManager--><rect fill="#FEFECE" filter="url(#f1w328onwx4ptt)" height="227.2656" id="PersistentStorageManager" style="stroke: #A80036; stroke-width: 1.5;" width="543" x="38.5" y="59"/><ellipse cx="221.25" cy="75" fill="#ADD1B2" rx="11" ry="11" style="stroke: #A80036; stroke-width: 1.0;"/><path d="M224.2188,80.6406 Q223.6406,80.9375 223,81.0781 Q222.3594,81.2344 221.6563,81.2344 Q219.1563,81.2344 217.8281,79.5938 Q216.5156,77.9375 216.5156,74.8125 Q216.5156,71.6875 217.8281,70.0313 Q219.1563,68.375 221.6563,68.375 Q222.3594,68.375 223,68.5313 Q223.6563,68.6875 224.2188,68.9844 L224.2188,71.7031 Q223.5938,71.125 223,70.8594 Q222.4063,70.5781 221.7813,70.5781 Q220.4375,70.5781 219.75,71.6563 Q219.0625,72.7188 219.0625,74.8125 Q219.0625,76.9063 219.75,77.9844 Q220.4375,79.0469 221.7813,79.0469 Q222.4063,79.0469 223,78.7813 Q223.5938,78.5 224.2188,77.9219 L224.2188,80.6406 Z "/><text fill="#000000" font-family="sans-serif" font-size="12" lengthAdjust="spacingAndGlyphs" textLength="169" x="241.75" y="79.1543">PersistentStorageManager</text><line style="stroke: #A80036; stroke-width: 1.5;" x1="39.5" x2="580.5" y1="91" y2="91"/><rect fill="none" height="6" style="stroke: #C82930; stroke-width: 1.0;" width="6" x="46.5" y="99"/><text fill="#000000" font-family="sans-serif" font-size="11" lengthAdjust="spacingAndGlyphs" textLength="118" x="58.5" y="105.2104">String inputFileName</text><rect fill="none" height="6" style="stroke: #C82930; stroke-width: 1.0;" width="6" x="46.5" y="111.8047"/><text fill="#000000" font-family="sans-serif" font-size="11" lengthAdjust="spacingAndGlyphs" textLength="126" x="58.5" y="118.0151">String outputFileName</text><rect fill="none" height="6" style="stroke: #C82930; stroke-width: 1.0;" width="6" x="46.5" y="124.6094"/><text fill="#000000" font-family="sans-serif" font-size="11" lengthAdjust="spacingAndGlyphs" textLength="493" x="58.5" y="130.8198">DatabasePersistentStorageImplementation databasePersistentStorageImplementation</text><line style="stroke: #A80036; stroke-width: 1.5;" x1="39.5" x2="580.5" y1="137.4141" y2="137.4141"/><ellipse cx="49.5" cy="148.4141" fill="#84BE84" rx="3" ry="3" style="stroke: #038048; stroke-width: 1.0;"/><text fill="#000000" font-family="sans-serif" font-size="11" lengthAdjust="spacingAndGlyphs" textLength="517" x="58.5" y="151.6245">PersistentStorageManager(String inputFileName, String outputFileName, Scanner scanner)</text><ellipse cx="49.5" cy="161.2188" fill="#84BE84" rx="3" ry="3" style="stroke: #038048; stroke-width: 1.0;"/><text fill="#000000" font-family="sans-serif" font-size="11" lengthAdjust="spacingAndGlyphs" textLength="279" x="58.5" y="164.4292">DatabasePersistentStorage readPersistentData()</text><ellipse cx="49.5" cy="174.0234" fill="#84BE84" rx="3" ry="3" style="stroke: #038048; stroke-width: 1.0;"/><text fill="#000000" font-family="sans-serif" font-size="11" lengthAdjust="spacingAndGlyphs" textLength="147" x="58.5" y="177.2339">void writePersistentData()</text><ellipse cx="49.5" cy="186.8281" fill="#84BE84" rx="3" ry="3" style="stroke: #038048; stroke-width: 1.0;"/><text fill="#000000" font-family="sans-serif" font-size="11" lengthAdjust="spacingAndGlyphs" textLength="407" x="58.5" y="190.0386">DatabasePersistentStorageImplementation deserializeData(String data)</text><ellipse cx="49.5" cy="199.6328" fill="#84BE84" rx="3" ry="3" style="stroke: #038048; stroke-width: 1.0;"/><text fill="#000000" font-family="sans-serif" font-size="11" lengthAdjust="spacingAndGlyphs" textLength="393" x="58.5" y="202.8433">String serializeData(DatabasePersistentStorageImplementation data)</text><rect fill="#F24D5C" height="6" style="stroke: #C82930; stroke-width: 1.0;" width="6" x="46.5" y="209.4375"/><text fill="#000000" font-family="sans-serif" font-size="11" lengthAdjust="spacingAndGlyphs" textLength="138" x="58.5" y="215.6479">boolean inputFileExists()</text><rect fill="#F24D5C" height="6" style="stroke: #C82930; stroke-width: 1.0;" width="6" x="46.5" y="222.2422"/><text fill="#000000" font-family="sans-serif" font-size="11" lengthAdjust="spacingAndGlyphs" textLength="146" x="58.5" y="228.4526">boolean outputFileExists()</text><rect fill="#F24D5C" height="6" style="stroke: #C82930; stroke-width: 1.0;" width="6" x="46.5" y="235.0469"/><text fill="#000000" font-family="sans-serif" font-size="11" lengthAdjust="spacingAndGlyphs" textLength="118" x="58.5" y="241.2573">void createInputFile()</text><rect fill="#F24D5C" height="6" style="stroke: #C82930; stroke-width: 1.0;" width="6" x="46.5" y="247.8516"/><text fill="#000000" font-family="sans-serif" font-size="11" lengthAdjust="spacingAndGlyphs" textLength="128" x="58.5" y="254.062">void createOutputFile()</text><rect fill="#F24D5C" height="6" style="stroke: #C82930; stroke-width: 1.0;" width="6" x="46.5" y="260.6563"/><text fill="#000000" font-family="sans-serif" font-size="11" lengthAdjust="spacingAndGlyphs" textLength="119" x="58.5" y="266.8667">String readInputFile()</text><rect fill="#F24D5C" height="6" style="stroke: #C82930; stroke-width: 1.0;" width="6" x="46.5" y="273.4609"/><text fill="#000000" font-family="sans-serif" font-size="11" lengthAdjust="spacingAndGlyphs" textLength="120" x="58.5" y="279.6714">void writeOutputFile()</text><!--MD5=[6c3ae89235db7efba3a5d8ea9fd47e2d]
class DatabasePersistentStorageImplementation--><rect fill="#FEFECE" filter="url(#f1w328onwx4ptt)" height="299.2891" id="DatabasePersistentStorageImplementation" style="stroke: #A80036; stroke-width: 1.5;" width="395" x="112.5" y="361"/><ellipse cx="169.75" cy="377" fill="#ADD1B2" rx="11" ry="11" style="stroke: #A80036; stroke-width: 1.0;"/><path d="M172.7188,382.6406 Q172.1406,382.9375 171.5,383.0781 Q170.8594,383.2344 170.1563,383.2344 Q167.6563,383.2344 166.3281,381.5938 Q165.0156,379.9375 165.0156,376.8125 Q165.0156,373.6875 166.3281,372.0313 Q167.6563,370.375 170.1563,370.375 Q170.8594,370.375 171.5,370.5313 Q172.1563,370.6875 172.7188,370.9844 L172.7188,373.7031 Q172.0938,373.125 171.5,372.8594 Q170.9063,372.5781 170.2813,372.5781 Q168.9375,372.5781 168.25,373.6563 Q167.5625,374.7188 167.5625,376.8125 Q167.5625,378.9063 168.25,379.9844 Q168.9375,381.0469 170.2813,381.0469 Q170.9063,381.0469 171.5,380.7813 Q172.0938,380.5 172.7188,379.9219 L172.7188,382.6406 Z "/><text fill="#000000" font-family="sans-serif" font-size="12" lengthAdjust="spacingAndGlyphs" textLength="272" x="190.25" y="381.1543">DatabasePersistentStorageImplementation</text><line style="stroke: #A80036; stroke-width: 1.5;" x1="113.5" x2="506.5" y1="393" y2="393"/><rect fill="none" height="6" style="stroke: #C82930; stroke-width: 1.0;" width="6" x="120.5" y="401"/><text fill="#000000" font-family="sans-serif" font-size="11" lengthAdjust="spacingAndGlyphs" textLength="63" x="132.5" y="407.2104">int rfidData</text><rect fill="none" height="6" style="stroke: #C82930; stroke-width: 1.0;" width="6" x="120.5" y="413.8047"/><text fill="#000000" font-family="sans-serif" font-size="11" lengthAdjust="spacingAndGlyphs" textLength="243" x="132.5" y="420.0151">ArrayList&lt;LocationDataPoint&gt; locDataPoint</text><rect fill="none" height="6" style="stroke: #C82930; stroke-width: 1.0;" width="6" x="120.5" y="426.6094"/><text fill="#000000" font-family="sans-serif" font-size="11" lengthAdjust="spacingAndGlyphs" textLength="183" x="132.5" y="432.8198">ArrayList&lt;TrackData&gt; trackData</text><rect fill="none" height="6" style="stroke: #C82930; stroke-width: 1.0;" width="6" x="120.5" y="439.4141"/><text fill="#000000" font-family="sans-serif" font-size="11" lengthAdjust="spacingAndGlyphs" textLength="123" x="132.5" y="445.6245">String[] nextSatellites</text><rect fill="none" height="6" style="stroke: #C82930; stroke-width: 1.0;" width="6" x="120.5" y="452.2188"/><text fill="#000000" font-family="sans-serif" font-size="11" lengthAdjust="spacingAndGlyphs" textLength="70" x="132.5" y="458.4292">String mode</text><line style="stroke: #A80036; stroke-width: 1.5;" x1="113.5" x2="506.5" y1="465.0234" y2="465.0234"/><ellipse cx="123.5" cy="476.0234" fill="#84BE84" rx="3" ry="3" style="stroke: #038048; stroke-width: 1.0;"/><text fill="#000000" font-family="sans-serif" font-size="11" lengthAdjust="spacingAndGlyphs" textLength="228" x="132.5" y="479.2339">DatabasePersistentStorage(int rfidData,</text><text fill="#000000" font-family="sans-serif" font-size="11" lengthAdjust="spacingAndGlyphs" textLength="247" x="164.5" y="492.0386">ArrayList&lt;LocationDataPoint&gt; locDataPoint,</text><text fill="#000000" font-family="sans-serif" font-size="11" lengthAdjust="spacingAndGlyphs" textLength="187" x="164.5" y="504.8433">ArrayList&lt;TrackData&gt; trackData,</text><text fill="#000000" font-family="sans-serif" font-size="11" lengthAdjust="spacingAndGlyphs" textLength="127" x="164.5" y="517.6479">String[] nextSatellites)</text><ellipse cx="123.5" cy="544.0469" fill="#84BE84" rx="3" ry="3" style="stroke: #038048; stroke-width: 1.0;"/><text fill="#000000" font-family="sans-serif" font-size="11" lengthAdjust="spacingAndGlyphs" textLength="107" x="132.5" y="547.2573">int locateRfidData()</text><ellipse cx="123.5" cy="556.8516" fill="#84BE84" rx="3" ry="3" style="stroke: #038048; stroke-width: 1.0;"/><text fill="#000000" font-family="sans-serif" font-size="11" lengthAdjust="spacingAndGlyphs" textLength="283" x="132.5" y="560.062">LocationDataPoint getLocationDataPoint(int offset)</text><ellipse cx="123.5" cy="569.6563" fill="#84BE84" rx="3" ry="3" style="stroke: #038048; stroke-width: 1.0;"/><text fill="#000000" font-family="sans-serif" font-size="11" lengthAdjust="spacingAndGlyphs" textLength="369" x="132.5" y="572.8667">void storeLocationDataPoint(LocationDataPoint locationDataPoint)</text><ellipse cx="123.5" cy="582.4609" fill="#84BE84" rx="3" ry="3" style="stroke: #038048; stroke-width: 1.0;"/><text fill="#000000" font-family="sans-serif" font-size="11" lengthAdjust="spacingAndGlyphs" textLength="195" x="132.5" y="585.6714">TrackData getTrackData(int offset)</text><ellipse cx="123.5" cy="595.2656" fill="#84BE84" rx="3" ry="3" style="stroke: #038048; stroke-width: 1.0;"/><text fill="#000000" font-family="sans-serif" font-size="11" lengthAdjust="spacingAndGlyphs" textLength="237" x="132.5" y="598.4761">void storeTrackData(TrackData trackData)</text><ellipse cx="123.5" cy="608.0703" fill="#84BE84" rx="3" ry="3" style="stroke: #038048; stroke-width: 1.0;"/><text fill="#000000" font-family="sans-serif" font-size="11" lengthAdjust="spacingAndGlyphs" textLength="94" x="132.5" y="611.2808">String getMode()</text><line style="stroke: #A80036; stroke-width: 1.0; stroke-dasharray: 1.0,2.0;" x1="113.5" x2="277" y1="530.6445" y2="530.6445"/><text fill="#000000" font-family="sans-serif" font-size="11" lengthAdjust="spacingAndGlyphs" textLength="66" x="277" y="533.9526">Use Case 1</text><line style="stroke: #A80036; stroke-width: 1.0; stroke-dasharray: 1.0,2.0;" x1="343" x2="506.5" y1="530.6445" y2="530.6445"/><ellipse cx="123.5" cy="637.6797" fill="#84BE84" rx="3" ry="3" style="stroke: #038048; stroke-width: 1.0;"/><text fill="#000000" font-family="sans-serif" font-size="11" lengthAdjust="spacingAndGlyphs" textLength="165" x="132.5" y="640.8901">void storeMode(String mode)</text><ellipse cx="123.5" cy="650.4844" fill="#84BE84" rx="3" ry="3" style="stroke: #038048; stroke-width: 1.0;"/><text fill="#000000" font-family="sans-serif" font-size="11" lengthAdjust="spacingAndGlyphs" textLength="206" x="132.5" y="653.6948">String getNextSat(String currentSat)</text><line style="stroke: #A80036; stroke-width: 1.0; stroke-dasharray: 1.0,2.0;" x1="113.5" x2="277" y1="624.2773" y2="624.2773"/><text fill="#000000" font-family="sans-serif" font-size="11" lengthAdjust="spacingAndGlyphs" textLength="66" x="277" y="627.5854">Use Case 2</text><line style="stroke: #A80036; stroke-width: 1.0; stroke-dasharray: 1.0,2.0;" x1="343" x2="506.5" y1="624.2773" y2="624.2773"/><!--MD5=[578d6383e6b3f0bd4f8fbd4af3dbe2d8]
link PersistentStorageManager to DatabasePersistentStorageImplementation--><path d="M310,286.32 C310,308.56 310,332.26 310,355.59 " fill="none" id="PersistentStorageManager-&gt;DatabasePersistentStorageImplementation" style="stroke: #A80036; stroke-width: 1.0;"/><polygon fill="#A80036" points="310,360.88,314,351.88,310,355.88,306,351.88,310,360.88" style="stroke: #A80036; stroke-width: 1.0;"/><!--MD5=[845a8e7f3cbc4fadaf186c644a31ef16]
@startuml DatabaseHelperPackage_DirectDependencies

package edu.oakland.helper.database {
    
}


package edu.oakland.helper.database {
    
}


package edu.oakland.helper.database {
    class PersistentStorageManager {
        - String inputFileName
        - String outputFileName
        - DatabasePersistentStorageImplementation databasePersistentStorageImplementation
        + PersistentStorageManager(String inputFileName, String outputFileName, Scanner scanner)
        + DatabasePersistentStorage readPersistentData()
        + void writePersistentData()
        + DatabasePersistentStorageImplementation deserializeData(String data)
        + String serializeData(DatabasePersistentStorageImplementation data)
        - boolean inputFileExists()
        - boolean outputFileExists()
        - void createInputFile()
        - void createOutputFile()
        - String readInputFile()
        - void writeOutputFile()
    }
}



package edu.oakland.production.database {
    class DatabasePersistentStorageImplementation {
        - int rfidData
        - ArrayList<LocationDataPoint> locDataPoint
        - ArrayList<TrackData> trackData
        - String[] nextSatellites
        - String mode
        __
        + DatabasePersistentStorage(int rfidData, 
        \tArrayList<LocationDataPoint> locDataPoint, 
        \tArrayList<TrackData> trackData, 
        \tString[] nextSatellites)
        .. Use Case 1 ..
        + int locateRfidData()
        + LocationDataPoint getLocationDataPoint(int offset)
        + void storeLocationDataPoint(LocationDataPoint locationDataPoint)
        + TrackData getTrackData(int offset)
        + void storeTrackData(TrackData trackData)
        + String getMode()
        .. Use Case 2 ..
        + void storeMode(String mode)
        + String getNextSat(String currentSat)
    }
}

PersistentStorageManager - -> DatabasePersistentStorageImplementation



@enduml

PlantUML version 1.2020.02(Sun Mar 01 10:22:07 GMT 2020)
(GPL source distribution)
Java Runtime: OpenJDK Runtime Environment
JVM: OpenJDK 64-Bit Server VM
Java Version: 11.0.9+11-Ubuntu-0ubuntu1
Operating System: Linux
Default Encoding: ANSI_X3.4-1968
Language: en
Country: US
--></g></svg>