<?xml version="1.0" encoding="UTF-8" standalone="no"?><svg xmlns="http://www.w3.org/2000/svg" xmlns:xlink="http://www.w3.org/1999/xlink" contentScriptType="application/ecmascript" contentStyleType="text/css" height="673px" preserveAspectRatio="none" style="width:1072px;height:673px;" version="1.1" viewBox="0 0 1072 673" width="1072px" zoomAndPan="magnify"><defs><filter height="300%" id="f1k1vdwuzylv9v" width="300%" x="-1" y="-1"><feGaussianBlur result="blurOut" stdDeviation="2.0"/><feColorMatrix in="blurOut" result="blurOut2" type="matrix" values="0 0 0 0 0 0 0 0 0 0 0 0 0 0 0 0 0 0 .4 0"/><feOffset dx="4.0" dy="4.0" in="blurOut2" result="blurOut3"/><feBlend in="SourceGraphic" in2="blurOut3" mode="normal"/></filter></defs><g><!--MD5=[1c31ecb5904c746202b213b50c20f406]
cluster edu.oakland.helper.database--><polygon fill="#FFFFFF" filter="url(#f1k1vdwuzylv9v)" points="22,24,257,24,264,46.2969,598,46.2969,598,302,22,302,22,24" style="stroke: #000000; stroke-width: 1.5;"/><line style="stroke: #000000; stroke-width: 1.5;" x1="22" x2="264" y1="46.2969" y2="46.2969"/><text fill="#000000" font-family="sans-serif" font-size="14" font-weight="bold" lengthAdjust="spacingAndGlyphs" textLength="229" x="26" y="38.9951">edu.oakland.helper.database</text><!--MD5=[c2e276049abfe145c9906edb061abd32]
cluster edu.oakland.production.database--><polygon fill="#FFFFFF" filter="url(#f1k1vdwuzylv9v)" points="622,45.5,892,45.5,899,67.7969,1050,67.7969,1050,661,622,661,622,45.5" style="stroke: #000000; stroke-width: 1.5;"/><line style="stroke: #000000; stroke-width: 1.5;" x1="622" x2="899" y1="67.7969" y2="67.7969"/><text fill="#000000" font-family="sans-serif" font-size="14" font-weight="bold" lengthAdjust="spacingAndGlyphs" textLength="264" x="626" y="60.4951">edu.oakland.production.database</text><!--MD5=[768efef9abab327639742b1d01f0bde7]
class PersistentStorageManager--><rect fill="#FEFECE" filter="url(#f1k1vdwuzylv9v)" height="227.2656" id="PersistentStorageManager" style="stroke: #A80036; stroke-width: 1.5;" width="543" x="38.5" y="59"/><ellipse cx="221.25" cy="75" fill="#ADD1B2" rx="11" ry="11" style="stroke: #A80036; stroke-width: 1.0;"/><path d="M224.2188,80.6406 Q223.6406,80.9375 223,81.0781 Q222.3594,81.2344 221.6563,81.2344 Q219.1563,81.2344 217.8281,79.5938 Q216.5156,77.9375 216.5156,74.8125 Q216.5156,71.6875 217.8281,70.0313 Q219.1563,68.375 221.6563,68.375 Q222.3594,68.375 223,68.5313 Q223.6563,68.6875 224.2188,68.9844 L224.2188,71.7031 Q223.5938,71.125 223,70.8594 Q222.4063,70.5781 221.7813,70.5781 Q220.4375,70.5781 219.75,71.6563 Q219.0625,72.7188 219.0625,74.8125 Q219.0625,76.9063 219.75,77.9844 Q220.4375,79.0469 221.7813,79.0469 Q222.4063,79.0469 223,78.7813 Q223.5938,78.5 224.2188,77.9219 L224.2188,80.6406 Z "/><text fill="#000000" font-family="sans-serif" font-size="12" lengthAdjust="spacingAndGlyphs" textLength="169" x="241.75" y="79.1543">PersistentStorageManager</text><line style="stroke: #A80036; stroke-width: 1.5;" x1="39.5" x2="580.5" y1="91" y2="91"/><rect fill="none" height="6" style="stroke: #C82930; stroke-width: 1.0;" width="6" x="46.5" y="99"/><text fill="#000000" font-family="sans-serif" font-size="11" lengthAdjust="spacingAndGlyphs" textLength="118" x="58.5" y="105.2104">String inputFileName</text><rect fill="none" height="6" style="stroke: #C82930; stroke-width: 1.0;" width="6" x="46.5" y="111.8047"/><text fill="#000000" font-family="sans-serif" font-size="11" lengthAdjust="spacingAndGlyphs" textLength="126" x="58.5" y="118.0151">String outputFileName</text><rect fill="none" height="6" style="stroke: #C82930; stroke-width: 1.0;" width="6" x="46.5" y="124.6094"/><text fill="#000000" font-family="sans-serif" font-size="11" lengthAdjust="spacingAndGlyphs" textLength="493" x="58.5" y="130.8198">DatabasePersistentStorageImplementation databasePersistentStorageImplementation</text><line style="stroke: #A80036; stroke-width: 1.5;" x1="39.5" x2="580.5" y1="137.4141" y2="137.4141"/><ellipse cx="49.5" cy="148.4141" fill="#84BE84" rx="3" ry="3" style="stroke: #038048; stroke-width: 1.0;"/><text fill="#000000" font-family="sans-serif" font-size="11" lengthAdjust="spacingAndGlyphs" textLength="517" x="58.5" y="151.6245">PersistentStorageManager(String inputFileName, String outputFileName, Scanner scanner)</text><ellipse cx="49.5" cy="161.2188" fill="#84BE84" rx="3" ry="3" style="stroke: #038048; stroke-width: 1.0;"/><text fill="#000000" font-family="sans-serif" font-size="11" lengthAdjust="spacingAndGlyphs" textLength="279" x="58.5" y="164.4292">DatabasePersistentStorage readPersistentData()</text><ellipse cx="49.5" cy="174.0234" fill="#84BE84" rx="3" ry="3" style="stroke: #038048; stroke-width: 1.0;"/><text fill="#000000" font-family="sans-serif" font-size="11" lengthAdjust="spacingAndGlyphs" textLength="147" x="58.5" y="177.2339">void writePersistentData()</text><ellipse cx="49.5" cy="186.8281" fill="#84BE84" rx="3" ry="3" style="stroke: #038048; stroke-width: 1.0;"/><text fill="#000000" font-family="sans-serif" font-size="11" lengthAdjust="spacingAndGlyphs" textLength="407" x="58.5" y="190.0386">DatabasePersistentStorageImplementation deserializeData(String data)</text><ellipse cx="49.5" cy="199.6328" fill="#84BE84" rx="3" ry="3" style="stroke: #038048; stroke-width: 1.0;"/><text fill="#000000" font-family="sans-serif" font-size="11" lengthAdjust="spacingAndGlyphs" textLength="393" x="58.5" y="202.8433">String serializeData(DatabasePersistentStorageImplementation data)</text><rect fill="#F24D5C" height="6" style="stroke: #C82930; stroke-width: 1.0;" width="6" x="46.5" y="209.4375"/><text fill="#000000" font-family="sans-serif" font-size="11" lengthAdjust="spacingAndGlyphs" textLength="138" x="58.5" y="215.6479">boolean inputFileExists()</text><rect fill="#F24D5C" height="6" style="stroke: #C82930; stroke-width: 1.0;" width="6" x="46.5" y="222.2422"/><text fill="#000000" font-family="sans-serif" font-size="11" lengthAdjust="spacingAndGlyphs" textLength="146" x="58.5" y="228.4526">boolean outputFileExists()</text><rect fill="#F24D5C" height="6" style="stroke: #C82930; stroke-width: 1.0;" width="6" x="46.5" y="235.0469"/><text fill="#000000" font-family="sans-serif" font-size="11" lengthAdjust="spacingAndGlyphs" textLength="118" x="58.5" y="241.2573">void createInputFile()</text><rect fill="#F24D5C" height="6" style="stroke: #C82930; stroke-width: 1.0;" width="6" x="46.5" y="247.8516"/><text fill="#000000" font-family="sans-serif" font-size="11" lengthAdjust="spacingAndGlyphs" textLength="128" x="58.5" y="254.062">void createOutputFile()</text><rect fill="#F24D5C" height="6" style="stroke: #C82930; stroke-width: 1.0;" width="6" x="46.5" y="260.6563"/><text fill="#000000" font-family="sans-serif" font-size="11" lengthAdjust="spacingAndGlyphs" textLength="119" x="58.5" y="266.8667">String readInputFile()</text><rect fill="#F24D5C" height="6" style="stroke: #C82930; stroke-width: 1.0;" width="6" x="46.5" y="273.4609"/><text fill="#000000" font-family="sans-serif" font-size="11" lengthAdjust="spacingAndGlyphs" textLength="120" x="58.5" y="279.6714">void writeOutputFile()</text><!--MD5=[6c3ae89235db7efba3a5d8ea9fd47e2d]
class DatabasePersistentStorageImplementation--><rect fill="#FEFECE" filter="url(#f1k1vdwuzylv9v)" height="299.2891" id="DatabasePersistentStorageImplementation" style="stroke: #A80036; stroke-width: 1.5;" width="395" x="638.5" y="346"/><ellipse cx="695.75" cy="362" fill="#ADD1B2" rx="11" ry="11" style="stroke: #A80036; stroke-width: 1.0;"/><path d="M698.7188,367.6406 Q698.1406,367.9375 697.5,368.0781 Q696.8594,368.2344 696.1563,368.2344 Q693.6563,368.2344 692.3281,366.5938 Q691.0156,364.9375 691.0156,361.8125 Q691.0156,358.6875 692.3281,357.0313 Q693.6563,355.375 696.1563,355.375 Q696.8594,355.375 697.5,355.5313 Q698.1563,355.6875 698.7188,355.9844 L698.7188,358.7031 Q698.0938,358.125 697.5,357.8594 Q696.9063,357.5781 696.2813,357.5781 Q694.9375,357.5781 694.25,358.6563 Q693.5625,359.7188 693.5625,361.8125 Q693.5625,363.9063 694.25,364.9844 Q694.9375,366.0469 696.2813,366.0469 Q696.9063,366.0469 697.5,365.7813 Q698.0938,365.5 698.7188,364.9219 L698.7188,367.6406 Z "/><text fill="#000000" font-family="sans-serif" font-size="12" lengthAdjust="spacingAndGlyphs" textLength="272" x="716.25" y="366.1543">DatabasePersistentStorageImplementation</text><line style="stroke: #A80036; stroke-width: 1.5;" x1="639.5" x2="1032.5" y1="378" y2="378"/><rect fill="none" height="6" style="stroke: #C82930; stroke-width: 1.0;" width="6" x="646.5" y="386"/><text fill="#000000" font-family="sans-serif" font-size="11" lengthAdjust="spacingAndGlyphs" textLength="63" x="658.5" y="392.2104">int rfidData</text><rect fill="none" height="6" style="stroke: #C82930; stroke-width: 1.0;" width="6" x="646.5" y="398.8047"/><text fill="#000000" font-family="sans-serif" font-size="11" lengthAdjust="spacingAndGlyphs" textLength="243" x="658.5" y="405.0151">ArrayList&lt;LocationDataPoint&gt; locDataPoint</text><rect fill="none" height="6" style="stroke: #C82930; stroke-width: 1.0;" width="6" x="646.5" y="411.6094"/><text fill="#000000" font-family="sans-serif" font-size="11" lengthAdjust="spacingAndGlyphs" textLength="183" x="658.5" y="417.8198">ArrayList&lt;TrackData&gt; trackData</text><rect fill="none" height="6" style="stroke: #C82930; stroke-width: 1.0;" width="6" x="646.5" y="424.4141"/><text fill="#000000" font-family="sans-serif" font-size="11" lengthAdjust="spacingAndGlyphs" textLength="123" x="658.5" y="430.6245">String[] nextSatellites</text><rect fill="none" height="6" style="stroke: #C82930; stroke-width: 1.0;" width="6" x="646.5" y="437.2188"/><text fill="#000000" font-family="sans-serif" font-size="11" lengthAdjust="spacingAndGlyphs" textLength="70" x="658.5" y="443.4292">String mode</text><line style="stroke: #A80036; stroke-width: 1.5;" x1="639.5" x2="1032.5" y1="450.0234" y2="450.0234"/><ellipse cx="649.5" cy="461.0234" fill="#84BE84" rx="3" ry="3" style="stroke: #038048; stroke-width: 1.0;"/><text fill="#000000" font-family="sans-serif" font-size="11" lengthAdjust="spacingAndGlyphs" textLength="228" x="658.5" y="464.2339">DatabasePersistentStorage(int rfidData,</text><text fill="#000000" font-family="sans-serif" font-size="11" lengthAdjust="spacingAndGlyphs" textLength="247" x="690.5" y="477.0386">ArrayList&lt;LocationDataPoint&gt; locDataPoint,</text><text fill="#000000" font-family="sans-serif" font-size="11" lengthAdjust="spacingAndGlyphs" textLength="187" x="690.5" y="489.8433">ArrayList&lt;TrackData&gt; trackData,</text><text fill="#000000" font-family="sans-serif" font-size="11" lengthAdjust="spacingAndGlyphs" textLength="127" x="690.5" y="502.6479">String[] nextSatellites)</text><ellipse cx="649.5" cy="529.0469" fill="#84BE84" rx="3" ry="3" style="stroke: #038048; stroke-width: 1.0;"/><text fill="#000000" font-family="sans-serif" font-size="11" lengthAdjust="spacingAndGlyphs" textLength="107" x="658.5" y="532.2573">int locateRfidData()</text><ellipse cx="649.5" cy="541.8516" fill="#84BE84" rx="3" ry="3" style="stroke: #038048; stroke-width: 1.0;"/><text fill="#000000" font-family="sans-serif" font-size="11" lengthAdjust="spacingAndGlyphs" textLength="283" x="658.5" y="545.062">LocationDataPoint getLocationDataPoint(int offset)</text><ellipse cx="649.5" cy="554.6563" fill="#84BE84" rx="3" ry="3" style="stroke: #038048; stroke-width: 1.0;"/><text fill="#000000" font-family="sans-serif" font-size="11" lengthAdjust="spacingAndGlyphs" textLength="369" x="658.5" y="557.8667">void storeLocationDataPoint(LocationDataPoint locationDataPoint)</text><ellipse cx="649.5" cy="567.4609" fill="#84BE84" rx="3" ry="3" style="stroke: #038048; stroke-width: 1.0;"/><text fill="#000000" font-family="sans-serif" font-size="11" lengthAdjust="spacingAndGlyphs" textLength="195" x="658.5" y="570.6714">TrackData getTrackData(int offset)</text><ellipse cx="649.5" cy="580.2656" fill="#84BE84" rx="3" ry="3" style="stroke: #038048; stroke-width: 1.0;"/><text fill="#000000" font-family="sans-serif" font-size="11" lengthAdjust="spacingAndGlyphs" textLength="237" x="658.5" y="583.4761">void storeTrackData(TrackData trackData)</text><ellipse cx="649.5" cy="593.0703" fill="#84BE84" rx="3" ry="3" style="stroke: #038048; stroke-width: 1.0;"/><text fill="#000000" font-family="sans-serif" font-size="11" lengthAdjust="spacingAndGlyphs" textLength="94" x="658.5" y="596.2808">String getMode()</text><line style="stroke: #A80036; stroke-width: 1.0; stroke-dasharray: 1.0,2.0;" x1="639.5" x2="803" y1="515.6445" y2="515.6445"/><text fill="#000000" font-family="sans-serif" font-size="11" lengthAdjust="spacingAndGlyphs" textLength="66" x="803" y="518.9526">Use Case 1</text><line style="stroke: #A80036; stroke-width: 1.0; stroke-dasharray: 1.0,2.0;" x1="869" x2="1032.5" y1="515.6445" y2="515.6445"/><ellipse cx="649.5" cy="622.6797" fill="#84BE84" rx="3" ry="3" style="stroke: #038048; stroke-width: 1.0;"/><text fill="#000000" font-family="sans-serif" font-size="11" lengthAdjust="spacingAndGlyphs" textLength="165" x="658.5" y="625.8901">void storeMode(String mode)</text><ellipse cx="649.5" cy="635.4844" fill="#84BE84" rx="3" ry="3" style="stroke: #038048; stroke-width: 1.0;"/><text fill="#000000" font-family="sans-serif" font-size="11" lengthAdjust="spacingAndGlyphs" textLength="206" x="658.5" y="638.6948">String getNextSat(String currentSat)</text><line style="stroke: #A80036; stroke-width: 1.0; stroke-dasharray: 1.0,2.0;" x1="639.5" x2="803" y1="609.2773" y2="609.2773"/><text fill="#000000" font-family="sans-serif" font-size="11" lengthAdjust="spacingAndGlyphs" textLength="66" x="803" y="612.5854">Use Case 2</text><line style="stroke: #A80036; stroke-width: 1.0; stroke-dasharray: 1.0,2.0;" x1="869" x2="1032.5" y1="609.2773" y2="609.2773"/><!--MD5=[d8df6b105e82f698e3603261466f245f]
class DatabasePersistentStorage--><rect fill="#FEFECE" filter="url(#f1k1vdwuzylv9v)" height="184.0469" id="DatabasePersistentStorage" style="stroke: #A80036; stroke-width: 1.5;" width="395" x="638.5" y="80.5"/><ellipse cx="746.25" cy="96.5" fill="#B4A7E5" rx="11" ry="11" style="stroke: #A80036; stroke-width: 1.0;"/><path d="M742.1719,92.2656 L742.1719,90.1094 L749.5625,90.1094 L749.5625,92.2656 L747.0938,92.2656 L747.0938,100.3438 L749.5625,100.3438 L749.5625,102.5 L742.1719,102.5 L742.1719,100.3438 L744.6406,100.3438 L744.6406,92.2656 L742.1719,92.2656 Z "/><text fill="#000000" font-family="sans-serif" font-size="12" font-style="italic" lengthAdjust="spacingAndGlyphs" textLength="171" x="766.75" y="100.6543">DatabasePersistentStorage</text><line style="stroke: #A80036; stroke-width: 1.5;" x1="639.5" x2="1032.5" y1="112.5" y2="112.5"/><line style="stroke: #A80036; stroke-width: 1.5;" x1="639.5" x2="1032.5" y1="120.5" y2="120.5"/><ellipse cx="649.5" cy="148.3047" fill="#84BE84" rx="3" ry="3" style="stroke: #038048; stroke-width: 1.0;"/><text fill="#000000" font-family="sans-serif" font-size="11" font-style="italic" lengthAdjust="spacingAndGlyphs" textLength="108" x="658.5" y="151.5151">int locateRfidData()</text><ellipse cx="649.5" cy="161.1094" fill="#84BE84" rx="3" ry="3" style="stroke: #038048; stroke-width: 1.0;"/><text fill="#000000" font-family="sans-serif" font-size="11" font-style="italic" lengthAdjust="spacingAndGlyphs" textLength="282" x="658.5" y="164.3198">LocationDataPoint getLocationDataPoint(int offset)</text><ellipse cx="649.5" cy="173.9141" fill="#84BE84" rx="3" ry="3" style="stroke: #038048; stroke-width: 1.0;"/><text fill="#000000" font-family="sans-serif" font-size="11" font-style="italic" lengthAdjust="spacingAndGlyphs" textLength="369" x="658.5" y="177.1245">void storeLocationDataPoint(LocationDataPoint locationDataPoint)</text><ellipse cx="649.5" cy="186.7188" fill="#84BE84" rx="3" ry="3" style="stroke: #038048; stroke-width: 1.0;"/><text fill="#000000" font-family="sans-serif" font-size="11" font-style="italic" lengthAdjust="spacingAndGlyphs" textLength="194" x="658.5" y="189.9292">TrackData getTrackData(int offset)</text><ellipse cx="649.5" cy="199.5234" fill="#84BE84" rx="3" ry="3" style="stroke: #038048; stroke-width: 1.0;"/><text fill="#000000" font-family="sans-serif" font-size="11" font-style="italic" lengthAdjust="spacingAndGlyphs" textLength="237" x="658.5" y="202.7339">void storeTrackData(TrackData trackData)</text><ellipse cx="649.5" cy="212.3281" fill="#84BE84" rx="3" ry="3" style="stroke: #038048; stroke-width: 1.0;"/><text fill="#000000" font-family="sans-serif" font-size="11" font-style="italic" lengthAdjust="spacingAndGlyphs" textLength="93" x="658.5" y="215.5386">String getMode()</text><line style="stroke: #A80036; stroke-width: 1.0; stroke-dasharray: 1.0,2.0;" x1="639.5" x2="803" y1="134.9023" y2="134.9023"/><text fill="#000000" font-family="sans-serif" font-size="11" lengthAdjust="spacingAndGlyphs" textLength="66" x="803" y="138.2104">Use Case 1</text><line style="stroke: #A80036; stroke-width: 1.0; stroke-dasharray: 1.0,2.0;" x1="869" x2="1032.5" y1="134.9023" y2="134.9023"/><ellipse cx="649.5" cy="241.9375" fill="#84BE84" rx="3" ry="3" style="stroke: #038048; stroke-width: 1.0;"/><text fill="#000000" font-family="sans-serif" font-size="11" font-style="italic" lengthAdjust="spacingAndGlyphs" textLength="164" x="658.5" y="245.1479">void storeMode(String mode)</text><ellipse cx="649.5" cy="254.7422" fill="#84BE84" rx="3" ry="3" style="stroke: #038048; stroke-width: 1.0;"/><text fill="#000000" font-family="sans-serif" font-size="11" font-style="italic" lengthAdjust="spacingAndGlyphs" textLength="203" x="658.5" y="257.9526">String getNextSat(String currentSat)</text><line style="stroke: #A80036; stroke-width: 1.0; stroke-dasharray: 1.0,2.0;" x1="639.5" x2="803" y1="228.5352" y2="228.5352"/><text fill="#000000" font-family="sans-serif" font-size="11" lengthAdjust="spacingAndGlyphs" textLength="66" x="803" y="231.8433">Use Case 2</text><line style="stroke: #A80036; stroke-width: 1.0; stroke-dasharray: 1.0,2.0;" x1="869" x2="1032.5" y1="228.5352" y2="228.5352"/><!--MD5=[eb0961a570d8086d40299e5221360d47]
reverse link DatabasePersistentStorage to DatabasePersistentStorageImplementation--><path d="M836,284.71 C836,304.41 836,325.21 836,345.76 " fill="none" id="DatabasePersistentStorage&lt;-DatabasePersistentStorageImplementation" style="stroke: #A80036; stroke-width: 1.0; stroke-dasharray: 7.0,7.0;"/><polygon fill="none" points="829,284.63,836,264.63,843,284.63,829,284.63" style="stroke: #A80036; stroke-width: 1.0;"/><!--MD5=[578d6383e6b3f0bd4f8fbd4af3dbe2d8]
link PersistentStorageManager to DatabasePersistentStorageImplementation--><path d="M494.71,286.22 C539.73,313.7 588.12,343.23 633.91,371.17 " fill="none" id="PersistentStorageManager-&gt;DatabasePersistentStorageImplementation" style="stroke: #A80036; stroke-width: 1.0;"/><polygon fill="#A80036" points="638.33,373.87,632.722,365.7737,634.059,371.2703,628.5624,372.6073,638.33,373.87" style="stroke: #A80036; stroke-width: 1.0;"/><!--MD5=[5321a2451d7803167fd6d20f1bb662e4]
@startuml DatabaseHelperPackage_Closure

package edu.oakland.helper.database {
    
}



package edu.oakland.helper.database {
    class PersistentStorageManager {
        - String inputFileName
        - String outputFileName
        - DatabasePersistentStorageImplementation databasePersistentStorageImplementation
        + PersistentStorageManager(String inputFileName, String outputFileName, Scanner scanner)
        + DatabasePersistentStorage readPersistentData()
        + void writePersistentData()
        + DatabasePersistentStorageImplementation deserializeData(String data)
        + String serializeData(DatabasePersistentStorageImplementation data)
        - boolean inputFileExists()
        - boolean outputFileExists()
        - void createInputFile()
        - void createOutputFile()
        - String readInputFile()
        - void writeOutputFile()
    }
}




package edu.oakland.production.database {
    class DatabasePersistentStorageImplementation {
        - int rfidData
        - ArrayList<LocationDataPoint> locDataPoint
        - ArrayList<TrackData> trackData
        - String[] nextSatellites
        - String mode
        __
        + DatabasePersistentStorage(int rfidData, 
        \tArrayList<LocationDataPoint> locDataPoint, 
        \tArrayList<TrackData> trackData, 
        \tString[] nextSatellites)
        .. Use Case 1 ..
        + int locateRfidData()
        + LocationDataPoint getLocationDataPoint(int offset)
        + void storeLocationDataPoint(LocationDataPoint locationDataPoint)
        + TrackData getTrackData(int offset)
        + void storeTrackData(TrackData trackData)
        + String getMode()
        .. Use Case 2 ..
        + void storeMode(String mode)
        + String getNextSat(String currentSat)
    }
}




package edu.oakland.production.database {
    interface DatabasePersistentStorage {
        __
        .. Use Case 1 ..
        {abstract} + int locateRfidData()
        {abstract} + LocationDataPoint getLocationDataPoint(int offset)
        {abstract} + void storeLocationDataPoint(LocationDataPoint locationDataPoint)
        {abstract} + TrackData getTrackData(int offset)
        {abstract} + void storeTrackData(TrackData trackData)
        {abstract} + String getMode()
        .. Use Case 2 ..
        {abstract} + void storeMode(String mode)
        {abstract} + String getNextSat(String currentSat)
    }
}






DatabasePersistentStorageImplementation .up.|> DatabasePersistentStorage





PersistentStorageManager - -> DatabasePersistentStorageImplementation




@enduml

PlantUML version 1.2020.02(Sun Mar 01 10:22:07 GMT 2020)
(GPL source distribution)
Java Runtime: OpenJDK Runtime Environment
JVM: OpenJDK 64-Bit Server VM
Java Version: 11.0.9+11-Ubuntu-0ubuntu1
Operating System: Linux
Default Encoding: ANSI_X3.4-1968
Language: en
Country: US
--></g></svg>