<?xml version="1.0" encoding="UTF-8" standalone="no"?><svg xmlns="http://www.w3.org/2000/svg" xmlns:xlink="http://www.w3.org/1999/xlink" contentScriptType="application/ecmascript" contentStyleType="text/css" height="314px" preserveAspectRatio="none" style="width:620px;height:314px;" version="1.1" viewBox="0 0 620 314" width="620px" zoomAndPan="magnify"><defs><filter height="300%" id="f118ycizh8kukw" width="300%" x="-1" y="-1"><feGaussianBlur result="blurOut" stdDeviation="2.0"/><feColorMatrix in="blurOut" result="blurOut2" type="matrix" values="0 0 0 0 0 0 0 0 0 0 0 0 0 0 0 0 0 0 .4 0"/><feOffset dx="4.0" dy="4.0" in="blurOut2" result="blurOut3"/><feBlend in="SourceGraphic" in2="blurOut3" mode="normal"/></filter></defs><g><!--MD5=[1c31ecb5904c746202b213b50c20f406]
cluster edu.oakland.helper.database--><polygon fill="#FFFFFF" filter="url(#f118ycizh8kukw)" points="22,24,257,24,264,46.2969,598,46.2969,598,302,22,302,22,24" style="stroke: #000000; stroke-width: 1.5;"/><line style="stroke: #000000; stroke-width: 1.5;" x1="22" x2="264" y1="46.2969" y2="46.2969"/><text fill="#000000" font-family="sans-serif" font-size="14" font-weight="bold" lengthAdjust="spacingAndGlyphs" textLength="229" x="26" y="38.9951">edu.oakland.helper.database</text><!--MD5=[768efef9abab327639742b1d01f0bde7]
class PersistentStorageManager--><rect fill="#FEFECE" filter="url(#f118ycizh8kukw)" height="227.2656" id="PersistentStorageManager" style="stroke: #A80036; stroke-width: 1.5;" width="543" x="38.5" y="59"/><ellipse cx="221.25" cy="75" fill="#ADD1B2" rx="11" ry="11" style="stroke: #A80036; stroke-width: 1.0;"/><path d="M224.2188,80.6406 Q223.6406,80.9375 223,81.0781 Q222.3594,81.2344 221.6563,81.2344 Q219.1563,81.2344 217.8281,79.5938 Q216.5156,77.9375 216.5156,74.8125 Q216.5156,71.6875 217.8281,70.0313 Q219.1563,68.375 221.6563,68.375 Q222.3594,68.375 223,68.5313 Q223.6563,68.6875 224.2188,68.9844 L224.2188,71.7031 Q223.5938,71.125 223,70.8594 Q222.4063,70.5781 221.7813,70.5781 Q220.4375,70.5781 219.75,71.6563 Q219.0625,72.7188 219.0625,74.8125 Q219.0625,76.9063 219.75,77.9844 Q220.4375,79.0469 221.7813,79.0469 Q222.4063,79.0469 223,78.7813 Q223.5938,78.5 224.2188,77.9219 L224.2188,80.6406 Z "/><text fill="#000000" font-family="sans-serif" font-size="12" lengthAdjust="spacingAndGlyphs" textLength="169" x="241.75" y="79.1543">PersistentStorageManager</text><line style="stroke: #A80036; stroke-width: 1.5;" x1="39.5" x2="580.5" y1="91" y2="91"/><rect fill="none" height="6" style="stroke: #C82930; stroke-width: 1.0;" width="6" x="46.5" y="99"/><text fill="#000000" font-family="sans-serif" font-size="11" lengthAdjust="spacingAndGlyphs" textLength="118" x="58.5" y="105.2104">String inputFileName</text><rect fill="none" height="6" style="stroke: #C82930; stroke-width: 1.0;" width="6" x="46.5" y="111.8047"/><text fill="#000000" font-family="sans-serif" font-size="11" lengthAdjust="spacingAndGlyphs" textLength="126" x="58.5" y="118.0151">String outputFileName</text><rect fill="none" height="6" style="stroke: #C82930; stroke-width: 1.0;" width="6" x="46.5" y="124.6094"/><text fill="#000000" font-family="sans-serif" font-size="11" lengthAdjust="spacingAndGlyphs" textLength="493" x="58.5" y="130.8198">DatabasePersistentStorageImplementation databasePersistentStorageImplementation</text><line style="stroke: #A80036; stroke-width: 1.5;" x1="39.5" x2="580.5" y1="137.4141" y2="137.4141"/><ellipse cx="49.5" cy="148.4141" fill="#84BE84" rx="3" ry="3" style="stroke: #038048; stroke-width: 1.0;"/><text fill="#000000" font-family="sans-serif" font-size="11" lengthAdjust="spacingAndGlyphs" textLength="517" x="58.5" y="151.6245">PersistentStorageManager(String inputFileName, String outputFileName, Scanner scanner)</text><ellipse cx="49.5" cy="161.2188" fill="#84BE84" rx="3" ry="3" style="stroke: #038048; stroke-width: 1.0;"/><text fill="#000000" font-family="sans-serif" font-size="11" lengthAdjust="spacingAndGlyphs" textLength="279" x="58.5" y="164.4292">DatabasePersistentStorage readPersistentData()</text><ellipse cx="49.5" cy="174.0234" fill="#84BE84" rx="3" ry="3" style="stroke: #038048; stroke-width: 1.0;"/><text fill="#000000" font-family="sans-serif" font-size="11" lengthAdjust="spacingAndGlyphs" textLength="147" x="58.5" y="177.2339">void writePersistentData()</text><ellipse cx="49.5" cy="186.8281" fill="#84BE84" rx="3" ry="3" style="stroke: #038048; stroke-width: 1.0;"/><text fill="#000000" font-family="sans-serif" font-size="11" lengthAdjust="spacingAndGlyphs" textLength="407" x="58.5" y="190.0386">DatabasePersistentStorageImplementation deserializeData(String data)</text><ellipse cx="49.5" cy="199.6328" fill="#84BE84" rx="3" ry="3" style="stroke: #038048; stroke-width: 1.0;"/><text fill="#000000" font-family="sans-serif" font-size="11" lengthAdjust="spacingAndGlyphs" textLength="393" x="58.5" y="202.8433">String serializeData(DatabasePersistentStorageImplementation data)</text><rect fill="#F24D5C" height="6" style="stroke: #C82930; stroke-width: 1.0;" width="6" x="46.5" y="209.4375"/><text fill="#000000" font-family="sans-serif" font-size="11" lengthAdjust="spacingAndGlyphs" textLength="138" x="58.5" y="215.6479">boolean inputFileExists()</text><rect fill="#F24D5C" height="6" style="stroke: #C82930; stroke-width: 1.0;" width="6" x="46.5" y="222.2422"/><text fill="#000000" font-family="sans-serif" font-size="11" lengthAdjust="spacingAndGlyphs" textLength="146" x="58.5" y="228.4526">boolean outputFileExists()</text><rect fill="#F24D5C" height="6" style="stroke: #C82930; stroke-width: 1.0;" width="6" x="46.5" y="235.0469"/><text fill="#000000" font-family="sans-serif" font-size="11" lengthAdjust="spacingAndGlyphs" textLength="118" x="58.5" y="241.2573">void createInputFile()</text><rect fill="#F24D5C" height="6" style="stroke: #C82930; stroke-width: 1.0;" width="6" x="46.5" y="247.8516"/><text fill="#000000" font-family="sans-serif" font-size="11" lengthAdjust="spacingAndGlyphs" textLength="128" x="58.5" y="254.062">void createOutputFile()</text><rect fill="#F24D5C" height="6" style="stroke: #C82930; stroke-width: 1.0;" width="6" x="46.5" y="260.6563"/><text fill="#000000" font-family="sans-serif" font-size="11" lengthAdjust="spacingAndGlyphs" textLength="119" x="58.5" y="266.8667">String readInputFile()</text><rect fill="#F24D5C" height="6" style="stroke: #C82930; stroke-width: 1.0;" width="6" x="46.5" y="273.4609"/><text fill="#000000" font-family="sans-serif" font-size="11" lengthAdjust="spacingAndGlyphs" textLength="120" x="58.5" y="279.6714">void writeOutputFile()</text><!--MD5=[3eb0d28da0860a93065abca4393c2024]
@startuml DatabaseHelperPackage

package edu.oakland.helper.database {
    
}


package edu.oakland.helper.database {
    class PersistentStorageManager {
        - String inputFileName
        - String outputFileName
        - DatabasePersistentStorageImplementation databasePersistentStorageImplementation
        + PersistentStorageManager(String inputFileName, String outputFileName, Scanner scanner)
        + DatabasePersistentStorage readPersistentData()
        + void writePersistentData()
        + DatabasePersistentStorageImplementation deserializeData(String data)
        + String serializeData(DatabasePersistentStorageImplementation data)
        - boolean inputFileExists()
        - boolean outputFileExists()
        - void createInputFile()
        - void createOutputFile()
        - String readInputFile()
        - void writeOutputFile()
    }
}


@enduml

PlantUML version 1.2020.02(Sun Mar 01 10:22:07 GMT 2020)
(GPL source distribution)
Java Runtime: OpenJDK Runtime Environment
JVM: OpenJDK 64-Bit Server VM
Java Version: 11.0.9+11-Ubuntu-0ubuntu1
Operating System: Linux
Default Encoding: ANSI_X3.4-1968
Language: en
Country: US
--></g></svg>