<?xml version="1.0" encoding="UTF-8" standalone="no"?><svg xmlns="http://www.w3.org/2000/svg" xmlns:xlink="http://www.w3.org/1999/xlink" contentScriptType="application/ecmascript" contentStyleType="text/css" height="194px" preserveAspectRatio="none" style="width:364px;height:194px;" version="1.1" viewBox="0 0 364 194" width="364px" zoomAndPan="magnify"><defs><filter height="300%" id="fg0v3tckhhw6y" width="300%" x="-1" y="-1"><feGaussianBlur result="blurOut" stdDeviation="2.0"/><feColorMatrix in="blurOut" result="blurOut2" type="matrix" values="0 0 0 0 0 0 0 0 0 0 0 0 0 0 0 0 0 0 .4 0"/><feOffset dx="4.0" dy="4.0" in="blurOut2" result="blurOut3"/><feBlend in="SourceGraphic" in2="blurOut3" mode="normal"/></filter></defs><g><!--MD5=[3f116dbe56326f0321b4f8703f3bd2bd]
cluster edu.oakland.production.middleware01--><polygon fill="#FFFFFF" filter="url(#fg0v3tckhhw6y)" points="22,24,332,24,339,46.2969,342,46.2969,342,182,22,182,22,24" style="stroke: #000000; stroke-width: 1.5;"/><line style="stroke: #000000; stroke-width: 1.5;" x1="22" x2="339" y1="46.2969" y2="46.2969"/><text fill="#000000" font-family="sans-serif" font-size="14" font-weight="bold" lengthAdjust="spacingAndGlyphs" textLength="304" x="26" y="38.9951">edu.oakland.production.middleware01</text><!--MD5=[5617cf6c0203deaad7dbff4f5099a816]
class MiddlewareGisProcessorImplementation--><rect fill="#FEFECE" filter="url(#fg0v3tckhhw6y)" height="107.2188" id="MiddlewareGisProcessorImplementation" style="stroke: #A80036; stroke-width: 1.5;" width="281" x="41.5" y="59"/><ellipse cx="56.5" cy="75" fill="#ADD1B2" rx="11" ry="11" style="stroke: #A80036; stroke-width: 1.0;"/><path d="M59.4688,80.6406 Q58.8906,80.9375 58.25,81.0781 Q57.6094,81.2344 56.9063,81.2344 Q54.4063,81.2344 53.0781,79.5938 Q51.7656,77.9375 51.7656,74.8125 Q51.7656,71.6875 53.0781,70.0313 Q54.4063,68.375 56.9063,68.375 Q57.6094,68.375 58.25,68.5313 Q58.9063,68.6875 59.4688,68.9844 L59.4688,71.7031 Q58.8438,71.125 58.25,70.8594 Q57.6563,70.5781 57.0313,70.5781 Q55.6875,70.5781 55,71.6563 Q54.3125,72.7188 54.3125,74.8125 Q54.3125,76.9063 55,77.9844 Q55.6875,79.0469 57.0313,79.0469 Q57.6563,79.0469 58.25,78.7813 Q58.8438,78.5 59.4688,77.9219 L59.4688,80.6406 Z "/><text fill="#000000" font-family="sans-serif" font-size="12" lengthAdjust="spacingAndGlyphs" textLength="249" x="70.5" y="79.1543">MiddlewareGisProcessorImplementation</text><line style="stroke: #A80036; stroke-width: 1.5;" x1="42.5" x2="321.5" y1="91" y2="91"/><line style="stroke: #A80036; stroke-width: 1.5;" x1="42.5" x2="321.5" y1="99" y2="99"/><text fill="#000000" font-family="sans-serif" font-size="11" lengthAdjust="spacingAndGlyphs" textLength="0" x="51.5" y="130.0151"/><line style="stroke: #A80036; stroke-width: 1.0; stroke-dasharray: 1.0,2.0;" x1="42.5" x2="149" y1="113.4023" y2="113.4023"/><text fill="#000000" font-family="sans-serif" font-size="11" lengthAdjust="spacingAndGlyphs" textLength="66" x="149" y="116.7104">Use Case 1</text><line style="stroke: #A80036; stroke-width: 1.0; stroke-dasharray: 1.0,2.0;" x1="215" x2="321.5" y1="113.4023" y2="113.4023"/><text fill="#000000" font-family="sans-serif" font-size="11" lengthAdjust="spacingAndGlyphs" textLength="0" x="51.5" y="159.6245"/><line style="stroke: #A80036; stroke-width: 1.0; stroke-dasharray: 1.0,2.0;" x1="42.5" x2="149" y1="143.0117" y2="143.0117"/><text fill="#000000" font-family="sans-serif" font-size="11" lengthAdjust="spacingAndGlyphs" textLength="66" x="149" y="146.3198">Use Case 2</text><line style="stroke: #A80036; stroke-width: 1.0; stroke-dasharray: 1.0,2.0;" x1="215" x2="321.5" y1="143.0117" y2="143.0117"/><!--MD5=[3d8c29cc11fe355be38cc441254b7995]
@startuml MiddlewareGisProcessorImplementation

package edu.oakland.production.middleware01 {
    class MiddlewareGisProcessorImplementation {
        __
        .. Use Case 1 ..

        .. Use Case 2 ..

    }
}

@enduml

PlantUML version 1.2020.02(Sun Mar 01 10:22:07 GMT 2020)
(GPL source distribution)
Java Runtime: OpenJDK Runtime Environment
JVM: OpenJDK 64-Bit Server VM
Java Version: 11.0.9+11-Ubuntu-0ubuntu1
Operating System: Linux
Default Encoding: ANSI_X3.4-1968
Language: en
Country: US
--></g></svg>