<?xml version="1.0" encoding="UTF-8" standalone="no"?><svg xmlns="http://www.w3.org/2000/svg" xmlns:xlink="http://www.w3.org/1999/xlink" contentScriptType="application/ecmascript" contentStyleType="text/css" height="387px" preserveAspectRatio="none" style="width:1176px;height:387px;" version="1.1" viewBox="0 0 1176 387" width="1176px" zoomAndPan="magnify"><defs><filter height="300%" id="fg7hsa6b3etxb" width="300%" x="-1" y="-1"><feGaussianBlur result="blurOut" stdDeviation="2.0"/><feColorMatrix in="blurOut" result="blurOut2" type="matrix" values="0 0 0 0 0 0 0 0 0 0 0 0 0 0 0 0 0 0 .4 0"/><feOffset dx="4.0" dy="4.0" in="blurOut2" result="blurOut3"/><feBlend in="SourceGraphic" in2="blurOut3" mode="normal"/></filter></defs><g><!--MD5=[3f116dbe56326f0321b4f8703f3bd2bd]
cluster edu.oakland.production.middleware01--><polygon fill="#FFFFFF" filter="url(#fg7hsa6b3etxb)" points="22,24,332,24,339,46.2969,1154,46.2969,1154,375,22,375,22,24" style="stroke: #000000; stroke-width: 1.5;"/><line style="stroke: #000000; stroke-width: 1.5;" x1="22" x2="339" y1="46.2969" y2="46.2969"/><text fill="#000000" font-family="sans-serif" font-size="14" font-weight="bold" lengthAdjust="spacingAndGlyphs" textLength="304" x="26" y="38.9951">edu.oakland.production.middleware01</text><!--MD5=[291cbaddec1abeb2a8a54e5a343c76e9]
class MiddlewareGisInterface--><rect fill="#FEFECE" filter="url(#fg7hsa6b3etxb)" height="107.2188" id="MiddlewareGisInterface" style="stroke: #A80036; stroke-width: 1.5;" width="345" x="37.5" y="72"/><ellipse cx="132.75" cy="88" fill="#B4A7E5" rx="11" ry="11" style="stroke: #A80036; stroke-width: 1.0;"/><path d="M128.6719,83.7656 L128.6719,81.6094 L136.0625,81.6094 L136.0625,83.7656 L133.5938,83.7656 L133.5938,91.8438 L136.0625,91.8438 L136.0625,94 L128.6719,94 L128.6719,91.8438 L131.1406,91.8438 L131.1406,83.7656 L128.6719,83.7656 Z "/><text fill="#000000" font-family="sans-serif" font-size="12" font-style="italic" lengthAdjust="spacingAndGlyphs" textLength="146" x="153.25" y="92.1543">MiddlewareGisInterface</text><line style="stroke: #A80036; stroke-width: 1.5;" x1="38.5" x2="381.5" y1="104" y2="104"/><line style="stroke: #A80036; stroke-width: 1.5;" x1="38.5" x2="381.5" y1="112" y2="112"/><ellipse cx="48.5" cy="139.8047" fill="#84BE84" rx="3" ry="3" style="stroke: #038048; stroke-width: 1.0;"/><text fill="#000000" font-family="sans-serif" font-size="11" font-style="italic" lengthAdjust="spacingAndGlyphs" textLength="319" x="57.5" y="143.0151">String revieveGpsSignalStrength(Satellite satelliteSignal)</text><line style="stroke: #A80036; stroke-width: 1.0; stroke-dasharray: 1.0,2.0;" x1="38.5" x2="177" y1="126.4023" y2="126.4023"/><text fill="#000000" font-family="sans-serif" font-size="11" lengthAdjust="spacingAndGlyphs" textLength="66" x="177" y="129.7104">Use Case 1</text><line style="stroke: #A80036; stroke-width: 1.0; stroke-dasharray: 1.0,2.0;" x1="243" x2="381.5" y1="126.4023" y2="126.4023"/><ellipse cx="48.5" cy="169.4141" fill="#84BE84" rx="3" ry="3" style="stroke: #038048; stroke-width: 1.0;"/><text fill="#000000" font-family="sans-serif" font-size="11" font-style="italic" lengthAdjust="spacingAndGlyphs" textLength="319" x="57.5" y="172.6245">String revieveGpsSignalStrength(Satellite satelliteSignal)</text><line style="stroke: #A80036; stroke-width: 1.0; stroke-dasharray: 1.0,2.0;" x1="38.5" x2="177" y1="156.0117" y2="156.0117"/><text fill="#000000" font-family="sans-serif" font-size="11" lengthAdjust="spacingAndGlyphs" textLength="66" x="177" y="159.3198">Use Case 2</text><line style="stroke: #A80036; stroke-width: 1.0; stroke-dasharray: 1.0,2.0;" x1="243" x2="381.5" y1="156.0117" y2="156.0117"/><!--MD5=[8ee200b6efa8fed886485614c0f8779a]
class MiddlewareGisProcessor--><rect fill="#FEFECE" filter="url(#fg7hsa6b3etxb)" height="107.2188" id="MiddlewareGisProcessor" style="stroke: #A80036; stroke-width: 1.5;" width="352" x="417" y="72"/><ellipse cx="514.25" cy="88" fill="#B4A7E5" rx="11" ry="11" style="stroke: #A80036; stroke-width: 1.0;"/><path d="M510.1719,83.7656 L510.1719,81.6094 L517.5625,81.6094 L517.5625,83.7656 L515.0938,83.7656 L515.0938,91.8438 L517.5625,91.8438 L517.5625,94 L510.1719,94 L510.1719,91.8438 L512.6406,91.8438 L512.6406,83.7656 L510.1719,83.7656 Z "/><text fill="#000000" font-family="sans-serif" font-size="12" font-style="italic" lengthAdjust="spacingAndGlyphs" textLength="149" x="534.75" y="92.1543">MiddlewareGisProcessor</text><line style="stroke: #A80036; stroke-width: 1.5;" x1="418" x2="768" y1="104" y2="104"/><line style="stroke: #A80036; stroke-width: 1.5;" x1="418" x2="768" y1="112" y2="112"/><ellipse cx="428" cy="139.8047" fill="#84BE84" rx="3" ry="3" style="stroke: #038048; stroke-width: 1.0;"/><text fill="#000000" font-family="sans-serif" font-size="11" font-style="italic" lengthAdjust="spacingAndGlyphs" textLength="325" x="437" y="143.0151">String evaluateGpsSignalStrength(Satellite satelliteSignal)</text><line style="stroke: #A80036; stroke-width: 1.0; stroke-dasharray: 1.0,2.0;" x1="418" x2="560" y1="126.4023" y2="126.4023"/><text fill="#000000" font-family="sans-serif" font-size="11" lengthAdjust="spacingAndGlyphs" textLength="66" x="560" y="129.7104">Use Case 1</text><line style="stroke: #A80036; stroke-width: 1.0; stroke-dasharray: 1.0,2.0;" x1="626" x2="768" y1="126.4023" y2="126.4023"/><ellipse cx="428" cy="169.4141" fill="#84BE84" rx="3" ry="3" style="stroke: #038048; stroke-width: 1.0;"/><text fill="#000000" font-family="sans-serif" font-size="11" font-style="italic" lengthAdjust="spacingAndGlyphs" textLength="326" x="437" y="172.6245">String measureGpsSignalStrength(Satellite satelliteSignal)</text><line style="stroke: #A80036; stroke-width: 1.0; stroke-dasharray: 1.0,2.0;" x1="418" x2="560" y1="156.0117" y2="156.0117"/><text fill="#000000" font-family="sans-serif" font-size="11" lengthAdjust="spacingAndGlyphs" textLength="66" x="560" y="159.3198">Use Case 2</text><line style="stroke: #A80036; stroke-width: 1.0; stroke-dasharray: 1.0,2.0;" x1="626" x2="768" y1="156.0117" y2="156.0117"/><!--MD5=[6b8f2796bf9a05cb61532ec918b7c92e]
class MiddlewareGisManager--><rect fill="#FEFECE" filter="url(#fg7hsa6b3etxb)" height="132.8281" id="MiddlewareGisManager" style="stroke: #A80036; stroke-width: 1.5;" width="334" x="804" y="59"/><ellipse cx="894.75" cy="75" fill="#B4A7E5" rx="11" ry="11" style="stroke: #A80036; stroke-width: 1.0;"/><path d="M890.6719,70.7656 L890.6719,68.6094 L898.0625,68.6094 L898.0625,70.7656 L895.5938,70.7656 L895.5938,78.8438 L898.0625,78.8438 L898.0625,81 L890.6719,81 L890.6719,78.8438 L893.1406,78.8438 L893.1406,70.7656 L890.6719,70.7656 Z "/><text fill="#000000" font-family="sans-serif" font-size="12" font-style="italic" lengthAdjust="spacingAndGlyphs" textLength="144" x="915.25" y="79.1543">MiddlewareGisManager</text><line style="stroke: #A80036; stroke-width: 1.5;" x1="805" x2="1137" y1="91" y2="91"/><line style="stroke: #A80036; stroke-width: 1.5;" x1="805" x2="1137" y1="99" y2="99"/><ellipse cx="815" cy="126.8047" fill="#84BE84" rx="3" ry="3" style="stroke: #038048; stroke-width: 1.0;"/><text fill="#000000" font-family="sans-serif" font-size="11" font-style="italic" lengthAdjust="spacingAndGlyphs" textLength="282" x="824" y="130.0151">revieveGpsSignalStrength(Satellite satelliteSignal)</text><ellipse cx="815" cy="139.6094" fill="#84BE84" rx="3" ry="3" style="stroke: #038048; stroke-width: 1.0;"/><text fill="#000000" font-family="sans-serif" font-size="11" font-style="italic" lengthAdjust="spacingAndGlyphs" textLength="166" x="824" y="142.8198">void storeLocationDataPoint()</text><line style="stroke: #A80036; stroke-width: 1.0; stroke-dasharray: 1.0,2.0;" x1="805" x2="938" y1="113.4023" y2="113.4023"/><text fill="#000000" font-family="sans-serif" font-size="11" lengthAdjust="spacingAndGlyphs" textLength="66" x="938" y="116.7104">Use Case 1</text><line style="stroke: #A80036; stroke-width: 1.0; stroke-dasharray: 1.0,2.0;" x1="1004" x2="1137" y1="113.4023" y2="113.4023"/><ellipse cx="815" cy="169.2188" fill="#84BE84" rx="3" ry="3" style="stroke: #038048; stroke-width: 1.0;"/><text fill="#000000" font-family="sans-serif" font-size="11" font-style="italic" lengthAdjust="spacingAndGlyphs" textLength="303" x="824" y="172.4292">String attemptToRegainGpsLock(String satelliteName)</text><ellipse cx="815" cy="182.0234" fill="#84BE84" rx="3" ry="3" style="stroke: #038048; stroke-width: 1.0;"/><text fill="#000000" font-family="sans-serif" font-size="11" font-style="italic" lengthAdjust="spacingAndGlyphs" textLength="308" x="824" y="185.2339">String evaluateGpsSignalStrength(boolean signalValid)</text><line style="stroke: #A80036; stroke-width: 1.0; stroke-dasharray: 1.0,2.0;" x1="805" x2="938" y1="155.8164" y2="155.8164"/><text fill="#000000" font-family="sans-serif" font-size="11" lengthAdjust="spacingAndGlyphs" textLength="66" x="938" y="159.1245">Use Case 2</text><line style="stroke: #A80036; stroke-width: 1.0; stroke-dasharray: 1.0,2.0;" x1="1004" x2="1137" y1="155.8164" y2="155.8164"/><!--MD5=[00cae90dad3d6433dbf28d238006c643]
class MiddlewareGisInterfaceImplementation--><rect fill="#FEFECE" filter="url(#fg7hsa6b3etxb)" height="107.2188" id="MiddlewareGisInterfaceImplementation" style="stroke: #A80036; stroke-width: 1.5;" width="274" x="73" y="252"/><ellipse cx="88" cy="268" fill="#ADD1B2" rx="11" ry="11" style="stroke: #A80036; stroke-width: 1.0;"/><path d="M90.9688,273.6406 Q90.3906,273.9375 89.75,274.0781 Q89.1094,274.2344 88.4063,274.2344 Q85.9063,274.2344 84.5781,272.5938 Q83.2656,270.9375 83.2656,267.8125 Q83.2656,264.6875 84.5781,263.0313 Q85.9063,261.375 88.4063,261.375 Q89.1094,261.375 89.75,261.5313 Q90.4063,261.6875 90.9688,261.9844 L90.9688,264.7031 Q90.3438,264.125 89.75,263.8594 Q89.1563,263.5781 88.5313,263.5781 Q87.1875,263.5781 86.5,264.6563 Q85.8125,265.7188 85.8125,267.8125 Q85.8125,269.9063 86.5,270.9844 Q87.1875,272.0469 88.5313,272.0469 Q89.1563,272.0469 89.75,271.7813 Q90.3438,271.5 90.9688,270.9219 L90.9688,273.6406 Z "/><text fill="#000000" font-family="sans-serif" font-size="12" lengthAdjust="spacingAndGlyphs" textLength="242" x="102" y="272.1543">MiddlewareGisInterfaceImplementation</text><line style="stroke: #A80036; stroke-width: 1.5;" x1="74" x2="346" y1="284" y2="284"/><line style="stroke: #A80036; stroke-width: 1.5;" x1="74" x2="346" y1="292" y2="292"/><text fill="#000000" font-family="sans-serif" font-size="11" lengthAdjust="spacingAndGlyphs" textLength="0" x="83" y="323.0151"/><line style="stroke: #A80036; stroke-width: 1.0; stroke-dasharray: 1.0,2.0;" x1="74" x2="177" y1="306.4023" y2="306.4023"/><text fill="#000000" font-family="sans-serif" font-size="11" lengthAdjust="spacingAndGlyphs" textLength="66" x="177" y="309.7104">Use Case 1</text><line style="stroke: #A80036; stroke-width: 1.0; stroke-dasharray: 1.0,2.0;" x1="243" x2="346" y1="306.4023" y2="306.4023"/><text fill="#000000" font-family="sans-serif" font-size="11" lengthAdjust="spacingAndGlyphs" textLength="0" x="83" y="352.6245"/><line style="stroke: #A80036; stroke-width: 1.0; stroke-dasharray: 1.0,2.0;" x1="74" x2="177" y1="336.0117" y2="336.0117"/><text fill="#000000" font-family="sans-serif" font-size="11" lengthAdjust="spacingAndGlyphs" textLength="66" x="177" y="339.3198">Use Case 2</text><line style="stroke: #A80036; stroke-width: 1.0; stroke-dasharray: 1.0,2.0;" x1="243" x2="346" y1="336.0117" y2="336.0117"/><!--MD5=[5617cf6c0203deaad7dbff4f5099a816]
class MiddlewareGisProcessorImplementation--><rect fill="#FEFECE" filter="url(#fg7hsa6b3etxb)" height="107.2188" id="MiddlewareGisProcessorImplementation" style="stroke: #A80036; stroke-width: 1.5;" width="281" x="452.5" y="252"/><ellipse cx="467.5" cy="268" fill="#ADD1B2" rx="11" ry="11" style="stroke: #A80036; stroke-width: 1.0;"/><path d="M470.4688,273.6406 Q469.8906,273.9375 469.25,274.0781 Q468.6094,274.2344 467.9063,274.2344 Q465.4063,274.2344 464.0781,272.5938 Q462.7656,270.9375 462.7656,267.8125 Q462.7656,264.6875 464.0781,263.0313 Q465.4063,261.375 467.9063,261.375 Q468.6094,261.375 469.25,261.5313 Q469.9063,261.6875 470.4688,261.9844 L470.4688,264.7031 Q469.8438,264.125 469.25,263.8594 Q468.6563,263.5781 468.0313,263.5781 Q466.6875,263.5781 466,264.6563 Q465.3125,265.7188 465.3125,267.8125 Q465.3125,269.9063 466,270.9844 Q466.6875,272.0469 468.0313,272.0469 Q468.6563,272.0469 469.25,271.7813 Q469.8438,271.5 470.4688,270.9219 L470.4688,273.6406 Z "/><text fill="#000000" font-family="sans-serif" font-size="12" lengthAdjust="spacingAndGlyphs" textLength="249" x="481.5" y="272.1543">MiddlewareGisProcessorImplementation</text><line style="stroke: #A80036; stroke-width: 1.5;" x1="453.5" x2="732.5" y1="284" y2="284"/><line style="stroke: #A80036; stroke-width: 1.5;" x1="453.5" x2="732.5" y1="292" y2="292"/><text fill="#000000" font-family="sans-serif" font-size="11" lengthAdjust="spacingAndGlyphs" textLength="0" x="462.5" y="323.0151"/><line style="stroke: #A80036; stroke-width: 1.0; stroke-dasharray: 1.0,2.0;" x1="453.5" x2="560" y1="306.4023" y2="306.4023"/><text fill="#000000" font-family="sans-serif" font-size="11" lengthAdjust="spacingAndGlyphs" textLength="66" x="560" y="309.7104">Use Case 1</text><line style="stroke: #A80036; stroke-width: 1.0; stroke-dasharray: 1.0,2.0;" x1="626" x2="732.5" y1="306.4023" y2="306.4023"/><text fill="#000000" font-family="sans-serif" font-size="11" lengthAdjust="spacingAndGlyphs" textLength="0" x="462.5" y="352.6245"/><line style="stroke: #A80036; stroke-width: 1.0; stroke-dasharray: 1.0,2.0;" x1="453.5" x2="560" y1="336.0117" y2="336.0117"/><text fill="#000000" font-family="sans-serif" font-size="11" lengthAdjust="spacingAndGlyphs" textLength="66" x="560" y="339.3198">Use Case 2</text><line style="stroke: #A80036; stroke-width: 1.0; stroke-dasharray: 1.0,2.0;" x1="626" x2="732.5" y1="336.0117" y2="336.0117"/><!--MD5=[95fb96a46a83d39a2e18236f313a92fb]
class MiddlewareGisManagerImplementation--><rect fill="#FEFECE" filter="url(#fg7hsa6b3etxb)" height="107.2188" id="MiddlewareGisManagerImplementation" style="stroke: #A80036; stroke-width: 1.5;" width="273" x="834.5" y="252"/><ellipse cx="849.5" cy="268" fill="#ADD1B2" rx="11" ry="11" style="stroke: #A80036; stroke-width: 1.0;"/><path d="M852.4688,273.6406 Q851.8906,273.9375 851.25,274.0781 Q850.6094,274.2344 849.9063,274.2344 Q847.4063,274.2344 846.0781,272.5938 Q844.7656,270.9375 844.7656,267.8125 Q844.7656,264.6875 846.0781,263.0313 Q847.4063,261.375 849.9063,261.375 Q850.6094,261.375 851.25,261.5313 Q851.9063,261.6875 852.4688,261.9844 L852.4688,264.7031 Q851.8438,264.125 851.25,263.8594 Q850.6563,263.5781 850.0313,263.5781 Q848.6875,263.5781 848,264.6563 Q847.3125,265.7188 847.3125,267.8125 Q847.3125,269.9063 848,270.9844 Q848.6875,272.0469 850.0313,272.0469 Q850.6563,272.0469 851.25,271.7813 Q851.8438,271.5 852.4688,270.9219 L852.4688,273.6406 Z "/><text fill="#000000" font-family="sans-serif" font-size="12" lengthAdjust="spacingAndGlyphs" textLength="241" x="863.5" y="272.1543">MiddlewareGisManagerImplementation</text><line style="stroke: #A80036; stroke-width: 1.5;" x1="835.5" x2="1106.5" y1="284" y2="284"/><line style="stroke: #A80036; stroke-width: 1.5;" x1="835.5" x2="1106.5" y1="292" y2="292"/><text fill="#000000" font-family="sans-serif" font-size="11" lengthAdjust="spacingAndGlyphs" textLength="0" x="844.5" y="323.0151"/><line style="stroke: #A80036; stroke-width: 1.0; stroke-dasharray: 1.0,2.0;" x1="835.5" x2="938" y1="306.4023" y2="306.4023"/><text fill="#000000" font-family="sans-serif" font-size="11" lengthAdjust="spacingAndGlyphs" textLength="66" x="938" y="309.7104">Use Case 1</text><line style="stroke: #A80036; stroke-width: 1.0; stroke-dasharray: 1.0,2.0;" x1="1004" x2="1106.5" y1="306.4023" y2="306.4023"/><text fill="#000000" font-family="sans-serif" font-size="11" lengthAdjust="spacingAndGlyphs" textLength="0" x="844.5" y="352.6245"/><line style="stroke: #A80036; stroke-width: 1.0; stroke-dasharray: 1.0,2.0;" x1="835.5" x2="938" y1="336.0117" y2="336.0117"/><text fill="#000000" font-family="sans-serif" font-size="11" lengthAdjust="spacingAndGlyphs" textLength="66" x="938" y="339.3198">Use Case 2</text><line style="stroke: #A80036; stroke-width: 1.0; stroke-dasharray: 1.0,2.0;" x1="1004" x2="1106.5" y1="336.0117" y2="336.0117"/><!--MD5=[f9eec55cbf04414e6fb4fde8343b27e2]
reverse link MiddlewareGisInterface to MiddlewareGisInterfaceImplementation--><path d="M210,199.44 C210,216.98 210,235.37 210,251.78 " fill="none" id="MiddlewareGisInterface&lt;-MiddlewareGisInterfaceImplementation" style="stroke: #A80036; stroke-width: 1.0; stroke-dasharray: 7.0,7.0;"/><polygon fill="none" points="203,199.42,210,179.42,217,199.42,203,199.42" style="stroke: #A80036; stroke-width: 1.0;"/><!--MD5=[5966268999ccfcd0ee1c07b359e3e55d]
reverse link MiddlewareGisProcessor to MiddlewareGisProcessorImplementation--><path d="M593,199.44 C593,216.98 593,235.37 593,251.78 " fill="none" id="MiddlewareGisProcessor&lt;-MiddlewareGisProcessorImplementation" style="stroke: #A80036; stroke-width: 1.0; stroke-dasharray: 7.0,7.0;"/><polygon fill="none" points="586,199.42,593,179.42,600,199.42,586,199.42" style="stroke: #A80036; stroke-width: 1.0;"/><!--MD5=[ba88405600d0f63e318d28a37302bd2e]
reverse link MiddlewareGisManager to MiddlewareGisManagerImplementation--><path d="M971,212.3 C971,225.82 971,239.44 971,251.91 " fill="none" id="MiddlewareGisManager&lt;-MiddlewareGisManagerImplementation" style="stroke: #A80036; stroke-width: 1.0; stroke-dasharray: 7.0,7.0;"/><polygon fill="none" points="964,212.02,971,192.02,978,212.02,964,212.02" style="stroke: #A80036; stroke-width: 1.0;"/><!--MD5=[5d40a3a5fdccbc21650c06422cc6770f]
@startuml Middleware01ProductionPackage_InternalDependencies

package edu.oakland.production.middleware01 {
    
}


package edu.oakland.production.middleware01 {
    interface MiddlewareGisInterface {
        __
        .. Use Case 1 ..
        {abstract} + String revieveGpsSignalStrength(Satellite satelliteSignal)
        .. Use Case 2 ..
        {abstract} + String revieveGpsSignalStrength(Satellite satelliteSignal)
    }
}


package edu.oakland.production.middleware01 {
    interface MiddlewareGisProcessor {
        __
        .. Use Case 1 ..
        {abstract} + String evaluateGpsSignalStrength(Satellite satelliteSignal)
        .. Use Case 2 ..
        {abstract} + String measureGpsSignalStrength(Satellite satelliteSignal)
    }
}


package edu.oakland.production.middleware01 {
    interface MiddlewareGisManager {
        __
        .. Use Case 1 ..
        {abstract} + revieveGpsSignalStrength(Satellite satelliteSignal)
        {abstract} + void storeLocationDataPoint()
        .. Use Case 2 ..
        {abstract} + String attemptToRegainGpsLock(String satelliteName)
        {abstract} + String evaluateGpsSignalStrength(boolean signalValid)
    }
}


package edu.oakland.production.middleware01 {
    class MiddlewareGisInterfaceImplementation {
        __
        .. Use Case 1 ..

        .. Use Case 2 ..

    }
}


MiddlewareGisInterfaceImplementation .up.|> MiddlewareGisInterface

package edu.oakland.production.middleware01 {
    class MiddlewareGisProcessorImplementation {
        __
        .. Use Case 1 ..

        .. Use Case 2 ..

    }
}


MiddlewareGisProcessorImplementation .up.|> MiddlewareGisProcessor

package edu.oakland.production.middleware01 {
    class MiddlewareGisManagerImplementation {
        __
        .. Use Case 1 ..

        .. Use Case 2 ..

    }
}


MiddlewareGisManagerImplementation .up.|> MiddlewareGisManager

@enduml

PlantUML version 1.2020.02(Sun Mar 01 10:22:07 GMT 2020)
(GPL source distribution)
Java Runtime: OpenJDK Runtime Environment
JVM: OpenJDK 64-Bit Server VM
Java Version: 11.0.9+11-Ubuntu-0ubuntu1
Operating System: Linux
Default Encoding: ANSI_X3.4-1968
Language: en
Country: US
--></g></svg>