<?xml version="1.0" encoding="UTF-8" standalone="no"?><svg xmlns="http://www.w3.org/2000/svg" xmlns:xlink="http://www.w3.org/1999/xlink" contentScriptType="application/ecmascript" contentStyleType="text/css" height="318px" preserveAspectRatio="none" style="width:366px;height:318px;" version="1.1" viewBox="0 0 366 318" width="366px" zoomAndPan="magnify"><defs><filter height="300%" id="fv5i4zy9olyw1" width="300%" x="-1" y="-1"><feGaussianBlur result="blurOut" stdDeviation="2.0"/><feColorMatrix in="blurOut" result="blurOut2" type="matrix" values="0 0 0 0 0 0 0 0 0 0 0 0 0 0 0 0 0 0 .4 0"/><feOffset dx="4.0" dy="4.0" in="blurOut2" result="blurOut3"/><feBlend in="SourceGraphic" in2="blurOut3" mode="normal"/></filter></defs><g><!--MD5=[a502031b5a5384de0a21e6ee820fd3b2]
cluster edu.oakland.helper.display02--><polygon fill="#FFFFFF" filter="url(#fv5i4zy9olyw1)" points="22,24,260,24,267,46.2969,344,46.2969,344,306,22,306,22,24" style="stroke: #000000; stroke-width: 1.5;"/><line style="stroke: #000000; stroke-width: 1.5;" x1="22" x2="267" y1="46.2969" y2="46.2969"/><text fill="#000000" font-family="sans-serif" font-size="14" font-weight="bold" lengthAdjust="spacingAndGlyphs" textLength="232" x="26" y="38.9951">edu.oakland.helper.display02</text><!--MD5=[c986427b061286eff33e87a088ad4bf9]
class TrackDataPlotter--><rect fill="#FEFECE" filter="url(#fv5i4zy9olyw1)" height="231.2656" id="TrackDataPlotter" style="stroke: #A80036; stroke-width: 1.5;" width="291" x="37.5" y="59"/><ellipse cx="125.75" cy="75" fill="#ADD1B2" rx="11" ry="11" style="stroke: #A80036; stroke-width: 1.0;"/><path d="M128.7188,80.6406 Q128.1406,80.9375 127.5,81.0781 Q126.8594,81.2344 126.1563,81.2344 Q123.6563,81.2344 122.3281,79.5938 Q121.0156,77.9375 121.0156,74.8125 Q121.0156,71.6875 122.3281,70.0313 Q123.6563,68.375 126.1563,68.375 Q126.8594,68.375 127.5,68.5313 Q128.1563,68.6875 128.7188,68.9844 L128.7188,71.7031 Q128.0938,71.125 127.5,70.8594 Q126.9063,70.5781 126.2813,70.5781 Q124.9375,70.5781 124.25,71.6563 Q123.5625,72.7188 123.5625,74.8125 Q123.5625,76.9063 124.25,77.9844 Q124.9375,79.0469 126.2813,79.0469 Q126.9063,79.0469 127.5,78.7813 Q128.0938,78.5 128.7188,77.9219 L128.7188,80.6406 Z "/><text fill="#000000" font-family="sans-serif" font-size="12" lengthAdjust="spacingAndGlyphs" textLength="106" x="146.25" y="79.1543">TrackDataPlotter</text><line style="stroke: #A80036; stroke-width: 1.5;" x1="38.5" x2="327.5" y1="91" y2="91"/><rect fill="none" height="6" style="stroke: #C82930; stroke-width: 1.0;" width="6" x="45.5" y="99"/><text fill="#000000" font-family="sans-serif" font-size="11" lengthAdjust="spacingAndGlyphs" textLength="86" x="57.5" y="105.2104">TrackData data</text><rect fill="none" height="6" style="stroke: #C82930; stroke-width: 1.0;" width="6" x="45.5" y="111.8047"/><text fill="#000000" font-family="sans-serif" font-size="11" lengthAdjust="spacingAndGlyphs" textLength="97" x="57.5" y="118.0151">XYDataset points</text><rect fill="none" height="6" style="stroke: #C82930; stroke-width: 1.0;" width="6" x="45.5" y="124.6094"/><text fill="#000000" font-family="sans-serif" font-size="11" lengthAdjust="spacingAndGlyphs" textLength="82" x="57.5" y="130.8198">XYDataset line</text><rect fill="none" height="6" style="stroke: #C82930; stroke-width: 1.0;" width="6" x="45.5" y="137.4141"/><text fill="#000000" font-family="sans-serif" font-size="11" lengthAdjust="spacingAndGlyphs" textLength="99" x="57.5" y="143.6245">JFreeChart chart1</text><rect fill="none" height="6" style="stroke: #C82930; stroke-width: 1.0;" width="6" x="45.5" y="150.2188"/><text fill="#000000" font-family="sans-serif" font-size="11" lengthAdjust="spacingAndGlyphs" textLength="99" x="57.5" y="156.4292">JFreeChart chart2</text><rect fill="none" height="6" style="stroke: #C82930; stroke-width: 1.0;" width="6" x="45.5" y="163.0234"/><text fill="#000000" font-family="sans-serif" font-size="11" lengthAdjust="spacingAndGlyphs" textLength="60" x="57.5" y="169.2339">XYPlot plot</text><rect fill="none" height="6" style="stroke: #C82930; stroke-width: 1.0;" width="6" x="45.5" y="175.8281"/><text fill="#000000" font-family="sans-serif" font-size="11" lengthAdjust="spacingAndGlyphs" textLength="133" x="57.5" y="182.0386">ChartPanel chartPanel1</text><rect fill="none" height="6" style="stroke: #C82930; stroke-width: 1.0;" width="6" x="45.5" y="188.6328"/><text fill="#000000" font-family="sans-serif" font-size="11" lengthAdjust="spacingAndGlyphs" textLength="133" x="57.5" y="194.8433">ChartPanel chartPanel2</text><line style="stroke: #A80036; stroke-width: 1.5;" x1="38.5" x2="327.5" y1="201.4375" y2="201.4375"/><ellipse cx="48.5" cy="212.4375" fill="#84BE84" rx="3" ry="3" style="stroke: #038048; stroke-width: 1.0;"/><text fill="#000000" font-family="sans-serif" font-size="11" lengthAdjust="spacingAndGlyphs" textLength="188" x="57.5" y="215.6479">TrackDataPlotter(TrackData data)</text><rect fill="#F24D5C" height="6" style="stroke: #C82930; stroke-width: 1.0;" width="6" x="45.5" y="239.0469"/><text fill="#000000" font-family="sans-serif" font-size="11" lengthAdjust="spacingAndGlyphs" textLength="138" x="57.5" y="245.2573">XYSeries getTrackData()</text><rect fill="#F24D5C" height="6" style="stroke: #C82930; stroke-width: 1.0;" width="6" x="45.5" y="251.8516"/><text fill="#000000" font-family="sans-serif" font-size="11" lengthAdjust="spacingAndGlyphs" textLength="208" x="57.5" y="258.062">XYSeries calculateLine(int[] x, int[] y)</text><rect fill="#F24D5C" height="6" style="stroke: #C82930; stroke-width: 1.0;" width="6" x="45.5" y="264.6563"/><text fill="#000000" font-family="sans-serif" font-size="11" lengthAdjust="spacingAndGlyphs" textLength="262" x="57.5" y="270.8667">int[] extractLatFromTrackData(TrackData data)</text><rect fill="#F24D5C" height="6" style="stroke: #C82930; stroke-width: 1.0;" width="6" x="45.5" y="277.4609"/><text fill="#000000" font-family="sans-serif" font-size="11" lengthAdjust="spacingAndGlyphs" textLength="265" x="57.5" y="283.6714">int[] extractLngFromTrackData(TrackData data)</text><line style="stroke: #A80036; stroke-width: 1.0; stroke-dasharray: 1.0,2.0;" x1="38.5" x2="150" y1="228.6445" y2="228.6445"/><text fill="#000000" font-family="sans-serif" font-size="11" lengthAdjust="spacingAndGlyphs" textLength="66" x="150" y="231.9526">Use Case 1</text><line style="stroke: #A80036; stroke-width: 1.0; stroke-dasharray: 1.0,2.0;" x1="216" x2="327.5" y1="228.6445" y2="228.6445"/><!--MD5=[7bc33a2d4a8bcd3d74d8529012bdaee7]
@startuml Display02HelperPackage

package edu.oakland.helper.display02 {

}


package edu.oakland.helper.display02 {
    class TrackDataPlotter {
        - TrackData data
        - XYDataset points
        - XYDataset line
        - JFreeChart chart1
        - JFreeChart chart2
        - XYPlot plot
        - ChartPanel chartPanel1
        - ChartPanel chartPanel2
        __
        + TrackDataPlotter(TrackData data)
        .. Use Case 1 ..
        - XYSeries getTrackData()
        - XYSeries calculateLine(int[] x, int[] y)
        - int[] extractLatFromTrackData(TrackData data)
        - int[] extractLngFromTrackData(TrackData data)
    }
}


@enduml

PlantUML version 1.2020.02(Sun Mar 01 10:22:07 GMT 2020)
(GPL source distribution)
Java Runtime: OpenJDK Runtime Environment
JVM: OpenJDK 64-Bit Server VM
Java Version: 11.0.9+11-Ubuntu-0ubuntu1
Operating System: Linux
Default Encoding: ANSI_X3.4-1968
Language: en
Country: US
--></g></svg>