<?xml version="1.0" encoding="UTF-8" standalone="no"?><svg xmlns="http://www.w3.org/2000/svg" xmlns:xlink="http://www.w3.org/1999/xlink" contentScriptType="application/ecmascript" contentStyleType="text/css" height="588px" preserveAspectRatio="none" style="width:428px;height:588px;" version="1.1" viewBox="0 0 428 588" width="428px" zoomAndPan="magnify"><defs><filter height="300%" id="f14ys9qi85m96r" width="300%" x="-1" y="-1"><feGaussianBlur result="blurOut" stdDeviation="2.0"/><feColorMatrix in="blurOut" result="blurOut2" type="matrix" values="0 0 0 0 0 0 0 0 0 0 0 0 0 0 0 0 0 0 .4 0"/><feOffset dx="4.0" dy="4.0" in="blurOut2" result="blurOut3"/><feBlend in="SourceGraphic" in2="blurOut3" mode="normal"/></filter></defs><g><!--MD5=[850b37b0b8d882ee2cad74ae2a956f48]
cluster edu.oakland.helper.admin--><polygon fill="#FFFFFF" filter="url(#f14ys9qi85m96r)" points="22,24,232,24,239,46.2969,406,46.2969,406,576,22,576,22,24" style="stroke: #000000; stroke-width: 1.5;"/><line style="stroke: #000000; stroke-width: 1.5;" x1="22" x2="239" y1="46.2969" y2="46.2969"/><text fill="#000000" font-family="sans-serif" font-size="14" font-weight="bold" lengthAdjust="spacingAndGlyphs" textLength="204" x="26" y="38.9951">edu.oakland.helper.admin</text><!--MD5=[39a9b949d1787538902e1dfaac894da1]
class Satellite--><rect fill="#FEFECE" filter="url(#f14ys9qi85m96r)" height="278.4844" id="Satellite" style="stroke: #A80036; stroke-width: 1.5;" width="285" x="71.5" y="59"/><ellipse cx="184.25" cy="75" fill="#ADD1B2" rx="11" ry="11" style="stroke: #A80036; stroke-width: 1.0;"/><path d="M187.2188,80.6406 Q186.6406,80.9375 186,81.0781 Q185.3594,81.2344 184.6563,81.2344 Q182.1563,81.2344 180.8281,79.5938 Q179.5156,77.9375 179.5156,74.8125 Q179.5156,71.6875 180.8281,70.0313 Q182.1563,68.375 184.6563,68.375 Q185.3594,68.375 186,68.5313 Q186.6563,68.6875 187.2188,68.9844 L187.2188,71.7031 Q186.5938,71.125 186,70.8594 Q185.4063,70.5781 184.7813,70.5781 Q183.4375,70.5781 182.75,71.6563 Q182.0625,72.7188 182.0625,74.8125 Q182.0625,76.9063 182.75,77.9844 Q183.4375,79.0469 184.7813,79.0469 Q185.4063,79.0469 186,78.7813 Q186.5938,78.5 187.2188,77.9219 L187.2188,80.6406 Z "/><text fill="#000000" font-family="sans-serif" font-size="12" lengthAdjust="spacingAndGlyphs" textLength="51" x="204.75" y="79.1543">Satellite</text><line style="stroke: #A80036; stroke-width: 1.5;" x1="72.5" x2="355.5" y1="91" y2="91"/><rect fill="none" height="6" style="stroke: #C82930; stroke-width: 1.0;" width="6" x="79.5" y="99"/><text fill="#000000" font-family="sans-serif" font-size="11" lengthAdjust="spacingAndGlyphs" textLength="116" x="91.5" y="105.2104">String satelliteName</text><rect fill="none" height="6" style="stroke: #C82930; stroke-width: 1.0;" width="6" x="79.5" y="111.8047"/><text fill="#000000" font-family="sans-serif" font-size="11" lengthAdjust="spacingAndGlyphs" textLength="66" x="91.5" y="118.0151">int strength</text><rect fill="none" height="6" style="stroke: #C82930; stroke-width: 1.0;" width="6" x="79.5" y="124.6094"/><text fill="#000000" font-family="sans-serif" font-size="11" lengthAdjust="spacingAndGlyphs" text-decoration="underline" textLength="146" x="91.5" y="130.8198">float incrementLatAmount</text><rect fill="none" height="6" style="stroke: #C82930; stroke-width: 1.0;" width="6" x="79.5" y="137.4141"/><text fill="#000000" font-family="sans-serif" font-size="11" lengthAdjust="spacingAndGlyphs" text-decoration="underline" textLength="149" x="91.5" y="143.6245">float incrementLngAmount</text><rect fill="none" height="6" style="stroke: #C82930; stroke-width: 1.0;" width="6" x="79.5" y="150.2188"/><text fill="#000000" font-family="sans-serif" font-size="11" lengthAdjust="spacingAndGlyphs" text-decoration="underline" textLength="223" x="91.5" y="156.4292">LocationDataPoint initLocationDataPoint</text><rect fill="none" height="6" style="stroke: #C82930; stroke-width: 1.0;" width="6" x="79.5" y="163.0234"/><text fill="#000000" font-family="sans-serif" font-size="11" lengthAdjust="spacingAndGlyphs" text-decoration="underline" textLength="144" x="91.5" y="169.2339">int countGetLocationCalls</text><line style="stroke: #A80036; stroke-width: 1.5;" x1="72.5" x2="355.5" y1="175.8281" y2="175.8281"/><ellipse cx="82.5" cy="186.8281" fill="#84BE84" rx="3" ry="3" style="stroke: #038048; stroke-width: 1.0;"/><text fill="#000000" font-family="sans-serif" font-size="11" lengthAdjust="spacingAndGlyphs" textLength="244" x="91.5" y="190.0386">Satellite(String satelliteName, int strength)</text><ellipse cx="82.5" cy="199.6328" fill="#84BE84" rx="3" ry="3" style="stroke: #038048; stroke-width: 1.0;"/><text fill="#000000" font-family="sans-serif" font-size="11" lengthAdjust="spacingAndGlyphs" textLength="143" x="91.5" y="202.8433">String getSatelliteName()</text><ellipse cx="82.5" cy="212.4375" fill="#84BE84" rx="3" ry="3" style="stroke: #038048; stroke-width: 1.0;"/><text fill="#000000" font-family="sans-serif" font-size="11" lengthAdjust="spacingAndGlyphs" textLength="93" x="91.5" y="215.6479">int getStrength()</text><ellipse cx="82.5" cy="225.2422" fill="#84BE84" rx="3" ry="3" style="stroke: #038048; stroke-width: 1.0;"/><text fill="#000000" font-family="sans-serif" font-size="11" lengthAdjust="spacingAndGlyphs" textLength="178" x="91.5" y="228.4526">LocationDataPoint getLocation()</text><ellipse cx="82.5" cy="238.0469" fill="#84BE84" rx="3" ry="3" style="stroke: #038048; stroke-width: 1.0;"/><text fill="#000000" font-family="sans-serif" font-size="11" lengthAdjust="spacingAndGlyphs" textLength="168" x="91.5" y="241.2573">void setStrength(int strength)</text><rect fill="#F24D5C" height="6" style="stroke: #C82930; stroke-width: 1.0;" width="6" x="79.5" y="247.8516"/><text fill="#000000" font-family="sans-serif" font-size="11" lengthAdjust="spacingAndGlyphs" textLength="208" x="91.5" y="254.062">boolean strengthIsValid(int strength)</text><ellipse cx="82.5" cy="263.6563" fill="#84BE84" rx="3" ry="3" style="stroke: #038048; stroke-width: 1.0;"/><text fill="#000000" font-family="sans-serif" font-size="11" lengthAdjust="spacingAndGlyphs" text-decoration="underline" textLength="243" x="91.5" y="266.8667">void satelliteInit(float incrementLatAmount,</text><text fill="#000000" font-family="sans-serif" font-size="11" lengthAdjust="spacingAndGlyphs" textLength="153" x="123.5" y="279.6714">float incrementLngAmount,</text><text fill="#000000" font-family="sans-serif" font-size="11" lengthAdjust="spacingAndGlyphs" textLength="227" x="123.5" y="292.4761">LocationDataPoint initLocationDataPoint)</text><rect fill="#F24D5C" height="6" style="stroke: #C82930; stroke-width: 1.0;" width="6" x="79.5" y="299.0703"/><text fill="#000000" font-family="sans-serif" font-size="11" lengthAdjust="spacingAndGlyphs" text-decoration="underline" textLength="230" x="91.5" y="305.2808">float generateNewLocationDataPointLat()</text><rect fill="#F24D5C" height="6" style="stroke: #C82930; stroke-width: 1.0;" width="6" x="79.5" y="311.875"/><text fill="#000000" font-family="sans-serif" font-size="11" lengthAdjust="spacingAndGlyphs" text-decoration="underline" textLength="233" x="91.5" y="318.0854">float generateNewLocationDataPointLng()</text><rect fill="#F24D5C" height="6" style="stroke: #C82930; stroke-width: 1.0;" width="6" x="79.5" y="324.6797"/><text fill="#000000" font-family="sans-serif" font-size="11" lengthAdjust="spacingAndGlyphs" text-decoration="underline" textLength="241" x="91.5" y="330.8901">float generateNewLocationDataPointTime()</text><!--MD5=[478f5cd13d8e163685b267303d2bfb71]
class LocationDataPoint--><rect fill="#FEFECE" filter="url(#f14ys9qi85m96r)" height="163.2422" id="LocationDataPoint" style="stroke: #A80036; stroke-width: 1.5;" width="352" x="38" y="397"/><ellipse cx="152.25" cy="413" fill="#ADD1B2" rx="11" ry="11" style="stroke: #A80036; stroke-width: 1.0;"/><path d="M155.2188,418.6406 Q154.6406,418.9375 154,419.0781 Q153.3594,419.2344 152.6563,419.2344 Q150.1563,419.2344 148.8281,417.5938 Q147.5156,415.9375 147.5156,412.8125 Q147.5156,409.6875 148.8281,408.0313 Q150.1563,406.375 152.6563,406.375 Q153.3594,406.375 154,406.5313 Q154.6563,406.6875 155.2188,406.9844 L155.2188,409.7031 Q154.5938,409.125 154,408.8594 Q153.4063,408.5781 152.7813,408.5781 Q151.4375,408.5781 150.75,409.6563 Q150.0625,410.7188 150.0625,412.8125 Q150.0625,414.9063 150.75,415.9844 Q151.4375,417.0469 152.7813,417.0469 Q153.4063,417.0469 154,416.7813 Q154.5938,416.5 155.2188,415.9219 L155.2188,418.6406 Z "/><text fill="#000000" font-family="sans-serif" font-size="12" lengthAdjust="spacingAndGlyphs" textLength="115" x="172.75" y="417.1543">LocationDataPoint</text><line style="stroke: #A80036; stroke-width: 1.5;" x1="39" x2="389" y1="429" y2="429"/><rect fill="none" height="6" style="stroke: #C82930; stroke-width: 1.0;" width="6" x="46" y="437"/><text fill="#000000" font-family="sans-serif" font-size="11" lengthAdjust="spacingAndGlyphs" textLength="43" x="58" y="443.2104">float lat</text><rect fill="none" height="6" style="stroke: #C82930; stroke-width: 1.0;" width="6" x="46" y="449.8047"/><text fill="#000000" font-family="sans-serif" font-size="11" lengthAdjust="spacingAndGlyphs" textLength="46" x="58" y="456.0151">float lng</text><rect fill="none" height="6" style="stroke: #C82930; stroke-width: 1.0;" width="6" x="46" y="462.6094"/><text fill="#000000" font-family="sans-serif" font-size="11" lengthAdjust="spacingAndGlyphs" textLength="112" x="58" y="468.8198">LocalDateTime time</text><line style="stroke: #A80036; stroke-width: 1.5;" x1="39" x2="389" y1="475.4141" y2="475.4141"/><ellipse cx="49" cy="486.4141" fill="#84BE84" rx="3" ry="3" style="stroke: #038048; stroke-width: 1.0;"/><text fill="#000000" font-family="sans-serif" font-size="11" lengthAdjust="spacingAndGlyphs" textLength="326" x="58" y="489.6245">LocationDataPoint(float lat, float lng, LocalDateTime time)</text><ellipse cx="49" cy="499.2188" fill="#84BE84" rx="3" ry="3" style="stroke: #038048; stroke-width: 1.0;"/><text fill="#000000" font-family="sans-serif" font-size="11" lengthAdjust="spacingAndGlyphs" textLength="72" x="58" y="502.4292">float getLat()</text><ellipse cx="49" cy="512.0234" fill="#84BE84" rx="3" ry="3" style="stroke: #038048; stroke-width: 1.0;"/><text fill="#000000" font-family="sans-serif" font-size="11" lengthAdjust="spacingAndGlyphs" textLength="75" x="58" y="515.2339">float getLng()</text><ellipse cx="49" cy="524.8281" fill="#84BE84" rx="3" ry="3" style="stroke: #038048; stroke-width: 1.0;"/><text fill="#000000" font-family="sans-serif" font-size="11" lengthAdjust="spacingAndGlyphs" textLength="141" x="58" y="528.0386">LocalDateTime getTime()</text><rect fill="#F24D5C" height="6" style="stroke: #C82930; stroke-width: 1.0;" width="6" x="46" y="534.6328"/><text fill="#000000" font-family="sans-serif" font-size="11" lengthAdjust="spacingAndGlyphs" textLength="255" x="58" y="540.8433">float[] normalizeLatAndLng(float lat, float lng)</text><rect fill="#F24D5C" height="6" style="stroke: #C82930; stroke-width: 1.0;" width="6" x="46" y="547.4375"/><text fill="#000000" font-family="sans-serif" font-size="11" lengthAdjust="spacingAndGlyphs" textLength="158" x="58" y="553.6479">float normalizeLng(float lng)</text><!--MD5=[d62036522628f9b37a5d8c87f1934c41]
link Satellite to LocationDataPoint--><path d="M214,349.03 C214,349.03 214,372.83 214,383.56 " fill="none" id="Satellite-LocationDataPoint" style="stroke: #A80036; stroke-width: 1.0;"/><polygon fill="#A80036" points="214,396.9,218,387.9,214,391.9,210,387.9,214,396.9" style="stroke: #A80036; stroke-width: 1.0;"/><line style="stroke: #A80036; stroke-width: 1.0;" x1="214" x2="214" y1="391.9" y2="383.9"/><polygon fill="#A80036" points="214,337.03,210,343.03,214,349.03,218,343.03,214,337.03" style="stroke: #A80036; stroke-width: 1.0;"/><!--MD5=[6d538c2e3891ba1545db50674bb33408]
@startuml Satellite_Closure


package edu.oakland.helper.admin {
    class Satellite {
        - String satelliteName
        - int strength
        {static} - float incrementLatAmount
        {static} - float incrementLngAmount
        {static} - LocationDataPoint initLocationDataPoint
        {static} - int countGetLocationCalls
        __
        + Satellite(String satelliteName, int strength)
        + String getSatelliteName()
        + int getStrength()
        + LocationDataPoint getLocation()
        + void setStrength(int strength)
        - boolean strengthIsValid(int strength)
        {static} + void satelliteInit(float incrementLatAmount,
        \tfloat incrementLngAmount,
        \tLocationDataPoint initLocationDataPoint)
        {static} - float generateNewLocationDataPointLat()
        {static} - float generateNewLocationDataPointLng()
        {static} - float generateNewLocationDataPointTime()
    }
}




package edu.oakland.helper.admin {
    class LocationDataPoint {
        - float lat
        - float lng
        - LocalDateTime time
        + LocationDataPoint(float lat, float lng, LocalDateTime time)
        + float getLat()
        + float getLng()
        + LocalDateTime getTime()
        - float[] normalizeLatAndLng(float lat, float lng)
        - float normalizeLng(float lng)
    }
}






Satellite *- -> LocationDataPoint





@enduml

PlantUML version 1.2020.02(Sun Mar 01 10:22:07 GMT 2020)
(GPL source distribution)
Java Runtime: OpenJDK Runtime Environment
JVM: OpenJDK 64-Bit Server VM
Java Version: 11.0.9+11-Ubuntu-0ubuntu1
Operating System: Linux
Default Encoding: ANSI_X3.4-1968
Language: en
Country: US
--></g></svg>