<?xml version="1.0" encoding="UTF-8" standalone="no"?><svg xmlns="http://www.w3.org/2000/svg" xmlns:xlink="http://www.w3.org/1999/xlink" contentScriptType="application/ecmascript" contentStyleType="text/css" height="576px" preserveAspectRatio="none" style="width:440px;height:576px;" version="1.1" viewBox="0 0 440 576" width="440px" zoomAndPan="magnify"><defs><filter height="300%" id="f3wpjd21qz06k" width="300%" x="-1" y="-1"><feGaussianBlur result="blurOut" stdDeviation="2.0"/><feColorMatrix in="blurOut" result="blurOut2" type="matrix" values="0 0 0 0 0 0 0 0 0 0 0 0 0 0 0 0 0 0 .4 0"/><feOffset dx="4.0" dy="4.0" in="blurOut2" result="blurOut3"/><feBlend in="SourceGraphic" in2="blurOut3" mode="normal"/></filter></defs><g><!--MD5=[850b37b0b8d882ee2cad74ae2a956f48]
cluster edu.oakland.helper.admin--><polygon fill="#FFFFFF" filter="url(#f3wpjd21qz06k)" points="22,24,232,24,239,46.2969,418,46.2969,418,564,22,564,22,24" style="stroke: #000000; stroke-width: 1.5;"/><line style="stroke: #000000; stroke-width: 1.5;" x1="22" x2="239" y1="46.2969" y2="46.2969"/><text fill="#000000" font-family="sans-serif" font-size="14" font-weight="bold" lengthAdjust="spacingAndGlyphs" textLength="204" x="26" y="38.9951">edu.oakland.helper.admin</text><!--MD5=[39a9b949d1787538902e1dfaac894da1]
class Satellite--><rect fill="#FEFECE" filter="url(#f3wpjd21qz06k)" height="265.6797" id="Satellite" style="stroke: #A80036; stroke-width: 1.5;" width="365" x="37.5" y="59"/><ellipse cx="190.25" cy="75" fill="#ADD1B2" rx="11" ry="11" style="stroke: #A80036; stroke-width: 1.0;"/><path d="M193.2188,80.6406 Q192.6406,80.9375 192,81.0781 Q191.3594,81.2344 190.6563,81.2344 Q188.1563,81.2344 186.8281,79.5938 Q185.5156,77.9375 185.5156,74.8125 Q185.5156,71.6875 186.8281,70.0313 Q188.1563,68.375 190.6563,68.375 Q191.3594,68.375 192,68.5313 Q192.6563,68.6875 193.2188,68.9844 L193.2188,71.7031 Q192.5938,71.125 192,70.8594 Q191.4063,70.5781 190.7813,70.5781 Q189.4375,70.5781 188.75,71.6563 Q188.0625,72.7188 188.0625,74.8125 Q188.0625,76.9063 188.75,77.9844 Q189.4375,79.0469 190.7813,79.0469 Q191.4063,79.0469 192,78.7813 Q192.5938,78.5 193.2188,77.9219 L193.2188,80.6406 Z "/><text fill="#000000" font-family="sans-serif" font-size="12" lengthAdjust="spacingAndGlyphs" textLength="51" x="210.75" y="79.1543">Satellite</text><line style="stroke: #A80036; stroke-width: 1.5;" x1="38.5" x2="401.5" y1="91" y2="91"/><rect fill="none" height="6" style="stroke: #C82930; stroke-width: 1.0;" width="6" x="45.5" y="99"/><text fill="#000000" font-family="sans-serif" font-size="11" lengthAdjust="spacingAndGlyphs" textLength="116" x="57.5" y="105.2104">String satelliteName</text><rect fill="none" height="6" style="stroke: #C82930; stroke-width: 1.0;" width="6" x="45.5" y="111.8047"/><text fill="#000000" font-family="sans-serif" font-size="11" lengthAdjust="spacingAndGlyphs" textLength="66" x="57.5" y="118.0151">int strength</text><rect fill="none" height="6" style="stroke: #C82930; stroke-width: 1.0;" width="6" x="45.5" y="124.6094"/><text fill="#000000" font-family="sans-serif" font-size="11" lengthAdjust="spacingAndGlyphs" textLength="146" x="57.5" y="130.8198">float incrementLatAmount</text><rect fill="none" height="6" style="stroke: #C82930; stroke-width: 1.0;" width="6" x="45.5" y="137.4141"/><text fill="#000000" font-family="sans-serif" font-size="11" lengthAdjust="spacingAndGlyphs" textLength="149" x="57.5" y="143.6245">float incrementLngAmount</text><rect fill="none" height="6" style="stroke: #C82930; stroke-width: 1.0;" width="6" x="45.5" y="150.2188"/><text fill="#000000" font-family="sans-serif" font-size="11" lengthAdjust="spacingAndGlyphs" textLength="223" x="57.5" y="156.4292">LocationDataPoint initLocationDataPoint</text><rect fill="none" height="6" style="stroke: #C82930; stroke-width: 1.0;" width="6" x="45.5" y="163.0234"/><text fill="#000000" font-family="sans-serif" font-size="11" lengthAdjust="spacingAndGlyphs" text-decoration="underline" textLength="144" x="57.5" y="169.2339">int countGetLocationCalls</text><line style="stroke: #A80036; stroke-width: 1.5;" x1="38.5" x2="401.5" y1="175.8281" y2="175.8281"/><ellipse cx="48.5" cy="186.8281" fill="#84BE84" rx="3" ry="3" style="stroke: #038048; stroke-width: 1.0;"/><text fill="#000000" font-family="sans-serif" font-size="11" lengthAdjust="spacingAndGlyphs" textLength="244" x="57.5" y="190.0386">Satellite(String satelliteName, int strength,</text><text fill="#000000" font-family="sans-serif" font-size="11" lengthAdjust="spacingAndGlyphs" textLength="307" x="89.5" y="202.8433">float incrementLatAmount, float incrementLngAmount,</text><text fill="#000000" font-family="sans-serif" font-size="11" lengthAdjust="spacingAndGlyphs" textLength="227" x="89.5" y="215.6479">LocationDataPoint initLocationDataPoint)</text><ellipse cx="48.5" cy="225.2422" fill="#84BE84" rx="3" ry="3" style="stroke: #038048; stroke-width: 1.0;"/><text fill="#000000" font-family="sans-serif" font-size="11" lengthAdjust="spacingAndGlyphs" textLength="143" x="57.5" y="228.4526">String getSatelliteName()</text><ellipse cx="48.5" cy="238.0469" fill="#84BE84" rx="3" ry="3" style="stroke: #038048; stroke-width: 1.0;"/><text fill="#000000" font-family="sans-serif" font-size="11" lengthAdjust="spacingAndGlyphs" textLength="93" x="57.5" y="241.2573">int getStrength()</text><ellipse cx="48.5" cy="250.8516" fill="#84BE84" rx="3" ry="3" style="stroke: #038048; stroke-width: 1.0;"/><text fill="#000000" font-family="sans-serif" font-size="11" lengthAdjust="spacingAndGlyphs" textLength="178" x="57.5" y="254.062">LocationDataPoint getLocation()</text><ellipse cx="48.5" cy="263.6563" fill="#84BE84" rx="3" ry="3" style="stroke: #038048; stroke-width: 1.0;"/><text fill="#000000" font-family="sans-serif" font-size="11" lengthAdjust="spacingAndGlyphs" textLength="168" x="57.5" y="266.8667">void setStrength(int strength)</text><rect fill="#F24D5C" height="6" style="stroke: #C82930; stroke-width: 1.0;" width="6" x="45.5" y="273.4609"/><text fill="#000000" font-family="sans-serif" font-size="11" lengthAdjust="spacingAndGlyphs" textLength="208" x="57.5" y="279.6714">boolean strengthIsValid(int strength)</text><rect fill="#F24D5C" height="6" style="stroke: #C82930; stroke-width: 1.0;" width="6" x="45.5" y="286.2656"/><text fill="#000000" font-family="sans-serif" font-size="11" lengthAdjust="spacingAndGlyphs" textLength="230" x="57.5" y="292.4761">float generateNewLocationDataPointLat()</text><rect fill="#F24D5C" height="6" style="stroke: #C82930; stroke-width: 1.0;" width="6" x="45.5" y="299.0703"/><text fill="#000000" font-family="sans-serif" font-size="11" lengthAdjust="spacingAndGlyphs" textLength="233" x="57.5" y="305.2808">float generateNewLocationDataPointLng()</text><rect fill="#F24D5C" height="6" style="stroke: #C82930; stroke-width: 1.0;" width="6" x="45.5" y="311.875"/><text fill="#000000" font-family="sans-serif" font-size="11" lengthAdjust="spacingAndGlyphs" textLength="241" x="57.5" y="318.0854">float generateNewLocationDataPointTime()</text><!--MD5=[478f5cd13d8e163685b267303d2bfb71]
class LocationDataPoint--><rect fill="#FEFECE" filter="url(#f3wpjd21qz06k)" height="163.2422" id="LocationDataPoint" style="stroke: #A80036; stroke-width: 1.5;" width="352" x="44" y="385"/><ellipse cx="158.25" cy="401" fill="#ADD1B2" rx="11" ry="11" style="stroke: #A80036; stroke-width: 1.0;"/><path d="M161.2188,406.6406 Q160.6406,406.9375 160,407.0781 Q159.3594,407.2344 158.6563,407.2344 Q156.1563,407.2344 154.8281,405.5938 Q153.5156,403.9375 153.5156,400.8125 Q153.5156,397.6875 154.8281,396.0313 Q156.1563,394.375 158.6563,394.375 Q159.3594,394.375 160,394.5313 Q160.6563,394.6875 161.2188,394.9844 L161.2188,397.7031 Q160.5938,397.125 160,396.8594 Q159.4063,396.5781 158.7813,396.5781 Q157.4375,396.5781 156.75,397.6563 Q156.0625,398.7188 156.0625,400.8125 Q156.0625,402.9063 156.75,403.9844 Q157.4375,405.0469 158.7813,405.0469 Q159.4063,405.0469 160,404.7813 Q160.5938,404.5 161.2188,403.9219 L161.2188,406.6406 Z "/><text fill="#000000" font-family="sans-serif" font-size="12" lengthAdjust="spacingAndGlyphs" textLength="115" x="178.75" y="405.1543">LocationDataPoint</text><line style="stroke: #A80036; stroke-width: 1.5;" x1="45" x2="395" y1="417" y2="417"/><rect fill="none" height="6" style="stroke: #C82930; stroke-width: 1.0;" width="6" x="52" y="425"/><text fill="#000000" font-family="sans-serif" font-size="11" lengthAdjust="spacingAndGlyphs" textLength="43" x="64" y="431.2104">float lat</text><rect fill="none" height="6" style="stroke: #C82930; stroke-width: 1.0;" width="6" x="52" y="437.8047"/><text fill="#000000" font-family="sans-serif" font-size="11" lengthAdjust="spacingAndGlyphs" textLength="46" x="64" y="444.0151">float lng</text><rect fill="none" height="6" style="stroke: #C82930; stroke-width: 1.0;" width="6" x="52" y="450.6094"/><text fill="#000000" font-family="sans-serif" font-size="11" lengthAdjust="spacingAndGlyphs" textLength="112" x="64" y="456.8198">LocalDateTime time</text><line style="stroke: #A80036; stroke-width: 1.5;" x1="45" x2="395" y1="463.4141" y2="463.4141"/><ellipse cx="55" cy="474.4141" fill="#84BE84" rx="3" ry="3" style="stroke: #038048; stroke-width: 1.0;"/><text fill="#000000" font-family="sans-serif" font-size="11" lengthAdjust="spacingAndGlyphs" textLength="326" x="64" y="477.6245">LocationDataPoint(float lat, float lng, LocalDateTime time)</text><ellipse cx="55" cy="487.2188" fill="#84BE84" rx="3" ry="3" style="stroke: #038048; stroke-width: 1.0;"/><text fill="#000000" font-family="sans-serif" font-size="11" lengthAdjust="spacingAndGlyphs" textLength="72" x="64" y="490.4292">float getLat()</text><ellipse cx="55" cy="500.0234" fill="#84BE84" rx="3" ry="3" style="stroke: #038048; stroke-width: 1.0;"/><text fill="#000000" font-family="sans-serif" font-size="11" lengthAdjust="spacingAndGlyphs" textLength="75" x="64" y="503.2339">float getLng()</text><ellipse cx="55" cy="512.8281" fill="#84BE84" rx="3" ry="3" style="stroke: #038048; stroke-width: 1.0;"/><text fill="#000000" font-family="sans-serif" font-size="11" lengthAdjust="spacingAndGlyphs" textLength="141" x="64" y="516.0386">LocalDateTime getTime()</text><rect fill="#F24D5C" height="6" style="stroke: #C82930; stroke-width: 1.0;" width="6" x="52" y="522.6328"/><text fill="#000000" font-family="sans-serif" font-size="11" lengthAdjust="spacingAndGlyphs" textLength="255" x="64" y="528.8433">float[] normalizeLatAndLng(float lat, float lng)</text><rect fill="#F24D5C" height="6" style="stroke: #C82930; stroke-width: 1.0;" width="6" x="52" y="535.4375"/><text fill="#000000" font-family="sans-serif" font-size="11" lengthAdjust="spacingAndGlyphs" textLength="158" x="64" y="541.6479">float normalizeLng(float lng)</text><!--MD5=[d62036522628f9b37a5d8c87f1934c41]
link Satellite to LocationDataPoint--><path d="M220,337.26 C220,337.26 220,360.83 220,371.52 " fill="none" id="Satellite-LocationDataPoint" style="stroke: #A80036; stroke-width: 1.0;"/><polygon fill="#A80036" points="220,384.82,224,375.82,220,379.82,216,375.82,220,384.82" style="stroke: #A80036; stroke-width: 1.0;"/><line style="stroke: #A80036; stroke-width: 1.0;" x1="220" x2="220" y1="379.82" y2="371.82"/><polygon fill="#A80036" points="220,325.26,216,331.26,220,337.26,224,331.26,220,325.26" style="stroke: #A80036; stroke-width: 1.0;"/><!--MD5=[ae387f5cf5cfc6e03d0437ac46b06d9a]
@startuml Satellite_DirectDependencies


package edu.oakland.helper.admin {
    class Satellite {
        - String satelliteName
        - int strength
        - float incrementLatAmount
        - float incrementLngAmount
        - LocationDataPoint initLocationDataPoint
        {static} - int countGetLocationCalls
        __
        + Satellite(String satelliteName, int strength,
        \tfloat incrementLatAmount, float incrementLngAmount,
        \tLocationDataPoint initLocationDataPoint)
        + String getSatelliteName()
        + int getStrength()
        + LocationDataPoint getLocation()
        + void setStrength(int strength)
        - boolean strengthIsValid(int strength)
        - float generateNewLocationDataPointLat()
        - float generateNewLocationDataPointLng()
        - float generateNewLocationDataPointTime()
    }
}



package edu.oakland.helper.admin {
    class LocationDataPoint {
        - float lat
        - float lng
        - LocalDateTime time
        + LocationDataPoint(float lat, float lng, LocalDateTime time)
        + float getLat()
        + float getLng()
        + LocalDateTime getTime()
        - float[] normalizeLatAndLng(float lat, float lng)
        - float normalizeLng(float lng)
    }
}

Satellite *- -> LocationDataPoint





@enduml

PlantUML version 1.2020.02(Sun Mar 01 10:22:07 GMT 2020)
(GPL source distribution)
Java Runtime: OpenJDK Runtime Environment
JVM: OpenJDK 64-Bit Server VM
Java Version: 11.0.9+11-Ubuntu-0ubuntu1
Operating System: Linux
Default Encoding: ANSI_X3.4-1968
Language: en
Country: US
--></g></svg>