<?xml version="1.0" encoding="UTF-8" standalone="no"?><svg xmlns="http://www.w3.org/2000/svg" xmlns:xlink="http://www.w3.org/1999/xlink" contentScriptType="application/ecmascript" contentStyleType="text/css" height="271px" preserveAspectRatio="none" style="width:454px;height:271px;" version="1.1" viewBox="0 0 454 271" width="454px" zoomAndPan="magnify"><defs><filter height="300%" id="faplxxtodr5l" width="300%" x="-1" y="-1"><feGaussianBlur result="blurOut" stdDeviation="2.0"/><feColorMatrix in="blurOut" result="blurOut2" type="matrix" values="0 0 0 0 0 0 0 0 0 0 0 0 0 0 0 0 0 0 .4 0"/><feOffset dx="4.0" dy="4.0" in="blurOut2" result="blurOut3"/><feBlend in="SourceGraphic" in2="blurOut3" mode="normal"/></filter></defs><g><!--MD5=[c2e276049abfe145c9906edb061abd32]
cluster edu.oakland.production.database--><polygon fill="#FFFFFF" filter="url(#faplxxtodr5l)" points="22,24,292,24,299,46.2969,432,46.2969,432,259,22,259,22,24" style="stroke: #000000; stroke-width: 1.5;"/><line style="stroke: #000000; stroke-width: 1.5;" x1="22" x2="299" y1="46.2969" y2="46.2969"/><text fill="#000000" font-family="sans-serif" font-size="14" font-weight="bold" lengthAdjust="spacingAndGlyphs" textLength="264" x="26" y="38.9951">edu.oakland.production.database</text><!--MD5=[cb27e8f56b23a96be3f83add8518c141]
class DatabaseGisManagerImplementation--><rect fill="#FEFECE" filter="url(#faplxxtodr5l)" height="184.0469" id="DatabaseGisManagerImplementation" style="stroke: #A80036; stroke-width: 1.5;" width="379" x="37.5" y="59"/><ellipse cx="106.75" cy="75" fill="#ADD1B2" rx="11" ry="11" style="stroke: #A80036; stroke-width: 1.0;"/><path d="M109.7188,80.6406 Q109.1406,80.9375 108.5,81.0781 Q107.8594,81.2344 107.1563,81.2344 Q104.6563,81.2344 103.3281,79.5938 Q102.0156,77.9375 102.0156,74.8125 Q102.0156,71.6875 103.3281,70.0313 Q104.6563,68.375 107.1563,68.375 Q107.8594,68.375 108.5,68.5313 Q109.1563,68.6875 109.7188,68.9844 L109.7188,71.7031 Q109.0938,71.125 108.5,70.8594 Q107.9063,70.5781 107.2813,70.5781 Q105.9375,70.5781 105.25,71.6563 Q104.5625,72.7188 104.5625,74.8125 Q104.5625,76.9063 105.25,77.9844 Q105.9375,79.0469 107.2813,79.0469 Q107.9063,79.0469 108.5,78.7813 Q109.0938,78.5 109.7188,77.9219 L109.7188,80.6406 Z "/><text fill="#000000" font-family="sans-serif" font-size="12" lengthAdjust="spacingAndGlyphs" textLength="232" x="127.25" y="79.1543">DatabaseGisManagerImplementation</text><line style="stroke: #A80036; stroke-width: 1.5;" x1="38.5" x2="415.5" y1="91" y2="91"/><rect fill="none" height="6" style="stroke: #C82930; stroke-width: 1.0;" width="6" x="45.5" y="99"/><text fill="#000000" font-family="sans-serif" font-size="11" lengthAdjust="spacingAndGlyphs" textLength="175" x="57.5" y="105.2104">LocationDataPoint locDataPoint</text><rect fill="none" height="6" style="stroke: #C82930; stroke-width: 1.0;" width="6" x="45.5" y="111.8047"/><text fill="#000000" font-family="sans-serif" font-size="11" lengthAdjust="spacingAndGlyphs" textLength="70" x="57.5" y="118.0151">String mode</text><rect fill="none" height="6" style="stroke: #C82930; stroke-width: 1.0;" width="6" x="45.5" y="124.6094"/><text fill="#000000" font-family="sans-serif" font-size="11" lengthAdjust="spacingAndGlyphs" textLength="98" x="57.5" y="130.8198">String currentSat</text><line style="stroke: #A80036; stroke-width: 1.5;" x1="38.5" x2="415.5" y1="137.4141" y2="137.4141"/><ellipse cx="48.5" cy="148.4141" fill="#84BE84" rx="3" ry="3" style="stroke: #038048; stroke-width: 1.0;"/><text fill="#000000" font-family="sans-serif" font-size="11" lengthAdjust="spacingAndGlyphs" textLength="214" x="57.5" y="151.6245">DatabaseGisManagerImplementation(</text><text fill="#000000" font-family="sans-serif" font-size="11" lengthAdjust="spacingAndGlyphs" textLength="321" x="89.5" y="164.4292">DatabasePersistentStorage databasePersistentStorage)</text><ellipse cx="48.5" cy="190.8281" fill="#84BE84" rx="3" ry="3" style="stroke: #038048; stroke-width: 1.0;"/><text fill="#000000" font-family="sans-serif" font-size="11" lengthAdjust="spacingAndGlyphs" textLength="343" x="57.5" y="194.0386">void passStoreRequest(LocationDataPoint locationDataPoint)</text><line style="stroke: #A80036; stroke-width: 1.0; stroke-dasharray: 1.0,2.0;" x1="38.5" x2="194" y1="177.4258" y2="177.4258"/><text fill="#000000" font-family="sans-serif" font-size="11" lengthAdjust="spacingAndGlyphs" textLength="66" x="194" y="180.7339">Use Case 1</text><line style="stroke: #A80036; stroke-width: 1.0; stroke-dasharray: 1.0,2.0;" x1="260" x2="415.5" y1="177.4258" y2="177.4258"/><ellipse cx="48.5" cy="220.4375" fill="#84BE84" rx="3" ry="3" style="stroke: #038048; stroke-width: 1.0;"/><text fill="#000000" font-family="sans-serif" font-size="11" lengthAdjust="spacingAndGlyphs" textLength="209" x="57.5" y="223.6479">void passModeRequest(String mode)</text><ellipse cx="48.5" cy="233.2422" fill="#84BE84" rx="3" ry="3" style="stroke: #038048; stroke-width: 1.0;"/><text fill="#000000" font-family="sans-serif" font-size="11" lengthAdjust="spacingAndGlyphs" textLength="262" x="57.5" y="236.4526">String passNextSatRequest(String currentSat)</text><line style="stroke: #A80036; stroke-width: 1.0; stroke-dasharray: 1.0,2.0;" x1="38.5" x2="194" y1="207.0352" y2="207.0352"/><text fill="#000000" font-family="sans-serif" font-size="11" lengthAdjust="spacingAndGlyphs" textLength="66" x="194" y="210.3433">Use Case 2</text><line style="stroke: #A80036; stroke-width: 1.0; stroke-dasharray: 1.0,2.0;" x1="260" x2="415.5" y1="207.0352" y2="207.0352"/><!--MD5=[3992f2aa034ca61cfb0292cc503650a4]
@startuml DatabaseGisManagerImplementation

package edu.oakland.production.database {
    class DatabaseGisManagerImplementation {
        - LocationDataPoint locDataPoint
        - String mode
        - String currentSat
        __
        + DatabaseGisManagerImplementation(
        \tDatabasePersistentStorage databasePersistentStorage)
        .. Use Case 1 ..
        + void passStoreRequest(LocationDataPoint locationDataPoint)
        .. Use Case 2 ..
        + void passModeRequest(String mode)
        + String passNextSatRequest(String currentSat)
    }
}

@enduml

PlantUML version 1.2020.02(Sun Mar 01 10:22:07 GMT 2020)
(GPL source distribution)
Java Runtime: OpenJDK Runtime Environment
JVM: OpenJDK 64-Bit Server VM
Java Version: 11.0.9+11-Ubuntu-0ubuntu1
Operating System: Linux
Default Encoding: ANSI_X3.4-1968
Language: en
Country: US
--></g></svg>