<?xml version="1.0" encoding="UTF-8" standalone="no"?><svg xmlns="http://www.w3.org/2000/svg" xmlns:xlink="http://www.w3.org/1999/xlink" contentScriptType="application/ecmascript" contentStyleType="text/css" height="301px" preserveAspectRatio="none" style="width:526px;height:301px;" version="1.1" viewBox="0 0 526 301" width="526px" zoomAndPan="magnify"><defs><filter height="300%" id="f1vg8owj1pys6u" width="300%" x="-1" y="-1"><feGaussianBlur result="blurOut" stdDeviation="2.0"/><feColorMatrix in="blurOut" result="blurOut2" type="matrix" values="0 0 0 0 0 0 0 0 0 0 0 0 0 0 0 0 0 0 .4 0"/><feOffset dx="4.0" dy="4.0" in="blurOut2" result="blurOut3"/><feBlend in="SourceGraphic" in2="blurOut3" mode="normal"/></filter></defs><g><!--MD5=[c2e276049abfe145c9906edb061abd32]
cluster edu.oakland.production.database--><polygon fill="#FFFFFF" filter="url(#f1vg8owj1pys6u)" points="22,24,292,24,299,46.2969,504,46.2969,504,289,22,289,22,24" style="stroke: #000000; stroke-width: 1.5;"/><line style="stroke: #000000; stroke-width: 1.5;" x1="22" x2="299" y1="46.2969" y2="46.2969"/><text fill="#000000" font-family="sans-serif" font-size="14" font-weight="bold" lengthAdjust="spacingAndGlyphs" textLength="264" x="26" y="38.9951">edu.oakland.production.database</text><!--MD5=[cb27e8f56b23a96be3f83add8518c141]
class DatabaseGisManagerImplementation--><rect fill="#FEFECE" filter="url(#f1vg8owj1pys6u)" height="214.4609" id="DatabaseGisManagerImplementation" style="stroke: #A80036; stroke-width: 1.5;" width="451" x="37.5" y="59"/><ellipse cx="142.75" cy="75" fill="#ADD1B2" rx="11" ry="11" style="stroke: #A80036; stroke-width: 1.0;"/><path d="M145.7188,80.6406 Q145.1406,80.9375 144.5,81.0781 Q143.8594,81.2344 143.1563,81.2344 Q140.6563,81.2344 139.3281,79.5938 Q138.0156,77.9375 138.0156,74.8125 Q138.0156,71.6875 139.3281,70.0313 Q140.6563,68.375 143.1563,68.375 Q143.8594,68.375 144.5,68.5313 Q145.1563,68.6875 145.7188,68.9844 L145.7188,71.7031 Q145.0938,71.125 144.5,70.8594 Q143.9063,70.5781 143.2813,70.5781 Q141.9375,70.5781 141.25,71.6563 Q140.5625,72.7188 140.5625,74.8125 Q140.5625,76.9063 141.25,77.9844 Q141.9375,79.0469 143.2813,79.0469 Q143.9063,79.0469 144.5,78.7813 Q145.0938,78.5 145.7188,77.9219 L145.7188,80.6406 Z "/><text fill="#000000" font-family="sans-serif" font-size="12" lengthAdjust="spacingAndGlyphs" textLength="232" x="163.25" y="79.1543">DatabaseGisManagerImplementation</text><line style="stroke: #A80036; stroke-width: 1.5;" x1="38.5" x2="487.5" y1="91" y2="91"/><rect fill="none" height="6" style="stroke: #C82930; stroke-width: 1.0;" width="6" x="45.5" y="99"/><text fill="#000000" font-family="sans-serif" font-size="11" lengthAdjust="spacingAndGlyphs" textLength="175" x="57.5" y="105.2104">LocationDataPoint locDataPoint</text><rect fill="none" height="6" style="stroke: #C82930; stroke-width: 1.0;" width="6" x="45.5" y="111.8047"/><text fill="#000000" font-family="sans-serif" font-size="11" lengthAdjust="spacingAndGlyphs" textLength="70" x="57.5" y="118.0151">String mode</text><rect fill="none" height="6" style="stroke: #C82930; stroke-width: 1.0;" width="6" x="45.5" y="124.6094"/><text fill="#000000" font-family="sans-serif" font-size="11" lengthAdjust="spacingAndGlyphs" textLength="98" x="57.5" y="130.8198">String currentSat</text><text fill="#000000" font-family="sans-serif" font-size="11" lengthAdjust="spacingAndGlyphs" textLength="12" x="57.5" y="143.6245">__</text><text fill="#000000" font-family="sans-serif" font-size="11" lengthAdjust="spacingAndGlyphs" textLength="74" x="89.5" y="156.4292">String mode,</text><text fill="#000000" font-family="sans-serif" font-size="11" lengthAdjust="spacingAndGlyphs" textLength="0" x="61.5" y="169.2339"/><line style="stroke: #A80036; stroke-width: 1.0; stroke-dasharray: 1.0,2.0;" x1="57.5" x2="57.5" y1="178.2305" y2="178.2305"/><text fill="#000000" font-family="sans-serif" font-size="11" lengthAdjust="spacingAndGlyphs" textLength="66" x="61.5" y="181.5386">Use Case 1</text><line style="stroke: #A80036; stroke-width: 1.0; stroke-dasharray: 1.0,2.0;" x1="131.5" x2="131.5" y1="178.2305" y2="178.2305"/><line style="stroke: #A80036; stroke-width: 1.0; stroke-dasharray: 1.0,2.0;" x1="57.5" x2="57.5" y1="191.0352" y2="191.0352"/><text fill="#000000" font-family="sans-serif" font-size="11" lengthAdjust="spacingAndGlyphs" textLength="66" x="61.5" y="194.3433">Use Case 2</text><line style="stroke: #A80036; stroke-width: 1.0; stroke-dasharray: 1.0,2.0;" x1="131.5" x2="131.5" y1="191.0352" y2="191.0352"/><line style="stroke: #A80036; stroke-width: 1.5;" x1="38.5" x2="487.5" y1="201.4375" y2="201.4375"/><ellipse cx="48.5" cy="212.4375" fill="#84BE84" rx="3" ry="3" style="stroke: #038048; stroke-width: 1.0;"/><text fill="#000000" font-family="sans-serif" font-size="11" lengthAdjust="spacingAndGlyphs" textLength="425" x="57.5" y="215.6479">DatabaseGisManagerImplementation (LocationDataPoint locationDataPoint,</text><text fill="#000000" font-family="sans-serif" font-size="11" lengthAdjust="spacingAndGlyphs" textLength="102" x="89.5" y="228.4526">String currentSat)</text><ellipse cx="48.5" cy="238.0469" fill="#84BE84" rx="3" ry="3" style="stroke: #038048; stroke-width: 1.0;"/><text fill="#000000" font-family="sans-serif" font-size="11" lengthAdjust="spacingAndGlyphs" textLength="343" x="57.5" y="241.2573">void passStoreRequest(LocationDataPoint locationDataPoint)</text><ellipse cx="48.5" cy="250.8516" fill="#84BE84" rx="3" ry="3" style="stroke: #038048; stroke-width: 1.0;"/><text fill="#000000" font-family="sans-serif" font-size="11" lengthAdjust="spacingAndGlyphs" textLength="209" x="57.5" y="254.062">void passModeRequest(String mode)</text><ellipse cx="48.5" cy="263.6563" fill="#84BE84" rx="3" ry="3" style="stroke: #038048; stroke-width: 1.0;"/><text fill="#000000" font-family="sans-serif" font-size="11" lengthAdjust="spacingAndGlyphs" textLength="262" x="57.5" y="266.8667">String passNextSatRequest(String currentSat)</text><!--MD5=[4039937ccc3fa77a810f6c9e1ce09a12]
@startuml DatabaseGisManagerImplementation

package edu.oakland.production.database {
    class DatabaseGisManagerImplementation {
    	- LocationDataPoint locDataPoint
    	- String mode
    	- String currentSat
          __
        + DatabaseGisManagerImplementation (LocationDataPoint locationDataPoint, 
        \tString mode, 
        \tString currentSat)
        
        .. Use Case 1 ..
        + void passStoreRequest(LocationDataPoint locationDataPoint)
        .. Use Case 2 ..
        + void passModeRequest(String mode)
        + String passNextSatRequest(String currentSat)
    }
}

@enduml

PlantUML version 1.2020.02(Sun Mar 01 10:22:07 GMT 2020)
(GPL source distribution)
Java Runtime: OpenJDK Runtime Environment
JVM: OpenJDK 64-Bit Server VM
Java Version: 11.0.9+11-Ubuntu-0ubuntu1
Operating System: Linux
Default Encoding: ANSI_X3.4-1968
Language: en
Country: US
--></g></svg>