<?xml version="1.0" encoding="UTF-8" standalone="no"?><svg xmlns="http://www.w3.org/2000/svg" xmlns:xlink="http://www.w3.org/1999/xlink" contentScriptType="application/ecmascript" contentStyleType="text/css" height="387px" preserveAspectRatio="none" style="width:418px;height:387px;" version="1.1" viewBox="0 0 418 387" width="418px" zoomAndPan="magnify"><defs><filter height="300%" id="fu9kt77psof08" width="300%" x="-1" y="-1"><feGaussianBlur result="blurOut" stdDeviation="2.0"/><feColorMatrix in="blurOut" result="blurOut2" type="matrix" values="0 0 0 0 0 0 0 0 0 0 0 0 0 0 0 0 0 0 .4 0"/><feOffset dx="4.0" dy="4.0" in="blurOut2" result="blurOut3"/><feBlend in="SourceGraphic" in2="blurOut3" mode="normal"/></filter></defs><g><!--MD5=[dc6f857ec0f7f4b7c2e0b8d815cd2a85]
cluster edu.oakland.production.database02--><polygon fill="#FFFFFF" filter="url(#fu9kt77psof08)" points="22,24,312,24,319,46.2969,396,46.2969,396,375,22,375,22,24" style="stroke: #000000; stroke-width: 1.5;"/><line style="stroke: #000000; stroke-width: 1.5;" x1="22" x2="319" y1="46.2969" y2="46.2969"/><text fill="#000000" font-family="sans-serif" font-size="14" font-weight="bold" lengthAdjust="spacingAndGlyphs" textLength="284" x="26" y="38.9951">edu.oakland.production.database02</text><!--MD5=[fe3a4c1f529fb89beb493f16b41b0ce6]
class DatabaseCommPersistentStorageImplementation--><rect fill="#FEFECE" filter="url(#fu9kt77psof08)" height="107.2188" id="DatabaseCommPersistentStorageImplementation" style="stroke: #A80036; stroke-width: 1.5;" width="342" x="38" y="252"/><ellipse cx="53" cy="268" fill="#ADD1B2" rx="11" ry="11" style="stroke: #A80036; stroke-width: 1.0;"/><path d="M55.9688,273.6406 Q55.3906,273.9375 54.75,274.0781 Q54.1094,274.2344 53.4063,274.2344 Q50.9063,274.2344 49.5781,272.5938 Q48.2656,270.9375 48.2656,267.8125 Q48.2656,264.6875 49.5781,263.0313 Q50.9063,261.375 53.4063,261.375 Q54.1094,261.375 54.75,261.5313 Q55.4063,261.6875 55.9688,261.9844 L55.9688,264.7031 Q55.3438,264.125 54.75,263.8594 Q54.1563,263.5781 53.5313,263.5781 Q52.1875,263.5781 51.5,264.6563 Q50.8125,265.7188 50.8125,267.8125 Q50.8125,269.9063 51.5,270.9844 Q52.1875,272.0469 53.5313,272.0469 Q54.1563,272.0469 54.75,271.7813 Q55.3438,271.5 55.9688,270.9219 L55.9688,273.6406 Z "/><text fill="#000000" font-family="sans-serif" font-size="12" lengthAdjust="spacingAndGlyphs" textLength="310" x="67" y="272.1543">DatabaseCommPersistentStorageImplementation</text><line style="stroke: #A80036; stroke-width: 1.5;" x1="39" x2="379" y1="284" y2="284"/><line style="stroke: #A80036; stroke-width: 1.5;" x1="39" x2="379" y1="292" y2="292"/><text fill="#000000" font-family="sans-serif" font-size="11" lengthAdjust="spacingAndGlyphs" textLength="0" x="48" y="323.0151"/><line style="stroke: #A80036; stroke-width: 1.0; stroke-dasharray: 1.0,2.0;" x1="39" x2="176" y1="306.4023" y2="306.4023"/><text fill="#000000" font-family="sans-serif" font-size="11" lengthAdjust="spacingAndGlyphs" textLength="66" x="176" y="309.7104">Use Case 1</text><line style="stroke: #A80036; stroke-width: 1.0; stroke-dasharray: 1.0,2.0;" x1="242" x2="379" y1="306.4023" y2="306.4023"/><text fill="#000000" font-family="sans-serif" font-size="11" lengthAdjust="spacingAndGlyphs" textLength="0" x="48" y="352.6245"/><line style="stroke: #A80036; stroke-width: 1.0; stroke-dasharray: 1.0,2.0;" x1="39" x2="176" y1="336.0117" y2="336.0117"/><text fill="#000000" font-family="sans-serif" font-size="11" lengthAdjust="spacingAndGlyphs" textLength="66" x="176" y="339.3198">Use Case 2</text><line style="stroke: #A80036; stroke-width: 1.0; stroke-dasharray: 1.0,2.0;" x1="242" x2="379" y1="336.0117" y2="336.0117"/><!--MD5=[e17d161261e70b0137cfc16fc476feac]
class DatabaseCommPersistentStorage--><rect fill="#FEFECE" filter="url(#fu9kt77psof08)" height="132.8281" id="DatabaseCommPersistentStorage" style="stroke: #A80036; stroke-width: 1.5;" width="308" x="55" y="59"/><ellipse cx="100.25" cy="75" fill="#B4A7E5" rx="11" ry="11" style="stroke: #A80036; stroke-width: 1.0;"/><path d="M96.1719,70.7656 L96.1719,68.6094 L103.5625,68.6094 L103.5625,70.7656 L101.0938,70.7656 L101.0938,78.8438 L103.5625,78.8438 L103.5625,81 L96.1719,81 L96.1719,78.8438 L98.6406,78.8438 L98.6406,70.7656 L96.1719,70.7656 Z "/><text fill="#000000" font-family="sans-serif" font-size="12" font-style="italic" lengthAdjust="spacingAndGlyphs" textLength="209" x="120.75" y="79.1543">DatabaseCommPersistentStorage</text><line style="stroke: #A80036; stroke-width: 1.5;" x1="56" x2="362" y1="91" y2="91"/><line style="stroke: #A80036; stroke-width: 1.5;" x1="56" x2="362" y1="99" y2="99"/><ellipse cx="66" cy="126.8047" fill="#84BE84" rx="3" ry="3" style="stroke: #038048; stroke-width: 1.0;"/><text fill="#000000" font-family="sans-serif" font-size="11" font-style="italic" lengthAdjust="spacingAndGlyphs" textLength="108" x="75" y="130.0151">int locateRfidData()</text><ellipse cx="66" cy="139.6094" fill="#84BE84" rx="3" ry="3" style="stroke: #038048; stroke-width: 1.0;"/><text fill="#000000" font-family="sans-serif" font-size="11" font-style="italic" lengthAdjust="spacingAndGlyphs" textLength="282" x="75" y="142.8198">LocationDataPoint getLocationDataPoint(int offset)</text><ellipse cx="66" cy="152.4141" fill="#84BE84" rx="3" ry="3" style="stroke: #038048; stroke-width: 1.0;"/><text fill="#000000" font-family="sans-serif" font-size="11" font-style="italic" lengthAdjust="spacingAndGlyphs" textLength="237" x="75" y="155.6245">void storeTrackData(TrackData trackData)</text><line style="stroke: #A80036; stroke-width: 1.0; stroke-dasharray: 1.0,2.0;" x1="56" x2="176" y1="113.4023" y2="113.4023"/><text fill="#000000" font-family="sans-serif" font-size="11" lengthAdjust="spacingAndGlyphs" textLength="66" x="176" y="116.7104">Use Case 1</text><line style="stroke: #A80036; stroke-width: 1.0; stroke-dasharray: 1.0,2.0;" x1="242" x2="362" y1="113.4023" y2="113.4023"/><text fill="#000000" font-family="sans-serif" font-size="11" lengthAdjust="spacingAndGlyphs" textLength="0" x="65" y="185.2339"/><line style="stroke: #A80036; stroke-width: 1.0; stroke-dasharray: 1.0,2.0;" x1="56" x2="176" y1="168.6211" y2="168.6211"/><text fill="#000000" font-family="sans-serif" font-size="11" lengthAdjust="spacingAndGlyphs" textLength="66" x="176" y="171.9292">Use Case 2</text><line style="stroke: #A80036; stroke-width: 1.0; stroke-dasharray: 1.0,2.0;" x1="242" x2="362" y1="168.6211" y2="168.6211"/><!--MD5=[a916ffa56f38317a3b2a439d259e409e]
reverse link DatabaseCommPersistentStorage to DatabaseCommPersistentStorageImplementation--><path d="M209,212.3 C209,225.82 209,239.44 209,251.91 " fill="none" id="DatabaseCommPersistentStorage&lt;-DatabaseCommPersistentStorageImplementation" style="stroke: #A80036; stroke-width: 1.0; stroke-dasharray: 7.0,7.0;"/><polygon fill="none" points="202,212.02,209,192.02,216,212.02,202,212.02" style="stroke: #A80036; stroke-width: 1.0;"/><!--MD5=[80da25b9771aa7de1a3df196d872ae3f]
@startuml DatabaseCommPersistentStorageImplementation_DirectDependencies


package edu.oakland.production.database02 {
    class DatabaseCommPersistentStorageImplementation {
        __
        .. Use Case 1 ..

        .. Use Case 2 ..

    }
}



package edu.oakland.production.database02 {
    interface DatabaseCommPersistentStorage {
        __
        .. Use Case 1 ..
        {abstract} + int locateRfidData()
        {abstract} + LocationDataPoint getLocationDataPoint(int offset)
        {abstract} + void storeTrackData(TrackData trackData)
        .. Use Case 2 ..

    }
}

DatabaseCommPersistentStorageImplementation .up.|> DatabaseCommPersistentStorage





@enduml

PlantUML version 1.2020.02(Sun Mar 01 10:22:07 GMT 2020)
(GPL source distribution)
Java Runtime: OpenJDK Runtime Environment
JVM: OpenJDK 64-Bit Server VM
Java Version: 11.0.9+11-Ubuntu-0ubuntu1
Operating System: Linux
Default Encoding: ANSI_X3.4-1968
Language: en
Country: US
--></g></svg>