<?xml version="1.0" encoding="UTF-8" standalone="no"?><svg xmlns="http://www.w3.org/2000/svg" xmlns:xlink="http://www.w3.org/1999/xlink" contentScriptType="application/ecmascript" contentStyleType="text/css" height="1174px" preserveAspectRatio="none" style="width:1484px;height:1174px;" version="1.1" viewBox="0 0 1484 1174" width="1484px" zoomAndPan="magnify"><defs><filter height="300%" id="f1hwldrh6e105q" width="300%" x="-1" y="-1"><feGaussianBlur result="blurOut" stdDeviation="2.0"/><feColorMatrix in="blurOut" result="blurOut2" type="matrix" values="0 0 0 0 0 0 0 0 0 0 0 0 0 0 0 0 0 0 .4 0"/><feOffset dx="4.0" dy="4.0" in="blurOut2" result="blurOut3"/><feBlend in="SourceGraphic" in2="blurOut3" mode="normal"/></filter></defs><g><!--MD5=[8bd6d9786dfa802b1eecfb7372bf244a]
cluster edu.oakland.production.admin--><polygon fill="#FFFFFF" filter="url(#f1hwldrh6e105q)" points="84,24,329,24,336,46.2969,805,46.2969,805,521,84,521,84,24" style="stroke: #000000; stroke-width: 1.5;"/><line style="stroke: #000000; stroke-width: 1.5;" x1="84" x2="336" y1="46.2969" y2="46.2969"/><text fill="#000000" font-family="sans-serif" font-size="14" font-weight="bold" lengthAdjust="spacingAndGlyphs" textLength="239" x="88" y="38.9951">edu.oakland.production.admin</text><!--MD5=[913a5d0b9faba757f1bf119e53d411ee]
cluster edu.oakland.test.admin--><polygon fill="#FFFFFF" filter="url(#f1hwldrh6e105q)" points="829,105,1019,105,1026,127.2969,1462,127.2969,1462,795.5,829,795.5,829,105" style="stroke: #000000; stroke-width: 1.5;"/><line style="stroke: #000000; stroke-width: 1.5;" x1="829" x2="1026" y1="127.2969" y2="127.2969"/><text fill="#000000" font-family="sans-serif" font-size="14" font-weight="bold" lengthAdjust="spacingAndGlyphs" textLength="184" x="833" y="119.9951">edu.oakland.test.admin</text><!--MD5=[850b37b0b8d882ee2cad74ae2a956f48]
cluster edu.oakland.helper.admin--><polygon fill="#FFFFFF" filter="url(#f1hwldrh6e105q)" points="22,545,232,545,239,567.2969,805,567.2969,805,1162,22,1162,22,545" style="stroke: #000000; stroke-width: 1.5;"/><line style="stroke: #000000; stroke-width: 1.5;" x1="22" x2="239" y1="567.2969" y2="567.2969"/><text fill="#000000" font-family="sans-serif" font-size="14" font-weight="bold" lengthAdjust="spacingAndGlyphs" textLength="204" x="26" y="559.9951">edu.oakland.helper.admin</text><!--MD5=[3c84d2688363deb820fa9437de7249ec]
class Demo--><rect fill="#FEFECE" filter="url(#f1hwldrh6e105q)" height="209.6563" id="Demo" style="stroke: #A80036; stroke-width: 1.5;" width="334" x="100" y="59"/><ellipse cx="244.75" cy="75" fill="#ADD1B2" rx="11" ry="11" style="stroke: #A80036; stroke-width: 1.0;"/><path d="M247.7188,80.6406 Q247.1406,80.9375 246.5,81.0781 Q245.8594,81.2344 245.1563,81.2344 Q242.6563,81.2344 241.3281,79.5938 Q240.0156,77.9375 240.0156,74.8125 Q240.0156,71.6875 241.3281,70.0313 Q242.6563,68.375 245.1563,68.375 Q245.8594,68.375 246.5,68.5313 Q247.1563,68.6875 247.7188,68.9844 L247.7188,71.7031 Q247.0938,71.125 246.5,70.8594 Q245.9063,70.5781 245.2813,70.5781 Q243.9375,70.5781 243.25,71.6563 Q242.5625,72.7188 242.5625,74.8125 Q242.5625,76.9063 243.25,77.9844 Q243.9375,79.0469 245.2813,79.0469 Q245.9063,79.0469 246.5,78.7813 Q247.0938,78.5 247.7188,77.9219 L247.7188,80.6406 Z "/><text fill="#000000" font-family="sans-serif" font-size="12" lengthAdjust="spacingAndGlyphs" textLength="36" x="265.25" y="79.1543">Demo</text><line style="stroke: #A80036; stroke-width: 1.5;" x1="101" x2="433" y1="91" y2="91"/><rect fill="none" height="6" style="stroke: #C82930; stroke-width: 1.0;" width="6" x="108" y="115.8047"/><text fill="#000000" font-family="sans-serif" font-size="11" lengthAdjust="spacingAndGlyphs" textLength="231" x="120" y="122.0151">DisplayGpsInterface displayGpsInterface</text><rect fill="none" height="6" style="stroke: #C82930; stroke-width: 1.0;" width="6" x="108" y="128.6094"/><text fill="#000000" font-family="sans-serif" font-size="11" lengthAdjust="spacingAndGlyphs" textLength="259" x="120" y="134.8198">DisplayCommInterface displayCommInterface</text><line style="stroke: #A80036; stroke-width: 1.0; stroke-dasharray: 1.0,2.0;" x1="101" x2="197" y1="105.4023" y2="105.4023"/><text fill="#000000" font-family="sans-serif" font-size="11" lengthAdjust="spacingAndGlyphs" textLength="140" x="197" y="108.7104">Main Production Classes</text><line style="stroke: #A80036; stroke-width: 1.0; stroke-dasharray: 1.0,2.0;" x1="337" x2="433" y1="105.4023" y2="105.4023"/><rect fill="none" height="6" style="stroke: #C82930; stroke-width: 1.0;" width="6" x="108" y="158.2188"/><text fill="#000000" font-family="sans-serif" font-size="11" lengthAdjust="spacingAndGlyphs" textLength="134" x="120" y="164.4292">GpsSystem gpsSystem</text><rect fill="none" height="6" style="stroke: #C82930; stroke-width: 1.0;" width="6" x="108" y="171.0234"/><text fill="#000000" font-family="sans-serif" font-size="11" lengthAdjust="spacingAndGlyphs" textLength="57" x="120" y="177.2339">User user</text><rect fill="none" height="6" style="stroke: #C82930; stroke-width: 1.0;" width="6" x="108" y="183.8281"/><text fill="#000000" font-family="sans-serif" font-size="11" lengthAdjust="spacingAndGlyphs" textLength="308" x="120" y="190.0386">PersistentStorageManager persistentStorageManager</text><line style="stroke: #A80036; stroke-width: 1.0; stroke-dasharray: 1.0,2.0;" x1="101" x2="214" y1="147.8164" y2="147.8164"/><text fill="#000000" font-family="sans-serif" font-size="11" lengthAdjust="spacingAndGlyphs" textLength="106" x="214" y="151.1245">Use Case Runners</text><line style="stroke: #A80036; stroke-width: 1.0; stroke-dasharray: 1.0,2.0;" x1="320" x2="433" y1="147.8164" y2="147.8164"/><line style="stroke: #A80036; stroke-width: 1.5;" x1="101" x2="433" y1="196.6328" y2="196.6328"/><ellipse cx="111" cy="207.6328" fill="#84BE84" rx="3" ry="3" style="stroke: #038048; stroke-width: 1.0;"/><text fill="#000000" font-family="sans-serif" font-size="11" lengthAdjust="spacingAndGlyphs" text-decoration="underline" textLength="130" x="120" y="210.8433">void main(Sting args[])</text><ellipse cx="111" cy="220.4375" fill="#84BE84" rx="3" ry="3" style="stroke: #038048; stroke-width: 1.0;"/><text fill="#000000" font-family="sans-serif" font-size="11" lengthAdjust="spacingAndGlyphs" textLength="272" x="120" y="223.6479">void initSecureLockTrackSystem(int systemRfid,</text><text fill="#000000" font-family="sans-serif" font-size="11" lengthAdjust="spacingAndGlyphs" textLength="220" x="152" y="236.4526">String persistentStorageInputLocation,</text><text fill="#000000" font-family="sans-serif" font-size="11" lengthAdjust="spacingAndGlyphs" textLength="230" x="152" y="249.2573">String persistentStorageOutputLocation)</text><ellipse cx="111" cy="258.8516" fill="#84BE84" rx="3" ry="3" style="stroke: #038048; stroke-width: 1.0;"/><text fill="#000000" font-family="sans-serif" font-size="11" lengthAdjust="spacingAndGlyphs" textLength="191" x="120" y="262.062">void runUseCases(Scanner input)</text><!--MD5=[3fd616f346a44cd59a91eb10b19e157c]
class User--><rect fill="#FEFECE" filter="url(#f1hwldrh6e105q)" height="86.4141" id="User" style="stroke: #A80036; stroke-width: 1.5;" width="320" x="469" y="121"/><ellipse cx="610.25" cy="137" fill="#ADD1B2" rx="11" ry="11" style="stroke: #A80036; stroke-width: 1.0;"/><path d="M613.2188,142.6406 Q612.6406,142.9375 612,143.0781 Q611.3594,143.2344 610.6563,143.2344 Q608.1563,143.2344 606.8281,141.5938 Q605.5156,139.9375 605.5156,136.8125 Q605.5156,133.6875 606.8281,132.0313 Q608.1563,130.375 610.6563,130.375 Q611.3594,130.375 612,130.5313 Q612.6563,130.6875 613.2188,130.9844 L613.2188,133.7031 Q612.5938,133.125 612,132.8594 Q611.4063,132.5781 610.7813,132.5781 Q609.4375,132.5781 608.75,133.6563 Q608.0625,134.7188 608.0625,136.8125 Q608.0625,138.9063 608.75,139.9844 Q609.4375,141.0469 610.7813,141.0469 Q611.4063,141.0469 612,140.7813 Q612.5938,140.5 613.2188,139.9219 L613.2188,142.6406 Z "/><text fill="#000000" font-family="sans-serif" font-size="12" lengthAdjust="spacingAndGlyphs" textLength="29" x="630.75" y="141.1543">User</text><line style="stroke: #A80036; stroke-width: 1.5;" x1="470" x2="788" y1="153" y2="153"/><rect fill="none" height="6" style="stroke: #C82930; stroke-width: 1.0;" width="6" x="477" y="161"/><text fill="#000000" font-family="sans-serif" font-size="11" lengthAdjust="spacingAndGlyphs" textLength="259" x="489" y="167.2104">DisplayCommInterface displayCommInterface</text><line style="stroke: #A80036; stroke-width: 1.5;" x1="470" x2="788" y1="173.8047" y2="173.8047"/><ellipse cx="480" cy="184.8047" fill="#84BE84" rx="3" ry="3" style="stroke: #038048; stroke-width: 1.0;"/><text fill="#000000" font-family="sans-serif" font-size="11" lengthAdjust="spacingAndGlyphs" textLength="294" x="489" y="188.0151">User(DisplayCommInterface displayCommInterface)</text><ellipse cx="480" cy="197.6094" fill="#84BE84" rx="3" ry="3" style="stroke: #038048; stroke-width: 1.0;"/><text fill="#000000" font-family="sans-serif" font-size="11" lengthAdjust="spacingAndGlyphs" textLength="191" x="489" y="200.8198">void runUseCase1(Scanner input)</text><!--MD5=[d25225d68d5e3bf6aa5fb275933b1e63]
class GpsSystem--><rect fill="#FEFECE" filter="url(#f1hwldrh6e105q)" height="176.0469" id="GpsSystem" style="stroke: #A80036; stroke-width: 1.5;" width="365" x="99.5" y="329"/><ellipse cx="243.25" cy="345" fill="#ADD1B2" rx="11" ry="11" style="stroke: #A80036; stroke-width: 1.0;"/><path d="M246.2188,350.6406 Q245.6406,350.9375 245,351.0781 Q244.3594,351.2344 243.6563,351.2344 Q241.1563,351.2344 239.8281,349.5938 Q238.5156,347.9375 238.5156,344.8125 Q238.5156,341.6875 239.8281,340.0313 Q241.1563,338.375 243.6563,338.375 Q244.3594,338.375 245,338.5313 Q245.6563,338.6875 246.2188,338.9844 L246.2188,341.7031 Q245.5938,341.125 245,340.8594 Q244.4063,340.5781 243.7813,340.5781 Q242.4375,340.5781 241.75,341.6563 Q241.0625,342.7188 241.0625,344.8125 Q241.0625,346.9063 241.75,347.9844 Q242.4375,349.0469 243.7813,349.0469 Q244.4063,349.0469 245,348.7813 Q245.5938,348.5 246.2188,347.9219 L246.2188,350.6406 Z "/><text fill="#000000" font-family="sans-serif" font-size="12" lengthAdjust="spacingAndGlyphs" textLength="69" x="263.75" y="349.1543">GpsSystem</text><line style="stroke: #A80036; stroke-width: 1.5;" x1="100.5" x2="463.5" y1="361" y2="361"/><rect fill="none" height="6" style="stroke: #C82930; stroke-width: 1.0;" width="6" x="107.5" y="369"/><text fill="#000000" font-family="sans-serif" font-size="11" lengthAdjust="spacingAndGlyphs" textLength="231" x="119.5" y="375.2104">DisplayGpsInterface displayGpsInterface</text><rect fill="none" height="6" style="stroke: #C82930; stroke-width: 1.0;" width="6" x="107.5" y="381.8047"/><text fill="#000000" font-family="sans-serif" font-size="11" lengthAdjust="spacingAndGlyphs" textLength="110" x="119.5" y="388.0151">Satellite[] satellites</text><line style="stroke: #A80036; stroke-width: 1.5;" x1="100.5" x2="463.5" y1="394.6094" y2="394.6094"/><ellipse cx="110.5" cy="405.6094" fill="#84BE84" rx="3" ry="3" style="stroke: #038048; stroke-width: 1.0;"/><text fill="#000000" font-family="sans-serif" font-size="11" lengthAdjust="spacingAndGlyphs" textLength="312" x="119.5" y="408.8198">GpsSystems(DisplayGpsInterface displayGpsInterface,</text><text fill="#000000" font-family="sans-serif" font-size="11" lengthAdjust="spacingAndGlyphs" textLength="135" x="151.5" y="421.6245">String[] satelliteNames)</text><ellipse cx="110.5" cy="431.2188" fill="#84BE84" rx="3" ry="3" style="stroke: #038048; stroke-width: 1.0;"/><text fill="#000000" font-family="sans-serif" font-size="11" lengthAdjust="spacingAndGlyphs" textLength="191" x="119.5" y="434.4292">void runUseCase1(Scanner input)</text><ellipse cx="110.5" cy="444.0234" fill="#84BE84" rx="3" ry="3" style="stroke: #038048; stroke-width: 1.0;"/><text fill="#000000" font-family="sans-serif" font-size="11" lengthAdjust="spacingAndGlyphs" textLength="191" x="119.5" y="447.2339">void runUseCase2(Scanner input)</text><ellipse cx="110.5" cy="456.8281" fill="#84BE84" rx="3" ry="3" style="stroke: #038048; stroke-width: 1.0;"/><text fill="#000000" font-family="sans-serif" font-size="11" lengthAdjust="spacingAndGlyphs" textLength="268" x="119.5" y="460.0386">void configureSatellites(String[] satelliteNames</text><text fill="#000000" font-family="sans-serif" font-size="11" lengthAdjust="spacingAndGlyphs" textLength="307" x="151.5" y="472.8433">float incrementLatAmount, float incrementLngAmount,</text><text fill="#000000" font-family="sans-serif" font-size="11" lengthAdjust="spacingAndGlyphs" textLength="227" x="151.5" y="485.6479">LocationDataPoint initLocationDataPoint)</text><rect fill="#F24D5C" height="6" style="stroke: #C82930; stroke-width: 1.0;" width="6" x="107.5" y="492.2422"/><text fill="#000000" font-family="sans-serif" font-size="11" lengthAdjust="spacingAndGlyphs" textLength="272" x="119.5" y="498.4526">void configureSatellites(String[] satelliteNames)</text><!--MD5=[662c4b2ee5af84317aa79778ac14b760]
class DemoTests--><rect fill="#FEFECE" filter="url(#f1hwldrh6e105q)" height="48" id="DemoTests" style="stroke: #A80036; stroke-width: 1.5;" width="102" x="845" y="140"/><ellipse cx="860" cy="156" fill="#ADD1B2" rx="11" ry="11" style="stroke: #A80036; stroke-width: 1.0;"/><path d="M862.9688,161.6406 Q862.3906,161.9375 861.75,162.0781 Q861.1094,162.2344 860.4063,162.2344 Q857.9063,162.2344 856.5781,160.5938 Q855.2656,158.9375 855.2656,155.8125 Q855.2656,152.6875 856.5781,151.0313 Q857.9063,149.375 860.4063,149.375 Q861.1094,149.375 861.75,149.5313 Q862.4063,149.6875 862.9688,149.9844 L862.9688,152.7031 Q862.3438,152.125 861.75,151.8594 Q861.1563,151.5781 860.5313,151.5781 Q859.1875,151.5781 858.5,152.6563 Q857.8125,153.7188 857.8125,155.8125 Q857.8125,157.9063 858.5,158.9844 Q859.1875,160.0469 860.5313,160.0469 Q861.1563,160.0469 861.75,159.7813 Q862.3438,159.5 862.9688,158.9219 L862.9688,161.6406 Z "/><text fill="#000000" font-family="sans-serif" font-size="12" lengthAdjust="spacingAndGlyphs" textLength="70" x="874" y="160.1543">DemoTests</text><line style="stroke: #A80036; stroke-width: 1.5;" x1="846" x2="946" y1="172" y2="172"/><line style="stroke: #A80036; stroke-width: 1.5;" x1="846" x2="946" y1="180" y2="180"/><!--MD5=[3ebf7b5faf275b15b1fd90e11b759983]
class GpsSystemTests--><rect fill="#FEFECE" filter="url(#f1hwldrh6e105q)" height="48" id="GpsSystemTests" style="stroke: #A80036; stroke-width: 1.5;" width="135" x="982.5" y="140"/><ellipse cx="997.5" cy="156" fill="#ADD1B2" rx="11" ry="11" style="stroke: #A80036; stroke-width: 1.0;"/><path d="M1000.4688,161.6406 Q999.8906,161.9375 999.25,162.0781 Q998.6094,162.2344 997.9063,162.2344 Q995.4063,162.2344 994.0781,160.5938 Q992.7656,158.9375 992.7656,155.8125 Q992.7656,152.6875 994.0781,151.0313 Q995.4063,149.375 997.9063,149.375 Q998.6094,149.375 999.25,149.5313 Q999.9063,149.6875 1000.4688,149.9844 L1000.4688,152.7031 Q999.8438,152.125 999.25,151.8594 Q998.6563,151.5781 998.0313,151.5781 Q996.6875,151.5781 996,152.6563 Q995.3125,153.7188 995.3125,155.8125 Q995.3125,157.9063 996,158.9844 Q996.6875,160.0469 998.0313,160.0469 Q998.6563,160.0469 999.25,159.7813 Q999.8438,159.5 1000.4688,158.9219 L1000.4688,161.6406 Z "/><text fill="#000000" font-family="sans-serif" font-size="12" lengthAdjust="spacingAndGlyphs" textLength="103" x="1011.5" y="160.1543">GpsSystemTests</text><line style="stroke: #A80036; stroke-width: 1.5;" x1="983.5" x2="1116.5" y1="172" y2="172"/><line style="stroke: #A80036; stroke-width: 1.5;" x1="983.5" x2="1116.5" y1="180" y2="180"/><!--MD5=[a3882c9454aefdd9ca25dec9d839ca8a]
class UserTests--><rect fill="#FEFECE" filter="url(#f1hwldrh6e105q)" height="48" id="UserTests" style="stroke: #A80036; stroke-width: 1.5;" width="95" x="1152.5" y="140"/><ellipse cx="1167.5" cy="156" fill="#ADD1B2" rx="11" ry="11" style="stroke: #A80036; stroke-width: 1.0;"/><path d="M1170.4688,161.6406 Q1169.8906,161.9375 1169.25,162.0781 Q1168.6094,162.2344 1167.9063,162.2344 Q1165.4063,162.2344 1164.0781,160.5938 Q1162.7656,158.9375 1162.7656,155.8125 Q1162.7656,152.6875 1164.0781,151.0313 Q1165.4063,149.375 1167.9063,149.375 Q1168.6094,149.375 1169.25,149.5313 Q1169.9063,149.6875 1170.4688,149.9844 L1170.4688,152.7031 Q1169.8438,152.125 1169.25,151.8594 Q1168.6563,151.5781 1168.0313,151.5781 Q1166.6875,151.5781 1166,152.6563 Q1165.3125,153.7188 1165.3125,155.8125 Q1165.3125,157.9063 1166,158.9844 Q1166.6875,160.0469 1168.0313,160.0469 Q1168.6563,160.0469 1169.25,159.7813 Q1169.8438,159.5 1170.4688,158.9219 L1170.4688,161.6406 Z "/><text fill="#000000" font-family="sans-serif" font-size="12" lengthAdjust="spacingAndGlyphs" textLength="63" x="1181.5" y="160.1543">UserTests</text><line style="stroke: #A80036; stroke-width: 1.5;" x1="1153.5" x2="1246.5" y1="172" y2="172"/><line style="stroke: #A80036; stroke-width: 1.5;" x1="1153.5" x2="1246.5" y1="180" y2="180"/><!--MD5=[a2f58c14a148df0ea98af95823818f27]
class LocationDataPointTests--><rect fill="#FEFECE" filter="url(#f1hwldrh6e105q)" height="48" id="LocationDataPointTests" style="stroke: #A80036; stroke-width: 1.5;" width="181" x="866.5" y="393"/><ellipse cx="881.5" cy="409" fill="#ADD1B2" rx="11" ry="11" style="stroke: #A80036; stroke-width: 1.0;"/><path d="M884.4688,414.6406 Q883.8906,414.9375 883.25,415.0781 Q882.6094,415.2344 881.9063,415.2344 Q879.4063,415.2344 878.0781,413.5938 Q876.7656,411.9375 876.7656,408.8125 Q876.7656,405.6875 878.0781,404.0313 Q879.4063,402.375 881.9063,402.375 Q882.6094,402.375 883.25,402.5313 Q883.9063,402.6875 884.4688,402.9844 L884.4688,405.7031 Q883.8438,405.125 883.25,404.8594 Q882.6563,404.5781 882.0313,404.5781 Q880.6875,404.5781 880,405.6563 Q879.3125,406.7188 879.3125,408.8125 Q879.3125,410.9063 880,411.9844 Q880.6875,413.0469 882.0313,413.0469 Q882.6563,413.0469 883.25,412.7813 Q883.8438,412.5 884.4688,411.9219 L884.4688,414.6406 Z "/><text fill="#000000" font-family="sans-serif" font-size="12" lengthAdjust="spacingAndGlyphs" textLength="149" x="895.5" y="413.1543">LocationDataPointTests</text><line style="stroke: #A80036; stroke-width: 1.5;" x1="867.5" x2="1046.5" y1="425" y2="425"/><line style="stroke: #A80036; stroke-width: 1.5;" x1="867.5" x2="1046.5" y1="433" y2="433"/><!--MD5=[2eae672171c1babeb83642fe5a70038e]
class SatelliteTests--><rect fill="#FEFECE" filter="url(#f1hwldrh6e105q)" height="48" id="SatelliteTests" style="stroke: #A80036; stroke-width: 1.5;" width="117" x="1082.5" y="393"/><ellipse cx="1097.5" cy="409" fill="#ADD1B2" rx="11" ry="11" style="stroke: #A80036; stroke-width: 1.0;"/><path d="M1100.4688,414.6406 Q1099.8906,414.9375 1099.25,415.0781 Q1098.6094,415.2344 1097.9063,415.2344 Q1095.4063,415.2344 1094.0781,413.5938 Q1092.7656,411.9375 1092.7656,408.8125 Q1092.7656,405.6875 1094.0781,404.0313 Q1095.4063,402.375 1097.9063,402.375 Q1098.6094,402.375 1099.25,402.5313 Q1099.9063,402.6875 1100.4688,402.9844 L1100.4688,405.7031 Q1099.8438,405.125 1099.25,404.8594 Q1098.6563,404.5781 1098.0313,404.5781 Q1096.6875,404.5781 1096,405.6563 Q1095.3125,406.7188 1095.3125,408.8125 Q1095.3125,410.9063 1096,411.9844 Q1096.6875,413.0469 1098.0313,413.0469 Q1098.6563,413.0469 1099.25,412.7813 Q1099.8438,412.5 1100.4688,411.9219 L1100.4688,414.6406 Z "/><text fill="#000000" font-family="sans-serif" font-size="12" lengthAdjust="spacingAndGlyphs" textLength="85" x="1111.5" y="413.1543">SatelliteTests</text><line style="stroke: #A80036; stroke-width: 1.5;" x1="1083.5" x2="1198.5" y1="425" y2="425"/><line style="stroke: #A80036; stroke-width: 1.5;" x1="1083.5" x2="1198.5" y1="433" y2="433"/><!--MD5=[b385454a3ff1144a4f446b35725aeb9e]
class TrackDataTests--><rect fill="#FEFECE" filter="url(#f1hwldrh6e105q)" height="48" id="TrackDataTests" style="stroke: #A80036; stroke-width: 1.5;" width="130" x="1235" y="393"/><ellipse cx="1250" cy="409" fill="#ADD1B2" rx="11" ry="11" style="stroke: #A80036; stroke-width: 1.0;"/><path d="M1252.9688,414.6406 Q1252.3906,414.9375 1251.75,415.0781 Q1251.1094,415.2344 1250.4063,415.2344 Q1247.9063,415.2344 1246.5781,413.5938 Q1245.2656,411.9375 1245.2656,408.8125 Q1245.2656,405.6875 1246.5781,404.0313 Q1247.9063,402.375 1250.4063,402.375 Q1251.1094,402.375 1251.75,402.5313 Q1252.4063,402.6875 1252.9688,402.9844 L1252.9688,405.7031 Q1252.3438,405.125 1251.75,404.8594 Q1251.1563,404.5781 1250.5313,404.5781 Q1249.1875,404.5781 1248.5,405.6563 Q1247.8125,406.7188 1247.8125,408.8125 Q1247.8125,410.9063 1248.5,411.9844 Q1249.1875,413.0469 1250.5313,413.0469 Q1251.1563,413.0469 1251.75,412.7813 Q1252.3438,412.5 1252.9688,411.9219 L1252.9688,414.6406 Z "/><text fill="#000000" font-family="sans-serif" font-size="12" lengthAdjust="spacingAndGlyphs" textLength="98" x="1264" y="413.1543">TrackDataTests</text><line style="stroke: #A80036; stroke-width: 1.5;" x1="1236" x2="1364" y1="425" y2="425"/><line style="stroke: #A80036; stroke-width: 1.5;" x1="1236" x2="1364" y1="433" y2="433"/><!--MD5=[51e45a4cba7a88c8486ae0ba512ad549]
class DisplayCommInterfaceStub--><rect fill="#FEFECE" filter="url(#f1hwldrh6e105q)" height="107.2188" id="DisplayCommInterfaceStub" style="stroke: #A80036; stroke-width: 1.5;" width="266" x="845" y="659.5"/><ellipse cx="890.25" cy="675.5" fill="#ADD1B2" rx="11" ry="11" style="stroke: #A80036; stroke-width: 1.0;"/><path d="M893.2188,681.1406 Q892.6406,681.4375 892,681.5781 Q891.3594,681.7344 890.6563,681.7344 Q888.1563,681.7344 886.8281,680.0938 Q885.5156,678.4375 885.5156,675.3125 Q885.5156,672.1875 886.8281,670.5313 Q888.1563,668.875 890.6563,668.875 Q891.3594,668.875 892,669.0313 Q892.6563,669.1875 893.2188,669.4844 L893.2188,672.2031 Q892.5938,671.625 892,671.3594 Q891.4063,671.0781 890.7813,671.0781 Q889.4375,671.0781 888.75,672.1563 Q888.0625,673.2188 888.0625,675.3125 Q888.0625,677.4063 888.75,678.4844 Q889.4375,679.5469 890.7813,679.5469 Q891.4063,679.5469 892,679.2813 Q892.5938,679 893.2188,678.4219 L893.2188,681.1406 Z "/><text fill="#000000" font-family="sans-serif" font-size="12" lengthAdjust="spacingAndGlyphs" textLength="167" x="910.75" y="679.6543">DisplayCommInterfaceStub</text><line style="stroke: #A80036; stroke-width: 1.5;" x1="846" x2="1110" y1="691.5" y2="691.5"/><line style="stroke: #A80036; stroke-width: 1.5;" x1="846" x2="1110" y1="699.5" y2="699.5"/><ellipse cx="856" cy="727.3047" fill="#84BE84" rx="3" ry="3" style="stroke: #038048; stroke-width: 1.0;"/><text fill="#000000" font-family="sans-serif" font-size="11" lengthAdjust="spacingAndGlyphs" textLength="240" x="865" y="730.5151">TrackData receiveRfidRequest(int rfidNum)</text><line style="stroke: #A80036; stroke-width: 1.0; stroke-dasharray: 1.0,2.0;" x1="846" x2="945" y1="713.9023" y2="713.9023"/><text fill="#000000" font-family="sans-serif" font-size="11" lengthAdjust="spacingAndGlyphs" textLength="66" x="945" y="717.2104">Use Case 1</text><line style="stroke: #A80036; stroke-width: 1.0; stroke-dasharray: 1.0,2.0;" x1="1011" x2="1110" y1="713.9023" y2="713.9023"/><text fill="#000000" font-family="sans-serif" font-size="11" lengthAdjust="spacingAndGlyphs" textLength="0" x="855" y="760.1245"/><line style="stroke: #A80036; stroke-width: 1.0; stroke-dasharray: 1.0,2.0;" x1="846" x2="945" y1="743.5117" y2="743.5117"/><text fill="#000000" font-family="sans-serif" font-size="11" lengthAdjust="spacingAndGlyphs" textLength="66" x="945" y="746.8198">Use Case 2</text><line style="stroke: #A80036; stroke-width: 1.0; stroke-dasharray: 1.0,2.0;" x1="1011" x2="1110" y1="743.5117" y2="743.5117"/><!--MD5=[157add87c4645f5d1ba13fc88f5c77ea]
class DisplayGpsInterfaceStub--><rect fill="#FEFECE" filter="url(#f1hwldrh6e105q)" height="132.8281" id="DisplayGpsInterfaceStub" style="stroke: #A80036; stroke-width: 1.5;" width="300" x="1146" y="646.5"/><ellipse cx="1215.25" cy="662.5" fill="#ADD1B2" rx="11" ry="11" style="stroke: #A80036; stroke-width: 1.0;"/><path d="M1218.2188,668.1406 Q1217.6406,668.4375 1217,668.5781 Q1216.3594,668.7344 1215.6563,668.7344 Q1213.1563,668.7344 1211.8281,667.0938 Q1210.5156,665.4375 1210.5156,662.3125 Q1210.5156,659.1875 1211.8281,657.5313 Q1213.1563,655.875 1215.6563,655.875 Q1216.3594,655.875 1217,656.0313 Q1217.6563,656.1875 1218.2188,656.4844 L1218.2188,659.2031 Q1217.5938,658.625 1217,658.3594 Q1216.4063,658.0781 1215.7813,658.0781 Q1214.4375,658.0781 1213.75,659.1563 Q1213.0625,660.2188 1213.0625,662.3125 Q1213.0625,664.4063 1213.75,665.4844 Q1214.4375,666.5469 1215.7813,666.5469 Q1216.4063,666.5469 1217,666.2813 Q1217.5938,666 1218.2188,665.4219 L1218.2188,668.1406 Z "/><text fill="#000000" font-family="sans-serif" font-size="12" lengthAdjust="spacingAndGlyphs" textLength="153" x="1235.75" y="666.6543">DisplayGpsInterfaceStub</text><line style="stroke: #A80036; stroke-width: 1.5;" x1="1147" x2="1445" y1="678.5" y2="678.5"/><line style="stroke: #A80036; stroke-width: 1.5;" x1="1147" x2="1445" y1="686.5" y2="686.5"/><ellipse cx="1157" cy="714.3047" fill="#84BE84" rx="3" ry="3" style="stroke: #038048; stroke-width: 1.0;"/><text fill="#000000" font-family="sans-serif" font-size="11" lengthAdjust="spacingAndGlyphs" textLength="264" x="1166" y="717.5151">void receiveGpsSignal(Satellite satelliteSignal)</text><line style="stroke: #A80036; stroke-width: 1.0; stroke-dasharray: 1.0,2.0;" x1="1147" x2="1263" y1="700.9023" y2="700.9023"/><text fill="#000000" font-family="sans-serif" font-size="11" lengthAdjust="spacingAndGlyphs" textLength="66" x="1263" y="704.2104">Use Case 1</text><line style="stroke: #A80036; stroke-width: 1.0; stroke-dasharray: 1.0,2.0;" x1="1329" x2="1445" y1="700.9023" y2="700.9023"/><ellipse cx="1157" cy="743.9141" fill="#84BE84" rx="3" ry="3" style="stroke: #038048; stroke-width: 1.0;"/><text fill="#000000" font-family="sans-serif" font-size="11" lengthAdjust="spacingAndGlyphs" textLength="271" x="1166" y="747.1245">void reportGpsSignalLoss(String satelliteName)</text><ellipse cx="1157" cy="756.7188" fill="#84BE84" rx="3" ry="3" style="stroke: #038048; stroke-width: 1.0;"/><text fill="#000000" font-family="sans-serif" font-size="11" lengthAdjust="spacingAndGlyphs" textLength="274" x="1166" y="759.9292">void recheckSignalStength(String satelliteName)</text><ellipse cx="1157" cy="769.5234" fill="#84BE84" rx="3" ry="3" style="stroke: #038048; stroke-width: 1.0;"/><text fill="#000000" font-family="sans-serif" font-size="11" lengthAdjust="spacingAndGlyphs" textLength="262" x="1166" y="772.7339">void checkSignalStength(String satelliteName)</text><line style="stroke: #A80036; stroke-width: 1.0; stroke-dasharray: 1.0,2.0;" x1="1147" x2="1263" y1="730.5117" y2="730.5117"/><text fill="#000000" font-family="sans-serif" font-size="11" lengthAdjust="spacingAndGlyphs" textLength="66" x="1263" y="733.8198">Use Case 2</text><line style="stroke: #A80036; stroke-width: 1.0; stroke-dasharray: 1.0,2.0;" x1="1329" x2="1445" y1="730.5117" y2="730.5117"/><!--MD5=[478f5cd13d8e163685b267303d2bfb71]
class LocationDataPoint--><rect fill="#FEFECE" filter="url(#f1hwldrh6e105q)" height="176.0469" id="LocationDataPoint" style="stroke: #A80036; stroke-width: 1.5;" width="352" x="38" y="625"/><ellipse cx="152.25" cy="641" fill="#ADD1B2" rx="11" ry="11" style="stroke: #A80036; stroke-width: 1.0;"/><path d="M155.2188,646.6406 Q154.6406,646.9375 154,647.0781 Q153.3594,647.2344 152.6563,647.2344 Q150.1563,647.2344 148.8281,645.5938 Q147.5156,643.9375 147.5156,640.8125 Q147.5156,637.6875 148.8281,636.0313 Q150.1563,634.375 152.6563,634.375 Q153.3594,634.375 154,634.5313 Q154.6563,634.6875 155.2188,634.9844 L155.2188,637.7031 Q154.5938,637.125 154,636.8594 Q153.4063,636.5781 152.7813,636.5781 Q151.4375,636.5781 150.75,637.6563 Q150.0625,638.7188 150.0625,640.8125 Q150.0625,642.9063 150.75,643.9844 Q151.4375,645.0469 152.7813,645.0469 Q153.4063,645.0469 154,644.7813 Q154.5938,644.5 155.2188,643.9219 L155.2188,646.6406 Z "/><text fill="#000000" font-family="sans-serif" font-size="12" lengthAdjust="spacingAndGlyphs" textLength="115" x="172.75" y="645.1543">LocationDataPoint</text><line style="stroke: #A80036; stroke-width: 1.5;" x1="39" x2="389" y1="657" y2="657"/><rect fill="none" height="6" style="stroke: #C82930; stroke-width: 1.0;" width="6" x="46" y="665"/><text fill="#000000" font-family="sans-serif" font-size="11" lengthAdjust="spacingAndGlyphs" textLength="43" x="58" y="671.2104">float lat</text><rect fill="none" height="6" style="stroke: #C82930; stroke-width: 1.0;" width="6" x="46" y="677.8047"/><text fill="#000000" font-family="sans-serif" font-size="11" lengthAdjust="spacingAndGlyphs" textLength="46" x="58" y="684.0151">float lng</text><rect fill="none" height="6" style="stroke: #C82930; stroke-width: 1.0;" width="6" x="46" y="690.6094"/><text fill="#000000" font-family="sans-serif" font-size="11" lengthAdjust="spacingAndGlyphs" textLength="112" x="58" y="696.8198">LocalDateTime time</text><line style="stroke: #A80036; stroke-width: 1.5;" x1="39" x2="389" y1="703.4141" y2="703.4141"/><ellipse cx="49" cy="714.4141" fill="#84BE84" rx="3" ry="3" style="stroke: #038048; stroke-width: 1.0;"/><text fill="#000000" font-family="sans-serif" font-size="11" lengthAdjust="spacingAndGlyphs" textLength="326" x="58" y="717.6245">LocationDataPoint(float lat, float lng, LocalDateTime time)</text><ellipse cx="49" cy="727.2188" fill="#84BE84" rx="3" ry="3" style="stroke: #038048; stroke-width: 1.0;"/><text fill="#000000" font-family="sans-serif" font-size="11" lengthAdjust="spacingAndGlyphs" textLength="72" x="58" y="730.4292">float getLat()</text><ellipse cx="49" cy="740.0234" fill="#84BE84" rx="3" ry="3" style="stroke: #038048; stroke-width: 1.0;"/><text fill="#000000" font-family="sans-serif" font-size="11" lengthAdjust="spacingAndGlyphs" textLength="75" x="58" y="743.2339">float getLng()</text><ellipse cx="49" cy="752.8281" fill="#84BE84" rx="3" ry="3" style="stroke: #038048; stroke-width: 1.0;"/><text fill="#000000" font-family="sans-serif" font-size="11" lengthAdjust="spacingAndGlyphs" textLength="141" x="58" y="756.0386">LocalDateTime getTime()</text><rect fill="#F24D5C" height="6" style="stroke: #C82930; stroke-width: 1.0;" width="6" x="46" y="762.6328"/><text fill="#000000" font-family="sans-serif" font-size="11" lengthAdjust="spacingAndGlyphs" textLength="172" x="58" y="768.8433">boolean normalizeLat(float lat)</text><rect fill="#F24D5C" height="6" style="stroke: #C82930; stroke-width: 1.0;" width="6" x="46" y="775.4375"/><text fill="#000000" font-family="sans-serif" font-size="11" lengthAdjust="spacingAndGlyphs" textLength="175" x="58" y="781.6479">boolean normalizeLng(float lat)</text><rect fill="#F24D5C" height="6" style="stroke: #C82930; stroke-width: 1.0;" width="6" x="46" y="788.2422"/><text fill="#000000" font-family="sans-serif" font-size="11" lengthAdjust="spacingAndGlyphs" textLength="231" x="58" y="794.4526">boolean timeIsValid(LocalDateTime time)</text><!--MD5=[39a9b949d1787538902e1dfaac894da1]
class Satellite--><rect fill="#FEFECE" filter="url(#f1hwldrh6e105q)" height="265.6797" id="Satellite" style="stroke: #A80036; stroke-width: 1.5;" width="365" x="424.5" y="580"/><ellipse cx="577.25" cy="596" fill="#ADD1B2" rx="11" ry="11" style="stroke: #A80036; stroke-width: 1.0;"/><path d="M580.2188,601.6406 Q579.6406,601.9375 579,602.0781 Q578.3594,602.2344 577.6563,602.2344 Q575.1563,602.2344 573.8281,600.5938 Q572.5156,598.9375 572.5156,595.8125 Q572.5156,592.6875 573.8281,591.0313 Q575.1563,589.375 577.6563,589.375 Q578.3594,589.375 579,589.5313 Q579.6563,589.6875 580.2188,589.9844 L580.2188,592.7031 Q579.5938,592.125 579,591.8594 Q578.4063,591.5781 577.7813,591.5781 Q576.4375,591.5781 575.75,592.6563 Q575.0625,593.7188 575.0625,595.8125 Q575.0625,597.9063 575.75,598.9844 Q576.4375,600.0469 577.7813,600.0469 Q578.4063,600.0469 579,599.7813 Q579.5938,599.5 580.2188,598.9219 L580.2188,601.6406 Z "/><text fill="#000000" font-family="sans-serif" font-size="12" lengthAdjust="spacingAndGlyphs" textLength="51" x="597.75" y="600.1543">Satellite</text><line style="stroke: #A80036; stroke-width: 1.5;" x1="425.5" x2="788.5" y1="612" y2="612"/><rect fill="none" height="6" style="stroke: #C82930; stroke-width: 1.0;" width="6" x="432.5" y="620"/><text fill="#000000" font-family="sans-serif" font-size="11" lengthAdjust="spacingAndGlyphs" textLength="116" x="444.5" y="626.2104">String satelliteName</text><rect fill="none" height="6" style="stroke: #C82930; stroke-width: 1.0;" width="6" x="432.5" y="632.8047"/><text fill="#000000" font-family="sans-serif" font-size="11" lengthAdjust="spacingAndGlyphs" textLength="66" x="444.5" y="639.0151">int strength</text><rect fill="none" height="6" style="stroke: #C82930; stroke-width: 1.0;" width="6" x="432.5" y="645.6094"/><text fill="#000000" font-family="sans-serif" font-size="11" lengthAdjust="spacingAndGlyphs" textLength="146" x="444.5" y="651.8198">float incrementLatAmount</text><rect fill="none" height="6" style="stroke: #C82930; stroke-width: 1.0;" width="6" x="432.5" y="658.4141"/><text fill="#000000" font-family="sans-serif" font-size="11" lengthAdjust="spacingAndGlyphs" textLength="149" x="444.5" y="664.6245">float incrementLngAmount</text><rect fill="none" height="6" style="stroke: #C82930; stroke-width: 1.0;" width="6" x="432.5" y="671.2188"/><text fill="#000000" font-family="sans-serif" font-size="11" lengthAdjust="spacingAndGlyphs" textLength="223" x="444.5" y="677.4292">LocationDataPoint initLocationDataPoint</text><rect fill="none" height="6" style="stroke: #C82930; stroke-width: 1.0;" width="6" x="432.5" y="684.0234"/><text fill="#000000" font-family="sans-serif" font-size="11" lengthAdjust="spacingAndGlyphs" text-decoration="underline" textLength="144" x="444.5" y="690.2339">int countGetLocationCalls</text><line style="stroke: #A80036; stroke-width: 1.5;" x1="425.5" x2="788.5" y1="696.8281" y2="696.8281"/><ellipse cx="435.5" cy="707.8281" fill="#84BE84" rx="3" ry="3" style="stroke: #038048; stroke-width: 1.0;"/><text fill="#000000" font-family="sans-serif" font-size="11" lengthAdjust="spacingAndGlyphs" textLength="244" x="444.5" y="711.0386">Satellite(String satelliteName, int strength,</text><text fill="#000000" font-family="sans-serif" font-size="11" lengthAdjust="spacingAndGlyphs" textLength="307" x="476.5" y="723.8433">float incrementLatAmount, float incrementLngAmount,</text><text fill="#000000" font-family="sans-serif" font-size="11" lengthAdjust="spacingAndGlyphs" textLength="227" x="476.5" y="736.6479">LocationDataPoint initLocationDataPoint)</text><ellipse cx="435.5" cy="746.2422" fill="#84BE84" rx="3" ry="3" style="stroke: #038048; stroke-width: 1.0;"/><text fill="#000000" font-family="sans-serif" font-size="11" lengthAdjust="spacingAndGlyphs" textLength="143" x="444.5" y="749.4526">String getSatelliteName()</text><ellipse cx="435.5" cy="759.0469" fill="#84BE84" rx="3" ry="3" style="stroke: #038048; stroke-width: 1.0;"/><text fill="#000000" font-family="sans-serif" font-size="11" lengthAdjust="spacingAndGlyphs" textLength="93" x="444.5" y="762.2573">int getStrength()</text><ellipse cx="435.5" cy="771.8516" fill="#84BE84" rx="3" ry="3" style="stroke: #038048; stroke-width: 1.0;"/><text fill="#000000" font-family="sans-serif" font-size="11" lengthAdjust="spacingAndGlyphs" textLength="178" x="444.5" y="775.062">LocationDataPoint getLocation()</text><ellipse cx="435.5" cy="784.6563" fill="#84BE84" rx="3" ry="3" style="stroke: #038048; stroke-width: 1.0;"/><text fill="#000000" font-family="sans-serif" font-size="11" lengthAdjust="spacingAndGlyphs" textLength="168" x="444.5" y="787.8667">void setStrength(int strength)</text><rect fill="#F24D5C" height="6" style="stroke: #C82930; stroke-width: 1.0;" width="6" x="432.5" y="794.4609"/><text fill="#000000" font-family="sans-serif" font-size="11" lengthAdjust="spacingAndGlyphs" textLength="208" x="444.5" y="800.6714">boolean strengthIsValid(int strength)</text><rect fill="#F24D5C" height="6" style="stroke: #C82930; stroke-width: 1.0;" width="6" x="432.5" y="807.2656"/><text fill="#000000" font-family="sans-serif" font-size="11" lengthAdjust="spacingAndGlyphs" textLength="230" x="444.5" y="813.4761">float generateNewLocationDataPointLat()</text><rect fill="#F24D5C" height="6" style="stroke: #C82930; stroke-width: 1.0;" width="6" x="432.5" y="820.0703"/><text fill="#000000" font-family="sans-serif" font-size="11" lengthAdjust="spacingAndGlyphs" textLength="233" x="444.5" y="826.2808">float generateNewLocationDataPointLng()</text><rect fill="#F24D5C" height="6" style="stroke: #C82930; stroke-width: 1.0;" width="6" x="432.5" y="832.875"/><text fill="#000000" font-family="sans-serif" font-size="11" lengthAdjust="spacingAndGlyphs" textLength="233" x="444.5" y="839.0854">float generateNewLocationDataPointLng()</text><!--MD5=[a664fa1bf59865fa43f25e28dac38862]
class TrackData--><rect fill="#FEFECE" filter="url(#f1hwldrh6e105q)" height="240.0703" id="TrackData" style="stroke: #A80036; stroke-width: 1.5;" width="437" x="37.5" y="906"/><ellipse cx="219.75" cy="922" fill="#ADD1B2" rx="11" ry="11" style="stroke: #A80036; stroke-width: 1.0;"/><path d="M222.7188,927.6406 Q222.1406,927.9375 221.5,928.0781 Q220.8594,928.2344 220.1563,928.2344 Q217.6563,928.2344 216.3281,926.5938 Q215.0156,924.9375 215.0156,921.8125 Q215.0156,918.6875 216.3281,917.0313 Q217.6563,915.375 220.1563,915.375 Q220.8594,915.375 221.5,915.5313 Q222.1563,915.6875 222.7188,915.9844 L222.7188,918.7031 Q222.0938,918.125 221.5,917.8594 Q220.9063,917.5781 220.2813,917.5781 Q218.9375,917.5781 218.25,918.6563 Q217.5625,919.7188 217.5625,921.8125 Q217.5625,923.9063 218.25,924.9844 Q218.9375,926.0469 220.2813,926.0469 Q220.9063,926.0469 221.5,925.7813 Q222.0938,925.5 222.7188,924.9219 L222.7188,927.6406 Z "/><text fill="#000000" font-family="sans-serif" font-size="12" lengthAdjust="spacingAndGlyphs" textLength="64" x="240.25" y="926.1543">TrackData</text><line style="stroke: #A80036; stroke-width: 1.5;" x1="38.5" x2="473.5" y1="938" y2="938"/><rect fill="none" height="6" style="stroke: #C82930; stroke-width: 1.0;" width="6" x="45.5" y="946"/><text fill="#000000" font-family="sans-serif" font-size="11" lengthAdjust="spacingAndGlyphs" textLength="101" x="57.5" y="952.2104">boolean validData</text><rect fill="none" height="6" style="stroke: #C82930; stroke-width: 1.0;" width="6" x="45.5" y="958.8047"/><text fill="#000000" font-family="sans-serif" font-size="11" lengthAdjust="spacingAndGlyphs" textLength="118" x="57.5" y="965.0151">float courseDirection</text><rect fill="none" height="6" style="stroke: #C82930; stroke-width: 1.0;" width="6" x="45.5" y="971.6094"/><text fill="#000000" font-family="sans-serif" font-size="11" lengthAdjust="spacingAndGlyphs" textLength="64" x="57.5" y="977.8198">float speed</text><rect fill="none" height="6" style="stroke: #C82930; stroke-width: 1.0;" width="6" x="45.5" y="984.4141"/><text fill="#000000" font-family="sans-serif" font-size="11" lengthAdjust="spacingAndGlyphs" textLength="148" x="57.5" y="990.6245">LocationDataPoint[] points</text><rect fill="none" height="6" style="stroke: #C82930; stroke-width: 1.0;" width="6" x="45.5" y="997.2188"/><text fill="#000000" font-family="sans-serif" font-size="11" lengthAdjust="spacingAndGlyphs" textLength="125" x="57.5" y="1003.4292">String statusMessage</text><line style="stroke: #A80036; stroke-width: 1.5;" x1="38.5" x2="473.5" y1="1010.0234" y2="1010.0234"/><ellipse cx="48.5" cy="1021.0234" fill="#84BE84" rx="3" ry="3" style="stroke: #038048; stroke-width: 1.0;"/><text fill="#000000" font-family="sans-serif" font-size="11" lengthAdjust="spacingAndGlyphs" textLength="213" x="57.5" y="1024.2339">TrackData(LocationDataPoint[] points)</text><ellipse cx="48.5" cy="1033.8281" fill="#84BE84" rx="3" ry="3" style="stroke: #038048; stroke-width: 1.0;"/><text fill="#000000" font-family="sans-serif" font-size="11" lengthAdjust="spacingAndGlyphs" textLength="411" x="57.5" y="1037.0386">TrackData(LocationDataPoint[] points, float courseDirection, float speed)</text><ellipse cx="48.5" cy="1046.6328" fill="#84BE84" rx="3" ry="3" style="stroke: #038048; stroke-width: 1.0;"/><text fill="#000000" font-family="sans-serif" font-size="11" lengthAdjust="spacingAndGlyphs" textLength="151" x="57.5" y="1049.8433">boolean isValidTrackData()</text><ellipse cx="48.5" cy="1059.4375" fill="#84BE84" rx="3" ry="3" style="stroke: #038048; stroke-width: 1.0;"/><text fill="#000000" font-family="sans-serif" font-size="11" lengthAdjust="spacingAndGlyphs" textLength="146" x="57.5" y="1062.6479">float getCourseDirection()</text><ellipse cx="48.5" cy="1072.2422" fill="#84BE84" rx="3" ry="3" style="stroke: #038048; stroke-width: 1.0;"/><text fill="#000000" font-family="sans-serif" font-size="11" lengthAdjust="spacingAndGlyphs" textLength="91" x="57.5" y="1075.4526">float getSpeed()</text><ellipse cx="48.5" cy="1085.0469" fill="#84BE84" rx="3" ry="3" style="stroke: #038048; stroke-width: 1.0;"/><text fill="#000000" font-family="sans-serif" font-size="11" lengthAdjust="spacingAndGlyphs" textLength="247" x="57.5" y="1088.2573">LocationDataPoint[] getLocationDataPoints()</text><ellipse cx="48.5" cy="1097.8516" fill="#84BE84" rx="3" ry="3" style="stroke: #038048; stroke-width: 1.0;"/><text fill="#000000" font-family="sans-serif" font-size="11" lengthAdjust="spacingAndGlyphs" textLength="152" x="57.5" y="1101.062">String getStatusMessage()</text><ellipse cx="48.5" cy="1110.6563" fill="#84BE84" rx="3" ry="3" style="stroke: #038048; stroke-width: 1.0;"/><text fill="#000000" font-family="sans-serif" font-size="11" lengthAdjust="spacingAndGlyphs" textLength="266" x="57.5" y="1113.8667">void setStatusMessage(String statusMessage)</text><rect fill="#F24D5C" height="6" style="stroke: #C82930; stroke-width: 1.0;" width="6" x="45.5" y="1120.4609"/><text fill="#000000" font-family="sans-serif" font-size="11" lengthAdjust="spacingAndGlyphs" textLength="193" x="57.5" y="1126.6714">boolean speedIsValid(float speed)</text><rect fill="#F24D5C" height="6" style="stroke: #C82930; stroke-width: 1.0;" width="6" x="45.5" y="1133.2656"/><text fill="#000000" font-family="sans-serif" font-size="11" lengthAdjust="spacingAndGlyphs" textLength="301" x="57.5" y="1139.4761">boolean courseDirectionIsValid(float courseDirection)</text><!--MD5=[aaa328c6dd499efd34e9a6e207358862]
link Demo to User--><!--MD5=[b23464e9e5dae3eb9bc898500cff742e]
link Demo to GpsSystem--><!--MD5=[4357670767d707a20da8de32f015b0fd]
link DemoTests to GpsSystemTests--><!--MD5=[2fc96b35f779cb506473c52214afe929]
link GpsSystemTests to UserTests--><!--MD5=[dac6c9227392bdc15949e41b7920c976]
link DemoTests to LocationDataPointTests--><!--MD5=[6a9d7dfddef143f5e0c9f504dc9c38da]
link LocationDataPointTests to SatelliteTests--><!--MD5=[dfe5b8e0e176e829b540b1e8301a5b3f]
link SatelliteTests to TrackDataTests--><!--MD5=[0a8d7803f5b15b5c3a1c9bb7c35dc634]
link LocationDataPointTests to DisplayCommInterfaceStub--><!--MD5=[bc93a9bba3d312bca3e78f7c4e975506]
link DisplayCommInterfaceStub to DisplayGpsInterfaceStub--><!--MD5=[8f08af1c28be44fd6832cb1896a0d097]
link LocationDataPoint to Satellite--><!--MD5=[e96b2763a3d50575f5bbc736cc72341f]
link LocationDataPoint to TrackData--><!--MD5=[1e92e2e6c7ae2871eeb1a4aaed62f20a]
link User to DemoTests--><!--MD5=[700d6c788681bf19a795196b4f0aacaf]
link GpsSystem to LocationDataPoint--><!--MD5=[abd0ca489c9a85fcdd3485b7cdaebce9]
@startuml AdminPackages


package edu.oakland.production.admin {

}


package edu.oakland.production.admin {
    class Demo {
        .. Main Production Classes ..
        - DisplayGpsInterface displayGpsInterface
        - DisplayCommInterface displayCommInterface
        .. Use Case Runners ..
        - GpsSystem gpsSystem
        - User user
        - PersistentStorageManager persistentStorageManager
        __
        {static} + void main(Sting args[])
        + void initSecureLockTrackSystem(int systemRfid,
        \tString persistentStorageInputLocation,
        \tString persistentStorageOutputLocation)
        + void runUseCases(Scanner input)
    }
}


package edu.oakland.production.admin {
    class User {
        - DisplayCommInterface displayCommInterface
        + User(DisplayCommInterface displayCommInterface)
        + void runUseCase1(Scanner input)
    }
}


package edu.oakland.production.admin {
    class GpsSystem {
        - DisplayGpsInterface displayGpsInterface
        - Satellite[] satellites
        __
        + GpsSystems(DisplayGpsInterface displayGpsInterface,
        \tString[] satelliteNames)
        + void runUseCase1(Scanner input)
        + void runUseCase2(Scanner input)
        + void configureSatellites(String[] satelliteNames
        \tfloat incrementLatAmount, float incrementLngAmount,
        \tLocationDataPoint initLocationDataPoint)
        - void configureSatellites(String[] satelliteNames)
    }
}



package edu.oakland.test.admin {
    
}


package edu.oakland.test.admin {
    class DemoTests {

    }
}


package edu.oakland.test.admin {
    class GpsSystemTests {

    }
}


package edu.oakland.test.admin {
    class UserTests {

    }
}


package edu.oakland.test.admin {
    class LocationDataPointTests {
        
    }
}


package edu.oakland.test.admin {
    class SatelliteTests {
        
    }
}


package edu.oakland.test.admin {
    class TrackDataTests {
        
    }
}


package edu.oakland.test.admin {
    class DisplayCommInterfaceStub {
        __
        .. Use Case 1 ..
        + TrackData receiveRfidRequest(int rfidNum)
        .. Use Case 2 ..

    }
}


package edu.oakland.test.admin {
    class DisplayGpsInterfaceStub {
        __
        .. Use Case 1 ..
        + void receiveGpsSignal(Satellite satelliteSignal)
        .. Use Case 2 ..
        + void reportGpsSignalLoss(String satelliteName)
        + void recheckSignalStength(String satelliteName)
        + void checkSignalStength(String satelliteName)
    }
}



package edu.oakland.helper.admin {
    
}


package edu.oakland.helper.admin {
    class LocationDataPoint {
        - float lat
        - float lng
        - LocalDateTime time
        + LocationDataPoint(float lat, float lng, LocalDateTime time)
        + float getLat()
        + float getLng()
        + LocalDateTime getTime()
        - boolean normalizeLat(float lat)
        - boolean normalizeLng(float lat)
        - boolean timeIsValid(LocalDateTime time)
    }
}


package edu.oakland.helper.admin {
    class Satellite {
        - String satelliteName
        - int strength
        - float incrementLatAmount
        - float incrementLngAmount
        - LocationDataPoint initLocationDataPoint
        {static} - int countGetLocationCalls
        __
        + Satellite(String satelliteName, int strength,
        \tfloat incrementLatAmount, float incrementLngAmount,
        \tLocationDataPoint initLocationDataPoint)
        + String getSatelliteName()
        + int getStrength()
        + LocationDataPoint getLocation()
        + void setStrength(int strength)
        - boolean strengthIsValid(int strength)
        - float generateNewLocationDataPointLat()
        - float generateNewLocationDataPointLng()
        - float generateNewLocationDataPointLng()
    }
}


package edu.oakland.helper.admin {
    class TrackData {
        - boolean validData
        - float courseDirection
        - float speed
        - LocationDataPoint[] points
        - String statusMessage
        + TrackData(LocationDataPoint[] points)
        + TrackData(LocationDataPoint[] points, float courseDirection, float speed)
        + boolean isValidTrackData()
        + float getCourseDirection()
        + float getSpeed()
        + LocationDataPoint[] getLocationDataPoints()
        + String getStatusMessage()
        + void setStatusMessage(String statusMessage)
        - boolean speedIsValid(float speed)
        - boolean courseDirectionIsValid(float courseDirection)
    }
}



@enduml

PlantUML version 1.2020.02(Sun Mar 01 10:22:07 GMT 2020)
(GPL source distribution)
Java Runtime: OpenJDK Runtime Environment
JVM: OpenJDK 64-Bit Server VM
Java Version: 11.0.9+11-Ubuntu-0ubuntu1
Operating System: Linux
Default Encoding: ANSI_X3.4-1968
Language: en
Country: US
--></g></svg>