<?xml version="1.0" encoding="UTF-8" standalone="no"?><svg xmlns="http://www.w3.org/2000/svg" xmlns:xlink="http://www.w3.org/1999/xlink" contentScriptType="application/ecmascript" contentStyleType="text/css" height="199px" preserveAspectRatio="none" style="width:492px;height:199px;" version="1.1" viewBox="0 0 492 199" width="492px" zoomAndPan="magnify"><defs><filter height="300%" id="f3oywdyalu2wv" width="300%" x="-1" y="-1"><feGaussianBlur result="blurOut" stdDeviation="2.0"/><feColorMatrix in="blurOut" result="blurOut2" type="matrix" values="0 0 0 0 0 0 0 0 0 0 0 0 0 0 0 0 0 0 .4 0"/><feOffset dx="4.0" dy="4.0" in="blurOut2" result="blurOut3"/><feBlend in="SourceGraphic" in2="blurOut3" mode="normal"/></filter></defs><g><!--MD5=[d02020cdc9562d037d87b751d110dd8b]
cluster edu.oakland.helper.display01--><polygon fill="#FFFFFF" filter="url(#f3oywdyalu2wv)" points="22,24,260,24,267,46.2969,470,46.2969,470,187,22,187,22,24" style="stroke: #000000; stroke-width: 1.5;"/><line style="stroke: #000000; stroke-width: 1.5;" x1="22" x2="267" y1="46.2969" y2="46.2969"/><text fill="#000000" font-family="sans-serif" font-size="14" font-weight="bold" lengthAdjust="spacingAndGlyphs" textLength="232" x="26" y="38.9951">edu.oakland.helper.display01</text><!--MD5=[b7db7f9e4ca1b2f55d32a1a48f9dd068]
class SatelliteSignalCheckRequest--><rect fill="#FEFECE" filter="url(#f3oywdyalu2wv)" height="112.0234" id="SatelliteSignalCheckRequest" style="stroke: #A80036; stroke-width: 1.5;" width="416" x="38" y="59"/><ellipse cx="152.25" cy="75" fill="#ADD1B2" rx="11" ry="11" style="stroke: #A80036; stroke-width: 1.0;"/><path d="M155.2188,80.6406 Q154.6406,80.9375 154,81.0781 Q153.3594,81.2344 152.6563,81.2344 Q150.1563,81.2344 148.8281,79.5938 Q147.5156,77.9375 147.5156,74.8125 Q147.5156,71.6875 148.8281,70.0313 Q150.1563,68.375 152.6563,68.375 Q153.3594,68.375 154,68.5313 Q154.6563,68.6875 155.2188,68.9844 L155.2188,71.7031 Q154.5938,71.125 154,70.8594 Q153.4063,70.5781 152.7813,70.5781 Q151.4375,70.5781 150.75,71.6563 Q150.0625,72.7188 150.0625,74.8125 Q150.0625,76.9063 150.75,77.9844 Q151.4375,79.0469 152.7813,79.0469 Q153.4063,79.0469 154,78.7813 Q154.5938,78.5 155.2188,77.9219 L155.2188,80.6406 Z "/><text fill="#000000" font-family="sans-serif" font-size="12" lengthAdjust="spacingAndGlyphs" textLength="179" x="172.75" y="79.1543">SatelliteSignalCheckRequest</text><line style="stroke: #A80036; stroke-width: 1.5;" x1="39" x2="453" y1="91" y2="91"/><rect fill="none" height="6" style="stroke: #C82930; stroke-width: 1.0;" width="6" x="46" y="99"/><text fill="#000000" font-family="sans-serif" font-size="11" lengthAdjust="spacingAndGlyphs" textLength="116" x="58" y="105.2104">String satelliteName</text><rect fill="none" height="6" style="stroke: #C82930; stroke-width: 1.0;" width="6" x="46" y="111.8047"/><text fill="#000000" font-family="sans-serif" font-size="11" lengthAdjust="spacingAndGlyphs" textLength="97" x="58" y="118.0151">String checkType</text><line style="stroke: #A80036; stroke-width: 1.5;" x1="39" x2="453" y1="124.6094" y2="124.6094"/><ellipse cx="49" cy="135.6094" fill="#84BE84" rx="3" ry="3" style="stroke: #038048; stroke-width: 1.0;"/><text fill="#000000" font-family="sans-serif" font-size="11" lengthAdjust="spacingAndGlyphs" textLength="390" x="58" y="138.8198">SatelliteSignalCheckRequest(String satelliteName, String checkType)</text><ellipse cx="49" cy="148.4141" fill="#84BE84" rx="3" ry="3" style="stroke: #038048; stroke-width: 1.0;"/><text fill="#000000" font-family="sans-serif" font-size="11" lengthAdjust="spacingAndGlyphs" textLength="143" x="58" y="151.6245">String getSatelliteName()</text><ellipse cx="49" cy="161.2188" fill="#84BE84" rx="3" ry="3" style="stroke: #038048; stroke-width: 1.0;"/><text fill="#000000" font-family="sans-serif" font-size="11" lengthAdjust="spacingAndGlyphs" textLength="125" x="58" y="164.4292">String getCheckType()</text><!--MD5=[780b41041ffc90c5a09773851389f5a5]
@startuml Display01HelperPackage_DirectDependencies

package edu.oakland.helper.display01 {
    
}


package edu.oakland.helper.display01 {
    
}


package edu.oakland.helper.display01 {
    class SatelliteSignalCheckRequest {
        - String satelliteName
        - String checkType
        + SatelliteSignalCheckRequest(String satelliteName, String checkType)
        + String getSatelliteName()
        + String getCheckType()
    }
}






@enduml

PlantUML version 1.2020.02(Sun Mar 01 10:22:07 GMT 2020)
(GPL source distribution)
Java Runtime: OpenJDK Runtime Environment
JVM: OpenJDK 64-Bit Server VM
Java Version: 11.0.9+11-Ubuntu-0ubuntu1
Operating System: Linux
Default Encoding: ANSI_X3.4-1968
Language: en
Country: US
--></g></svg>