<?xml version="1.0" encoding="UTF-8" standalone="no"?><svg xmlns="http://www.w3.org/2000/svg" xmlns:xlink="http://www.w3.org/1999/xlink" contentScriptType="application/ecmascript" contentStyleType="text/css" height="387px" preserveAspectRatio="none" style="width:458px;height:387px;" version="1.1" viewBox="0 0 458 387" width="458px" zoomAndPan="magnify"><defs><filter height="300%" id="f1gfa50bk6syng" width="300%" x="-1" y="-1"><feGaussianBlur result="blurOut" stdDeviation="2.0"/><feColorMatrix in="blurOut" result="blurOut2" type="matrix" values="0 0 0 0 0 0 0 0 0 0 0 0 0 0 0 0 0 0 .4 0"/><feOffset dx="4.0" dy="4.0" in="blurOut2" result="blurOut3"/><feBlend in="SourceGraphic" in2="blurOut3" mode="normal"/></filter></defs><g><!--MD5=[dc6f857ec0f7f4b7c2e0b8d815cd2a85]
cluster edu.oakland.production.database02--><polygon fill="#FFFFFF" filter="url(#f1gfa50bk6syng)" points="22,24,312,24,319,46.2969,436,46.2969,436,375,22,375,22,24" style="stroke: #000000; stroke-width: 1.5;"/><line style="stroke: #000000; stroke-width: 1.5;" x1="22" x2="319" y1="46.2969" y2="46.2969"/><text fill="#000000" font-family="sans-serif" font-size="14" font-weight="bold" lengthAdjust="spacingAndGlyphs" textLength="284" x="26" y="38.9951">edu.oakland.production.database02</text><!--MD5=[e62c039a107b929dc588966558a86fd5]
class DatabaseCommManagerImplementation--><rect fill="#FEFECE" filter="url(#f1gfa50bk6syng)" height="107.2188" id="DatabaseCommManagerImplementation" style="stroke: #A80036; stroke-width: 1.5;" width="283" x="87.5" y="252"/><ellipse cx="102.5" cy="268" fill="#ADD1B2" rx="11" ry="11" style="stroke: #A80036; stroke-width: 1.0;"/><path d="M105.4688,273.6406 Q104.8906,273.9375 104.25,274.0781 Q103.6094,274.2344 102.9063,274.2344 Q100.4063,274.2344 99.0781,272.5938 Q97.7656,270.9375 97.7656,267.8125 Q97.7656,264.6875 99.0781,263.0313 Q100.4063,261.375 102.9063,261.375 Q103.6094,261.375 104.25,261.5313 Q104.9063,261.6875 105.4688,261.9844 L105.4688,264.7031 Q104.8438,264.125 104.25,263.8594 Q103.6563,263.5781 103.0313,263.5781 Q101.6875,263.5781 101,264.6563 Q100.3125,265.7188 100.3125,267.8125 Q100.3125,269.9063 101,270.9844 Q101.6875,272.0469 103.0313,272.0469 Q103.6563,272.0469 104.25,271.7813 Q104.8438,271.5 105.4688,270.9219 L105.4688,273.6406 Z "/><text fill="#000000" font-family="sans-serif" font-size="12" lengthAdjust="spacingAndGlyphs" textLength="251" x="116.5" y="272.1543">DatabaseCommManagerImplementation</text><line style="stroke: #A80036; stroke-width: 1.5;" x1="88.5" x2="369.5" y1="284" y2="284"/><line style="stroke: #A80036; stroke-width: 1.5;" x1="88.5" x2="369.5" y1="292" y2="292"/><text fill="#000000" font-family="sans-serif" font-size="11" lengthAdjust="spacingAndGlyphs" textLength="0" x="97.5" y="323.0151"/><line style="stroke: #A80036; stroke-width: 1.0; stroke-dasharray: 1.0,2.0;" x1="88.5" x2="196" y1="306.4023" y2="306.4023"/><text fill="#000000" font-family="sans-serif" font-size="11" lengthAdjust="spacingAndGlyphs" textLength="66" x="196" y="309.7104">Use Case 1</text><line style="stroke: #A80036; stroke-width: 1.0; stroke-dasharray: 1.0,2.0;" x1="262" x2="369.5" y1="306.4023" y2="306.4023"/><text fill="#000000" font-family="sans-serif" font-size="11" lengthAdjust="spacingAndGlyphs" textLength="0" x="97.5" y="352.6245"/><line style="stroke: #A80036; stroke-width: 1.0; stroke-dasharray: 1.0,2.0;" x1="88.5" x2="196" y1="336.0117" y2="336.0117"/><text fill="#000000" font-family="sans-serif" font-size="11" lengthAdjust="spacingAndGlyphs" textLength="66" x="196" y="339.3198">Use Case 2</text><line style="stroke: #A80036; stroke-width: 1.0; stroke-dasharray: 1.0,2.0;" x1="262" x2="369.5" y1="336.0117" y2="336.0117"/><!--MD5=[3cbc5f43b2184d452c2937ae0a744eb6]
class DatabaseCommManager--><rect fill="#FEFECE" filter="url(#f1gfa50bk6syng)" height="132.8281" id="DatabaseCommManager" style="stroke: #A80036; stroke-width: 1.5;" width="382" x="38" y="59"/><ellipse cx="148.25" cy="75" fill="#B4A7E5" rx="11" ry="11" style="stroke: #A80036; stroke-width: 1.0;"/><path d="M144.1719,70.7656 L144.1719,68.6094 L151.5625,68.6094 L151.5625,70.7656 L149.0938,70.7656 L149.0938,78.8438 L151.5625,78.8438 L151.5625,81 L144.1719,81 L144.1719,78.8438 L146.6406,78.8438 L146.6406,70.7656 L144.1719,70.7656 Z "/><text fill="#000000" font-family="sans-serif" font-size="12" font-style="italic" lengthAdjust="spacingAndGlyphs" textLength="153" x="168.75" y="79.1543">DatabaseCommManager</text><line style="stroke: #A80036; stroke-width: 1.5;" x1="39" x2="419" y1="91" y2="91"/><line style="stroke: #A80036; stroke-width: 1.5;" x1="39" x2="419" y1="99" y2="99"/><ellipse cx="49" cy="126.8047" fill="#84BE84" rx="3" ry="3" style="stroke: #038048; stroke-width: 1.0;"/><text fill="#000000" font-family="sans-serif" font-size="11" font-style="italic" lengthAdjust="spacingAndGlyphs" textLength="140" x="58" y="130.0151">int passGetRfidRequest()</text><ellipse cx="49" cy="139.6094" fill="#84BE84" rx="3" ry="3" style="stroke: #038048; stroke-width: 1.0;"/><text fill="#000000" font-family="sans-serif" font-size="11" font-style="italic" lengthAdjust="spacingAndGlyphs" textLength="356" x="58" y="142.8198">LocationDataPoint passGetLocationDataPointRequest(int offset)</text><ellipse cx="49" cy="152.4141" fill="#84BE84" rx="3" ry="3" style="stroke: #038048; stroke-width: 1.0;"/><text fill="#000000" font-family="sans-serif" font-size="11" font-style="italic" lengthAdjust="spacingAndGlyphs" textLength="280" x="58" y="155.6245">void passTrackDataRequest(TrackData trackData)</text><line style="stroke: #A80036; stroke-width: 1.0; stroke-dasharray: 1.0,2.0;" x1="39" x2="196" y1="113.4023" y2="113.4023"/><text fill="#000000" font-family="sans-serif" font-size="11" lengthAdjust="spacingAndGlyphs" textLength="66" x="196" y="116.7104">Use Case 1</text><line style="stroke: #A80036; stroke-width: 1.0; stroke-dasharray: 1.0,2.0;" x1="262" x2="419" y1="113.4023" y2="113.4023"/><text fill="#000000" font-family="sans-serif" font-size="11" lengthAdjust="spacingAndGlyphs" textLength="0" x="48" y="185.2339"/><line style="stroke: #A80036; stroke-width: 1.0; stroke-dasharray: 1.0,2.0;" x1="39" x2="196" y1="168.6211" y2="168.6211"/><text fill="#000000" font-family="sans-serif" font-size="11" lengthAdjust="spacingAndGlyphs" textLength="66" x="196" y="171.9292">Use Case 2</text><line style="stroke: #A80036; stroke-width: 1.0; stroke-dasharray: 1.0,2.0;" x1="262" x2="419" y1="168.6211" y2="168.6211"/><!--MD5=[a58b2e4b707a50c1d2b096e4059ce319]
reverse link DatabaseCommManager to DatabaseCommManagerImplementation--><path d="M229,212.3 C229,225.82 229,239.44 229,251.91 " fill="none" id="DatabaseCommManager&lt;-DatabaseCommManagerImplementation" style="stroke: #A80036; stroke-width: 1.0; stroke-dasharray: 7.0,7.0;"/><polygon fill="none" points="222,212.02,229,192.02,236,212.02,222,212.02" style="stroke: #A80036; stroke-width: 1.0;"/><!--MD5=[949f05f3a664269d6413f4bcdc82b43f]
@startuml DatabaseCommManagerImplementation_DirectDependencies


package edu.oakland.production.database02 {
    class DatabaseCommManagerImplementation {
        __
        .. Use Case 1 ..

        .. Use Case 2 ..

    }
}



package edu.oakland.production.database02 {
    interface DatabaseCommManager {
        __
        .. Use Case 1 ..
        {abstract} + int passGetRfidRequest()
        {abstract} + LocationDataPoint passGetLocationDataPointRequest(int offset)
        {abstract} + void passTrackDataRequest(TrackData trackData)
        .. Use Case 2 ..

    }
}

DatabaseCommManagerImplementation .up.|> DatabaseCommManager





@enduml

PlantUML version 1.2020.02(Sun Mar 01 10:22:07 GMT 2020)
(GPL source distribution)
Java Runtime: OpenJDK Runtime Environment
JVM: OpenJDK 64-Bit Server VM
Java Version: 11.0.9+11-Ubuntu-0ubuntu1
Operating System: Linux
Default Encoding: ANSI_X3.4-1968
Language: en
Country: US
--></g></svg>