<?xml version="1.0" encoding="UTF-8" standalone="no"?><svg xmlns="http://www.w3.org/2000/svg" xmlns:xlink="http://www.w3.org/1999/xlink" contentScriptType="application/ecmascript" contentStyleType="text/css" height="387px" preserveAspectRatio="none" style="width:1145px;height:387px;" version="1.1" viewBox="0 0 1145 387" width="1145px" zoomAndPan="magnify"><defs><filter height="300%" id="f1i76iiuuymjr2" width="300%" x="-1" y="-1"><feGaussianBlur result="blurOut" stdDeviation="2.0"/><feColorMatrix in="blurOut" result="blurOut2" type="matrix" values="0 0 0 0 0 0 0 0 0 0 0 0 0 0 0 0 0 0 .4 0"/><feOffset dx="4.0" dy="4.0" in="blurOut2" result="blurOut3"/><feBlend in="SourceGraphic" in2="blurOut3" mode="normal"/></filter></defs><g><!--MD5=[dc6f857ec0f7f4b7c2e0b8d815cd2a85]
cluster edu.oakland.production.database02--><polygon fill="#FFFFFF" filter="url(#f1i76iiuuymjr2)" points="22,24,312,24,319,46.2969,1123,46.2969,1123,375,22,375,22,24" style="stroke: #000000; stroke-width: 1.5;"/><line style="stroke: #000000; stroke-width: 1.5;" x1="22" x2="319" y1="46.2969" y2="46.2969"/><text fill="#000000" font-family="sans-serif" font-size="14" font-weight="bold" lengthAdjust="spacingAndGlyphs" textLength="284" x="26" y="38.9951">edu.oakland.production.database02</text><!--MD5=[6d34700a22f737f940b471daa4ac1202]
class DatabaseCommInterface--><rect fill="#FEFECE" filter="url(#f1i76iiuuymjr2)" height="132.8281" id="DatabaseCommInterface" style="stroke: #A80036; stroke-width: 1.5;" width="309" x="37.5" y="59"/><ellipse cx="110.25" cy="75" fill="#B4A7E5" rx="11" ry="11" style="stroke: #A80036; stroke-width: 1.0;"/><path d="M106.1719,70.7656 L106.1719,68.6094 L113.5625,68.6094 L113.5625,70.7656 L111.0938,70.7656 L111.0938,78.8438 L113.5625,78.8438 L113.5625,81 L106.1719,81 L106.1719,78.8438 L108.6406,78.8438 L108.6406,70.7656 L106.1719,70.7656 Z "/><text fill="#000000" font-family="sans-serif" font-size="12" font-style="italic" lengthAdjust="spacingAndGlyphs" textLength="155" x="130.75" y="79.1543">DatabaseCommInterface</text><line style="stroke: #A80036; stroke-width: 1.5;" x1="38.5" x2="345.5" y1="91" y2="91"/><line style="stroke: #A80036; stroke-width: 1.5;" x1="38.5" x2="345.5" y1="99" y2="99"/><ellipse cx="48.5" cy="126.8047" fill="#84BE84" rx="3" ry="3" style="stroke: #038048; stroke-width: 1.0;"/><text fill="#000000" font-family="sans-serif" font-size="11" font-style="italic" lengthAdjust="spacingAndGlyphs" textLength="156" x="57.5" y="130.0151">int receiveGetRfidRequest()</text><ellipse cx="48.5" cy="139.6094" fill="#84BE84" rx="3" ry="3" style="stroke: #038048; stroke-width: 1.0;"/><text fill="#000000" font-family="sans-serif" font-size="11" font-style="italic" lengthAdjust="spacingAndGlyphs" textLength="282" x="57.5" y="142.8198">LocationDataPoint getLocationDataPoint(int offset)</text><ellipse cx="48.5" cy="152.4141" fill="#84BE84" rx="3" ry="3" style="stroke: #038048; stroke-width: 1.0;"/><text fill="#000000" font-family="sans-serif" font-size="11" font-style="italic" lengthAdjust="spacingAndGlyphs" textLength="283" x="57.5" y="155.6245">void storeTrackDataRequest(TrackData trackData)</text><line style="stroke: #A80036; stroke-width: 1.0; stroke-dasharray: 1.0,2.0;" x1="38.5" x2="159" y1="113.4023" y2="113.4023"/><text fill="#000000" font-family="sans-serif" font-size="11" lengthAdjust="spacingAndGlyphs" textLength="66" x="159" y="116.7104">Use Case 1</text><line style="stroke: #A80036; stroke-width: 1.0; stroke-dasharray: 1.0,2.0;" x1="225" x2="345.5" y1="113.4023" y2="113.4023"/><text fill="#000000" font-family="sans-serif" font-size="11" lengthAdjust="spacingAndGlyphs" textLength="0" x="47.5" y="185.2339"/><line style="stroke: #A80036; stroke-width: 1.0; stroke-dasharray: 1.0,2.0;" x1="38.5" x2="159" y1="168.6211" y2="168.6211"/><text fill="#000000" font-family="sans-serif" font-size="11" lengthAdjust="spacingAndGlyphs" textLength="66" x="159" y="171.9292">Use Case 2</text><line style="stroke: #A80036; stroke-width: 1.0; stroke-dasharray: 1.0,2.0;" x1="225" x2="345.5" y1="168.6211" y2="168.6211"/><!--MD5=[3cbc5f43b2184d452c2937ae0a744eb6]
class DatabaseCommManager--><rect fill="#FEFECE" filter="url(#f1i76iiuuymjr2)" height="132.8281" id="DatabaseCommManager" style="stroke: #A80036; stroke-width: 1.5;" width="382" x="382" y="59"/><ellipse cx="492.25" cy="75" fill="#B4A7E5" rx="11" ry="11" style="stroke: #A80036; stroke-width: 1.0;"/><path d="M488.1719,70.7656 L488.1719,68.6094 L495.5625,68.6094 L495.5625,70.7656 L493.0938,70.7656 L493.0938,78.8438 L495.5625,78.8438 L495.5625,81 L488.1719,81 L488.1719,78.8438 L490.6406,78.8438 L490.6406,70.7656 L488.1719,70.7656 Z "/><text fill="#000000" font-family="sans-serif" font-size="12" font-style="italic" lengthAdjust="spacingAndGlyphs" textLength="153" x="512.75" y="79.1543">DatabaseCommManager</text><line style="stroke: #A80036; stroke-width: 1.5;" x1="383" x2="763" y1="91" y2="91"/><line style="stroke: #A80036; stroke-width: 1.5;" x1="383" x2="763" y1="99" y2="99"/><ellipse cx="393" cy="126.8047" fill="#84BE84" rx="3" ry="3" style="stroke: #038048; stroke-width: 1.0;"/><text fill="#000000" font-family="sans-serif" font-size="11" font-style="italic" lengthAdjust="spacingAndGlyphs" textLength="140" x="402" y="130.0151">int passGetRfidRequest()</text><ellipse cx="393" cy="139.6094" fill="#84BE84" rx="3" ry="3" style="stroke: #038048; stroke-width: 1.0;"/><text fill="#000000" font-family="sans-serif" font-size="11" font-style="italic" lengthAdjust="spacingAndGlyphs" textLength="356" x="402" y="142.8198">LocationDataPoint passGetLocationDataPointRequest(int offset)</text><ellipse cx="393" cy="152.4141" fill="#84BE84" rx="3" ry="3" style="stroke: #038048; stroke-width: 1.0;"/><text fill="#000000" font-family="sans-serif" font-size="11" font-style="italic" lengthAdjust="spacingAndGlyphs" textLength="280" x="402" y="155.6245">void passTrackDataRequest(TrackData trackData)</text><line style="stroke: #A80036; stroke-width: 1.0; stroke-dasharray: 1.0,2.0;" x1="383" x2="540" y1="113.4023" y2="113.4023"/><text fill="#000000" font-family="sans-serif" font-size="11" lengthAdjust="spacingAndGlyphs" textLength="66" x="540" y="116.7104">Use Case 1</text><line style="stroke: #A80036; stroke-width: 1.0; stroke-dasharray: 1.0,2.0;" x1="606" x2="763" y1="113.4023" y2="113.4023"/><text fill="#000000" font-family="sans-serif" font-size="11" lengthAdjust="spacingAndGlyphs" textLength="0" x="392" y="185.2339"/><line style="stroke: #A80036; stroke-width: 1.0; stroke-dasharray: 1.0,2.0;" x1="383" x2="540" y1="168.6211" y2="168.6211"/><text fill="#000000" font-family="sans-serif" font-size="11" lengthAdjust="spacingAndGlyphs" textLength="66" x="540" y="171.9292">Use Case 2</text><line style="stroke: #A80036; stroke-width: 1.0; stroke-dasharray: 1.0,2.0;" x1="606" x2="763" y1="168.6211" y2="168.6211"/><!--MD5=[e17d161261e70b0137cfc16fc476feac]
class DatabaseCommPersistentStorage--><rect fill="#FEFECE" filter="url(#f1i76iiuuymjr2)" height="132.8281" id="DatabaseCommPersistentStorage" style="stroke: #A80036; stroke-width: 1.5;" width="308" x="799" y="59"/><ellipse cx="844.25" cy="75" fill="#B4A7E5" rx="11" ry="11" style="stroke: #A80036; stroke-width: 1.0;"/><path d="M840.1719,70.7656 L840.1719,68.6094 L847.5625,68.6094 L847.5625,70.7656 L845.0938,70.7656 L845.0938,78.8438 L847.5625,78.8438 L847.5625,81 L840.1719,81 L840.1719,78.8438 L842.6406,78.8438 L842.6406,70.7656 L840.1719,70.7656 Z "/><text fill="#000000" font-family="sans-serif" font-size="12" font-style="italic" lengthAdjust="spacingAndGlyphs" textLength="209" x="864.75" y="79.1543">DatabaseCommPersistentStorage</text><line style="stroke: #A80036; stroke-width: 1.5;" x1="800" x2="1106" y1="91" y2="91"/><line style="stroke: #A80036; stroke-width: 1.5;" x1="800" x2="1106" y1="99" y2="99"/><ellipse cx="810" cy="126.8047" fill="#84BE84" rx="3" ry="3" style="stroke: #038048; stroke-width: 1.0;"/><text fill="#000000" font-family="sans-serif" font-size="11" font-style="italic" lengthAdjust="spacingAndGlyphs" textLength="108" x="819" y="130.0151">int locateRfidData()</text><ellipse cx="810" cy="139.6094" fill="#84BE84" rx="3" ry="3" style="stroke: #038048; stroke-width: 1.0;"/><text fill="#000000" font-family="sans-serif" font-size="11" font-style="italic" lengthAdjust="spacingAndGlyphs" textLength="282" x="819" y="142.8198">LocationDataPoint getLocationDataPoint(int offset)</text><ellipse cx="810" cy="152.4141" fill="#84BE84" rx="3" ry="3" style="stroke: #038048; stroke-width: 1.0;"/><text fill="#000000" font-family="sans-serif" font-size="11" font-style="italic" lengthAdjust="spacingAndGlyphs" textLength="237" x="819" y="155.6245">void storeTrackData(TrackData trackData)</text><line style="stroke: #A80036; stroke-width: 1.0; stroke-dasharray: 1.0,2.0;" x1="800" x2="920" y1="113.4023" y2="113.4023"/><text fill="#000000" font-family="sans-serif" font-size="11" lengthAdjust="spacingAndGlyphs" textLength="66" x="920" y="116.7104">Use Case 1</text><line style="stroke: #A80036; stroke-width: 1.0; stroke-dasharray: 1.0,2.0;" x1="986" x2="1106" y1="113.4023" y2="113.4023"/><text fill="#000000" font-family="sans-serif" font-size="11" lengthAdjust="spacingAndGlyphs" textLength="0" x="809" y="185.2339"/><line style="stroke: #A80036; stroke-width: 1.0; stroke-dasharray: 1.0,2.0;" x1="800" x2="920" y1="168.6211" y2="168.6211"/><text fill="#000000" font-family="sans-serif" font-size="11" lengthAdjust="spacingAndGlyphs" textLength="66" x="920" y="171.9292">Use Case 2</text><line style="stroke: #A80036; stroke-width: 1.0; stroke-dasharray: 1.0,2.0;" x1="986" x2="1106" y1="168.6211" y2="168.6211"/><!--MD5=[9f85d6b15dbd6dc4f6cf7395c0833d14]
class DatabaseCommInterfaceImplementation--><rect fill="#FEFECE" filter="url(#f1i76iiuuymjr2)" height="107.2188" id="DatabaseCommInterfaceImplementation" style="stroke: #A80036; stroke-width: 1.5;" width="284" x="50" y="252"/><ellipse cx="65" cy="268" fill="#ADD1B2" rx="11" ry="11" style="stroke: #A80036; stroke-width: 1.0;"/><path d="M67.9688,273.6406 Q67.3906,273.9375 66.75,274.0781 Q66.1094,274.2344 65.4063,274.2344 Q62.9063,274.2344 61.5781,272.5938 Q60.2656,270.9375 60.2656,267.8125 Q60.2656,264.6875 61.5781,263.0313 Q62.9063,261.375 65.4063,261.375 Q66.1094,261.375 66.75,261.5313 Q67.4063,261.6875 67.9688,261.9844 L67.9688,264.7031 Q67.3438,264.125 66.75,263.8594 Q66.1563,263.5781 65.5313,263.5781 Q64.1875,263.5781 63.5,264.6563 Q62.8125,265.7188 62.8125,267.8125 Q62.8125,269.9063 63.5,270.9844 Q64.1875,272.0469 65.5313,272.0469 Q66.1563,272.0469 66.75,271.7813 Q67.3438,271.5 67.9688,270.9219 L67.9688,273.6406 Z "/><text fill="#000000" font-family="sans-serif" font-size="12" lengthAdjust="spacingAndGlyphs" textLength="252" x="79" y="272.1543">DatabaseCommInterfaceImplementation</text><line style="stroke: #A80036; stroke-width: 1.5;" x1="51" x2="333" y1="284" y2="284"/><line style="stroke: #A80036; stroke-width: 1.5;" x1="51" x2="333" y1="292" y2="292"/><text fill="#000000" font-family="sans-serif" font-size="11" lengthAdjust="spacingAndGlyphs" textLength="0" x="60" y="323.0151"/><line style="stroke: #A80036; stroke-width: 1.0; stroke-dasharray: 1.0,2.0;" x1="51" x2="159" y1="306.4023" y2="306.4023"/><text fill="#000000" font-family="sans-serif" font-size="11" lengthAdjust="spacingAndGlyphs" textLength="66" x="159" y="309.7104">Use Case 1</text><line style="stroke: #A80036; stroke-width: 1.0; stroke-dasharray: 1.0,2.0;" x1="225" x2="333" y1="306.4023" y2="306.4023"/><text fill="#000000" font-family="sans-serif" font-size="11" lengthAdjust="spacingAndGlyphs" textLength="0" x="60" y="352.6245"/><line style="stroke: #A80036; stroke-width: 1.0; stroke-dasharray: 1.0,2.0;" x1="51" x2="159" y1="336.0117" y2="336.0117"/><text fill="#000000" font-family="sans-serif" font-size="11" lengthAdjust="spacingAndGlyphs" textLength="66" x="159" y="339.3198">Use Case 2</text><line style="stroke: #A80036; stroke-width: 1.0; stroke-dasharray: 1.0,2.0;" x1="225" x2="333" y1="336.0117" y2="336.0117"/><!--MD5=[e62c039a107b929dc588966558a86fd5]
class DatabaseCommManagerImplementation--><rect fill="#FEFECE" filter="url(#f1i76iiuuymjr2)" height="107.2188" id="DatabaseCommManagerImplementation" style="stroke: #A80036; stroke-width: 1.5;" width="283" x="369.5" y="252"/><ellipse cx="384.5" cy="268" fill="#ADD1B2" rx="11" ry="11" style="stroke: #A80036; stroke-width: 1.0;"/><path d="M387.4688,273.6406 Q386.8906,273.9375 386.25,274.0781 Q385.6094,274.2344 384.9063,274.2344 Q382.4063,274.2344 381.0781,272.5938 Q379.7656,270.9375 379.7656,267.8125 Q379.7656,264.6875 381.0781,263.0313 Q382.4063,261.375 384.9063,261.375 Q385.6094,261.375 386.25,261.5313 Q386.9063,261.6875 387.4688,261.9844 L387.4688,264.7031 Q386.8438,264.125 386.25,263.8594 Q385.6563,263.5781 385.0313,263.5781 Q383.6875,263.5781 383,264.6563 Q382.3125,265.7188 382.3125,267.8125 Q382.3125,269.9063 383,270.9844 Q383.6875,272.0469 385.0313,272.0469 Q385.6563,272.0469 386.25,271.7813 Q386.8438,271.5 387.4688,270.9219 L387.4688,273.6406 Z "/><text fill="#000000" font-family="sans-serif" font-size="12" lengthAdjust="spacingAndGlyphs" textLength="251" x="398.5" y="272.1543">DatabaseCommManagerImplementation</text><line style="stroke: #A80036; stroke-width: 1.5;" x1="370.5" x2="651.5" y1="284" y2="284"/><line style="stroke: #A80036; stroke-width: 1.5;" x1="370.5" x2="651.5" y1="292" y2="292"/><text fill="#000000" font-family="sans-serif" font-size="11" lengthAdjust="spacingAndGlyphs" textLength="0" x="379.5" y="323.0151"/><line style="stroke: #A80036; stroke-width: 1.0; stroke-dasharray: 1.0,2.0;" x1="370.5" x2="478" y1="306.4023" y2="306.4023"/><text fill="#000000" font-family="sans-serif" font-size="11" lengthAdjust="spacingAndGlyphs" textLength="66" x="478" y="309.7104">Use Case 1</text><line style="stroke: #A80036; stroke-width: 1.0; stroke-dasharray: 1.0,2.0;" x1="544" x2="651.5" y1="306.4023" y2="306.4023"/><text fill="#000000" font-family="sans-serif" font-size="11" lengthAdjust="spacingAndGlyphs" textLength="0" x="379.5" y="352.6245"/><line style="stroke: #A80036; stroke-width: 1.0; stroke-dasharray: 1.0,2.0;" x1="370.5" x2="478" y1="336.0117" y2="336.0117"/><text fill="#000000" font-family="sans-serif" font-size="11" lengthAdjust="spacingAndGlyphs" textLength="66" x="478" y="339.3198">Use Case 2</text><line style="stroke: #A80036; stroke-width: 1.0; stroke-dasharray: 1.0,2.0;" x1="544" x2="651.5" y1="336.0117" y2="336.0117"/><!--MD5=[fe3a4c1f529fb89beb493f16b41b0ce6]
class DatabaseCommPersistentStorageImplementation--><rect fill="#FEFECE" filter="url(#f1i76iiuuymjr2)" height="107.2188" id="DatabaseCommPersistentStorageImplementation" style="stroke: #A80036; stroke-width: 1.5;" width="342" x="688" y="252"/><ellipse cx="703" cy="268" fill="#ADD1B2" rx="11" ry="11" style="stroke: #A80036; stroke-width: 1.0;"/><path d="M705.9688,273.6406 Q705.3906,273.9375 704.75,274.0781 Q704.1094,274.2344 703.4063,274.2344 Q700.9063,274.2344 699.5781,272.5938 Q698.2656,270.9375 698.2656,267.8125 Q698.2656,264.6875 699.5781,263.0313 Q700.9063,261.375 703.4063,261.375 Q704.1094,261.375 704.75,261.5313 Q705.4063,261.6875 705.9688,261.9844 L705.9688,264.7031 Q705.3438,264.125 704.75,263.8594 Q704.1563,263.5781 703.5313,263.5781 Q702.1875,263.5781 701.5,264.6563 Q700.8125,265.7188 700.8125,267.8125 Q700.8125,269.9063 701.5,270.9844 Q702.1875,272.0469 703.5313,272.0469 Q704.1563,272.0469 704.75,271.7813 Q705.3438,271.5 705.9688,270.9219 L705.9688,273.6406 Z "/><text fill="#000000" font-family="sans-serif" font-size="12" lengthAdjust="spacingAndGlyphs" textLength="310" x="717" y="272.1543">DatabaseCommPersistentStorageImplementation</text><line style="stroke: #A80036; stroke-width: 1.5;" x1="689" x2="1029" y1="284" y2="284"/><line style="stroke: #A80036; stroke-width: 1.5;" x1="689" x2="1029" y1="292" y2="292"/><text fill="#000000" font-family="sans-serif" font-size="11" lengthAdjust="spacingAndGlyphs" textLength="0" x="698" y="323.0151"/><line style="stroke: #A80036; stroke-width: 1.0; stroke-dasharray: 1.0,2.0;" x1="689" x2="826" y1="306.4023" y2="306.4023"/><text fill="#000000" font-family="sans-serif" font-size="11" lengthAdjust="spacingAndGlyphs" textLength="66" x="826" y="309.7104">Use Case 1</text><line style="stroke: #A80036; stroke-width: 1.0; stroke-dasharray: 1.0,2.0;" x1="892" x2="1029" y1="306.4023" y2="306.4023"/><text fill="#000000" font-family="sans-serif" font-size="11" lengthAdjust="spacingAndGlyphs" textLength="0" x="698" y="352.6245"/><line style="stroke: #A80036; stroke-width: 1.0; stroke-dasharray: 1.0,2.0;" x1="689" x2="826" y1="336.0117" y2="336.0117"/><text fill="#000000" font-family="sans-serif" font-size="11" lengthAdjust="spacingAndGlyphs" textLength="66" x="826" y="339.3198">Use Case 2</text><line style="stroke: #A80036; stroke-width: 1.0; stroke-dasharray: 1.0,2.0;" x1="892" x2="1029" y1="336.0117" y2="336.0117"/><!--MD5=[f1f42aa3e5ee92d91a95f483cb27fd1b]
link DatabaseCommInterface to DatabaseCommManager--><!--MD5=[3f2b96f5f5cf0da87fd0e7cb2fd2baa9]
link DatabaseCommManager to DatabaseCommPersistentStorage--><!--MD5=[ed3a075efa2fa8574684a99a92c88b7d]
link DatabaseCommInterface to DatabaseCommInterfaceImplementation--><!--MD5=[3760425120cae1e7aba6568029ff5c72]
link DatabaseCommInterfaceImplementation to DatabaseCommManagerImplementation--><!--MD5=[59a0ffb4d14302a054ba98de315525ee]
link DatabaseCommManagerImplementation to DatabaseCommPersistentStorageImplementation--><!--MD5=[7145e3e1a9327c91c364adda5cfa6b7b]
@startuml DATABASE02_PRODUCTIONPackage

package edu.oakland.production.database02 {

}


package edu.oakland.production.database02 {
    interface DatabaseCommInterface {
        __
        .. Use Case 1 ..
        {abstract} + int receiveGetRfidRequest()
        {abstract} + LocationDataPoint getLocationDataPoint(int offset)
        {abstract} + void storeTrackDataRequest(TrackData trackData)
        .. Use Case 2 ..

    }
}


package edu.oakland.production.database02 {
    interface DatabaseCommManager {
        __
        .. Use Case 1 ..
        {abstract} + int passGetRfidRequest()
        {abstract} + LocationDataPoint passGetLocationDataPointRequest(int offset)
        {abstract} + void passTrackDataRequest(TrackData trackData)
        .. Use Case 2 ..

    }
}


package edu.oakland.production.database02 {
    interface DatabaseCommPersistentStorage {
        __
        .. Use Case 1 ..
        {abstract} + int locateRfidData()
        {abstract} + LocationDataPoint getLocationDataPoint(int offset)
        {abstract} + void storeTrackData(TrackData trackData)
        .. Use Case 2 ..

    }
}


package edu.oakland.production.database02 {
    class DatabaseCommInterfaceImplementation {
        __
        .. Use Case 1 ..

        .. Use Case 2 ..

    }
}


package edu.oakland.production.database02 {
    class DatabaseCommManagerImplementation {
        __
        .. Use Case 1 ..

        .. Use Case 2 ..

    }
}


package edu.oakland.production.database02 {
    class DatabaseCommPersistentStorageImplementation {
        __
        .. Use Case 1 ..

        .. Use Case 2 ..

    }
}


@enduml

PlantUML version 1.2020.02(Sun Mar 01 10:22:07 GMT 2020)
(GPL source distribution)
Java Runtime: OpenJDK Runtime Environment
JVM: OpenJDK 64-Bit Server VM
Java Version: 11.0.9+11-Ubuntu-0ubuntu1
Operating System: Linux
Default Encoding: ANSI_X3.4-1968
Language: en
Country: US
--></g></svg>