<?xml version="1.0" encoding="UTF-8" standalone="no"?><svg xmlns="http://www.w3.org/2000/svg" xmlns:xlink="http://www.w3.org/1999/xlink" contentScriptType="application/ecmascript" contentStyleType="text/css" height="387px" preserveAspectRatio="none" style="width:1502px;height:387px;" version="1.1" viewBox="0 0 1502 387" width="1502px" zoomAndPan="magnify"><defs><filter height="300%" id="f19hc6yqd5ljx7" width="300%" x="-1" y="-1"><feGaussianBlur result="blurOut" stdDeviation="2.0"/><feColorMatrix in="blurOut" result="blurOut2" type="matrix" values="0 0 0 0 0 0 0 0 0 0 0 0 0 0 0 0 0 0 .4 0"/><feOffset dx="4.0" dy="4.0" in="blurOut2" result="blurOut3"/><feBlend in="SourceGraphic" in2="blurOut3" mode="normal"/></filter></defs><g><!--MD5=[fe59aae6f7bfe371a9c197ec1f7f843a]
cluster edu.oakland.production.display02--><polygon fill="#FFFFFF" filter="url(#f19hc6yqd5ljx7)" points="544,24,817,24,824,46.2969,1480,46.2969,1480,375,544,375,544,24" style="stroke: #000000; stroke-width: 1.5;"/><line style="stroke: #000000; stroke-width: 1.5;" x1="544" x2="824" y1="46.2969" y2="46.2969"/><text fill="#000000" font-family="sans-serif" font-size="14" font-weight="bold" lengthAdjust="spacingAndGlyphs" textLength="267" x="548" y="38.9951">edu.oakland.production.display02</text><!--MD5=[c8d1e3134fecb0c949fd2a76cc0bb992]
class DisplayCommInterface--><rect fill="#FEFECE" filter="url(#f19hc6yqd5ljx7)" height="120.0234" id="DisplayCommInterface" style="stroke: #A80036; stroke-width: 1.5;" width="268" x="560" y="59"/><ellipse cx="620.25" cy="75" fill="#B4A7E5" rx="11" ry="11" style="stroke: #A80036; stroke-width: 1.0;"/><path d="M616.1719,70.7656 L616.1719,68.6094 L623.5625,68.6094 L623.5625,70.7656 L621.0938,70.7656 L621.0938,78.8438 L623.5625,78.8438 L623.5625,81 L616.1719,81 L616.1719,78.8438 L618.6406,78.8438 L618.6406,70.7656 L616.1719,70.7656 Z "/><text fill="#000000" font-family="sans-serif" font-size="12" font-style="italic" lengthAdjust="spacingAndGlyphs" textLength="139" x="640.75" y="79.1543">DisplayCommInterface</text><line style="stroke: #A80036; stroke-width: 1.5;" x1="561" x2="827" y1="91" y2="91"/><line style="stroke: #A80036; stroke-width: 1.5;" x1="561" x2="827" y1="99" y2="99"/><ellipse cx="571" cy="126.8047" fill="#84BE84" rx="3" ry="3" style="stroke: #038048; stroke-width: 1.0;"/><text fill="#000000" font-family="sans-serif" font-size="11" font-style="italic" lengthAdjust="spacingAndGlyphs" textLength="242" x="580" y="130.0151">TrackData receiveRfidRequest(int rfidNum)</text><text fill="#000000" font-family="sans-serif" font-size="11" lengthAdjust="spacingAndGlyphs" textLength="0" x="584" y="142.8198"/><line style="stroke: #A80036; stroke-width: 1.0; stroke-dasharray: 1.0,2.0;" x1="561" x2="661" y1="113.4023" y2="113.4023"/><text fill="#000000" font-family="sans-serif" font-size="11" lengthAdjust="spacingAndGlyphs" textLength="66" x="661" y="116.7104">Use Case 1</text><line style="stroke: #A80036; stroke-width: 1.0; stroke-dasharray: 1.0,2.0;" x1="727" x2="827" y1="113.4023" y2="113.4023"/><text fill="#000000" font-family="sans-serif" font-size="11" lengthAdjust="spacingAndGlyphs" textLength="0" x="570" y="172.4292"/><line style="stroke: #A80036; stroke-width: 1.0; stroke-dasharray: 1.0,2.0;" x1="561" x2="661" y1="155.8164" y2="155.8164"/><text fill="#000000" font-family="sans-serif" font-size="11" lengthAdjust="spacingAndGlyphs" textLength="66" x="661" y="159.1245">Use Case 2</text><line style="stroke: #A80036; stroke-width: 1.0; stroke-dasharray: 1.0,2.0;" x1="727" x2="827" y1="155.8164" y2="155.8164"/><!--MD5=[f6b51b5f862da5ce226c62e411e84628]
class DisplayComm2WayInterface--><rect fill="#FEFECE" filter="url(#f19hc6yqd5ljx7)" height="120.0234" id="DisplayComm2WayInterface" style="stroke: #A80036; stroke-width: 1.5;" width="252" x="887" y="59"/><ellipse cx="922.7" cy="75" fill="#B4A7E5" rx="11" ry="11" style="stroke: #A80036; stroke-width: 1.0;"/><path d="M918.6219,70.7656 L918.6219,68.6094 L926.0125,68.6094 L926.0125,70.7656 L923.5438,70.7656 L923.5438,78.8438 L926.0125,78.8438 L926.0125,81 L918.6219,81 L918.6219,78.8438 L921.0906,78.8438 L921.0906,70.7656 L918.6219,70.7656 Z "/><text fill="#000000" font-family="sans-serif" font-size="12" font-style="italic" lengthAdjust="spacingAndGlyphs" textLength="174" x="941.3" y="79.1543">DisplayComm2WayInterface</text><line style="stroke: #A80036; stroke-width: 1.5;" x1="888" x2="1138" y1="91" y2="91"/><line style="stroke: #A80036; stroke-width: 1.5;" x1="888" x2="1138" y1="99" y2="99"/><ellipse cx="898" cy="126.8047" fill="#84BE84" rx="3" ry="3" style="stroke: #038048; stroke-width: 1.0;"/><text fill="#000000" font-family="sans-serif" font-size="11" font-style="italic" lengthAdjust="spacingAndGlyphs" textLength="226" x="907" y="130.0151">TrackData passRfidRequest(int rfidNum)</text><text fill="#000000" font-family="sans-serif" font-size="11" lengthAdjust="spacingAndGlyphs" textLength="0" x="911" y="142.8198"/><line style="stroke: #A80036; stroke-width: 1.0; stroke-dasharray: 1.0,2.0;" x1="888" x2="980" y1="113.4023" y2="113.4023"/><text fill="#000000" font-family="sans-serif" font-size="11" lengthAdjust="spacingAndGlyphs" textLength="66" x="980" y="116.7104">Use Case 1</text><line style="stroke: #A80036; stroke-width: 1.0; stroke-dasharray: 1.0,2.0;" x1="1046" x2="1138" y1="113.4023" y2="113.4023"/><text fill="#000000" font-family="sans-serif" font-size="11" lengthAdjust="spacingAndGlyphs" textLength="0" x="897" y="172.4292"/><line style="stroke: #A80036; stroke-width: 1.0; stroke-dasharray: 1.0,2.0;" x1="888" x2="980" y1="155.8164" y2="155.8164"/><text fill="#000000" font-family="sans-serif" font-size="11" lengthAdjust="spacingAndGlyphs" textLength="66" x="980" y="159.1245">Use Case 2</text><line style="stroke: #A80036; stroke-width: 1.0; stroke-dasharray: 1.0,2.0;" x1="1046" x2="1138" y1="155.8164" y2="155.8164"/><!--MD5=[6aeb72f2773d7cabb45309482beeff0a]
class DisplayCommManager--><rect fill="#FEFECE" filter="url(#f19hc6yqd5ljx7)" height="120.0234" id="DisplayCommManager" style="stroke: #A80036; stroke-width: 1.5;" width="275" x="1188.5" y="59"/><ellipse cx="1253.25" cy="75" fill="#B4A7E5" rx="11" ry="11" style="stroke: #A80036; stroke-width: 1.0;"/><path d="M1249.1719,70.7656 L1249.1719,68.6094 L1256.5625,68.6094 L1256.5625,70.7656 L1254.0938,70.7656 L1254.0938,78.8438 L1256.5625,78.8438 L1256.5625,81 L1249.1719,81 L1249.1719,78.8438 L1251.6406,78.8438 L1251.6406,70.7656 L1249.1719,70.7656 Z "/><text fill="#000000" font-family="sans-serif" font-size="12" font-style="italic" lengthAdjust="spacingAndGlyphs" textLength="137" x="1273.75" y="79.1543">DisplayCommManager</text><line style="stroke: #A80036; stroke-width: 1.5;" x1="1189.5" x2="1462.5" y1="91" y2="91"/><line style="stroke: #A80036; stroke-width: 1.5;" x1="1189.5" x2="1462.5" y1="99" y2="99"/><ellipse cx="1199.5" cy="126.8047" fill="#84BE84" rx="3" ry="3" style="stroke: #038048; stroke-width: 1.0;"/><text fill="#000000" font-family="sans-serif" font-size="11" font-style="italic" lengthAdjust="spacingAndGlyphs" textLength="249" x="1208.5" y="130.0151">TrackData evaluateRfidRequest(int rfidNum)</text><text fill="#000000" font-family="sans-serif" font-size="11" lengthAdjust="spacingAndGlyphs" textLength="0" x="1212.5" y="142.8198"/><line style="stroke: #A80036; stroke-width: 1.0; stroke-dasharray: 1.0,2.0;" x1="1189.5" x2="1293" y1="113.4023" y2="113.4023"/><text fill="#000000" font-family="sans-serif" font-size="11" lengthAdjust="spacingAndGlyphs" textLength="66" x="1293" y="116.7104">Use Case 1</text><line style="stroke: #A80036; stroke-width: 1.0; stroke-dasharray: 1.0,2.0;" x1="1359" x2="1462.5" y1="113.4023" y2="113.4023"/><text fill="#000000" font-family="sans-serif" font-size="11" lengthAdjust="spacingAndGlyphs" textLength="0" x="1198.5" y="172.4292"/><line style="stroke: #A80036; stroke-width: 1.0; stroke-dasharray: 1.0,2.0;" x1="1189.5" x2="1293" y1="155.8164" y2="155.8164"/><text fill="#000000" font-family="sans-serif" font-size="11" lengthAdjust="spacingAndGlyphs" textLength="66" x="1293" y="159.1245">Use Case 2</text><line style="stroke: #A80036; stroke-width: 1.0; stroke-dasharray: 1.0,2.0;" x1="1359" x2="1462.5" y1="155.8164" y2="155.8164"/><!--MD5=[a35092e604da7274febf4e2cf9a25087]
class DisplayCommInterfaceImplementation--><rect fill="#FEFECE" filter="url(#f19hc6yqd5ljx7)" height="107.2188" id="DisplayCommInterfaceImplementation" style="stroke: #A80036; stroke-width: 1.5;" width="267" x="560.5" y="245.5"/><ellipse cx="575.5" cy="261.5" fill="#ADD1B2" rx="11" ry="11" style="stroke: #A80036; stroke-width: 1.0;"/><path d="M578.4688,267.1406 Q577.8906,267.4375 577.25,267.5781 Q576.6094,267.7344 575.9063,267.7344 Q573.4063,267.7344 572.0781,266.0938 Q570.7656,264.4375 570.7656,261.3125 Q570.7656,258.1875 572.0781,256.5313 Q573.4063,254.875 575.9063,254.875 Q576.6094,254.875 577.25,255.0313 Q577.9063,255.1875 578.4688,255.4844 L578.4688,258.2031 Q577.8438,257.625 577.25,257.3594 Q576.6563,257.0781 576.0313,257.0781 Q574.6875,257.0781 574,258.1563 Q573.3125,259.2188 573.3125,261.3125 Q573.3125,263.4063 574,264.4844 Q574.6875,265.5469 576.0313,265.5469 Q576.6563,265.5469 577.25,265.2813 Q577.8438,265 578.4688,264.4219 L578.4688,267.1406 Z "/><text fill="#000000" font-family="sans-serif" font-size="12" lengthAdjust="spacingAndGlyphs" textLength="235" x="589.5" y="265.6543">DisplayCommInterfaceImplementation</text><line style="stroke: #A80036; stroke-width: 1.5;" x1="561.5" x2="826.5" y1="277.5" y2="277.5"/><line style="stroke: #A80036; stroke-width: 1.5;" x1="561.5" x2="826.5" y1="285.5" y2="285.5"/><text fill="#000000" font-family="sans-serif" font-size="11" lengthAdjust="spacingAndGlyphs" textLength="0" x="570.5" y="316.5151"/><line style="stroke: #A80036; stroke-width: 1.0; stroke-dasharray: 1.0,2.0;" x1="561.5" x2="661" y1="299.9023" y2="299.9023"/><text fill="#000000" font-family="sans-serif" font-size="11" lengthAdjust="spacingAndGlyphs" textLength="66" x="661" y="303.2104">Use Case 1</text><line style="stroke: #A80036; stroke-width: 1.0; stroke-dasharray: 1.0,2.0;" x1="727" x2="826.5" y1="299.9023" y2="299.9023"/><text fill="#000000" font-family="sans-serif" font-size="11" lengthAdjust="spacingAndGlyphs" textLength="0" x="570.5" y="346.1245"/><line style="stroke: #A80036; stroke-width: 1.0; stroke-dasharray: 1.0,2.0;" x1="561.5" x2="661" y1="329.5117" y2="329.5117"/><text fill="#000000" font-family="sans-serif" font-size="11" lengthAdjust="spacingAndGlyphs" textLength="66" x="661" y="332.8198">Use Case 2</text><line style="stroke: #A80036; stroke-width: 1.0; stroke-dasharray: 1.0,2.0;" x1="727" x2="826.5" y1="329.5117" y2="329.5117"/><!--MD5=[46657c2900260d4d40350fe3f8c544df]
class DisplayComm2WayInterfaceImplementation--><rect fill="#FEFECE" filter="url(#f19hc6yqd5ljx7)" height="120.0234" id="DisplayComm2WayInterfaceImplementation" style="stroke: #A80036; stroke-width: 1.5;" width="300" x="863" y="239"/><ellipse cx="878" cy="255" fill="#ADD1B2" rx="11" ry="11" style="stroke: #A80036; stroke-width: 1.0;"/><path d="M880.9688,260.6406 Q880.3906,260.9375 879.75,261.0781 Q879.1094,261.2344 878.4063,261.2344 Q875.9063,261.2344 874.5781,259.5938 Q873.2656,257.9375 873.2656,254.8125 Q873.2656,251.6875 874.5781,250.0313 Q875.9063,248.375 878.4063,248.375 Q879.1094,248.375 879.75,248.5313 Q880.4063,248.6875 880.9688,248.9844 L880.9688,251.7031 Q880.3438,251.125 879.75,250.8594 Q879.1563,250.5781 878.5313,250.5781 Q877.1875,250.5781 876.5,251.6563 Q875.8125,252.7188 875.8125,254.8125 Q875.8125,256.9063 876.5,257.9844 Q877.1875,259.0469 878.5313,259.0469 Q879.1563,259.0469 879.75,258.7813 Q880.3438,258.5 880.9688,257.9219 L880.9688,260.6406 Z "/><text fill="#000000" font-family="sans-serif" font-size="12" lengthAdjust="spacingAndGlyphs" textLength="268" x="892" y="259.1543">DisplayComm2WayInterfaceImplementation</text><line style="stroke: #A80036; stroke-width: 1.5;" x1="864" x2="1162" y1="271" y2="271"/><line style="stroke: #A80036; stroke-width: 1.5;" x1="864" x2="1162" y1="279" y2="279"/><ellipse cx="874" cy="306.8047" fill="#84BE84" rx="3" ry="3" style="stroke: #038048; stroke-width: 1.0;"/><text fill="#000000" font-family="sans-serif" font-size="11" font-style="italic" lengthAdjust="spacingAndGlyphs" textLength="270" x="883" y="310.0151">LocationDataPoint passRfidRequest(int rfidNum)</text><text fill="#000000" font-family="sans-serif" font-size="11" lengthAdjust="spacingAndGlyphs" textLength="0" x="887" y="322.8198"/><line style="stroke: #A80036; stroke-width: 1.0; stroke-dasharray: 1.0,2.0;" x1="864" x2="980" y1="293.4023" y2="293.4023"/><text fill="#000000" font-family="sans-serif" font-size="11" lengthAdjust="spacingAndGlyphs" textLength="66" x="980" y="296.7104">Use Case 1</text><line style="stroke: #A80036; stroke-width: 1.0; stroke-dasharray: 1.0,2.0;" x1="1046" x2="1162" y1="293.4023" y2="293.4023"/><text fill="#000000" font-family="sans-serif" font-size="11" lengthAdjust="spacingAndGlyphs" textLength="0" x="873" y="352.4292"/><line style="stroke: #A80036; stroke-width: 1.0; stroke-dasharray: 1.0,2.0;" x1="864" x2="980" y1="335.8164" y2="335.8164"/><text fill="#000000" font-family="sans-serif" font-size="11" lengthAdjust="spacingAndGlyphs" textLength="66" x="980" y="339.1245">Use Case 2</text><line style="stroke: #A80036; stroke-width: 1.0; stroke-dasharray: 1.0,2.0;" x1="1046" x2="1162" y1="335.8164" y2="335.8164"/><!--MD5=[3a27b63ddb357afc5dde5581215f51f9]
class DisplayCommManagerImplementation--><rect fill="#FEFECE" filter="url(#f19hc6yqd5ljx7)" height="107.2188" id="DisplayCommManagerImplementation" style="stroke: #A80036; stroke-width: 1.5;" width="266" x="1198" y="245.5"/><ellipse cx="1213" cy="261.5" fill="#ADD1B2" rx="11" ry="11" style="stroke: #A80036; stroke-width: 1.0;"/><path d="M1215.9688,267.1406 Q1215.3906,267.4375 1214.75,267.5781 Q1214.1094,267.7344 1213.4063,267.7344 Q1210.9063,267.7344 1209.5781,266.0938 Q1208.2656,264.4375 1208.2656,261.3125 Q1208.2656,258.1875 1209.5781,256.5313 Q1210.9063,254.875 1213.4063,254.875 Q1214.1094,254.875 1214.75,255.0313 Q1215.4063,255.1875 1215.9688,255.4844 L1215.9688,258.2031 Q1215.3438,257.625 1214.75,257.3594 Q1214.1563,257.0781 1213.5313,257.0781 Q1212.1875,257.0781 1211.5,258.1563 Q1210.8125,259.2188 1210.8125,261.3125 Q1210.8125,263.4063 1211.5,264.4844 Q1212.1875,265.5469 1213.5313,265.5469 Q1214.1563,265.5469 1214.75,265.2813 Q1215.3438,265 1215.9688,264.4219 L1215.9688,267.1406 Z "/><text fill="#000000" font-family="sans-serif" font-size="12" lengthAdjust="spacingAndGlyphs" textLength="234" x="1227" y="265.6543">DisplayCommManagerImplementation</text><line style="stroke: #A80036; stroke-width: 1.5;" x1="1199" x2="1463" y1="277.5" y2="277.5"/><line style="stroke: #A80036; stroke-width: 1.5;" x1="1199" x2="1463" y1="285.5" y2="285.5"/><text fill="#000000" font-family="sans-serif" font-size="11" lengthAdjust="spacingAndGlyphs" textLength="0" x="1208" y="316.5151"/><line style="stroke: #A80036; stroke-width: 1.0; stroke-dasharray: 1.0,2.0;" x1="1199" x2="1298" y1="299.9023" y2="299.9023"/><text fill="#000000" font-family="sans-serif" font-size="11" lengthAdjust="spacingAndGlyphs" textLength="66" x="1298" y="303.2104">Use Case 1</text><line style="stroke: #A80036; stroke-width: 1.0; stroke-dasharray: 1.0,2.0;" x1="1364" x2="1463" y1="299.9023" y2="299.9023"/><text fill="#000000" font-family="sans-serif" font-size="11" lengthAdjust="spacingAndGlyphs" textLength="0" x="1208" y="346.1245"/><line style="stroke: #A80036; stroke-width: 1.0; stroke-dasharray: 1.0,2.0;" x1="1199" x2="1298" y1="329.5117" y2="329.5117"/><text fill="#000000" font-family="sans-serif" font-size="11" lengthAdjust="spacingAndGlyphs" textLength="66" x="1298" y="332.8198">Use Case 2</text><line style="stroke: #A80036; stroke-width: 1.0; stroke-dasharray: 1.0,2.0;" x1="1364" x2="1463" y1="329.5117" y2="329.5117"/><polygon fill="#FFFFFF" filter="url(#f19hc6yqd5ljx7)" points="6,92.5,224,92.5,231,114.7969,238,114.7969,238,145.0938,6,145.0938,6,92.5" style="stroke: #000000; stroke-width: 1.5;"/><line style="stroke: #000000; stroke-width: 1.5;" x1="6" x2="231" y1="114.7969" y2="114.7969"/><text fill="#000000" font-family="sans-serif" font-size="14" font-weight="bold" lengthAdjust="spacingAndGlyphs" textLength="212" x="10" y="107.4951">edu.oakland.test.display02</text><polygon fill="#FFFFFF" filter="url(#f19hc6yqd5ljx7)" points="273,92.5,511,92.5,518,114.7969,525,114.7969,525,145.0938,273,145.0938,273,92.5" style="stroke: #000000; stroke-width: 1.5;"/><line style="stroke: #000000; stroke-width: 1.5;" x1="273" x2="518" y1="114.7969" y2="114.7969"/><text fill="#000000" font-family="sans-serif" font-size="14" font-weight="bold" lengthAdjust="spacingAndGlyphs" textLength="232" x="277" y="107.4951">edu.oakland.helper.display02</text><!--MD5=[77bc37423dd8876786830fad4054e33b]
reverse link DisplayCommInterface to DisplayCommInterfaceImplementation--><path d="M694,199.33 C694,214.89 694,230.85 694,245.27 " fill="none" id="DisplayCommInterface&lt;-DisplayCommInterfaceImplementation" style="stroke: #A80036; stroke-width: 1.0; stroke-dasharray: 7.0,7.0;"/><polygon fill="none" points="687,199.27,694,179.27,701,199.27,687,199.27" style="stroke: #A80036; stroke-width: 1.0;"/><!--MD5=[4e991cf787e933c55089f97eae394828]
reverse link DisplayComm2WayInterface to DisplayComm2WayInterfaceImplementation--><path d="M1013,199.66 C1013,212.88 1013,226.39 1013,238.99 " fill="none" id="DisplayComm2WayInterface&lt;-DisplayComm2WayInterfaceImplementation" style="stroke: #A80036; stroke-width: 1.0; stroke-dasharray: 7.0,7.0;"/><polygon fill="none" points="1006,199.27,1013,179.27,1020,199.27,1006,199.27" style="stroke: #A80036; stroke-width: 1.0;"/><!--MD5=[5beed6c3c7e4a84a4bfaa95bdf8cce79]
reverse link DisplayCommManager to DisplayCommManagerImplementation--><path d="M1328.23,199.33 C1328.67,214.89 1329.11,230.85 1329.52,245.27 " fill="none" id="DisplayCommManager&lt;-DisplayCommManagerImplementation" style="stroke: #A80036; stroke-width: 1.0; stroke-dasharray: 7.0,7.0;"/><polygon fill="none" points="1321.23,199.46,1327.66,179.27,1335.22,199.07,1321.23,199.46" style="stroke: #A80036; stroke-width: 1.0;"/><!--MD5=[b36f044e5ef0d96a77ea42ef91762607]
@startuml Display02Packages_DirectDependencies


package edu.oakland.production.display02 {
    
}


package edu.oakland.production.display02 {
    
}


package edu.oakland.production.display02 {
    interface DisplayCommInterface {
        __
        .. Use Case 1 ..
        {abstract} + TrackData receiveRfidRequest(int rfidNum)

        .. Use Case 2 ..

    }
}


package edu.oakland.production.display02 {
    interface DisplayComm2WayInterface {
        __
        .. Use Case 1 ..
        {abstract} + TrackData passRfidRequest(int rfidNum)

        .. Use Case 2 ..

    }
}


package edu.oakland.production.display02 {
    interface DisplayCommManager {
        __
        .. Use Case 1 ..
        {abstract} + TrackData evaluateRfidRequest(int rfidNum)

        .. Use Case 2 ..

    }
}


package edu.oakland.production.display02 {
    class DisplayCommInterfaceImplementation {
        __
        .. Use Case 1 ..

        .. Use Case 2 ..

    }
}


DisplayCommInterfaceImplementation .up.|> DisplayCommInterface

package edu.oakland.production.display02 {
    class DisplayComm2WayInterfaceImplementation {
        __
        .. Use Case 1 ..
        {abstract} + LocationDataPoint passRfidRequest(int rfidNum)

        .. Use Case 2 ..

    }
}


DisplayComm2WayInterfaceImplementation .up.|> DisplayComm2WayInterface

package edu.oakland.production.display02 {
    class DisplayCommManagerImplementation {
        __
        .. Use Case 1 ..

        .. Use Case 2 ..

    }
}


DisplayCommManagerImplementation .up.|> DisplayCommManager
















package edu.oakland.test.display02 {
    
}


package edu.oakland.test.display02 {
    
}



package edu.oakland.helper.display02 {
    
}


@enduml

PlantUML version 1.2020.02(Sun Mar 01 10:22:07 GMT 2020)
(GPL source distribution)
Java Runtime: OpenJDK Runtime Environment
JVM: OpenJDK 64-Bit Server VM
Java Version: 11.0.9+11-Ubuntu-0ubuntu1
Operating System: Linux
Default Encoding: ANSI_X3.4-1968
Language: en
Country: US
--></g></svg>