<?xml version="1.0" encoding="UTF-8" standalone="no"?><svg xmlns="http://www.w3.org/2000/svg" xmlns:xlink="http://www.w3.org/1999/xlink" contentScriptType="application/ecmascript" contentStyleType="text/css" height="658px" preserveAspectRatio="none" style="width:2855px;height:658px;" version="1.1" viewBox="0 0 2855 658" width="2855px" zoomAndPan="magnify"><defs><filter height="300%" id="ftux4k70zpo3s" width="300%" x="-1" y="-1"><feGaussianBlur result="blurOut" stdDeviation="2.0"/><feColorMatrix in="blurOut" result="blurOut2" type="matrix" values="0 0 0 0 0 0 0 0 0 0 0 0 0 0 0 0 0 0 .4 0"/><feOffset dx="4.0" dy="4.0" in="blurOut2" result="blurOut3"/><feBlend in="SourceGraphic" in2="blurOut3" mode="normal"/></filter></defs><g><!--MD5=[fe59aae6f7bfe371a9c197ec1f7f843a]
cluster edu.oakland.production.display02--><polygon fill="#FFFFFF" filter="url(#ftux4k70zpo3s)" points="22,100.5,295,100.5,302,122.7969,1425,122.7969,1425,508,22,508,22,100.5" style="stroke: #000000; stroke-width: 1.5;"/><line style="stroke: #000000; stroke-width: 1.5;" x1="22" x2="302" y1="122.7969" y2="122.7969"/><text fill="#000000" font-family="sans-serif" font-size="14" font-weight="bold" lengthAdjust="spacingAndGlyphs" textLength="267" x="26" y="115.4951">edu.oakland.production.display02</text><!--MD5=[9258003ec405d300d3379b4a3d8dd6ad]
cluster edu.oakland.test.display02--><polygon fill="#FFFFFF" filter="url(#ftux4k70zpo3s)" points="1449,102.5,1667,102.5,1674,124.7969,2487,124.7969,2487,646,1449,646,1449,102.5" style="stroke: #000000; stroke-width: 1.5;"/><line style="stroke: #000000; stroke-width: 1.5;" x1="1449" x2="1674" y1="124.7969" y2="124.7969"/><text fill="#000000" font-family="sans-serif" font-size="14" font-weight="bold" lengthAdjust="spacingAndGlyphs" textLength="212" x="1453" y="117.4951">edu.oakland.test.display02</text><!--MD5=[a502031b5a5384de0a21e6ee820fd3b2]
cluster edu.oakland.helper.display02--><polygon fill="#FFFFFF" filter="url(#ftux4k70zpo3s)" points="2511,24,2749,24,2756,46.2969,2833,46.2969,2833,306,2511,306,2511,24" style="stroke: #000000; stroke-width: 1.5;"/><line style="stroke: #000000; stroke-width: 1.5;" x1="2511" x2="2756" y1="46.2969" y2="46.2969"/><text fill="#000000" font-family="sans-serif" font-size="14" font-weight="bold" lengthAdjust="spacingAndGlyphs" textLength="232" x="2515" y="38.9951">edu.oakland.helper.display02</text><!--MD5=[c8d1e3134fecb0c949fd2a76cc0bb992]
class DisplayCommInterface--><rect fill="#FEFECE" filter="url(#ftux4k70zpo3s)" height="77.6094" id="DisplayCommInterface" style="stroke: #A80036; stroke-width: 1.5;" width="268" x="89" y="135.5"/><ellipse cx="149.25" cy="151.5" fill="#B4A7E5" rx="11" ry="11" style="stroke: #A80036; stroke-width: 1.0;"/><path d="M145.1719,147.2656 L145.1719,145.1094 L152.5625,145.1094 L152.5625,147.2656 L150.0938,147.2656 L150.0938,155.3438 L152.5625,155.3438 L152.5625,157.5 L145.1719,157.5 L145.1719,155.3438 L147.6406,155.3438 L147.6406,147.2656 L145.1719,147.2656 Z "/><text fill="#000000" font-family="sans-serif" font-size="12" font-style="italic" lengthAdjust="spacingAndGlyphs" textLength="139" x="169.75" y="155.6543">DisplayCommInterface</text><line style="stroke: #A80036; stroke-width: 1.5;" x1="90" x2="356" y1="167.5" y2="167.5"/><line style="stroke: #A80036; stroke-width: 1.5;" x1="90" x2="356" y1="175.5" y2="175.5"/><ellipse cx="100" cy="203.3047" fill="#84BE84" rx="3" ry="3" style="stroke: #038048; stroke-width: 1.0;"/><text fill="#000000" font-family="sans-serif" font-size="11" font-style="italic" lengthAdjust="spacingAndGlyphs" textLength="242" x="109" y="206.5151">TrackData receiveRfidRequest(int rfidNum)</text><line style="stroke: #A80036; stroke-width: 1.0; stroke-dasharray: 1.0,2.0;" x1="90" x2="190" y1="189.9023" y2="189.9023"/><text fill="#000000" font-family="sans-serif" font-size="11" lengthAdjust="spacingAndGlyphs" textLength="66" x="190" y="193.2104">Use Case 1</text><line style="stroke: #A80036; stroke-width: 1.0; stroke-dasharray: 1.0,2.0;" x1="256" x2="356" y1="189.9023" y2="189.9023"/><!--MD5=[f6b51b5f862da5ce226c62e411e84628]
class DisplayComm2WayInterface--><rect fill="#FEFECE" filter="url(#ftux4k70zpo3s)" height="77.6094" id="DisplayComm2WayInterface" style="stroke: #A80036; stroke-width: 1.5;" width="252" x="392" y="135.5"/><ellipse cx="427.7" cy="151.5" fill="#B4A7E5" rx="11" ry="11" style="stroke: #A80036; stroke-width: 1.0;"/><path d="M423.6219,147.2656 L423.6219,145.1094 L431.0125,145.1094 L431.0125,147.2656 L428.5438,147.2656 L428.5438,155.3438 L431.0125,155.3438 L431.0125,157.5 L423.6219,157.5 L423.6219,155.3438 L426.0906,155.3438 L426.0906,147.2656 L423.6219,147.2656 Z "/><text fill="#000000" font-family="sans-serif" font-size="12" font-style="italic" lengthAdjust="spacingAndGlyphs" textLength="174" x="446.3" y="155.6543">DisplayComm2WayInterface</text><line style="stroke: #A80036; stroke-width: 1.5;" x1="393" x2="643" y1="167.5" y2="167.5"/><line style="stroke: #A80036; stroke-width: 1.5;" x1="393" x2="643" y1="175.5" y2="175.5"/><ellipse cx="403" cy="203.3047" fill="#84BE84" rx="3" ry="3" style="stroke: #038048; stroke-width: 1.0;"/><text fill="#000000" font-family="sans-serif" font-size="11" font-style="italic" lengthAdjust="spacingAndGlyphs" textLength="226" x="412" y="206.5151">TrackData passRfidRequest(int rfidNum)</text><line style="stroke: #A80036; stroke-width: 1.0; stroke-dasharray: 1.0,2.0;" x1="393" x2="485" y1="189.9023" y2="189.9023"/><text fill="#000000" font-family="sans-serif" font-size="11" lengthAdjust="spacingAndGlyphs" textLength="66" x="485" y="193.2104">Use Case 1</text><line style="stroke: #A80036; stroke-width: 1.0; stroke-dasharray: 1.0,2.0;" x1="551" x2="643" y1="189.9023" y2="189.9023"/><!--MD5=[6aeb72f2773d7cabb45309482beeff0a]
class DisplayCommManager--><rect fill="#FEFECE" filter="url(#ftux4k70zpo3s)" height="77.6094" id="DisplayCommManager" style="stroke: #A80036; stroke-width: 1.5;" width="275" x="679.5" y="135.5"/><ellipse cx="744.25" cy="151.5" fill="#B4A7E5" rx="11" ry="11" style="stroke: #A80036; stroke-width: 1.0;"/><path d="M740.1719,147.2656 L740.1719,145.1094 L747.5625,145.1094 L747.5625,147.2656 L745.0938,147.2656 L745.0938,155.3438 L747.5625,155.3438 L747.5625,157.5 L740.1719,157.5 L740.1719,155.3438 L742.6406,155.3438 L742.6406,147.2656 L740.1719,147.2656 Z "/><text fill="#000000" font-family="sans-serif" font-size="12" font-style="italic" lengthAdjust="spacingAndGlyphs" textLength="137" x="764.75" y="155.6543">DisplayCommManager</text><line style="stroke: #A80036; stroke-width: 1.5;" x1="680.5" x2="953.5" y1="167.5" y2="167.5"/><line style="stroke: #A80036; stroke-width: 1.5;" x1="680.5" x2="953.5" y1="175.5" y2="175.5"/><ellipse cx="690.5" cy="203.3047" fill="#84BE84" rx="3" ry="3" style="stroke: #038048; stroke-width: 1.0;"/><text fill="#000000" font-family="sans-serif" font-size="11" font-style="italic" lengthAdjust="spacingAndGlyphs" textLength="249" x="699.5" y="206.5151">TrackData evaluateRfidRequest(int rfidNum)</text><line style="stroke: #A80036; stroke-width: 1.0; stroke-dasharray: 1.0,2.0;" x1="680.5" x2="784" y1="189.9023" y2="189.9023"/><text fill="#000000" font-family="sans-serif" font-size="11" lengthAdjust="spacingAndGlyphs" textLength="66" x="784" y="193.2104">Use Case 1</text><line style="stroke: #A80036; stroke-width: 1.0; stroke-dasharray: 1.0,2.0;" x1="850" x2="953.5" y1="189.9023" y2="189.9023"/><!--MD5=[a35092e604da7274febf4e2cf9a25087]
class DisplayCommInterfaceImplementation--><rect fill="#FEFECE" filter="url(#ftux4k70zpo3s)" height="116.0234" id="DisplayCommInterfaceImplementation" style="stroke: #A80036; stroke-width: 1.5;" width="369" x="38.5" y="363"/><ellipse cx="101.25" cy="379" fill="#ADD1B2" rx="11" ry="11" style="stroke: #A80036; stroke-width: 1.0;"/><path d="M104.2188,384.6406 Q103.6406,384.9375 103,385.0781 Q102.3594,385.2344 101.6563,385.2344 Q99.1563,385.2344 97.8281,383.5938 Q96.5156,381.9375 96.5156,378.8125 Q96.5156,375.6875 97.8281,374.0313 Q99.1563,372.375 101.6563,372.375 Q102.3594,372.375 103,372.5313 Q103.6563,372.6875 104.2188,372.9844 L104.2188,375.7031 Q103.5938,375.125 103,374.8594 Q102.4063,374.5781 101.7813,374.5781 Q100.4375,374.5781 99.75,375.6563 Q99.0625,376.7188 99.0625,378.8125 Q99.0625,380.9063 99.75,381.9844 Q100.4375,383.0469 101.7813,383.0469 Q102.4063,383.0469 103,382.7813 Q103.5938,382.5 104.2188,381.9219 L104.2188,384.6406 Z "/><text fill="#000000" font-family="sans-serif" font-size="12" lengthAdjust="spacingAndGlyphs" textLength="235" x="121.75" y="383.1543">DisplayCommInterfaceImplementation</text><line style="stroke: #A80036; stroke-width: 1.5;" x1="39.5" x2="406.5" y1="395" y2="395"/><rect fill="none" height="6" style="stroke: #C82930; stroke-width: 1.0;" width="6" x="46.5" y="403"/><text fill="#000000" font-family="sans-serif" font-size="11" lengthAdjust="spacingAndGlyphs" textLength="207" x="58.5" y="409.2104">DisplayComm2WayInterface receiver</text><line style="stroke: #A80036; stroke-width: 1.5;" x1="39.5" x2="406.5" y1="415.8047" y2="415.8047"/><ellipse cx="49.5" cy="426.8047" fill="#84BE84" rx="3" ry="3" style="stroke: #038048; stroke-width: 1.0;"/><text fill="#000000" font-family="sans-serif" font-size="11" lengthAdjust="spacingAndGlyphs" textLength="343" x="58.5" y="430.0151">DisplayCommInterface(DisplayComm2WayInterface receiver)</text><ellipse cx="49.5" cy="456.4141" fill="#84BE84" rx="3" ry="3" style="stroke: #038048; stroke-width: 1.0;"/><text fill="#000000" font-family="sans-serif" font-size="11" lengthAdjust="spacingAndGlyphs" textLength="240" x="58.5" y="459.6245">TrackData receiveRfidRequest(int rfidNum)</text><rect fill="#F24D5C" height="6" style="stroke: #C82930; stroke-width: 1.0;" width="6" x="46.5" y="466.2188"/><text fill="#000000" font-family="sans-serif" font-size="11" lengthAdjust="spacingAndGlyphs" textLength="290" x="58.5" y="472.4292">TrackData passToComm2WayInterface(int rfidNum)</text><line style="stroke: #A80036; stroke-width: 1.0; stroke-dasharray: 1.0,2.0;" x1="39.5" x2="190" y1="443.0117" y2="443.0117"/><text fill="#000000" font-family="sans-serif" font-size="11" lengthAdjust="spacingAndGlyphs" textLength="66" x="190" y="446.3198">Use Case 1</text><line style="stroke: #A80036; stroke-width: 1.0; stroke-dasharray: 1.0,2.0;" x1="256" x2="406.5" y1="443.0117" y2="443.0117"/><!--MD5=[46657c2900260d4d40350fe3f8c544df]
class DisplayComm2WayInterfaceImplementation--><rect fill="#FEFECE" filter="url(#ftux4k70zpo3s)" height="128.8281" id="DisplayComm2WayInterfaceImplementation" style="stroke: #A80036; stroke-width: 1.5;" width="461" x="442.5" y="356.5"/><ellipse cx="534.75" cy="372.5" fill="#ADD1B2" rx="11" ry="11" style="stroke: #A80036; stroke-width: 1.0;"/><path d="M537.7188,378.1406 Q537.1406,378.4375 536.5,378.5781 Q535.8594,378.7344 535.1563,378.7344 Q532.6563,378.7344 531.3281,377.0938 Q530.0156,375.4375 530.0156,372.3125 Q530.0156,369.1875 531.3281,367.5313 Q532.6563,365.875 535.1563,365.875 Q535.8594,365.875 536.5,366.0313 Q537.1563,366.1875 537.7188,366.4844 L537.7188,369.2031 Q537.0938,368.625 536.5,368.3594 Q535.9063,368.0781 535.2813,368.0781 Q533.9375,368.0781 533.25,369.1563 Q532.5625,370.2188 532.5625,372.3125 Q532.5625,374.4063 533.25,375.4844 Q533.9375,376.5469 535.2813,376.5469 Q535.9063,376.5469 536.5,376.2813 Q537.0938,376 537.7188,375.4219 L537.7188,378.1406 Z "/><text fill="#000000" font-family="sans-serif" font-size="12" lengthAdjust="spacingAndGlyphs" textLength="268" x="555.25" y="376.6543">DisplayComm2WayInterfaceImplementation</text><line style="stroke: #A80036; stroke-width: 1.5;" x1="443.5" x2="902.5" y1="388.5" y2="388.5"/><rect fill="none" height="6" style="stroke: #C82930; stroke-width: 1.0;" width="6" x="450.5" y="396.5"/><text fill="#000000" font-family="sans-serif" font-size="11" lengthAdjust="spacingAndGlyphs" textLength="182" x="462.5" y="402.7104">DisplayCommManager manager</text><line style="stroke: #A80036; stroke-width: 1.5;" x1="443.5" x2="902.5" y1="409.3047" y2="409.3047"/><ellipse cx="453.5" cy="420.3047" fill="#84BE84" rx="3" ry="3" style="stroke: #038048; stroke-width: 1.0;"/><text fill="#000000" font-family="sans-serif" font-size="11" lengthAdjust="spacingAndGlyphs" textLength="435" x="462.5" y="423.5151">DisplayComm2WayInterfaceImplementation(DisplayCommManager manager)</text><ellipse cx="453.5" cy="449.9141" fill="#84BE84" rx="3" ry="3" style="stroke: #038048; stroke-width: 1.0;"/><text fill="#000000" font-family="sans-serif" font-size="11" lengthAdjust="spacingAndGlyphs" textLength="227" x="462.5" y="453.1245">TrackData passRfidRequest(int rfidNum)</text><rect fill="#F24D5C" height="6" style="stroke: #C82930; stroke-width: 1.0;" width="6" x="450.5" y="459.7188"/><text fill="#000000" font-family="sans-serif" font-size="11" lengthAdjust="spacingAndGlyphs" textLength="269" x="462.5" y="465.9292">void determineUserRequestFormat(int rfidNum)</text><rect fill="#F24D5C" height="6" style="stroke: #C82930; stroke-width: 1.0;" width="6" x="450.5" y="472.5234"/><text fill="#000000" font-family="sans-serif" font-size="11" lengthAdjust="spacingAndGlyphs" textLength="342" x="462.5" y="478.7339">void receiveRequestFromDisplayCommInterface(int rfidNum)</text><line style="stroke: #A80036; stroke-width: 1.0; stroke-dasharray: 1.0,2.0;" x1="443.5" x2="640" y1="436.5117" y2="436.5117"/><text fill="#000000" font-family="sans-serif" font-size="11" lengthAdjust="spacingAndGlyphs" textLength="66" x="640" y="439.8198">Use Case 1</text><line style="stroke: #A80036; stroke-width: 1.0; stroke-dasharray: 1.0,2.0;" x1="706" x2="902.5" y1="436.5117" y2="436.5117"/><!--MD5=[3a27b63ddb357afc5dde5581215f51f9]
class DisplayCommManagerImplementation--><rect fill="#FEFECE" filter="url(#ftux4k70zpo3s)" height="141.6328" id="DisplayCommManagerImplementation" style="stroke: #A80036; stroke-width: 1.5;" width="470" x="939" y="350"/><ellipse cx="1052.75" cy="366" fill="#ADD1B2" rx="11" ry="11" style="stroke: #A80036; stroke-width: 1.0;"/><path d="M1055.7188,371.6406 Q1055.1406,371.9375 1054.5,372.0781 Q1053.8594,372.2344 1053.1563,372.2344 Q1050.6563,372.2344 1049.3281,370.5938 Q1048.0156,368.9375 1048.0156,365.8125 Q1048.0156,362.6875 1049.3281,361.0313 Q1050.6563,359.375 1053.1563,359.375 Q1053.8594,359.375 1054.5,359.5313 Q1055.1563,359.6875 1055.7188,359.9844 L1055.7188,362.7031 Q1055.0938,362.125 1054.5,361.8594 Q1053.9063,361.5781 1053.2813,361.5781 Q1051.9375,361.5781 1051.25,362.6563 Q1050.5625,363.7188 1050.5625,365.8125 Q1050.5625,367.9063 1051.25,368.9844 Q1051.9375,370.0469 1053.2813,370.0469 Q1053.9063,370.0469 1054.5,369.7813 Q1055.0938,369.5 1055.7188,368.9219 L1055.7188,371.6406 Z "/><text fill="#000000" font-family="sans-serif" font-size="12" lengthAdjust="spacingAndGlyphs" textLength="234" x="1073.25" y="370.1543">DisplayCommManagerImplementation</text><line style="stroke: #A80036; stroke-width: 1.5;" x1="940" x2="1408" y1="382" y2="382"/><rect fill="none" height="6" style="stroke: #C82930; stroke-width: 1.0;" width="6" x="947" y="390"/><text fill="#000000" font-family="sans-serif" font-size="11" lengthAdjust="spacingAndGlyphs" textLength="221" x="959" y="396.2104">MiddlewareCommInterface middleware</text><line style="stroke: #A80036; stroke-width: 1.5;" x1="940" x2="1408" y1="402.8047" y2="402.8047"/><ellipse cx="950" cy="413.8047" fill="#84BE84" rx="3" ry="3" style="stroke: #038048; stroke-width: 1.0;"/><text fill="#000000" font-family="sans-serif" font-size="11" lengthAdjust="spacingAndGlyphs" textLength="444" x="959" y="417.0151">DisplayCommManagerImplementation(MiddlewareCommInterface middleware)</text><ellipse cx="950" cy="443.4141" fill="#84BE84" rx="3" ry="3" style="stroke: #038048; stroke-width: 1.0;"/><text fill="#000000" font-family="sans-serif" font-size="11" lengthAdjust="spacingAndGlyphs" textLength="368" x="959" y="446.6245">TrackData receiveRequestFromDisplay2WayInterface(int rfidNum)</text><rect fill="#F24D5C" height="6" style="stroke: #C82930; stroke-width: 1.0;" width="6" x="947" y="453.2188"/><text fill="#000000" font-family="sans-serif" font-size="11" lengthAdjust="spacingAndGlyphs" textLength="247" x="959" y="459.4292">TrackData evaluateRfidRequest(int rfidNum)</text><rect fill="#F24D5C" height="6" style="stroke: #C82930; stroke-width: 1.0;" width="6" x="947" y="466.0234"/><text fill="#000000" font-family="sans-serif" font-size="11" lengthAdjust="spacingAndGlyphs" textLength="371" x="959" y="472.2339">TrackData passRequestToMiddlewareCommInterface(int rfidNum)</text><text fill="#000000" font-family="sans-serif" font-size="11" lengthAdjust="spacingAndGlyphs" textLength="0" x="963" y="485.0386"/><line style="stroke: #A80036; stroke-width: 1.0; stroke-dasharray: 1.0,2.0;" x1="940" x2="1141" y1="430.0117" y2="430.0117"/><text fill="#000000" font-family="sans-serif" font-size="11" lengthAdjust="spacingAndGlyphs" textLength="66" x="1141" y="433.3198">Use Case 1</text><line style="stroke: #A80036; stroke-width: 1.0; stroke-dasharray: 1.0,2.0;" x1="1207" x2="1408" y1="430.0117" y2="430.0117"/><!--MD5=[d454b7777f115113290d89683d7a426c]
class DisplayCommInterfaceImplementationTests--><rect fill="#FEFECE" filter="url(#ftux4k70zpo3s)" height="73.6094" id="DisplayCommInterfaceImplementationTests" style="stroke: #A80036; stroke-width: 1.5;" width="301" x="1465.5" y="137.5"/><ellipse cx="1480.5" cy="153.5" fill="#ADD1B2" rx="11" ry="11" style="stroke: #A80036; stroke-width: 1.0;"/><path d="M1483.4688,159.1406 Q1482.8906,159.4375 1482.25,159.5781 Q1481.6094,159.7344 1480.9063,159.7344 Q1478.4063,159.7344 1477.0781,158.0938 Q1475.7656,156.4375 1475.7656,153.3125 Q1475.7656,150.1875 1477.0781,148.5313 Q1478.4063,146.875 1480.9063,146.875 Q1481.6094,146.875 1482.25,147.0313 Q1482.9063,147.1875 1483.4688,147.4844 L1483.4688,150.2031 Q1482.8438,149.625 1482.25,149.3594 Q1481.6563,149.0781 1481.0313,149.0781 Q1479.6875,149.0781 1479,150.1563 Q1478.3125,151.2188 1478.3125,153.3125 Q1478.3125,155.4063 1479,156.4844 Q1479.6875,157.5469 1481.0313,157.5469 Q1481.6563,157.5469 1482.25,157.2813 Q1482.8438,157 1483.4688,156.4219 L1483.4688,159.1406 Z "/><text fill="#000000" font-family="sans-serif" font-size="12" lengthAdjust="spacingAndGlyphs" textLength="269" x="1494.5" y="157.6543">DisplayCommInterfaceImplementationTests</text><line style="stroke: #A80036; stroke-width: 1.5;" x1="1466.5" x2="1765.5" y1="169.5" y2="169.5"/><line style="stroke: #A80036; stroke-width: 1.5;" x1="1466.5" x2="1765.5" y1="177.5" y2="177.5"/><ellipse cx="1476.5" cy="188.5" fill="#84BE84" rx="3" ry="3" style="stroke: #038048; stroke-width: 1.0;"/><text fill="#000000" font-family="sans-serif" font-size="11" lengthAdjust="spacingAndGlyphs" textLength="116" x="1485.5" y="191.7104">void isRfidRecieved()</text><ellipse cx="1476.5" cy="201.3047" fill="#84BE84" rx="3" ry="3" style="stroke: #038048; stroke-width: 1.0;"/><text fill="#000000" font-family="sans-serif" font-size="11" lengthAdjust="spacingAndGlyphs" textLength="193" x="1485.5" y="204.5151">void passToComm2WayisNotNull()</text><!--MD5=[178181f4c7684560c711246055fc01d3]
class DisplayComm2WayInterfaceImplementationTests--><rect fill="#FEFECE" filter="url(#ftux4k70zpo3s)" height="48" id="DisplayComm2WayInterfaceImplementationTests" style="stroke: #A80036; stroke-width: 1.5;" width="334" x="1802" y="150.5"/><ellipse cx="1817" cy="166.5" fill="#ADD1B2" rx="11" ry="11" style="stroke: #A80036; stroke-width: 1.0;"/><path d="M1819.9688,172.1406 Q1819.3906,172.4375 1818.75,172.5781 Q1818.1094,172.7344 1817.4063,172.7344 Q1814.9063,172.7344 1813.5781,171.0938 Q1812.2656,169.4375 1812.2656,166.3125 Q1812.2656,163.1875 1813.5781,161.5313 Q1814.9063,159.875 1817.4063,159.875 Q1818.1094,159.875 1818.75,160.0313 Q1819.4063,160.1875 1819.9688,160.4844 L1819.9688,163.2031 Q1819.3438,162.625 1818.75,162.3594 Q1818.1563,162.0781 1817.5313,162.0781 Q1816.1875,162.0781 1815.5,163.1563 Q1814.8125,164.2188 1814.8125,166.3125 Q1814.8125,168.4063 1815.5,169.4844 Q1816.1875,170.5469 1817.5313,170.5469 Q1818.1563,170.5469 1818.75,170.2813 Q1819.3438,170 1819.9688,169.4219 L1819.9688,172.1406 Z "/><text fill="#000000" font-family="sans-serif" font-size="12" lengthAdjust="spacingAndGlyphs" textLength="302" x="1831" y="170.6543">DisplayComm2WayInterfaceImplementationTests</text><line style="stroke: #A80036; stroke-width: 1.5;" x1="1803" x2="2135" y1="182.5" y2="182.5"/><line style="stroke: #A80036; stroke-width: 1.5;" x1="1803" x2="2135" y1="190.5" y2="190.5"/><!--MD5=[937d6d8ff87a99d0d5dcd66ee05a1fa4]
class DisplayCommManagerImplementationTests--><rect fill="#FEFECE" filter="url(#ftux4k70zpo3s)" height="48" id="DisplayCommManagerImplementationTests" style="stroke: #A80036; stroke-width: 1.5;" width="300" x="2171" y="150.5"/><ellipse cx="2186" cy="166.5" fill="#ADD1B2" rx="11" ry="11" style="stroke: #A80036; stroke-width: 1.0;"/><path d="M2188.9688,172.1406 Q2188.3906,172.4375 2187.75,172.5781 Q2187.1094,172.7344 2186.4063,172.7344 Q2183.9063,172.7344 2182.5781,171.0938 Q2181.2656,169.4375 2181.2656,166.3125 Q2181.2656,163.1875 2182.5781,161.5313 Q2183.9063,159.875 2186.4063,159.875 Q2187.1094,159.875 2187.75,160.0313 Q2188.4063,160.1875 2188.9688,160.4844 L2188.9688,163.2031 Q2188.3438,162.625 2187.75,162.3594 Q2187.1563,162.0781 2186.5313,162.0781 Q2185.1875,162.0781 2184.5,163.1563 Q2183.8125,164.2188 2183.8125,166.3125 Q2183.8125,168.4063 2184.5,169.4844 Q2185.1875,170.5469 2186.5313,170.5469 Q2187.1563,170.5469 2187.75,170.2813 Q2188.3438,170 2188.9688,169.4219 L2188.9688,172.1406 Z "/><text fill="#000000" font-family="sans-serif" font-size="12" lengthAdjust="spacingAndGlyphs" textLength="268" x="2200" y="170.6543">DisplayCommManagerImplementationTests</text><line style="stroke: #A80036; stroke-width: 1.5;" x1="2172" x2="2470" y1="182.5" y2="182.5"/><line style="stroke: #A80036; stroke-width: 1.5;" x1="2172" x2="2470" y1="190.5" y2="190.5"/><!--MD5=[930c8140e7c1cb8e71aa7cd49967748e]
class TrackDataPlotterTests--><rect fill="#FEFECE" filter="url(#ftux4k70zpo3s)" height="48" id="TrackDataPlotterTests" style="stroke: #A80036; stroke-width: 1.5;" width="172" x="1530" y="397"/><ellipse cx="1545" cy="413" fill="#ADD1B2" rx="11" ry="11" style="stroke: #A80036; stroke-width: 1.0;"/><path d="M1547.9688,418.6406 Q1547.3906,418.9375 1546.75,419.0781 Q1546.1094,419.2344 1545.4063,419.2344 Q1542.9063,419.2344 1541.5781,417.5938 Q1540.2656,415.9375 1540.2656,412.8125 Q1540.2656,409.6875 1541.5781,408.0313 Q1542.9063,406.375 1545.4063,406.375 Q1546.1094,406.375 1546.75,406.5313 Q1547.4063,406.6875 1547.9688,406.9844 L1547.9688,409.7031 Q1547.3438,409.125 1546.75,408.8594 Q1546.1563,408.5781 1545.5313,408.5781 Q1544.1875,408.5781 1543.5,409.6563 Q1542.8125,410.7188 1542.8125,412.8125 Q1542.8125,414.9063 1543.5,415.9844 Q1544.1875,417.0469 1545.5313,417.0469 Q1546.1563,417.0469 1546.75,416.7813 Q1547.3438,416.5 1547.9688,415.9219 L1547.9688,418.6406 Z "/><text fill="#000000" font-family="sans-serif" font-size="12" lengthAdjust="spacingAndGlyphs" textLength="140" x="1559" y="417.1543">TrackDataPlotterTests</text><line style="stroke: #A80036; stroke-width: 1.5;" x1="1531" x2="1701" y1="429" y2="429"/><line style="stroke: #A80036; stroke-width: 1.5;" x1="1531" x2="1701" y1="437" y2="437"/><!--MD5=[a333ac13e0fdf2a5898aafabd38d3c1b]
class DisplayComm2WayInterfaceStub--><rect fill="#FEFECE" filter="url(#ftux4k70zpo3s)" height="77.6094" id="DisplayComm2WayInterfaceStub" style="stroke: #A80036; stroke-width: 1.5;" width="252" x="1737" y="382"/><ellipse cx="1761" cy="398" fill="#ADD1B2" rx="11" ry="11" style="stroke: #A80036; stroke-width: 1.0;"/><path d="M1763.9688,403.6406 Q1763.3906,403.9375 1762.75,404.0781 Q1762.1094,404.2344 1761.4063,404.2344 Q1758.9063,404.2344 1757.5781,402.5938 Q1756.2656,400.9375 1756.2656,397.8125 Q1756.2656,394.6875 1757.5781,393.0313 Q1758.9063,391.375 1761.4063,391.375 Q1762.1094,391.375 1762.75,391.5313 Q1763.4063,391.6875 1763.9688,391.9844 L1763.9688,394.7031 Q1763.3438,394.125 1762.75,393.8594 Q1762.1563,393.5781 1761.5313,393.5781 Q1760.1875,393.5781 1759.5,394.6563 Q1758.8125,395.7188 1758.8125,397.8125 Q1758.8125,399.9063 1759.5,400.9844 Q1760.1875,402.0469 1761.5313,402.0469 Q1762.1563,402.0469 1762.75,401.7813 Q1763.3438,401.5 1763.9688,400.9219 L1763.9688,403.6406 Z "/><text fill="#000000" font-family="sans-serif" font-size="12" lengthAdjust="spacingAndGlyphs" textLength="200" x="1777" y="402.1543">DisplayComm2WayInterfaceStub</text><line style="stroke: #A80036; stroke-width: 1.5;" x1="1738" x2="1988" y1="414" y2="414"/><line style="stroke: #A80036; stroke-width: 1.5;" x1="1738" x2="1988" y1="422" y2="422"/><ellipse cx="1748" cy="449.8047" fill="#84BE84" rx="3" ry="3" style="stroke: #038048; stroke-width: 1.0;"/><text fill="#000000" font-family="sans-serif" font-size="11" font-style="italic" lengthAdjust="spacingAndGlyphs" textLength="226" x="1757" y="453.0151">TrackData passRfidRequest(int rfidNum)</text><line style="stroke: #A80036; stroke-width: 1.0; stroke-dasharray: 1.0,2.0;" x1="1738" x2="1830" y1="436.4023" y2="436.4023"/><text fill="#000000" font-family="sans-serif" font-size="11" lengthAdjust="spacingAndGlyphs" textLength="66" x="1830" y="439.7104">Use Case 1</text><line style="stroke: #A80036; stroke-width: 1.0; stroke-dasharray: 1.0,2.0;" x1="1896" x2="1988" y1="436.4023" y2="436.4023"/><!--MD5=[2970358178d6cf57fc5a801b39eb8d0b]
class DisplayCommManagerStub--><rect fill="#FEFECE" filter="url(#ftux4k70zpo3s)" height="77.6094" id="DisplayCommManagerStub" style="stroke: #A80036; stroke-width: 1.5;" width="273" x="2024.5" y="382"/><ellipse cx="2073.75" cy="398" fill="#ADD1B2" rx="11" ry="11" style="stroke: #A80036; stroke-width: 1.0;"/><path d="M2076.7188,403.6406 Q2076.1406,403.9375 2075.5,404.0781 Q2074.8594,404.2344 2074.1563,404.2344 Q2071.6563,404.2344 2070.3281,402.5938 Q2069.0156,400.9375 2069.0156,397.8125 Q2069.0156,394.6875 2070.3281,393.0313 Q2071.6563,391.375 2074.1563,391.375 Q2074.8594,391.375 2075.5,391.5313 Q2076.1563,391.6875 2076.7188,391.9844 L2076.7188,394.7031 Q2076.0938,394.125 2075.5,393.8594 Q2074.9063,393.5781 2074.2813,393.5781 Q2072.9375,393.5781 2072.25,394.6563 Q2071.5625,395.7188 2071.5625,397.8125 Q2071.5625,399.9063 2072.25,400.9844 Q2072.9375,402.0469 2074.2813,402.0469 Q2074.9063,402.0469 2075.5,401.7813 Q2076.0938,401.5 2076.7188,400.9219 L2076.7188,403.6406 Z "/><text fill="#000000" font-family="sans-serif" font-size="12" lengthAdjust="spacingAndGlyphs" textLength="166" x="2094.25" y="402.1543">DisplayCommManagerStub</text><line style="stroke: #A80036; stroke-width: 1.5;" x1="2025.5" x2="2296.5" y1="414" y2="414"/><line style="stroke: #A80036; stroke-width: 1.5;" x1="2025.5" x2="2296.5" y1="422" y2="422"/><ellipse cx="2035.5" cy="449.8047" fill="#84BE84" rx="3" ry="3" style="stroke: #038048; stroke-width: 1.0;"/><text fill="#000000" font-family="sans-serif" font-size="11" lengthAdjust="spacingAndGlyphs" textLength="247" x="2044.5" y="453.0151">TrackData evaluateRfidRequest(int rfidNum)</text><line style="stroke: #A80036; stroke-width: 1.0; stroke-dasharray: 1.0,2.0;" x1="2025.5" x2="2128" y1="436.4023" y2="436.4023"/><text fill="#000000" font-family="sans-serif" font-size="11" lengthAdjust="spacingAndGlyphs" textLength="66" x="2128" y="439.7104">Use Case 1</text><line style="stroke: #A80036; stroke-width: 1.0; stroke-dasharray: 1.0,2.0;" x1="2194" x2="2296.5" y1="436.4023" y2="436.4023"/><!--MD5=[cf56a65163663c6c6c7b84cd7c204b97]
class MiddlewareCommInterfaceStub--><rect fill="#FEFECE" filter="url(#ftux4k70zpo3s)" height="77.6094" id="MiddlewareCommInterfaceStub" style="stroke: #A80036; stroke-width: 1.5;" width="225" x="1503.5" y="552"/><ellipse cx="1518.5" cy="568" fill="#ADD1B2" rx="11" ry="11" style="stroke: #A80036; stroke-width: 1.0;"/><path d="M1521.4688,573.6406 Q1520.8906,573.9375 1520.25,574.0781 Q1519.6094,574.2344 1518.9063,574.2344 Q1516.4063,574.2344 1515.0781,572.5938 Q1513.7656,570.9375 1513.7656,567.8125 Q1513.7656,564.6875 1515.0781,563.0313 Q1516.4063,561.375 1518.9063,561.375 Q1519.6094,561.375 1520.25,561.5313 Q1520.9063,561.6875 1521.4688,561.9844 L1521.4688,564.7031 Q1520.8438,564.125 1520.25,563.8594 Q1519.6563,563.5781 1519.0313,563.5781 Q1517.6875,563.5781 1517,564.6563 Q1516.3125,565.7188 1516.3125,567.8125 Q1516.3125,569.9063 1517,570.9844 Q1517.6875,572.0469 1519.0313,572.0469 Q1519.6563,572.0469 1520.25,571.7813 Q1520.8438,571.5 1521.4688,570.9219 L1521.4688,573.6406 Z "/><text fill="#000000" font-family="sans-serif" font-size="12" lengthAdjust="spacingAndGlyphs" textLength="193" x="1532.5" y="572.1543">MiddlewareCommInterfaceStub</text><line style="stroke: #A80036; stroke-width: 1.5;" x1="1504.5" x2="1727.5" y1="584" y2="584"/><line style="stroke: #A80036; stroke-width: 1.5;" x1="1504.5" x2="1727.5" y1="592" y2="592"/><ellipse cx="1514.5" cy="619.8047" fill="#84BE84" rx="3" ry="3" style="stroke: #038048; stroke-width: 1.0;"/><text fill="#000000" font-family="sans-serif" font-size="11" lengthAdjust="spacingAndGlyphs" textLength="171" x="1523.5" y="623.0151">TrackData requestRfid(int rfid)</text><line style="stroke: #A80036; stroke-width: 1.0; stroke-dasharray: 1.0,2.0;" x1="1504.5" x2="1583" y1="606.4023" y2="606.4023"/><text fill="#000000" font-family="sans-serif" font-size="11" lengthAdjust="spacingAndGlyphs" textLength="66" x="1583" y="609.7104">Use Case 1</text><line style="stroke: #A80036; stroke-width: 1.0; stroke-dasharray: 1.0,2.0;" x1="1649" x2="1727.5" y1="606.4023" y2="606.4023"/><!--MD5=[c986427b061286eff33e87a088ad4bf9]
class TrackDataPlotter--><rect fill="#FEFECE" filter="url(#ftux4k70zpo3s)" height="231.2656" id="TrackDataPlotter" style="stroke: #A80036; stroke-width: 1.5;" width="291" x="2526.5" y="59"/><ellipse cx="2614.75" cy="75" fill="#ADD1B2" rx="11" ry="11" style="stroke: #A80036; stroke-width: 1.0;"/><path d="M2617.7188,80.6406 Q2617.1406,80.9375 2616.5,81.0781 Q2615.8594,81.2344 2615.1563,81.2344 Q2612.6563,81.2344 2611.3281,79.5938 Q2610.0156,77.9375 2610.0156,74.8125 Q2610.0156,71.6875 2611.3281,70.0313 Q2612.6563,68.375 2615.1563,68.375 Q2615.8594,68.375 2616.5,68.5313 Q2617.1563,68.6875 2617.7188,68.9844 L2617.7188,71.7031 Q2617.0938,71.125 2616.5,70.8594 Q2615.9063,70.5781 2615.2813,70.5781 Q2613.9375,70.5781 2613.25,71.6563 Q2612.5625,72.7188 2612.5625,74.8125 Q2612.5625,76.9063 2613.25,77.9844 Q2613.9375,79.0469 2615.2813,79.0469 Q2615.9063,79.0469 2616.5,78.7813 Q2617.0938,78.5 2617.7188,77.9219 L2617.7188,80.6406 Z "/><text fill="#000000" font-family="sans-serif" font-size="12" lengthAdjust="spacingAndGlyphs" textLength="106" x="2635.25" y="79.1543">TrackDataPlotter</text><line style="stroke: #A80036; stroke-width: 1.5;" x1="2527.5" x2="2816.5" y1="91" y2="91"/><rect fill="none" height="6" style="stroke: #C82930; stroke-width: 1.0;" width="6" x="2534.5" y="99"/><text fill="#000000" font-family="sans-serif" font-size="11" lengthAdjust="spacingAndGlyphs" textLength="86" x="2546.5" y="105.2104">TrackData data</text><rect fill="none" height="6" style="stroke: #C82930; stroke-width: 1.0;" width="6" x="2534.5" y="111.8047"/><text fill="#000000" font-family="sans-serif" font-size="11" lengthAdjust="spacingAndGlyphs" textLength="97" x="2546.5" y="118.0151">XYDataset points</text><rect fill="none" height="6" style="stroke: #C82930; stroke-width: 1.0;" width="6" x="2534.5" y="124.6094"/><text fill="#000000" font-family="sans-serif" font-size="11" lengthAdjust="spacingAndGlyphs" textLength="82" x="2546.5" y="130.8198">XYDataset line</text><rect fill="none" height="6" style="stroke: #C82930; stroke-width: 1.0;" width="6" x="2534.5" y="137.4141"/><text fill="#000000" font-family="sans-serif" font-size="11" lengthAdjust="spacingAndGlyphs" textLength="99" x="2546.5" y="143.6245">JFreeChart chart1</text><rect fill="none" height="6" style="stroke: #C82930; stroke-width: 1.0;" width="6" x="2534.5" y="150.2188"/><text fill="#000000" font-family="sans-serif" font-size="11" lengthAdjust="spacingAndGlyphs" textLength="99" x="2546.5" y="156.4292">JFreeChart chart2</text><rect fill="none" height="6" style="stroke: #C82930; stroke-width: 1.0;" width="6" x="2534.5" y="163.0234"/><text fill="#000000" font-family="sans-serif" font-size="11" lengthAdjust="spacingAndGlyphs" textLength="60" x="2546.5" y="169.2339">XYPlot plot</text><rect fill="none" height="6" style="stroke: #C82930; stroke-width: 1.0;" width="6" x="2534.5" y="175.8281"/><text fill="#000000" font-family="sans-serif" font-size="11" lengthAdjust="spacingAndGlyphs" textLength="133" x="2546.5" y="182.0386">ChartPanel chartPanel1</text><rect fill="none" height="6" style="stroke: #C82930; stroke-width: 1.0;" width="6" x="2534.5" y="188.6328"/><text fill="#000000" font-family="sans-serif" font-size="11" lengthAdjust="spacingAndGlyphs" textLength="133" x="2546.5" y="194.8433">ChartPanel chartPanel2</text><line style="stroke: #A80036; stroke-width: 1.5;" x1="2527.5" x2="2816.5" y1="201.4375" y2="201.4375"/><ellipse cx="2537.5" cy="212.4375" fill="#84BE84" rx="3" ry="3" style="stroke: #038048; stroke-width: 1.0;"/><text fill="#000000" font-family="sans-serif" font-size="11" lengthAdjust="spacingAndGlyphs" textLength="188" x="2546.5" y="215.6479">TrackDataPlotter(TrackData data)</text><rect fill="#F24D5C" height="6" style="stroke: #C82930; stroke-width: 1.0;" width="6" x="2534.5" y="239.0469"/><text fill="#000000" font-family="sans-serif" font-size="11" lengthAdjust="spacingAndGlyphs" textLength="138" x="2546.5" y="245.2573">XYSeries getTrackData()</text><rect fill="#F24D5C" height="6" style="stroke: #C82930; stroke-width: 1.0;" width="6" x="2534.5" y="251.8516"/><text fill="#000000" font-family="sans-serif" font-size="11" lengthAdjust="spacingAndGlyphs" textLength="208" x="2546.5" y="258.062">XYSeries calculateLine(int[] x, int[] y)</text><rect fill="#F24D5C" height="6" style="stroke: #C82930; stroke-width: 1.0;" width="6" x="2534.5" y="264.6563"/><text fill="#000000" font-family="sans-serif" font-size="11" lengthAdjust="spacingAndGlyphs" textLength="262" x="2546.5" y="270.8667">int[] extractLatFromTrackData(TrackData data)</text><rect fill="#F24D5C" height="6" style="stroke: #C82930; stroke-width: 1.0;" width="6" x="2534.5" y="277.4609"/><text fill="#000000" font-family="sans-serif" font-size="11" lengthAdjust="spacingAndGlyphs" textLength="265" x="2546.5" y="283.6714">int[] extractLngFromTrackData(TrackData data)</text><line style="stroke: #A80036; stroke-width: 1.0; stroke-dasharray: 1.0,2.0;" x1="2527.5" x2="2639" y1="228.6445" y2="228.6445"/><text fill="#000000" font-family="sans-serif" font-size="11" lengthAdjust="spacingAndGlyphs" textLength="66" x="2639" y="231.9526">Use Case 1</text><line style="stroke: #A80036; stroke-width: 1.0; stroke-dasharray: 1.0,2.0;" x1="2705" x2="2816.5" y1="228.6445" y2="228.6445"/><!--MD5=[c9341cce37a1a8bee80ad1365349afef]
link DisplayCommInterface to DisplayComm2WayInterface--><!--MD5=[7835b7bc4a765bae53638d0402d5d5e6]
link DisplayComm2WayInterface to DisplayCommManager--><!--MD5=[7d92106ecb9088e13e6754b44ec571b0]
link DisplayCommInterface to DisplayCommInterfaceImplementation--><!--MD5=[51e28edbb9f88779af066724948e7048]
link DisplayCommInterfaceImplementation to DisplayComm2WayInterfaceImplementation--><!--MD5=[ea4cd417ea9ea2c0dbdbdf4e4e3d21de]
link DisplayComm2WayInterfaceImplementation to DisplayCommManagerImplementation--><!--MD5=[64e942b00478e9eef28430a914bbb142]
link DisplayCommInterfaceImplementationTests to DisplayComm2WayInterfaceImplementationTests--><!--MD5=[8dbe1f493aaf019419238fc4702b450a]
link DisplayComm2WayInterfaceImplementationTests to DisplayCommManagerImplementationTests--><!--MD5=[e81de192ca7bc9df286fd4cb58be8b46]
link DisplayCommInterfaceImplementationTests to TrackDataPlotterTests--><!--MD5=[8b898a72046de76ad345afd61090e7dd]
link TrackDataPlotterTests to DisplayComm2WayInterfaceStub--><!--MD5=[c9c9241041dbc47aa626fe1afc095e03]
link DisplayComm2WayInterfaceStub to DisplayCommManagerStub--><!--MD5=[61d9c608a539b4614526ad59aeb385a2]
link TrackDataPlotterTests to MiddlewareCommInterfaceStub--><!--MD5=[d773b0edb1ed8256dd69efe33cb9c7e5]
@startuml Display02Packages


package edu.oakland.production.display02 {

}


package edu.oakland.production.display02 {
    interface DisplayCommInterface {
        __
        .. Use Case 1 ..
        {abstract} + TrackData receiveRfidRequest(int rfidNum)
    }
}


package edu.oakland.production.display02 {
    interface DisplayComm2WayInterface {
        __
        .. Use Case 1 ..
        {abstract} + TrackData passRfidRequest(int rfidNum)
    }
}


package edu.oakland.production.display02 {
    interface DisplayCommManager {
        __
        .. Use Case 1 ..
        {abstract} + TrackData evaluateRfidRequest(int rfidNum)
    }
}


package edu.oakland.production.display02 {
    class DisplayCommInterfaceImplementation {
        - DisplayComm2WayInterface receiver
        __
        + DisplayCommInterface(DisplayComm2WayInterface receiver)
        .. Use Case 1 ..
        + TrackData receiveRfidRequest(int rfidNum)
        - TrackData passToComm2WayInterface(int rfidNum)
    }
}


package edu.oakland.production.display02 {
    class DisplayComm2WayInterfaceImplementation {
        - DisplayCommManager manager
        __
        + DisplayComm2WayInterfaceImplementation(DisplayCommManager manager)
        .. Use Case 1 ..
        + TrackData passRfidRequest(int rfidNum)
        - void determineUserRequestFormat(int rfidNum)
        - void receiveRequestFromDisplayCommInterface(int rfidNum)
    }
}


package edu.oakland.production.display02 {
    class DisplayCommManagerImplementation {
        - MiddlewareCommInterface middleware
        __
        + DisplayCommManagerImplementation(MiddlewareCommInterface middleware)
        .. Use Case 1 ..
        + TrackData receiveRequestFromDisplay2WayInterface(int rfidNum)
        - TrackData evaluateRfidRequest(int rfidNum)
        - TrackData passRequestToMiddlewareCommInterface(int rfidNum)
        
    }
}



package edu.oakland.test.display02 {
    
}


package edu.oakland.test.display02 {
    class DisplayCommInterfaceImplementationTests {
        + void isRfidRecieved()
        + void passToComm2WayisNotNull()
    }
}


package edu.oakland.test.display02 {
    class DisplayComm2WayInterfaceImplementationTests {

    }
}


package edu.oakland.test.display02 {
    class DisplayCommManagerImplementationTests {

    }
}


package edu.oakland.test.display02 {
    class TrackDataPlotterTests {

    }
}


package edu.oakland.test.display02 {
    class DisplayComm2WayInterfaceStub {
        __
        .. Use Case 1 ..
        {abstract} + TrackData passRfidRequest(int rfidNum)
    }
}


package edu.oakland.test.display02 {
    class DisplayCommManagerStub {
        __
        .. Use Case 1 ..
        + TrackData evaluateRfidRequest(int rfidNum)
    }
}


package edu.oakland.test.display02 {
    class MiddlewareCommInterfaceStub {
        __
        .. Use Case 1 ..
        + TrackData requestRfid(int rfid)
    }
}



package edu.oakland.helper.display02 {

}


package edu.oakland.helper.display02 {
    class TrackDataPlotter {
        - TrackData data
        - XYDataset points
        - XYDataset line
        - JFreeChart chart1
        - JFreeChart chart2
        - XYPlot plot
        - ChartPanel chartPanel1
        - ChartPanel chartPanel2
        __
        + TrackDataPlotter(TrackData data)
        .. Use Case 1 ..
        - XYSeries getTrackData()
        - XYSeries calculateLine(int[] x, int[] y)
        - int[] extractLatFromTrackData(TrackData data)
        - int[] extractLngFromTrackData(TrackData data)
    }
}



@enduml

PlantUML version 1.2020.02(Sun Mar 01 10:22:07 GMT 2020)
(GPL source distribution)
Java Runtime: OpenJDK Runtime Environment
JVM: OpenJDK 64-Bit Server VM
Java Version: 11.0.9+11-Ubuntu-0ubuntu1
Operating System: Linux
Default Encoding: ANSI_X3.4-1968
Language: en
Country: US
--></g></svg>