<?xml version="1.0" encoding="UTF-8" standalone="no"?><svg xmlns="http://www.w3.org/2000/svg" xmlns:xlink="http://www.w3.org/1999/xlink" contentScriptType="application/ecmascript" contentStyleType="text/css" height="471px" preserveAspectRatio="none" style="width:3062px;height:471px;" version="1.1" viewBox="0 0 3062 471" width="3062px" zoomAndPan="magnify"><defs><filter height="300%" id="fmzpwn8q9icf2" width="300%" x="-1" y="-1"><feGaussianBlur result="blurOut" stdDeviation="2.0"/><feColorMatrix in="blurOut" result="blurOut2" type="matrix" values="0 0 0 0 0 0 0 0 0 0 0 0 0 0 0 0 0 0 .4 0"/><feOffset dx="4.0" dy="4.0" in="blurOut2" result="blurOut3"/><feBlend in="SourceGraphic" in2="blurOut3" mode="normal"/></filter></defs><g><!--MD5=[fe59aae6f7bfe371a9c197ec1f7f843a]
cluster edu.oakland.production.display02--><polygon fill="#FFFFFF" filter="url(#fmzpwn8q9icf2)" points="22,24,295,24,302,46.2969,1425,46.2969,1425,414.5,22,414.5,22,24" style="stroke: #000000; stroke-width: 1.5;"/><line style="stroke: #000000; stroke-width: 1.5;" x1="22" x2="302" y1="46.2969" y2="46.2969"/><text fill="#000000" font-family="sans-serif" font-size="14" font-weight="bold" lengthAdjust="spacingAndGlyphs" textLength="267" x="26" y="38.9951">edu.oakland.production.display02</text><!--MD5=[9258003ec405d300d3379b4a3d8dd6ad]
cluster edu.oakland.test.display02--><polygon fill="#FFFFFF" filter="url(#fmzpwn8q9icf2)" points="1449,39,1667,39,1674,61.2969,2694,61.2969,2694,382.5,1449,382.5,1449,39" style="stroke: #000000; stroke-width: 1.5;"/><line style="stroke: #000000; stroke-width: 1.5;" x1="1449" x2="1674" y1="61.2969" y2="61.2969"/><text fill="#000000" font-family="sans-serif" font-size="14" font-weight="bold" lengthAdjust="spacingAndGlyphs" textLength="212" x="1453" y="53.9951">edu.oakland.test.display02</text><!--MD5=[a502031b5a5384de0a21e6ee820fd3b2]
cluster edu.oakland.helper.display02--><polygon fill="#FFFFFF" filter="url(#fmzpwn8q9icf2)" points="2718,177,2956,177,2963,199.2969,3040,199.2969,3040,459,2718,459,2718,177" style="stroke: #000000; stroke-width: 1.5;"/><line style="stroke: #000000; stroke-width: 1.5;" x1="2718" x2="2963" y1="199.2969" y2="199.2969"/><text fill="#000000" font-family="sans-serif" font-size="14" font-weight="bold" lengthAdjust="spacingAndGlyphs" textLength="232" x="2722" y="191.9951">edu.oakland.helper.display02</text><!--MD5=[33504725b8a69ba2207f0a836957a91c]
cluster edu.oakland.production.middleware02--><polygon fill="#FFFFFF" filter="url(#fmzpwn8q9icf2)" points="2718,24,3028,24,3035,46.2969,3038,46.2969,3038,153,2718,153,2718,24" style="stroke: #000000; stroke-width: 1.5;"/><line style="stroke: #000000; stroke-width: 1.5;" x1="2718" x2="3035" y1="46.2969" y2="46.2969"/><text fill="#000000" font-family="sans-serif" font-size="14" font-weight="bold" lengthAdjust="spacingAndGlyphs" textLength="304" x="2722" y="38.9951">edu.oakland.production.middleware02</text><!--MD5=[c8d1e3134fecb0c949fd2a76cc0bb992]
class DisplayCommInterface--><rect fill="#FEFECE" filter="url(#fmzpwn8q9icf2)" height="77.6094" id="DisplayCommInterface" style="stroke: #A80036; stroke-width: 1.5;" width="268" x="89" y="59"/><ellipse cx="149.25" cy="75" fill="#B4A7E5" rx="11" ry="11" style="stroke: #A80036; stroke-width: 1.0;"/><path d="M145.1719,70.7656 L145.1719,68.6094 L152.5625,68.6094 L152.5625,70.7656 L150.0938,70.7656 L150.0938,78.8438 L152.5625,78.8438 L152.5625,81 L145.1719,81 L145.1719,78.8438 L147.6406,78.8438 L147.6406,70.7656 L145.1719,70.7656 Z "/><text fill="#000000" font-family="sans-serif" font-size="12" font-style="italic" lengthAdjust="spacingAndGlyphs" textLength="139" x="169.75" y="79.1543">DisplayCommInterface</text><line style="stroke: #A80036; stroke-width: 1.5;" x1="90" x2="356" y1="91" y2="91"/><line style="stroke: #A80036; stroke-width: 1.5;" x1="90" x2="356" y1="99" y2="99"/><ellipse cx="100" cy="126.8047" fill="#84BE84" rx="3" ry="3" style="stroke: #038048; stroke-width: 1.0;"/><text fill="#000000" font-family="sans-serif" font-size="11" font-style="italic" lengthAdjust="spacingAndGlyphs" textLength="242" x="109" y="130.0151">TrackData receiveRfidRequest(int rfidNum)</text><line style="stroke: #A80036; stroke-width: 1.0; stroke-dasharray: 1.0,2.0;" x1="90" x2="190" y1="113.4023" y2="113.4023"/><text fill="#000000" font-family="sans-serif" font-size="11" lengthAdjust="spacingAndGlyphs" textLength="66" x="190" y="116.7104">Use Case 1</text><line style="stroke: #A80036; stroke-width: 1.0; stroke-dasharray: 1.0,2.0;" x1="256" x2="356" y1="113.4023" y2="113.4023"/><!--MD5=[f6b51b5f862da5ce226c62e411e84628]
class DisplayComm2WayInterface--><rect fill="#FEFECE" filter="url(#fmzpwn8q9icf2)" height="77.6094" id="DisplayComm2WayInterface" style="stroke: #A80036; stroke-width: 1.5;" width="252" x="672" y="59"/><ellipse cx="707.7" cy="75" fill="#B4A7E5" rx="11" ry="11" style="stroke: #A80036; stroke-width: 1.0;"/><path d="M703.6219,70.7656 L703.6219,68.6094 L711.0125,68.6094 L711.0125,70.7656 L708.5438,70.7656 L708.5438,78.8438 L711.0125,78.8438 L711.0125,81 L703.6219,81 L703.6219,78.8438 L706.0906,78.8438 L706.0906,70.7656 L703.6219,70.7656 Z "/><text fill="#000000" font-family="sans-serif" font-size="12" font-style="italic" lengthAdjust="spacingAndGlyphs" textLength="174" x="726.3" y="79.1543">DisplayComm2WayInterface</text><line style="stroke: #A80036; stroke-width: 1.5;" x1="673" x2="923" y1="91" y2="91"/><line style="stroke: #A80036; stroke-width: 1.5;" x1="673" x2="923" y1="99" y2="99"/><ellipse cx="683" cy="126.8047" fill="#84BE84" rx="3" ry="3" style="stroke: #038048; stroke-width: 1.0;"/><text fill="#000000" font-family="sans-serif" font-size="11" font-style="italic" lengthAdjust="spacingAndGlyphs" textLength="226" x="692" y="130.0151">TrackData passRfidRequest(int rfidNum)</text><line style="stroke: #A80036; stroke-width: 1.0; stroke-dasharray: 1.0,2.0;" x1="673" x2="765" y1="113.4023" y2="113.4023"/><text fill="#000000" font-family="sans-serif" font-size="11" lengthAdjust="spacingAndGlyphs" textLength="66" x="765" y="116.7104">Use Case 1</text><line style="stroke: #A80036; stroke-width: 1.0; stroke-dasharray: 1.0,2.0;" x1="831" x2="923" y1="113.4023" y2="113.4023"/><!--MD5=[6aeb72f2773d7cabb45309482beeff0a]
class DisplayCommManager--><rect fill="#FEFECE" filter="url(#fmzpwn8q9icf2)" height="77.6094" id="DisplayCommManager" style="stroke: #A80036; stroke-width: 1.5;" width="275" x="1084.5" y="59"/><ellipse cx="1149.25" cy="75" fill="#B4A7E5" rx="11" ry="11" style="stroke: #A80036; stroke-width: 1.0;"/><path d="M1145.1719,70.7656 L1145.1719,68.6094 L1152.5625,68.6094 L1152.5625,70.7656 L1150.0938,70.7656 L1150.0938,78.8438 L1152.5625,78.8438 L1152.5625,81 L1145.1719,81 L1145.1719,78.8438 L1147.6406,78.8438 L1147.6406,70.7656 L1145.1719,70.7656 Z "/><text fill="#000000" font-family="sans-serif" font-size="12" font-style="italic" lengthAdjust="spacingAndGlyphs" textLength="137" x="1169.75" y="79.1543">DisplayCommManager</text><line style="stroke: #A80036; stroke-width: 1.5;" x1="1085.5" x2="1358.5" y1="91" y2="91"/><line style="stroke: #A80036; stroke-width: 1.5;" x1="1085.5" x2="1358.5" y1="99" y2="99"/><ellipse cx="1095.5" cy="126.8047" fill="#84BE84" rx="3" ry="3" style="stroke: #038048; stroke-width: 1.0;"/><text fill="#000000" font-family="sans-serif" font-size="11" font-style="italic" lengthAdjust="spacingAndGlyphs" textLength="249" x="1104.5" y="130.0151">TrackData evaluateRfidRequest(int rfidNum)</text><line style="stroke: #A80036; stroke-width: 1.0; stroke-dasharray: 1.0,2.0;" x1="1085.5" x2="1189" y1="113.4023" y2="113.4023"/><text fill="#000000" font-family="sans-serif" font-size="11" lengthAdjust="spacingAndGlyphs" textLength="66" x="1189" y="116.7104">Use Case 1</text><line style="stroke: #A80036; stroke-width: 1.0; stroke-dasharray: 1.0,2.0;" x1="1255" x2="1358.5" y1="113.4023" y2="113.4023"/><!--MD5=[a35092e604da7274febf4e2cf9a25087]
class DisplayCommInterfaceImplementation--><rect fill="#FEFECE" filter="url(#fmzpwn8q9icf2)" height="116.0234" id="DisplayCommInterfaceImplementation" style="stroke: #A80036; stroke-width: 1.5;" width="369" x="38.5" y="269.5"/><ellipse cx="101.25" cy="285.5" fill="#ADD1B2" rx="11" ry="11" style="stroke: #A80036; stroke-width: 1.0;"/><path d="M104.2188,291.1406 Q103.6406,291.4375 103,291.5781 Q102.3594,291.7344 101.6563,291.7344 Q99.1563,291.7344 97.8281,290.0938 Q96.5156,288.4375 96.5156,285.3125 Q96.5156,282.1875 97.8281,280.5313 Q99.1563,278.875 101.6563,278.875 Q102.3594,278.875 103,279.0313 Q103.6563,279.1875 104.2188,279.4844 L104.2188,282.2031 Q103.5938,281.625 103,281.3594 Q102.4063,281.0781 101.7813,281.0781 Q100.4375,281.0781 99.75,282.1563 Q99.0625,283.2188 99.0625,285.3125 Q99.0625,287.4063 99.75,288.4844 Q100.4375,289.5469 101.7813,289.5469 Q102.4063,289.5469 103,289.2813 Q103.5938,289 104.2188,288.4219 L104.2188,291.1406 Z "/><text fill="#000000" font-family="sans-serif" font-size="12" lengthAdjust="spacingAndGlyphs" textLength="235" x="121.75" y="289.6543">DisplayCommInterfaceImplementation</text><line style="stroke: #A80036; stroke-width: 1.5;" x1="39.5" x2="406.5" y1="301.5" y2="301.5"/><rect fill="none" height="6" style="stroke: #C82930; stroke-width: 1.0;" width="6" x="46.5" y="309.5"/><text fill="#000000" font-family="sans-serif" font-size="11" lengthAdjust="spacingAndGlyphs" textLength="207" x="58.5" y="315.7104">DisplayComm2WayInterface receiver</text><line style="stroke: #A80036; stroke-width: 1.5;" x1="39.5" x2="406.5" y1="322.3047" y2="322.3047"/><ellipse cx="49.5" cy="333.3047" fill="#84BE84" rx="3" ry="3" style="stroke: #038048; stroke-width: 1.0;"/><text fill="#000000" font-family="sans-serif" font-size="11" lengthAdjust="spacingAndGlyphs" textLength="343" x="58.5" y="336.5151">DisplayCommInterface(DisplayComm2WayInterface receiver)</text><ellipse cx="49.5" cy="362.9141" fill="#84BE84" rx="3" ry="3" style="stroke: #038048; stroke-width: 1.0;"/><text fill="#000000" font-family="sans-serif" font-size="11" lengthAdjust="spacingAndGlyphs" textLength="240" x="58.5" y="366.1245">TrackData receiveRfidRequest(int rfidNum)</text><rect fill="#F24D5C" height="6" style="stroke: #C82930; stroke-width: 1.0;" width="6" x="46.5" y="372.7188"/><text fill="#000000" font-family="sans-serif" font-size="11" lengthAdjust="spacingAndGlyphs" textLength="290" x="58.5" y="378.9292">TrackData passToComm2WayInterface(int rfidNum)</text><line style="stroke: #A80036; stroke-width: 1.0; stroke-dasharray: 1.0,2.0;" x1="39.5" x2="190" y1="349.5117" y2="349.5117"/><text fill="#000000" font-family="sans-serif" font-size="11" lengthAdjust="spacingAndGlyphs" textLength="66" x="190" y="352.8198">Use Case 1</text><line style="stroke: #A80036; stroke-width: 1.0; stroke-dasharray: 1.0,2.0;" x1="256" x2="406.5" y1="349.5117" y2="349.5117"/><!--MD5=[46657c2900260d4d40350fe3f8c544df]
class DisplayComm2WayInterfaceImplementation--><rect fill="#FEFECE" filter="url(#fmzpwn8q9icf2)" height="128.8281" id="DisplayComm2WayInterfaceImplementation" style="stroke: #A80036; stroke-width: 1.5;" width="461" x="442.5" y="263"/><ellipse cx="534.75" cy="279" fill="#ADD1B2" rx="11" ry="11" style="stroke: #A80036; stroke-width: 1.0;"/><path d="M537.7188,284.6406 Q537.1406,284.9375 536.5,285.0781 Q535.8594,285.2344 535.1563,285.2344 Q532.6563,285.2344 531.3281,283.5938 Q530.0156,281.9375 530.0156,278.8125 Q530.0156,275.6875 531.3281,274.0313 Q532.6563,272.375 535.1563,272.375 Q535.8594,272.375 536.5,272.5313 Q537.1563,272.6875 537.7188,272.9844 L537.7188,275.7031 Q537.0938,275.125 536.5,274.8594 Q535.9063,274.5781 535.2813,274.5781 Q533.9375,274.5781 533.25,275.6563 Q532.5625,276.7188 532.5625,278.8125 Q532.5625,280.9063 533.25,281.9844 Q533.9375,283.0469 535.2813,283.0469 Q535.9063,283.0469 536.5,282.7813 Q537.0938,282.5 537.7188,281.9219 L537.7188,284.6406 Z "/><text fill="#000000" font-family="sans-serif" font-size="12" lengthAdjust="spacingAndGlyphs" textLength="268" x="555.25" y="283.1543">DisplayComm2WayInterfaceImplementation</text><line style="stroke: #A80036; stroke-width: 1.5;" x1="443.5" x2="902.5" y1="295" y2="295"/><rect fill="none" height="6" style="stroke: #C82930; stroke-width: 1.0;" width="6" x="450.5" y="303"/><text fill="#000000" font-family="sans-serif" font-size="11" lengthAdjust="spacingAndGlyphs" textLength="182" x="462.5" y="309.2104">DisplayCommManager manager</text><line style="stroke: #A80036; stroke-width: 1.5;" x1="443.5" x2="902.5" y1="315.8047" y2="315.8047"/><ellipse cx="453.5" cy="326.8047" fill="#84BE84" rx="3" ry="3" style="stroke: #038048; stroke-width: 1.0;"/><text fill="#000000" font-family="sans-serif" font-size="11" lengthAdjust="spacingAndGlyphs" textLength="435" x="462.5" y="330.0151">DisplayComm2WayInterfaceImplementation(DisplayCommManager manager)</text><ellipse cx="453.5" cy="356.4141" fill="#84BE84" rx="3" ry="3" style="stroke: #038048; stroke-width: 1.0;"/><text fill="#000000" font-family="sans-serif" font-size="11" lengthAdjust="spacingAndGlyphs" textLength="227" x="462.5" y="359.6245">TrackData passRfidRequest(int rfidNum)</text><rect fill="#F24D5C" height="6" style="stroke: #C82930; stroke-width: 1.0;" width="6" x="450.5" y="366.2188"/><text fill="#000000" font-family="sans-serif" font-size="11" lengthAdjust="spacingAndGlyphs" textLength="269" x="462.5" y="372.4292">void determineUserRequestFormat(int rfidNum)</text><rect fill="#F24D5C" height="6" style="stroke: #C82930; stroke-width: 1.0;" width="6" x="450.5" y="379.0234"/><text fill="#000000" font-family="sans-serif" font-size="11" lengthAdjust="spacingAndGlyphs" textLength="342" x="462.5" y="385.2339">void receiveRequestFromDisplayCommInterface(int rfidNum)</text><line style="stroke: #A80036; stroke-width: 1.0; stroke-dasharray: 1.0,2.0;" x1="443.5" x2="640" y1="343.0117" y2="343.0117"/><text fill="#000000" font-family="sans-serif" font-size="11" lengthAdjust="spacingAndGlyphs" textLength="66" x="640" y="346.3198">Use Case 1</text><line style="stroke: #A80036; stroke-width: 1.0; stroke-dasharray: 1.0,2.0;" x1="706" x2="902.5" y1="343.0117" y2="343.0117"/><!--MD5=[3a27b63ddb357afc5dde5581215f51f9]
class DisplayCommManagerImplementation--><rect fill="#FEFECE" filter="url(#fmzpwn8q9icf2)" height="141.6328" id="DisplayCommManagerImplementation" style="stroke: #A80036; stroke-width: 1.5;" width="470" x="939" y="256.5"/><ellipse cx="1052.75" cy="272.5" fill="#ADD1B2" rx="11" ry="11" style="stroke: #A80036; stroke-width: 1.0;"/><path d="M1055.7188,278.1406 Q1055.1406,278.4375 1054.5,278.5781 Q1053.8594,278.7344 1053.1563,278.7344 Q1050.6563,278.7344 1049.3281,277.0938 Q1048.0156,275.4375 1048.0156,272.3125 Q1048.0156,269.1875 1049.3281,267.5313 Q1050.6563,265.875 1053.1563,265.875 Q1053.8594,265.875 1054.5,266.0313 Q1055.1563,266.1875 1055.7188,266.4844 L1055.7188,269.2031 Q1055.0938,268.625 1054.5,268.3594 Q1053.9063,268.0781 1053.2813,268.0781 Q1051.9375,268.0781 1051.25,269.1563 Q1050.5625,270.2188 1050.5625,272.3125 Q1050.5625,274.4063 1051.25,275.4844 Q1051.9375,276.5469 1053.2813,276.5469 Q1053.9063,276.5469 1054.5,276.2813 Q1055.0938,276 1055.7188,275.4219 L1055.7188,278.1406 Z "/><text fill="#000000" font-family="sans-serif" font-size="12" lengthAdjust="spacingAndGlyphs" textLength="234" x="1073.25" y="276.6543">DisplayCommManagerImplementation</text><line style="stroke: #A80036; stroke-width: 1.5;" x1="940" x2="1408" y1="288.5" y2="288.5"/><rect fill="none" height="6" style="stroke: #C82930; stroke-width: 1.0;" width="6" x="947" y="296.5"/><text fill="#000000" font-family="sans-serif" font-size="11" lengthAdjust="spacingAndGlyphs" textLength="221" x="959" y="302.7104">MiddlewareCommInterface middleware</text><line style="stroke: #A80036; stroke-width: 1.5;" x1="940" x2="1408" y1="309.3047" y2="309.3047"/><ellipse cx="950" cy="320.3047" fill="#84BE84" rx="3" ry="3" style="stroke: #038048; stroke-width: 1.0;"/><text fill="#000000" font-family="sans-serif" font-size="11" lengthAdjust="spacingAndGlyphs" textLength="444" x="959" y="323.5151">DisplayCommManagerImplementation(MiddlewareCommInterface middleware)</text><ellipse cx="950" cy="349.9141" fill="#84BE84" rx="3" ry="3" style="stroke: #038048; stroke-width: 1.0;"/><text fill="#000000" font-family="sans-serif" font-size="11" lengthAdjust="spacingAndGlyphs" textLength="368" x="959" y="353.1245">TrackData receiveRequestFromDisplay2WayInterface(int rfidNum)</text><rect fill="#F24D5C" height="6" style="stroke: #C82930; stroke-width: 1.0;" width="6" x="947" y="359.7188"/><text fill="#000000" font-family="sans-serif" font-size="11" lengthAdjust="spacingAndGlyphs" textLength="247" x="959" y="365.9292">TrackData evaluateRfidRequest(int rfidNum)</text><rect fill="#F24D5C" height="6" style="stroke: #C82930; stroke-width: 1.0;" width="6" x="947" y="372.5234"/><text fill="#000000" font-family="sans-serif" font-size="11" lengthAdjust="spacingAndGlyphs" textLength="371" x="959" y="378.7339">TrackData passRequestToMiddlewareCommInterface(int rfidNum)</text><text fill="#000000" font-family="sans-serif" font-size="11" lengthAdjust="spacingAndGlyphs" textLength="0" x="963" y="391.5386"/><line style="stroke: #A80036; stroke-width: 1.0; stroke-dasharray: 1.0,2.0;" x1="940" x2="1141" y1="336.5117" y2="336.5117"/><text fill="#000000" font-family="sans-serif" font-size="11" lengthAdjust="spacingAndGlyphs" textLength="66" x="1141" y="339.8198">Use Case 1</text><line style="stroke: #A80036; stroke-width: 1.0; stroke-dasharray: 1.0,2.0;" x1="1207" x2="1408" y1="336.5117" y2="336.5117"/><!--MD5=[d454b7777f115113290d89683d7a426c]
class DisplayCommInterfaceImplementationTests--><rect fill="#FEFECE" filter="url(#fmzpwn8q9icf2)" height="48" id="DisplayCommInterfaceImplementationTests" style="stroke: #A80036; stroke-width: 1.5;" width="301" x="1465.5" y="74"/><ellipse cx="1480.5" cy="90" fill="#ADD1B2" rx="11" ry="11" style="stroke: #A80036; stroke-width: 1.0;"/><path d="M1483.4688,95.6406 Q1482.8906,95.9375 1482.25,96.0781 Q1481.6094,96.2344 1480.9063,96.2344 Q1478.4063,96.2344 1477.0781,94.5938 Q1475.7656,92.9375 1475.7656,89.8125 Q1475.7656,86.6875 1477.0781,85.0313 Q1478.4063,83.375 1480.9063,83.375 Q1481.6094,83.375 1482.25,83.5313 Q1482.9063,83.6875 1483.4688,83.9844 L1483.4688,86.7031 Q1482.8438,86.125 1482.25,85.8594 Q1481.6563,85.5781 1481.0313,85.5781 Q1479.6875,85.5781 1479,86.6563 Q1478.3125,87.7188 1478.3125,89.8125 Q1478.3125,91.9063 1479,92.9844 Q1479.6875,94.0469 1481.0313,94.0469 Q1481.6563,94.0469 1482.25,93.7813 Q1482.8438,93.5 1483.4688,92.9219 L1483.4688,95.6406 Z "/><text fill="#000000" font-family="sans-serif" font-size="12" lengthAdjust="spacingAndGlyphs" textLength="269" x="1494.5" y="94.1543">DisplayCommInterfaceImplementationTests</text><line style="stroke: #A80036; stroke-width: 1.5;" x1="1466.5" x2="1765.5" y1="106" y2="106"/><line style="stroke: #A80036; stroke-width: 1.5;" x1="1466.5" x2="1765.5" y1="114" y2="114"/><!--MD5=[a333ac13e0fdf2a5898aafabd38d3c1b]
class DisplayComm2WayInterfaceStub--><rect fill="#FEFECE" filter="url(#fmzpwn8q9icf2)" height="77.6094" id="DisplayComm2WayInterfaceStub" style="stroke: #A80036; stroke-width: 1.5;" width="252" x="1478" y="288.5"/><ellipse cx="1502" cy="304.5" fill="#ADD1B2" rx="11" ry="11" style="stroke: #A80036; stroke-width: 1.0;"/><path d="M1504.9688,310.1406 Q1504.3906,310.4375 1503.75,310.5781 Q1503.1094,310.7344 1502.4063,310.7344 Q1499.9063,310.7344 1498.5781,309.0938 Q1497.2656,307.4375 1497.2656,304.3125 Q1497.2656,301.1875 1498.5781,299.5313 Q1499.9063,297.875 1502.4063,297.875 Q1503.1094,297.875 1503.75,298.0313 Q1504.4063,298.1875 1504.9688,298.4844 L1504.9688,301.2031 Q1504.3438,300.625 1503.75,300.3594 Q1503.1563,300.0781 1502.5313,300.0781 Q1501.1875,300.0781 1500.5,301.1563 Q1499.8125,302.2188 1499.8125,304.3125 Q1499.8125,306.4063 1500.5,307.4844 Q1501.1875,308.5469 1502.5313,308.5469 Q1503.1563,308.5469 1503.75,308.2813 Q1504.3438,308 1504.9688,307.4219 L1504.9688,310.1406 Z "/><text fill="#000000" font-family="sans-serif" font-size="12" lengthAdjust="spacingAndGlyphs" textLength="200" x="1518" y="308.6543">DisplayComm2WayInterfaceStub</text><line style="stroke: #A80036; stroke-width: 1.5;" x1="1479" x2="1729" y1="320.5" y2="320.5"/><line style="stroke: #A80036; stroke-width: 1.5;" x1="1479" x2="1729" y1="328.5" y2="328.5"/><ellipse cx="1489" cy="356.3047" fill="#84BE84" rx="3" ry="3" style="stroke: #038048; stroke-width: 1.0;"/><text fill="#000000" font-family="sans-serif" font-size="11" font-style="italic" lengthAdjust="spacingAndGlyphs" textLength="226" x="1498" y="359.5151">TrackData passRfidRequest(int rfidNum)</text><line style="stroke: #A80036; stroke-width: 1.0; stroke-dasharray: 1.0,2.0;" x1="1479" x2="1571" y1="342.9023" y2="342.9023"/><text fill="#000000" font-family="sans-serif" font-size="11" lengthAdjust="spacingAndGlyphs" textLength="66" x="1571" y="346.2104">Use Case 1</text><line style="stroke: #A80036; stroke-width: 1.0; stroke-dasharray: 1.0,2.0;" x1="1637" x2="1729" y1="342.9023" y2="342.9023"/><!--MD5=[178181f4c7684560c711246055fc01d3]
class DisplayComm2WayInterfaceImplementationTests--><rect fill="#FEFECE" filter="url(#fmzpwn8q9icf2)" height="48" id="DisplayComm2WayInterfaceImplementationTests" style="stroke: #A80036; stroke-width: 1.5;" width="334" x="1802" y="74"/><ellipse cx="1817" cy="90" fill="#ADD1B2" rx="11" ry="11" style="stroke: #A80036; stroke-width: 1.0;"/><path d="M1819.9688,95.6406 Q1819.3906,95.9375 1818.75,96.0781 Q1818.1094,96.2344 1817.4063,96.2344 Q1814.9063,96.2344 1813.5781,94.5938 Q1812.2656,92.9375 1812.2656,89.8125 Q1812.2656,86.6875 1813.5781,85.0313 Q1814.9063,83.375 1817.4063,83.375 Q1818.1094,83.375 1818.75,83.5313 Q1819.4063,83.6875 1819.9688,83.9844 L1819.9688,86.7031 Q1819.3438,86.125 1818.75,85.8594 Q1818.1563,85.5781 1817.5313,85.5781 Q1816.1875,85.5781 1815.5,86.6563 Q1814.8125,87.7188 1814.8125,89.8125 Q1814.8125,91.9063 1815.5,92.9844 Q1816.1875,94.0469 1817.5313,94.0469 Q1818.1563,94.0469 1818.75,93.7813 Q1819.3438,93.5 1819.9688,92.9219 L1819.9688,95.6406 Z "/><text fill="#000000" font-family="sans-serif" font-size="12" lengthAdjust="spacingAndGlyphs" textLength="302" x="1831" y="94.1543">DisplayComm2WayInterfaceImplementationTests</text><line style="stroke: #A80036; stroke-width: 1.5;" x1="1803" x2="2135" y1="106" y2="106"/><line style="stroke: #A80036; stroke-width: 1.5;" x1="1803" x2="2135" y1="114" y2="114"/><!--MD5=[2970358178d6cf57fc5a801b39eb8d0b]
class DisplayCommManagerStub--><rect fill="#FEFECE" filter="url(#fmzpwn8q9icf2)" height="77.6094" id="DisplayCommManagerStub" style="stroke: #A80036; stroke-width: 1.5;" width="273" x="1799.5" y="288.5"/><ellipse cx="1848.75" cy="304.5" fill="#ADD1B2" rx="11" ry="11" style="stroke: #A80036; stroke-width: 1.0;"/><path d="M1851.7188,310.1406 Q1851.1406,310.4375 1850.5,310.5781 Q1849.8594,310.7344 1849.1563,310.7344 Q1846.6563,310.7344 1845.3281,309.0938 Q1844.0156,307.4375 1844.0156,304.3125 Q1844.0156,301.1875 1845.3281,299.5313 Q1846.6563,297.875 1849.1563,297.875 Q1849.8594,297.875 1850.5,298.0313 Q1851.1563,298.1875 1851.7188,298.4844 L1851.7188,301.2031 Q1851.0938,300.625 1850.5,300.3594 Q1849.9063,300.0781 1849.2813,300.0781 Q1847.9375,300.0781 1847.25,301.1563 Q1846.5625,302.2188 1846.5625,304.3125 Q1846.5625,306.4063 1847.25,307.4844 Q1847.9375,308.5469 1849.2813,308.5469 Q1849.9063,308.5469 1850.5,308.2813 Q1851.0938,308 1851.7188,307.4219 L1851.7188,310.1406 Z "/><text fill="#000000" font-family="sans-serif" font-size="12" lengthAdjust="spacingAndGlyphs" textLength="166" x="1869.25" y="308.6543">DisplayCommManagerStub</text><line style="stroke: #A80036; stroke-width: 1.5;" x1="1800.5" x2="2071.5" y1="320.5" y2="320.5"/><line style="stroke: #A80036; stroke-width: 1.5;" x1="1800.5" x2="2071.5" y1="328.5" y2="328.5"/><ellipse cx="1810.5" cy="356.3047" fill="#84BE84" rx="3" ry="3" style="stroke: #038048; stroke-width: 1.0;"/><text fill="#000000" font-family="sans-serif" font-size="11" lengthAdjust="spacingAndGlyphs" textLength="247" x="1819.5" y="359.5151">TrackData evaluateRfidRequest(int rfidNum)</text><line style="stroke: #A80036; stroke-width: 1.0; stroke-dasharray: 1.0,2.0;" x1="1800.5" x2="1903" y1="342.9023" y2="342.9023"/><text fill="#000000" font-family="sans-serif" font-size="11" lengthAdjust="spacingAndGlyphs" textLength="66" x="1903" y="346.2104">Use Case 1</text><line style="stroke: #A80036; stroke-width: 1.0; stroke-dasharray: 1.0,2.0;" x1="1969" x2="2071.5" y1="342.9023" y2="342.9023"/><!--MD5=[937d6d8ff87a99d0d5dcd66ee05a1fa4]
class DisplayCommManagerImplementationTests--><rect fill="#FEFECE" filter="url(#fmzpwn8q9icf2)" height="48" id="DisplayCommManagerImplementationTests" style="stroke: #A80036; stroke-width: 1.5;" width="300" x="2171" y="74"/><ellipse cx="2186" cy="90" fill="#ADD1B2" rx="11" ry="11" style="stroke: #A80036; stroke-width: 1.0;"/><path d="M2188.9688,95.6406 Q2188.3906,95.9375 2187.75,96.0781 Q2187.1094,96.2344 2186.4063,96.2344 Q2183.9063,96.2344 2182.5781,94.5938 Q2181.2656,92.9375 2181.2656,89.8125 Q2181.2656,86.6875 2182.5781,85.0313 Q2183.9063,83.375 2186.4063,83.375 Q2187.1094,83.375 2187.75,83.5313 Q2188.4063,83.6875 2188.9688,83.9844 L2188.9688,86.7031 Q2188.3438,86.125 2187.75,85.8594 Q2187.1563,85.5781 2186.5313,85.5781 Q2185.1875,85.5781 2184.5,86.6563 Q2183.8125,87.7188 2183.8125,89.8125 Q2183.8125,91.9063 2184.5,92.9844 Q2185.1875,94.0469 2186.5313,94.0469 Q2187.1563,94.0469 2187.75,93.7813 Q2188.3438,93.5 2188.9688,92.9219 L2188.9688,95.6406 Z "/><text fill="#000000" font-family="sans-serif" font-size="12" lengthAdjust="spacingAndGlyphs" textLength="268" x="2200" y="94.1543">DisplayCommManagerImplementationTests</text><line style="stroke: #A80036; stroke-width: 1.5;" x1="2172" x2="2470" y1="106" y2="106"/><line style="stroke: #A80036; stroke-width: 1.5;" x1="2172" x2="2470" y1="114" y2="114"/><!--MD5=[cf56a65163663c6c6c7b84cd7c204b97]
class MiddlewareCommInterfaceStub--><rect fill="#FEFECE" filter="url(#fmzpwn8q9icf2)" height="77.6094" id="MiddlewareCommInterfaceStub" style="stroke: #A80036; stroke-width: 1.5;" width="225" x="2330.5" y="288.5"/><ellipse cx="2345.5" cy="304.5" fill="#ADD1B2" rx="11" ry="11" style="stroke: #A80036; stroke-width: 1.0;"/><path d="M2348.4688,310.1406 Q2347.8906,310.4375 2347.25,310.5781 Q2346.6094,310.7344 2345.9063,310.7344 Q2343.4063,310.7344 2342.0781,309.0938 Q2340.7656,307.4375 2340.7656,304.3125 Q2340.7656,301.1875 2342.0781,299.5313 Q2343.4063,297.875 2345.9063,297.875 Q2346.6094,297.875 2347.25,298.0313 Q2347.9063,298.1875 2348.4688,298.4844 L2348.4688,301.2031 Q2347.8438,300.625 2347.25,300.3594 Q2346.6563,300.0781 2346.0313,300.0781 Q2344.6875,300.0781 2344,301.1563 Q2343.3125,302.2188 2343.3125,304.3125 Q2343.3125,306.4063 2344,307.4844 Q2344.6875,308.5469 2346.0313,308.5469 Q2346.6563,308.5469 2347.25,308.2813 Q2347.8438,308 2348.4688,307.4219 L2348.4688,310.1406 Z "/><text fill="#000000" font-family="sans-serif" font-size="12" lengthAdjust="spacingAndGlyphs" textLength="193" x="2359.5" y="308.6543">MiddlewareCommInterfaceStub</text><line style="stroke: #A80036; stroke-width: 1.5;" x1="2331.5" x2="2554.5" y1="320.5" y2="320.5"/><line style="stroke: #A80036; stroke-width: 1.5;" x1="2331.5" x2="2554.5" y1="328.5" y2="328.5"/><ellipse cx="2341.5" cy="356.3047" fill="#84BE84" rx="3" ry="3" style="stroke: #038048; stroke-width: 1.0;"/><text fill="#000000" font-family="sans-serif" font-size="11" lengthAdjust="spacingAndGlyphs" textLength="171" x="2350.5" y="359.5151">TrackData requestRfid(int rfid)</text><line style="stroke: #A80036; stroke-width: 1.0; stroke-dasharray: 1.0,2.0;" x1="2331.5" x2="2410" y1="342.9023" y2="342.9023"/><text fill="#000000" font-family="sans-serif" font-size="11" lengthAdjust="spacingAndGlyphs" textLength="66" x="2410" y="346.2104">Use Case 1</text><line style="stroke: #A80036; stroke-width: 1.0; stroke-dasharray: 1.0,2.0;" x1="2476" x2="2554.5" y1="342.9023" y2="342.9023"/><!--MD5=[930c8140e7c1cb8e71aa7cd49967748e]
class TrackDataPlotterTests--><rect fill="#FEFECE" filter="url(#fmzpwn8q9icf2)" height="48" id="TrackDataPlotterTests" style="stroke: #A80036; stroke-width: 1.5;" width="172" x="2506" y="74"/><ellipse cx="2521" cy="90" fill="#ADD1B2" rx="11" ry="11" style="stroke: #A80036; stroke-width: 1.0;"/><path d="M2523.9688,95.6406 Q2523.3906,95.9375 2522.75,96.0781 Q2522.1094,96.2344 2521.4063,96.2344 Q2518.9063,96.2344 2517.5781,94.5938 Q2516.2656,92.9375 2516.2656,89.8125 Q2516.2656,86.6875 2517.5781,85.0313 Q2518.9063,83.375 2521.4063,83.375 Q2522.1094,83.375 2522.75,83.5313 Q2523.4063,83.6875 2523.9688,83.9844 L2523.9688,86.7031 Q2523.3438,86.125 2522.75,85.8594 Q2522.1563,85.5781 2521.5313,85.5781 Q2520.1875,85.5781 2519.5,86.6563 Q2518.8125,87.7188 2518.8125,89.8125 Q2518.8125,91.9063 2519.5,92.9844 Q2520.1875,94.0469 2521.5313,94.0469 Q2522.1563,94.0469 2522.75,93.7813 Q2523.3438,93.5 2523.9688,92.9219 L2523.9688,95.6406 Z "/><text fill="#000000" font-family="sans-serif" font-size="12" lengthAdjust="spacingAndGlyphs" textLength="140" x="2535" y="94.1543">TrackDataPlotterTests</text><line style="stroke: #A80036; stroke-width: 1.5;" x1="2507" x2="2677" y1="106" y2="106"/><line style="stroke: #A80036; stroke-width: 1.5;" x1="2507" x2="2677" y1="114" y2="114"/><!--MD5=[c986427b061286eff33e87a088ad4bf9]
class TrackDataPlotter--><rect fill="#FEFECE" filter="url(#fmzpwn8q9icf2)" height="231.2656" id="TrackDataPlotter" style="stroke: #A80036; stroke-width: 1.5;" width="291" x="2733.5" y="212"/><ellipse cx="2821.75" cy="228" fill="#ADD1B2" rx="11" ry="11" style="stroke: #A80036; stroke-width: 1.0;"/><path d="M2824.7188,233.6406 Q2824.1406,233.9375 2823.5,234.0781 Q2822.8594,234.2344 2822.1563,234.2344 Q2819.6563,234.2344 2818.3281,232.5938 Q2817.0156,230.9375 2817.0156,227.8125 Q2817.0156,224.6875 2818.3281,223.0313 Q2819.6563,221.375 2822.1563,221.375 Q2822.8594,221.375 2823.5,221.5313 Q2824.1563,221.6875 2824.7188,221.9844 L2824.7188,224.7031 Q2824.0938,224.125 2823.5,223.8594 Q2822.9063,223.5781 2822.2813,223.5781 Q2820.9375,223.5781 2820.25,224.6563 Q2819.5625,225.7188 2819.5625,227.8125 Q2819.5625,229.9063 2820.25,230.9844 Q2820.9375,232.0469 2822.2813,232.0469 Q2822.9063,232.0469 2823.5,231.7813 Q2824.0938,231.5 2824.7188,230.9219 L2824.7188,233.6406 Z "/><text fill="#000000" font-family="sans-serif" font-size="12" lengthAdjust="spacingAndGlyphs" textLength="106" x="2842.25" y="232.1543">TrackDataPlotter</text><line style="stroke: #A80036; stroke-width: 1.5;" x1="2734.5" x2="3023.5" y1="244" y2="244"/><rect fill="none" height="6" style="stroke: #C82930; stroke-width: 1.0;" width="6" x="2741.5" y="252"/><text fill="#000000" font-family="sans-serif" font-size="11" lengthAdjust="spacingAndGlyphs" textLength="86" x="2753.5" y="258.2104">TrackData data</text><rect fill="none" height="6" style="stroke: #C82930; stroke-width: 1.0;" width="6" x="2741.5" y="264.8047"/><text fill="#000000" font-family="sans-serif" font-size="11" lengthAdjust="spacingAndGlyphs" textLength="97" x="2753.5" y="271.0151">XYDataset points</text><rect fill="none" height="6" style="stroke: #C82930; stroke-width: 1.0;" width="6" x="2741.5" y="277.6094"/><text fill="#000000" font-family="sans-serif" font-size="11" lengthAdjust="spacingAndGlyphs" textLength="82" x="2753.5" y="283.8198">XYDataset line</text><rect fill="none" height="6" style="stroke: #C82930; stroke-width: 1.0;" width="6" x="2741.5" y="290.4141"/><text fill="#000000" font-family="sans-serif" font-size="11" lengthAdjust="spacingAndGlyphs" textLength="99" x="2753.5" y="296.6245">JFreeChart chart1</text><rect fill="none" height="6" style="stroke: #C82930; stroke-width: 1.0;" width="6" x="2741.5" y="303.2188"/><text fill="#000000" font-family="sans-serif" font-size="11" lengthAdjust="spacingAndGlyphs" textLength="99" x="2753.5" y="309.4292">JFreeChart chart2</text><rect fill="none" height="6" style="stroke: #C82930; stroke-width: 1.0;" width="6" x="2741.5" y="316.0234"/><text fill="#000000" font-family="sans-serif" font-size="11" lengthAdjust="spacingAndGlyphs" textLength="60" x="2753.5" y="322.2339">XYPlot plot</text><rect fill="none" height="6" style="stroke: #C82930; stroke-width: 1.0;" width="6" x="2741.5" y="328.8281"/><text fill="#000000" font-family="sans-serif" font-size="11" lengthAdjust="spacingAndGlyphs" textLength="133" x="2753.5" y="335.0386">ChartPanel chartPanel1</text><rect fill="none" height="6" style="stroke: #C82930; stroke-width: 1.0;" width="6" x="2741.5" y="341.6328"/><text fill="#000000" font-family="sans-serif" font-size="11" lengthAdjust="spacingAndGlyphs" textLength="133" x="2753.5" y="347.8433">ChartPanel chartPanel2</text><line style="stroke: #A80036; stroke-width: 1.5;" x1="2734.5" x2="3023.5" y1="354.4375" y2="354.4375"/><ellipse cx="2744.5" cy="365.4375" fill="#84BE84" rx="3" ry="3" style="stroke: #038048; stroke-width: 1.0;"/><text fill="#000000" font-family="sans-serif" font-size="11" lengthAdjust="spacingAndGlyphs" textLength="188" x="2753.5" y="368.6479">TrackDataPlotter(TrackData data)</text><rect fill="#F24D5C" height="6" style="stroke: #C82930; stroke-width: 1.0;" width="6" x="2741.5" y="392.0469"/><text fill="#000000" font-family="sans-serif" font-size="11" lengthAdjust="spacingAndGlyphs" textLength="138" x="2753.5" y="398.2573">XYSeries getTrackData()</text><rect fill="#F24D5C" height="6" style="stroke: #C82930; stroke-width: 1.0;" width="6" x="2741.5" y="404.8516"/><text fill="#000000" font-family="sans-serif" font-size="11" lengthAdjust="spacingAndGlyphs" textLength="208" x="2753.5" y="411.062">XYSeries calculateLine(int[] x, int[] y)</text><rect fill="#F24D5C" height="6" style="stroke: #C82930; stroke-width: 1.0;" width="6" x="2741.5" y="417.6563"/><text fill="#000000" font-family="sans-serif" font-size="11" lengthAdjust="spacingAndGlyphs" textLength="262" x="2753.5" y="423.8667">int[] extractLatFromTrackData(TrackData data)</text><rect fill="#F24D5C" height="6" style="stroke: #C82930; stroke-width: 1.0;" width="6" x="2741.5" y="430.4609"/><text fill="#000000" font-family="sans-serif" font-size="11" lengthAdjust="spacingAndGlyphs" textLength="265" x="2753.5" y="436.6714">int[] extractLngFromTrackData(TrackData data)</text><line style="stroke: #A80036; stroke-width: 1.0; stroke-dasharray: 1.0,2.0;" x1="2734.5" x2="2846" y1="381.6445" y2="381.6445"/><text fill="#000000" font-family="sans-serif" font-size="11" lengthAdjust="spacingAndGlyphs" textLength="66" x="2846" y="384.9526">Use Case 1</text><line style="stroke: #A80036; stroke-width: 1.0; stroke-dasharray: 1.0,2.0;" x1="2912" x2="3023.5" y1="381.6445" y2="381.6445"/><!--MD5=[d3cb230b9040bd9072bb1f490e167601]
class MiddlewareCommInterface--><rect fill="#FEFECE" filter="url(#fmzpwn8q9icf2)" height="77.6094" id="MiddlewareCommInterface" style="stroke: #A80036; stroke-width: 1.5;" width="198" x="2734" y="59"/><ellipse cx="2749" cy="75" fill="#B4A7E5" rx="11" ry="11" style="stroke: #A80036; stroke-width: 1.0;"/><path d="M2744.9219,70.7656 L2744.9219,68.6094 L2752.3125,68.6094 L2752.3125,70.7656 L2749.8438,70.7656 L2749.8438,78.8438 L2752.3125,78.8438 L2752.3125,81 L2744.9219,81 L2744.9219,78.8438 L2747.3906,78.8438 L2747.3906,70.7656 L2744.9219,70.7656 Z "/><text fill="#000000" font-family="sans-serif" font-size="12" font-style="italic" lengthAdjust="spacingAndGlyphs" textLength="166" x="2763" y="79.1543">MiddlewareCommInterface</text><line style="stroke: #A80036; stroke-width: 1.5;" x1="2735" x2="2931" y1="91" y2="91"/><line style="stroke: #A80036; stroke-width: 1.5;" x1="2735" x2="2931" y1="99" y2="99"/><ellipse cx="2745" cy="126.8047" fill="#84BE84" rx="3" ry="3" style="stroke: #038048; stroke-width: 1.0;"/><text fill="#000000" font-family="sans-serif" font-size="11" font-style="italic" lengthAdjust="spacingAndGlyphs" textLength="171" x="2754" y="130.0151">TrackData requestRfid(int rfid)</text><line style="stroke: #A80036; stroke-width: 1.0; stroke-dasharray: 1.0,2.0;" x1="2735" x2="2800" y1="113.4023" y2="113.4023"/><text fill="#000000" font-family="sans-serif" font-size="11" lengthAdjust="spacingAndGlyphs" textLength="66" x="2800" y="116.7104">Use Case 1</text><line style="stroke: #A80036; stroke-width: 1.0; stroke-dasharray: 1.0,2.0;" x1="2866" x2="2931" y1="113.4023" y2="113.4023"/><!--MD5=[77bc37423dd8876786830fad4054e33b]
reverse link DisplayCommInterface to DisplayCommInterfaceImplementation--><path d="M223,157.15 C223,191.51 223,234.84 223,269.07 " fill="none" id="DisplayCommInterface&lt;-DisplayCommInterfaceImplementation" style="stroke: #A80036; stroke-width: 1.0; stroke-dasharray: 7.0,7.0;"/><polygon fill="none" points="216,157.08,223,137.08,230,157.08,216,157.08" style="stroke: #A80036; stroke-width: 1.0;"/><!--MD5=[4e991cf787e933c55089f97eae394828]
reverse link DisplayComm2WayInterface to DisplayComm2WayInterfaceImplementation--><path d="M767.38,154.73 C749.41,187.44 726.63,228.9 707.95,262.89 " fill="none" id="DisplayComm2WayInterface&lt;-DisplayComm2WayInterfaceImplementation" style="stroke: #A80036; stroke-width: 1.0; stroke-dasharray: 7.0,7.0;"/><polygon fill="none" points="761.31,151.24,777.08,137.08,773.58,157.98,761.31,151.24" style="stroke: #A80036; stroke-width: 1.0;"/><!--MD5=[5beed6c3c7e4a84a4bfaa95bdf8cce79]
reverse link DisplayCommManager to DisplayCommManagerImplementation--><path d="M1209.82,156.72 C1203.45,186.93 1195.59,224.18 1188.86,256.08 " fill="none" id="DisplayCommManager&lt;-DisplayCommManagerImplementation" style="stroke: #A80036; stroke-width: 1.0; stroke-dasharray: 7.0,7.0;"/><polygon fill="none" points="1202.99,155.2,1213.97,137.08,1216.69,158.09,1202.99,155.2" style="stroke: #A80036; stroke-width: 1.0;"/><!--MD5=[9a02b467888c5123255f55ebe5217d7a]
link DisplayCommInterfaceImplementationTests to DisplayComm2WayInterfaceStub--><path d="M1614.78,122.07 C1612.79,159.78 1608.81,235.22 1606.29,283.16 " fill="none" id="DisplayCommInterfaceImplementationTests-&gt;DisplayComm2WayInterfaceStub" style="stroke: #A80036; stroke-width: 1.0; stroke-dasharray: 7.0,7.0;"/><polygon fill="#A80036" points="1606.02,288.29,1610.477,279.5073,1606.2768,283.2966,1602.4875,279.0964,1606.02,288.29" style="stroke: #A80036; stroke-width: 1.0;"/><!--MD5=[69695ace36e753468876c8d4fe5d2708]
link DisplayComm2WayInterfaceImplementationTests to DisplayCommManagerStub--><path d="M1965.65,122.07 C1960.18,159.78 1949.24,235.22 1942.29,283.16 " fill="none" id="DisplayComm2WayInterfaceImplementationTests-&gt;DisplayCommManagerStub" style="stroke: #A80036; stroke-width: 1.0; stroke-dasharray: 7.0,7.0;"/><polygon fill="#A80036" points="1941.54,288.29,1946.7861,279.9546,1942.2551,283.3414,1938.8683,278.8104,1941.54,288.29" style="stroke: #A80036; stroke-width: 1.0;"/><!--MD5=[a3caa78d97a9caf08bd2afaaae1510f4]
link DisplayCommManagerImplementationTests to MiddlewareCommInterfaceStub--><path d="M2333.37,122.07 C2353.67,159.93 2394.38,235.83 2420.07,283.74 " fill="none" id="DisplayCommManagerImplementationTests-&gt;MiddlewareCommInterfaceStub" style="stroke: #A80036; stroke-width: 1.0; stroke-dasharray: 7.0,7.0;"/><polygon fill="#A80036" points="2422.51,288.29,2421.7992,278.4668,2420.1548,283.8794,2414.7422,282.2351,2422.51,288.29" style="stroke: #A80036; stroke-width: 1.0;"/><!--MD5=[0cd290e6298e838268680010d5032c0d]
link DisplayCommInterfaceImplementationTests to DisplayCommInterfaceImplementation--><path d="M1560.29,122.09 C1522.78,136.38 1471.8,153.4 1425,161 C1397.58,165.45 451.23,159.86 425,169 C369.29,188.4 317.07,229.99 279.69,265.56 " fill="none" id="DisplayCommInterfaceImplementationTests-&gt;DisplayCommInterfaceImplementation" style="stroke: #A80036; stroke-width: 1.0; stroke-dasharray: 7.0,7.0;"/><polygon fill="#A80036" points="275.66,269.43,284.9218,266.0805,279.2661,265.9665,279.3801,260.3107,275.66,269.43" style="stroke: #A80036; stroke-width: 1.0;"/><!--MD5=[ce67f838794c14794f693dd46a642b9a]
link DisplayComm2WayInterfaceImplementationTests to DisplayComm2WayInterfaceImplementation--><path d="M1915.11,122.07 C1878.8,136.35 1829.43,153.37 1784,161 C1736.77,168.93 967.94,155.46 922,169 C860.32,187.18 799.18,225.48 752.92,259.76 " fill="none" id="DisplayComm2WayInterfaceImplementationTests-&gt;DisplayComm2WayInterfaceImplementation" style="stroke: #A80036; stroke-width: 1.0; stroke-dasharray: 7.0,7.0;"/><polygon fill="#A80036" points="748.77,262.85,758.3787,260.6884,752.782,259.866,753.6043,254.2693,748.77,262.85" style="stroke: #A80036; stroke-width: 1.0;"/><!--MD5=[6f3abcadcd809ea193290ea1cf8b820a]
link DisplayCommManagerImplementationTests to DisplayCommManagerImplementation--><path d="M2272.58,122.04 C2239.9,136.31 2195.35,153.33 2154,161 C2115.49,168.14 1486.79,158.71 1449,169 C1386.26,186.08 1322.84,220.95 1272.74,253.55 " fill="none" id="DisplayCommManagerImplementationTests-&gt;DisplayCommManagerImplementation" style="stroke: #A80036; stroke-width: 1.0; stroke-dasharray: 7.0,7.0;"/><polygon fill="#A80036" points="1268.55,256.29,1278.2739,254.7261,1272.7386,253.5595,1273.9051,248.0243,1268.55,256.29" style="stroke: #A80036; stroke-width: 1.0;"/><!--MD5=[f24e7409bf4fec90fef0ed7e05f90b9b]
link TrackDataPlotterTests to TrackDataPlotter--><path d="M2627.57,122.09 C2647.47,135.34 2672.51,152.55 2694,169 C2710.29,181.47 2727.06,194.88 2743.55,208.43 " fill="none" id="TrackDataPlotterTests-&gt;TrackDataPlotter" style="stroke: #A80036; stroke-width: 1.0; stroke-dasharray: 7.0,7.0;"/><polygon fill="#A80036" points="2747.74,211.88,2743.3286,203.0743,2743.8779,208.7045,2738.2477,209.2538,2747.74,211.88" style="stroke: #A80036; stroke-width: 1.0;"/><!--MD5=[6aaeadb42451b39b4e2cdcf83e2bb4cd]
reverse link DisplayComm2WayInterface to DisplayComm2WayInterfaceStub--><path d="M943.78,138.3 C983.46,147.43 1026.63,155.95 1067,161 C1106.48,165.94 1387.93,154.54 1425,169 C1487.47,193.37 1542.56,249.97 1574.59,288.25 " fill="none" id="DisplayComm2WayInterface&lt;-DisplayComm2WayInterfaceStub" style="stroke: #A80036; stroke-width: 1.0; stroke-dasharray: 7.0,7.0;"/><polygon fill="none" points="942.16,145.11,924.3,133.71,945.38,131.49,942.16,145.11" style="stroke: #A80036; stroke-width: 1.0;"/><!--MD5=[e6e0d8b3e0f7bf14f11c0899b3ad37ae]
reverse link DisplayCommManager to DisplayCommManagerStub--><path d="M1359.58,142.24 C1388.83,149.83 1419.72,156.67 1449,161 C1481.88,165.86 1716.92,157.23 1748,169 C1812.51,193.43 1870.66,250.01 1904.66,288.27 " fill="none" id="DisplayCommManager&lt;-DisplayCommManagerStub" style="stroke: #A80036; stroke-width: 1.0; stroke-dasharray: 7.0,7.0;"/><polygon fill="none" points="1357.65,148.97,1340.14,137.03,1361.27,135.45,1357.65,148.97" style="stroke: #A80036; stroke-width: 1.0;"/><!--MD5=[72cb9e2c0df516d67fcc7a3605b88acd]
reverse link MiddlewareCommInterface to MiddlewareCommInterfaceStub--><path d="M2750.07,147.37 C2677.86,189.5 2574.59,249.74 2508.16,288.49 " fill="none" id="MiddlewareCommInterface&lt;-MiddlewareCommInterfaceStub" style="stroke: #A80036; stroke-width: 1.0; stroke-dasharray: 7.0,7.0;"/><polygon fill="none" points="2746.92,141.11,2767.72,137.08,2753.97,153.2,2746.92,141.11" style="stroke: #A80036; stroke-width: 1.0;"/><!--MD5=[73ab1c79ed6dedcc359d4891b6e6b17d]
@startuml Display02Packages_DirectDependencies


package edu.oakland.production.display02 {
    
}


package edu.oakland.production.display02 {
    
}


package edu.oakland.production.display02 {
    interface DisplayCommInterface {
        __
        .. Use Case 1 ..
        {abstract} + TrackData receiveRfidRequest(int rfidNum)
    }
}


package edu.oakland.production.display02 {
    interface DisplayComm2WayInterface {
        __
        .. Use Case 1 ..
        {abstract} + TrackData passRfidRequest(int rfidNum)
    }
}


package edu.oakland.production.display02 {
    interface DisplayCommManager {
        __
        .. Use Case 1 ..
        {abstract} + TrackData evaluateRfidRequest(int rfidNum)
    }
}


package edu.oakland.production.display02 {
    class DisplayCommInterfaceImplementation {
        - DisplayComm2WayInterface receiver
        __
        + DisplayCommInterface(DisplayComm2WayInterface receiver)
        .. Use Case 1 ..
        + TrackData receiveRfidRequest(int rfidNum)
        - TrackData passToComm2WayInterface(int rfidNum)
    }
}


DisplayCommInterfaceImplementation .up.|> DisplayCommInterface

package edu.oakland.production.display02 {
    class DisplayComm2WayInterfaceImplementation {
        - DisplayCommManager manager
        __
        + DisplayComm2WayInterfaceImplementation(DisplayCommManager manager)
        .. Use Case 1 ..
        + TrackData passRfidRequest(int rfidNum)
        - void determineUserRequestFormat(int rfidNum)
        - void receiveRequestFromDisplayCommInterface(int rfidNum)
    }
}


DisplayComm2WayInterfaceImplementation .up.|> DisplayComm2WayInterface

package edu.oakland.production.display02 {
    class DisplayCommManagerImplementation {
        - MiddlewareCommInterface middleware
        __
        + DisplayCommManagerImplementation(MiddlewareCommInterface middleware)
        .. Use Case 1 ..
        + TrackData receiveRequestFromDisplay2WayInterface(int rfidNum)
        - TrackData evaluateRfidRequest(int rfidNum)
        - TrackData passRequestToMiddlewareCommInterface(int rfidNum)
        
    }
}


DisplayCommManagerImplementation .up.|> DisplayCommManager
















package edu.oakland.test.display02 {
    
}


package edu.oakland.test.display02 {
    
}


package edu.oakland.test.display02 {
    class DisplayCommInterfaceImplementationTests {

    }
}



package edu.oakland.test.display02 {
    class DisplayComm2WayInterfaceStub {
        __
        .. Use Case 1 ..
        {abstract} + TrackData passRfidRequest(int rfidNum)
    }
}

DisplayCommInterfaceImplementationTests ..> DisplayComm2WayInterfaceStub

package edu.oakland.test.display02 {
    class DisplayComm2WayInterfaceImplementationTests {

    }
}



package edu.oakland.test.display02 {
    class DisplayCommManagerStub {
        __
        .. Use Case 1 ..
        + TrackData evaluateRfidRequest(int rfidNum)
    }
}

DisplayComm2WayInterfaceImplementationTests ..> DisplayCommManagerStub

package edu.oakland.test.display02 {
    class DisplayCommManagerImplementationTests {

    }
}



package edu.oakland.test.display02 {
    class MiddlewareCommInterfaceStub {
        __
        .. Use Case 1 ..
        + TrackData requestRfid(int rfid)
    }
}

DisplayCommManagerImplementationTests ..> MiddlewareCommInterfaceStub

package edu.oakland.test.display02 {
    class TrackDataPlotterTests {

    }
}


DisplayCommInterfaceImplementationTests ..> DisplayCommInterfaceImplementation
DisplayComm2WayInterfaceImplementationTests ..> DisplayComm2WayInterfaceImplementation
DisplayCommManagerImplementationTests ..> DisplayCommManagerImplementation

package edu.oakland.helper.display02 {
    class TrackDataPlotter {
        - TrackData data
        - XYDataset points
        - XYDataset line
        - JFreeChart chart1
        - JFreeChart chart2
        - XYPlot plot
        - ChartPanel chartPanel1
        - ChartPanel chartPanel2
        __
        + TrackDataPlotter(TrackData data)
        .. Use Case 1 ..
        - XYSeries getTrackData()
        - XYSeries calculateLine(int[] x, int[] y)
        - int[] extractLatFromTrackData(TrackData data)
        - int[] extractLngFromTrackData(TrackData data)
    }
}

TrackDataPlotterTests ..> TrackDataPlotter
DisplayComm2WayInterfaceStub .up.|> DisplayComm2WayInterface
DisplayCommManagerStub .up.|> DisplayCommManager









package edu.oakland.production.middleware02 {
    interface MiddlewareCommInterface {
        __
        .. Use Case 1 ..
        {abstract} + TrackData requestRfid(int rfid)
    }
}

MiddlewareCommInterfaceStub .up.|> MiddlewareCommInterface


package edu.oakland.helper.display02 {
    
}



@enduml

PlantUML version 1.2020.02(Sun Mar 01 10:22:07 GMT 2020)
(GPL source distribution)
Java Runtime: OpenJDK Runtime Environment
JVM: OpenJDK 64-Bit Server VM
Java Version: 11.0.9+11-Ubuntu-0ubuntu1
Operating System: Linux
Default Encoding: ANSI_X3.4-1968
Language: en
Country: US
--></g></svg>