<?xml version="1.0" encoding="UTF-8" standalone="no"?><svg xmlns="http://www.w3.org/2000/svg" xmlns:xlink="http://www.w3.org/1999/xlink" contentScriptType="application/ecmascript" contentStyleType="text/css" height="203px" preserveAspectRatio="none" style="width:430px;height:203px;" version="1.1" viewBox="0 0 430 203" width="430px" zoomAndPan="magnify"><defs><filter height="300%" id="f84xt5h5jbozn" width="300%" x="-1" y="-1"><feGaussianBlur result="blurOut" stdDeviation="2.0"/><feColorMatrix in="blurOut" result="blurOut2" type="matrix" values="0 0 0 0 0 0 0 0 0 0 0 0 0 0 0 0 0 0 .4 0"/><feOffset dx="4.0" dy="4.0" in="blurOut2" result="blurOut3"/><feBlend in="SourceGraphic" in2="blurOut3" mode="normal"/></filter></defs><g><!--MD5=[33504725b8a69ba2207f0a836957a91c]
cluster edu.oakland.production.middleware02--><polygon fill="#FFFFFF" filter="url(#f84xt5h5jbozn)" points="22,24,332,24,339,46.2969,408,46.2969,408,191,22,191,22,24" style="stroke: #000000; stroke-width: 1.5;"/><line style="stroke: #000000; stroke-width: 1.5;" x1="22" x2="339" y1="46.2969" y2="46.2969"/><text fill="#000000" font-family="sans-serif" font-size="14" font-weight="bold" lengthAdjust="spacingAndGlyphs" textLength="304" x="26" y="38.9951">edu.oakland.production.middleware02</text><!--MD5=[1c4f9654f103878faf4a10c0361188b9]
class MiddlewareCommDatabaseInterfaceImplementation--><rect fill="#FEFECE" filter="url(#f84xt5h5jbozn)" height="116.0234" id="MiddlewareCommDatabaseInterfaceImplementation" style="stroke: #A80036; stroke-width: 1.5;" width="354" x="38" y="59"/><ellipse cx="53" cy="75" fill="#ADD1B2" rx="11" ry="11" style="stroke: #A80036; stroke-width: 1.0;"/><path d="M55.9688,80.6406 Q55.3906,80.9375 54.75,81.0781 Q54.1094,81.2344 53.4063,81.2344 Q50.9063,81.2344 49.5781,79.5938 Q48.2656,77.9375 48.2656,74.8125 Q48.2656,71.6875 49.5781,70.0313 Q50.9063,68.375 53.4063,68.375 Q54.1094,68.375 54.75,68.5313 Q55.4063,68.6875 55.9688,68.9844 L55.9688,71.7031 Q55.3438,71.125 54.75,70.8594 Q54.1563,70.5781 53.5313,70.5781 Q52.1875,70.5781 51.5,71.6563 Q50.8125,72.7188 50.8125,74.8125 Q50.8125,76.9063 51.5,77.9844 Q52.1875,79.0469 53.5313,79.0469 Q54.1563,79.0469 54.75,78.7813 Q55.3438,78.5 55.9688,77.9219 L55.9688,80.6406 Z "/><text fill="#000000" font-family="sans-serif" font-size="12" lengthAdjust="spacingAndGlyphs" textLength="322" x="67" y="79.1543">MiddlewareCommDatabaseInterfaceImplementation</text><line style="stroke: #A80036; stroke-width: 1.5;" x1="39" x2="391" y1="91" y2="91"/><ellipse cx="49" cy="102" fill="none" rx="3" ry="3" style="stroke: #038048; stroke-width: 1.0;"/><text fill="#000000" font-family="sans-serif" font-size="11" lengthAdjust="spacingAndGlyphs" textLength="285" x="58" y="105.2104">DatabaseCommInterface databaseCommInterface</text><line style="stroke: #A80036; stroke-width: 1.5;" x1="39" x2="391" y1="111.8047" y2="111.8047"/><ellipse cx="49" cy="122.8047" fill="#84BE84" rx="3" ry="3" style="stroke: #038048; stroke-width: 1.0;"/><text fill="#000000" font-family="sans-serif" font-size="11" lengthAdjust="spacingAndGlyphs" textLength="297" x="58" y="126.0151">MiddlewareCommDatabaseInterfaceImplementation(</text><text fill="#000000" font-family="sans-serif" font-size="11" lengthAdjust="spacingAndGlyphs" textLength="289" x="90" y="138.8198">DatabaseCommInterface databaseCommInterface)</text><ellipse cx="49" cy="165.2188" fill="#84BE84" rx="3" ry="3" style="stroke: #038048; stroke-width: 1.0;"/><text fill="#000000" font-family="sans-serif" font-size="11" lengthAdjust="spacingAndGlyphs" textLength="122" x="58" y="168.4292">int checkCurrentRfid()</text><line style="stroke: #A80036; stroke-width: 1.0; stroke-dasharray: 1.0,2.0;" x1="39" x2="182" y1="151.8164" y2="151.8164"/><text fill="#000000" font-family="sans-serif" font-size="11" lengthAdjust="spacingAndGlyphs" textLength="66" x="182" y="155.1245">Use Case 1</text><line style="stroke: #A80036; stroke-width: 1.0; stroke-dasharray: 1.0,2.0;" x1="248" x2="391" y1="151.8164" y2="151.8164"/><!--MD5=[941a0f6592b72c0a71aebcaf1321fdfb]
@startuml MiddlewareCommDatabaseInterfaceImplementation

package edu.oakland.production.middleware02 {
    class MiddlewareCommDatabaseInterfaceImplementation {
        + DatabaseCommInterface databaseCommInterface
        __
        + MiddlewareCommDatabaseInterfaceImplementation(
        \tDatabaseCommInterface databaseCommInterface)
        .. Use Case 1 ..
        + int checkCurrentRfid()
    }
}

@enduml

PlantUML version 1.2020.02(Sun Mar 01 10:22:07 GMT 2020)
(GPL source distribution)
Java Runtime: OpenJDK Runtime Environment
JVM: OpenJDK 64-Bit Server VM
Java Version: 11.0.9+11-Ubuntu-0ubuntu1
Operating System: Linux
Default Encoding: ANSI_X3.4-1968
Language: en
Country: US
--></g></svg>