<?xml version="1.0" encoding="UTF-8" standalone="no"?><svg xmlns="http://www.w3.org/2000/svg" xmlns:xlink="http://www.w3.org/1999/xlink" contentScriptType="application/ecmascript" contentStyleType="text/css" height="341px" preserveAspectRatio="none" style="width:430px;height:341px;" version="1.1" viewBox="0 0 430 341" width="430px" zoomAndPan="magnify"><defs><filter height="300%" id="ftnw7wsycv2fz" width="300%" x="-1" y="-1"><feGaussianBlur result="blurOut" stdDeviation="2.0"/><feColorMatrix in="blurOut" result="blurOut2" type="matrix" values="0 0 0 0 0 0 0 0 0 0 0 0 0 0 0 0 0 0 .4 0"/><feOffset dx="4.0" dy="4.0" in="blurOut2" result="blurOut3"/><feBlend in="SourceGraphic" in2="blurOut3" mode="normal"/></filter></defs><g><!--MD5=[33504725b8a69ba2207f0a836957a91c]
cluster edu.oakland.production.middleware02--><polygon fill="#FFFFFF" filter="url(#ftnw7wsycv2fz)" points="22,24,332,24,339,46.2969,408,46.2969,408,329,22,329,22,24" style="stroke: #000000; stroke-width: 1.5;"/><line style="stroke: #000000; stroke-width: 1.5;" x1="22" x2="339" y1="46.2969" y2="46.2969"/><text fill="#000000" font-family="sans-serif" font-size="14" font-weight="bold" lengthAdjust="spacingAndGlyphs" textLength="304" x="26" y="38.9951">edu.oakland.production.middleware02</text><!--MD5=[1c4f9654f103878faf4a10c0361188b9]
class MiddlewareCommDatabaseInterfaceImplementation--><rect fill="#FEFECE" filter="url(#ftnw7wsycv2fz)" height="116.0234" id="MiddlewareCommDatabaseInterfaceImplementation" style="stroke: #A80036; stroke-width: 1.5;" width="354" x="38" y="197"/><ellipse cx="53" cy="213" fill="#ADD1B2" rx="11" ry="11" style="stroke: #A80036; stroke-width: 1.0;"/><path d="M55.9688,218.6406 Q55.3906,218.9375 54.75,219.0781 Q54.1094,219.2344 53.4063,219.2344 Q50.9063,219.2344 49.5781,217.5938 Q48.2656,215.9375 48.2656,212.8125 Q48.2656,209.6875 49.5781,208.0313 Q50.9063,206.375 53.4063,206.375 Q54.1094,206.375 54.75,206.5313 Q55.4063,206.6875 55.9688,206.9844 L55.9688,209.7031 Q55.3438,209.125 54.75,208.8594 Q54.1563,208.5781 53.5313,208.5781 Q52.1875,208.5781 51.5,209.6563 Q50.8125,210.7188 50.8125,212.8125 Q50.8125,214.9063 51.5,215.9844 Q52.1875,217.0469 53.5313,217.0469 Q54.1563,217.0469 54.75,216.7813 Q55.3438,216.5 55.9688,215.9219 L55.9688,218.6406 Z "/><text fill="#000000" font-family="sans-serif" font-size="12" lengthAdjust="spacingAndGlyphs" textLength="322" x="67" y="217.1543">MiddlewareCommDatabaseInterfaceImplementation</text><line style="stroke: #A80036; stroke-width: 1.5;" x1="39" x2="391" y1="229" y2="229"/><ellipse cx="49" cy="240" fill="none" rx="3" ry="3" style="stroke: #038048; stroke-width: 1.0;"/><text fill="#000000" font-family="sans-serif" font-size="11" lengthAdjust="spacingAndGlyphs" textLength="285" x="58" y="243.2104">DatabaseCommInterface databaseCommInterface</text><line style="stroke: #A80036; stroke-width: 1.5;" x1="39" x2="391" y1="249.8047" y2="249.8047"/><ellipse cx="49" cy="260.8047" fill="#84BE84" rx="3" ry="3" style="stroke: #038048; stroke-width: 1.0;"/><text fill="#000000" font-family="sans-serif" font-size="11" lengthAdjust="spacingAndGlyphs" textLength="297" x="58" y="264.0151">MiddlewareCommDatabaseInterfaceImplementation(</text><text fill="#000000" font-family="sans-serif" font-size="11" lengthAdjust="spacingAndGlyphs" textLength="289" x="90" y="276.8198">DatabaseCommInterface databaseCommInterface)</text><ellipse cx="49" cy="303.2188" fill="#84BE84" rx="3" ry="3" style="stroke: #038048; stroke-width: 1.0;"/><text fill="#000000" font-family="sans-serif" font-size="11" lengthAdjust="spacingAndGlyphs" textLength="122" x="58" y="306.4292">int checkCurrentRfid()</text><line style="stroke: #A80036; stroke-width: 1.0; stroke-dasharray: 1.0,2.0;" x1="39" x2="182" y1="289.8164" y2="289.8164"/><text fill="#000000" font-family="sans-serif" font-size="11" lengthAdjust="spacingAndGlyphs" textLength="66" x="182" y="293.1245">Use Case 1</text><line style="stroke: #A80036; stroke-width: 1.0; stroke-dasharray: 1.0,2.0;" x1="248" x2="391" y1="289.8164" y2="289.8164"/><!--MD5=[4915649770e9045e9ea9156a01fd67e8]
class MiddlewareCommDatabaseInterface--><rect fill="#FEFECE" filter="url(#ftnw7wsycv2fz)" height="77.6094" id="MiddlewareCommDatabaseInterface" style="stroke: #A80036; stroke-width: 1.5;" width="258" x="86" y="59"/><ellipse cx="101" cy="75" fill="#B4A7E5" rx="11" ry="11" style="stroke: #A80036; stroke-width: 1.0;"/><path d="M96.9219,70.7656 L96.9219,68.6094 L104.3125,68.6094 L104.3125,70.7656 L101.8438,70.7656 L101.8438,78.8438 L104.3125,78.8438 L104.3125,81 L96.9219,81 L96.9219,78.8438 L99.3906,78.8438 L99.3906,70.7656 L96.9219,70.7656 Z "/><text fill="#000000" font-family="sans-serif" font-size="12" font-style="italic" lengthAdjust="spacingAndGlyphs" textLength="226" x="115" y="79.1543">MiddlewareCommDatabaseInterface</text><line style="stroke: #A80036; stroke-width: 1.5;" x1="87" x2="343" y1="91" y2="91"/><line style="stroke: #A80036; stroke-width: 1.5;" x1="87" x2="343" y1="99" y2="99"/><ellipse cx="97" cy="126.8047" fill="#84BE84" rx="3" ry="3" style="stroke: #038048; stroke-width: 1.0;"/><text fill="#000000" font-family="sans-serif" font-size="11" font-style="italic" lengthAdjust="spacingAndGlyphs" textLength="123" x="106" y="130.0151">int checkCurrentRfid()</text><line style="stroke: #A80036; stroke-width: 1.0; stroke-dasharray: 1.0,2.0;" x1="87" x2="182" y1="113.4023" y2="113.4023"/><text fill="#000000" font-family="sans-serif" font-size="11" lengthAdjust="spacingAndGlyphs" textLength="66" x="182" y="116.7104">Use Case 1</text><line style="stroke: #A80036; stroke-width: 1.0; stroke-dasharray: 1.0,2.0;" x1="248" x2="343" y1="113.4023" y2="113.4023"/><!--MD5=[8e69def7a54ed81078168d5d1d8487c9]
reverse link MiddlewareCommDatabaseInterface to MiddlewareCommDatabaseInterfaceImplementation--><path d="M215,157.38 C215,170.29 215,183.94 215,196.79 " fill="none" id="MiddlewareCommDatabaseInterface&lt;-MiddlewareCommDatabaseInterfaceImplementation" style="stroke: #A80036; stroke-width: 1.0; stroke-dasharray: 7.0,7.0;"/><polygon fill="none" points="208,157.31,215,137.31,222,157.31,208,157.31" style="stroke: #A80036; stroke-width: 1.0;"/><!--MD5=[eb26fc78cb85d8acc17f0fd360471113]
@startuml MiddlewareCommDatabaseInterfaceImplementation_DirectDependencies


package edu.oakland.production.middleware02 {
    class MiddlewareCommDatabaseInterfaceImplementation {
        + DatabaseCommInterface databaseCommInterface
        __
        + MiddlewareCommDatabaseInterfaceImplementation(
        \tDatabaseCommInterface databaseCommInterface)
        .. Use Case 1 ..
        + int checkCurrentRfid()
    }
}



package edu.oakland.production.middleware02 {
    interface MiddlewareCommDatabaseInterface {
        __
        .. Use Case 1 ..
        {abstract} + int checkCurrentRfid()
    }
}

MiddlewareCommDatabaseInterfaceImplementation .up.|> MiddlewareCommDatabaseInterface





@enduml

PlantUML version 1.2020.02(Sun Mar 01 10:22:07 GMT 2020)
(GPL source distribution)
Java Runtime: OpenJDK Runtime Environment
JVM: OpenJDK 64-Bit Server VM
Java Version: 11.0.9+11-Ubuntu-0ubuntu1
Operating System: Linux
Default Encoding: ANSI_X3.4-1968
Language: en
Country: US
--></g></svg>