<?xml version="1.0" encoding="UTF-8" standalone="no"?><svg xmlns="http://www.w3.org/2000/svg" xmlns:xlink="http://www.w3.org/1999/xlink" contentScriptType="application/ecmascript" contentStyleType="text/css" height="387px" preserveAspectRatio="none" style="width:1701px;height:387px;" version="1.1" viewBox="0 0 1701 387" width="1701px" zoomAndPan="magnify"><defs><filter height="300%" id="fzkky09z6sz5v" width="300%" x="-1" y="-1"><feGaussianBlur result="blurOut" stdDeviation="2.0"/><feColorMatrix in="blurOut" result="blurOut2" type="matrix" values="0 0 0 0 0 0 0 0 0 0 0 0 0 0 0 0 0 0 .4 0"/><feOffset dx="4.0" dy="4.0" in="blurOut2" result="blurOut3"/><feBlend in="SourceGraphic" in2="blurOut3" mode="normal"/></filter></defs><g><!--MD5=[dc6f857ec0f7f4b7c2e0b8d815cd2a85]
cluster edu.oakland.production.database02--><polygon fill="#FFFFFF" filter="url(#fzkky09z6sz5v)" points="578.5,24,868.5,24,875.5,46.2969,1679.5,46.2969,1679.5,375,578.5,375,578.5,24" style="stroke: #000000; stroke-width: 1.5;"/><line style="stroke: #000000; stroke-width: 1.5;" x1="578.5" x2="875.5" y1="46.2969" y2="46.2969"/><text fill="#000000" font-family="sans-serif" font-size="14" font-weight="bold" lengthAdjust="spacingAndGlyphs" textLength="284" x="582.5" y="38.9951">edu.oakland.production.database02</text><!--MD5=[6d34700a22f737f940b471daa4ac1202]
class DatabaseCommInterface--><rect fill="#FEFECE" filter="url(#fzkky09z6sz5v)" height="132.8281" id="DatabaseCommInterface" style="stroke: #A80036; stroke-width: 1.5;" width="309" x="594" y="59"/><ellipse cx="666.75" cy="75" fill="#B4A7E5" rx="11" ry="11" style="stroke: #A80036; stroke-width: 1.0;"/><path d="M662.6719,70.7656 L662.6719,68.6094 L670.0625,68.6094 L670.0625,70.7656 L667.5938,70.7656 L667.5938,78.8438 L670.0625,78.8438 L670.0625,81 L662.6719,81 L662.6719,78.8438 L665.1406,78.8438 L665.1406,70.7656 L662.6719,70.7656 Z "/><text fill="#000000" font-family="sans-serif" font-size="12" font-style="italic" lengthAdjust="spacingAndGlyphs" textLength="155" x="687.25" y="79.1543">DatabaseCommInterface</text><line style="stroke: #A80036; stroke-width: 1.5;" x1="595" x2="902" y1="91" y2="91"/><line style="stroke: #A80036; stroke-width: 1.5;" x1="595" x2="902" y1="99" y2="99"/><ellipse cx="605" cy="126.8047" fill="#84BE84" rx="3" ry="3" style="stroke: #038048; stroke-width: 1.0;"/><text fill="#000000" font-family="sans-serif" font-size="11" font-style="italic" lengthAdjust="spacingAndGlyphs" textLength="156" x="614" y="130.0151">int receiveGetRfidRequest()</text><ellipse cx="605" cy="139.6094" fill="#84BE84" rx="3" ry="3" style="stroke: #038048; stroke-width: 1.0;"/><text fill="#000000" font-family="sans-serif" font-size="11" font-style="italic" lengthAdjust="spacingAndGlyphs" textLength="282" x="614" y="142.8198">LocationDataPoint getLocationDataPoint(int offset)</text><ellipse cx="605" cy="152.4141" fill="#84BE84" rx="3" ry="3" style="stroke: #038048; stroke-width: 1.0;"/><text fill="#000000" font-family="sans-serif" font-size="11" font-style="italic" lengthAdjust="spacingAndGlyphs" textLength="283" x="614" y="155.6245">void storeTrackDataRequest(TrackData trackData)</text><line style="stroke: #A80036; stroke-width: 1.0; stroke-dasharray: 1.0,2.0;" x1="595" x2="715.5" y1="113.4023" y2="113.4023"/><text fill="#000000" font-family="sans-serif" font-size="11" lengthAdjust="spacingAndGlyphs" textLength="66" x="715.5" y="116.7104">Use Case 1</text><line style="stroke: #A80036; stroke-width: 1.0; stroke-dasharray: 1.0,2.0;" x1="781.5" x2="902" y1="113.4023" y2="113.4023"/><text fill="#000000" font-family="sans-serif" font-size="11" lengthAdjust="spacingAndGlyphs" textLength="0" x="604" y="185.2339"/><line style="stroke: #A80036; stroke-width: 1.0; stroke-dasharray: 1.0,2.0;" x1="595" x2="715.5" y1="168.6211" y2="168.6211"/><text fill="#000000" font-family="sans-serif" font-size="11" lengthAdjust="spacingAndGlyphs" textLength="66" x="715.5" y="171.9292">Use Case 2</text><line style="stroke: #A80036; stroke-width: 1.0; stroke-dasharray: 1.0,2.0;" x1="781.5" x2="902" y1="168.6211" y2="168.6211"/><!--MD5=[3cbc5f43b2184d452c2937ae0a744eb6]
class DatabaseCommManager--><rect fill="#FEFECE" filter="url(#fzkky09z6sz5v)" height="132.8281" id="DatabaseCommManager" style="stroke: #A80036; stroke-width: 1.5;" width="382" x="938.5" y="59"/><ellipse cx="1048.75" cy="75" fill="#B4A7E5" rx="11" ry="11" style="stroke: #A80036; stroke-width: 1.0;"/><path d="M1044.6719,70.7656 L1044.6719,68.6094 L1052.0625,68.6094 L1052.0625,70.7656 L1049.5938,70.7656 L1049.5938,78.8438 L1052.0625,78.8438 L1052.0625,81 L1044.6719,81 L1044.6719,78.8438 L1047.1406,78.8438 L1047.1406,70.7656 L1044.6719,70.7656 Z "/><text fill="#000000" font-family="sans-serif" font-size="12" font-style="italic" lengthAdjust="spacingAndGlyphs" textLength="153" x="1069.25" y="79.1543">DatabaseCommManager</text><line style="stroke: #A80036; stroke-width: 1.5;" x1="939.5" x2="1319.5" y1="91" y2="91"/><line style="stroke: #A80036; stroke-width: 1.5;" x1="939.5" x2="1319.5" y1="99" y2="99"/><ellipse cx="949.5" cy="126.8047" fill="#84BE84" rx="3" ry="3" style="stroke: #038048; stroke-width: 1.0;"/><text fill="#000000" font-family="sans-serif" font-size="11" font-style="italic" lengthAdjust="spacingAndGlyphs" textLength="140" x="958.5" y="130.0151">int passGetRfidRequest()</text><ellipse cx="949.5" cy="139.6094" fill="#84BE84" rx="3" ry="3" style="stroke: #038048; stroke-width: 1.0;"/><text fill="#000000" font-family="sans-serif" font-size="11" font-style="italic" lengthAdjust="spacingAndGlyphs" textLength="356" x="958.5" y="142.8198">LocationDataPoint passGetLocationDataPointRequest(int offset)</text><ellipse cx="949.5" cy="152.4141" fill="#84BE84" rx="3" ry="3" style="stroke: #038048; stroke-width: 1.0;"/><text fill="#000000" font-family="sans-serif" font-size="11" font-style="italic" lengthAdjust="spacingAndGlyphs" textLength="280" x="958.5" y="155.6245">void passTrackDataRequest(TrackData trackData)</text><line style="stroke: #A80036; stroke-width: 1.0; stroke-dasharray: 1.0,2.0;" x1="939.5" x2="1096.5" y1="113.4023" y2="113.4023"/><text fill="#000000" font-family="sans-serif" font-size="11" lengthAdjust="spacingAndGlyphs" textLength="66" x="1096.5" y="116.7104">Use Case 1</text><line style="stroke: #A80036; stroke-width: 1.0; stroke-dasharray: 1.0,2.0;" x1="1162.5" x2="1319.5" y1="113.4023" y2="113.4023"/><text fill="#000000" font-family="sans-serif" font-size="11" lengthAdjust="spacingAndGlyphs" textLength="0" x="948.5" y="185.2339"/><line style="stroke: #A80036; stroke-width: 1.0; stroke-dasharray: 1.0,2.0;" x1="939.5" x2="1096.5" y1="168.6211" y2="168.6211"/><text fill="#000000" font-family="sans-serif" font-size="11" lengthAdjust="spacingAndGlyphs" textLength="66" x="1096.5" y="171.9292">Use Case 2</text><line style="stroke: #A80036; stroke-width: 1.0; stroke-dasharray: 1.0,2.0;" x1="1162.5" x2="1319.5" y1="168.6211" y2="168.6211"/><!--MD5=[e17d161261e70b0137cfc16fc476feac]
class DatabaseCommPersistentStorage--><rect fill="#FEFECE" filter="url(#fzkky09z6sz5v)" height="132.8281" id="DatabaseCommPersistentStorage" style="stroke: #A80036; stroke-width: 1.5;" width="308" x="1355.5" y="59"/><ellipse cx="1400.75" cy="75" fill="#B4A7E5" rx="11" ry="11" style="stroke: #A80036; stroke-width: 1.0;"/><path d="M1396.6719,70.7656 L1396.6719,68.6094 L1404.0625,68.6094 L1404.0625,70.7656 L1401.5938,70.7656 L1401.5938,78.8438 L1404.0625,78.8438 L1404.0625,81 L1396.6719,81 L1396.6719,78.8438 L1399.1406,78.8438 L1399.1406,70.7656 L1396.6719,70.7656 Z "/><text fill="#000000" font-family="sans-serif" font-size="12" font-style="italic" lengthAdjust="spacingAndGlyphs" textLength="209" x="1421.25" y="79.1543">DatabaseCommPersistentStorage</text><line style="stroke: #A80036; stroke-width: 1.5;" x1="1356.5" x2="1662.5" y1="91" y2="91"/><line style="stroke: #A80036; stroke-width: 1.5;" x1="1356.5" x2="1662.5" y1="99" y2="99"/><ellipse cx="1366.5" cy="126.8047" fill="#84BE84" rx="3" ry="3" style="stroke: #038048; stroke-width: 1.0;"/><text fill="#000000" font-family="sans-serif" font-size="11" font-style="italic" lengthAdjust="spacingAndGlyphs" textLength="108" x="1375.5" y="130.0151">int locateRfidData()</text><ellipse cx="1366.5" cy="139.6094" fill="#84BE84" rx="3" ry="3" style="stroke: #038048; stroke-width: 1.0;"/><text fill="#000000" font-family="sans-serif" font-size="11" font-style="italic" lengthAdjust="spacingAndGlyphs" textLength="282" x="1375.5" y="142.8198">LocationDataPoint getLocationDataPoint(int offset)</text><ellipse cx="1366.5" cy="152.4141" fill="#84BE84" rx="3" ry="3" style="stroke: #038048; stroke-width: 1.0;"/><text fill="#000000" font-family="sans-serif" font-size="11" font-style="italic" lengthAdjust="spacingAndGlyphs" textLength="237" x="1375.5" y="155.6245">void storeTrackData(TrackData trackData)</text><line style="stroke: #A80036; stroke-width: 1.0; stroke-dasharray: 1.0,2.0;" x1="1356.5" x2="1476.5" y1="113.4023" y2="113.4023"/><text fill="#000000" font-family="sans-serif" font-size="11" lengthAdjust="spacingAndGlyphs" textLength="66" x="1476.5" y="116.7104">Use Case 1</text><line style="stroke: #A80036; stroke-width: 1.0; stroke-dasharray: 1.0,2.0;" x1="1542.5" x2="1662.5" y1="113.4023" y2="113.4023"/><text fill="#000000" font-family="sans-serif" font-size="11" lengthAdjust="spacingAndGlyphs" textLength="0" x="1365.5" y="185.2339"/><line style="stroke: #A80036; stroke-width: 1.0; stroke-dasharray: 1.0,2.0;" x1="1356.5" x2="1476.5" y1="168.6211" y2="168.6211"/><text fill="#000000" font-family="sans-serif" font-size="11" lengthAdjust="spacingAndGlyphs" textLength="66" x="1476.5" y="171.9292">Use Case 2</text><line style="stroke: #A80036; stroke-width: 1.0; stroke-dasharray: 1.0,2.0;" x1="1542.5" x2="1662.5" y1="168.6211" y2="168.6211"/><!--MD5=[9f85d6b15dbd6dc4f6cf7395c0833d14]
class DatabaseCommInterfaceImplementation--><rect fill="#FEFECE" filter="url(#fzkky09z6sz5v)" height="107.2188" id="DatabaseCommInterfaceImplementation" style="stroke: #A80036; stroke-width: 1.5;" width="284" x="606.5" y="252"/><ellipse cx="621.5" cy="268" fill="#ADD1B2" rx="11" ry="11" style="stroke: #A80036; stroke-width: 1.0;"/><path d="M624.4688,273.6406 Q623.8906,273.9375 623.25,274.0781 Q622.6094,274.2344 621.9063,274.2344 Q619.4063,274.2344 618.0781,272.5938 Q616.7656,270.9375 616.7656,267.8125 Q616.7656,264.6875 618.0781,263.0313 Q619.4063,261.375 621.9063,261.375 Q622.6094,261.375 623.25,261.5313 Q623.9063,261.6875 624.4688,261.9844 L624.4688,264.7031 Q623.8438,264.125 623.25,263.8594 Q622.6563,263.5781 622.0313,263.5781 Q620.6875,263.5781 620,264.6563 Q619.3125,265.7188 619.3125,267.8125 Q619.3125,269.9063 620,270.9844 Q620.6875,272.0469 622.0313,272.0469 Q622.6563,272.0469 623.25,271.7813 Q623.8438,271.5 624.4688,270.9219 L624.4688,273.6406 Z "/><text fill="#000000" font-family="sans-serif" font-size="12" lengthAdjust="spacingAndGlyphs" textLength="252" x="635.5" y="272.1543">DatabaseCommInterfaceImplementation</text><line style="stroke: #A80036; stroke-width: 1.5;" x1="607.5" x2="889.5" y1="284" y2="284"/><line style="stroke: #A80036; stroke-width: 1.5;" x1="607.5" x2="889.5" y1="292" y2="292"/><text fill="#000000" font-family="sans-serif" font-size="11" lengthAdjust="spacingAndGlyphs" textLength="0" x="616.5" y="323.0151"/><line style="stroke: #A80036; stroke-width: 1.0; stroke-dasharray: 1.0,2.0;" x1="607.5" x2="715.5" y1="306.4023" y2="306.4023"/><text fill="#000000" font-family="sans-serif" font-size="11" lengthAdjust="spacingAndGlyphs" textLength="66" x="715.5" y="309.7104">Use Case 1</text><line style="stroke: #A80036; stroke-width: 1.0; stroke-dasharray: 1.0,2.0;" x1="781.5" x2="889.5" y1="306.4023" y2="306.4023"/><text fill="#000000" font-family="sans-serif" font-size="11" lengthAdjust="spacingAndGlyphs" textLength="0" x="616.5" y="352.6245"/><line style="stroke: #A80036; stroke-width: 1.0; stroke-dasharray: 1.0,2.0;" x1="607.5" x2="715.5" y1="336.0117" y2="336.0117"/><text fill="#000000" font-family="sans-serif" font-size="11" lengthAdjust="spacingAndGlyphs" textLength="66" x="715.5" y="339.3198">Use Case 2</text><line style="stroke: #A80036; stroke-width: 1.0; stroke-dasharray: 1.0,2.0;" x1="781.5" x2="889.5" y1="336.0117" y2="336.0117"/><!--MD5=[e62c039a107b929dc588966558a86fd5]
class DatabaseCommManagerImplementation--><rect fill="#FEFECE" filter="url(#fzkky09z6sz5v)" height="107.2188" id="DatabaseCommManagerImplementation" style="stroke: #A80036; stroke-width: 1.5;" width="283" x="988" y="252"/><ellipse cx="1003" cy="268" fill="#ADD1B2" rx="11" ry="11" style="stroke: #A80036; stroke-width: 1.0;"/><path d="M1005.9688,273.6406 Q1005.3906,273.9375 1004.75,274.0781 Q1004.1094,274.2344 1003.4063,274.2344 Q1000.9063,274.2344 999.5781,272.5938 Q998.2656,270.9375 998.2656,267.8125 Q998.2656,264.6875 999.5781,263.0313 Q1000.9063,261.375 1003.4063,261.375 Q1004.1094,261.375 1004.75,261.5313 Q1005.4063,261.6875 1005.9688,261.9844 L1005.9688,264.7031 Q1005.3438,264.125 1004.75,263.8594 Q1004.1563,263.5781 1003.5313,263.5781 Q1002.1875,263.5781 1001.5,264.6563 Q1000.8125,265.7188 1000.8125,267.8125 Q1000.8125,269.9063 1001.5,270.9844 Q1002.1875,272.0469 1003.5313,272.0469 Q1004.1563,272.0469 1004.75,271.7813 Q1005.3438,271.5 1005.9688,270.9219 L1005.9688,273.6406 Z "/><text fill="#000000" font-family="sans-serif" font-size="12" lengthAdjust="spacingAndGlyphs" textLength="251" x="1017" y="272.1543">DatabaseCommManagerImplementation</text><line style="stroke: #A80036; stroke-width: 1.5;" x1="989" x2="1270" y1="284" y2="284"/><line style="stroke: #A80036; stroke-width: 1.5;" x1="989" x2="1270" y1="292" y2="292"/><text fill="#000000" font-family="sans-serif" font-size="11" lengthAdjust="spacingAndGlyphs" textLength="0" x="998" y="323.0151"/><line style="stroke: #A80036; stroke-width: 1.0; stroke-dasharray: 1.0,2.0;" x1="989" x2="1096.5" y1="306.4023" y2="306.4023"/><text fill="#000000" font-family="sans-serif" font-size="11" lengthAdjust="spacingAndGlyphs" textLength="66" x="1096.5" y="309.7104">Use Case 1</text><line style="stroke: #A80036; stroke-width: 1.0; stroke-dasharray: 1.0,2.0;" x1="1162.5" x2="1270" y1="306.4023" y2="306.4023"/><text fill="#000000" font-family="sans-serif" font-size="11" lengthAdjust="spacingAndGlyphs" textLength="0" x="998" y="352.6245"/><line style="stroke: #A80036; stroke-width: 1.0; stroke-dasharray: 1.0,2.0;" x1="989" x2="1096.5" y1="336.0117" y2="336.0117"/><text fill="#000000" font-family="sans-serif" font-size="11" lengthAdjust="spacingAndGlyphs" textLength="66" x="1096.5" y="339.3198">Use Case 2</text><line style="stroke: #A80036; stroke-width: 1.0; stroke-dasharray: 1.0,2.0;" x1="1162.5" x2="1270" y1="336.0117" y2="336.0117"/><!--MD5=[fe3a4c1f529fb89beb493f16b41b0ce6]
class DatabaseCommPersistentStorageImplementation--><rect fill="#FEFECE" filter="url(#fzkky09z6sz5v)" height="107.2188" id="DatabaseCommPersistentStorageImplementation" style="stroke: #A80036; stroke-width: 1.5;" width="342" x="1321.5" y="252"/><ellipse cx="1336.5" cy="268" fill="#ADD1B2" rx="11" ry="11" style="stroke: #A80036; stroke-width: 1.0;"/><path d="M1339.4688,273.6406 Q1338.8906,273.9375 1338.25,274.0781 Q1337.6094,274.2344 1336.9063,274.2344 Q1334.4063,274.2344 1333.0781,272.5938 Q1331.7656,270.9375 1331.7656,267.8125 Q1331.7656,264.6875 1333.0781,263.0313 Q1334.4063,261.375 1336.9063,261.375 Q1337.6094,261.375 1338.25,261.5313 Q1338.9063,261.6875 1339.4688,261.9844 L1339.4688,264.7031 Q1338.8438,264.125 1338.25,263.8594 Q1337.6563,263.5781 1337.0313,263.5781 Q1335.6875,263.5781 1335,264.6563 Q1334.3125,265.7188 1334.3125,267.8125 Q1334.3125,269.9063 1335,270.9844 Q1335.6875,272.0469 1337.0313,272.0469 Q1337.6563,272.0469 1338.25,271.7813 Q1338.8438,271.5 1339.4688,270.9219 L1339.4688,273.6406 Z "/><text fill="#000000" font-family="sans-serif" font-size="12" lengthAdjust="spacingAndGlyphs" textLength="310" x="1350.5" y="272.1543">DatabaseCommPersistentStorageImplementation</text><line style="stroke: #A80036; stroke-width: 1.5;" x1="1322.5" x2="1662.5" y1="284" y2="284"/><line style="stroke: #A80036; stroke-width: 1.5;" x1="1322.5" x2="1662.5" y1="292" y2="292"/><text fill="#000000" font-family="sans-serif" font-size="11" lengthAdjust="spacingAndGlyphs" textLength="0" x="1331.5" y="323.0151"/><line style="stroke: #A80036; stroke-width: 1.0; stroke-dasharray: 1.0,2.0;" x1="1322.5" x2="1459.5" y1="306.4023" y2="306.4023"/><text fill="#000000" font-family="sans-serif" font-size="11" lengthAdjust="spacingAndGlyphs" textLength="66" x="1459.5" y="309.7104">Use Case 1</text><line style="stroke: #A80036; stroke-width: 1.0; stroke-dasharray: 1.0,2.0;" x1="1525.5" x2="1662.5" y1="306.4023" y2="306.4023"/><text fill="#000000" font-family="sans-serif" font-size="11" lengthAdjust="spacingAndGlyphs" textLength="0" x="1331.5" y="352.6245"/><line style="stroke: #A80036; stroke-width: 1.0; stroke-dasharray: 1.0,2.0;" x1="1322.5" x2="1459.5" y1="336.0117" y2="336.0117"/><text fill="#000000" font-family="sans-serif" font-size="11" lengthAdjust="spacingAndGlyphs" textLength="66" x="1459.5" y="339.3198">Use Case 2</text><line style="stroke: #A80036; stroke-width: 1.0; stroke-dasharray: 1.0,2.0;" x1="1525.5" x2="1662.5" y1="336.0117" y2="336.0117"/><polygon fill="#FFFFFF" filter="url(#fzkky09z6sz5v)" points="6,99,241,99,248,121.2969,255,121.2969,255,151.5938,6,151.5938,6,99" style="stroke: #000000; stroke-width: 1.5;"/><line style="stroke: #000000; stroke-width: 1.5;" x1="6" x2="248" y1="121.2969" y2="121.2969"/><text fill="#000000" font-family="sans-serif" font-size="14" font-weight="bold" lengthAdjust="spacingAndGlyphs" textLength="229" x="10" y="113.9951">edu.oakland.test.database02</text><polygon fill="#FFFFFF" filter="url(#fzkky09z6sz5v)" points="290,99,545,99,552,121.2969,559,121.2969,559,151.5938,290,151.5938,290,99" style="stroke: #000000; stroke-width: 1.5;"/><line style="stroke: #000000; stroke-width: 1.5;" x1="290" x2="552" y1="121.2969" y2="121.2969"/><text fill="#000000" font-family="sans-serif" font-size="14" font-weight="bold" lengthAdjust="spacingAndGlyphs" textLength="249" x="294" y="113.9951">edu.oakland.helper.database02</text><!--MD5=[b29619f0f1793d2973c3ae8f2ae417a7]
reverse link DatabaseCommInterface to DatabaseCommInterfaceImplementation--><path d="M748.5,212.3 C748.5,225.82 748.5,239.44 748.5,251.91 " fill="none" id="DatabaseCommInterface&lt;-DatabaseCommInterfaceImplementation" style="stroke: #A80036; stroke-width: 1.0; stroke-dasharray: 7.0,7.0;"/><polygon fill="none" points="741.5,212.02,748.5,192.02,755.5,212.02,741.5,212.02" style="stroke: #A80036; stroke-width: 1.0;"/><!--MD5=[a58b2e4b707a50c1d2b096e4059ce319]
reverse link DatabaseCommManager to DatabaseCommManagerImplementation--><path d="M1129.5,212.3 C1129.5,225.82 1129.5,239.44 1129.5,251.91 " fill="none" id="DatabaseCommManager&lt;-DatabaseCommManagerImplementation" style="stroke: #A80036; stroke-width: 1.0; stroke-dasharray: 7.0,7.0;"/><polygon fill="none" points="1122.5,212.02,1129.5,192.02,1136.5,212.02,1122.5,212.02" style="stroke: #A80036; stroke-width: 1.0;"/><!--MD5=[a916ffa56f38317a3b2a439d259e409e]
reverse link DatabaseCommPersistentStorage to DatabaseCommPersistentStorageImplementation--><path d="M1501.31,212.3 C1500.01,225.82 1498.71,239.44 1497.52,251.91 " fill="none" id="DatabaseCommPersistentStorage&lt;-DatabaseCommPersistentStorageImplementation" style="stroke: #A80036; stroke-width: 1.0; stroke-dasharray: 7.0,7.0;"/><polygon fill="none" points="1494.37,211.27,1503.24,192.02,1508.31,212.6,1494.37,211.27" style="stroke: #A80036; stroke-width: 1.0;"/><!--MD5=[1f7d6eb0f912fd84e53b94987ad20aa0]
@startuml Database02Packages_DirectDependencies


package edu.oakland.production.database02 {
    
}


package edu.oakland.production.database02 {
    
}


package edu.oakland.production.database02 {
    interface DatabaseCommInterface {
        __
        .. Use Case 1 ..
        {abstract} + int receiveGetRfidRequest()
        {abstract} + LocationDataPoint getLocationDataPoint(int offset)
        {abstract} + void storeTrackDataRequest(TrackData trackData)
        .. Use Case 2 ..

    }
}


package edu.oakland.production.database02 {
    interface DatabaseCommManager {
        __
        .. Use Case 1 ..
        {abstract} + int passGetRfidRequest()
        {abstract} + LocationDataPoint passGetLocationDataPointRequest(int offset)
        {abstract} + void passTrackDataRequest(TrackData trackData)
        .. Use Case 2 ..

    }
}


package edu.oakland.production.database02 {
    interface DatabaseCommPersistentStorage {
        __
        .. Use Case 1 ..
        {abstract} + int locateRfidData()
        {abstract} + LocationDataPoint getLocationDataPoint(int offset)
        {abstract} + void storeTrackData(TrackData trackData)
        .. Use Case 2 ..

    }
}


package edu.oakland.production.database02 {
    class DatabaseCommInterfaceImplementation {
        __
        .. Use Case 1 ..

        .. Use Case 2 ..

    }
}


DatabaseCommInterfaceImplementation .up.|> DatabaseCommInterface

package edu.oakland.production.database02 {
    class DatabaseCommManagerImplementation {
        __
        .. Use Case 1 ..

        .. Use Case 2 ..

    }
}


DatabaseCommManagerImplementation .up.|> DatabaseCommManager

package edu.oakland.production.database02 {
    class DatabaseCommPersistentStorageImplementation {
        __
        .. Use Case 1 ..

        .. Use Case 2 ..

    }
}


DatabaseCommPersistentStorageImplementation .up.|> DatabaseCommPersistentStorage
















package edu.oakland.test.database02 {
    
}


package edu.oakland.test.database02 {
    
}



package edu.oakland.helper.database02 {
    
}


@enduml

PlantUML version 1.2020.02(Sun Mar 01 10:22:07 GMT 2020)
(GPL source distribution)
Java Runtime: OpenJDK Runtime Environment
JVM: OpenJDK 64-Bit Server VM
Java Version: 11.0.9+11-Ubuntu-0ubuntu1
Operating System: Linux
Default Encoding: ANSI_X3.4-1968
Language: en
Country: US
--></g></svg>