<?xml version="1.0" encoding="UTF-8" standalone="no"?><svg xmlns="http://www.w3.org/2000/svg" xmlns:xlink="http://www.w3.org/1999/xlink" contentScriptType="application/ecmascript" contentStyleType="text/css" height="297px" preserveAspectRatio="none" style="width:410px;height:297px;" version="1.1" viewBox="0 0 410 297" width="410px" zoomAndPan="magnify"><defs><filter height="300%" id="f6aqcyly0zjjq" width="300%" x="-1" y="-1"><feGaussianBlur result="blurOut" stdDeviation="2.0"/><feColorMatrix in="blurOut" result="blurOut2" type="matrix" values="0 0 0 0 0 0 0 0 0 0 0 0 0 0 0 0 0 0 .4 0"/><feOffset dx="4.0" dy="4.0" in="blurOut2" result="blurOut3"/><feBlend in="SourceGraphic" in2="blurOut3" mode="normal"/></filter></defs><g><!--MD5=[8bd6d9786dfa802b1eecfb7372bf244a]
cluster edu.oakland.production.admin--><polygon fill="#FFFFFF" filter="url(#f6aqcyly0zjjq)" points="22,24,267,24,274,46.2969,388,46.2969,388,285,22,285,22,24" style="stroke: #000000; stroke-width: 1.5;"/><line style="stroke: #000000; stroke-width: 1.5;" x1="22" x2="274" y1="46.2969" y2="46.2969"/><text fill="#000000" font-family="sans-serif" font-size="14" font-weight="bold" lengthAdjust="spacingAndGlyphs" textLength="239" x="26" y="38.9951">edu.oakland.production.admin</text><!--MD5=[3c84d2688363deb820fa9437de7249ec]
class Demo--><rect fill="#FEFECE" filter="url(#f6aqcyly0zjjq)" height="209.6563" id="Demo" style="stroke: #A80036; stroke-width: 1.5;" width="334" x="38" y="59"/><ellipse cx="182.75" cy="75" fill="#ADD1B2" rx="11" ry="11" style="stroke: #A80036; stroke-width: 1.0;"/><path d="M185.7188,80.6406 Q185.1406,80.9375 184.5,81.0781 Q183.8594,81.2344 183.1563,81.2344 Q180.6563,81.2344 179.3281,79.5938 Q178.0156,77.9375 178.0156,74.8125 Q178.0156,71.6875 179.3281,70.0313 Q180.6563,68.375 183.1563,68.375 Q183.8594,68.375 184.5,68.5313 Q185.1563,68.6875 185.7188,68.9844 L185.7188,71.7031 Q185.0938,71.125 184.5,70.8594 Q183.9063,70.5781 183.2813,70.5781 Q181.9375,70.5781 181.25,71.6563 Q180.5625,72.7188 180.5625,74.8125 Q180.5625,76.9063 181.25,77.9844 Q181.9375,79.0469 183.2813,79.0469 Q183.9063,79.0469 184.5,78.7813 Q185.0938,78.5 185.7188,77.9219 L185.7188,80.6406 Z "/><text fill="#000000" font-family="sans-serif" font-size="12" lengthAdjust="spacingAndGlyphs" textLength="36" x="203.25" y="79.1543">Demo</text><line style="stroke: #A80036; stroke-width: 1.5;" x1="39" x2="371" y1="91" y2="91"/><rect fill="none" height="6" style="stroke: #C82930; stroke-width: 1.0;" width="6" x="46" y="115.8047"/><text fill="#000000" font-family="sans-serif" font-size="11" lengthAdjust="spacingAndGlyphs" textLength="231" x="58" y="122.0151">DisplayGpsInterface displayGpsInterface</text><rect fill="none" height="6" style="stroke: #C82930; stroke-width: 1.0;" width="6" x="46" y="128.6094"/><text fill="#000000" font-family="sans-serif" font-size="11" lengthAdjust="spacingAndGlyphs" textLength="259" x="58" y="134.8198">DisplayCommInterface displayCommInterface</text><line style="stroke: #A80036; stroke-width: 1.0; stroke-dasharray: 1.0,2.0;" x1="39" x2="135" y1="105.4023" y2="105.4023"/><text fill="#000000" font-family="sans-serif" font-size="11" lengthAdjust="spacingAndGlyphs" textLength="140" x="135" y="108.7104">Main Production Classes</text><line style="stroke: #A80036; stroke-width: 1.0; stroke-dasharray: 1.0,2.0;" x1="275" x2="371" y1="105.4023" y2="105.4023"/><rect fill="none" height="6" style="stroke: #C82930; stroke-width: 1.0;" width="6" x="46" y="158.2188"/><text fill="#000000" font-family="sans-serif" font-size="11" lengthAdjust="spacingAndGlyphs" textLength="134" x="58" y="164.4292">GpsSystem gpsSystem</text><rect fill="none" height="6" style="stroke: #C82930; stroke-width: 1.0;" width="6" x="46" y="171.0234"/><text fill="#000000" font-family="sans-serif" font-size="11" lengthAdjust="spacingAndGlyphs" textLength="57" x="58" y="177.2339">User user</text><rect fill="none" height="6" style="stroke: #C82930; stroke-width: 1.0;" width="6" x="46" y="183.8281"/><text fill="#000000" font-family="sans-serif" font-size="11" lengthAdjust="spacingAndGlyphs" textLength="308" x="58" y="190.0386">PersistentStorageManager persistentStorageManager</text><line style="stroke: #A80036; stroke-width: 1.0; stroke-dasharray: 1.0,2.0;" x1="39" x2="152" y1="147.8164" y2="147.8164"/><text fill="#000000" font-family="sans-serif" font-size="11" lengthAdjust="spacingAndGlyphs" textLength="106" x="152" y="151.1245">Use Case Runners</text><line style="stroke: #A80036; stroke-width: 1.0; stroke-dasharray: 1.0,2.0;" x1="258" x2="371" y1="147.8164" y2="147.8164"/><line style="stroke: #A80036; stroke-width: 1.5;" x1="39" x2="371" y1="196.6328" y2="196.6328"/><ellipse cx="49" cy="207.6328" fill="#84BE84" rx="3" ry="3" style="stroke: #038048; stroke-width: 1.0;"/><text fill="#000000" font-family="sans-serif" font-size="11" lengthAdjust="spacingAndGlyphs" text-decoration="underline" textLength="130" x="58" y="210.8433">void main(Sting args[])</text><ellipse cx="49" cy="220.4375" fill="#84BE84" rx="3" ry="3" style="stroke: #038048; stroke-width: 1.0;"/><text fill="#000000" font-family="sans-serif" font-size="11" lengthAdjust="spacingAndGlyphs" textLength="272" x="58" y="223.6479">void initSecureLockTrackSystem(int systemRfid,</text><text fill="#000000" font-family="sans-serif" font-size="11" lengthAdjust="spacingAndGlyphs" textLength="220" x="90" y="236.4526">String persistentStorageInputLocation,</text><text fill="#000000" font-family="sans-serif" font-size="11" lengthAdjust="spacingAndGlyphs" textLength="230" x="90" y="249.2573">String persistentStorageOutputLocation)</text><ellipse cx="49" cy="258.8516" fill="#84BE84" rx="3" ry="3" style="stroke: #038048; stroke-width: 1.0;"/><text fill="#000000" font-family="sans-serif" font-size="11" lengthAdjust="spacingAndGlyphs" textLength="191" x="58" y="262.062">void runUseCases(Scanner input)</text><!--MD5=[a087e07e60dfc30a75a02949cb1e7e96]
@startuml Demo_Closure


package edu.oakland.production.admin {
    class Demo {
        .. Main Production Classes ..
        - DisplayGpsInterface displayGpsInterface
        - DisplayCommInterface displayCommInterface
        .. Use Case Runners ..
        - GpsSystem gpsSystem
        - User user
        - PersistentStorageManager persistentStorageManager
        __
        {static} + void main(Sting args[])
        + void initSecureLockTrackSystem(int systemRfid,
        \tString persistentStorageInputLocation,
        \tString persistentStorageOutputLocation)
        + void runUseCases(Scanner input)
    }
}






@enduml

PlantUML version 1.2020.02(Sun Mar 01 10:22:07 GMT 2020)
(GPL source distribution)
Java Runtime: OpenJDK Runtime Environment
JVM: OpenJDK 64-Bit Server VM
Java Version: 11.0.9+11-Ubuntu-0ubuntu1
Operating System: Linux
Default Encoding: ANSI_X3.4-1968
Language: en
Country: US
--></g></svg>