<?xml version="1.0" encoding="UTF-8" standalone="no"?><svg xmlns="http://www.w3.org/2000/svg" xmlns:xlink="http://www.w3.org/1999/xlink" contentScriptType="application/ecmascript" contentStyleType="text/css" height="267px" preserveAspectRatio="none" style="width:474px;height:267px;" version="1.1" viewBox="0 0 474 267" width="474px" zoomAndPan="magnify"><defs><filter height="300%" id="f1mjudgt8t64et" width="300%" x="-1" y="-1"><feGaussianBlur result="blurOut" stdDeviation="2.0"/><feColorMatrix in="blurOut" result="blurOut2" type="matrix" values="0 0 0 0 0 0 0 0 0 0 0 0 0 0 0 0 0 0 .4 0"/><feOffset dx="4.0" dy="4.0" in="blurOut2" result="blurOut3"/><feBlend in="SourceGraphic" in2="blurOut3" mode="normal"/></filter></defs><g><!--MD5=[c2e276049abfe145c9906edb061abd32]
cluster edu.oakland.production.database--><polygon fill="#FFFFFF" filter="url(#f1mjudgt8t64et)" points="22,24,292,24,299,46.2969,452,46.2969,452,255,22,255,22,24" style="stroke: #000000; stroke-width: 1.5;"/><line style="stroke: #000000; stroke-width: 1.5;" x1="22" x2="299" y1="46.2969" y2="46.2969"/><text fill="#000000" font-family="sans-serif" font-size="14" font-weight="bold" lengthAdjust="spacingAndGlyphs" textLength="264" x="26" y="38.9951">edu.oakland.production.database</text><!--MD5=[9f85d6b15dbd6dc4f6cf7395c0833d14]
class DatabaseCommInterfaceImplementation--><rect fill="#FEFECE" filter="url(#f1mjudgt8t64et)" height="180.0469" id="DatabaseCommInterfaceImplementation" style="stroke: #A80036; stroke-width: 1.5;" width="398" x="38" y="59"/><ellipse cx="106.75" cy="75" fill="#ADD1B2" rx="11" ry="11" style="stroke: #A80036; stroke-width: 1.0;"/><path d="M109.7188,80.6406 Q109.1406,80.9375 108.5,81.0781 Q107.8594,81.2344 107.1563,81.2344 Q104.6563,81.2344 103.3281,79.5938 Q102.0156,77.9375 102.0156,74.8125 Q102.0156,71.6875 103.3281,70.0313 Q104.6563,68.375 107.1563,68.375 Q107.8594,68.375 108.5,68.5313 Q109.1563,68.6875 109.7188,68.9844 L109.7188,71.7031 Q109.0938,71.125 108.5,70.8594 Q107.9063,70.5781 107.2813,70.5781 Q105.9375,70.5781 105.25,71.6563 Q104.5625,72.7188 104.5625,74.8125 Q104.5625,76.9063 105.25,77.9844 Q105.9375,79.0469 107.2813,79.0469 Q107.9063,79.0469 108.5,78.7813 Q109.0938,78.5 109.7188,77.9219 L109.7188,80.6406 Z "/><text fill="#000000" font-family="sans-serif" font-size="12" lengthAdjust="spacingAndGlyphs" textLength="252" x="127.25" y="79.1543">DatabaseCommInterfaceImplementation</text><line style="stroke: #A80036; stroke-width: 1.5;" x1="39" x2="435" y1="91" y2="91"/><rect fill="none" height="6" style="stroke: #C82930; stroke-width: 1.0;" width="6" x="46" y="99"/><text fill="#000000" font-family="sans-serif" font-size="11" lengthAdjust="spacingAndGlyphs" textLength="283" x="58" y="105.2104">DatabaseCommManager databaseCommManager</text><line style="stroke: #A80036; stroke-width: 1.5;" x1="39" x2="435" y1="111.8047" y2="111.8047"/><text fill="#000000" font-family="sans-serif" font-size="11" lengthAdjust="spacingAndGlyphs" textLength="212" x="44" y="126.0151">DatabaseCommInterface(int rfidData,</text><text fill="#000000" font-family="sans-serif" font-size="11" lengthAdjust="spacingAndGlyphs" textLength="179" x="76" y="138.8198">LocationDataPoint locDataPoint,</text><text fill="#000000" font-family="sans-serif" font-size="11" lengthAdjust="spacingAndGlyphs" textLength="119" x="76" y="151.6245">TrackData trackData)</text><ellipse cx="49" cy="178.0234" fill="#84BE84" rx="3" ry="3" style="stroke: #038048; stroke-width: 1.0;"/><text fill="#000000" font-family="sans-serif" font-size="11" lengthAdjust="spacingAndGlyphs" textLength="154" x="58" y="181.2339">int receiveGetRfidRequest()</text><ellipse cx="49" cy="190.8281" fill="#84BE84" rx="3" ry="3" style="stroke: #038048; stroke-width: 1.0;"/><text fill="#000000" font-family="sans-serif" font-size="11" lengthAdjust="spacingAndGlyphs" textLength="372" x="58" y="194.0386">LocationDataPoint receiveGetLocationDataPointRequest(int offset)</text><ellipse cx="49" cy="203.6328" fill="#84BE84" rx="3" ry="3" style="stroke: #038048; stroke-width: 1.0;"/><text fill="#000000" font-family="sans-serif" font-size="11" lengthAdjust="spacingAndGlyphs" textLength="284" x="58" y="206.8433">TrackData receiveGetTrackDataRequest(int offset)</text><ellipse cx="49" cy="216.4375" fill="#84BE84" rx="3" ry="3" style="stroke: #038048; stroke-width: 1.0;"/><text fill="#000000" font-family="sans-serif" font-size="11" lengthAdjust="spacingAndGlyphs" textLength="283" x="58" y="219.6479">void storeTrackDataRequest(TrackData trackData)</text><ellipse cx="49" cy="229.2422" fill="#84BE84" rx="3" ry="3" style="stroke: #038048; stroke-width: 1.0;"/><text fill="#000000" font-family="sans-serif" font-size="11" lengthAdjust="spacingAndGlyphs" textLength="183" x="58" y="232.4526">String receiveGetModeRequest()</text><line style="stroke: #A80036; stroke-width: 1.0; stroke-dasharray: 1.0,2.0;" x1="39" x2="204" y1="164.6211" y2="164.6211"/><text fill="#000000" font-family="sans-serif" font-size="11" lengthAdjust="spacingAndGlyphs" textLength="66" x="204" y="167.9292">Use Case 1</text><line style="stroke: #A80036; stroke-width: 1.0; stroke-dasharray: 1.0,2.0;" x1="270" x2="435" y1="164.6211" y2="164.6211"/><!--MD5=[6c77d14c747941fe13313fb9dcf94392]
@startuml DatabaseCommInterfaceImplementation

package edu.oakland.production.database {
    class DatabaseCommInterfaceImplementation {
        - DatabaseCommManager databaseCommManager
        __
        DatabaseCommInterface(int rfidData, 
        \tLocationDataPoint locDataPoint,
        \tTrackData trackData)
        .. Use Case 1 ..
        + int receiveGetRfidRequest()
        + LocationDataPoint receiveGetLocationDataPointRequest(int offset)
        + TrackData receiveGetTrackDataRequest(int offset)
        + void storeTrackDataRequest(TrackData trackData)
        + String receiveGetModeRequest()
    }
}

@enduml

PlantUML version 1.2020.02(Sun Mar 01 10:22:07 GMT 2020)
(GPL source distribution)
Java Runtime: OpenJDK Runtime Environment
JVM: OpenJDK 64-Bit Server VM
Java Version: 11.0.9+11-Ubuntu-0ubuntu1
Operating System: Linux
Default Encoding: ANSI_X3.4-1968
Language: en
Country: US
--></g></svg>