<?xml version="1.0" encoding="UTF-8" standalone="no"?><svg xmlns="http://www.w3.org/2000/svg" xmlns:xlink="http://www.w3.org/1999/xlink" contentScriptType="application/ecmascript" contentStyleType="text/css" height="203px" preserveAspectRatio="none" style="width:430px;height:203px;" version="1.1" viewBox="0 0 430 203" width="430px" zoomAndPan="magnify"><defs><filter height="300%" id="fmm443f2p5wy" width="300%" x="-1" y="-1"><feGaussianBlur result="blurOut" stdDeviation="2.0"/><feColorMatrix in="blurOut" result="blurOut2" type="matrix" values="0 0 0 0 0 0 0 0 0 0 0 0 0 0 0 0 0 0 .4 0"/><feOffset dx="4.0" dy="4.0" in="blurOut2" result="blurOut3"/><feBlend in="SourceGraphic" in2="blurOut3" mode="normal"/></filter></defs><g><!--MD5=[33504725b8a69ba2207f0a836957a91c]
cluster edu.oakland.production.middleware02--><polygon fill="#FFFFFF" filter="url(#fmm443f2p5wy)" points="22,24,332,24,339,46.2969,408,46.2969,408,191,22,191,22,24" style="stroke: #000000; stroke-width: 1.5;"/><line style="stroke: #000000; stroke-width: 1.5;" x1="22" x2="339" y1="46.2969" y2="46.2969"/><text fill="#000000" font-family="sans-serif" font-size="14" font-weight="bold" lengthAdjust="spacingAndGlyphs" textLength="304" x="26" y="38.9951">edu.oakland.production.middleware02</text><!--MD5=[0a03c366ade61429da89cc477d567a32]
class MiddlewareCommInterfaceImplementation--><rect fill="#FEFECE" filter="url(#fmm443f2p5wy)" height="116.0234" id="MiddlewareCommInterfaceImplementation" style="stroke: #A80036; stroke-width: 1.5;" width="353" x="38.5" y="59"/><ellipse cx="80.5" cy="75" fill="#ADD1B2" rx="11" ry="11" style="stroke: #A80036; stroke-width: 1.0;"/><path d="M83.4688,80.6406 Q82.8906,80.9375 82.25,81.0781 Q81.6094,81.2344 80.9063,81.2344 Q78.4063,81.2344 77.0781,79.5938 Q75.7656,77.9375 75.7656,74.8125 Q75.7656,71.6875 77.0781,70.0313 Q78.4063,68.375 80.9063,68.375 Q81.6094,68.375 82.25,68.5313 Q82.9063,68.6875 83.4688,68.9844 L83.4688,71.7031 Q82.8438,71.125 82.25,70.8594 Q81.6563,70.5781 81.0313,70.5781 Q79.6875,70.5781 79,71.6563 Q78.3125,72.7188 78.3125,74.8125 Q78.3125,76.9063 79,77.9844 Q79.6875,79.0469 81.0313,79.0469 Q81.6563,79.0469 82.25,78.7813 Q82.8438,78.5 83.4688,77.9219 L83.4688,80.6406 Z "/><text fill="#000000" font-family="sans-serif" font-size="12" lengthAdjust="spacingAndGlyphs" textLength="261" x="100.5" y="79.1543">MiddlewareCommInterfaceImplementation</text><line style="stroke: #A80036; stroke-width: 1.5;" x1="39.5" x2="390.5" y1="91" y2="91"/><rect fill="none" height="6" style="stroke: #C82930; stroke-width: 1.0;" width="6" x="46.5" y="99"/><text fill="#000000" font-family="sans-serif" font-size="11" lengthAdjust="spacingAndGlyphs" textLength="291" x="58.5" y="105.2104">MiddlewareCommLinkManager middlewareManager</text><line style="stroke: #A80036; stroke-width: 1.5;" x1="39.5" x2="390.5" y1="111.8047" y2="111.8047"/><ellipse cx="49.5" cy="122.8047" fill="#84BE84" rx="3" ry="3" style="stroke: #038048; stroke-width: 1.0;"/><text fill="#000000" font-family="sans-serif" font-size="11" lengthAdjust="spacingAndGlyphs" textLength="243" x="58.5" y="126.0151">MiddlewareCommInterfaceImplementation(</text><text fill="#000000" font-family="sans-serif" font-size="11" lengthAdjust="spacingAndGlyphs" textLength="295" x="90.5" y="138.8198">MiddlewareCommLinkManager middlewareManager)</text><ellipse cx="49.5" cy="165.2188" fill="#84BE84" rx="3" ry="3" style="stroke: #038048; stroke-width: 1.0;"/><text fill="#000000" font-family="sans-serif" font-size="11" lengthAdjust="spacingAndGlyphs" textLength="171" x="58.5" y="168.4292">TrackData requestRfid(int rfid)</text><line style="stroke: #A80036; stroke-width: 1.0; stroke-dasharray: 1.0,2.0;" x1="39.5" x2="182" y1="151.8164" y2="151.8164"/><text fill="#000000" font-family="sans-serif" font-size="11" lengthAdjust="spacingAndGlyphs" textLength="66" x="182" y="155.1245">Use Case 1</text><line style="stroke: #A80036; stroke-width: 1.0; stroke-dasharray: 1.0,2.0;" x1="248" x2="390.5" y1="151.8164" y2="151.8164"/><!--MD5=[3fcfb6e605dfa72af09fc7e15611f45c]
@startuml MiddlewareCommInterfaceImplementation

package edu.oakland.production.middleware02 {
    class MiddlewareCommInterfaceImplementation {
        - MiddlewareCommLinkManager middlewareManager
        __
        + MiddlewareCommInterfaceImplementation(
        \tMiddlewareCommLinkManager middlewareManager)
        .. Use Case 1 ..
        + TrackData requestRfid(int rfid)
}

@enduml

PlantUML version 1.2020.02(Sun Mar 01 10:22:07 GMT 2020)
(GPL source distribution)
Java Runtime: OpenJDK Runtime Environment
JVM: OpenJDK 64-Bit Server VM
Java Version: 11.0.9+11-Ubuntu-0ubuntu1
Operating System: Linux
Default Encoding: ANSI_X3.4-1968
Language: en
Country: US
--></g></svg>