<?xml version="1.0" encoding="UTF-8" standalone="no"?><svg xmlns="http://www.w3.org/2000/svg" xmlns:xlink="http://www.w3.org/1999/xlink" contentScriptType="application/ecmascript" contentStyleType="text/css" height="400px" preserveAspectRatio="none" style="width:1237px;height:400px;" version="1.1" viewBox="0 0 1237 400" width="1237px" zoomAndPan="magnify"><defs><filter height="300%" id="fxnfn3kg8vdfj" width="300%" x="-1" y="-1"><feGaussianBlur result="blurOut" stdDeviation="2.0"/><feColorMatrix in="blurOut" result="blurOut2" type="matrix" values="0 0 0 0 0 0 0 0 0 0 0 0 0 0 0 0 0 0 .4 0"/><feOffset dx="4.0" dy="4.0" in="blurOut2" result="blurOut3"/><feBlend in="SourceGraphic" in2="blurOut3" mode="normal"/></filter></defs><g><!--MD5=[ba602463a52c9ed4bf670ea327ccdb8b]
cluster edu.oakland.production.database01--><polygon fill="#FFFFFF" filter="url(#fxnfn3kg8vdfj)" points="22,24,312,24,319,46.2969,1215,46.2969,1215,388,22,388,22,24" style="stroke: #000000; stroke-width: 1.5;"/><line style="stroke: #000000; stroke-width: 1.5;" x1="22" x2="319" y1="46.2969" y2="46.2969"/><text fill="#000000" font-family="sans-serif" font-size="14" font-weight="bold" lengthAdjust="spacingAndGlyphs" textLength="284" x="26" y="38.9951">edu.oakland.production.database01</text><!--MD5=[3bff7e01a405ec7c4802abd699e27172]
class DatabaseGisInterface--><rect fill="#FEFECE" filter="url(#fxnfn3kg8vdfj)" height="120.0234" id="DatabaseGisInterface" style="stroke: #A80036; stroke-width: 1.5;" width="383" x="37.5" y="59"/><ellipse cx="157.25" cy="75" fill="#B4A7E5" rx="11" ry="11" style="stroke: #A80036; stroke-width: 1.0;"/><path d="M153.1719,70.7656 L153.1719,68.6094 L160.5625,68.6094 L160.5625,70.7656 L158.0938,70.7656 L158.0938,78.8438 L160.5625,78.8438 L160.5625,81 L153.1719,81 L153.1719,78.8438 L155.6406,78.8438 L155.6406,70.7656 L153.1719,70.7656 Z "/><text fill="#000000" font-family="sans-serif" font-size="12" font-style="italic" lengthAdjust="spacingAndGlyphs" textLength="135" x="177.75" y="79.1543">DatabaseGisInterface</text><line style="stroke: #A80036; stroke-width: 1.5;" x1="38.5" x2="419.5" y1="91" y2="91"/><line style="stroke: #A80036; stroke-width: 1.5;" x1="38.5" x2="419.5" y1="99" y2="99"/><ellipse cx="48.5" cy="126.8047" fill="#84BE84" rx="3" ry="3" style="stroke: #038048; stroke-width: 1.0;"/><text fill="#000000" font-family="sans-serif" font-size="11" font-style="italic" lengthAdjust="spacingAndGlyphs" textLength="357" x="57.5" y="130.0151">void recieveStoreRequest(LocationDataPoint locationDataPoint)</text><line style="stroke: #A80036; stroke-width: 1.0; stroke-dasharray: 1.0,2.0;" x1="38.5" x2="196" y1="113.4023" y2="113.4023"/><text fill="#000000" font-family="sans-serif" font-size="11" lengthAdjust="spacingAndGlyphs" textLength="66" x="196" y="116.7104">Use Case 1</text><line style="stroke: #A80036; stroke-width: 1.0; stroke-dasharray: 1.0,2.0;" x1="262" x2="419.5" y1="113.4023" y2="113.4023"/><ellipse cx="48.5" cy="156.4141" fill="#84BE84" rx="3" ry="3" style="stroke: #038048; stroke-width: 1.0;"/><text fill="#000000" font-family="sans-serif" font-size="11" font-style="italic" lengthAdjust="spacingAndGlyphs" textLength="232" x="57.5" y="159.6245">String recieveModeRequest(String mode)</text><ellipse cx="48.5" cy="169.2188" fill="#84BE84" rx="3" ry="3" style="stroke: #038048; stroke-width: 1.0;"/><text fill="#000000" font-family="sans-serif" font-size="11" font-style="italic" lengthAdjust="spacingAndGlyphs" textLength="273" x="57.5" y="172.4292">String recieveNextSatRequest(String currentSat)</text><line style="stroke: #A80036; stroke-width: 1.0; stroke-dasharray: 1.0,2.0;" x1="38.5" x2="196" y1="143.0117" y2="143.0117"/><text fill="#000000" font-family="sans-serif" font-size="11" lengthAdjust="spacingAndGlyphs" textLength="66" x="196" y="146.3198">Use Case 2</text><line style="stroke: #A80036; stroke-width: 1.0; stroke-dasharray: 1.0,2.0;" x1="262" x2="419.5" y1="143.0117" y2="143.0117"/><!--MD5=[a9fcaa89db220a1b0201406d1ae34ee7]
class DatabaseGisManager--><rect fill="#FEFECE" filter="url(#fxnfn3kg8vdfj)" height="120.0234" id="DatabaseGisManager" style="stroke: #A80036; stroke-width: 1.5;" width="367" x="455.5" y="59"/><ellipse cx="568.25" cy="75" fill="#B4A7E5" rx="11" ry="11" style="stroke: #A80036; stroke-width: 1.0;"/><path d="M564.1719,70.7656 L564.1719,68.6094 L571.5625,68.6094 L571.5625,70.7656 L569.0938,70.7656 L569.0938,78.8438 L571.5625,78.8438 L571.5625,81 L564.1719,81 L564.1719,78.8438 L566.6406,78.8438 L566.6406,70.7656 L564.1719,70.7656 Z "/><text fill="#000000" font-family="sans-serif" font-size="12" font-style="italic" lengthAdjust="spacingAndGlyphs" textLength="133" x="588.75" y="79.1543">DatabaseGisManager</text><line style="stroke: #A80036; stroke-width: 1.5;" x1="456.5" x2="821.5" y1="91" y2="91"/><line style="stroke: #A80036; stroke-width: 1.5;" x1="456.5" x2="821.5" y1="99" y2="99"/><ellipse cx="466.5" cy="126.8047" fill="#84BE84" rx="3" ry="3" style="stroke: #038048; stroke-width: 1.0;"/><text fill="#000000" font-family="sans-serif" font-size="11" font-style="italic" lengthAdjust="spacingAndGlyphs" textLength="341" x="475.5" y="130.0151">void passStoreRequest(LocationDataPoint locationDataPoint)</text><line style="stroke: #A80036; stroke-width: 1.0; stroke-dasharray: 1.0,2.0;" x1="456.5" x2="606" y1="113.4023" y2="113.4023"/><text fill="#000000" font-family="sans-serif" font-size="11" lengthAdjust="spacingAndGlyphs" textLength="66" x="606" y="116.7104">Use Case 1</text><line style="stroke: #A80036; stroke-width: 1.0; stroke-dasharray: 1.0,2.0;" x1="672" x2="821.5" y1="113.4023" y2="113.4023"/><ellipse cx="466.5" cy="156.4141" fill="#84BE84" rx="3" ry="3" style="stroke: #038048; stroke-width: 1.0;"/><text fill="#000000" font-family="sans-serif" font-size="11" font-style="italic" lengthAdjust="spacingAndGlyphs" textLength="207" x="475.5" y="159.6245">void passModeRequest(String mode)</text><ellipse cx="466.5" cy="169.2188" fill="#84BE84" rx="3" ry="3" style="stroke: #038048; stroke-width: 1.0;"/><text fill="#000000" font-family="sans-serif" font-size="11" font-style="italic" lengthAdjust="spacingAndGlyphs" textLength="257" x="475.5" y="172.4292">String passNextSatRequest(String currentSat)</text><line style="stroke: #A80036; stroke-width: 1.0; stroke-dasharray: 1.0,2.0;" x1="456.5" x2="606" y1="143.0117" y2="143.0117"/><text fill="#000000" font-family="sans-serif" font-size="11" lengthAdjust="spacingAndGlyphs" textLength="66" x="606" y="146.3198">Use Case 2</text><line style="stroke: #A80036; stroke-width: 1.0; stroke-dasharray: 1.0,2.0;" x1="672" x2="821.5" y1="143.0117" y2="143.0117"/><!--MD5=[682ad4bb5de8181c75770070b57ba99f]
class DatabaseGisPersistentStorage--><rect fill="#FEFECE" filter="url(#fxnfn3kg8vdfj)" height="120.0234" id="DatabaseGisPersistentStorage" style="stroke: #A80036; stroke-width: 1.5;" width="341" x="857.5" y="59"/><ellipse cx="929.25" cy="75" fill="#B4A7E5" rx="11" ry="11" style="stroke: #A80036; stroke-width: 1.0;"/><path d="M925.1719,70.7656 L925.1719,68.6094 L932.5625,68.6094 L932.5625,70.7656 L930.0938,70.7656 L930.0938,78.8438 L932.5625,78.8438 L932.5625,81 L925.1719,81 L925.1719,78.8438 L927.6406,78.8438 L927.6406,70.7656 L925.1719,70.7656 Z "/><text fill="#000000" font-family="sans-serif" font-size="12" font-style="italic" lengthAdjust="spacingAndGlyphs" textLength="189" x="949.75" y="79.1543">DatabaseGisPersistentStorage</text><line style="stroke: #A80036; stroke-width: 1.5;" x1="858.5" x2="1197.5" y1="91" y2="91"/><line style="stroke: #A80036; stroke-width: 1.5;" x1="858.5" x2="1197.5" y1="99" y2="99"/><ellipse cx="868.5" cy="126.8047" fill="#84BE84" rx="3" ry="3" style="stroke: #038048; stroke-width: 1.0;"/><text fill="#000000" font-family="sans-serif" font-size="11" font-style="italic" lengthAdjust="spacingAndGlyphs" textLength="315" x="877.5" y="130.0151">void storeLocation(LocationDataPoint locationDataPoint)</text><line style="stroke: #A80036; stroke-width: 1.0; stroke-dasharray: 1.0,2.0;" x1="858.5" x2="995" y1="113.4023" y2="113.4023"/><text fill="#000000" font-family="sans-serif" font-size="11" lengthAdjust="spacingAndGlyphs" textLength="66" x="995" y="116.7104">Use Case 1</text><line style="stroke: #A80036; stroke-width: 1.0; stroke-dasharray: 1.0,2.0;" x1="1061" x2="1197.5" y1="113.4023" y2="113.4023"/><ellipse cx="868.5" cy="156.4141" fill="#84BE84" rx="3" ry="3" style="stroke: #038048; stroke-width: 1.0;"/><text fill="#000000" font-family="sans-serif" font-size="11" font-style="italic" lengthAdjust="spacingAndGlyphs" textLength="164" x="877.5" y="159.6245">void storeMode(String mode)</text><ellipse cx="868.5" cy="169.2188" fill="#84BE84" rx="3" ry="3" style="stroke: #038048; stroke-width: 1.0;"/><text fill="#000000" font-family="sans-serif" font-size="11" font-style="italic" lengthAdjust="spacingAndGlyphs" textLength="203" x="877.5" y="172.4292">String getNextSat(String currentSat)</text><line style="stroke: #A80036; stroke-width: 1.0; stroke-dasharray: 1.0,2.0;" x1="858.5" x2="995" y1="143.0117" y2="143.0117"/><text fill="#000000" font-family="sans-serif" font-size="11" lengthAdjust="spacingAndGlyphs" textLength="66" x="995" y="146.3198">Use Case 2</text><line style="stroke: #A80036; stroke-width: 1.0; stroke-dasharray: 1.0,2.0;" x1="1061" x2="1197.5" y1="143.0117" y2="143.0117"/><!--MD5=[08068c224d75f5ca94e2833221bd6445]
class DatabaseGisInterfaceImplementation--><rect fill="#FEFECE" filter="url(#fxnfn3kg8vdfj)" height="132.8281" id="DatabaseGisInterfaceImplementation" style="stroke: #A80036; stroke-width: 1.5;" width="382" x="38" y="239"/><ellipse cx="108.25" cy="255" fill="#ADD1B2" rx="11" ry="11" style="stroke: #A80036; stroke-width: 1.0;"/><path d="M111.2188,260.6406 Q110.6406,260.9375 110,261.0781 Q109.3594,261.2344 108.6563,261.2344 Q106.1563,261.2344 104.8281,259.5938 Q103.5156,257.9375 103.5156,254.8125 Q103.5156,251.6875 104.8281,250.0313 Q106.1563,248.375 108.6563,248.375 Q109.3594,248.375 110,248.5313 Q110.6563,248.6875 111.2188,248.9844 L111.2188,251.7031 Q110.5938,251.125 110,250.8594 Q109.4063,250.5781 108.7813,250.5781 Q107.4375,250.5781 106.75,251.6563 Q106.0625,252.7188 106.0625,254.8125 Q106.0625,256.9063 106.75,257.9844 Q107.4375,259.0469 108.7813,259.0469 Q109.4063,259.0469 110,258.7813 Q110.5938,258.5 111.2188,257.9219 L111.2188,260.6406 Z "/><text fill="#000000" font-family="sans-serif" font-size="12" lengthAdjust="spacingAndGlyphs" textLength="233" x="128.75" y="259.1543">DatabaseGisInterfaceImplementation</text><line style="stroke: #A80036; stroke-width: 1.5;" x1="39" x2="419" y1="271" y2="271"/><line style="stroke: #A80036; stroke-width: 1.5;" x1="39" x2="419" y1="279" y2="279"/><ellipse cx="49" cy="306.8047" fill="#84BE84" rx="3" ry="3" style="stroke: #038048; stroke-width: 1.0;"/><text fill="#000000" font-family="sans-serif" font-size="11" lengthAdjust="spacingAndGlyphs" textLength="356" x="58" y="310.0151">void recieveStoreRequest(LocationDataPoint locationDataPoint)</text><line style="stroke: #A80036; stroke-width: 1.0; stroke-dasharray: 1.0,2.0;" x1="39" x2="196" y1="293.4023" y2="293.4023"/><text fill="#000000" font-family="sans-serif" font-size="11" lengthAdjust="spacingAndGlyphs" textLength="66" x="196" y="296.7104">Use Case 1</text><line style="stroke: #A80036; stroke-width: 1.0; stroke-dasharray: 1.0,2.0;" x1="262" x2="419" y1="293.4023" y2="293.4023"/><ellipse cx="49" cy="336.4141" fill="#84BE84" rx="3" ry="3" style="stroke: #038048; stroke-width: 1.0;"/><text fill="#000000" font-family="sans-serif" font-size="11" lengthAdjust="spacingAndGlyphs" textLength="222" x="58" y="339.6245">void recieveModeRequest(String mode)</text><ellipse cx="49" cy="349.2188" fill="#84BE84" rx="3" ry="3" style="stroke: #038048; stroke-width: 1.0;"/><text fill="#000000" font-family="sans-serif" font-size="11" lengthAdjust="spacingAndGlyphs" textLength="275" x="58" y="352.4292">String recieveNextSatRequest(String currentSat)</text><text fill="#000000" font-family="sans-serif" font-size="11" lengthAdjust="spacingAndGlyphs" textLength="0" x="62" y="365.2339"/><line style="stroke: #A80036; stroke-width: 1.0; stroke-dasharray: 1.0,2.0;" x1="39" x2="196" y1="323.0117" y2="323.0117"/><text fill="#000000" font-family="sans-serif" font-size="11" lengthAdjust="spacingAndGlyphs" textLength="66" x="196" y="326.3198">Use Case 2</text><line style="stroke: #A80036; stroke-width: 1.0; stroke-dasharray: 1.0,2.0;" x1="262" x2="419" y1="323.0117" y2="323.0117"/><!--MD5=[cb27e8f56b23a96be3f83add8518c141]
class DatabaseGisManagerImplementation--><rect fill="#FEFECE" filter="url(#fxnfn3kg8vdfj)" height="120.0234" id="DatabaseGisManagerImplementation" style="stroke: #A80036; stroke-width: 1.5;" width="369" x="455.5" y="245.5"/><ellipse cx="519.75" cy="261.5" fill="#ADD1B2" rx="11" ry="11" style="stroke: #A80036; stroke-width: 1.0;"/><path d="M522.7188,267.1406 Q522.1406,267.4375 521.5,267.5781 Q520.8594,267.7344 520.1563,267.7344 Q517.6563,267.7344 516.3281,266.0938 Q515.0156,264.4375 515.0156,261.3125 Q515.0156,258.1875 516.3281,256.5313 Q517.6563,254.875 520.1563,254.875 Q520.8594,254.875 521.5,255.0313 Q522.1563,255.1875 522.7188,255.4844 L522.7188,258.2031 Q522.0938,257.625 521.5,257.3594 Q520.9063,257.0781 520.2813,257.0781 Q518.9375,257.0781 518.25,258.1563 Q517.5625,259.2188 517.5625,261.3125 Q517.5625,263.4063 518.25,264.4844 Q518.9375,265.5469 520.2813,265.5469 Q520.9063,265.5469 521.5,265.2813 Q522.0938,265 522.7188,264.4219 L522.7188,267.1406 Z "/><text fill="#000000" font-family="sans-serif" font-size="12" lengthAdjust="spacingAndGlyphs" textLength="232" x="540.25" y="265.6543">DatabaseGisManagerImplementation</text><line style="stroke: #A80036; stroke-width: 1.5;" x1="456.5" x2="823.5" y1="277.5" y2="277.5"/><line style="stroke: #A80036; stroke-width: 1.5;" x1="456.5" x2="823.5" y1="285.5" y2="285.5"/><ellipse cx="466.5" cy="313.3047" fill="#84BE84" rx="3" ry="3" style="stroke: #038048; stroke-width: 1.0;"/><text fill="#000000" font-family="sans-serif" font-size="11" lengthAdjust="spacingAndGlyphs" textLength="343" x="475.5" y="316.5151">void passStoreRequest(LocationDataPoint locationDataPoint)</text><line style="stroke: #A80036; stroke-width: 1.0; stroke-dasharray: 1.0,2.0;" x1="456.5" x2="607" y1="299.9023" y2="299.9023"/><text fill="#000000" font-family="sans-serif" font-size="11" lengthAdjust="spacingAndGlyphs" textLength="66" x="607" y="303.2104">Use Case 1</text><line style="stroke: #A80036; stroke-width: 1.0; stroke-dasharray: 1.0,2.0;" x1="673" x2="823.5" y1="299.9023" y2="299.9023"/><ellipse cx="466.5" cy="342.9141" fill="#84BE84" rx="3" ry="3" style="stroke: #038048; stroke-width: 1.0;"/><text fill="#000000" font-family="sans-serif" font-size="11" lengthAdjust="spacingAndGlyphs" textLength="209" x="475.5" y="346.1245">void passModeRequest(String mode)</text><ellipse cx="466.5" cy="355.7188" fill="#84BE84" rx="3" ry="3" style="stroke: #038048; stroke-width: 1.0;"/><text fill="#000000" font-family="sans-serif" font-size="11" lengthAdjust="spacingAndGlyphs" textLength="262" x="475.5" y="358.9292">String passNextSatRequest(String currentSat)</text><line style="stroke: #A80036; stroke-width: 1.0; stroke-dasharray: 1.0,2.0;" x1="456.5" x2="607" y1="329.5117" y2="329.5117"/><text fill="#000000" font-family="sans-serif" font-size="11" lengthAdjust="spacingAndGlyphs" textLength="66" x="607" y="332.8198">Use Case 2</text><line style="stroke: #A80036; stroke-width: 1.0; stroke-dasharray: 1.0,2.0;" x1="673" x2="823.5" y1="329.5117" y2="329.5117"/><!--MD5=[d502c0abe7f4c115aa024d204bba6703]
class DatabaseGisPersistentStorageImplementation--><rect fill="#FEFECE" filter="url(#fxnfn3kg8vdfj)" height="107.2188" id="DatabaseGisPersistentStorageImplementation" style="stroke: #A80036; stroke-width: 1.5;" width="323" x="859.5" y="252"/><ellipse cx="874.5" cy="268" fill="#ADD1B2" rx="11" ry="11" style="stroke: #A80036; stroke-width: 1.0;"/><path d="M877.4688,273.6406 Q876.8906,273.9375 876.25,274.0781 Q875.6094,274.2344 874.9063,274.2344 Q872.4063,274.2344 871.0781,272.5938 Q869.7656,270.9375 869.7656,267.8125 Q869.7656,264.6875 871.0781,263.0313 Q872.4063,261.375 874.9063,261.375 Q875.6094,261.375 876.25,261.5313 Q876.9063,261.6875 877.4688,261.9844 L877.4688,264.7031 Q876.8438,264.125 876.25,263.8594 Q875.6563,263.5781 875.0313,263.5781 Q873.6875,263.5781 873,264.6563 Q872.3125,265.7188 872.3125,267.8125 Q872.3125,269.9063 873,270.9844 Q873.6875,272.0469 875.0313,272.0469 Q875.6563,272.0469 876.25,271.7813 Q876.8438,271.5 877.4688,270.9219 L877.4688,273.6406 Z "/><text fill="#000000" font-family="sans-serif" font-size="12" lengthAdjust="spacingAndGlyphs" textLength="291" x="888.5" y="272.1543">DatabaseGisPersistentStorageImplementation</text><line style="stroke: #A80036; stroke-width: 1.5;" x1="860.5" x2="1181.5" y1="284" y2="284"/><line style="stroke: #A80036; stroke-width: 1.5;" x1="860.5" x2="1181.5" y1="292" y2="292"/><text fill="#000000" font-family="sans-serif" font-size="11" lengthAdjust="spacingAndGlyphs" textLength="0" x="869.5" y="323.0151"/><line style="stroke: #A80036; stroke-width: 1.0; stroke-dasharray: 1.0,2.0;" x1="860.5" x2="988" y1="306.4023" y2="306.4023"/><text fill="#000000" font-family="sans-serif" font-size="11" lengthAdjust="spacingAndGlyphs" textLength="66" x="988" y="309.7104">Use Case 1</text><line style="stroke: #A80036; stroke-width: 1.0; stroke-dasharray: 1.0,2.0;" x1="1054" x2="1181.5" y1="306.4023" y2="306.4023"/><text fill="#000000" font-family="sans-serif" font-size="11" lengthAdjust="spacingAndGlyphs" textLength="0" x="869.5" y="352.6245"/><line style="stroke: #A80036; stroke-width: 1.0; stroke-dasharray: 1.0,2.0;" x1="860.5" x2="988" y1="336.0117" y2="336.0117"/><text fill="#000000" font-family="sans-serif" font-size="11" lengthAdjust="spacingAndGlyphs" textLength="66" x="988" y="339.3198">Use Case 2</text><line style="stroke: #A80036; stroke-width: 1.0; stroke-dasharray: 1.0,2.0;" x1="1054" x2="1181.5" y1="336.0117" y2="336.0117"/><!--MD5=[57d2095737951b693a3c5eb0c4dcc61f]
link DatabaseGisInterface to DatabaseGisManager--><!--MD5=[6792067eaf9241fb76aa4c9ee8702e6d]
link DatabaseGisManager to DatabaseGisPersistentStorage--><!--MD5=[efc0b1b029b4a8dacdd6c97115679f7d]
link DatabaseGisInterface to DatabaseGisInterfaceImplementation--><!--MD5=[e26b9afa317d278bf9805cdb9d513fd7]
link DatabaseGisInterfaceImplementation to DatabaseGisManagerImplementation--><!--MD5=[26856e8cc2110e6eabc4744e0ab46a67]
link DatabaseGisManagerImplementation to DatabaseGisPersistentStorageImplementation--><!--MD5=[c0caa5b731af04b8a2e6cb3dd8eca835]
@startuml DATABASE01_PRODUCTIONPackage

package edu.oakland.production.database01 {

}


package edu.oakland.production.database01 {
    interface DatabaseGisInterface {
        __
        .. Use Case 1 ..
        {abstract} + void recieveStoreRequest(LocationDataPoint locationDataPoint)
        .. Use Case 2 ..
        {abstract} + String recieveModeRequest(String mode)
        {abstract} + String recieveNextSatRequest(String currentSat)
    }
}


package edu.oakland.production.database01 {
    interface DatabaseGisManager {
        __
        .. Use Case 1 ..
        {abstract} + void passStoreRequest(LocationDataPoint locationDataPoint)
        .. Use Case 2 ..
        {abstract} + void passModeRequest(String mode)
        {abstract} + String passNextSatRequest(String currentSat)
    }
}


package edu.oakland.production.database01 {
    interface DatabaseGisPersistentStorage {
        __
        .. Use Case 1 ..
        {abstract} + void storeLocation(LocationDataPoint locationDataPoint)
        .. Use Case 2 ..
        {abstract} + void storeMode(String mode)
        {abstract} + String getNextSat(String currentSat)
    }
}


package edu.oakland.production.database01 {
    class DatabaseGisInterfaceImplementation {
        __
        .. Use Case 1 ..
        + void recieveStoreRequest(LocationDataPoint locationDataPoint)
        .. Use Case 2 ..
        + void recieveModeRequest(String mode)
        + String recieveNextSatRequest(String currentSat)
        
    }
}


package edu.oakland.production.database01 {
    class DatabaseGisManagerImplementation {
        __
        .. Use Case 1 ..
        + void passStoreRequest(LocationDataPoint locationDataPoint)
        .. Use Case 2 ..
        + void passModeRequest(String mode)
        + String passNextSatRequest(String currentSat)
    }
}


package edu.oakland.production.database01 {
    class DatabaseGisPersistentStorageImplementation {
        __
        .. Use Case 1 ..

        .. Use Case 2 ..

    }
}


@enduml

PlantUML version 1.2020.02(Sun Mar 01 10:22:07 GMT 2020)
(GPL source distribution)
Java Runtime: OpenJDK Runtime Environment
JVM: OpenJDK 64-Bit Server VM
Java Version: 11.0.9+11-Ubuntu-0ubuntu1
Operating System: Linux
Default Encoding: ANSI_X3.4-1968
Language: en
Country: US
--></g></svg>