<?xml version="1.0" encoding="UTF-8" standalone="no"?><svg xmlns="http://www.w3.org/2000/svg" xmlns:xlink="http://www.w3.org/1999/xlink" contentScriptType="application/ecmascript" contentStyleType="text/css" height="263px" preserveAspectRatio="none" style="width:440px;height:263px;" version="1.1" viewBox="0 0 440 263" width="440px" zoomAndPan="magnify"><defs><filter height="300%" id="fz4j6u3vvgmcm" width="300%" x="-1" y="-1"><feGaussianBlur result="blurOut" stdDeviation="2.0"/><feColorMatrix in="blurOut" result="blurOut2" type="matrix" values="0 0 0 0 0 0 0 0 0 0 0 0 0 0 0 0 0 0 .4 0"/><feOffset dx="4.0" dy="4.0" in="blurOut2" result="blurOut3"/><feBlend in="SourceGraphic" in2="blurOut3" mode="normal"/></filter></defs><g><!--MD5=[8bd6d9786dfa802b1eecfb7372bf244a]
cluster edu.oakland.production.admin--><polygon fill="#FFFFFF" filter="url(#fz4j6u3vvgmcm)" points="22,24,267,24,274,46.2969,418,46.2969,418,251,22,251,22,24" style="stroke: #000000; stroke-width: 1.5;"/><line style="stroke: #000000; stroke-width: 1.5;" x1="22" x2="274" y1="46.2969" y2="46.2969"/><text fill="#000000" font-family="sans-serif" font-size="14" font-weight="bold" lengthAdjust="spacingAndGlyphs" textLength="239" x="26" y="38.9951">edu.oakland.production.admin</text><!--MD5=[d25225d68d5e3bf6aa5fb275933b1e63]
class GpsSystem--><rect fill="#FEFECE" filter="url(#fz4j6u3vvgmcm)" height="176.0469" id="GpsSystem" style="stroke: #A80036; stroke-width: 1.5;" width="365" x="37.5" y="59"/><ellipse cx="181.25" cy="75" fill="#ADD1B2" rx="11" ry="11" style="stroke: #A80036; stroke-width: 1.0;"/><path d="M184.2188,80.6406 Q183.6406,80.9375 183,81.0781 Q182.3594,81.2344 181.6563,81.2344 Q179.1563,81.2344 177.8281,79.5938 Q176.5156,77.9375 176.5156,74.8125 Q176.5156,71.6875 177.8281,70.0313 Q179.1563,68.375 181.6563,68.375 Q182.3594,68.375 183,68.5313 Q183.6563,68.6875 184.2188,68.9844 L184.2188,71.7031 Q183.5938,71.125 183,70.8594 Q182.4063,70.5781 181.7813,70.5781 Q180.4375,70.5781 179.75,71.6563 Q179.0625,72.7188 179.0625,74.8125 Q179.0625,76.9063 179.75,77.9844 Q180.4375,79.0469 181.7813,79.0469 Q182.4063,79.0469 183,78.7813 Q183.5938,78.5 184.2188,77.9219 L184.2188,80.6406 Z "/><text fill="#000000" font-family="sans-serif" font-size="12" lengthAdjust="spacingAndGlyphs" textLength="69" x="201.75" y="79.1543">GpsSystem</text><line style="stroke: #A80036; stroke-width: 1.5;" x1="38.5" x2="401.5" y1="91" y2="91"/><rect fill="none" height="6" style="stroke: #C82930; stroke-width: 1.0;" width="6" x="45.5" y="99"/><text fill="#000000" font-family="sans-serif" font-size="11" lengthAdjust="spacingAndGlyphs" textLength="231" x="57.5" y="105.2104">DisplayGpsInterface displayGpsInterface</text><rect fill="none" height="6" style="stroke: #C82930; stroke-width: 1.0;" width="6" x="45.5" y="111.8047"/><text fill="#000000" font-family="sans-serif" font-size="11" lengthAdjust="spacingAndGlyphs" textLength="110" x="57.5" y="118.0151">Satellite[] satellites</text><line style="stroke: #A80036; stroke-width: 1.5;" x1="38.5" x2="401.5" y1="124.6094" y2="124.6094"/><ellipse cx="48.5" cy="135.6094" fill="#84BE84" rx="3" ry="3" style="stroke: #038048; stroke-width: 1.0;"/><text fill="#000000" font-family="sans-serif" font-size="11" lengthAdjust="spacingAndGlyphs" textLength="312" x="57.5" y="138.8198">GpsSystems(DisplayGpsInterface displayGpsInterface,</text><text fill="#000000" font-family="sans-serif" font-size="11" lengthAdjust="spacingAndGlyphs" textLength="135" x="89.5" y="151.6245">String[] satelliteNames)</text><ellipse cx="48.5" cy="161.2188" fill="#84BE84" rx="3" ry="3" style="stroke: #038048; stroke-width: 1.0;"/><text fill="#000000" font-family="sans-serif" font-size="11" lengthAdjust="spacingAndGlyphs" textLength="191" x="57.5" y="164.4292">void runUseCase1(Scanner input)</text><ellipse cx="48.5" cy="174.0234" fill="#84BE84" rx="3" ry="3" style="stroke: #038048; stroke-width: 1.0;"/><text fill="#000000" font-family="sans-serif" font-size="11" lengthAdjust="spacingAndGlyphs" textLength="191" x="57.5" y="177.2339">void runUseCase2(Scanner input)</text><ellipse cx="48.5" cy="186.8281" fill="#84BE84" rx="3" ry="3" style="stroke: #038048; stroke-width: 1.0;"/><text fill="#000000" font-family="sans-serif" font-size="11" lengthAdjust="spacingAndGlyphs" textLength="268" x="57.5" y="190.0386">void configureSatellites(String[] satelliteNames</text><text fill="#000000" font-family="sans-serif" font-size="11" lengthAdjust="spacingAndGlyphs" textLength="307" x="89.5" y="202.8433">float incrementLatAmount, float incrementLngAmount,</text><text fill="#000000" font-family="sans-serif" font-size="11" lengthAdjust="spacingAndGlyphs" textLength="227" x="89.5" y="215.6479">LocationDataPoint initLocationDataPoint)</text><rect fill="#F24D5C" height="6" style="stroke: #C82930; stroke-width: 1.0;" width="6" x="45.5" y="222.2422"/><text fill="#000000" font-family="sans-serif" font-size="11" lengthAdjust="spacingAndGlyphs" textLength="272" x="57.5" y="228.4526">void configureSatellites(String[] satelliteNames)</text><!--MD5=[3c20602fde3ac8b53882fe84d2d3350d]
@startuml GpsSystem_DirectDependencies


package edu.oakland.production.admin {
    class GpsSystem {
        - DisplayGpsInterface displayGpsInterface
        - Satellite[] satellites
        __
        + GpsSystems(DisplayGpsInterface displayGpsInterface,
        \tString[] satelliteNames)
        + void runUseCase1(Scanner input)
        + void runUseCase2(Scanner input)
        + void configureSatellites(String[] satelliteNames
        \tfloat incrementLatAmount, float incrementLngAmount,
        \tLocationDataPoint initLocationDataPoint)
        - void configureSatellites(String[] satelliteNames)
    }
}






@enduml

PlantUML version 1.2020.02(Sun Mar 01 10:22:07 GMT 2020)
(GPL source distribution)
Java Runtime: OpenJDK Runtime Environment
JVM: OpenJDK 64-Bit Server VM
Java Version: 11.0.9+11-Ubuntu-0ubuntu1
Operating System: Linux
Default Encoding: ANSI_X3.4-1968
Language: en
Country: US
--></g></svg>