<?xml version="1.0" encoding="UTF-8" standalone="no"?><svg xmlns="http://www.w3.org/2000/svg" xmlns:xlink="http://www.w3.org/1999/xlink" contentScriptType="application/ecmascript" contentStyleType="text/css" height="387px" preserveAspectRatio="none" style="width:980px;height:387px;" version="1.1" viewBox="0 0 980 387" width="980px" zoomAndPan="magnify"><defs><filter height="300%" id="f1mruijybfmk1e" width="300%" x="-1" y="-1"><feGaussianBlur result="blurOut" stdDeviation="2.0"/><feColorMatrix in="blurOut" result="blurOut2" type="matrix" values="0 0 0 0 0 0 0 0 0 0 0 0 0 0 0 0 0 0 .4 0"/><feOffset dx="4.0" dy="4.0" in="blurOut2" result="blurOut3"/><feBlend in="SourceGraphic" in2="blurOut3" mode="normal"/></filter></defs><g><!--MD5=[fe59aae6f7bfe371a9c197ec1f7f843a]
cluster edu.oakland.production.display02--><polygon fill="#FFFFFF" filter="url(#f1mruijybfmk1e)" points="22,24,295,24,302,46.2969,958,46.2969,958,375,22,375,22,24" style="stroke: #000000; stroke-width: 1.5;"/><line style="stroke: #000000; stroke-width: 1.5;" x1="22" x2="302" y1="46.2969" y2="46.2969"/><text fill="#000000" font-family="sans-serif" font-size="14" font-weight="bold" lengthAdjust="spacingAndGlyphs" textLength="267" x="26" y="38.9951">edu.oakland.production.display02</text><!--MD5=[c8d1e3134fecb0c949fd2a76cc0bb992]
class DisplayCommInterface--><rect fill="#FEFECE" filter="url(#f1mruijybfmk1e)" height="120.0234" id="DisplayCommInterface" style="stroke: #A80036; stroke-width: 1.5;" width="268" x="38" y="59"/><ellipse cx="98.25" cy="75" fill="#B4A7E5" rx="11" ry="11" style="stroke: #A80036; stroke-width: 1.0;"/><path d="M94.1719,70.7656 L94.1719,68.6094 L101.5625,68.6094 L101.5625,70.7656 L99.0938,70.7656 L99.0938,78.8438 L101.5625,78.8438 L101.5625,81 L94.1719,81 L94.1719,78.8438 L96.6406,78.8438 L96.6406,70.7656 L94.1719,70.7656 Z "/><text fill="#000000" font-family="sans-serif" font-size="12" font-style="italic" lengthAdjust="spacingAndGlyphs" textLength="139" x="118.75" y="79.1543">DisplayCommInterface</text><line style="stroke: #A80036; stroke-width: 1.5;" x1="39" x2="305" y1="91" y2="91"/><line style="stroke: #A80036; stroke-width: 1.5;" x1="39" x2="305" y1="99" y2="99"/><ellipse cx="49" cy="126.8047" fill="#84BE84" rx="3" ry="3" style="stroke: #038048; stroke-width: 1.0;"/><text fill="#000000" font-family="sans-serif" font-size="11" font-style="italic" lengthAdjust="spacingAndGlyphs" textLength="242" x="58" y="130.0151">TrackData receiveRfidRequest(int rfidNum)</text><text fill="#000000" font-family="sans-serif" font-size="11" lengthAdjust="spacingAndGlyphs" textLength="0" x="62" y="142.8198"/><line style="stroke: #A80036; stroke-width: 1.0; stroke-dasharray: 1.0,2.0;" x1="39" x2="139" y1="113.4023" y2="113.4023"/><text fill="#000000" font-family="sans-serif" font-size="11" lengthAdjust="spacingAndGlyphs" textLength="66" x="139" y="116.7104">Use Case 1</text><line style="stroke: #A80036; stroke-width: 1.0; stroke-dasharray: 1.0,2.0;" x1="205" x2="305" y1="113.4023" y2="113.4023"/><text fill="#000000" font-family="sans-serif" font-size="11" lengthAdjust="spacingAndGlyphs" textLength="0" x="48" y="172.4292"/><line style="stroke: #A80036; stroke-width: 1.0; stroke-dasharray: 1.0,2.0;" x1="39" x2="139" y1="155.8164" y2="155.8164"/><text fill="#000000" font-family="sans-serif" font-size="11" lengthAdjust="spacingAndGlyphs" textLength="66" x="139" y="159.1245">Use Case 2</text><line style="stroke: #A80036; stroke-width: 1.0; stroke-dasharray: 1.0,2.0;" x1="205" x2="305" y1="155.8164" y2="155.8164"/><!--MD5=[f6b51b5f862da5ce226c62e411e84628]
class DisplayComm2WayInterface--><rect fill="#FEFECE" filter="url(#f1mruijybfmk1e)" height="120.0234" id="DisplayComm2WayInterface" style="stroke: #A80036; stroke-width: 1.5;" width="252" x="341" y="59"/><ellipse cx="376.7" cy="75" fill="#B4A7E5" rx="11" ry="11" style="stroke: #A80036; stroke-width: 1.0;"/><path d="M372.6219,70.7656 L372.6219,68.6094 L380.0125,68.6094 L380.0125,70.7656 L377.5438,70.7656 L377.5438,78.8438 L380.0125,78.8438 L380.0125,81 L372.6219,81 L372.6219,78.8438 L375.0906,78.8438 L375.0906,70.7656 L372.6219,70.7656 Z "/><text fill="#000000" font-family="sans-serif" font-size="12" font-style="italic" lengthAdjust="spacingAndGlyphs" textLength="174" x="395.3" y="79.1543">DisplayComm2WayInterface</text><line style="stroke: #A80036; stroke-width: 1.5;" x1="342" x2="592" y1="91" y2="91"/><line style="stroke: #A80036; stroke-width: 1.5;" x1="342" x2="592" y1="99" y2="99"/><ellipse cx="352" cy="126.8047" fill="#84BE84" rx="3" ry="3" style="stroke: #038048; stroke-width: 1.0;"/><text fill="#000000" font-family="sans-serif" font-size="11" font-style="italic" lengthAdjust="spacingAndGlyphs" textLength="226" x="361" y="130.0151">TrackData passRfidRequest(int rfidNum)</text><text fill="#000000" font-family="sans-serif" font-size="11" lengthAdjust="spacingAndGlyphs" textLength="0" x="365" y="142.8198"/><line style="stroke: #A80036; stroke-width: 1.0; stroke-dasharray: 1.0,2.0;" x1="342" x2="434" y1="113.4023" y2="113.4023"/><text fill="#000000" font-family="sans-serif" font-size="11" lengthAdjust="spacingAndGlyphs" textLength="66" x="434" y="116.7104">Use Case 1</text><line style="stroke: #A80036; stroke-width: 1.0; stroke-dasharray: 1.0,2.0;" x1="500" x2="592" y1="113.4023" y2="113.4023"/><text fill="#000000" font-family="sans-serif" font-size="11" lengthAdjust="spacingAndGlyphs" textLength="0" x="351" y="172.4292"/><line style="stroke: #A80036; stroke-width: 1.0; stroke-dasharray: 1.0,2.0;" x1="342" x2="434" y1="155.8164" y2="155.8164"/><text fill="#000000" font-family="sans-serif" font-size="11" lengthAdjust="spacingAndGlyphs" textLength="66" x="434" y="159.1245">Use Case 2</text><line style="stroke: #A80036; stroke-width: 1.0; stroke-dasharray: 1.0,2.0;" x1="500" x2="592" y1="155.8164" y2="155.8164"/><!--MD5=[6aeb72f2773d7cabb45309482beeff0a]
class DisplayCommManager--><rect fill="#FEFECE" filter="url(#f1mruijybfmk1e)" height="120.0234" id="DisplayCommManager" style="stroke: #A80036; stroke-width: 1.5;" width="275" x="628.5" y="59"/><ellipse cx="693.25" cy="75" fill="#B4A7E5" rx="11" ry="11" style="stroke: #A80036; stroke-width: 1.0;"/><path d="M689.1719,70.7656 L689.1719,68.6094 L696.5625,68.6094 L696.5625,70.7656 L694.0938,70.7656 L694.0938,78.8438 L696.5625,78.8438 L696.5625,81 L689.1719,81 L689.1719,78.8438 L691.6406,78.8438 L691.6406,70.7656 L689.1719,70.7656 Z "/><text fill="#000000" font-family="sans-serif" font-size="12" font-style="italic" lengthAdjust="spacingAndGlyphs" textLength="137" x="713.75" y="79.1543">DisplayCommManager</text><line style="stroke: #A80036; stroke-width: 1.5;" x1="629.5" x2="902.5" y1="91" y2="91"/><line style="stroke: #A80036; stroke-width: 1.5;" x1="629.5" x2="902.5" y1="99" y2="99"/><ellipse cx="639.5" cy="126.8047" fill="#84BE84" rx="3" ry="3" style="stroke: #038048; stroke-width: 1.0;"/><text fill="#000000" font-family="sans-serif" font-size="11" font-style="italic" lengthAdjust="spacingAndGlyphs" textLength="249" x="648.5" y="130.0151">TrackData evaluateRfidRequest(int rfidNum)</text><text fill="#000000" font-family="sans-serif" font-size="11" lengthAdjust="spacingAndGlyphs" textLength="0" x="652.5" y="142.8198"/><line style="stroke: #A80036; stroke-width: 1.0; stroke-dasharray: 1.0,2.0;" x1="629.5" x2="733" y1="113.4023" y2="113.4023"/><text fill="#000000" font-family="sans-serif" font-size="11" lengthAdjust="spacingAndGlyphs" textLength="66" x="733" y="116.7104">Use Case 1</text><line style="stroke: #A80036; stroke-width: 1.0; stroke-dasharray: 1.0,2.0;" x1="799" x2="902.5" y1="113.4023" y2="113.4023"/><text fill="#000000" font-family="sans-serif" font-size="11" lengthAdjust="spacingAndGlyphs" textLength="0" x="638.5" y="172.4292"/><line style="stroke: #A80036; stroke-width: 1.0; stroke-dasharray: 1.0,2.0;" x1="629.5" x2="733" y1="155.8164" y2="155.8164"/><text fill="#000000" font-family="sans-serif" font-size="11" lengthAdjust="spacingAndGlyphs" textLength="66" x="733" y="159.1245">Use Case 2</text><line style="stroke: #A80036; stroke-width: 1.0; stroke-dasharray: 1.0,2.0;" x1="799" x2="902.5" y1="155.8164" y2="155.8164"/><!--MD5=[a35092e604da7274febf4e2cf9a25087]
class DisplayCommInterfaceImplementation--><rect fill="#FEFECE" filter="url(#f1mruijybfmk1e)" height="107.2188" id="DisplayCommInterfaceImplementation" style="stroke: #A80036; stroke-width: 1.5;" width="267" x="38.5" y="245.5"/><ellipse cx="53.5" cy="261.5" fill="#ADD1B2" rx="11" ry="11" style="stroke: #A80036; stroke-width: 1.0;"/><path d="M56.4688,267.1406 Q55.8906,267.4375 55.25,267.5781 Q54.6094,267.7344 53.9063,267.7344 Q51.4063,267.7344 50.0781,266.0938 Q48.7656,264.4375 48.7656,261.3125 Q48.7656,258.1875 50.0781,256.5313 Q51.4063,254.875 53.9063,254.875 Q54.6094,254.875 55.25,255.0313 Q55.9063,255.1875 56.4688,255.4844 L56.4688,258.2031 Q55.8438,257.625 55.25,257.3594 Q54.6563,257.0781 54.0313,257.0781 Q52.6875,257.0781 52,258.1563 Q51.3125,259.2188 51.3125,261.3125 Q51.3125,263.4063 52,264.4844 Q52.6875,265.5469 54.0313,265.5469 Q54.6563,265.5469 55.25,265.2813 Q55.8438,265 56.4688,264.4219 L56.4688,267.1406 Z "/><text fill="#000000" font-family="sans-serif" font-size="12" lengthAdjust="spacingAndGlyphs" textLength="235" x="67.5" y="265.6543">DisplayCommInterfaceImplementation</text><line style="stroke: #A80036; stroke-width: 1.5;" x1="39.5" x2="304.5" y1="277.5" y2="277.5"/><line style="stroke: #A80036; stroke-width: 1.5;" x1="39.5" x2="304.5" y1="285.5" y2="285.5"/><text fill="#000000" font-family="sans-serif" font-size="11" lengthAdjust="spacingAndGlyphs" textLength="0" x="48.5" y="316.5151"/><line style="stroke: #A80036; stroke-width: 1.0; stroke-dasharray: 1.0,2.0;" x1="39.5" x2="139" y1="299.9023" y2="299.9023"/><text fill="#000000" font-family="sans-serif" font-size="11" lengthAdjust="spacingAndGlyphs" textLength="66" x="139" y="303.2104">Use Case 1</text><line style="stroke: #A80036; stroke-width: 1.0; stroke-dasharray: 1.0,2.0;" x1="205" x2="304.5" y1="299.9023" y2="299.9023"/><text fill="#000000" font-family="sans-serif" font-size="11" lengthAdjust="spacingAndGlyphs" textLength="0" x="48.5" y="346.1245"/><line style="stroke: #A80036; stroke-width: 1.0; stroke-dasharray: 1.0,2.0;" x1="39.5" x2="139" y1="329.5117" y2="329.5117"/><text fill="#000000" font-family="sans-serif" font-size="11" lengthAdjust="spacingAndGlyphs" textLength="66" x="139" y="332.8198">Use Case 2</text><line style="stroke: #A80036; stroke-width: 1.0; stroke-dasharray: 1.0,2.0;" x1="205" x2="304.5" y1="329.5117" y2="329.5117"/><!--MD5=[46657c2900260d4d40350fe3f8c544df]
class DisplayComm2WayInterfaceImplementation--><rect fill="#FEFECE" filter="url(#f1mruijybfmk1e)" height="120.0234" id="DisplayComm2WayInterfaceImplementation" style="stroke: #A80036; stroke-width: 1.5;" width="300" x="341" y="239"/><ellipse cx="356" cy="255" fill="#ADD1B2" rx="11" ry="11" style="stroke: #A80036; stroke-width: 1.0;"/><path d="M358.9688,260.6406 Q358.3906,260.9375 357.75,261.0781 Q357.1094,261.2344 356.4063,261.2344 Q353.9063,261.2344 352.5781,259.5938 Q351.2656,257.9375 351.2656,254.8125 Q351.2656,251.6875 352.5781,250.0313 Q353.9063,248.375 356.4063,248.375 Q357.1094,248.375 357.75,248.5313 Q358.4063,248.6875 358.9688,248.9844 L358.9688,251.7031 Q358.3438,251.125 357.75,250.8594 Q357.1563,250.5781 356.5313,250.5781 Q355.1875,250.5781 354.5,251.6563 Q353.8125,252.7188 353.8125,254.8125 Q353.8125,256.9063 354.5,257.9844 Q355.1875,259.0469 356.5313,259.0469 Q357.1563,259.0469 357.75,258.7813 Q358.3438,258.5 358.9688,257.9219 L358.9688,260.6406 Z "/><text fill="#000000" font-family="sans-serif" font-size="12" lengthAdjust="spacingAndGlyphs" textLength="268" x="370" y="259.1543">DisplayComm2WayInterfaceImplementation</text><line style="stroke: #A80036; stroke-width: 1.5;" x1="342" x2="640" y1="271" y2="271"/><line style="stroke: #A80036; stroke-width: 1.5;" x1="342" x2="640" y1="279" y2="279"/><ellipse cx="352" cy="306.8047" fill="#84BE84" rx="3" ry="3" style="stroke: #038048; stroke-width: 1.0;"/><text fill="#000000" font-family="sans-serif" font-size="11" font-style="italic" lengthAdjust="spacingAndGlyphs" textLength="270" x="361" y="310.0151">LocationDataPoint passRfidRequest(int rfidNum)</text><text fill="#000000" font-family="sans-serif" font-size="11" lengthAdjust="spacingAndGlyphs" textLength="0" x="365" y="322.8198"/><line style="stroke: #A80036; stroke-width: 1.0; stroke-dasharray: 1.0,2.0;" x1="342" x2="458" y1="293.4023" y2="293.4023"/><text fill="#000000" font-family="sans-serif" font-size="11" lengthAdjust="spacingAndGlyphs" textLength="66" x="458" y="296.7104">Use Case 1</text><line style="stroke: #A80036; stroke-width: 1.0; stroke-dasharray: 1.0,2.0;" x1="524" x2="640" y1="293.4023" y2="293.4023"/><text fill="#000000" font-family="sans-serif" font-size="11" lengthAdjust="spacingAndGlyphs" textLength="0" x="351" y="352.4292"/><line style="stroke: #A80036; stroke-width: 1.0; stroke-dasharray: 1.0,2.0;" x1="342" x2="458" y1="335.8164" y2="335.8164"/><text fill="#000000" font-family="sans-serif" font-size="11" lengthAdjust="spacingAndGlyphs" textLength="66" x="458" y="339.1245">Use Case 2</text><line style="stroke: #A80036; stroke-width: 1.0; stroke-dasharray: 1.0,2.0;" x1="524" x2="640" y1="335.8164" y2="335.8164"/><!--MD5=[3a27b63ddb357afc5dde5581215f51f9]
class DisplayCommManagerImplementation--><rect fill="#FEFECE" filter="url(#f1mruijybfmk1e)" height="107.2188" id="DisplayCommManagerImplementation" style="stroke: #A80036; stroke-width: 1.5;" width="266" x="676" y="245.5"/><ellipse cx="691" cy="261.5" fill="#ADD1B2" rx="11" ry="11" style="stroke: #A80036; stroke-width: 1.0;"/><path d="M693.9688,267.1406 Q693.3906,267.4375 692.75,267.5781 Q692.1094,267.7344 691.4063,267.7344 Q688.9063,267.7344 687.5781,266.0938 Q686.2656,264.4375 686.2656,261.3125 Q686.2656,258.1875 687.5781,256.5313 Q688.9063,254.875 691.4063,254.875 Q692.1094,254.875 692.75,255.0313 Q693.4063,255.1875 693.9688,255.4844 L693.9688,258.2031 Q693.3438,257.625 692.75,257.3594 Q692.1563,257.0781 691.5313,257.0781 Q690.1875,257.0781 689.5,258.1563 Q688.8125,259.2188 688.8125,261.3125 Q688.8125,263.4063 689.5,264.4844 Q690.1875,265.5469 691.5313,265.5469 Q692.1563,265.5469 692.75,265.2813 Q693.3438,265 693.9688,264.4219 L693.9688,267.1406 Z "/><text fill="#000000" font-family="sans-serif" font-size="12" lengthAdjust="spacingAndGlyphs" textLength="234" x="705" y="265.6543">DisplayCommManagerImplementation</text><line style="stroke: #A80036; stroke-width: 1.5;" x1="677" x2="941" y1="277.5" y2="277.5"/><line style="stroke: #A80036; stroke-width: 1.5;" x1="677" x2="941" y1="285.5" y2="285.5"/><text fill="#000000" font-family="sans-serif" font-size="11" lengthAdjust="spacingAndGlyphs" textLength="0" x="686" y="316.5151"/><line style="stroke: #A80036; stroke-width: 1.0; stroke-dasharray: 1.0,2.0;" x1="677" x2="776" y1="299.9023" y2="299.9023"/><text fill="#000000" font-family="sans-serif" font-size="11" lengthAdjust="spacingAndGlyphs" textLength="66" x="776" y="303.2104">Use Case 1</text><line style="stroke: #A80036; stroke-width: 1.0; stroke-dasharray: 1.0,2.0;" x1="842" x2="941" y1="299.9023" y2="299.9023"/><text fill="#000000" font-family="sans-serif" font-size="11" lengthAdjust="spacingAndGlyphs" textLength="0" x="686" y="346.1245"/><line style="stroke: #A80036; stroke-width: 1.0; stroke-dasharray: 1.0,2.0;" x1="677" x2="776" y1="329.5117" y2="329.5117"/><text fill="#000000" font-family="sans-serif" font-size="11" lengthAdjust="spacingAndGlyphs" textLength="66" x="776" y="332.8198">Use Case 2</text><line style="stroke: #A80036; stroke-width: 1.0; stroke-dasharray: 1.0,2.0;" x1="842" x2="941" y1="329.5117" y2="329.5117"/><!--MD5=[c9341cce37a1a8bee80ad1365349afef]
link DisplayCommInterface to DisplayComm2WayInterface--><!--MD5=[7835b7bc4a765bae53638d0402d5d5e6]
link DisplayComm2WayInterface to DisplayCommManager--><!--MD5=[7d92106ecb9088e13e6754b44ec571b0]
link DisplayCommInterface to DisplayCommInterfaceImplementation--><!--MD5=[51e28edbb9f88779af066724948e7048]
link DisplayCommInterfaceImplementation to DisplayComm2WayInterfaceImplementation--><!--MD5=[ea4cd417ea9ea2c0dbdbdf4e4e3d21de]
link DisplayComm2WayInterfaceImplementation to DisplayCommManagerImplementation--><!--MD5=[04b061e4415d04bc44c9b2ce49a95a97]
@startuml DISPLAY02_PRODUCTIONPackage

package edu.oakland.production.display02 {

}


package edu.oakland.production.display02 {
    interface DisplayCommInterface {
        __
        .. Use Case 1 ..
        {abstract} + TrackData receiveRfidRequest(int rfidNum)

        .. Use Case 2 ..

    }
}


package edu.oakland.production.display02 {
    interface DisplayComm2WayInterface {
        __
        .. Use Case 1 ..
        {abstract} + TrackData passRfidRequest(int rfidNum)

        .. Use Case 2 ..

    }
}


package edu.oakland.production.display02 {
    interface DisplayCommManager {
        __
        .. Use Case 1 ..
        {abstract} + TrackData evaluateRfidRequest(int rfidNum)

        .. Use Case 2 ..

    }
}


package edu.oakland.production.display02 {
    class DisplayCommInterfaceImplementation {
        __
        .. Use Case 1 ..

        .. Use Case 2 ..

    }
}


package edu.oakland.production.display02 {
    class DisplayComm2WayInterfaceImplementation {
        __
        .. Use Case 1 ..
        {abstract} + LocationDataPoint passRfidRequest(int rfidNum)

        .. Use Case 2 ..

    }
}


package edu.oakland.production.display02 {
    class DisplayCommManagerImplementation {
        __
        .. Use Case 1 ..

        .. Use Case 2 ..

    }
}


@enduml

PlantUML version 1.2020.02(Sun Mar 01 10:22:07 GMT 2020)
(GPL source distribution)
Java Runtime: OpenJDK Runtime Environment
JVM: OpenJDK 64-Bit Server VM
Java Version: 11.0.9+11-Ubuntu-0ubuntu1
Operating System: Linux
Default Encoding: ANSI_X3.4-1968
Language: en
Country: US
--></g></svg>