<?xml version="1.0" encoding="UTF-8" standalone="no"?><svg xmlns="http://www.w3.org/2000/svg" xmlns:xlink="http://www.w3.org/1999/xlink" contentScriptType="application/ecmascript" contentStyleType="text/css" height="361px" preserveAspectRatio="none" style="width:420px;height:361px;" version="1.1" viewBox="0 0 420 361" width="420px" zoomAndPan="magnify"><defs><filter height="300%" id="f1d8l9ho858wx7" width="300%" x="-1" y="-1"><feGaussianBlur result="blurOut" stdDeviation="2.0"/><feColorMatrix in="blurOut" result="blurOut2" type="matrix" values="0 0 0 0 0 0 0 0 0 0 0 0 0 0 0 0 0 0 .4 0"/><feOffset dx="4.0" dy="4.0" in="blurOut2" result="blurOut3"/><feBlend in="SourceGraphic" in2="blurOut3" mode="normal"/></filter></defs><g><!--MD5=[3f116dbe56326f0321b4f8703f3bd2bd]
cluster edu.oakland.production.middleware01--><polygon fill="#FFFFFF" filter="url(#f1d8l9ho858wx7)" points="22,24,332,24,339,46.2969,398,46.2969,398,349,22,349,22,24" style="stroke: #000000; stroke-width: 1.5;"/><line style="stroke: #000000; stroke-width: 1.5;" x1="22" x2="339" y1="46.2969" y2="46.2969"/><text fill="#000000" font-family="sans-serif" font-size="14" font-weight="bold" lengthAdjust="spacingAndGlyphs" textLength="304" x="26" y="38.9951">edu.oakland.production.middleware01</text><!--MD5=[00cae90dad3d6433dbf28d238006c643]
class MiddlewareGisInterfaceImplementation--><rect fill="#FEFECE" filter="url(#f1d8l9ho858wx7)" height="107.2188" id="MiddlewareGisInterfaceImplementation" style="stroke: #A80036; stroke-width: 1.5;" width="274" x="73" y="226"/><ellipse cx="88" cy="242" fill="#ADD1B2" rx="11" ry="11" style="stroke: #A80036; stroke-width: 1.0;"/><path d="M90.9688,247.6406 Q90.3906,247.9375 89.75,248.0781 Q89.1094,248.2344 88.4063,248.2344 Q85.9063,248.2344 84.5781,246.5938 Q83.2656,244.9375 83.2656,241.8125 Q83.2656,238.6875 84.5781,237.0313 Q85.9063,235.375 88.4063,235.375 Q89.1094,235.375 89.75,235.5313 Q90.4063,235.6875 90.9688,235.9844 L90.9688,238.7031 Q90.3438,238.125 89.75,237.8594 Q89.1563,237.5781 88.5313,237.5781 Q87.1875,237.5781 86.5,238.6563 Q85.8125,239.7188 85.8125,241.8125 Q85.8125,243.9063 86.5,244.9844 Q87.1875,246.0469 88.5313,246.0469 Q89.1563,246.0469 89.75,245.7813 Q90.3438,245.5 90.9688,244.9219 L90.9688,247.6406 Z "/><text fill="#000000" font-family="sans-serif" font-size="12" lengthAdjust="spacingAndGlyphs" textLength="242" x="102" y="246.1543">MiddlewareGisInterfaceImplementation</text><line style="stroke: #A80036; stroke-width: 1.5;" x1="74" x2="346" y1="258" y2="258"/><line style="stroke: #A80036; stroke-width: 1.5;" x1="74" x2="346" y1="266" y2="266"/><text fill="#000000" font-family="sans-serif" font-size="11" lengthAdjust="spacingAndGlyphs" textLength="0" x="83" y="297.0151"/><line style="stroke: #A80036; stroke-width: 1.0; stroke-dasharray: 1.0,2.0;" x1="74" x2="177" y1="280.4023" y2="280.4023"/><text fill="#000000" font-family="sans-serif" font-size="11" lengthAdjust="spacingAndGlyphs" textLength="66" x="177" y="283.7104">Use Case 1</text><line style="stroke: #A80036; stroke-width: 1.0; stroke-dasharray: 1.0,2.0;" x1="243" x2="346" y1="280.4023" y2="280.4023"/><text fill="#000000" font-family="sans-serif" font-size="11" lengthAdjust="spacingAndGlyphs" textLength="0" x="83" y="326.6245"/><line style="stroke: #A80036; stroke-width: 1.0; stroke-dasharray: 1.0,2.0;" x1="74" x2="177" y1="310.0117" y2="310.0117"/><text fill="#000000" font-family="sans-serif" font-size="11" lengthAdjust="spacingAndGlyphs" textLength="66" x="177" y="313.3198">Use Case 2</text><line style="stroke: #A80036; stroke-width: 1.0; stroke-dasharray: 1.0,2.0;" x1="243" x2="346" y1="310.0117" y2="310.0117"/><!--MD5=[291cbaddec1abeb2a8a54e5a343c76e9]
class MiddlewareGisInterface--><rect fill="#FEFECE" filter="url(#f1d8l9ho858wx7)" height="107.2188" id="MiddlewareGisInterface" style="stroke: #A80036; stroke-width: 1.5;" width="345" x="37.5" y="59"/><ellipse cx="132.75" cy="75" fill="#B4A7E5" rx="11" ry="11" style="stroke: #A80036; stroke-width: 1.0;"/><path d="M128.6719,70.7656 L128.6719,68.6094 L136.0625,68.6094 L136.0625,70.7656 L133.5938,70.7656 L133.5938,78.8438 L136.0625,78.8438 L136.0625,81 L128.6719,81 L128.6719,78.8438 L131.1406,78.8438 L131.1406,70.7656 L128.6719,70.7656 Z "/><text fill="#000000" font-family="sans-serif" font-size="12" font-style="italic" lengthAdjust="spacingAndGlyphs" textLength="146" x="153.25" y="79.1543">MiddlewareGisInterface</text><line style="stroke: #A80036; stroke-width: 1.5;" x1="38.5" x2="381.5" y1="91" y2="91"/><line style="stroke: #A80036; stroke-width: 1.5;" x1="38.5" x2="381.5" y1="99" y2="99"/><ellipse cx="48.5" cy="126.8047" fill="#84BE84" rx="3" ry="3" style="stroke: #038048; stroke-width: 1.0;"/><text fill="#000000" font-family="sans-serif" font-size="11" font-style="italic" lengthAdjust="spacingAndGlyphs" textLength="319" x="57.5" y="130.0151">String revieveGpsSignalStrength(Satellite satelliteSignal)</text><line style="stroke: #A80036; stroke-width: 1.0; stroke-dasharray: 1.0,2.0;" x1="38.5" x2="177" y1="113.4023" y2="113.4023"/><text fill="#000000" font-family="sans-serif" font-size="11" lengthAdjust="spacingAndGlyphs" textLength="66" x="177" y="116.7104">Use Case 1</text><line style="stroke: #A80036; stroke-width: 1.0; stroke-dasharray: 1.0,2.0;" x1="243" x2="381.5" y1="113.4023" y2="113.4023"/><ellipse cx="48.5" cy="156.4141" fill="#84BE84" rx="3" ry="3" style="stroke: #038048; stroke-width: 1.0;"/><text fill="#000000" font-family="sans-serif" font-size="11" font-style="italic" lengthAdjust="spacingAndGlyphs" textLength="319" x="57.5" y="159.6245">String revieveGpsSignalStrength(Satellite satelliteSignal)</text><line style="stroke: #A80036; stroke-width: 1.0; stroke-dasharray: 1.0,2.0;" x1="38.5" x2="177" y1="143.0117" y2="143.0117"/><text fill="#000000" font-family="sans-serif" font-size="11" lengthAdjust="spacingAndGlyphs" textLength="66" x="177" y="146.3198">Use Case 2</text><line style="stroke: #A80036; stroke-width: 1.0; stroke-dasharray: 1.0,2.0;" x1="243" x2="381.5" y1="143.0117" y2="143.0117"/><!--MD5=[f9eec55cbf04414e6fb4fde8343b27e2]
reverse link MiddlewareGisInterface to MiddlewareGisInterfaceImplementation--><path d="M210,186.48 C210,199.71 210,213.27 210,225.77 " fill="none" id="MiddlewareGisInterface&lt;-MiddlewareGisInterfaceImplementation" style="stroke: #A80036; stroke-width: 1.0; stroke-dasharray: 7.0,7.0;"/><polygon fill="none" points="203,186.16,210,166.16,217,186.16,203,186.16" style="stroke: #A80036; stroke-width: 1.0;"/><!--MD5=[1ce1a9e9063aedfa876a955051b5570b]
@startuml MiddlewareGisInterfaceImplementation_DirectDependencies


package edu.oakland.production.middleware01 {
    class MiddlewareGisInterfaceImplementation {
        __
        .. Use Case 1 ..

        .. Use Case 2 ..

    }
}



package edu.oakland.production.middleware01 {
    interface MiddlewareGisInterface {
        __
        .. Use Case 1 ..
        {abstract} + String revieveGpsSignalStrength(Satellite satelliteSignal)
        .. Use Case 2 ..
        {abstract} + String revieveGpsSignalStrength(Satellite satelliteSignal)
    }
}

MiddlewareGisInterfaceImplementation .up.|> MiddlewareGisInterface





@enduml

PlantUML version 1.2020.02(Sun Mar 01 10:22:07 GMT 2020)
(GPL source distribution)
Java Runtime: OpenJDK Runtime Environment
JVM: OpenJDK 64-Bit Server VM
Java Version: 11.0.9+11-Ubuntu-0ubuntu1
Operating System: Linux
Default Encoding: ANSI_X3.4-1968
Language: en
Country: US
--></g></svg>