<?xml version="1.0" encoding="UTF-8" standalone="no"?><svg xmlns="http://www.w3.org/2000/svg" xmlns:xlink="http://www.w3.org/1999/xlink" contentScriptType="application/ecmascript" contentStyleType="text/css" height="361px" preserveAspectRatio="none" style="width:392px;height:361px;" version="1.1" viewBox="0 0 392 361" width="392px" zoomAndPan="magnify"><defs><filter height="300%" id="f1syk4uu7902yl" width="300%" x="-1" y="-1"><feGaussianBlur result="blurOut" stdDeviation="2.0"/><feColorMatrix in="blurOut" result="blurOut2" type="matrix" values="0 0 0 0 0 0 0 0 0 0 0 0 0 0 0 0 0 0 .4 0"/><feOffset dx="4.0" dy="4.0" in="blurOut2" result="blurOut3"/><feBlend in="SourceGraphic" in2="blurOut3" mode="normal"/></filter></defs><g><!--MD5=[33504725b8a69ba2207f0a836957a91c]
cluster edu.oakland.production.middleware02--><polygon fill="#FFFFFF" filter="url(#f1syk4uu7902yl)" points="22,24,332,24,339,46.2969,370,46.2969,370,349,22,349,22,24" style="stroke: #000000; stroke-width: 1.5;"/><line style="stroke: #000000; stroke-width: 1.5;" x1="22" x2="339" y1="46.2969" y2="46.2969"/><text fill="#000000" font-family="sans-serif" font-size="14" font-weight="bold" lengthAdjust="spacingAndGlyphs" textLength="304" x="26" y="38.9951">edu.oakland.production.middleware02</text><!--MD5=[d9ed64ee38938b46697008700ce69fba]
class MiddlewareCommLinkManagerImplementation--><rect fill="#FEFECE" filter="url(#f1syk4uu7902yl)" height="107.2188" id="MiddlewareCommLinkManagerImplementation" style="stroke: #A80036; stroke-width: 1.5;" width="316" x="38" y="226"/><ellipse cx="53" cy="242" fill="#ADD1B2" rx="11" ry="11" style="stroke: #A80036; stroke-width: 1.0;"/><path d="M55.9688,247.6406 Q55.3906,247.9375 54.75,248.0781 Q54.1094,248.2344 53.4063,248.2344 Q50.9063,248.2344 49.5781,246.5938 Q48.2656,244.9375 48.2656,241.8125 Q48.2656,238.6875 49.5781,237.0313 Q50.9063,235.375 53.4063,235.375 Q54.1094,235.375 54.75,235.5313 Q55.4063,235.6875 55.9688,235.9844 L55.9688,238.7031 Q55.3438,238.125 54.75,237.8594 Q54.1563,237.5781 53.5313,237.5781 Q52.1875,237.5781 51.5,238.6563 Q50.8125,239.7188 50.8125,241.8125 Q50.8125,243.9063 51.5,244.9844 Q52.1875,246.0469 53.5313,246.0469 Q54.1563,246.0469 54.75,245.7813 Q55.3438,245.5 55.9688,244.9219 L55.9688,247.6406 Z "/><text fill="#000000" font-family="sans-serif" font-size="12" lengthAdjust="spacingAndGlyphs" textLength="284" x="67" y="246.1543">MiddlewareCommLinkManagerImplementation</text><line style="stroke: #A80036; stroke-width: 1.5;" x1="39" x2="353" y1="258" y2="258"/><line style="stroke: #A80036; stroke-width: 1.5;" x1="39" x2="353" y1="266" y2="266"/><text fill="#000000" font-family="sans-serif" font-size="11" lengthAdjust="spacingAndGlyphs" textLength="0" x="48" y="297.0151"/><line style="stroke: #A80036; stroke-width: 1.0; stroke-dasharray: 1.0,2.0;" x1="39" x2="163" y1="280.4023" y2="280.4023"/><text fill="#000000" font-family="sans-serif" font-size="11" lengthAdjust="spacingAndGlyphs" textLength="66" x="163" y="283.7104">Use Case 1</text><line style="stroke: #A80036; stroke-width: 1.0; stroke-dasharray: 1.0,2.0;" x1="229" x2="353" y1="280.4023" y2="280.4023"/><text fill="#000000" font-family="sans-serif" font-size="11" lengthAdjust="spacingAndGlyphs" textLength="0" x="48" y="326.6245"/><line style="stroke: #A80036; stroke-width: 1.0; stroke-dasharray: 1.0,2.0;" x1="39" x2="163" y1="310.0117" y2="310.0117"/><text fill="#000000" font-family="sans-serif" font-size="11" lengthAdjust="spacingAndGlyphs" textLength="66" x="163" y="313.3198">Use Case 2</text><line style="stroke: #A80036; stroke-width: 1.0; stroke-dasharray: 1.0,2.0;" x1="229" x2="353" y1="310.0117" y2="310.0117"/><!--MD5=[d01e667c21cf622da77e8a7601ca5c91]
class MiddlewareCommLinkManager--><rect fill="#FEFECE" filter="url(#f1syk4uu7902yl)" height="107.2188" id="MiddlewareCommLinkManager" style="stroke: #A80036; stroke-width: 1.5;" width="221" x="85.5" y="59"/><ellipse cx="100.5" cy="75" fill="#B4A7E5" rx="11" ry="11" style="stroke: #A80036; stroke-width: 1.0;"/><path d="M96.4219,70.7656 L96.4219,68.6094 L103.8125,68.6094 L103.8125,70.7656 L101.3438,70.7656 L101.3438,78.8438 L103.8125,78.8438 L103.8125,81 L96.4219,81 L96.4219,78.8438 L98.8906,78.8438 L98.8906,70.7656 L96.4219,70.7656 Z "/><text fill="#000000" font-family="sans-serif" font-size="12" font-style="italic" lengthAdjust="spacingAndGlyphs" textLength="189" x="114.5" y="79.1543">MiddlewareCommLinkManager</text><line style="stroke: #A80036; stroke-width: 1.5;" x1="86.5" x2="305.5" y1="91" y2="91"/><line style="stroke: #A80036; stroke-width: 1.5;" x1="86.5" x2="305.5" y1="99" y2="99"/><ellipse cx="96.5" cy="126.8047" fill="#84BE84" rx="3" ry="3" style="stroke: #038048; stroke-width: 1.0;"/><text fill="#000000" font-family="sans-serif" font-size="11" font-style="italic" lengthAdjust="spacingAndGlyphs" textLength="160" x="105.5" y="130.0151">TrackData parseRfid(int rfid)</text><line style="stroke: #A80036; stroke-width: 1.0; stroke-dasharray: 1.0,2.0;" x1="86.5" x2="163" y1="113.4023" y2="113.4023"/><text fill="#000000" font-family="sans-serif" font-size="11" lengthAdjust="spacingAndGlyphs" textLength="66" x="163" y="116.7104">Use Case 1</text><line style="stroke: #A80036; stroke-width: 1.0; stroke-dasharray: 1.0,2.0;" x1="229" x2="305.5" y1="113.4023" y2="113.4023"/><text fill="#000000" font-family="sans-serif" font-size="11" lengthAdjust="spacingAndGlyphs" textLength="0" x="95.5" y="159.6245"/><line style="stroke: #A80036; stroke-width: 1.0; stroke-dasharray: 1.0,2.0;" x1="86.5" x2="163" y1="143.0117" y2="143.0117"/><text fill="#000000" font-family="sans-serif" font-size="11" lengthAdjust="spacingAndGlyphs" textLength="66" x="163" y="146.3198">Use Case 2</text><line style="stroke: #A80036; stroke-width: 1.0; stroke-dasharray: 1.0,2.0;" x1="229" x2="305.5" y1="143.0117" y2="143.0117"/><!--MD5=[497c69cbff9542047faf5ca77780c8cb]
reverse link MiddlewareCommLinkManager to MiddlewareCommLinkManagerImplementation--><path d="M196,186.48 C196,199.71 196,213.27 196,225.77 " fill="none" id="MiddlewareCommLinkManager&lt;-MiddlewareCommLinkManagerImplementation" style="stroke: #A80036; stroke-width: 1.0; stroke-dasharray: 7.0,7.0;"/><polygon fill="none" points="189,186.16,196,166.16,203,186.16,189,186.16" style="stroke: #A80036; stroke-width: 1.0;"/><!--MD5=[2eeedb632dafe154626ba68b554612a6]
@startuml MiddlewareCommLinkManagerImplementation_DirectDependencies


package edu.oakland.production.middleware02 {
    class MiddlewareCommLinkManagerImplementation {
        __
        .. Use Case 1 ..

        .. Use Case 2 ..

    }
}



package edu.oakland.production.middleware02 {
    interface MiddlewareCommLinkManager {
        __
        .. Use Case 1 ..
        {abstract} + TrackData parseRfid(int rfid)
        .. Use Case 2 ..

    }
}

MiddlewareCommLinkManagerImplementation .up.|> MiddlewareCommLinkManager





@enduml

PlantUML version 1.2020.02(Sun Mar 01 10:22:07 GMT 2020)
(GPL source distribution)
Java Runtime: OpenJDK Runtime Environment
JVM: OpenJDK 64-Bit Server VM
Java Version: 11.0.9+11-Ubuntu-0ubuntu1
Operating System: Linux
Default Encoding: ANSI_X3.4-1968
Language: en
Country: US
--></g></svg>