<?xml version="1.0" encoding="UTF-8" standalone="no"?><svg xmlns="http://www.w3.org/2000/svg" xmlns:xlink="http://www.w3.org/1999/xlink" contentScriptType="application/ecmascript" contentStyleType="text/css" height="173px" preserveAspectRatio="none" style="width:594px;height:173px;" version="1.1" viewBox="0 0 594 173" width="594px" zoomAndPan="magnify"><defs><filter height="300%" id="f1js6k0u3ufcq3" width="300%" x="-1" y="-1"><feGaussianBlur result="blurOut" stdDeviation="2.0"/><feColorMatrix in="blurOut" result="blurOut2" type="matrix" values="0 0 0 0 0 0 0 0 0 0 0 0 0 0 0 0 0 0 .4 0"/><feOffset dx="4.0" dy="4.0" in="blurOut2" result="blurOut3"/><feBlend in="SourceGraphic" in2="blurOut3" mode="normal"/></filter></defs><g><!--MD5=[73d4e355f259fb8d2c716d693a5be920]
cluster edu.oakland.helper.middleware02--><polygon fill="#FFFFFF" filter="url(#f1js6k0u3ufcq3)" points="22,24,297,24,304,46.2969,572,46.2969,572,161,22,161,22,24" style="stroke: #000000; stroke-width: 1.5;"/><line style="stroke: #000000; stroke-width: 1.5;" x1="22" x2="304" y1="46.2969" y2="46.2969"/><text fill="#000000" font-family="sans-serif" font-size="14" font-weight="bold" lengthAdjust="spacingAndGlyphs" textLength="269" x="26" y="38.9951">edu.oakland.helper.middleware02</text><!--MD5=[8d86b1aa2030a05d452f78e2e1fb37ed]
class TrackDataCalculator--><rect fill="#FEFECE" filter="url(#f1js6k0u3ufcq3)" height="86.4141" id="TrackDataCalculator" style="stroke: #A80036; stroke-width: 1.5;" width="518" x="38" y="59"/><ellipse cx="229.25" cy="75" fill="#ADD1B2" rx="11" ry="11" style="stroke: #A80036; stroke-width: 1.0;"/><path d="M232.2188,80.6406 Q231.6406,80.9375 231,81.0781 Q230.3594,81.2344 229.6563,81.2344 Q227.1563,81.2344 225.8281,79.5938 Q224.5156,77.9375 224.5156,74.8125 Q224.5156,71.6875 225.8281,70.0313 Q227.1563,68.375 229.6563,68.375 Q230.3594,68.375 231,68.5313 Q231.6563,68.6875 232.2188,68.9844 L232.2188,71.7031 Q231.5938,71.125 231,70.8594 Q230.4063,70.5781 229.7813,70.5781 Q228.4375,70.5781 227.75,71.6563 Q227.0625,72.7188 227.0625,74.8125 Q227.0625,76.9063 227.75,77.9844 Q228.4375,79.0469 229.7813,79.0469 Q230.4063,79.0469 231,78.7813 Q231.5938,78.5 232.2188,77.9219 L232.2188,80.6406 Z "/><text fill="#000000" font-family="sans-serif" font-size="12" lengthAdjust="spacingAndGlyphs" textLength="127" x="249.75" y="79.1543">TrackDataCalculator</text><line style="stroke: #A80036; stroke-width: 1.5;" x1="39" x2="555" y1="91" y2="91"/><line style="stroke: #A80036; stroke-width: 1.5;" x1="39" x2="555" y1="99" y2="99"/><ellipse cx="49" cy="110" fill="#84BE84" rx="3" ry="3" style="stroke: #038048; stroke-width: 1.0;"/><text fill="#000000" font-family="sans-serif" font-size="11" lengthAdjust="spacingAndGlyphs" text-decoration="underline" textLength="341" x="58" y="113.2104">float calculateSpeed(LocationDataPoint[] locationDataPoints)</text><ellipse cx="49" cy="122.8047" fill="#84BE84" rx="3" ry="3" style="stroke: #038048; stroke-width: 1.0;"/><text fill="#000000" font-family="sans-serif" font-size="11" lengthAdjust="spacingAndGlyphs" text-decoration="underline" textLength="355" x="58" y="126.0151">float calculateDirection(LocationDataPoint[] locationDataPoints)</text><rect fill="#F24D5C" height="6" style="stroke: #C82930; stroke-width: 1.0;" width="6" x="46" y="132.6094"/><text fill="#000000" font-family="sans-serif" font-size="11" lengthAdjust="spacingAndGlyphs" text-decoration="underline" textLength="492" x="58" y="138.8198">LocationDataPoint[] calculateRootMeanSquared(LocationDataPoint[] locationDataPoints)</text><!--MD5=[3ecca10eeff099ef4483d2fcfc3837b0]
@startuml Middleware02HelperPackage_InternalDependencies

package edu.oakland.helper.middleware02 {
    
}


package edu.oakland.helper.middleware02 {
    class TrackDataCalculator {
        {static} + float calculateSpeed(LocationDataPoint[] locationDataPoints)
        {static} + float calculateDirection(LocationDataPoint[] locationDataPoints)
        {static} - LocationDataPoint[] calculateRootMeanSquared(LocationDataPoint[] locationDataPoints)
    }
}


@enduml

PlantUML version 1.2020.02(Sun Mar 01 10:22:07 GMT 2020)
(GPL source distribution)
Java Runtime: OpenJDK Runtime Environment
JVM: OpenJDK 64-Bit Server VM
Java Version: 11.0.9+11-Ubuntu-0ubuntu1
Operating System: Linux
Default Encoding: ANSI_X3.4-1968
Language: en
Country: US
--></g></svg>