<?xml version="1.0" encoding="UTF-8" standalone="no"?><svg xmlns="http://www.w3.org/2000/svg" xmlns:xlink="http://www.w3.org/1999/xlink" contentScriptType="application/ecmascript" contentStyleType="text/css" height="361px" preserveAspectRatio="none" style="width:1110px;height:361px;" version="1.1" viewBox="0 0 1110 361" width="1110px" zoomAndPan="magnify"><defs><filter height="300%" id="fsd5kwprm3b4d" width="300%" x="-1" y="-1"><feGaussianBlur result="blurOut" stdDeviation="2.0"/><feColorMatrix in="blurOut" result="blurOut2" type="matrix" values="0 0 0 0 0 0 0 0 0 0 0 0 0 0 0 0 0 0 .4 0"/><feOffset dx="4.0" dy="4.0" in="blurOut2" result="blurOut3"/><feBlend in="SourceGraphic" in2="blurOut3" mode="normal"/></filter></defs><g><!--MD5=[33504725b8a69ba2207f0a836957a91c]
cluster edu.oakland.production.middleware02--><polygon fill="#FFFFFF" filter="url(#fsd5kwprm3b4d)" points="22,24,332,24,339,46.2969,1088,46.2969,1088,349,22,349,22,24" style="stroke: #000000; stroke-width: 1.5;"/><line style="stroke: #000000; stroke-width: 1.5;" x1="22" x2="339" y1="46.2969" y2="46.2969"/><text fill="#000000" font-family="sans-serif" font-size="14" font-weight="bold" lengthAdjust="spacingAndGlyphs" textLength="304" x="26" y="38.9951">edu.oakland.production.middleware02</text><!--MD5=[d3cb230b9040bd9072bb1f490e167601]
class MiddlewareCommInterface--><rect fill="#FEFECE" filter="url(#fsd5kwprm3b4d)" height="107.2188" id="MiddlewareCommInterface" style="stroke: #A80036; stroke-width: 1.5;" width="198" x="86" y="59"/><ellipse cx="101" cy="75" fill="#B4A7E5" rx="11" ry="11" style="stroke: #A80036; stroke-width: 1.0;"/><path d="M96.9219,70.7656 L96.9219,68.6094 L104.3125,68.6094 L104.3125,70.7656 L101.8438,70.7656 L101.8438,78.8438 L104.3125,78.8438 L104.3125,81 L96.9219,81 L96.9219,78.8438 L99.3906,78.8438 L99.3906,70.7656 L96.9219,70.7656 Z "/><text fill="#000000" font-family="sans-serif" font-size="12" font-style="italic" lengthAdjust="spacingAndGlyphs" textLength="166" x="115" y="79.1543">MiddlewareCommInterface</text><line style="stroke: #A80036; stroke-width: 1.5;" x1="87" x2="283" y1="91" y2="91"/><line style="stroke: #A80036; stroke-width: 1.5;" x1="87" x2="283" y1="99" y2="99"/><ellipse cx="97" cy="126.8047" fill="#84BE84" rx="3" ry="3" style="stroke: #038048; stroke-width: 1.0;"/><text fill="#000000" font-family="sans-serif" font-size="11" font-style="italic" lengthAdjust="spacingAndGlyphs" textLength="171" x="106" y="130.0151">TrackData requestRfid(int rfid)</text><line style="stroke: #A80036; stroke-width: 1.0; stroke-dasharray: 1.0,2.0;" x1="87" x2="152" y1="113.4023" y2="113.4023"/><text fill="#000000" font-family="sans-serif" font-size="11" lengthAdjust="spacingAndGlyphs" textLength="66" x="152" y="116.7104">Use Case 1</text><line style="stroke: #A80036; stroke-width: 1.0; stroke-dasharray: 1.0,2.0;" x1="218" x2="283" y1="113.4023" y2="113.4023"/><text fill="#000000" font-family="sans-serif" font-size="11" lengthAdjust="spacingAndGlyphs" textLength="0" x="96" y="159.6245"/><line style="stroke: #A80036; stroke-width: 1.0; stroke-dasharray: 1.0,2.0;" x1="87" x2="152" y1="143.0117" y2="143.0117"/><text fill="#000000" font-family="sans-serif" font-size="11" lengthAdjust="spacingAndGlyphs" textLength="66" x="152" y="146.3198">Use Case 2</text><line style="stroke: #A80036; stroke-width: 1.0; stroke-dasharray: 1.0,2.0;" x1="218" x2="283" y1="143.0117" y2="143.0117"/><!--MD5=[d01e667c21cf622da77e8a7601ca5c91]
class MiddlewareCommLinkManager--><rect fill="#FEFECE" filter="url(#fsd5kwprm3b4d)" height="107.2188" id="MiddlewareCommLinkManager" style="stroke: #A80036; stroke-width: 1.5;" width="221" x="319.5" y="59"/><ellipse cx="334.5" cy="75" fill="#B4A7E5" rx="11" ry="11" style="stroke: #A80036; stroke-width: 1.0;"/><path d="M330.4219,70.7656 L330.4219,68.6094 L337.8125,68.6094 L337.8125,70.7656 L335.3438,70.7656 L335.3438,78.8438 L337.8125,78.8438 L337.8125,81 L330.4219,81 L330.4219,78.8438 L332.8906,78.8438 L332.8906,70.7656 L330.4219,70.7656 Z "/><text fill="#000000" font-family="sans-serif" font-size="12" font-style="italic" lengthAdjust="spacingAndGlyphs" textLength="189" x="348.5" y="79.1543">MiddlewareCommLinkManager</text><line style="stroke: #A80036; stroke-width: 1.5;" x1="320.5" x2="539.5" y1="91" y2="91"/><line style="stroke: #A80036; stroke-width: 1.5;" x1="320.5" x2="539.5" y1="99" y2="99"/><ellipse cx="330.5" cy="126.8047" fill="#84BE84" rx="3" ry="3" style="stroke: #038048; stroke-width: 1.0;"/><text fill="#000000" font-family="sans-serif" font-size="11" font-style="italic" lengthAdjust="spacingAndGlyphs" textLength="160" x="339.5" y="130.0151">TrackData parseRfid(int rfid)</text><line style="stroke: #A80036; stroke-width: 1.0; stroke-dasharray: 1.0,2.0;" x1="320.5" x2="397" y1="113.4023" y2="113.4023"/><text fill="#000000" font-family="sans-serif" font-size="11" lengthAdjust="spacingAndGlyphs" textLength="66" x="397" y="116.7104">Use Case 1</text><line style="stroke: #A80036; stroke-width: 1.0; stroke-dasharray: 1.0,2.0;" x1="463" x2="539.5" y1="113.4023" y2="113.4023"/><text fill="#000000" font-family="sans-serif" font-size="11" lengthAdjust="spacingAndGlyphs" textLength="0" x="329.5" y="159.6245"/><line style="stroke: #A80036; stroke-width: 1.0; stroke-dasharray: 1.0,2.0;" x1="320.5" x2="397" y1="143.0117" y2="143.0117"/><text fill="#000000" font-family="sans-serif" font-size="11" lengthAdjust="spacingAndGlyphs" textLength="66" x="397" y="146.3198">Use Case 2</text><line style="stroke: #A80036; stroke-width: 1.0; stroke-dasharray: 1.0,2.0;" x1="463" x2="539.5" y1="143.0117" y2="143.0117"/><!--MD5=[4915649770e9045e9ea9156a01fd67e8]
class MiddlewareCommDatabaseInterface--><rect fill="#FEFECE" filter="url(#fsd5kwprm3b4d)" height="107.2188" id="MiddlewareCommDatabaseInterface" style="stroke: #A80036; stroke-width: 1.5;" width="258" x="576" y="59"/><ellipse cx="591" cy="75" fill="#B4A7E5" rx="11" ry="11" style="stroke: #A80036; stroke-width: 1.0;"/><path d="M586.9219,70.7656 L586.9219,68.6094 L594.3125,68.6094 L594.3125,70.7656 L591.8438,70.7656 L591.8438,78.8438 L594.3125,78.8438 L594.3125,81 L586.9219,81 L586.9219,78.8438 L589.3906,78.8438 L589.3906,70.7656 L586.9219,70.7656 Z "/><text fill="#000000" font-family="sans-serif" font-size="12" font-style="italic" lengthAdjust="spacingAndGlyphs" textLength="226" x="605" y="79.1543">MiddlewareCommDatabaseInterface</text><line style="stroke: #A80036; stroke-width: 1.5;" x1="577" x2="833" y1="91" y2="91"/><line style="stroke: #A80036; stroke-width: 1.5;" x1="577" x2="833" y1="99" y2="99"/><ellipse cx="587" cy="126.8047" fill="#84BE84" rx="3" ry="3" style="stroke: #038048; stroke-width: 1.0;"/><text fill="#000000" font-family="sans-serif" font-size="11" font-style="italic" lengthAdjust="spacingAndGlyphs" textLength="123" x="596" y="130.0151">int checkCurrentRfid()</text><line style="stroke: #A80036; stroke-width: 1.0; stroke-dasharray: 1.0,2.0;" x1="577" x2="672" y1="113.4023" y2="113.4023"/><text fill="#000000" font-family="sans-serif" font-size="11" lengthAdjust="spacingAndGlyphs" textLength="66" x="672" y="116.7104">Use Case 1</text><line style="stroke: #A80036; stroke-width: 1.0; stroke-dasharray: 1.0,2.0;" x1="738" x2="833" y1="113.4023" y2="113.4023"/><text fill="#000000" font-family="sans-serif" font-size="11" lengthAdjust="spacingAndGlyphs" textLength="0" x="586" y="159.6245"/><line style="stroke: #A80036; stroke-width: 1.0; stroke-dasharray: 1.0,2.0;" x1="577" x2="672" y1="143.0117" y2="143.0117"/><text fill="#000000" font-family="sans-serif" font-size="11" lengthAdjust="spacingAndGlyphs" textLength="66" x="672" y="146.3198">Use Case 2</text><line style="stroke: #A80036; stroke-width: 1.0; stroke-dasharray: 1.0,2.0;" x1="738" x2="833" y1="143.0117" y2="143.0117"/><!--MD5=[0a03c366ade61429da89cc477d567a32]
class MiddlewareCommInterfaceImplementation--><rect fill="#FEFECE" filter="url(#fsd5kwprm3b4d)" height="107.2188" id="MiddlewareCommInterfaceImplementation" style="stroke: #A80036; stroke-width: 1.5;" width="293" x="38.5" y="226"/><ellipse cx="53.5" cy="242" fill="#ADD1B2" rx="11" ry="11" style="stroke: #A80036; stroke-width: 1.0;"/><path d="M56.4688,247.6406 Q55.8906,247.9375 55.25,248.0781 Q54.6094,248.2344 53.9063,248.2344 Q51.4063,248.2344 50.0781,246.5938 Q48.7656,244.9375 48.7656,241.8125 Q48.7656,238.6875 50.0781,237.0313 Q51.4063,235.375 53.9063,235.375 Q54.6094,235.375 55.25,235.5313 Q55.9063,235.6875 56.4688,235.9844 L56.4688,238.7031 Q55.8438,238.125 55.25,237.8594 Q54.6563,237.5781 54.0313,237.5781 Q52.6875,237.5781 52,238.6563 Q51.3125,239.7188 51.3125,241.8125 Q51.3125,243.9063 52,244.9844 Q52.6875,246.0469 54.0313,246.0469 Q54.6563,246.0469 55.25,245.7813 Q55.8438,245.5 56.4688,244.9219 L56.4688,247.6406 Z "/><text fill="#000000" font-family="sans-serif" font-size="12" lengthAdjust="spacingAndGlyphs" textLength="261" x="67.5" y="246.1543">MiddlewareCommInterfaceImplementation</text><line style="stroke: #A80036; stroke-width: 1.5;" x1="39.5" x2="330.5" y1="258" y2="258"/><line style="stroke: #A80036; stroke-width: 1.5;" x1="39.5" x2="330.5" y1="266" y2="266"/><text fill="#000000" font-family="sans-serif" font-size="11" lengthAdjust="spacingAndGlyphs" textLength="0" x="48.5" y="297.0151"/><line style="stroke: #A80036; stroke-width: 1.0; stroke-dasharray: 1.0,2.0;" x1="39.5" x2="152" y1="280.4023" y2="280.4023"/><text fill="#000000" font-family="sans-serif" font-size="11" lengthAdjust="spacingAndGlyphs" textLength="66" x="152" y="283.7104">Use Case 1</text><line style="stroke: #A80036; stroke-width: 1.0; stroke-dasharray: 1.0,2.0;" x1="218" x2="330.5" y1="280.4023" y2="280.4023"/><text fill="#000000" font-family="sans-serif" font-size="11" lengthAdjust="spacingAndGlyphs" textLength="0" x="48.5" y="326.6245"/><line style="stroke: #A80036; stroke-width: 1.0; stroke-dasharray: 1.0,2.0;" x1="39.5" x2="152" y1="310.0117" y2="310.0117"/><text fill="#000000" font-family="sans-serif" font-size="11" lengthAdjust="spacingAndGlyphs" textLength="66" x="152" y="313.3198">Use Case 2</text><line style="stroke: #A80036; stroke-width: 1.0; stroke-dasharray: 1.0,2.0;" x1="218" x2="330.5" y1="310.0117" y2="310.0117"/><!--MD5=[d9ed64ee38938b46697008700ce69fba]
class MiddlewareCommLinkManagerImplementation--><rect fill="#FEFECE" filter="url(#fsd5kwprm3b4d)" height="107.2188" id="MiddlewareCommLinkManagerImplementation" style="stroke: #A80036; stroke-width: 1.5;" width="316" x="367" y="226"/><ellipse cx="382" cy="242" fill="#ADD1B2" rx="11" ry="11" style="stroke: #A80036; stroke-width: 1.0;"/><path d="M384.9688,247.6406 Q384.3906,247.9375 383.75,248.0781 Q383.1094,248.2344 382.4063,248.2344 Q379.9063,248.2344 378.5781,246.5938 Q377.2656,244.9375 377.2656,241.8125 Q377.2656,238.6875 378.5781,237.0313 Q379.9063,235.375 382.4063,235.375 Q383.1094,235.375 383.75,235.5313 Q384.4063,235.6875 384.9688,235.9844 L384.9688,238.7031 Q384.3438,238.125 383.75,237.8594 Q383.1563,237.5781 382.5313,237.5781 Q381.1875,237.5781 380.5,238.6563 Q379.8125,239.7188 379.8125,241.8125 Q379.8125,243.9063 380.5,244.9844 Q381.1875,246.0469 382.5313,246.0469 Q383.1563,246.0469 383.75,245.7813 Q384.3438,245.5 384.9688,244.9219 L384.9688,247.6406 Z "/><text fill="#000000" font-family="sans-serif" font-size="12" lengthAdjust="spacingAndGlyphs" textLength="284" x="396" y="246.1543">MiddlewareCommLinkManagerImplementation</text><line style="stroke: #A80036; stroke-width: 1.5;" x1="368" x2="682" y1="258" y2="258"/><line style="stroke: #A80036; stroke-width: 1.5;" x1="368" x2="682" y1="266" y2="266"/><text fill="#000000" font-family="sans-serif" font-size="11" lengthAdjust="spacingAndGlyphs" textLength="0" x="377" y="297.0151"/><line style="stroke: #A80036; stroke-width: 1.0; stroke-dasharray: 1.0,2.0;" x1="368" x2="492" y1="280.4023" y2="280.4023"/><text fill="#000000" font-family="sans-serif" font-size="11" lengthAdjust="spacingAndGlyphs" textLength="66" x="492" y="283.7104">Use Case 1</text><line style="stroke: #A80036; stroke-width: 1.0; stroke-dasharray: 1.0,2.0;" x1="558" x2="682" y1="280.4023" y2="280.4023"/><text fill="#000000" font-family="sans-serif" font-size="11" lengthAdjust="spacingAndGlyphs" textLength="0" x="377" y="326.6245"/><line style="stroke: #A80036; stroke-width: 1.0; stroke-dasharray: 1.0,2.0;" x1="368" x2="492" y1="310.0117" y2="310.0117"/><text fill="#000000" font-family="sans-serif" font-size="11" lengthAdjust="spacingAndGlyphs" textLength="66" x="492" y="313.3198">Use Case 2</text><line style="stroke: #A80036; stroke-width: 1.0; stroke-dasharray: 1.0,2.0;" x1="558" x2="682" y1="310.0117" y2="310.0117"/><!--MD5=[1c4f9654f103878faf4a10c0361188b9]
class MiddlewareCommDatabaseInterfaceImplementation--><rect fill="#FEFECE" filter="url(#fsd5kwprm3b4d)" height="107.2188" id="MiddlewareCommDatabaseInterfaceImplementation" style="stroke: #A80036; stroke-width: 1.5;" width="354" x="718" y="226"/><ellipse cx="733" cy="242" fill="#ADD1B2" rx="11" ry="11" style="stroke: #A80036; stroke-width: 1.0;"/><path d="M735.9688,247.6406 Q735.3906,247.9375 734.75,248.0781 Q734.1094,248.2344 733.4063,248.2344 Q730.9063,248.2344 729.5781,246.5938 Q728.2656,244.9375 728.2656,241.8125 Q728.2656,238.6875 729.5781,237.0313 Q730.9063,235.375 733.4063,235.375 Q734.1094,235.375 734.75,235.5313 Q735.4063,235.6875 735.9688,235.9844 L735.9688,238.7031 Q735.3438,238.125 734.75,237.8594 Q734.1563,237.5781 733.5313,237.5781 Q732.1875,237.5781 731.5,238.6563 Q730.8125,239.7188 730.8125,241.8125 Q730.8125,243.9063 731.5,244.9844 Q732.1875,246.0469 733.5313,246.0469 Q734.1563,246.0469 734.75,245.7813 Q735.3438,245.5 735.9688,244.9219 L735.9688,247.6406 Z "/><text fill="#000000" font-family="sans-serif" font-size="12" lengthAdjust="spacingAndGlyphs" textLength="322" x="747" y="246.1543">MiddlewareCommDatabaseInterfaceImplementation</text><line style="stroke: #A80036; stroke-width: 1.5;" x1="719" x2="1071" y1="258" y2="258"/><line style="stroke: #A80036; stroke-width: 1.5;" x1="719" x2="1071" y1="266" y2="266"/><text fill="#000000" font-family="sans-serif" font-size="11" lengthAdjust="spacingAndGlyphs" textLength="0" x="728" y="297.0151"/><line style="stroke: #A80036; stroke-width: 1.0; stroke-dasharray: 1.0,2.0;" x1="719" x2="862" y1="280.4023" y2="280.4023"/><text fill="#000000" font-family="sans-serif" font-size="11" lengthAdjust="spacingAndGlyphs" textLength="66" x="862" y="283.7104">Use Case 1</text><line style="stroke: #A80036; stroke-width: 1.0; stroke-dasharray: 1.0,2.0;" x1="928" x2="1071" y1="280.4023" y2="280.4023"/><text fill="#000000" font-family="sans-serif" font-size="11" lengthAdjust="spacingAndGlyphs" textLength="0" x="728" y="326.6245"/><line style="stroke: #A80036; stroke-width: 1.0; stroke-dasharray: 1.0,2.0;" x1="719" x2="862" y1="310.0117" y2="310.0117"/><text fill="#000000" font-family="sans-serif" font-size="11" lengthAdjust="spacingAndGlyphs" textLength="66" x="862" y="313.3198">Use Case 2</text><line style="stroke: #A80036; stroke-width: 1.0; stroke-dasharray: 1.0,2.0;" x1="928" x2="1071" y1="310.0117" y2="310.0117"/><!--MD5=[79aecf45dbeed97c47edbe657f491fed]
link MiddlewareCommInterface to MiddlewareCommLinkManager--><!--MD5=[3e31a8e5d6790d9de494b190b5cea52e]
link MiddlewareCommLinkManager to MiddlewareCommDatabaseInterface--><!--MD5=[1ada782ccdd2db703c66336b5f162fc3]
link MiddlewareCommInterface to MiddlewareCommInterfaceImplementation--><!--MD5=[6da0790ce05b99ca6092638cec9e90cf]
link MiddlewareCommInterfaceImplementation to MiddlewareCommLinkManagerImplementation--><!--MD5=[36e461af31e28567fecbe5ff60035690]
link MiddlewareCommLinkManagerImplementation to MiddlewareCommDatabaseInterfaceImplementation--><!--MD5=[a40c357ac5e8a6fec876fc1f1f645bd5]
@startuml MIDDLEWARE02_PRODUCTIONPackage

package edu.oakland.production.middleware02 {

}


package edu.oakland.production.middleware02 {
    interface MiddlewareCommInterface {
        __
        .. Use Case 1 ..
        {abstract} + TrackData requestRfid(int rfid)
        .. Use Case 2 ..

    }
}


package edu.oakland.production.middleware02 {
    interface MiddlewareCommLinkManager {
        __
        .. Use Case 1 ..
        {abstract} + TrackData parseRfid(int rfid)
        .. Use Case 2 ..

    }
}


package edu.oakland.production.middleware02 {
    interface MiddlewareCommDatabaseInterface {
        __
        .. Use Case 1 ..
        {abstract} + int checkCurrentRfid()
        .. Use Case 2 ..

    }
}


package edu.oakland.production.middleware02 {
    class MiddlewareCommInterfaceImplementation {
        __
        .. Use Case 1 ..
        
        .. Use Case 2 ..

    }
}


package edu.oakland.production.middleware02 {
    class MiddlewareCommLinkManagerImplementation {
        __
        .. Use Case 1 ..

        .. Use Case 2 ..

    }
}


package edu.oakland.production.middleware02 {
    class MiddlewareCommDatabaseInterfaceImplementation {
        __
        .. Use Case 1 ..

        .. Use Case 2 ..

    }
}


@enduml

PlantUML version 1.2020.02(Sun Mar 01 10:22:07 GMT 2020)
(GPL source distribution)
Java Runtime: OpenJDK Runtime Environment
JVM: OpenJDK 64-Bit Server VM
Java Version: 11.0.9+11-Ubuntu-0ubuntu1
Operating System: Linux
Default Encoding: ANSI_X3.4-1968
Language: en
Country: US
--></g></svg>