<?xml version="1.0" encoding="UTF-8" standalone="no"?><svg xmlns="http://www.w3.org/2000/svg" xmlns:xlink="http://www.w3.org/1999/xlink" contentScriptType="application/ecmascript" contentStyleType="text/css" height="553px" preserveAspectRatio="none" style="width:1328px;height:553px;" version="1.1" viewBox="0 0 1328 553" width="1328px" zoomAndPan="magnify"><defs><filter height="300%" id="faye9f0i2u6lr" width="300%" x="-1" y="-1"><feGaussianBlur result="blurOut" stdDeviation="2.0"/><feColorMatrix in="blurOut" result="blurOut2" type="matrix" values="0 0 0 0 0 0 0 0 0 0 0 0 0 0 0 0 0 0 .4 0"/><feOffset dx="4.0" dy="4.0" in="blurOut2" result="blurOut3"/><feBlend in="SourceGraphic" in2="blurOut3" mode="normal"/></filter></defs><g><!--MD5=[33504725b8a69ba2207f0a836957a91c]
cluster edu.oakland.production.middleware02--><polygon fill="#FFFFFF" filter="url(#faye9f0i2u6lr)" points="22,24,332,24,339,46.2969,1306,46.2969,1306,380,22,380,22,24" style="stroke: #000000; stroke-width: 1.5;"/><line style="stroke: #000000; stroke-width: 1.5;" x1="22" x2="339" y1="46.2969" y2="46.2969"/><text fill="#000000" font-family="sans-serif" font-size="14" font-weight="bold" lengthAdjust="spacingAndGlyphs" textLength="304" x="26" y="38.9951">edu.oakland.production.middleware02</text><!--MD5=[73d4e355f259fb8d2c716d693a5be920]
cluster edu.oakland.helper.middleware02--><polygon fill="#FFFFFF" filter="url(#faye9f0i2u6lr)" points="389,404,664,404,671,426.2969,939,426.2969,939,541,389,541,389,404" style="stroke: #000000; stroke-width: 1.5;"/><line style="stroke: #000000; stroke-width: 1.5;" x1="389" x2="671" y1="426.2969" y2="426.2969"/><text fill="#000000" font-family="sans-serif" font-size="14" font-weight="bold" lengthAdjust="spacingAndGlyphs" textLength="269" x="393" y="418.9951">edu.oakland.helper.middleware02</text><!--MD5=[d3cb230b9040bd9072bb1f490e167601]
class MiddlewareCommInterface--><rect fill="#FEFECE" filter="url(#faye9f0i2u6lr)" height="77.6094" id="MiddlewareCommInterface" style="stroke: #A80036; stroke-width: 1.5;" width="198" x="116" y="59"/><ellipse cx="131" cy="75" fill="#B4A7E5" rx="11" ry="11" style="stroke: #A80036; stroke-width: 1.0;"/><path d="M126.9219,70.7656 L126.9219,68.6094 L134.3125,68.6094 L134.3125,70.7656 L131.8438,70.7656 L131.8438,78.8438 L134.3125,78.8438 L134.3125,81 L126.9219,81 L126.9219,78.8438 L129.3906,78.8438 L129.3906,70.7656 L126.9219,70.7656 Z "/><text fill="#000000" font-family="sans-serif" font-size="12" font-style="italic" lengthAdjust="spacingAndGlyphs" textLength="166" x="145" y="79.1543">MiddlewareCommInterface</text><line style="stroke: #A80036; stroke-width: 1.5;" x1="117" x2="313" y1="91" y2="91"/><line style="stroke: #A80036; stroke-width: 1.5;" x1="117" x2="313" y1="99" y2="99"/><ellipse cx="127" cy="126.8047" fill="#84BE84" rx="3" ry="3" style="stroke: #038048; stroke-width: 1.0;"/><text fill="#000000" font-family="sans-serif" font-size="11" font-style="italic" lengthAdjust="spacingAndGlyphs" textLength="171" x="136" y="130.0151">TrackData requestRfid(int rfid)</text><line style="stroke: #A80036; stroke-width: 1.0; stroke-dasharray: 1.0,2.0;" x1="117" x2="182" y1="113.4023" y2="113.4023"/><text fill="#000000" font-family="sans-serif" font-size="11" lengthAdjust="spacingAndGlyphs" textLength="66" x="182" y="116.7104">Use Case 1</text><line style="stroke: #A80036; stroke-width: 1.0; stroke-dasharray: 1.0,2.0;" x1="248" x2="313" y1="113.4023" y2="113.4023"/><!--MD5=[d01e667c21cf622da77e8a7601ca5c91]
class MiddlewareCommLinkManager--><rect fill="#FEFECE" filter="url(#faye9f0i2u6lr)" height="77.6094" id="MiddlewareCommLinkManager" style="stroke: #A80036; stroke-width: 1.5;" width="221" x="553.5" y="59"/><ellipse cx="568.5" cy="75" fill="#B4A7E5" rx="11" ry="11" style="stroke: #A80036; stroke-width: 1.0;"/><path d="M564.4219,70.7656 L564.4219,68.6094 L571.8125,68.6094 L571.8125,70.7656 L569.3438,70.7656 L569.3438,78.8438 L571.8125,78.8438 L571.8125,81 L564.4219,81 L564.4219,78.8438 L566.8906,78.8438 L566.8906,70.7656 L564.4219,70.7656 Z "/><text fill="#000000" font-family="sans-serif" font-size="12" font-style="italic" lengthAdjust="spacingAndGlyphs" textLength="189" x="582.5" y="79.1543">MiddlewareCommLinkManager</text><line style="stroke: #A80036; stroke-width: 1.5;" x1="554.5" x2="773.5" y1="91" y2="91"/><line style="stroke: #A80036; stroke-width: 1.5;" x1="554.5" x2="773.5" y1="99" y2="99"/><ellipse cx="564.5" cy="126.8047" fill="#84BE84" rx="3" ry="3" style="stroke: #038048; stroke-width: 1.0;"/><text fill="#000000" font-family="sans-serif" font-size="11" font-style="italic" lengthAdjust="spacingAndGlyphs" textLength="160" x="573.5" y="130.0151">TrackData parseRfid(int rfid)</text><line style="stroke: #A80036; stroke-width: 1.0; stroke-dasharray: 1.0,2.0;" x1="554.5" x2="631" y1="113.4023" y2="113.4023"/><text fill="#000000" font-family="sans-serif" font-size="11" lengthAdjust="spacingAndGlyphs" textLength="66" x="631" y="116.7104">Use Case 1</text><line style="stroke: #A80036; stroke-width: 1.0; stroke-dasharray: 1.0,2.0;" x1="697" x2="773.5" y1="113.4023" y2="113.4023"/><!--MD5=[4915649770e9045e9ea9156a01fd67e8]
class MiddlewareCommDatabaseInterface--><rect fill="#FEFECE" filter="url(#faye9f0i2u6lr)" height="77.6094" id="MiddlewareCommDatabaseInterface" style="stroke: #A80036; stroke-width: 1.5;" width="258" x="984" y="59"/><ellipse cx="999" cy="75" fill="#B4A7E5" rx="11" ry="11" style="stroke: #A80036; stroke-width: 1.0;"/><path d="M994.9219,70.7656 L994.9219,68.6094 L1002.3125,68.6094 L1002.3125,70.7656 L999.8438,70.7656 L999.8438,78.8438 L1002.3125,78.8438 L1002.3125,81 L994.9219,81 L994.9219,78.8438 L997.3906,78.8438 L997.3906,70.7656 L994.9219,70.7656 Z "/><text fill="#000000" font-family="sans-serif" font-size="12" font-style="italic" lengthAdjust="spacingAndGlyphs" textLength="226" x="1013" y="79.1543">MiddlewareCommDatabaseInterface</text><line style="stroke: #A80036; stroke-width: 1.5;" x1="985" x2="1241" y1="91" y2="91"/><line style="stroke: #A80036; stroke-width: 1.5;" x1="985" x2="1241" y1="99" y2="99"/><ellipse cx="995" cy="126.8047" fill="#84BE84" rx="3" ry="3" style="stroke: #038048; stroke-width: 1.0;"/><text fill="#000000" font-family="sans-serif" font-size="11" font-style="italic" lengthAdjust="spacingAndGlyphs" textLength="123" x="1004" y="130.0151">int checkCurrentRfid()</text><line style="stroke: #A80036; stroke-width: 1.0; stroke-dasharray: 1.0,2.0;" x1="985" x2="1080" y1="113.4023" y2="113.4023"/><text fill="#000000" font-family="sans-serif" font-size="11" lengthAdjust="spacingAndGlyphs" textLength="66" x="1080" y="116.7104">Use Case 1</text><line style="stroke: #A80036; stroke-width: 1.0; stroke-dasharray: 1.0,2.0;" x1="1146" x2="1241" y1="113.4023" y2="113.4023"/><!--MD5=[0a03c366ade61429da89cc477d567a32]
class MiddlewareCommInterfaceImplementation--><rect fill="#FEFECE" filter="url(#faye9f0i2u6lr)" height="116.0234" id="MiddlewareCommInterfaceImplementation" style="stroke: #A80036; stroke-width: 1.5;" width="353" x="38.5" y="222.5"/><ellipse cx="80.5" cy="238.5" fill="#ADD1B2" rx="11" ry="11" style="stroke: #A80036; stroke-width: 1.0;"/><path d="M83.4688,244.1406 Q82.8906,244.4375 82.25,244.5781 Q81.6094,244.7344 80.9063,244.7344 Q78.4063,244.7344 77.0781,243.0938 Q75.7656,241.4375 75.7656,238.3125 Q75.7656,235.1875 77.0781,233.5313 Q78.4063,231.875 80.9063,231.875 Q81.6094,231.875 82.25,232.0313 Q82.9063,232.1875 83.4688,232.4844 L83.4688,235.2031 Q82.8438,234.625 82.25,234.3594 Q81.6563,234.0781 81.0313,234.0781 Q79.6875,234.0781 79,235.1563 Q78.3125,236.2188 78.3125,238.3125 Q78.3125,240.4063 79,241.4844 Q79.6875,242.5469 81.0313,242.5469 Q81.6563,242.5469 82.25,242.2813 Q82.8438,242 83.4688,241.4219 L83.4688,244.1406 Z "/><text fill="#000000" font-family="sans-serif" font-size="12" lengthAdjust="spacingAndGlyphs" textLength="261" x="100.5" y="242.6543">MiddlewareCommInterfaceImplementation</text><line style="stroke: #A80036; stroke-width: 1.5;" x1="39.5" x2="390.5" y1="254.5" y2="254.5"/><rect fill="none" height="6" style="stroke: #C82930; stroke-width: 1.0;" width="6" x="46.5" y="262.5"/><text fill="#000000" font-family="sans-serif" font-size="11" lengthAdjust="spacingAndGlyphs" textLength="291" x="58.5" y="268.7104">MiddlewareCommLinkManager middlewareManager</text><line style="stroke: #A80036; stroke-width: 1.5;" x1="39.5" x2="390.5" y1="275.3047" y2="275.3047"/><ellipse cx="49.5" cy="286.3047" fill="#84BE84" rx="3" ry="3" style="stroke: #038048; stroke-width: 1.0;"/><text fill="#000000" font-family="sans-serif" font-size="11" lengthAdjust="spacingAndGlyphs" textLength="243" x="58.5" y="289.5151">MiddlewareCommInterfaceImplementation(</text><text fill="#000000" font-family="sans-serif" font-size="11" lengthAdjust="spacingAndGlyphs" textLength="295" x="90.5" y="302.3198">MiddlewareCommLinkManager middlewareManager)</text><ellipse cx="49.5" cy="328.7188" fill="#84BE84" rx="3" ry="3" style="stroke: #038048; stroke-width: 1.0;"/><text fill="#000000" font-family="sans-serif" font-size="11" lengthAdjust="spacingAndGlyphs" textLength="171" x="58.5" y="331.9292">TrackData requestRfid(int rfid)</text><line style="stroke: #A80036; stroke-width: 1.0; stroke-dasharray: 1.0,2.0;" x1="39.5" x2="182" y1="315.3164" y2="315.3164"/><text fill="#000000" font-family="sans-serif" font-size="11" lengthAdjust="spacingAndGlyphs" textLength="66" x="182" y="318.6245">Use Case 1</text><line style="stroke: #A80036; stroke-width: 1.0; stroke-dasharray: 1.0,2.0;" x1="248" x2="390.5" y1="315.3164" y2="315.3164"/><!--MD5=[d9ed64ee38938b46697008700ce69fba]
class MiddlewareCommLinkManagerImplementation--><rect fill="#FEFECE" filter="url(#faye9f0i2u6lr)" height="167.2422" id="MiddlewareCommLinkManagerImplementation" style="stroke: #A80036; stroke-width: 1.5;" width="474" x="427" y="197"/><ellipse cx="517.75" cy="213" fill="#ADD1B2" rx="11" ry="11" style="stroke: #A80036; stroke-width: 1.0;"/><path d="M520.7188,218.6406 Q520.1406,218.9375 519.5,219.0781 Q518.8594,219.2344 518.1563,219.2344 Q515.6563,219.2344 514.3281,217.5938 Q513.0156,215.9375 513.0156,212.8125 Q513.0156,209.6875 514.3281,208.0313 Q515.6563,206.375 518.1563,206.375 Q518.8594,206.375 519.5,206.5313 Q520.1563,206.6875 520.7188,206.9844 L520.7188,209.7031 Q520.0938,209.125 519.5,208.8594 Q518.9063,208.5781 518.2813,208.5781 Q516.9375,208.5781 516.25,209.6563 Q515.5625,210.7188 515.5625,212.8125 Q515.5625,214.9063 516.25,215.9844 Q516.9375,217.0469 518.2813,217.0469 Q518.9063,217.0469 519.5,216.7813 Q520.0938,216.5 520.7188,215.9219 L520.7188,218.6406 Z "/><text fill="#000000" font-family="sans-serif" font-size="12" lengthAdjust="spacingAndGlyphs" textLength="284" x="538.25" y="217.1543">MiddlewareCommLinkManagerImplementation</text><line style="stroke: #A80036; stroke-width: 1.5;" x1="428" x2="900" y1="229" y2="229"/><rect fill="none" height="6" style="stroke: #C82930; stroke-width: 1.0;" width="6" x="435" y="237"/><text fill="#000000" font-family="sans-serif" font-size="11" lengthAdjust="spacingAndGlyphs" textLength="416" x="447" y="243.2104">MiddlewareCommDatabaseInterface middlewareCommDatabaseInterface</text><rect fill="none" height="6" style="stroke: #C82930; stroke-width: 1.0;" width="6" x="435" y="249.8047"/><text fill="#000000" font-family="sans-serif" font-size="11" lengthAdjust="spacingAndGlyphs" textLength="270" x="447" y="256.0151">MiddlewareGisManager middlewareGisManager</text><line style="stroke: #A80036; stroke-width: 1.5;" x1="428" x2="900" y1="262.6094" y2="262.6094"/><ellipse cx="438" cy="273.6094" fill="#84BE84" rx="3" ry="3" style="stroke: #038048; stroke-width: 1.0;"/><text fill="#000000" font-family="sans-serif" font-size="11" lengthAdjust="spacingAndGlyphs" textLength="264" x="447" y="276.8198">MiddlewareCommLinkManagerImplementation(</text><text fill="#000000" font-family="sans-serif" font-size="11" lengthAdjust="spacingAndGlyphs" textLength="416" x="479" y="289.6245">MiddlewareCommDatabaseInterface middlewareCommDatabaseInterface</text><text fill="#000000" font-family="sans-serif" font-size="11" lengthAdjust="spacingAndGlyphs" textLength="274" x="479" y="302.4292">MiddlewareGisManager middlewareGisManager)</text><ellipse cx="438" cy="328.8281" fill="#84BE84" rx="3" ry="3" style="stroke: #038048; stroke-width: 1.0;"/><text fill="#000000" font-family="sans-serif" font-size="11" lengthAdjust="spacingAndGlyphs" textLength="160" x="447" y="332.0386">TrackData parseRfid(int rfid)</text><rect fill="#F24D5C" height="6" style="stroke: #C82930; stroke-width: 1.0;" width="6" x="435" y="338.6328"/><text fill="#000000" font-family="sans-serif" font-size="11" lengthAdjust="spacingAndGlyphs" textLength="188" x="447" y="344.8433">float calculateLocationDataPoint()</text><rect fill="#F24D5C" height="6" style="stroke: #C82930; stroke-width: 1.0;" width="6" x="435" y="351.4375"/><text fill="#000000" font-family="sans-serif" font-size="11" lengthAdjust="spacingAndGlyphs" textLength="144" x="447" y="357.6479">float calculateTrackData()</text><line style="stroke: #A80036; stroke-width: 1.0; stroke-dasharray: 1.0,2.0;" x1="428" x2="631" y1="315.4258" y2="315.4258"/><text fill="#000000" font-family="sans-serif" font-size="11" lengthAdjust="spacingAndGlyphs" textLength="66" x="631" y="318.7339">Use Case 1</text><line style="stroke: #A80036; stroke-width: 1.0; stroke-dasharray: 1.0,2.0;" x1="697" x2="900" y1="315.4258" y2="315.4258"/><!--MD5=[1c4f9654f103878faf4a10c0361188b9]
class MiddlewareCommDatabaseInterfaceImplementation--><rect fill="#FEFECE" filter="url(#faye9f0i2u6lr)" height="116.0234" id="MiddlewareCommDatabaseInterfaceImplementation" style="stroke: #A80036; stroke-width: 1.5;" width="354" x="936" y="222.5"/><ellipse cx="951" cy="238.5" fill="#ADD1B2" rx="11" ry="11" style="stroke: #A80036; stroke-width: 1.0;"/><path d="M953.9688,244.1406 Q953.3906,244.4375 952.75,244.5781 Q952.1094,244.7344 951.4063,244.7344 Q948.9063,244.7344 947.5781,243.0938 Q946.2656,241.4375 946.2656,238.3125 Q946.2656,235.1875 947.5781,233.5313 Q948.9063,231.875 951.4063,231.875 Q952.1094,231.875 952.75,232.0313 Q953.4063,232.1875 953.9688,232.4844 L953.9688,235.2031 Q953.3438,234.625 952.75,234.3594 Q952.1563,234.0781 951.5313,234.0781 Q950.1875,234.0781 949.5,235.1563 Q948.8125,236.2188 948.8125,238.3125 Q948.8125,240.4063 949.5,241.4844 Q950.1875,242.5469 951.5313,242.5469 Q952.1563,242.5469 952.75,242.2813 Q953.3438,242 953.9688,241.4219 L953.9688,244.1406 Z "/><text fill="#000000" font-family="sans-serif" font-size="12" lengthAdjust="spacingAndGlyphs" textLength="322" x="965" y="242.6543">MiddlewareCommDatabaseInterfaceImplementation</text><line style="stroke: #A80036; stroke-width: 1.5;" x1="937" x2="1289" y1="254.5" y2="254.5"/><ellipse cx="947" cy="265.5" fill="none" rx="3" ry="3" style="stroke: #038048; stroke-width: 1.0;"/><text fill="#000000" font-family="sans-serif" font-size="11" lengthAdjust="spacingAndGlyphs" textLength="285" x="956" y="268.7104">DatabaseCommInterface databaseCommInterface</text><line style="stroke: #A80036; stroke-width: 1.5;" x1="937" x2="1289" y1="275.3047" y2="275.3047"/><ellipse cx="947" cy="286.3047" fill="#84BE84" rx="3" ry="3" style="stroke: #038048; stroke-width: 1.0;"/><text fill="#000000" font-family="sans-serif" font-size="11" lengthAdjust="spacingAndGlyphs" textLength="297" x="956" y="289.5151">MiddlewareCommDatabaseInterfaceImplementation(</text><text fill="#000000" font-family="sans-serif" font-size="11" lengthAdjust="spacingAndGlyphs" textLength="289" x="988" y="302.3198">DatabaseCommInterface databaseCommInterface)</text><ellipse cx="947" cy="328.7188" fill="#84BE84" rx="3" ry="3" style="stroke: #038048; stroke-width: 1.0;"/><text fill="#000000" font-family="sans-serif" font-size="11" lengthAdjust="spacingAndGlyphs" textLength="122" x="956" y="331.9292">int checkCurrentRfid()</text><line style="stroke: #A80036; stroke-width: 1.0; stroke-dasharray: 1.0,2.0;" x1="937" x2="1080" y1="315.3164" y2="315.3164"/><text fill="#000000" font-family="sans-serif" font-size="11" lengthAdjust="spacingAndGlyphs" textLength="66" x="1080" y="318.6245">Use Case 1</text><line style="stroke: #A80036; stroke-width: 1.0; stroke-dasharray: 1.0,2.0;" x1="1146" x2="1289" y1="315.3164" y2="315.3164"/><!--MD5=[8d86b1aa2030a05d452f78e2e1fb37ed]
class TrackDataCalculator--><rect fill="#FEFECE" filter="url(#faye9f0i2u6lr)" height="86.4141" id="TrackDataCalculator" style="stroke: #A80036; stroke-width: 1.5;" width="518" x="405" y="439"/><ellipse cx="596.25" cy="455" fill="#ADD1B2" rx="11" ry="11" style="stroke: #A80036; stroke-width: 1.0;"/><path d="M599.2188,460.6406 Q598.6406,460.9375 598,461.0781 Q597.3594,461.2344 596.6563,461.2344 Q594.1563,461.2344 592.8281,459.5938 Q591.5156,457.9375 591.5156,454.8125 Q591.5156,451.6875 592.8281,450.0313 Q594.1563,448.375 596.6563,448.375 Q597.3594,448.375 598,448.5313 Q598.6563,448.6875 599.2188,448.9844 L599.2188,451.7031 Q598.5938,451.125 598,450.8594 Q597.4063,450.5781 596.7813,450.5781 Q595.4375,450.5781 594.75,451.6563 Q594.0625,452.7188 594.0625,454.8125 Q594.0625,456.9063 594.75,457.9844 Q595.4375,459.0469 596.7813,459.0469 Q597.4063,459.0469 598,458.7813 Q598.5938,458.5 599.2188,457.9219 L599.2188,460.6406 Z "/><text fill="#000000" font-family="sans-serif" font-size="12" lengthAdjust="spacingAndGlyphs" textLength="127" x="616.75" y="459.1543">TrackDataCalculator</text><line style="stroke: #A80036; stroke-width: 1.5;" x1="406" x2="922" y1="471" y2="471"/><line style="stroke: #A80036; stroke-width: 1.5;" x1="406" x2="922" y1="479" y2="479"/><ellipse cx="416" cy="490" fill="#84BE84" rx="3" ry="3" style="stroke: #038048; stroke-width: 1.0;"/><text fill="#000000" font-family="sans-serif" font-size="11" lengthAdjust="spacingAndGlyphs" text-decoration="underline" textLength="341" x="425" y="493.2104">float calculateSpeed(LocationDataPoint[] locationDataPoints)</text><ellipse cx="416" cy="502.8047" fill="#84BE84" rx="3" ry="3" style="stroke: #038048; stroke-width: 1.0;"/><text fill="#000000" font-family="sans-serif" font-size="11" lengthAdjust="spacingAndGlyphs" text-decoration="underline" textLength="355" x="425" y="506.0151">float calculateDirection(LocationDataPoint[] locationDataPoints)</text><rect fill="#F24D5C" height="6" style="stroke: #C82930; stroke-width: 1.0;" width="6" x="413" y="512.6094"/><text fill="#000000" font-family="sans-serif" font-size="11" lengthAdjust="spacingAndGlyphs" text-decoration="underline" textLength="492" x="425" y="518.8198">LocationDataPoint[] calculateRootMeanSquared(LocationDataPoint[] locationDataPoints)</text><!--MD5=[a6f6d6498f8ad0fd1149c5a16bc55d36]
reverse link MiddlewareCommInterface to MiddlewareCommInterfaceImplementation--><path d="M215,157.44 C215,178.27 215,201.69 215,222.41 " fill="none" id="MiddlewareCommInterface&lt;-MiddlewareCommInterfaceImplementation" style="stroke: #A80036; stroke-width: 1.0; stroke-dasharray: 7.0,7.0;"/><polygon fill="none" points="208,157.28,215,137.28,222,157.28,208,157.28" style="stroke: #A80036; stroke-width: 1.0;"/><!--MD5=[497c69cbff9542047faf5ca77780c8cb]
reverse link MiddlewareCommLinkManager to MiddlewareCommLinkManagerImplementation--><path d="M664,157.33 C664,169.9 664,183.41 664,196.71 " fill="none" id="MiddlewareCommLinkManager&lt;-MiddlewareCommLinkManagerImplementation" style="stroke: #A80036; stroke-width: 1.0; stroke-dasharray: 7.0,7.0;"/><polygon fill="none" points="657,157.28,664,137.28,671,157.28,657,157.28" style="stroke: #A80036; stroke-width: 1.0;"/><!--MD5=[07eefeefbddab6e40f3001aaadb4b811]
link MiddlewareCommLinkManagerImplementation to TrackDataCalculator--><path d="M664,364.08 C664,387.8 664,412.85 664,433.66 " fill="none" id="MiddlewareCommLinkManagerImplementation-&gt;TrackDataCalculator" style="stroke: #A80036; stroke-width: 1.0; stroke-dasharray: 7.0,7.0;"/><polygon fill="#A80036" points="664,438.85,668,429.85,664,433.85,660,429.85,664,438.85" style="stroke: #A80036; stroke-width: 1.0;"/><!--MD5=[8e69def7a54ed81078168d5d1d8487c9]
reverse link MiddlewareCommDatabaseInterface to MiddlewareCommDatabaseInterfaceImplementation--><path d="M1113,157.44 C1113,178.27 1113,201.69 1113,222.41 " fill="none" id="MiddlewareCommDatabaseInterface&lt;-MiddlewareCommDatabaseInterfaceImplementation" style="stroke: #A80036; stroke-width: 1.0; stroke-dasharray: 7.0,7.0;"/><polygon fill="none" points="1106,157.28,1113,137.28,1120,157.28,1106,157.28" style="stroke: #A80036; stroke-width: 1.0;"/><!--MD5=[81cd07b9514a74749c3999e5fbf140ba]
@startuml Middleware02ProductionPackage_Closure

package edu.oakland.production.middleware02 {
    
}



package edu.oakland.production.middleware02 {
    interface MiddlewareCommInterface {
        __
        .. Use Case 1 ..
        {abstract} + TrackData requestRfid(int rfid)
    }
}








package edu.oakland.production.middleware02 {
    interface MiddlewareCommLinkManager {
        __
        .. Use Case 1 ..
        {abstract} + TrackData parseRfid(int rfid)
    }
}








package edu.oakland.production.middleware02 {
    interface MiddlewareCommDatabaseInterface {
        __
        .. Use Case 1 ..
        {abstract} + int checkCurrentRfid()
    }
}








package edu.oakland.production.middleware02 {
    class MiddlewareCommInterfaceImplementation {
        - MiddlewareCommLinkManager middlewareManager
        __
        + MiddlewareCommInterfaceImplementation(
        \tMiddlewareCommLinkManager middlewareManager)
        .. Use Case 1 ..
        + TrackData requestRfid(int rfid)
}


MiddlewareCommInterfaceImplementation .up.|> MiddlewareCommInterface







package edu.oakland.production.middleware02 {
    class MiddlewareCommLinkManagerImplementation {
        - MiddlewareCommDatabaseInterface middlewareCommDatabaseInterface
        - MiddlewareGisManager middlewareGisManager
        __
        + MiddlewareCommLinkManagerImplementation(
        \tMiddlewareCommDatabaseInterface middlewareCommDatabaseInterface
        \tMiddlewareGisManager middlewareGisManager)
        .. Use Case 1 ..
        + TrackData parseRfid(int rfid)
        - float calculateLocationDataPoint()
        - float calculateTrackData()
    }
}


MiddlewareCommLinkManagerImplementation .up.|> MiddlewareCommLinkManager



package edu.oakland.helper.middleware02 {
    class TrackDataCalculator {
        {static} + float calculateSpeed(LocationDataPoint[] locationDataPoints)
        {static} + float calculateDirection(LocationDataPoint[] locationDataPoints)
        {static} - LocationDataPoint[] calculateRootMeanSquared(LocationDataPoint[] locationDataPoints)
    }
}






MiddlewareCommLinkManagerImplementation ..> TrackDataCalculator





package edu.oakland.production.middleware02 {
    class MiddlewareCommDatabaseInterfaceImplementation {
        + DatabaseCommInterface databaseCommInterface
        __
        + MiddlewareCommDatabaseInterfaceImplementation(
        \tDatabaseCommInterface databaseCommInterface)
        .. Use Case 1 ..
        + int checkCurrentRfid()
    }
}


MiddlewareCommDatabaseInterfaceImplementation .up.|> MiddlewareCommDatabaseInterface






@enduml

PlantUML version 1.2020.02(Sun Mar 01 10:22:07 GMT 2020)
(GPL source distribution)
Java Runtime: OpenJDK Runtime Environment
JVM: OpenJDK 64-Bit Server VM
Java Version: 11.0.9+11-Ubuntu-0ubuntu1
Operating System: Linux
Default Encoding: ANSI_X3.4-1968
Language: en
Country: US
--></g></svg>