<?xml version="1.0" encoding="UTF-8" standalone="no"?><svg xmlns="http://www.w3.org/2000/svg" xmlns:xlink="http://www.w3.org/1999/xlink" contentScriptType="application/ecmascript" contentStyleType="text/css" height="640px" preserveAspectRatio="none" style="width:1712px;height:640px;" version="1.1" viewBox="0 0 1712 640" width="1712px" zoomAndPan="magnify"><defs><filter height="300%" id="f1iwxpyawmy7bv" width="300%" x="-1" y="-1"><feGaussianBlur result="blurOut" stdDeviation="2.0"/><feColorMatrix in="blurOut" result="blurOut2" type="matrix" values="0 0 0 0 0 0 0 0 0 0 0 0 0 0 0 0 0 0 .4 0"/><feOffset dx="4.0" dy="4.0" in="blurOut2" result="blurOut3"/><feBlend in="SourceGraphic" in2="blurOut3" mode="normal"/></filter></defs><g><!--MD5=[c2e276049abfe145c9906edb061abd32]
cluster edu.oakland.production.database--><polygon fill="#FFFFFF" filter="url(#f1iwxpyawmy7bv)" points="22,24,292,24,299,46.2969,1690,46.2969,1690,628,22,628,22,24" style="stroke: #000000; stroke-width: 1.5;"/><line style="stroke: #000000; stroke-width: 1.5;" x1="22" x2="299" y1="46.2969" y2="46.2969"/><text fill="#000000" font-family="sans-serif" font-size="14" font-weight="bold" lengthAdjust="spacingAndGlyphs" textLength="264" x="26" y="38.9951">edu.oakland.production.database</text><!--MD5=[6d34700a22f737f940b471daa4ac1202]
class DatabaseCommInterface--><rect fill="#FEFECE" filter="url(#f1iwxpyawmy7bv)" height="128.8281" id="DatabaseCommInterface" style="stroke: #A80036; stroke-width: 1.5;" width="398" x="38" y="59"/><ellipse cx="155.25" cy="75" fill="#B4A7E5" rx="11" ry="11" style="stroke: #A80036; stroke-width: 1.0;"/><path d="M151.1719,70.7656 L151.1719,68.6094 L158.5625,68.6094 L158.5625,70.7656 L156.0938,70.7656 L156.0938,78.8438 L158.5625,78.8438 L158.5625,81 L151.1719,81 L151.1719,78.8438 L153.6406,78.8438 L153.6406,70.7656 L151.1719,70.7656 Z "/><text fill="#000000" font-family="sans-serif" font-size="12" font-style="italic" lengthAdjust="spacingAndGlyphs" textLength="155" x="175.75" y="79.1543">DatabaseCommInterface</text><line style="stroke: #A80036; stroke-width: 1.5;" x1="39" x2="435" y1="91" y2="91"/><line style="stroke: #A80036; stroke-width: 1.5;" x1="39" x2="435" y1="99" y2="99"/><ellipse cx="49" cy="126.8047" fill="#84BE84" rx="3" ry="3" style="stroke: #038048; stroke-width: 1.0;"/><text fill="#000000" font-family="sans-serif" font-size="11" font-style="italic" lengthAdjust="spacingAndGlyphs" textLength="156" x="58" y="130.0151">int receiveGetRfidRequest()</text><ellipse cx="49" cy="139.6094" fill="#84BE84" rx="3" ry="3" style="stroke: #038048; stroke-width: 1.0;"/><text fill="#000000" font-family="sans-serif" font-size="11" font-style="italic" lengthAdjust="spacingAndGlyphs" textLength="372" x="58" y="142.8198">LocationDataPoint receiveGetLocationDataPointRequest(int offset)</text><ellipse cx="49" cy="152.4141" fill="#84BE84" rx="3" ry="3" style="stroke: #038048; stroke-width: 1.0;"/><text fill="#000000" font-family="sans-serif" font-size="11" font-style="italic" lengthAdjust="spacingAndGlyphs" textLength="284" x="58" y="155.6245">TrackData receiveGetTrackDataRequest(int offset)</text><ellipse cx="49" cy="165.2188" fill="#84BE84" rx="3" ry="3" style="stroke: #038048; stroke-width: 1.0;"/><text fill="#000000" font-family="sans-serif" font-size="11" font-style="italic" lengthAdjust="spacingAndGlyphs" textLength="283" x="58" y="168.4292">void storeTrackDataRequest(TrackData trackData)</text><ellipse cx="49" cy="178.0234" fill="#84BE84" rx="3" ry="3" style="stroke: #038048; stroke-width: 1.0;"/><text fill="#000000" font-family="sans-serif" font-size="11" font-style="italic" lengthAdjust="spacingAndGlyphs" textLength="183" x="58" y="181.2339">String receiveGetModeRequest()</text><line style="stroke: #A80036; stroke-width: 1.0; stroke-dasharray: 1.0,2.0;" x1="39" x2="204" y1="113.4023" y2="113.4023"/><text fill="#000000" font-family="sans-serif" font-size="11" lengthAdjust="spacingAndGlyphs" textLength="66" x="204" y="116.7104">Use Case 1</text><line style="stroke: #A80036; stroke-width: 1.0; stroke-dasharray: 1.0,2.0;" x1="270" x2="435" y1="113.4023" y2="113.4023"/><!--MD5=[3cbc5f43b2184d452c2937ae0a744eb6]
class DatabaseCommManager--><rect fill="#FEFECE" filter="url(#f1iwxpyawmy7bv)" height="128.8281" id="DatabaseCommManager" style="stroke: #A80036; stroke-width: 1.5;" width="382" x="471" y="59"/><ellipse cx="581.25" cy="75" fill="#B4A7E5" rx="11" ry="11" style="stroke: #A80036; stroke-width: 1.0;"/><path d="M577.1719,70.7656 L577.1719,68.6094 L584.5625,68.6094 L584.5625,70.7656 L582.0938,70.7656 L582.0938,78.8438 L584.5625,78.8438 L584.5625,81 L577.1719,81 L577.1719,78.8438 L579.6406,78.8438 L579.6406,70.7656 L577.1719,70.7656 Z "/><text fill="#000000" font-family="sans-serif" font-size="12" font-style="italic" lengthAdjust="spacingAndGlyphs" textLength="153" x="601.75" y="79.1543">DatabaseCommManager</text><line style="stroke: #A80036; stroke-width: 1.5;" x1="472" x2="852" y1="91" y2="91"/><line style="stroke: #A80036; stroke-width: 1.5;" x1="472" x2="852" y1="99" y2="99"/><ellipse cx="482" cy="126.8047" fill="#84BE84" rx="3" ry="3" style="stroke: #038048; stroke-width: 1.0;"/><text fill="#000000" font-family="sans-serif" font-size="11" font-style="italic" lengthAdjust="spacingAndGlyphs" textLength="140" x="491" y="130.0151">int passGetRfidRequest()</text><ellipse cx="482" cy="139.6094" fill="#84BE84" rx="3" ry="3" style="stroke: #038048; stroke-width: 1.0;"/><text fill="#000000" font-family="sans-serif" font-size="11" font-style="italic" lengthAdjust="spacingAndGlyphs" textLength="356" x="491" y="142.8198">LocationDataPoint passGetLocationDataPointRequest(int offset)</text><ellipse cx="482" cy="152.4141" fill="#84BE84" rx="3" ry="3" style="stroke: #038048; stroke-width: 1.0;"/><text fill="#000000" font-family="sans-serif" font-size="11" font-style="italic" lengthAdjust="spacingAndGlyphs" textLength="268" x="491" y="155.6245">TrackData passGetTrackDataRequest(int offset)</text><ellipse cx="482" cy="165.2188" fill="#84BE84" rx="3" ry="3" style="stroke: #038048; stroke-width: 1.0;"/><text fill="#000000" font-family="sans-serif" font-size="11" font-style="italic" lengthAdjust="spacingAndGlyphs" textLength="310" x="491" y="168.4292">void passStoreTrackDataRequest(TrackData trackData)</text><ellipse cx="482" cy="178.0234" fill="#84BE84" rx="3" ry="3" style="stroke: #038048; stroke-width: 1.0;"/><text fill="#000000" font-family="sans-serif" font-size="11" font-style="italic" lengthAdjust="spacingAndGlyphs" textLength="167" x="491" y="181.2339">String passGetModeRequest()</text><line style="stroke: #A80036; stroke-width: 1.0; stroke-dasharray: 1.0,2.0;" x1="472" x2="629" y1="113.4023" y2="113.4023"/><text fill="#000000" font-family="sans-serif" font-size="11" lengthAdjust="spacingAndGlyphs" textLength="66" x="629" y="116.7104">Use Case 1</text><line style="stroke: #A80036; stroke-width: 1.0; stroke-dasharray: 1.0,2.0;" x1="695" x2="852" y1="113.4023" y2="113.4023"/><!--MD5=[3bff7e01a405ec7c4802abd699e27172]
class DatabaseGisInterface--><rect fill="#FEFECE" filter="url(#f1iwxpyawmy7bv)" height="120.0234" id="DatabaseGisInterface" style="stroke: #A80036; stroke-width: 1.5;" width="383" x="888.5" y="63.5"/><ellipse cx="1008.25" cy="79.5" fill="#B4A7E5" rx="11" ry="11" style="stroke: #A80036; stroke-width: 1.0;"/><path d="M1004.1719,75.2656 L1004.1719,73.1094 L1011.5625,73.1094 L1011.5625,75.2656 L1009.0938,75.2656 L1009.0938,83.3438 L1011.5625,83.3438 L1011.5625,85.5 L1004.1719,85.5 L1004.1719,83.3438 L1006.6406,83.3438 L1006.6406,75.2656 L1004.1719,75.2656 Z "/><text fill="#000000" font-family="sans-serif" font-size="12" font-style="italic" lengthAdjust="spacingAndGlyphs" textLength="135" x="1028.75" y="83.6543">DatabaseGisInterface</text><line style="stroke: #A80036; stroke-width: 1.5;" x1="889.5" x2="1270.5" y1="95.5" y2="95.5"/><line style="stroke: #A80036; stroke-width: 1.5;" x1="889.5" x2="1270.5" y1="103.5" y2="103.5"/><ellipse cx="899.5" cy="131.3047" fill="#84BE84" rx="3" ry="3" style="stroke: #038048; stroke-width: 1.0;"/><text fill="#000000" font-family="sans-serif" font-size="11" font-style="italic" lengthAdjust="spacingAndGlyphs" textLength="357" x="908.5" y="134.5151">void recieveStoreRequest(LocationDataPoint locationDataPoint)</text><line style="stroke: #A80036; stroke-width: 1.0; stroke-dasharray: 1.0,2.0;" x1="889.5" x2="1047" y1="117.9023" y2="117.9023"/><text fill="#000000" font-family="sans-serif" font-size="11" lengthAdjust="spacingAndGlyphs" textLength="66" x="1047" y="121.2104">Use Case 1</text><line style="stroke: #A80036; stroke-width: 1.0; stroke-dasharray: 1.0,2.0;" x1="1113" x2="1270.5" y1="117.9023" y2="117.9023"/><ellipse cx="899.5" cy="160.9141" fill="#84BE84" rx="3" ry="3" style="stroke: #038048; stroke-width: 1.0;"/><text fill="#000000" font-family="sans-serif" font-size="11" font-style="italic" lengthAdjust="spacingAndGlyphs" textLength="232" x="908.5" y="164.1245">String recieveModeRequest(String mode)</text><ellipse cx="899.5" cy="173.7188" fill="#84BE84" rx="3" ry="3" style="stroke: #038048; stroke-width: 1.0;"/><text fill="#000000" font-family="sans-serif" font-size="11" font-style="italic" lengthAdjust="spacingAndGlyphs" textLength="273" x="908.5" y="176.9292">String recieveNextSatRequest(String currentSat)</text><line style="stroke: #A80036; stroke-width: 1.0; stroke-dasharray: 1.0,2.0;" x1="889.5" x2="1047" y1="147.5117" y2="147.5117"/><text fill="#000000" font-family="sans-serif" font-size="11" lengthAdjust="spacingAndGlyphs" textLength="66" x="1047" y="150.8198">Use Case 2</text><line style="stroke: #A80036; stroke-width: 1.0; stroke-dasharray: 1.0,2.0;" x1="1113" x2="1270.5" y1="147.5117" y2="147.5117"/><!--MD5=[a9fcaa89db220a1b0201406d1ae34ee7]
class DatabaseGisManager--><rect fill="#FEFECE" filter="url(#f1iwxpyawmy7bv)" height="120.0234" id="DatabaseGisManager" style="stroke: #A80036; stroke-width: 1.5;" width="367" x="1306.5" y="63.5"/><ellipse cx="1419.25" cy="79.5" fill="#B4A7E5" rx="11" ry="11" style="stroke: #A80036; stroke-width: 1.0;"/><path d="M1415.1719,75.2656 L1415.1719,73.1094 L1422.5625,73.1094 L1422.5625,75.2656 L1420.0938,75.2656 L1420.0938,83.3438 L1422.5625,83.3438 L1422.5625,85.5 L1415.1719,85.5 L1415.1719,83.3438 L1417.6406,83.3438 L1417.6406,75.2656 L1415.1719,75.2656 Z "/><text fill="#000000" font-family="sans-serif" font-size="12" font-style="italic" lengthAdjust="spacingAndGlyphs" textLength="133" x="1439.75" y="83.6543">DatabaseGisManager</text><line style="stroke: #A80036; stroke-width: 1.5;" x1="1307.5" x2="1672.5" y1="95.5" y2="95.5"/><line style="stroke: #A80036; stroke-width: 1.5;" x1="1307.5" x2="1672.5" y1="103.5" y2="103.5"/><ellipse cx="1317.5" cy="131.3047" fill="#84BE84" rx="3" ry="3" style="stroke: #038048; stroke-width: 1.0;"/><text fill="#000000" font-family="sans-serif" font-size="11" font-style="italic" lengthAdjust="spacingAndGlyphs" textLength="341" x="1326.5" y="134.5151">void passStoreRequest(LocationDataPoint locationDataPoint)</text><line style="stroke: #A80036; stroke-width: 1.0; stroke-dasharray: 1.0,2.0;" x1="1307.5" x2="1457" y1="117.9023" y2="117.9023"/><text fill="#000000" font-family="sans-serif" font-size="11" lengthAdjust="spacingAndGlyphs" textLength="66" x="1457" y="121.2104">Use Case 1</text><line style="stroke: #A80036; stroke-width: 1.0; stroke-dasharray: 1.0,2.0;" x1="1523" x2="1672.5" y1="117.9023" y2="117.9023"/><ellipse cx="1317.5" cy="160.9141" fill="#84BE84" rx="3" ry="3" style="stroke: #038048; stroke-width: 1.0;"/><text fill="#000000" font-family="sans-serif" font-size="11" font-style="italic" lengthAdjust="spacingAndGlyphs" textLength="207" x="1326.5" y="164.1245">void passModeRequest(String mode)</text><ellipse cx="1317.5" cy="173.7188" fill="#84BE84" rx="3" ry="3" style="stroke: #038048; stroke-width: 1.0;"/><text fill="#000000" font-family="sans-serif" font-size="11" font-style="italic" lengthAdjust="spacingAndGlyphs" textLength="257" x="1326.5" y="176.9292">String passNextSatRequest(String currentSat)</text><line style="stroke: #A80036; stroke-width: 1.0; stroke-dasharray: 1.0,2.0;" x1="1307.5" x2="1457" y1="147.5117" y2="147.5117"/><text fill="#000000" font-family="sans-serif" font-size="11" lengthAdjust="spacingAndGlyphs" textLength="66" x="1457" y="150.8198">Use Case 2</text><line style="stroke: #A80036; stroke-width: 1.0; stroke-dasharray: 1.0,2.0;" x1="1523" x2="1672.5" y1="147.5117" y2="147.5117"/><!--MD5=[d8df6b105e82f698e3603261466f245f]
class DatabasePersistentStorage--><rect fill="#FEFECE" filter="url(#f1iwxpyawmy7bv)" height="184.0469" id="DatabasePersistentStorage" style="stroke: #A80036; stroke-width: 1.5;" width="395" x="39.5" y="248"/><ellipse cx="147.25" cy="264" fill="#B4A7E5" rx="11" ry="11" style="stroke: #A80036; stroke-width: 1.0;"/><path d="M143.1719,259.7656 L143.1719,257.6094 L150.5625,257.6094 L150.5625,259.7656 L148.0938,259.7656 L148.0938,267.8438 L150.5625,267.8438 L150.5625,270 L143.1719,270 L143.1719,267.8438 L145.6406,267.8438 L145.6406,259.7656 L143.1719,259.7656 Z "/><text fill="#000000" font-family="sans-serif" font-size="12" font-style="italic" lengthAdjust="spacingAndGlyphs" textLength="171" x="167.75" y="268.1543">DatabasePersistentStorage</text><line style="stroke: #A80036; stroke-width: 1.5;" x1="40.5" x2="433.5" y1="280" y2="280"/><line style="stroke: #A80036; stroke-width: 1.5;" x1="40.5" x2="433.5" y1="288" y2="288"/><ellipse cx="50.5" cy="315.8047" fill="#84BE84" rx="3" ry="3" style="stroke: #038048; stroke-width: 1.0;"/><text fill="#000000" font-family="sans-serif" font-size="11" font-style="italic" lengthAdjust="spacingAndGlyphs" textLength="108" x="59.5" y="319.0151">int locateRfidData()</text><ellipse cx="50.5" cy="328.6094" fill="#84BE84" rx="3" ry="3" style="stroke: #038048; stroke-width: 1.0;"/><text fill="#000000" font-family="sans-serif" font-size="11" font-style="italic" lengthAdjust="spacingAndGlyphs" textLength="282" x="59.5" y="331.8198">LocationDataPoint getLocationDataPoint(int offset)</text><ellipse cx="50.5" cy="341.4141" fill="#84BE84" rx="3" ry="3" style="stroke: #038048; stroke-width: 1.0;"/><text fill="#000000" font-family="sans-serif" font-size="11" font-style="italic" lengthAdjust="spacingAndGlyphs" textLength="369" x="59.5" y="344.6245">void storeLocationDataPoint(LocationDataPoint locationDataPoint)</text><ellipse cx="50.5" cy="354.2188" fill="#84BE84" rx="3" ry="3" style="stroke: #038048; stroke-width: 1.0;"/><text fill="#000000" font-family="sans-serif" font-size="11" font-style="italic" lengthAdjust="spacingAndGlyphs" textLength="194" x="59.5" y="357.4292">TrackData getTrackData(int offset)</text><ellipse cx="50.5" cy="367.0234" fill="#84BE84" rx="3" ry="3" style="stroke: #038048; stroke-width: 1.0;"/><text fill="#000000" font-family="sans-serif" font-size="11" font-style="italic" lengthAdjust="spacingAndGlyphs" textLength="237" x="59.5" y="370.2339">void storeTrackData(TrackData trackData)</text><ellipse cx="50.5" cy="379.8281" fill="#84BE84" rx="3" ry="3" style="stroke: #038048; stroke-width: 1.0;"/><text fill="#000000" font-family="sans-serif" font-size="11" font-style="italic" lengthAdjust="spacingAndGlyphs" textLength="93" x="59.5" y="383.0386">String getMode()</text><line style="stroke: #A80036; stroke-width: 1.0; stroke-dasharray: 1.0,2.0;" x1="40.5" x2="204" y1="302.4023" y2="302.4023"/><text fill="#000000" font-family="sans-serif" font-size="11" lengthAdjust="spacingAndGlyphs" textLength="66" x="204" y="305.7104">Use Case 1</text><line style="stroke: #A80036; stroke-width: 1.0; stroke-dasharray: 1.0,2.0;" x1="270" x2="433.5" y1="302.4023" y2="302.4023"/><ellipse cx="50.5" cy="409.4375" fill="#84BE84" rx="3" ry="3" style="stroke: #038048; stroke-width: 1.0;"/><text fill="#000000" font-family="sans-serif" font-size="11" font-style="italic" lengthAdjust="spacingAndGlyphs" textLength="164" x="59.5" y="412.6479">void storeMode(String mode)</text><ellipse cx="50.5" cy="422.2422" fill="#84BE84" rx="3" ry="3" style="stroke: #038048; stroke-width: 1.0;"/><text fill="#000000" font-family="sans-serif" font-size="11" font-style="italic" lengthAdjust="spacingAndGlyphs" textLength="203" x="59.5" y="425.4526">String getNextSat(String currentSat)</text><line style="stroke: #A80036; stroke-width: 1.0; stroke-dasharray: 1.0,2.0;" x1="40.5" x2="204" y1="396.0352" y2="396.0352"/><text fill="#000000" font-family="sans-serif" font-size="11" lengthAdjust="spacingAndGlyphs" textLength="66" x="204" y="399.3433">Use Case 2</text><line style="stroke: #A80036; stroke-width: 1.0; stroke-dasharray: 1.0,2.0;" x1="270" x2="433.5" y1="396.0352" y2="396.0352"/><!--MD5=[9f85d6b15dbd6dc4f6cf7395c0833d14]
class DatabaseCommInterfaceImplementation--><rect fill="#FEFECE" filter="url(#f1iwxpyawmy7bv)" height="107.2188" id="DatabaseCommInterfaceImplementation" style="stroke: #A80036; stroke-width: 1.5;" width="284" x="470" y="286.5"/><ellipse cx="485" cy="302.5" fill="#ADD1B2" rx="11" ry="11" style="stroke: #A80036; stroke-width: 1.0;"/><path d="M487.9688,308.1406 Q487.3906,308.4375 486.75,308.5781 Q486.1094,308.7344 485.4063,308.7344 Q482.9063,308.7344 481.5781,307.0938 Q480.2656,305.4375 480.2656,302.3125 Q480.2656,299.1875 481.5781,297.5313 Q482.9063,295.875 485.4063,295.875 Q486.1094,295.875 486.75,296.0313 Q487.4063,296.1875 487.9688,296.4844 L487.9688,299.2031 Q487.3438,298.625 486.75,298.3594 Q486.1563,298.0781 485.5313,298.0781 Q484.1875,298.0781 483.5,299.1563 Q482.8125,300.2188 482.8125,302.3125 Q482.8125,304.4063 483.5,305.4844 Q484.1875,306.5469 485.5313,306.5469 Q486.1563,306.5469 486.75,306.2813 Q487.3438,306 487.9688,305.4219 L487.9688,308.1406 Z "/><text fill="#000000" font-family="sans-serif" font-size="12" lengthAdjust="spacingAndGlyphs" textLength="252" x="499" y="306.6543">DatabaseCommInterfaceImplementation</text><line style="stroke: #A80036; stroke-width: 1.5;" x1="471" x2="753" y1="318.5" y2="318.5"/><line style="stroke: #A80036; stroke-width: 1.5;" x1="471" x2="753" y1="326.5" y2="326.5"/><text fill="#000000" font-family="sans-serif" font-size="11" lengthAdjust="spacingAndGlyphs" textLength="0" x="480" y="357.5151"/><line style="stroke: #A80036; stroke-width: 1.0; stroke-dasharray: 1.0,2.0;" x1="471" x2="579" y1="340.9023" y2="340.9023"/><text fill="#000000" font-family="sans-serif" font-size="11" lengthAdjust="spacingAndGlyphs" textLength="66" x="579" y="344.2104">Use Case 1</text><line style="stroke: #A80036; stroke-width: 1.0; stroke-dasharray: 1.0,2.0;" x1="645" x2="753" y1="340.9023" y2="340.9023"/><text fill="#000000" font-family="sans-serif" font-size="11" lengthAdjust="spacingAndGlyphs" textLength="0" x="480" y="387.1245"/><line style="stroke: #A80036; stroke-width: 1.0; stroke-dasharray: 1.0,2.0;" x1="471" x2="579" y1="370.5117" y2="370.5117"/><text fill="#000000" font-family="sans-serif" font-size="11" lengthAdjust="spacingAndGlyphs" textLength="66" x="579" y="373.8198">Use Case 2</text><line style="stroke: #A80036; stroke-width: 1.0; stroke-dasharray: 1.0,2.0;" x1="645" x2="753" y1="370.5117" y2="370.5117"/><!--MD5=[e62c039a107b929dc588966558a86fd5]
class DatabaseCommManagerImplementation--><rect fill="#FEFECE" filter="url(#f1iwxpyawmy7bv)" height="107.2188" id="DatabaseCommManagerImplementation" style="stroke: #A80036; stroke-width: 1.5;" width="283" x="789.5" y="286.5"/><ellipse cx="804.5" cy="302.5" fill="#ADD1B2" rx="11" ry="11" style="stroke: #A80036; stroke-width: 1.0;"/><path d="M807.4688,308.1406 Q806.8906,308.4375 806.25,308.5781 Q805.6094,308.7344 804.9063,308.7344 Q802.4063,308.7344 801.0781,307.0938 Q799.7656,305.4375 799.7656,302.3125 Q799.7656,299.1875 801.0781,297.5313 Q802.4063,295.875 804.9063,295.875 Q805.6094,295.875 806.25,296.0313 Q806.9063,296.1875 807.4688,296.4844 L807.4688,299.2031 Q806.8438,298.625 806.25,298.3594 Q805.6563,298.0781 805.0313,298.0781 Q803.6875,298.0781 803,299.1563 Q802.3125,300.2188 802.3125,302.3125 Q802.3125,304.4063 803,305.4844 Q803.6875,306.5469 805.0313,306.5469 Q805.6563,306.5469 806.25,306.2813 Q806.8438,306 807.4688,305.4219 L807.4688,308.1406 Z "/><text fill="#000000" font-family="sans-serif" font-size="12" lengthAdjust="spacingAndGlyphs" textLength="251" x="818.5" y="306.6543">DatabaseCommManagerImplementation</text><line style="stroke: #A80036; stroke-width: 1.5;" x1="790.5" x2="1071.5" y1="318.5" y2="318.5"/><line style="stroke: #A80036; stroke-width: 1.5;" x1="790.5" x2="1071.5" y1="326.5" y2="326.5"/><text fill="#000000" font-family="sans-serif" font-size="11" lengthAdjust="spacingAndGlyphs" textLength="0" x="799.5" y="357.5151"/><line style="stroke: #A80036; stroke-width: 1.0; stroke-dasharray: 1.0,2.0;" x1="790.5" x2="898" y1="340.9023" y2="340.9023"/><text fill="#000000" font-family="sans-serif" font-size="11" lengthAdjust="spacingAndGlyphs" textLength="66" x="898" y="344.2104">Use Case 1</text><line style="stroke: #A80036; stroke-width: 1.0; stroke-dasharray: 1.0,2.0;" x1="964" x2="1071.5" y1="340.9023" y2="340.9023"/><text fill="#000000" font-family="sans-serif" font-size="11" lengthAdjust="spacingAndGlyphs" textLength="0" x="799.5" y="387.1245"/><line style="stroke: #A80036; stroke-width: 1.0; stroke-dasharray: 1.0,2.0;" x1="790.5" x2="898" y1="370.5117" y2="370.5117"/><text fill="#000000" font-family="sans-serif" font-size="11" lengthAdjust="spacingAndGlyphs" textLength="66" x="898" y="373.8198">Use Case 2</text><line style="stroke: #A80036; stroke-width: 1.0; stroke-dasharray: 1.0,2.0;" x1="964" x2="1071.5" y1="370.5117" y2="370.5117"/><!--MD5=[08068c224d75f5ca94e2833221bd6445]
class DatabaseGisInterfaceImplementation--><rect fill="#FEFECE" filter="url(#f1iwxpyawmy7bv)" height="120.0234" id="DatabaseGisInterfaceImplementation" style="stroke: #A80036; stroke-width: 1.5;" width="382" x="1108" y="280"/><ellipse cx="1178.25" cy="296" fill="#ADD1B2" rx="11" ry="11" style="stroke: #A80036; stroke-width: 1.0;"/><path d="M1181.2188,301.6406 Q1180.6406,301.9375 1180,302.0781 Q1179.3594,302.2344 1178.6563,302.2344 Q1176.1563,302.2344 1174.8281,300.5938 Q1173.5156,298.9375 1173.5156,295.8125 Q1173.5156,292.6875 1174.8281,291.0313 Q1176.1563,289.375 1178.6563,289.375 Q1179.3594,289.375 1180,289.5313 Q1180.6563,289.6875 1181.2188,289.9844 L1181.2188,292.7031 Q1180.5938,292.125 1180,291.8594 Q1179.4063,291.5781 1178.7813,291.5781 Q1177.4375,291.5781 1176.75,292.6563 Q1176.0625,293.7188 1176.0625,295.8125 Q1176.0625,297.9063 1176.75,298.9844 Q1177.4375,300.0469 1178.7813,300.0469 Q1179.4063,300.0469 1180,299.7813 Q1180.5938,299.5 1181.2188,298.9219 L1181.2188,301.6406 Z "/><text fill="#000000" font-family="sans-serif" font-size="12" lengthAdjust="spacingAndGlyphs" textLength="233" x="1198.75" y="300.1543">DatabaseGisInterfaceImplementation</text><line style="stroke: #A80036; stroke-width: 1.5;" x1="1109" x2="1489" y1="312" y2="312"/><line style="stroke: #A80036; stroke-width: 1.5;" x1="1109" x2="1489" y1="320" y2="320"/><ellipse cx="1119" cy="347.8047" fill="#84BE84" rx="3" ry="3" style="stroke: #038048; stroke-width: 1.0;"/><text fill="#000000" font-family="sans-serif" font-size="11" lengthAdjust="spacingAndGlyphs" textLength="356" x="1128" y="351.0151">void recieveStoreRequest(LocationDataPoint locationDataPoint)</text><line style="stroke: #A80036; stroke-width: 1.0; stroke-dasharray: 1.0,2.0;" x1="1109" x2="1266" y1="334.4023" y2="334.4023"/><text fill="#000000" font-family="sans-serif" font-size="11" lengthAdjust="spacingAndGlyphs" textLength="66" x="1266" y="337.7104">Use Case 1</text><line style="stroke: #A80036; stroke-width: 1.0; stroke-dasharray: 1.0,2.0;" x1="1332" x2="1489" y1="334.4023" y2="334.4023"/><ellipse cx="1119" cy="377.4141" fill="#84BE84" rx="3" ry="3" style="stroke: #038048; stroke-width: 1.0;"/><text fill="#000000" font-family="sans-serif" font-size="11" lengthAdjust="spacingAndGlyphs" textLength="222" x="1128" y="380.6245">void recieveModeRequest(String mode)</text><ellipse cx="1119" cy="390.2188" fill="#84BE84" rx="3" ry="3" style="stroke: #038048; stroke-width: 1.0;"/><text fill="#000000" font-family="sans-serif" font-size="11" lengthAdjust="spacingAndGlyphs" textLength="275" x="1128" y="393.4292">String recieveNextSatRequest(String currentSat)</text><line style="stroke: #A80036; stroke-width: 1.0; stroke-dasharray: 1.0,2.0;" x1="1109" x2="1266" y1="364.0117" y2="364.0117"/><text fill="#000000" font-family="sans-serif" font-size="11" lengthAdjust="spacingAndGlyphs" textLength="66" x="1266" y="367.3198">Use Case 2</text><line style="stroke: #A80036; stroke-width: 1.0; stroke-dasharray: 1.0,2.0;" x1="1332" x2="1489" y1="364.0117" y2="364.0117"/><!--MD5=[cb27e8f56b23a96be3f83add8518c141]
class DatabaseGisManagerImplementation--><rect fill="#FEFECE" filter="url(#f1iwxpyawmy7bv)" height="120.0234" id="DatabaseGisManagerImplementation" style="stroke: #A80036; stroke-width: 1.5;" width="369" x="52.5" y="492"/><ellipse cx="116.75" cy="508" fill="#ADD1B2" rx="11" ry="11" style="stroke: #A80036; stroke-width: 1.0;"/><path d="M119.7188,513.6406 Q119.1406,513.9375 118.5,514.0781 Q117.8594,514.2344 117.1563,514.2344 Q114.6563,514.2344 113.3281,512.5938 Q112.0156,510.9375 112.0156,507.8125 Q112.0156,504.6875 113.3281,503.0313 Q114.6563,501.375 117.1563,501.375 Q117.8594,501.375 118.5,501.5313 Q119.1563,501.6875 119.7188,501.9844 L119.7188,504.7031 Q119.0938,504.125 118.5,503.8594 Q117.9063,503.5781 117.2813,503.5781 Q115.9375,503.5781 115.25,504.6563 Q114.5625,505.7188 114.5625,507.8125 Q114.5625,509.9063 115.25,510.9844 Q115.9375,512.0469 117.2813,512.0469 Q117.9063,512.0469 118.5,511.7813 Q119.0938,511.5 119.7188,510.9219 L119.7188,513.6406 Z "/><text fill="#000000" font-family="sans-serif" font-size="12" lengthAdjust="spacingAndGlyphs" textLength="232" x="137.25" y="512.1543">DatabaseGisManagerImplementation</text><line style="stroke: #A80036; stroke-width: 1.5;" x1="53.5" x2="420.5" y1="524" y2="524"/><line style="stroke: #A80036; stroke-width: 1.5;" x1="53.5" x2="420.5" y1="532" y2="532"/><ellipse cx="63.5" cy="559.8047" fill="#84BE84" rx="3" ry="3" style="stroke: #038048; stroke-width: 1.0;"/><text fill="#000000" font-family="sans-serif" font-size="11" lengthAdjust="spacingAndGlyphs" textLength="343" x="72.5" y="563.0151">void passStoreRequest(LocationDataPoint locationDataPoint)</text><line style="stroke: #A80036; stroke-width: 1.0; stroke-dasharray: 1.0,2.0;" x1="53.5" x2="204" y1="546.4023" y2="546.4023"/><text fill="#000000" font-family="sans-serif" font-size="11" lengthAdjust="spacingAndGlyphs" textLength="66" x="204" y="549.7104">Use Case 1</text><line style="stroke: #A80036; stroke-width: 1.0; stroke-dasharray: 1.0,2.0;" x1="270" x2="420.5" y1="546.4023" y2="546.4023"/><ellipse cx="63.5" cy="589.4141" fill="#84BE84" rx="3" ry="3" style="stroke: #038048; stroke-width: 1.0;"/><text fill="#000000" font-family="sans-serif" font-size="11" lengthAdjust="spacingAndGlyphs" textLength="209" x="72.5" y="592.6245">void passModeRequest(String mode)</text><ellipse cx="63.5" cy="602.2188" fill="#84BE84" rx="3" ry="3" style="stroke: #038048; stroke-width: 1.0;"/><text fill="#000000" font-family="sans-serif" font-size="11" lengthAdjust="spacingAndGlyphs" textLength="262" x="72.5" y="605.4292">String passNextSatRequest(String currentSat)</text><line style="stroke: #A80036; stroke-width: 1.0; stroke-dasharray: 1.0,2.0;" x1="53.5" x2="204" y1="576.0117" y2="576.0117"/><text fill="#000000" font-family="sans-serif" font-size="11" lengthAdjust="spacingAndGlyphs" textLength="66" x="204" y="579.3198">Use Case 2</text><line style="stroke: #A80036; stroke-width: 1.0; stroke-dasharray: 1.0,2.0;" x1="270" x2="420.5" y1="576.0117" y2="576.0117"/><!--MD5=[6c3ae89235db7efba3a5d8ea9fd47e2d]
class DatabasePersistentStorageImplementation--><rect fill="#FEFECE" filter="url(#f1iwxpyawmy7bv)" height="107.2188" id="DatabasePersistentStorageImplementation" style="stroke: #A80036; stroke-width: 1.5;" width="304" x="457" y="498.5"/><ellipse cx="472" cy="514.5" fill="#ADD1B2" rx="11" ry="11" style="stroke: #A80036; stroke-width: 1.0;"/><path d="M474.9688,520.1406 Q474.3906,520.4375 473.75,520.5781 Q473.1094,520.7344 472.4063,520.7344 Q469.9063,520.7344 468.5781,519.0938 Q467.2656,517.4375 467.2656,514.3125 Q467.2656,511.1875 468.5781,509.5313 Q469.9063,507.875 472.4063,507.875 Q473.1094,507.875 473.75,508.0313 Q474.4063,508.1875 474.9688,508.4844 L474.9688,511.2031 Q474.3438,510.625 473.75,510.3594 Q473.1563,510.0781 472.5313,510.0781 Q471.1875,510.0781 470.5,511.1563 Q469.8125,512.2188 469.8125,514.3125 Q469.8125,516.4063 470.5,517.4844 Q471.1875,518.5469 472.5313,518.5469 Q473.1563,518.5469 473.75,518.2813 Q474.3438,518 474.9688,517.4219 L474.9688,520.1406 Z "/><text fill="#000000" font-family="sans-serif" font-size="12" lengthAdjust="spacingAndGlyphs" textLength="272" x="486" y="518.6543">DatabasePersistentStorageImplementation</text><line style="stroke: #A80036; stroke-width: 1.5;" x1="458" x2="760" y1="530.5" y2="530.5"/><line style="stroke: #A80036; stroke-width: 1.5;" x1="458" x2="760" y1="538.5" y2="538.5"/><text fill="#000000" font-family="sans-serif" font-size="11" lengthAdjust="spacingAndGlyphs" textLength="0" x="467" y="569.5151"/><line style="stroke: #A80036; stroke-width: 1.0; stroke-dasharray: 1.0,2.0;" x1="458" x2="576" y1="552.9023" y2="552.9023"/><text fill="#000000" font-family="sans-serif" font-size="11" lengthAdjust="spacingAndGlyphs" textLength="66" x="576" y="556.2104">Use Case 1</text><line style="stroke: #A80036; stroke-width: 1.0; stroke-dasharray: 1.0,2.0;" x1="642" x2="760" y1="552.9023" y2="552.9023"/><text fill="#000000" font-family="sans-serif" font-size="11" lengthAdjust="spacingAndGlyphs" textLength="0" x="467" y="599.1245"/><line style="stroke: #A80036; stroke-width: 1.0; stroke-dasharray: 1.0,2.0;" x1="458" x2="576" y1="582.5117" y2="582.5117"/><text fill="#000000" font-family="sans-serif" font-size="11" lengthAdjust="spacingAndGlyphs" textLength="66" x="576" y="585.8198">Use Case 2</text><line style="stroke: #A80036; stroke-width: 1.0; stroke-dasharray: 1.0,2.0;" x1="642" x2="760" y1="582.5117" y2="582.5117"/><!--MD5=[f1f42aa3e5ee92d91a95f483cb27fd1b]
link DatabaseCommInterface to DatabaseCommManager--><!--MD5=[2ab5f857a335fe71cca2f65391443969]
link DatabaseCommManager to DatabaseGisInterface--><!--MD5=[57d2095737951b693a3c5eb0c4dcc61f]
link DatabaseGisInterface to DatabaseGisManager--><!--MD5=[8a3ac12fc3568691a4d369b4583e3e8c]
link DatabaseCommInterface to DatabasePersistentStorage--><!--MD5=[f2b6f62c1ac53fc9c635ffbb0a59d528]
link DatabasePersistentStorage to DatabaseCommInterfaceImplementation--><!--MD5=[3760425120cae1e7aba6568029ff5c72]
link DatabaseCommInterfaceImplementation to DatabaseCommManagerImplementation--><!--MD5=[f3ea6f9257e20c64f5c945a18b1b07f5]
link DatabaseCommManagerImplementation to DatabaseGisInterfaceImplementation--><!--MD5=[3eb7051df619a832f92e7e374c3d68dc]
link DatabasePersistentStorage to DatabaseGisManagerImplementation--><!--MD5=[052d4f5c8e3e20f54aa5395be353d385]
link DatabaseGisManagerImplementation to DatabasePersistentStorageImplementation--><!--MD5=[d931c0ba18bcb567abdc87c5cdd84d21]
@startuml DatabaseProductionPackage

package edu.oakland.production.database {

}


package edu.oakland.production.database {
    interface DatabaseCommInterface {
        __
        .. Use Case 1 ..
        {abstract} + int receiveGetRfidRequest()
        {abstract} + LocationDataPoint receiveGetLocationDataPointRequest(int offset)
        {abstract} + TrackData receiveGetTrackDataRequest(int offset)
        {abstract} + void storeTrackDataRequest(TrackData trackData)
        {abstract} + String receiveGetModeRequest()
    }
}


package edu.oakland.production.database {
    interface DatabaseCommManager {
        __
        .. Use Case 1 ..
        {abstract} + int passGetRfidRequest()
        {abstract} + LocationDataPoint passGetLocationDataPointRequest(int offset)
        {abstract} + TrackData passGetTrackDataRequest(int offset)
        {abstract} + void passStoreTrackDataRequest(TrackData trackData)
        {abstract} + String passGetModeRequest()
    }
}


package edu.oakland.production.database {
    interface DatabaseGisInterface {
        __
        .. Use Case 1 ..
        {abstract} + void recieveStoreRequest(LocationDataPoint locationDataPoint)
        .. Use Case 2 ..
        {abstract} + String recieveModeRequest(String mode)
        {abstract} + String recieveNextSatRequest(String currentSat)
    }
}


package edu.oakland.production.database {
    interface DatabaseGisManager {
        __
        .. Use Case 1 ..
        {abstract} + void passStoreRequest(LocationDataPoint locationDataPoint)
        .. Use Case 2 ..
        {abstract} + void passModeRequest(String mode)
        {abstract} + String passNextSatRequest(String currentSat)
    }
}


package edu.oakland.production.database {
    interface DatabasePersistentStorage {
        __
        .. Use Case 1 ..
        {abstract} + int locateRfidData()
        {abstract} + LocationDataPoint getLocationDataPoint(int offset)
        {abstract} + void storeLocationDataPoint(LocationDataPoint locationDataPoint)
        {abstract} + TrackData getTrackData(int offset)
        {abstract} + void storeTrackData(TrackData trackData)
        {abstract} + String getMode()
        .. Use Case 2 ..
        {abstract} + void storeMode(String mode)
        {abstract} + String getNextSat(String currentSat)
    }
}


package edu.oakland.production.database {
    class DatabaseCommInterfaceImplementation {
        __
        .. Use Case 1 ..

        .. Use Case 2 ..

    }
}


package edu.oakland.production.database {
    class DatabaseCommManagerImplementation {
        __
        .. Use Case 1 ..

        .. Use Case 2 ..

    }
}


package edu.oakland.production.database {
    class DatabaseGisInterfaceImplementation {
        __
        .. Use Case 1 ..
        + void recieveStoreRequest(LocationDataPoint locationDataPoint)
        .. Use Case 2 ..
        + void recieveModeRequest(String mode)
        + String recieveNextSatRequest(String currentSat)
    }
}


package edu.oakland.production.database {
    class DatabaseGisManagerImplementation {
        __
        .. Use Case 1 ..
        + void passStoreRequest(LocationDataPoint locationDataPoint)
        .. Use Case 2 ..
        + void passModeRequest(String mode)
        + String passNextSatRequest(String currentSat)
    }
}


package edu.oakland.production.database {
    class DatabasePersistentStorageImplementation {
        __
        .. Use Case 1 ..

        .. Use Case 2 ..

    }
}


@enduml

PlantUML version 1.2020.02(Sun Mar 01 10:22:07 GMT 2020)
(GPL source distribution)
Java Runtime: OpenJDK Runtime Environment
JVM: OpenJDK 64-Bit Server VM
Java Version: 11.0.9+11-Ubuntu-0ubuntu1
Operating System: Linux
Default Encoding: ANSI_X3.4-1968
Language: en
Country: US
--></g></svg>