<?xml version="1.0" encoding="UTF-8" standalone="no"?><svg xmlns="http://www.w3.org/2000/svg" xmlns:xlink="http://www.w3.org/1999/xlink" contentScriptType="application/ecmascript" contentStyleType="text/css" height="819px" preserveAspectRatio="none" style="width:1997px;height:819px;" version="1.1" viewBox="0 0 1997 819" width="1997px" zoomAndPan="magnify"><defs><filter height="300%" id="f129q252fpav8c" width="300%" x="-1" y="-1"><feGaussianBlur result="blurOut" stdDeviation="2.0"/><feColorMatrix in="blurOut" result="blurOut2" type="matrix" values="0 0 0 0 0 0 0 0 0 0 0 0 0 0 0 0 0 0 .4 0"/><feOffset dx="4.0" dy="4.0" in="blurOut2" result="blurOut3"/><feBlend in="SourceGraphic" in2="blurOut3" mode="normal"/></filter></defs><g><!--MD5=[c2e276049abfe145c9906edb061abd32]
cluster edu.oakland.production.database--><polygon fill="#FFFFFF" filter="url(#f129q252fpav8c)" points="22,24,292,24,299,46.2969,1975,46.2969,1975,807,22,807,22,24" style="stroke: #000000; stroke-width: 1.5;"/><line style="stroke: #000000; stroke-width: 1.5;" x1="22" x2="299" y1="46.2969" y2="46.2969"/><text fill="#000000" font-family="sans-serif" font-size="14" font-weight="bold" lengthAdjust="spacingAndGlyphs" textLength="264" x="26" y="38.9951">edu.oakland.production.database</text><!--MD5=[6d34700a22f737f940b471daa4ac1202]
class DatabaseCommInterface--><rect fill="#FEFECE" filter="url(#f129q252fpav8c)" height="128.8281" id="DatabaseCommInterface" style="stroke: #A80036; stroke-width: 1.5;" width="398" x="38" y="59"/><ellipse cx="155.25" cy="75" fill="#B4A7E5" rx="11" ry="11" style="stroke: #A80036; stroke-width: 1.0;"/><path d="M151.1719,70.7656 L151.1719,68.6094 L158.5625,68.6094 L158.5625,70.7656 L156.0938,70.7656 L156.0938,78.8438 L158.5625,78.8438 L158.5625,81 L151.1719,81 L151.1719,78.8438 L153.6406,78.8438 L153.6406,70.7656 L151.1719,70.7656 Z "/><text fill="#000000" font-family="sans-serif" font-size="12" font-style="italic" lengthAdjust="spacingAndGlyphs" textLength="155" x="175.75" y="79.1543">DatabaseCommInterface</text><line style="stroke: #A80036; stroke-width: 1.5;" x1="39" x2="435" y1="91" y2="91"/><line style="stroke: #A80036; stroke-width: 1.5;" x1="39" x2="435" y1="99" y2="99"/><ellipse cx="49" cy="126.8047" fill="#84BE84" rx="3" ry="3" style="stroke: #038048; stroke-width: 1.0;"/><text fill="#000000" font-family="sans-serif" font-size="11" font-style="italic" lengthAdjust="spacingAndGlyphs" textLength="156" x="58" y="130.0151">int receiveGetRfidRequest()</text><ellipse cx="49" cy="139.6094" fill="#84BE84" rx="3" ry="3" style="stroke: #038048; stroke-width: 1.0;"/><text fill="#000000" font-family="sans-serif" font-size="11" font-style="italic" lengthAdjust="spacingAndGlyphs" textLength="372" x="58" y="142.8198">LocationDataPoint receiveGetLocationDataPointRequest(int offset)</text><ellipse cx="49" cy="152.4141" fill="#84BE84" rx="3" ry="3" style="stroke: #038048; stroke-width: 1.0;"/><text fill="#000000" font-family="sans-serif" font-size="11" font-style="italic" lengthAdjust="spacingAndGlyphs" textLength="284" x="58" y="155.6245">TrackData receiveGetTrackDataRequest(int offset)</text><ellipse cx="49" cy="165.2188" fill="#84BE84" rx="3" ry="3" style="stroke: #038048; stroke-width: 1.0;"/><text fill="#000000" font-family="sans-serif" font-size="11" font-style="italic" lengthAdjust="spacingAndGlyphs" textLength="283" x="58" y="168.4292">void storeTrackDataRequest(TrackData trackData)</text><ellipse cx="49" cy="178.0234" fill="#84BE84" rx="3" ry="3" style="stroke: #038048; stroke-width: 1.0;"/><text fill="#000000" font-family="sans-serif" font-size="11" font-style="italic" lengthAdjust="spacingAndGlyphs" textLength="183" x="58" y="181.2339">String receiveGetModeRequest()</text><line style="stroke: #A80036; stroke-width: 1.0; stroke-dasharray: 1.0,2.0;" x1="39" x2="204" y1="113.4023" y2="113.4023"/><text fill="#000000" font-family="sans-serif" font-size="11" lengthAdjust="spacingAndGlyphs" textLength="66" x="204" y="116.7104">Use Case 1</text><line style="stroke: #A80036; stroke-width: 1.0; stroke-dasharray: 1.0,2.0;" x1="270" x2="435" y1="113.4023" y2="113.4023"/><!--MD5=[3cbc5f43b2184d452c2937ae0a744eb6]
class DatabaseCommManager--><rect fill="#FEFECE" filter="url(#f129q252fpav8c)" height="128.8281" id="DatabaseCommManager" style="stroke: #A80036; stroke-width: 1.5;" width="382" x="471" y="59"/><ellipse cx="581.25" cy="75" fill="#B4A7E5" rx="11" ry="11" style="stroke: #A80036; stroke-width: 1.0;"/><path d="M577.1719,70.7656 L577.1719,68.6094 L584.5625,68.6094 L584.5625,70.7656 L582.0938,70.7656 L582.0938,78.8438 L584.5625,78.8438 L584.5625,81 L577.1719,81 L577.1719,78.8438 L579.6406,78.8438 L579.6406,70.7656 L577.1719,70.7656 Z "/><text fill="#000000" font-family="sans-serif" font-size="12" font-style="italic" lengthAdjust="spacingAndGlyphs" textLength="153" x="601.75" y="79.1543">DatabaseCommManager</text><line style="stroke: #A80036; stroke-width: 1.5;" x1="472" x2="852" y1="91" y2="91"/><line style="stroke: #A80036; stroke-width: 1.5;" x1="472" x2="852" y1="99" y2="99"/><ellipse cx="482" cy="126.8047" fill="#84BE84" rx="3" ry="3" style="stroke: #038048; stroke-width: 1.0;"/><text fill="#000000" font-family="sans-serif" font-size="11" font-style="italic" lengthAdjust="spacingAndGlyphs" textLength="140" x="491" y="130.0151">int passGetRfidRequest()</text><ellipse cx="482" cy="139.6094" fill="#84BE84" rx="3" ry="3" style="stroke: #038048; stroke-width: 1.0;"/><text fill="#000000" font-family="sans-serif" font-size="11" font-style="italic" lengthAdjust="spacingAndGlyphs" textLength="356" x="491" y="142.8198">LocationDataPoint passGetLocationDataPointRequest(int offset)</text><ellipse cx="482" cy="152.4141" fill="#84BE84" rx="3" ry="3" style="stroke: #038048; stroke-width: 1.0;"/><text fill="#000000" font-family="sans-serif" font-size="11" font-style="italic" lengthAdjust="spacingAndGlyphs" textLength="268" x="491" y="155.6245">TrackData passGetTrackDataRequest(int offset)</text><ellipse cx="482" cy="165.2188" fill="#84BE84" rx="3" ry="3" style="stroke: #038048; stroke-width: 1.0;"/><text fill="#000000" font-family="sans-serif" font-size="11" font-style="italic" lengthAdjust="spacingAndGlyphs" textLength="310" x="491" y="168.4292">void passStoreTrackDataRequest(TrackData trackData)</text><ellipse cx="482" cy="178.0234" fill="#84BE84" rx="3" ry="3" style="stroke: #038048; stroke-width: 1.0;"/><text fill="#000000" font-family="sans-serif" font-size="11" font-style="italic" lengthAdjust="spacingAndGlyphs" textLength="167" x="491" y="181.2339">String passGetModeRequest()</text><line style="stroke: #A80036; stroke-width: 1.0; stroke-dasharray: 1.0,2.0;" x1="472" x2="629" y1="113.4023" y2="113.4023"/><text fill="#000000" font-family="sans-serif" font-size="11" lengthAdjust="spacingAndGlyphs" textLength="66" x="629" y="116.7104">Use Case 1</text><line style="stroke: #A80036; stroke-width: 1.0; stroke-dasharray: 1.0,2.0;" x1="695" x2="852" y1="113.4023" y2="113.4023"/><!--MD5=[3bff7e01a405ec7c4802abd699e27172]
class DatabaseGisInterface--><rect fill="#FEFECE" filter="url(#f129q252fpav8c)" height="120.0234" id="DatabaseGisInterface" style="stroke: #A80036; stroke-width: 1.5;" width="383" x="888.5" y="63.5"/><ellipse cx="1008.25" cy="79.5" fill="#B4A7E5" rx="11" ry="11" style="stroke: #A80036; stroke-width: 1.0;"/><path d="M1004.1719,75.2656 L1004.1719,73.1094 L1011.5625,73.1094 L1011.5625,75.2656 L1009.0938,75.2656 L1009.0938,83.3438 L1011.5625,83.3438 L1011.5625,85.5 L1004.1719,85.5 L1004.1719,83.3438 L1006.6406,83.3438 L1006.6406,75.2656 L1004.1719,75.2656 Z "/><text fill="#000000" font-family="sans-serif" font-size="12" font-style="italic" lengthAdjust="spacingAndGlyphs" textLength="135" x="1028.75" y="83.6543">DatabaseGisInterface</text><line style="stroke: #A80036; stroke-width: 1.5;" x1="889.5" x2="1270.5" y1="95.5" y2="95.5"/><line style="stroke: #A80036; stroke-width: 1.5;" x1="889.5" x2="1270.5" y1="103.5" y2="103.5"/><ellipse cx="899.5" cy="131.3047" fill="#84BE84" rx="3" ry="3" style="stroke: #038048; stroke-width: 1.0;"/><text fill="#000000" font-family="sans-serif" font-size="11" font-style="italic" lengthAdjust="spacingAndGlyphs" textLength="357" x="908.5" y="134.5151">void recieveStoreRequest(LocationDataPoint locationDataPoint)</text><line style="stroke: #A80036; stroke-width: 1.0; stroke-dasharray: 1.0,2.0;" x1="889.5" x2="1047" y1="117.9023" y2="117.9023"/><text fill="#000000" font-family="sans-serif" font-size="11" lengthAdjust="spacingAndGlyphs" textLength="66" x="1047" y="121.2104">Use Case 1</text><line style="stroke: #A80036; stroke-width: 1.0; stroke-dasharray: 1.0,2.0;" x1="1113" x2="1270.5" y1="117.9023" y2="117.9023"/><ellipse cx="899.5" cy="160.9141" fill="#84BE84" rx="3" ry="3" style="stroke: #038048; stroke-width: 1.0;"/><text fill="#000000" font-family="sans-serif" font-size="11" font-style="italic" lengthAdjust="spacingAndGlyphs" textLength="232" x="908.5" y="164.1245">String recieveModeRequest(String mode)</text><ellipse cx="899.5" cy="173.7188" fill="#84BE84" rx="3" ry="3" style="stroke: #038048; stroke-width: 1.0;"/><text fill="#000000" font-family="sans-serif" font-size="11" font-style="italic" lengthAdjust="spacingAndGlyphs" textLength="273" x="908.5" y="176.9292">String recieveNextSatRequest(String currentSat)</text><line style="stroke: #A80036; stroke-width: 1.0; stroke-dasharray: 1.0,2.0;" x1="889.5" x2="1047" y1="147.5117" y2="147.5117"/><text fill="#000000" font-family="sans-serif" font-size="11" lengthAdjust="spacingAndGlyphs" textLength="66" x="1047" y="150.8198">Use Case 2</text><line style="stroke: #A80036; stroke-width: 1.0; stroke-dasharray: 1.0,2.0;" x1="1113" x2="1270.5" y1="147.5117" y2="147.5117"/><!--MD5=[a9fcaa89db220a1b0201406d1ae34ee7]
class DatabaseGisManager--><rect fill="#FEFECE" filter="url(#f129q252fpav8c)" height="120.0234" id="DatabaseGisManager" style="stroke: #A80036; stroke-width: 1.5;" width="367" x="1306.5" y="63.5"/><ellipse cx="1419.25" cy="79.5" fill="#B4A7E5" rx="11" ry="11" style="stroke: #A80036; stroke-width: 1.0;"/><path d="M1415.1719,75.2656 L1415.1719,73.1094 L1422.5625,73.1094 L1422.5625,75.2656 L1420.0938,75.2656 L1420.0938,83.3438 L1422.5625,83.3438 L1422.5625,85.5 L1415.1719,85.5 L1415.1719,83.3438 L1417.6406,83.3438 L1417.6406,75.2656 L1415.1719,75.2656 Z "/><text fill="#000000" font-family="sans-serif" font-size="12" font-style="italic" lengthAdjust="spacingAndGlyphs" textLength="133" x="1439.75" y="83.6543">DatabaseGisManager</text><line style="stroke: #A80036; stroke-width: 1.5;" x1="1307.5" x2="1672.5" y1="95.5" y2="95.5"/><line style="stroke: #A80036; stroke-width: 1.5;" x1="1307.5" x2="1672.5" y1="103.5" y2="103.5"/><ellipse cx="1317.5" cy="131.3047" fill="#84BE84" rx="3" ry="3" style="stroke: #038048; stroke-width: 1.0;"/><text fill="#000000" font-family="sans-serif" font-size="11" font-style="italic" lengthAdjust="spacingAndGlyphs" textLength="341" x="1326.5" y="134.5151">void passStoreRequest(LocationDataPoint locationDataPoint)</text><line style="stroke: #A80036; stroke-width: 1.0; stroke-dasharray: 1.0,2.0;" x1="1307.5" x2="1457" y1="117.9023" y2="117.9023"/><text fill="#000000" font-family="sans-serif" font-size="11" lengthAdjust="spacingAndGlyphs" textLength="66" x="1457" y="121.2104">Use Case 1</text><line style="stroke: #A80036; stroke-width: 1.0; stroke-dasharray: 1.0,2.0;" x1="1523" x2="1672.5" y1="117.9023" y2="117.9023"/><ellipse cx="1317.5" cy="160.9141" fill="#84BE84" rx="3" ry="3" style="stroke: #038048; stroke-width: 1.0;"/><text fill="#000000" font-family="sans-serif" font-size="11" font-style="italic" lengthAdjust="spacingAndGlyphs" textLength="207" x="1326.5" y="164.1245">void passModeRequest(String mode)</text><ellipse cx="1317.5" cy="173.7188" fill="#84BE84" rx="3" ry="3" style="stroke: #038048; stroke-width: 1.0;"/><text fill="#000000" font-family="sans-serif" font-size="11" font-style="italic" lengthAdjust="spacingAndGlyphs" textLength="257" x="1326.5" y="176.9292">String passNextSatRequest(String currentSat)</text><line style="stroke: #A80036; stroke-width: 1.0; stroke-dasharray: 1.0,2.0;" x1="1307.5" x2="1457" y1="147.5117" y2="147.5117"/><text fill="#000000" font-family="sans-serif" font-size="11" lengthAdjust="spacingAndGlyphs" textLength="66" x="1457" y="150.8198">Use Case 2</text><line style="stroke: #A80036; stroke-width: 1.0; stroke-dasharray: 1.0,2.0;" x1="1523" x2="1672.5" y1="147.5117" y2="147.5117"/><!--MD5=[d8df6b105e82f698e3603261466f245f]
class DatabasePersistentStorage--><rect fill="#FEFECE" filter="url(#f129q252fpav8c)" height="184.0469" id="DatabasePersistentStorage" style="stroke: #A80036; stroke-width: 1.5;" width="395" x="38.5" y="248"/><ellipse cx="146.25" cy="264" fill="#B4A7E5" rx="11" ry="11" style="stroke: #A80036; stroke-width: 1.0;"/><path d="M142.1719,259.7656 L142.1719,257.6094 L149.5625,257.6094 L149.5625,259.7656 L147.0938,259.7656 L147.0938,267.8438 L149.5625,267.8438 L149.5625,270 L142.1719,270 L142.1719,267.8438 L144.6406,267.8438 L144.6406,259.7656 L142.1719,259.7656 Z "/><text fill="#000000" font-family="sans-serif" font-size="12" font-style="italic" lengthAdjust="spacingAndGlyphs" textLength="171" x="166.75" y="268.1543">DatabasePersistentStorage</text><line style="stroke: #A80036; stroke-width: 1.5;" x1="39.5" x2="432.5" y1="280" y2="280"/><line style="stroke: #A80036; stroke-width: 1.5;" x1="39.5" x2="432.5" y1="288" y2="288"/><ellipse cx="49.5" cy="315.8047" fill="#84BE84" rx="3" ry="3" style="stroke: #038048; stroke-width: 1.0;"/><text fill="#000000" font-family="sans-serif" font-size="11" font-style="italic" lengthAdjust="spacingAndGlyphs" textLength="108" x="58.5" y="319.0151">int locateRfidData()</text><ellipse cx="49.5" cy="328.6094" fill="#84BE84" rx="3" ry="3" style="stroke: #038048; stroke-width: 1.0;"/><text fill="#000000" font-family="sans-serif" font-size="11" font-style="italic" lengthAdjust="spacingAndGlyphs" textLength="282" x="58.5" y="331.8198">LocationDataPoint getLocationDataPoint(int offset)</text><ellipse cx="49.5" cy="341.4141" fill="#84BE84" rx="3" ry="3" style="stroke: #038048; stroke-width: 1.0;"/><text fill="#000000" font-family="sans-serif" font-size="11" font-style="italic" lengthAdjust="spacingAndGlyphs" textLength="369" x="58.5" y="344.6245">void storeLocationDataPoint(LocationDataPoint locationDataPoint)</text><ellipse cx="49.5" cy="354.2188" fill="#84BE84" rx="3" ry="3" style="stroke: #038048; stroke-width: 1.0;"/><text fill="#000000" font-family="sans-serif" font-size="11" font-style="italic" lengthAdjust="spacingAndGlyphs" textLength="194" x="58.5" y="357.4292">TrackData getTrackData(int offset)</text><ellipse cx="49.5" cy="367.0234" fill="#84BE84" rx="3" ry="3" style="stroke: #038048; stroke-width: 1.0;"/><text fill="#000000" font-family="sans-serif" font-size="11" font-style="italic" lengthAdjust="spacingAndGlyphs" textLength="237" x="58.5" y="370.2339">void storeTrackData(TrackData trackData)</text><ellipse cx="49.5" cy="379.8281" fill="#84BE84" rx="3" ry="3" style="stroke: #038048; stroke-width: 1.0;"/><text fill="#000000" font-family="sans-serif" font-size="11" font-style="italic" lengthAdjust="spacingAndGlyphs" textLength="93" x="58.5" y="383.0386">String getMode()</text><line style="stroke: #A80036; stroke-width: 1.0; stroke-dasharray: 1.0,2.0;" x1="39.5" x2="203" y1="302.4023" y2="302.4023"/><text fill="#000000" font-family="sans-serif" font-size="11" lengthAdjust="spacingAndGlyphs" textLength="66" x="203" y="305.7104">Use Case 1</text><line style="stroke: #A80036; stroke-width: 1.0; stroke-dasharray: 1.0,2.0;" x1="269" x2="432.5" y1="302.4023" y2="302.4023"/><ellipse cx="49.5" cy="409.4375" fill="#84BE84" rx="3" ry="3" style="stroke: #038048; stroke-width: 1.0;"/><text fill="#000000" font-family="sans-serif" font-size="11" font-style="italic" lengthAdjust="spacingAndGlyphs" textLength="164" x="58.5" y="412.6479">void storeMode(String mode)</text><ellipse cx="49.5" cy="422.2422" fill="#84BE84" rx="3" ry="3" style="stroke: #038048; stroke-width: 1.0;"/><text fill="#000000" font-family="sans-serif" font-size="11" font-style="italic" lengthAdjust="spacingAndGlyphs" textLength="203" x="58.5" y="425.4526">String getNextSat(String currentSat)</text><line style="stroke: #A80036; stroke-width: 1.0; stroke-dasharray: 1.0,2.0;" x1="39.5" x2="203" y1="396.0352" y2="396.0352"/><text fill="#000000" font-family="sans-serif" font-size="11" lengthAdjust="spacingAndGlyphs" textLength="66" x="203" y="399.3433">Use Case 2</text><line style="stroke: #A80036; stroke-width: 1.0; stroke-dasharray: 1.0,2.0;" x1="269" x2="432.5" y1="396.0352" y2="396.0352"/><!--MD5=[9f85d6b15dbd6dc4f6cf7395c0833d14]
class DatabaseCommInterfaceImplementation--><rect fill="#FEFECE" filter="url(#f129q252fpav8c)" height="154.4375" id="DatabaseCommInterfaceImplementation" style="stroke: #A80036; stroke-width: 1.5;" width="458" x="469" y="263"/><ellipse cx="567.75" cy="279" fill="#ADD1B2" rx="11" ry="11" style="stroke: #A80036; stroke-width: 1.0;"/><path d="M570.7188,284.6406 Q570.1406,284.9375 569.5,285.0781 Q568.8594,285.2344 568.1563,285.2344 Q565.6563,285.2344 564.3281,283.5938 Q563.0156,281.9375 563.0156,278.8125 Q563.0156,275.6875 564.3281,274.0313 Q565.6563,272.375 568.1563,272.375 Q568.8594,272.375 569.5,272.5313 Q570.1563,272.6875 570.7188,272.9844 L570.7188,275.7031 Q570.0938,275.125 569.5,274.8594 Q568.9063,274.5781 568.2813,274.5781 Q566.9375,274.5781 566.25,275.6563 Q565.5625,276.7188 565.5625,278.8125 Q565.5625,280.9063 566.25,281.9844 Q566.9375,283.0469 568.2813,283.0469 Q568.9063,283.0469 569.5,282.7813 Q570.0938,282.5 570.7188,281.9219 L570.7188,284.6406 Z "/><text fill="#000000" font-family="sans-serif" font-size="12" lengthAdjust="spacingAndGlyphs" textLength="252" x="588.25" y="283.1543">DatabaseCommInterfaceImplementation</text><line style="stroke: #A80036; stroke-width: 1.5;" x1="470" x2="926" y1="295" y2="295"/><rect fill="none" height="6" style="stroke: #C82930; stroke-width: 1.0;" width="6" x="477" y="303"/><text fill="#000000" font-family="sans-serif" font-size="11" lengthAdjust="spacingAndGlyphs" textLength="283" x="489" y="309.2104">DatabaseCommManager databaseCommManager</text><line style="stroke: #A80036; stroke-width: 1.5;" x1="470" x2="926" y1="315.8047" y2="315.8047"/><ellipse cx="480" cy="326.8047" fill="#84BE84" rx="3" ry="3" style="stroke: #038048; stroke-width: 1.0;"/><text fill="#000000" font-family="sans-serif" font-size="11" lengthAdjust="spacingAndGlyphs" textLength="432" x="489" y="330.0151">DatabaseCommInterface(DatabaseCommManager databaseCommManager)</text><ellipse cx="480" cy="356.4141" fill="#84BE84" rx="3" ry="3" style="stroke: #038048; stroke-width: 1.0;"/><text fill="#000000" font-family="sans-serif" font-size="11" lengthAdjust="spacingAndGlyphs" textLength="154" x="489" y="359.6245">int receiveGetRfidRequest()</text><ellipse cx="480" cy="369.2188" fill="#84BE84" rx="3" ry="3" style="stroke: #038048; stroke-width: 1.0;"/><text fill="#000000" font-family="sans-serif" font-size="11" lengthAdjust="spacingAndGlyphs" textLength="372" x="489" y="372.4292">LocationDataPoint receiveGetLocationDataPointRequest(int offset)</text><ellipse cx="480" cy="382.0234" fill="#84BE84" rx="3" ry="3" style="stroke: #038048; stroke-width: 1.0;"/><text fill="#000000" font-family="sans-serif" font-size="11" lengthAdjust="spacingAndGlyphs" textLength="284" x="489" y="385.2339">TrackData receiveGetTrackDataRequest(int offset)</text><ellipse cx="480" cy="394.8281" fill="#84BE84" rx="3" ry="3" style="stroke: #038048; stroke-width: 1.0;"/><text fill="#000000" font-family="sans-serif" font-size="11" lengthAdjust="spacingAndGlyphs" textLength="283" x="489" y="398.0386">void storeTrackDataRequest(TrackData trackData)</text><ellipse cx="480" cy="407.6328" fill="#84BE84" rx="3" ry="3" style="stroke: #038048; stroke-width: 1.0;"/><text fill="#000000" font-family="sans-serif" font-size="11" lengthAdjust="spacingAndGlyphs" textLength="183" x="489" y="410.8433">String receiveGetModeRequest()</text><line style="stroke: #A80036; stroke-width: 1.0; stroke-dasharray: 1.0,2.0;" x1="470" x2="665" y1="343.0117" y2="343.0117"/><text fill="#000000" font-family="sans-serif" font-size="11" lengthAdjust="spacingAndGlyphs" textLength="66" x="665" y="346.3198">Use Case 1</text><line style="stroke: #A80036; stroke-width: 1.0; stroke-dasharray: 1.0,2.0;" x1="731" x2="926" y1="343.0117" y2="343.0117"/><!--MD5=[e62c039a107b929dc588966558a86fd5]
class DatabaseCommManagerImplementation--><rect fill="#FEFECE" filter="url(#f129q252fpav8c)" height="141.6328" id="DatabaseCommManagerImplementation" style="stroke: #A80036; stroke-width: 1.5;" width="579" x="962.5" y="269"/><ellipse cx="1122.25" cy="285" fill="#ADD1B2" rx="11" ry="11" style="stroke: #A80036; stroke-width: 1.0;"/><path d="M1125.2188,290.6406 Q1124.6406,290.9375 1124,291.0781 Q1123.3594,291.2344 1122.6563,291.2344 Q1120.1563,291.2344 1118.8281,289.5938 Q1117.5156,287.9375 1117.5156,284.8125 Q1117.5156,281.6875 1118.8281,280.0313 Q1120.1563,278.375 1122.6563,278.375 Q1123.3594,278.375 1124,278.5313 Q1124.6563,278.6875 1125.2188,278.9844 L1125.2188,281.7031 Q1124.5938,281.125 1124,280.8594 Q1123.4063,280.5781 1122.7813,280.5781 Q1121.4375,280.5781 1120.75,281.6563 Q1120.0625,282.7188 1120.0625,284.8125 Q1120.0625,286.9063 1120.75,287.9844 Q1121.4375,289.0469 1122.7813,289.0469 Q1123.4063,289.0469 1124,288.7813 Q1124.5938,288.5 1125.2188,287.9219 L1125.2188,290.6406 Z "/><text fill="#000000" font-family="sans-serif" font-size="12" lengthAdjust="spacingAndGlyphs" textLength="251" x="1142.75" y="289.1543">DatabaseCommManagerImplementation</text><line style="stroke: #A80036; stroke-width: 1.5;" x1="963.5" x2="1540.5" y1="301" y2="301"/><rect fill="none" height="6" style="stroke: #C82930; stroke-width: 1.0;" width="6" x="970.5" y="309"/><text fill="#000000" font-family="sans-serif" font-size="11" lengthAdjust="spacingAndGlyphs" textLength="317" x="982.5" y="315.2104">DatabasePersistentStorage databasePersistentStorage</text><line style="stroke: #A80036; stroke-width: 1.5;" x1="963.5" x2="1540.5" y1="321.8047" y2="321.8047"/><ellipse cx="973.5" cy="332.8047" fill="#84BE84" rx="3" ry="3" style="stroke: #038048; stroke-width: 1.0;"/><text fill="#000000" font-family="sans-serif" font-size="11" lengthAdjust="spacingAndGlyphs" textLength="553" x="982.5" y="336.0151">DatabaseCommManagerImplementation(DatabasePersistentStorage databasePersistentStorage)</text><ellipse cx="973.5" cy="362.4141" fill="#84BE84" rx="3" ry="3" style="stroke: #038048; stroke-width: 1.0;"/><text fill="#000000" font-family="sans-serif" font-size="11" lengthAdjust="spacingAndGlyphs" textLength="141" x="982.5" y="365.6245">int passGetRfidRequest()</text><ellipse cx="973.5" cy="375.2188" fill="#84BE84" rx="3" ry="3" style="stroke: #038048; stroke-width: 1.0;"/><text fill="#000000" font-family="sans-serif" font-size="11" lengthAdjust="spacingAndGlyphs" textLength="359" x="982.5" y="378.4292">LocationDataPoint passGetLocationDataPointRequest(int offset)</text><ellipse cx="973.5" cy="388.0234" fill="#84BE84" rx="3" ry="3" style="stroke: #038048; stroke-width: 1.0;"/><text fill="#000000" font-family="sans-serif" font-size="11" lengthAdjust="spacingAndGlyphs" textLength="271" x="982.5" y="391.2339">TrackData passGetTrackDataRequest(int offset)</text><ellipse cx="973.5" cy="400.8281" fill="#84BE84" rx="3" ry="3" style="stroke: #038048; stroke-width: 1.0;"/><text fill="#000000" font-family="sans-serif" font-size="11" lengthAdjust="spacingAndGlyphs" textLength="312" x="982.5" y="404.0386">void passStoreTrackDataRequest(TrackData trackData)</text><line style="stroke: #A80036; stroke-width: 1.0; stroke-dasharray: 1.0,2.0;" x1="963.5" x2="1219" y1="349.0117" y2="349.0117"/><text fill="#000000" font-family="sans-serif" font-size="11" lengthAdjust="spacingAndGlyphs" textLength="66" x="1219" y="352.3198">Use Case 1</text><line style="stroke: #A80036; stroke-width: 1.0; stroke-dasharray: 1.0,2.0;" x1="1285" x2="1540.5" y1="349.0117" y2="349.0117"/><!--MD5=[08068c224d75f5ca94e2833221bd6445]
class DatabaseGisInterfaceImplementation--><rect fill="#FEFECE" filter="url(#f129q252fpav8c)" height="145.6328" id="DatabaseGisInterfaceImplementation" style="stroke: #A80036; stroke-width: 1.5;" width="382" x="1577" y="267"/><ellipse cx="1647.25" cy="283" fill="#ADD1B2" rx="11" ry="11" style="stroke: #A80036; stroke-width: 1.0;"/><path d="M1650.2188,288.6406 Q1649.6406,288.9375 1649,289.0781 Q1648.3594,289.2344 1647.6563,289.2344 Q1645.1563,289.2344 1643.8281,287.5938 Q1642.5156,285.9375 1642.5156,282.8125 Q1642.5156,279.6875 1643.8281,278.0313 Q1645.1563,276.375 1647.6563,276.375 Q1648.3594,276.375 1649,276.5313 Q1649.6563,276.6875 1650.2188,276.9844 L1650.2188,279.7031 Q1649.5938,279.125 1649,278.8594 Q1648.4063,278.5781 1647.7813,278.5781 Q1646.4375,278.5781 1645.75,279.6563 Q1645.0625,280.7188 1645.0625,282.8125 Q1645.0625,284.9063 1645.75,285.9844 Q1646.4375,287.0469 1647.7813,287.0469 Q1648.4063,287.0469 1649,286.7813 Q1649.5938,286.5 1650.2188,285.9219 L1650.2188,288.6406 Z "/><text fill="#000000" font-family="sans-serif" font-size="12" lengthAdjust="spacingAndGlyphs" textLength="233" x="1667.75" y="287.1543">DatabaseGisInterfaceImplementation</text><line style="stroke: #A80036; stroke-width: 1.5;" x1="1578" x2="1958" y1="299" y2="299"/><rect fill="none" height="6" style="stroke: #C82930; stroke-width: 1.0;" width="6" x="1585" y="307"/><text fill="#000000" font-family="sans-serif" font-size="11" lengthAdjust="spacingAndGlyphs" textLength="177" x="1597" y="313.2104">DatabaseGisManager manager</text><line style="stroke: #A80036; stroke-width: 1.5;" x1="1578" x2="1958" y1="319.8047" y2="319.8047"/><ellipse cx="1588" cy="330.8047" fill="#84BE84" rx="3" ry="3" style="stroke: #038048; stroke-width: 1.0;"/><text fill="#000000" font-family="sans-serif" font-size="11" lengthAdjust="spacingAndGlyphs" textLength="308" x="1597" y="334.0151">DatabaseGisInterface(DatabaseGisManager manager)</text><ellipse cx="1588" cy="360.4141" fill="#84BE84" rx="3" ry="3" style="stroke: #038048; stroke-width: 1.0;"/><text fill="#000000" font-family="sans-serif" font-size="11" lengthAdjust="spacingAndGlyphs" textLength="356" x="1597" y="363.6245">void recieveStoreRequest(LocationDataPoint locationDataPoint)</text><line style="stroke: #A80036; stroke-width: 1.0; stroke-dasharray: 1.0,2.0;" x1="1578" x2="1735" y1="347.0117" y2="347.0117"/><text fill="#000000" font-family="sans-serif" font-size="11" lengthAdjust="spacingAndGlyphs" textLength="66" x="1735" y="350.3198">Use Case 1</text><line style="stroke: #A80036; stroke-width: 1.0; stroke-dasharray: 1.0,2.0;" x1="1801" x2="1958" y1="347.0117" y2="347.0117"/><ellipse cx="1588" cy="390.0234" fill="#84BE84" rx="3" ry="3" style="stroke: #038048; stroke-width: 1.0;"/><text fill="#000000" font-family="sans-serif" font-size="11" lengthAdjust="spacingAndGlyphs" textLength="222" x="1597" y="393.2339">void recieveModeRequest(String mode)</text><ellipse cx="1588" cy="402.8281" fill="#84BE84" rx="3" ry="3" style="stroke: #038048; stroke-width: 1.0;"/><text fill="#000000" font-family="sans-serif" font-size="11" lengthAdjust="spacingAndGlyphs" textLength="275" x="1597" y="406.0386">String recieveNextSatRequest(String currentSat)</text><line style="stroke: #A80036; stroke-width: 1.0; stroke-dasharray: 1.0,2.0;" x1="1578" x2="1735" y1="376.6211" y2="376.6211"/><text fill="#000000" font-family="sans-serif" font-size="11" lengthAdjust="spacingAndGlyphs" textLength="66" x="1735" y="379.9292">Use Case 2</text><line style="stroke: #A80036; stroke-width: 1.0; stroke-dasharray: 1.0,2.0;" x1="1801" x2="1958" y1="376.6211" y2="376.6211"/><!--MD5=[cb27e8f56b23a96be3f83add8518c141]
class DatabaseGisManagerImplementation--><rect fill="#FEFECE" filter="url(#f129q252fpav8c)" height="184.0469" id="DatabaseGisManagerImplementation" style="stroke: #A80036; stroke-width: 1.5;" width="379" x="46.5" y="549.5"/><ellipse cx="115.75" cy="565.5" fill="#ADD1B2" rx="11" ry="11" style="stroke: #A80036; stroke-width: 1.0;"/><path d="M118.7188,571.1406 Q118.1406,571.4375 117.5,571.5781 Q116.8594,571.7344 116.1563,571.7344 Q113.6563,571.7344 112.3281,570.0938 Q111.0156,568.4375 111.0156,565.3125 Q111.0156,562.1875 112.3281,560.5313 Q113.6563,558.875 116.1563,558.875 Q116.8594,558.875 117.5,559.0313 Q118.1563,559.1875 118.7188,559.4844 L118.7188,562.2031 Q118.0938,561.625 117.5,561.3594 Q116.9063,561.0781 116.2813,561.0781 Q114.9375,561.0781 114.25,562.1563 Q113.5625,563.2188 113.5625,565.3125 Q113.5625,567.4063 114.25,568.4844 Q114.9375,569.5469 116.2813,569.5469 Q116.9063,569.5469 117.5,569.2813 Q118.0938,569 118.7188,568.4219 L118.7188,571.1406 Z "/><text fill="#000000" font-family="sans-serif" font-size="12" lengthAdjust="spacingAndGlyphs" textLength="232" x="136.25" y="569.6543">DatabaseGisManagerImplementation</text><line style="stroke: #A80036; stroke-width: 1.5;" x1="47.5" x2="424.5" y1="581.5" y2="581.5"/><rect fill="none" height="6" style="stroke: #C82930; stroke-width: 1.0;" width="6" x="54.5" y="589.5"/><text fill="#000000" font-family="sans-serif" font-size="11" lengthAdjust="spacingAndGlyphs" textLength="175" x="66.5" y="595.7104">LocationDataPoint locDataPoint</text><rect fill="none" height="6" style="stroke: #C82930; stroke-width: 1.0;" width="6" x="54.5" y="602.3047"/><text fill="#000000" font-family="sans-serif" font-size="11" lengthAdjust="spacingAndGlyphs" textLength="70" x="66.5" y="608.5151">String mode</text><rect fill="none" height="6" style="stroke: #C82930; stroke-width: 1.0;" width="6" x="54.5" y="615.1094"/><text fill="#000000" font-family="sans-serif" font-size="11" lengthAdjust="spacingAndGlyphs" textLength="98" x="66.5" y="621.3198">String currentSat</text><line style="stroke: #A80036; stroke-width: 1.5;" x1="47.5" x2="424.5" y1="627.9141" y2="627.9141"/><ellipse cx="57.5" cy="638.9141" fill="#84BE84" rx="3" ry="3" style="stroke: #038048; stroke-width: 1.0;"/><text fill="#000000" font-family="sans-serif" font-size="11" lengthAdjust="spacingAndGlyphs" textLength="214" x="66.5" y="642.1245">DatabaseGisManagerImplementation(</text><text fill="#000000" font-family="sans-serif" font-size="11" lengthAdjust="spacingAndGlyphs" textLength="321" x="98.5" y="654.9292">DatabasePersistentStorage databasePersistentStorage)</text><ellipse cx="57.5" cy="681.3281" fill="#84BE84" rx="3" ry="3" style="stroke: #038048; stroke-width: 1.0;"/><text fill="#000000" font-family="sans-serif" font-size="11" lengthAdjust="spacingAndGlyphs" textLength="343" x="66.5" y="684.5386">void passStoreRequest(LocationDataPoint locationDataPoint)</text><line style="stroke: #A80036; stroke-width: 1.0; stroke-dasharray: 1.0,2.0;" x1="47.5" x2="203" y1="667.9258" y2="667.9258"/><text fill="#000000" font-family="sans-serif" font-size="11" lengthAdjust="spacingAndGlyphs" textLength="66" x="203" y="671.2339">Use Case 1</text><line style="stroke: #A80036; stroke-width: 1.0; stroke-dasharray: 1.0,2.0;" x1="269" x2="424.5" y1="667.9258" y2="667.9258"/><ellipse cx="57.5" cy="710.9375" fill="#84BE84" rx="3" ry="3" style="stroke: #038048; stroke-width: 1.0;"/><text fill="#000000" font-family="sans-serif" font-size="11" lengthAdjust="spacingAndGlyphs" textLength="209" x="66.5" y="714.1479">void passModeRequest(String mode)</text><ellipse cx="57.5" cy="723.7422" fill="#84BE84" rx="3" ry="3" style="stroke: #038048; stroke-width: 1.0;"/><text fill="#000000" font-family="sans-serif" font-size="11" lengthAdjust="spacingAndGlyphs" textLength="262" x="66.5" y="726.9526">String passNextSatRequest(String currentSat)</text><line style="stroke: #A80036; stroke-width: 1.0; stroke-dasharray: 1.0,2.0;" x1="47.5" x2="203" y1="697.5352" y2="697.5352"/><text fill="#000000" font-family="sans-serif" font-size="11" lengthAdjust="spacingAndGlyphs" textLength="66" x="203" y="700.8433">Use Case 2</text><line style="stroke: #A80036; stroke-width: 1.0; stroke-dasharray: 1.0,2.0;" x1="269" x2="424.5" y1="697.5352" y2="697.5352"/><!--MD5=[6c3ae89235db7efba3a5d8ea9fd47e2d]
class DatabasePersistentStorageImplementation--><rect fill="#FEFECE" filter="url(#f129q252fpav8c)" height="299.2891" id="DatabasePersistentStorageImplementation" style="stroke: #A80036; stroke-width: 1.5;" width="395" x="460.5" y="492"/><ellipse cx="517.75" cy="508" fill="#ADD1B2" rx="11" ry="11" style="stroke: #A80036; stroke-width: 1.0;"/><path d="M520.7188,513.6406 Q520.1406,513.9375 519.5,514.0781 Q518.8594,514.2344 518.1563,514.2344 Q515.6563,514.2344 514.3281,512.5938 Q513.0156,510.9375 513.0156,507.8125 Q513.0156,504.6875 514.3281,503.0313 Q515.6563,501.375 518.1563,501.375 Q518.8594,501.375 519.5,501.5313 Q520.1563,501.6875 520.7188,501.9844 L520.7188,504.7031 Q520.0938,504.125 519.5,503.8594 Q518.9063,503.5781 518.2813,503.5781 Q516.9375,503.5781 516.25,504.6563 Q515.5625,505.7188 515.5625,507.8125 Q515.5625,509.9063 516.25,510.9844 Q516.9375,512.0469 518.2813,512.0469 Q518.9063,512.0469 519.5,511.7813 Q520.0938,511.5 520.7188,510.9219 L520.7188,513.6406 Z "/><text fill="#000000" font-family="sans-serif" font-size="12" lengthAdjust="spacingAndGlyphs" textLength="272" x="538.25" y="512.1543">DatabasePersistentStorageImplementation</text><line style="stroke: #A80036; stroke-width: 1.5;" x1="461.5" x2="854.5" y1="524" y2="524"/><rect fill="none" height="6" style="stroke: #C82930; stroke-width: 1.0;" width="6" x="468.5" y="532"/><text fill="#000000" font-family="sans-serif" font-size="11" lengthAdjust="spacingAndGlyphs" textLength="63" x="480.5" y="538.2104">int rfidData</text><rect fill="none" height="6" style="stroke: #C82930; stroke-width: 1.0;" width="6" x="468.5" y="544.8047"/><text fill="#000000" font-family="sans-serif" font-size="11" lengthAdjust="spacingAndGlyphs" textLength="243" x="480.5" y="551.0151">ArrayList&lt;LocationDataPoint&gt; locDataPoint</text><rect fill="none" height="6" style="stroke: #C82930; stroke-width: 1.0;" width="6" x="468.5" y="557.6094"/><text fill="#000000" font-family="sans-serif" font-size="11" lengthAdjust="spacingAndGlyphs" textLength="183" x="480.5" y="563.8198">ArrayList&lt;TrackData&gt; trackData</text><rect fill="none" height="6" style="stroke: #C82930; stroke-width: 1.0;" width="6" x="468.5" y="570.4141"/><text fill="#000000" font-family="sans-serif" font-size="11" lengthAdjust="spacingAndGlyphs" textLength="123" x="480.5" y="576.6245">String[] nextSatellites</text><rect fill="none" height="6" style="stroke: #C82930; stroke-width: 1.0;" width="6" x="468.5" y="583.2188"/><text fill="#000000" font-family="sans-serif" font-size="11" lengthAdjust="spacingAndGlyphs" textLength="70" x="480.5" y="589.4292">String mode</text><line style="stroke: #A80036; stroke-width: 1.5;" x1="461.5" x2="854.5" y1="596.0234" y2="596.0234"/><ellipse cx="471.5" cy="607.0234" fill="#84BE84" rx="3" ry="3" style="stroke: #038048; stroke-width: 1.0;"/><text fill="#000000" font-family="sans-serif" font-size="11" lengthAdjust="spacingAndGlyphs" textLength="228" x="480.5" y="610.2339">DatabasePersistentStorage(int rfidData,</text><text fill="#000000" font-family="sans-serif" font-size="11" lengthAdjust="spacingAndGlyphs" textLength="247" x="512.5" y="623.0386">ArrayList&lt;LocationDataPoint&gt; locDataPoint,</text><text fill="#000000" font-family="sans-serif" font-size="11" lengthAdjust="spacingAndGlyphs" textLength="187" x="512.5" y="635.8433">ArrayList&lt;TrackData&gt; trackData,</text><text fill="#000000" font-family="sans-serif" font-size="11" lengthAdjust="spacingAndGlyphs" textLength="127" x="512.5" y="648.6479">String[] nextSatellites)</text><ellipse cx="471.5" cy="675.0469" fill="#84BE84" rx="3" ry="3" style="stroke: #038048; stroke-width: 1.0;"/><text fill="#000000" font-family="sans-serif" font-size="11" lengthAdjust="spacingAndGlyphs" textLength="107" x="480.5" y="678.2573">int locateRfidData()</text><ellipse cx="471.5" cy="687.8516" fill="#84BE84" rx="3" ry="3" style="stroke: #038048; stroke-width: 1.0;"/><text fill="#000000" font-family="sans-serif" font-size="11" lengthAdjust="spacingAndGlyphs" textLength="283" x="480.5" y="691.062">LocationDataPoint getLocationDataPoint(int offset)</text><ellipse cx="471.5" cy="700.6563" fill="#84BE84" rx="3" ry="3" style="stroke: #038048; stroke-width: 1.0;"/><text fill="#000000" font-family="sans-serif" font-size="11" lengthAdjust="spacingAndGlyphs" textLength="369" x="480.5" y="703.8667">void storeLocationDataPoint(LocationDataPoint locationDataPoint)</text><ellipse cx="471.5" cy="713.4609" fill="#84BE84" rx="3" ry="3" style="stroke: #038048; stroke-width: 1.0;"/><text fill="#000000" font-family="sans-serif" font-size="11" lengthAdjust="spacingAndGlyphs" textLength="195" x="480.5" y="716.6714">TrackData getTrackData(int offset)</text><ellipse cx="471.5" cy="726.2656" fill="#84BE84" rx="3" ry="3" style="stroke: #038048; stroke-width: 1.0;"/><text fill="#000000" font-family="sans-serif" font-size="11" lengthAdjust="spacingAndGlyphs" textLength="237" x="480.5" y="729.4761">void storeTrackData(TrackData trackData)</text><ellipse cx="471.5" cy="739.0703" fill="#84BE84" rx="3" ry="3" style="stroke: #038048; stroke-width: 1.0;"/><text fill="#000000" font-family="sans-serif" font-size="11" lengthAdjust="spacingAndGlyphs" textLength="94" x="480.5" y="742.2808">String getMode()</text><line style="stroke: #A80036; stroke-width: 1.0; stroke-dasharray: 1.0,2.0;" x1="461.5" x2="625" y1="661.6445" y2="661.6445"/><text fill="#000000" font-family="sans-serif" font-size="11" lengthAdjust="spacingAndGlyphs" textLength="66" x="625" y="664.9526">Use Case 1</text><line style="stroke: #A80036; stroke-width: 1.0; stroke-dasharray: 1.0,2.0;" x1="691" x2="854.5" y1="661.6445" y2="661.6445"/><ellipse cx="471.5" cy="768.6797" fill="#84BE84" rx="3" ry="3" style="stroke: #038048; stroke-width: 1.0;"/><text fill="#000000" font-family="sans-serif" font-size="11" lengthAdjust="spacingAndGlyphs" textLength="165" x="480.5" y="771.8901">void storeMode(String mode)</text><ellipse cx="471.5" cy="781.4844" fill="#84BE84" rx="3" ry="3" style="stroke: #038048; stroke-width: 1.0;"/><text fill="#000000" font-family="sans-serif" font-size="11" lengthAdjust="spacingAndGlyphs" textLength="206" x="480.5" y="784.6948">String getNextSat(String currentSat)</text><line style="stroke: #A80036; stroke-width: 1.0; stroke-dasharray: 1.0,2.0;" x1="461.5" x2="625" y1="755.2773" y2="755.2773"/><text fill="#000000" font-family="sans-serif" font-size="11" lengthAdjust="spacingAndGlyphs" textLength="66" x="625" y="758.5854">Use Case 2</text><line style="stroke: #A80036; stroke-width: 1.0; stroke-dasharray: 1.0,2.0;" x1="691" x2="854.5" y1="755.2773" y2="755.2773"/><!--MD5=[f1f42aa3e5ee92d91a95f483cb27fd1b]
link DatabaseCommInterface to DatabaseCommManager--><!--MD5=[2ab5f857a335fe71cca2f65391443969]
link DatabaseCommManager to DatabaseGisInterface--><!--MD5=[57d2095737951b693a3c5eb0c4dcc61f]
link DatabaseGisInterface to DatabaseGisManager--><!--MD5=[8a3ac12fc3568691a4d369b4583e3e8c]
link DatabaseCommInterface to DatabasePersistentStorage--><!--MD5=[f2b6f62c1ac53fc9c635ffbb0a59d528]
link DatabasePersistentStorage to DatabaseCommInterfaceImplementation--><!--MD5=[3760425120cae1e7aba6568029ff5c72]
link DatabaseCommInterfaceImplementation to DatabaseCommManagerImplementation--><!--MD5=[f3ea6f9257e20c64f5c945a18b1b07f5]
link DatabaseCommManagerImplementation to DatabaseGisInterfaceImplementation--><!--MD5=[3eb7051df619a832f92e7e374c3d68dc]
link DatabasePersistentStorage to DatabaseGisManagerImplementation--><!--MD5=[052d4f5c8e3e20f54aa5395be353d385]
link DatabaseGisManagerImplementation to DatabasePersistentStorageImplementation--><!--MD5=[ddba93677f4efba254bea40f9391c356]
@startuml DatabaseProductionPackage

package edu.oakland.production.database {

}


package edu.oakland.production.database {
    interface DatabaseCommInterface {
        __
        .. Use Case 1 ..
        {abstract} + int receiveGetRfidRequest()
        {abstract} + LocationDataPoint receiveGetLocationDataPointRequest(int offset)
        {abstract} + TrackData receiveGetTrackDataRequest(int offset)
        {abstract} + void storeTrackDataRequest(TrackData trackData)
        {abstract} + String receiveGetModeRequest()
    }
}


package edu.oakland.production.database {
    interface DatabaseCommManager {
        __
        .. Use Case 1 ..
        {abstract} + int passGetRfidRequest()
        {abstract} + LocationDataPoint passGetLocationDataPointRequest(int offset)
        {abstract} + TrackData passGetTrackDataRequest(int offset)
        {abstract} + void passStoreTrackDataRequest(TrackData trackData)
        {abstract} + String passGetModeRequest()
    }
}


package edu.oakland.production.database {
    interface DatabaseGisInterface {
        __
        .. Use Case 1 ..
        {abstract} + void recieveStoreRequest(LocationDataPoint locationDataPoint)
        .. Use Case 2 ..
        {abstract} + String recieveModeRequest(String mode)
        {abstract} + String recieveNextSatRequest(String currentSat)
    }
}


package edu.oakland.production.database {
    interface DatabaseGisManager {
        __
        .. Use Case 1 ..
        {abstract} + void passStoreRequest(LocationDataPoint locationDataPoint)
        .. Use Case 2 ..
        {abstract} + void passModeRequest(String mode)
        {abstract} + String passNextSatRequest(String currentSat)
    }
}


package edu.oakland.production.database {
    interface DatabasePersistentStorage {
        __
        .. Use Case 1 ..
        {abstract} + int locateRfidData()
        {abstract} + LocationDataPoint getLocationDataPoint(int offset)
        {abstract} + void storeLocationDataPoint(LocationDataPoint locationDataPoint)
        {abstract} + TrackData getTrackData(int offset)
        {abstract} + void storeTrackData(TrackData trackData)
        {abstract} + String getMode()
        .. Use Case 2 ..
        {abstract} + void storeMode(String mode)
        {abstract} + String getNextSat(String currentSat)
    }
}


package edu.oakland.production.database {
    class DatabaseCommInterfaceImplementation {
        - DatabaseCommManager databaseCommManager
        __
        + DatabaseCommInterface(DatabaseCommManager databaseCommManager)
        .. Use Case 1 ..
        + int receiveGetRfidRequest()
        + LocationDataPoint receiveGetLocationDataPointRequest(int offset)
        + TrackData receiveGetTrackDataRequest(int offset)
        + void storeTrackDataRequest(TrackData trackData)
        + String receiveGetModeRequest()
    }
}


package edu.oakland.production.database {
    class DatabaseCommManagerImplementation {
        - DatabasePersistentStorage databasePersistentStorage
        __
        + DatabaseCommManagerImplementation(DatabasePersistentStorage databasePersistentStorage)
        .. Use Case 1 ..
        + int passGetRfidRequest()
        + LocationDataPoint passGetLocationDataPointRequest(int offset)
        + TrackData passGetTrackDataRequest(int offset)
        + void passStoreTrackDataRequest(TrackData trackData)
    }
}


package edu.oakland.production.database {
    class DatabaseGisInterfaceImplementation {
        - DatabaseGisManager manager
        __
        + DatabaseGisInterface(DatabaseGisManager manager)
        .. Use Case 1 ..
        + void recieveStoreRequest(LocationDataPoint locationDataPoint)
        .. Use Case 2 ..
        + void recieveModeRequest(String mode)
        + String recieveNextSatRequest(String currentSat)
    }
}


package edu.oakland.production.database {
    class DatabaseGisManagerImplementation {
        - LocationDataPoint locDataPoint
        - String mode
        - String currentSat
        __
        + DatabaseGisManagerImplementation(
        \tDatabasePersistentStorage databasePersistentStorage)
        .. Use Case 1 ..
        + void passStoreRequest(LocationDataPoint locationDataPoint)
        .. Use Case 2 ..
        + void passModeRequest(String mode)
        + String passNextSatRequest(String currentSat)
    }
}


package edu.oakland.production.database {
    class DatabasePersistentStorageImplementation {
        - int rfidData
        - ArrayList<LocationDataPoint> locDataPoint
        - ArrayList<TrackData> trackData
        - String[] nextSatellites
        - String mode
        __
        + DatabasePersistentStorage(int rfidData, 
        \tArrayList<LocationDataPoint> locDataPoint, 
        \tArrayList<TrackData> trackData, 
        \tString[] nextSatellites)
        .. Use Case 1 ..
        + int locateRfidData()
        + LocationDataPoint getLocationDataPoint(int offset)
        + void storeLocationDataPoint(LocationDataPoint locationDataPoint)
        + TrackData getTrackData(int offset)
        + void storeTrackData(TrackData trackData)
        + String getMode()
        .. Use Case 2 ..
        + void storeMode(String mode)
        + String getNextSat(String currentSat)
    }
}


@enduml

PlantUML version 1.2020.02(Sun Mar 01 10:22:07 GMT 2020)
(GPL source distribution)
Java Runtime: OpenJDK Runtime Environment
JVM: OpenJDK 64-Bit Server VM
Java Version: 11.0.9+11-Ubuntu-0ubuntu1
Operating System: Linux
Default Encoding: ANSI_X3.4-1968
Language: en
Country: US
--></g></svg>