<?xml version="1.0" encoding="UTF-8" standalone="no"?><svg xmlns="http://www.w3.org/2000/svg" xmlns:xlink="http://www.w3.org/1999/xlink" contentScriptType="application/ecmascript" contentStyleType="text/css" height="630px" preserveAspectRatio="none" style="width:2537px;height:630px;" version="1.1" viewBox="0 0 2537 630" width="2537px" zoomAndPan="magnify"><defs><filter height="300%" id="fkm7ro7w7gzl1" width="300%" x="-1" y="-1"><feGaussianBlur result="blurOut" stdDeviation="2.0"/><feColorMatrix in="blurOut" result="blurOut2" type="matrix" values="0 0 0 0 0 0 0 0 0 0 0 0 0 0 0 0 0 0 .4 0"/><feOffset dx="4.0" dy="4.0" in="blurOut2" result="blurOut3"/><feBlend in="SourceGraphic" in2="blurOut3" mode="normal"/></filter></defs><g><!--MD5=[c2e276049abfe145c9906edb061abd32]
cluster edu.oakland.production.database--><polygon fill="#FFFFFF" filter="url(#fkm7ro7w7gzl1)" points="22,24,292,24,299,46.2969,2515,46.2969,2515,618,22,618,22,24" style="stroke: #000000; stroke-width: 1.5;"/><line style="stroke: #000000; stroke-width: 1.5;" x1="22" x2="299" y1="46.2969" y2="46.2969"/><text fill="#000000" font-family="sans-serif" font-size="14" font-weight="bold" lengthAdjust="spacingAndGlyphs" textLength="264" x="26" y="38.9951">edu.oakland.production.database</text><!--MD5=[6d34700a22f737f940b471daa4ac1202]
class DatabaseCommInterface--><rect fill="#FEFECE" filter="url(#fkm7ro7w7gzl1)" height="128.8281" id="DatabaseCommInterface" style="stroke: #A80036; stroke-width: 1.5;" width="398" x="38" y="86.5"/><ellipse cx="155.25" cy="102.5" fill="#B4A7E5" rx="11" ry="11" style="stroke: #A80036; stroke-width: 1.0;"/><path d="M151.1719,98.2656 L151.1719,96.1094 L158.5625,96.1094 L158.5625,98.2656 L156.0938,98.2656 L156.0938,106.3438 L158.5625,106.3438 L158.5625,108.5 L151.1719,108.5 L151.1719,106.3438 L153.6406,106.3438 L153.6406,98.2656 L151.1719,98.2656 Z "/><text fill="#000000" font-family="sans-serif" font-size="12" font-style="italic" lengthAdjust="spacingAndGlyphs" textLength="155" x="175.75" y="106.6543">DatabaseCommInterface</text><line style="stroke: #A80036; stroke-width: 1.5;" x1="39" x2="435" y1="118.5" y2="118.5"/><line style="stroke: #A80036; stroke-width: 1.5;" x1="39" x2="435" y1="126.5" y2="126.5"/><ellipse cx="49" cy="154.3047" fill="#84BE84" rx="3" ry="3" style="stroke: #038048; stroke-width: 1.0;"/><text fill="#000000" font-family="sans-serif" font-size="11" font-style="italic" lengthAdjust="spacingAndGlyphs" textLength="156" x="58" y="157.5151">int receiveGetRfidRequest()</text><ellipse cx="49" cy="167.1094" fill="#84BE84" rx="3" ry="3" style="stroke: #038048; stroke-width: 1.0;"/><text fill="#000000" font-family="sans-serif" font-size="11" font-style="italic" lengthAdjust="spacingAndGlyphs" textLength="372" x="58" y="170.3198">LocationDataPoint receiveGetLocationDataPointRequest(int offset)</text><ellipse cx="49" cy="179.9141" fill="#84BE84" rx="3" ry="3" style="stroke: #038048; stroke-width: 1.0;"/><text fill="#000000" font-family="sans-serif" font-size="11" font-style="italic" lengthAdjust="spacingAndGlyphs" textLength="284" x="58" y="183.1245">TrackData receiveGetTrackDataRequest(int offset)</text><ellipse cx="49" cy="192.7188" fill="#84BE84" rx="3" ry="3" style="stroke: #038048; stroke-width: 1.0;"/><text fill="#000000" font-family="sans-serif" font-size="11" font-style="italic" lengthAdjust="spacingAndGlyphs" textLength="283" x="58" y="195.9292">void storeTrackDataRequest(TrackData trackData)</text><ellipse cx="49" cy="205.5234" fill="#84BE84" rx="3" ry="3" style="stroke: #038048; stroke-width: 1.0;"/><text fill="#000000" font-family="sans-serif" font-size="11" font-style="italic" lengthAdjust="spacingAndGlyphs" textLength="183" x="58" y="208.7339">String receiveGetModeRequest()</text><line style="stroke: #A80036; stroke-width: 1.0; stroke-dasharray: 1.0,2.0;" x1="39" x2="204" y1="140.9023" y2="140.9023"/><text fill="#000000" font-family="sans-serif" font-size="11" lengthAdjust="spacingAndGlyphs" textLength="66" x="204" y="144.2104">Use Case 1</text><line style="stroke: #A80036; stroke-width: 1.0; stroke-dasharray: 1.0,2.0;" x1="270" x2="435" y1="140.9023" y2="140.9023"/><!--MD5=[3cbc5f43b2184d452c2937ae0a744eb6]
class DatabaseCommManager--><rect fill="#FEFECE" filter="url(#fkm7ro7w7gzl1)" height="128.8281" id="DatabaseCommManager" style="stroke: #A80036; stroke-width: 1.5;" width="382" x="570" y="86.5"/><ellipse cx="680.25" cy="102.5" fill="#B4A7E5" rx="11" ry="11" style="stroke: #A80036; stroke-width: 1.0;"/><path d="M676.1719,98.2656 L676.1719,96.1094 L683.5625,96.1094 L683.5625,98.2656 L681.0938,98.2656 L681.0938,106.3438 L683.5625,106.3438 L683.5625,108.5 L676.1719,108.5 L676.1719,106.3438 L678.6406,106.3438 L678.6406,98.2656 L676.1719,98.2656 Z "/><text fill="#000000" font-family="sans-serif" font-size="12" font-style="italic" lengthAdjust="spacingAndGlyphs" textLength="153" x="700.75" y="106.6543">DatabaseCommManager</text><line style="stroke: #A80036; stroke-width: 1.5;" x1="571" x2="951" y1="118.5" y2="118.5"/><line style="stroke: #A80036; stroke-width: 1.5;" x1="571" x2="951" y1="126.5" y2="126.5"/><ellipse cx="581" cy="154.3047" fill="#84BE84" rx="3" ry="3" style="stroke: #038048; stroke-width: 1.0;"/><text fill="#000000" font-family="sans-serif" font-size="11" font-style="italic" lengthAdjust="spacingAndGlyphs" textLength="140" x="590" y="157.5151">int passGetRfidRequest()</text><ellipse cx="581" cy="167.1094" fill="#84BE84" rx="3" ry="3" style="stroke: #038048; stroke-width: 1.0;"/><text fill="#000000" font-family="sans-serif" font-size="11" font-style="italic" lengthAdjust="spacingAndGlyphs" textLength="356" x="590" y="170.3198">LocationDataPoint passGetLocationDataPointRequest(int offset)</text><ellipse cx="581" cy="179.9141" fill="#84BE84" rx="3" ry="3" style="stroke: #038048; stroke-width: 1.0;"/><text fill="#000000" font-family="sans-serif" font-size="11" font-style="italic" lengthAdjust="spacingAndGlyphs" textLength="268" x="590" y="183.1245">TrackData passGetTrackDataRequest(int offset)</text><ellipse cx="581" cy="192.7188" fill="#84BE84" rx="3" ry="3" style="stroke: #038048; stroke-width: 1.0;"/><text fill="#000000" font-family="sans-serif" font-size="11" font-style="italic" lengthAdjust="spacingAndGlyphs" textLength="310" x="590" y="195.9292">void passStoreTrackDataRequest(TrackData trackData)</text><ellipse cx="581" cy="205.5234" fill="#84BE84" rx="3" ry="3" style="stroke: #038048; stroke-width: 1.0;"/><text fill="#000000" font-family="sans-serif" font-size="11" font-style="italic" lengthAdjust="spacingAndGlyphs" textLength="167" x="590" y="208.7339">String passGetModeRequest()</text><line style="stroke: #A80036; stroke-width: 1.0; stroke-dasharray: 1.0,2.0;" x1="571" x2="728" y1="140.9023" y2="140.9023"/><text fill="#000000" font-family="sans-serif" font-size="11" lengthAdjust="spacingAndGlyphs" textLength="66" x="728" y="144.2104">Use Case 1</text><line style="stroke: #A80036; stroke-width: 1.0; stroke-dasharray: 1.0,2.0;" x1="794" x2="951" y1="140.9023" y2="140.9023"/><!--MD5=[3bff7e01a405ec7c4802abd699e27172]
class DatabaseGisInterface--><rect fill="#FEFECE" filter="url(#fkm7ro7w7gzl1)" height="120.0234" id="DatabaseGisInterface" style="stroke: #A80036; stroke-width: 1.5;" width="383" x="1085.5" y="91"/><ellipse cx="1205.25" cy="107" fill="#B4A7E5" rx="11" ry="11" style="stroke: #A80036; stroke-width: 1.0;"/><path d="M1201.1719,102.7656 L1201.1719,100.6094 L1208.5625,100.6094 L1208.5625,102.7656 L1206.0938,102.7656 L1206.0938,110.8438 L1208.5625,110.8438 L1208.5625,113 L1201.1719,113 L1201.1719,110.8438 L1203.6406,110.8438 L1203.6406,102.7656 L1201.1719,102.7656 Z "/><text fill="#000000" font-family="sans-serif" font-size="12" font-style="italic" lengthAdjust="spacingAndGlyphs" textLength="135" x="1225.75" y="111.1543">DatabaseGisInterface</text><line style="stroke: #A80036; stroke-width: 1.5;" x1="1086.5" x2="1467.5" y1="123" y2="123"/><line style="stroke: #A80036; stroke-width: 1.5;" x1="1086.5" x2="1467.5" y1="131" y2="131"/><ellipse cx="1096.5" cy="158.8047" fill="#84BE84" rx="3" ry="3" style="stroke: #038048; stroke-width: 1.0;"/><text fill="#000000" font-family="sans-serif" font-size="11" font-style="italic" lengthAdjust="spacingAndGlyphs" textLength="357" x="1105.5" y="162.0151">void recieveStoreRequest(LocationDataPoint locationDataPoint)</text><line style="stroke: #A80036; stroke-width: 1.0; stroke-dasharray: 1.0,2.0;" x1="1086.5" x2="1244" y1="145.4023" y2="145.4023"/><text fill="#000000" font-family="sans-serif" font-size="11" lengthAdjust="spacingAndGlyphs" textLength="66" x="1244" y="148.7104">Use Case 1</text><line style="stroke: #A80036; stroke-width: 1.0; stroke-dasharray: 1.0,2.0;" x1="1310" x2="1467.5" y1="145.4023" y2="145.4023"/><ellipse cx="1096.5" cy="188.4141" fill="#84BE84" rx="3" ry="3" style="stroke: #038048; stroke-width: 1.0;"/><text fill="#000000" font-family="sans-serif" font-size="11" font-style="italic" lengthAdjust="spacingAndGlyphs" textLength="232" x="1105.5" y="191.6245">String recieveModeRequest(String mode)</text><ellipse cx="1096.5" cy="201.2188" fill="#84BE84" rx="3" ry="3" style="stroke: #038048; stroke-width: 1.0;"/><text fill="#000000" font-family="sans-serif" font-size="11" font-style="italic" lengthAdjust="spacingAndGlyphs" textLength="273" x="1105.5" y="204.4292">String recieveNextSatRequest(String currentSat)</text><line style="stroke: #A80036; stroke-width: 1.0; stroke-dasharray: 1.0,2.0;" x1="1086.5" x2="1244" y1="175.0117" y2="175.0117"/><text fill="#000000" font-family="sans-serif" font-size="11" lengthAdjust="spacingAndGlyphs" textLength="66" x="1244" y="178.3198">Use Case 2</text><line style="stroke: #A80036; stroke-width: 1.0; stroke-dasharray: 1.0,2.0;" x1="1310" x2="1467.5" y1="175.0117" y2="175.0117"/><!--MD5=[a9fcaa89db220a1b0201406d1ae34ee7]
class DatabaseGisManager--><rect fill="#FEFECE" filter="url(#fkm7ro7w7gzl1)" height="120.0234" id="DatabaseGisManager" style="stroke: #A80036; stroke-width: 1.5;" width="367" x="1602.5" y="91"/><ellipse cx="1715.25" cy="107" fill="#B4A7E5" rx="11" ry="11" style="stroke: #A80036; stroke-width: 1.0;"/><path d="M1711.1719,102.7656 L1711.1719,100.6094 L1718.5625,100.6094 L1718.5625,102.7656 L1716.0938,102.7656 L1716.0938,110.8438 L1718.5625,110.8438 L1718.5625,113 L1711.1719,113 L1711.1719,110.8438 L1713.6406,110.8438 L1713.6406,102.7656 L1711.1719,102.7656 Z "/><text fill="#000000" font-family="sans-serif" font-size="12" font-style="italic" lengthAdjust="spacingAndGlyphs" textLength="133" x="1735.75" y="111.1543">DatabaseGisManager</text><line style="stroke: #A80036; stroke-width: 1.5;" x1="1603.5" x2="1968.5" y1="123" y2="123"/><line style="stroke: #A80036; stroke-width: 1.5;" x1="1603.5" x2="1968.5" y1="131" y2="131"/><ellipse cx="1613.5" cy="158.8047" fill="#84BE84" rx="3" ry="3" style="stroke: #038048; stroke-width: 1.0;"/><text fill="#000000" font-family="sans-serif" font-size="11" font-style="italic" lengthAdjust="spacingAndGlyphs" textLength="341" x="1622.5" y="162.0151">void passStoreRequest(LocationDataPoint locationDataPoint)</text><line style="stroke: #A80036; stroke-width: 1.0; stroke-dasharray: 1.0,2.0;" x1="1603.5" x2="1753" y1="145.4023" y2="145.4023"/><text fill="#000000" font-family="sans-serif" font-size="11" lengthAdjust="spacingAndGlyphs" textLength="66" x="1753" y="148.7104">Use Case 1</text><line style="stroke: #A80036; stroke-width: 1.0; stroke-dasharray: 1.0,2.0;" x1="1819" x2="1968.5" y1="145.4023" y2="145.4023"/><ellipse cx="1613.5" cy="188.4141" fill="#84BE84" rx="3" ry="3" style="stroke: #038048; stroke-width: 1.0;"/><text fill="#000000" font-family="sans-serif" font-size="11" font-style="italic" lengthAdjust="spacingAndGlyphs" textLength="207" x="1622.5" y="191.6245">void passModeRequest(String mode)</text><ellipse cx="1613.5" cy="201.2188" fill="#84BE84" rx="3" ry="3" style="stroke: #038048; stroke-width: 1.0;"/><text fill="#000000" font-family="sans-serif" font-size="11" font-style="italic" lengthAdjust="spacingAndGlyphs" textLength="257" x="1622.5" y="204.4292">String passNextSatRequest(String currentSat)</text><line style="stroke: #A80036; stroke-width: 1.0; stroke-dasharray: 1.0,2.0;" x1="1603.5" x2="1753" y1="175.0117" y2="175.0117"/><text fill="#000000" font-family="sans-serif" font-size="11" lengthAdjust="spacingAndGlyphs" textLength="66" x="1753" y="178.3198">Use Case 2</text><line style="stroke: #A80036; stroke-width: 1.0; stroke-dasharray: 1.0,2.0;" x1="1819" x2="1968.5" y1="175.0117" y2="175.0117"/><!--MD5=[d8df6b105e82f698e3603261466f245f]
class DatabasePersistentStorage--><rect fill="#FEFECE" filter="url(#fkm7ro7w7gzl1)" height="184.0469" id="DatabasePersistentStorage" style="stroke: #A80036; stroke-width: 1.5;" width="395" x="2103.5" y="59"/><ellipse cx="2211.25" cy="75" fill="#B4A7E5" rx="11" ry="11" style="stroke: #A80036; stroke-width: 1.0;"/><path d="M2207.1719,70.7656 L2207.1719,68.6094 L2214.5625,68.6094 L2214.5625,70.7656 L2212.0938,70.7656 L2212.0938,78.8438 L2214.5625,78.8438 L2214.5625,81 L2207.1719,81 L2207.1719,78.8438 L2209.6406,78.8438 L2209.6406,70.7656 L2207.1719,70.7656 Z "/><text fill="#000000" font-family="sans-serif" font-size="12" font-style="italic" lengthAdjust="spacingAndGlyphs" textLength="171" x="2231.75" y="79.1543">DatabasePersistentStorage</text><line style="stroke: #A80036; stroke-width: 1.5;" x1="2104.5" x2="2497.5" y1="91" y2="91"/><line style="stroke: #A80036; stroke-width: 1.5;" x1="2104.5" x2="2497.5" y1="99" y2="99"/><ellipse cx="2114.5" cy="126.8047" fill="#84BE84" rx="3" ry="3" style="stroke: #038048; stroke-width: 1.0;"/><text fill="#000000" font-family="sans-serif" font-size="11" font-style="italic" lengthAdjust="spacingAndGlyphs" textLength="108" x="2123.5" y="130.0151">int locateRfidData()</text><ellipse cx="2114.5" cy="139.6094" fill="#84BE84" rx="3" ry="3" style="stroke: #038048; stroke-width: 1.0;"/><text fill="#000000" font-family="sans-serif" font-size="11" font-style="italic" lengthAdjust="spacingAndGlyphs" textLength="282" x="2123.5" y="142.8198">LocationDataPoint getLocationDataPoint(int offset)</text><ellipse cx="2114.5" cy="152.4141" fill="#84BE84" rx="3" ry="3" style="stroke: #038048; stroke-width: 1.0;"/><text fill="#000000" font-family="sans-serif" font-size="11" font-style="italic" lengthAdjust="spacingAndGlyphs" textLength="369" x="2123.5" y="155.6245">void storeLocationDataPoint(LocationDataPoint locationDataPoint)</text><ellipse cx="2114.5" cy="165.2188" fill="#84BE84" rx="3" ry="3" style="stroke: #038048; stroke-width: 1.0;"/><text fill="#000000" font-family="sans-serif" font-size="11" font-style="italic" lengthAdjust="spacingAndGlyphs" textLength="194" x="2123.5" y="168.4292">TrackData getTrackData(int offset)</text><ellipse cx="2114.5" cy="178.0234" fill="#84BE84" rx="3" ry="3" style="stroke: #038048; stroke-width: 1.0;"/><text fill="#000000" font-family="sans-serif" font-size="11" font-style="italic" lengthAdjust="spacingAndGlyphs" textLength="237" x="2123.5" y="181.2339">void storeTrackData(TrackData trackData)</text><ellipse cx="2114.5" cy="190.8281" fill="#84BE84" rx="3" ry="3" style="stroke: #038048; stroke-width: 1.0;"/><text fill="#000000" font-family="sans-serif" font-size="11" font-style="italic" lengthAdjust="spacingAndGlyphs" textLength="93" x="2123.5" y="194.0386">String getMode()</text><line style="stroke: #A80036; stroke-width: 1.0; stroke-dasharray: 1.0,2.0;" x1="2104.5" x2="2268" y1="113.4023" y2="113.4023"/><text fill="#000000" font-family="sans-serif" font-size="11" lengthAdjust="spacingAndGlyphs" textLength="66" x="2268" y="116.7104">Use Case 1</text><line style="stroke: #A80036; stroke-width: 1.0; stroke-dasharray: 1.0,2.0;" x1="2334" x2="2497.5" y1="113.4023" y2="113.4023"/><ellipse cx="2114.5" cy="220.4375" fill="#84BE84" rx="3" ry="3" style="stroke: #038048; stroke-width: 1.0;"/><text fill="#000000" font-family="sans-serif" font-size="11" font-style="italic" lengthAdjust="spacingAndGlyphs" textLength="164" x="2123.5" y="223.6479">void storeMode(String mode)</text><ellipse cx="2114.5" cy="233.2422" fill="#84BE84" rx="3" ry="3" style="stroke: #038048; stroke-width: 1.0;"/><text fill="#000000" font-family="sans-serif" font-size="11" font-style="italic" lengthAdjust="spacingAndGlyphs" textLength="203" x="2123.5" y="236.4526">String getNextSat(String currentSat)</text><line style="stroke: #A80036; stroke-width: 1.0; stroke-dasharray: 1.0,2.0;" x1="2104.5" x2="2268" y1="207.0352" y2="207.0352"/><text fill="#000000" font-family="sans-serif" font-size="11" lengthAdjust="spacingAndGlyphs" textLength="66" x="2268" y="210.3433">Use Case 2</text><line style="stroke: #A80036; stroke-width: 1.0; stroke-dasharray: 1.0,2.0;" x1="2334" x2="2497.5" y1="207.0352" y2="207.0352"/><!--MD5=[9f85d6b15dbd6dc4f6cf7395c0833d14]
class DatabaseCommInterfaceImplementation--><rect fill="#FEFECE" filter="url(#fkm7ro7w7gzl1)" height="180.0469" id="DatabaseCommInterfaceImplementation" style="stroke: #A80036; stroke-width: 1.5;" width="398" x="38" y="362.5"/><ellipse cx="106.75" cy="378.5" fill="#ADD1B2" rx="11" ry="11" style="stroke: #A80036; stroke-width: 1.0;"/><path d="M109.7188,384.1406 Q109.1406,384.4375 108.5,384.5781 Q107.8594,384.7344 107.1563,384.7344 Q104.6563,384.7344 103.3281,383.0938 Q102.0156,381.4375 102.0156,378.3125 Q102.0156,375.1875 103.3281,373.5313 Q104.6563,371.875 107.1563,371.875 Q107.8594,371.875 108.5,372.0313 Q109.1563,372.1875 109.7188,372.4844 L109.7188,375.2031 Q109.0938,374.625 108.5,374.3594 Q107.9063,374.0781 107.2813,374.0781 Q105.9375,374.0781 105.25,375.1563 Q104.5625,376.2188 104.5625,378.3125 Q104.5625,380.4063 105.25,381.4844 Q105.9375,382.5469 107.2813,382.5469 Q107.9063,382.5469 108.5,382.2813 Q109.0938,382 109.7188,381.4219 L109.7188,384.1406 Z "/><text fill="#000000" font-family="sans-serif" font-size="12" lengthAdjust="spacingAndGlyphs" textLength="252" x="127.25" y="382.6543">DatabaseCommInterfaceImplementation</text><line style="stroke: #A80036; stroke-width: 1.5;" x1="39" x2="435" y1="394.5" y2="394.5"/><rect fill="none" height="6" style="stroke: #C82930; stroke-width: 1.0;" width="6" x="46" y="402.5"/><text fill="#000000" font-family="sans-serif" font-size="11" lengthAdjust="spacingAndGlyphs" textLength="283" x="58" y="408.7104">DatabaseCommManager databaseCommManager</text><line style="stroke: #A80036; stroke-width: 1.5;" x1="39" x2="435" y1="415.3047" y2="415.3047"/><text fill="#000000" font-family="sans-serif" font-size="11" lengthAdjust="spacingAndGlyphs" textLength="212" x="44" y="429.5151">DatabaseCommInterface(int rfidData,</text><text fill="#000000" font-family="sans-serif" font-size="11" lengthAdjust="spacingAndGlyphs" textLength="179" x="76" y="442.3198">LocationDataPoint locDataPoint,</text><text fill="#000000" font-family="sans-serif" font-size="11" lengthAdjust="spacingAndGlyphs" textLength="119" x="76" y="455.1245">TrackData trackData)</text><ellipse cx="49" cy="481.5234" fill="#84BE84" rx="3" ry="3" style="stroke: #038048; stroke-width: 1.0;"/><text fill="#000000" font-family="sans-serif" font-size="11" lengthAdjust="spacingAndGlyphs" textLength="154" x="58" y="484.7339">int receiveGetRfidRequest()</text><ellipse cx="49" cy="494.3281" fill="#84BE84" rx="3" ry="3" style="stroke: #038048; stroke-width: 1.0;"/><text fill="#000000" font-family="sans-serif" font-size="11" lengthAdjust="spacingAndGlyphs" textLength="372" x="58" y="497.5386">LocationDataPoint receiveGetLocationDataPointRequest(int offset)</text><ellipse cx="49" cy="507.1328" fill="#84BE84" rx="3" ry="3" style="stroke: #038048; stroke-width: 1.0;"/><text fill="#000000" font-family="sans-serif" font-size="11" lengthAdjust="spacingAndGlyphs" textLength="284" x="58" y="510.3433">TrackData receiveGetTrackDataRequest(int offset)</text><ellipse cx="49" cy="519.9375" fill="#84BE84" rx="3" ry="3" style="stroke: #038048; stroke-width: 1.0;"/><text fill="#000000" font-family="sans-serif" font-size="11" lengthAdjust="spacingAndGlyphs" textLength="283" x="58" y="523.1479">void storeTrackDataRequest(TrackData trackData)</text><ellipse cx="49" cy="532.7422" fill="#84BE84" rx="3" ry="3" style="stroke: #038048; stroke-width: 1.0;"/><text fill="#000000" font-family="sans-serif" font-size="11" lengthAdjust="spacingAndGlyphs" textLength="183" x="58" y="535.9526">String receiveGetModeRequest()</text><line style="stroke: #A80036; stroke-width: 1.0; stroke-dasharray: 1.0,2.0;" x1="39" x2="204" y1="468.1211" y2="468.1211"/><text fill="#000000" font-family="sans-serif" font-size="11" lengthAdjust="spacingAndGlyphs" textLength="66" x="204" y="471.4292">Use Case 1</text><line style="stroke: #A80036; stroke-width: 1.0; stroke-dasharray: 1.0,2.0;" x1="270" x2="435" y1="468.1211" y2="468.1211"/><!--MD5=[e62c039a107b929dc588966558a86fd5]
class DatabaseCommManagerImplementation--><rect fill="#FEFECE" filter="url(#fkm7ro7w7gzl1)" height="141.6328" id="DatabaseCommManagerImplementation" style="stroke: #A80036; stroke-width: 1.5;" width="579" x="471.5" y="381.5"/><ellipse cx="631.25" cy="397.5" fill="#ADD1B2" rx="11" ry="11" style="stroke: #A80036; stroke-width: 1.0;"/><path d="M634.2188,403.1406 Q633.6406,403.4375 633,403.5781 Q632.3594,403.7344 631.6563,403.7344 Q629.1563,403.7344 627.8281,402.0938 Q626.5156,400.4375 626.5156,397.3125 Q626.5156,394.1875 627.8281,392.5313 Q629.1563,390.875 631.6563,390.875 Q632.3594,390.875 633,391.0313 Q633.6563,391.1875 634.2188,391.4844 L634.2188,394.2031 Q633.5938,393.625 633,393.3594 Q632.4063,393.0781 631.7813,393.0781 Q630.4375,393.0781 629.75,394.1563 Q629.0625,395.2188 629.0625,397.3125 Q629.0625,399.4063 629.75,400.4844 Q630.4375,401.5469 631.7813,401.5469 Q632.4063,401.5469 633,401.2813 Q633.5938,401 634.2188,400.4219 L634.2188,403.1406 Z "/><text fill="#000000" font-family="sans-serif" font-size="12" lengthAdjust="spacingAndGlyphs" textLength="251" x="651.75" y="401.6543">DatabaseCommManagerImplementation</text><line style="stroke: #A80036; stroke-width: 1.5;" x1="472.5" x2="1049.5" y1="413.5" y2="413.5"/><rect fill="none" height="6" style="stroke: #C82930; stroke-width: 1.0;" width="6" x="479.5" y="421.5"/><text fill="#000000" font-family="sans-serif" font-size="11" lengthAdjust="spacingAndGlyphs" textLength="317" x="491.5" y="427.7104">DatabasePersistentStorage databasePersistentStorage</text><line style="stroke: #A80036; stroke-width: 1.5;" x1="472.5" x2="1049.5" y1="434.3047" y2="434.3047"/><ellipse cx="482.5" cy="445.3047" fill="#84BE84" rx="3" ry="3" style="stroke: #038048; stroke-width: 1.0;"/><text fill="#000000" font-family="sans-serif" font-size="11" lengthAdjust="spacingAndGlyphs" textLength="553" x="491.5" y="448.5151">DatabaseCommManagerImplementation(DatabasePersistentStorage databasePersistentStorage)</text><ellipse cx="482.5" cy="474.9141" fill="#84BE84" rx="3" ry="3" style="stroke: #038048; stroke-width: 1.0;"/><text fill="#000000" font-family="sans-serif" font-size="11" lengthAdjust="spacingAndGlyphs" textLength="141" x="491.5" y="478.1245">int passGetRfidRequest()</text><ellipse cx="482.5" cy="487.7188" fill="#84BE84" rx="3" ry="3" style="stroke: #038048; stroke-width: 1.0;"/><text fill="#000000" font-family="sans-serif" font-size="11" lengthAdjust="spacingAndGlyphs" textLength="359" x="491.5" y="490.9292">LocationDataPoint passGetLocationDataPointRequest(int offset)</text><ellipse cx="482.5" cy="500.5234" fill="#84BE84" rx="3" ry="3" style="stroke: #038048; stroke-width: 1.0;"/><text fill="#000000" font-family="sans-serif" font-size="11" lengthAdjust="spacingAndGlyphs" textLength="271" x="491.5" y="503.7339">TrackData passGetTrackDataRequest(int offset)</text><ellipse cx="482.5" cy="513.3281" fill="#84BE84" rx="3" ry="3" style="stroke: #038048; stroke-width: 1.0;"/><text fill="#000000" font-family="sans-serif" font-size="11" lengthAdjust="spacingAndGlyphs" textLength="312" x="491.5" y="516.5386">void passStoreTrackDataRequest(TrackData trackData)</text><line style="stroke: #A80036; stroke-width: 1.0; stroke-dasharray: 1.0,2.0;" x1="472.5" x2="728" y1="461.5117" y2="461.5117"/><text fill="#000000" font-family="sans-serif" font-size="11" lengthAdjust="spacingAndGlyphs" textLength="66" x="728" y="464.8198">Use Case 1</text><line style="stroke: #A80036; stroke-width: 1.0; stroke-dasharray: 1.0,2.0;" x1="794" x2="1049.5" y1="461.5117" y2="461.5117"/><!--MD5=[08068c224d75f5ca94e2833221bd6445]
class DatabaseGisInterfaceImplementation--><rect fill="#FEFECE" filter="url(#fkm7ro7w7gzl1)" height="145.6328" id="DatabaseGisInterfaceImplementation" style="stroke: #A80036; stroke-width: 1.5;" width="382" x="1086" y="379.5"/><ellipse cx="1156.25" cy="395.5" fill="#ADD1B2" rx="11" ry="11" style="stroke: #A80036; stroke-width: 1.0;"/><path d="M1159.2188,401.1406 Q1158.6406,401.4375 1158,401.5781 Q1157.3594,401.7344 1156.6563,401.7344 Q1154.1563,401.7344 1152.8281,400.0938 Q1151.5156,398.4375 1151.5156,395.3125 Q1151.5156,392.1875 1152.8281,390.5313 Q1154.1563,388.875 1156.6563,388.875 Q1157.3594,388.875 1158,389.0313 Q1158.6563,389.1875 1159.2188,389.4844 L1159.2188,392.2031 Q1158.5938,391.625 1158,391.3594 Q1157.4063,391.0781 1156.7813,391.0781 Q1155.4375,391.0781 1154.75,392.1563 Q1154.0625,393.2188 1154.0625,395.3125 Q1154.0625,397.4063 1154.75,398.4844 Q1155.4375,399.5469 1156.7813,399.5469 Q1157.4063,399.5469 1158,399.2813 Q1158.5938,399 1159.2188,398.4219 L1159.2188,401.1406 Z "/><text fill="#000000" font-family="sans-serif" font-size="12" lengthAdjust="spacingAndGlyphs" textLength="233" x="1176.75" y="399.6543">DatabaseGisInterfaceImplementation</text><line style="stroke: #A80036; stroke-width: 1.5;" x1="1087" x2="1467" y1="411.5" y2="411.5"/><rect fill="none" height="6" style="stroke: #C82930; stroke-width: 1.0;" width="6" x="1094" y="419.5"/><text fill="#000000" font-family="sans-serif" font-size="11" lengthAdjust="spacingAndGlyphs" textLength="177" x="1106" y="425.7104">DatabaseGisManager manager</text><line style="stroke: #A80036; stroke-width: 1.5;" x1="1087" x2="1467" y1="432.3047" y2="432.3047"/><ellipse cx="1097" cy="443.3047" fill="#84BE84" rx="3" ry="3" style="stroke: #038048; stroke-width: 1.0;"/><text fill="#000000" font-family="sans-serif" font-size="11" lengthAdjust="spacingAndGlyphs" textLength="308" x="1106" y="446.5151">DatabaseGisInterface(DatabaseGisManager manager)</text><ellipse cx="1097" cy="472.9141" fill="#84BE84" rx="3" ry="3" style="stroke: #038048; stroke-width: 1.0;"/><text fill="#000000" font-family="sans-serif" font-size="11" lengthAdjust="spacingAndGlyphs" textLength="356" x="1106" y="476.1245">void recieveStoreRequest(LocationDataPoint locationDataPoint)</text><line style="stroke: #A80036; stroke-width: 1.0; stroke-dasharray: 1.0,2.0;" x1="1087" x2="1244" y1="459.5117" y2="459.5117"/><text fill="#000000" font-family="sans-serif" font-size="11" lengthAdjust="spacingAndGlyphs" textLength="66" x="1244" y="462.8198">Use Case 1</text><line style="stroke: #A80036; stroke-width: 1.0; stroke-dasharray: 1.0,2.0;" x1="1310" x2="1467" y1="459.5117" y2="459.5117"/><ellipse cx="1097" cy="502.5234" fill="#84BE84" rx="3" ry="3" style="stroke: #038048; stroke-width: 1.0;"/><text fill="#000000" font-family="sans-serif" font-size="11" lengthAdjust="spacingAndGlyphs" textLength="222" x="1106" y="505.7339">void recieveModeRequest(String mode)</text><ellipse cx="1097" cy="515.3281" fill="#84BE84" rx="3" ry="3" style="stroke: #038048; stroke-width: 1.0;"/><text fill="#000000" font-family="sans-serif" font-size="11" lengthAdjust="spacingAndGlyphs" textLength="275" x="1106" y="518.5386">String recieveNextSatRequest(String currentSat)</text><line style="stroke: #A80036; stroke-width: 1.0; stroke-dasharray: 1.0,2.0;" x1="1087" x2="1244" y1="489.1211" y2="489.1211"/><text fill="#000000" font-family="sans-serif" font-size="11" lengthAdjust="spacingAndGlyphs" textLength="66" x="1244" y="492.4292">Use Case 2</text><line style="stroke: #A80036; stroke-width: 1.0; stroke-dasharray: 1.0,2.0;" x1="1310" x2="1467" y1="489.1211" y2="489.1211"/><!--MD5=[cb27e8f56b23a96be3f83add8518c141]
class DatabaseGisManagerImplementation--><rect fill="#FEFECE" filter="url(#fkm7ro7w7gzl1)" height="188.8516" id="DatabaseGisManagerImplementation" style="stroke: #A80036; stroke-width: 1.5;" width="565" x="1503.5" y="358"/><ellipse cx="1665.75" cy="374" fill="#ADD1B2" rx="11" ry="11" style="stroke: #A80036; stroke-width: 1.0;"/><path d="M1668.7188,379.6406 Q1668.1406,379.9375 1667.5,380.0781 Q1666.8594,380.2344 1666.1563,380.2344 Q1663.6563,380.2344 1662.3281,378.5938 Q1661.0156,376.9375 1661.0156,373.8125 Q1661.0156,370.6875 1662.3281,369.0313 Q1663.6563,367.375 1666.1563,367.375 Q1666.8594,367.375 1667.5,367.5313 Q1668.1563,367.6875 1668.7188,367.9844 L1668.7188,370.7031 Q1668.0938,370.125 1667.5,369.8594 Q1666.9063,369.5781 1666.2813,369.5781 Q1664.9375,369.5781 1664.25,370.6563 Q1663.5625,371.7188 1663.5625,373.8125 Q1663.5625,375.9063 1664.25,376.9844 Q1664.9375,378.0469 1666.2813,378.0469 Q1666.9063,378.0469 1667.5,377.7813 Q1668.0938,377.5 1668.7188,376.9219 L1668.7188,379.6406 Z "/><text fill="#000000" font-family="sans-serif" font-size="12" lengthAdjust="spacingAndGlyphs" textLength="232" x="1686.25" y="378.1543">DatabaseGisManagerImplementation</text><line style="stroke: #A80036; stroke-width: 1.5;" x1="1504.5" x2="2067.5" y1="390" y2="390"/><rect fill="none" height="6" style="stroke: #C82930; stroke-width: 1.0;" width="6" x="1511.5" y="398"/><text fill="#000000" font-family="sans-serif" font-size="11" lengthAdjust="spacingAndGlyphs" textLength="175" x="1523.5" y="404.2104">LocationDataPoint locDataPoint</text><rect fill="none" height="6" style="stroke: #C82930; stroke-width: 1.0;" width="6" x="1511.5" y="410.8047"/><text fill="#000000" font-family="sans-serif" font-size="11" lengthAdjust="spacingAndGlyphs" textLength="70" x="1523.5" y="417.0151">String mode</text><rect fill="none" height="6" style="stroke: #C82930; stroke-width: 1.0;" width="6" x="1511.5" y="423.6094"/><text fill="#000000" font-family="sans-serif" font-size="11" lengthAdjust="spacingAndGlyphs" textLength="98" x="1523.5" y="429.8198">String currentSat</text><text fill="#000000" font-family="sans-serif" font-size="11" lengthAdjust="spacingAndGlyphs" textLength="12" x="1523.5" y="442.6245">__</text><text fill="#000000" font-family="sans-serif" font-size="11" lengthAdjust="spacingAndGlyphs" textLength="0" x="1527.5" y="455.4292"/><line style="stroke: #A80036; stroke-width: 1.0; stroke-dasharray: 1.0,2.0;" x1="1523.5" x2="1523.5" y1="464.4258" y2="464.4258"/><text fill="#000000" font-family="sans-serif" font-size="11" lengthAdjust="spacingAndGlyphs" textLength="66" x="1527.5" y="467.7339">Use Case 1</text><line style="stroke: #A80036; stroke-width: 1.0; stroke-dasharray: 1.0,2.0;" x1="1597.5" x2="1597.5" y1="464.4258" y2="464.4258"/><line style="stroke: #A80036; stroke-width: 1.0; stroke-dasharray: 1.0,2.0;" x1="1523.5" x2="1523.5" y1="477.2305" y2="477.2305"/><text fill="#000000" font-family="sans-serif" font-size="11" lengthAdjust="spacingAndGlyphs" textLength="66" x="1527.5" y="480.5386">Use Case 2</text><line style="stroke: #A80036; stroke-width: 1.0; stroke-dasharray: 1.0,2.0;" x1="1597.5" x2="1597.5" y1="477.2305" y2="477.2305"/><line style="stroke: #A80036; stroke-width: 1.5;" x1="1504.5" x2="2067.5" y1="487.6328" y2="487.6328"/><ellipse cx="1514.5" cy="498.6328" fill="#84BE84" rx="3" ry="3" style="stroke: #038048; stroke-width: 1.0;"/><text fill="#000000" font-family="sans-serif" font-size="11" lengthAdjust="spacingAndGlyphs" textLength="539" x="1523.5" y="501.8433">DatabaseGisManagerImplementation (DatabasePersistentStorage databasePersistentStorage)</text><ellipse cx="1514.5" cy="511.4375" fill="#84BE84" rx="3" ry="3" style="stroke: #038048; stroke-width: 1.0;"/><text fill="#000000" font-family="sans-serif" font-size="11" lengthAdjust="spacingAndGlyphs" textLength="343" x="1523.5" y="514.6479">void passStoreRequest(LocationDataPoint locationDataPoint)</text><ellipse cx="1514.5" cy="524.2422" fill="#84BE84" rx="3" ry="3" style="stroke: #038048; stroke-width: 1.0;"/><text fill="#000000" font-family="sans-serif" font-size="11" lengthAdjust="spacingAndGlyphs" textLength="209" x="1523.5" y="527.4526">void passModeRequest(String mode)</text><ellipse cx="1514.5" cy="537.0469" fill="#84BE84" rx="3" ry="3" style="stroke: #038048; stroke-width: 1.0;"/><text fill="#000000" font-family="sans-serif" font-size="11" lengthAdjust="spacingAndGlyphs" textLength="262" x="1523.5" y="540.2573">String passNextSatRequest(String currentSat)</text><!--MD5=[6c3ae89235db7efba3a5d8ea9fd47e2d]
class DatabasePersistentStorageImplementation--><rect fill="#FEFECE" filter="url(#fkm7ro7w7gzl1)" height="299.2891" id="DatabasePersistentStorageImplementation" style="stroke: #A80036; stroke-width: 1.5;" width="395" x="2103.5" y="303"/><ellipse cx="2160.75" cy="319" fill="#ADD1B2" rx="11" ry="11" style="stroke: #A80036; stroke-width: 1.0;"/><path d="M2163.7188,324.6406 Q2163.1406,324.9375 2162.5,325.0781 Q2161.8594,325.2344 2161.1563,325.2344 Q2158.6563,325.2344 2157.3281,323.5938 Q2156.0156,321.9375 2156.0156,318.8125 Q2156.0156,315.6875 2157.3281,314.0313 Q2158.6563,312.375 2161.1563,312.375 Q2161.8594,312.375 2162.5,312.5313 Q2163.1563,312.6875 2163.7188,312.9844 L2163.7188,315.7031 Q2163.0938,315.125 2162.5,314.8594 Q2161.9063,314.5781 2161.2813,314.5781 Q2159.9375,314.5781 2159.25,315.6563 Q2158.5625,316.7188 2158.5625,318.8125 Q2158.5625,320.9063 2159.25,321.9844 Q2159.9375,323.0469 2161.2813,323.0469 Q2161.9063,323.0469 2162.5,322.7813 Q2163.0938,322.5 2163.7188,321.9219 L2163.7188,324.6406 Z "/><text fill="#000000" font-family="sans-serif" font-size="12" lengthAdjust="spacingAndGlyphs" textLength="272" x="2181.25" y="323.1543">DatabasePersistentStorageImplementation</text><line style="stroke: #A80036; stroke-width: 1.5;" x1="2104.5" x2="2497.5" y1="335" y2="335"/><rect fill="none" height="6" style="stroke: #C82930; stroke-width: 1.0;" width="6" x="2111.5" y="343"/><text fill="#000000" font-family="sans-serif" font-size="11" lengthAdjust="spacingAndGlyphs" textLength="63" x="2123.5" y="349.2104">int rfidData</text><rect fill="none" height="6" style="stroke: #C82930; stroke-width: 1.0;" width="6" x="2111.5" y="355.8047"/><text fill="#000000" font-family="sans-serif" font-size="11" lengthAdjust="spacingAndGlyphs" textLength="243" x="2123.5" y="362.0151">ArrayList&lt;LocationDataPoint&gt; locDataPoint</text><rect fill="none" height="6" style="stroke: #C82930; stroke-width: 1.0;" width="6" x="2111.5" y="368.6094"/><text fill="#000000" font-family="sans-serif" font-size="11" lengthAdjust="spacingAndGlyphs" textLength="183" x="2123.5" y="374.8198">ArrayList&lt;TrackData&gt; trackData</text><rect fill="none" height="6" style="stroke: #C82930; stroke-width: 1.0;" width="6" x="2111.5" y="381.4141"/><text fill="#000000" font-family="sans-serif" font-size="11" lengthAdjust="spacingAndGlyphs" textLength="123" x="2123.5" y="387.6245">String[] nextSatellites</text><rect fill="none" height="6" style="stroke: #C82930; stroke-width: 1.0;" width="6" x="2111.5" y="394.2188"/><text fill="#000000" font-family="sans-serif" font-size="11" lengthAdjust="spacingAndGlyphs" textLength="70" x="2123.5" y="400.4292">String mode</text><line style="stroke: #A80036; stroke-width: 1.5;" x1="2104.5" x2="2497.5" y1="407.0234" y2="407.0234"/><ellipse cx="2114.5" cy="418.0234" fill="#84BE84" rx="3" ry="3" style="stroke: #038048; stroke-width: 1.0;"/><text fill="#000000" font-family="sans-serif" font-size="11" lengthAdjust="spacingAndGlyphs" textLength="228" x="2123.5" y="421.2339">DatabasePersistentStorage(int rfidData,</text><text fill="#000000" font-family="sans-serif" font-size="11" lengthAdjust="spacingAndGlyphs" textLength="247" x="2155.5" y="434.0386">ArrayList&lt;LocationDataPoint&gt; locDataPoint,</text><text fill="#000000" font-family="sans-serif" font-size="11" lengthAdjust="spacingAndGlyphs" textLength="187" x="2155.5" y="446.8433">ArrayList&lt;TrackData&gt; trackData,</text><text fill="#000000" font-family="sans-serif" font-size="11" lengthAdjust="spacingAndGlyphs" textLength="127" x="2155.5" y="459.6479">String[] nextSatellites)</text><ellipse cx="2114.5" cy="486.0469" fill="#84BE84" rx="3" ry="3" style="stroke: #038048; stroke-width: 1.0;"/><text fill="#000000" font-family="sans-serif" font-size="11" lengthAdjust="spacingAndGlyphs" textLength="107" x="2123.5" y="489.2573">int locateRfidData()</text><ellipse cx="2114.5" cy="498.8516" fill="#84BE84" rx="3" ry="3" style="stroke: #038048; stroke-width: 1.0;"/><text fill="#000000" font-family="sans-serif" font-size="11" lengthAdjust="spacingAndGlyphs" textLength="283" x="2123.5" y="502.062">LocationDataPoint getLocationDataPoint(int offset)</text><ellipse cx="2114.5" cy="511.6563" fill="#84BE84" rx="3" ry="3" style="stroke: #038048; stroke-width: 1.0;"/><text fill="#000000" font-family="sans-serif" font-size="11" lengthAdjust="spacingAndGlyphs" textLength="369" x="2123.5" y="514.8667">void storeLocationDataPoint(LocationDataPoint locationDataPoint)</text><ellipse cx="2114.5" cy="524.4609" fill="#84BE84" rx="3" ry="3" style="stroke: #038048; stroke-width: 1.0;"/><text fill="#000000" font-family="sans-serif" font-size="11" lengthAdjust="spacingAndGlyphs" textLength="195" x="2123.5" y="527.6714">TrackData getTrackData(int offset)</text><ellipse cx="2114.5" cy="537.2656" fill="#84BE84" rx="3" ry="3" style="stroke: #038048; stroke-width: 1.0;"/><text fill="#000000" font-family="sans-serif" font-size="11" lengthAdjust="spacingAndGlyphs" textLength="237" x="2123.5" y="540.4761">void storeTrackData(TrackData trackData)</text><ellipse cx="2114.5" cy="550.0703" fill="#84BE84" rx="3" ry="3" style="stroke: #038048; stroke-width: 1.0;"/><text fill="#000000" font-family="sans-serif" font-size="11" lengthAdjust="spacingAndGlyphs" textLength="94" x="2123.5" y="553.2808">String getMode()</text><line style="stroke: #A80036; stroke-width: 1.0; stroke-dasharray: 1.0,2.0;" x1="2104.5" x2="2268" y1="472.6445" y2="472.6445"/><text fill="#000000" font-family="sans-serif" font-size="11" lengthAdjust="spacingAndGlyphs" textLength="66" x="2268" y="475.9526">Use Case 1</text><line style="stroke: #A80036; stroke-width: 1.0; stroke-dasharray: 1.0,2.0;" x1="2334" x2="2497.5" y1="472.6445" y2="472.6445"/><ellipse cx="2114.5" cy="579.6797" fill="#84BE84" rx="3" ry="3" style="stroke: #038048; stroke-width: 1.0;"/><text fill="#000000" font-family="sans-serif" font-size="11" lengthAdjust="spacingAndGlyphs" textLength="165" x="2123.5" y="582.8901">void storeMode(String mode)</text><ellipse cx="2114.5" cy="592.4844" fill="#84BE84" rx="3" ry="3" style="stroke: #038048; stroke-width: 1.0;"/><text fill="#000000" font-family="sans-serif" font-size="11" lengthAdjust="spacingAndGlyphs" textLength="206" x="2123.5" y="595.6948">String getNextSat(String currentSat)</text><line style="stroke: #A80036; stroke-width: 1.0; stroke-dasharray: 1.0,2.0;" x1="2104.5" x2="2268" y1="566.2773" y2="566.2773"/><text fill="#000000" font-family="sans-serif" font-size="11" lengthAdjust="spacingAndGlyphs" textLength="66" x="2268" y="569.5854">Use Case 2</text><line style="stroke: #A80036; stroke-width: 1.0; stroke-dasharray: 1.0,2.0;" x1="2334" x2="2497.5" y1="566.2773" y2="566.2773"/><!--MD5=[b29619f0f1793d2973c3ae8f2ae417a7]
reverse link DatabaseCommInterface to DatabaseCommInterfaceImplementation--><path d="M237,235.65 C237,275.06 237,322.13 237,362.23 " fill="none" id="DatabaseCommInterface&lt;-DatabaseCommInterfaceImplementation" style="stroke: #A80036; stroke-width: 1.0; stroke-dasharray: 7.0,7.0;"/><polygon fill="none" points="230,235.52,237,215.52,244,235.52,230,235.52" style="stroke: #A80036; stroke-width: 1.0;"/><!--MD5=[a58b2e4b707a50c1d2b096e4059ce319]
reverse link DatabaseCommManager to DatabaseCommManagerImplementation--><path d="M761,235.77 C761,281.6 761,337.75 761,381.27 " fill="none" id="DatabaseCommManager&lt;-DatabaseCommManagerImplementation" style="stroke: #A80036; stroke-width: 1.0; stroke-dasharray: 7.0,7.0;"/><polygon fill="none" points="754,235.52,761,215.52,768,235.52,754,235.52" style="stroke: #A80036; stroke-width: 1.0;"/><!--MD5=[8fafe5e46f3a559c7888846384f84dbe]
reverse link DatabaseGisInterface to DatabaseGisInterfaceImplementation--><path d="M1277,231.37 C1277,277.27 1277,334.59 1277,379.23 " fill="none" id="DatabaseGisInterface&lt;-DatabaseGisInterfaceImplementation" style="stroke: #A80036; stroke-width: 1.0; stroke-dasharray: 7.0,7.0;"/><polygon fill="none" points="1270,231.17,1277,211.17,1284,231.17,1270,231.17" style="stroke: #A80036; stroke-width: 1.0;"/><!--MD5=[4b9ab9aeff5ade3c5ddb67bcb023b127]
reverse link DatabaseGisManager to DatabaseGisManagerImplementation--><path d="M1786,231.27 C1786,270.17 1786,317.3 1786,357.96 " fill="none" id="DatabaseGisManager&lt;-DatabaseGisManagerImplementation" style="stroke: #A80036; stroke-width: 1.0; stroke-dasharray: 7.0,7.0;"/><polygon fill="none" points="1779,231.17,1786,211.17,1793,231.17,1779,231.17" style="stroke: #A80036; stroke-width: 1.0;"/><!--MD5=[eb0961a570d8086d40299e5221360d47]
reverse link DatabasePersistentStorage to DatabasePersistentStorageImplementation--><path d="M2301,263.53 C2301,276.36 2301,289.6 2301,302.82 " fill="none" id="DatabasePersistentStorage&lt;-DatabasePersistentStorageImplementation" style="stroke: #A80036; stroke-width: 1.0; stroke-dasharray: 7.0,7.0;"/><polygon fill="none" points="2294,263.08,2301,243.08,2308,263.08,2294,263.08" style="stroke: #A80036; stroke-width: 1.0;"/><!--MD5=[6dfa93b4bf9d3200c448134a74509184]
@startuml DatabaseProductionPackage_InternalDependencies

package edu.oakland.production.database {
    
}


package edu.oakland.production.database {
    interface DatabaseCommInterface {
        __
        .. Use Case 1 ..
        {abstract} + int receiveGetRfidRequest()
        {abstract} + LocationDataPoint receiveGetLocationDataPointRequest(int offset)
        {abstract} + TrackData receiveGetTrackDataRequest(int offset)
        {abstract} + void storeTrackDataRequest(TrackData trackData)
        {abstract} + String receiveGetModeRequest()
    }
}


package edu.oakland.production.database {
    interface DatabaseCommManager {
        __
        .. Use Case 1 ..
        {abstract} + int passGetRfidRequest()
        {abstract} + LocationDataPoint passGetLocationDataPointRequest(int offset)
        {abstract} + TrackData passGetTrackDataRequest(int offset)
        {abstract} + void passStoreTrackDataRequest(TrackData trackData)
        {abstract} + String passGetModeRequest()
    }
}


package edu.oakland.production.database {
    interface DatabaseGisInterface {
        __
        .. Use Case 1 ..
        {abstract} + void recieveStoreRequest(LocationDataPoint locationDataPoint)
        .. Use Case 2 ..
        {abstract} + String recieveModeRequest(String mode)
        {abstract} + String recieveNextSatRequest(String currentSat)
    }
}


package edu.oakland.production.database {
    interface DatabaseGisManager {
        __
        .. Use Case 1 ..
        {abstract} + void passStoreRequest(LocationDataPoint locationDataPoint)
        .. Use Case 2 ..
        {abstract} + void passModeRequest(String mode)
        {abstract} + String passNextSatRequest(String currentSat)
    }
}


package edu.oakland.production.database {
    interface DatabasePersistentStorage {
        __
        .. Use Case 1 ..
        {abstract} + int locateRfidData()
        {abstract} + LocationDataPoint getLocationDataPoint(int offset)
        {abstract} + void storeLocationDataPoint(LocationDataPoint locationDataPoint)
        {abstract} + TrackData getTrackData(int offset)
        {abstract} + void storeTrackData(TrackData trackData)
        {abstract} + String getMode()
        .. Use Case 2 ..
        {abstract} + void storeMode(String mode)
        {abstract} + String getNextSat(String currentSat)
    }
}


package edu.oakland.production.database {
    class DatabaseCommInterfaceImplementation {
        - DatabaseCommManager databaseCommManager
        __
        DatabaseCommInterface(int rfidData, 
        \tLocationDataPoint locDataPoint,
        \tTrackData trackData)
        .. Use Case 1 ..
        + int receiveGetRfidRequest()
        + LocationDataPoint receiveGetLocationDataPointRequest(int offset)
        + TrackData receiveGetTrackDataRequest(int offset)
        + void storeTrackDataRequest(TrackData trackData)
        + String receiveGetModeRequest()
    }
}


DatabaseCommInterfaceImplementation .up.|> DatabaseCommInterface

package edu.oakland.production.database {
    class DatabaseCommManagerImplementation {
        - DatabasePersistentStorage databasePersistentStorage
        __
        + DatabaseCommManagerImplementation(DatabasePersistentStorage databasePersistentStorage)
        .. Use Case 1 ..
        + int passGetRfidRequest()
        + LocationDataPoint passGetLocationDataPointRequest(int offset)
        + TrackData passGetTrackDataRequest(int offset)
        + void passStoreTrackDataRequest(TrackData trackData)
    }
}


DatabaseCommManagerImplementation .up.|> DatabaseCommManager

package edu.oakland.production.database {
    class DatabaseGisInterfaceImplementation {
        - DatabaseGisManager manager
        __
        + DatabaseGisInterface(DatabaseGisManager manager)
        .. Use Case 1 ..
        + void recieveStoreRequest(LocationDataPoint locationDataPoint)
        .. Use Case 2 ..
        + void recieveModeRequest(String mode)
        + String recieveNextSatRequest(String currentSat)
    }
}


DatabaseGisInterfaceImplementation .up.|> DatabaseGisInterface

package edu.oakland.production.database {
    class DatabaseGisManagerImplementation {
    	- LocationDataPoint locDataPoint
    	- String mode
    	- String currentSat
          __
        + DatabaseGisManagerImplementation (DatabasePersistentStorage databasePersistentStorage)
        
        .. Use Case 1 ..
        + void passStoreRequest(LocationDataPoint locationDataPoint)
        .. Use Case 2 ..
        + void passModeRequest(String mode)
        + String passNextSatRequest(String currentSat)
    }
}


DatabaseGisManagerImplementation .up.|> DatabaseGisManager

package edu.oakland.production.database {
    class DatabasePersistentStorageImplementation {
        - int rfidData
        - ArrayList<LocationDataPoint> locDataPoint
        - ArrayList<TrackData> trackData
        - String[] nextSatellites
        - String mode
        __
        + DatabasePersistentStorage(int rfidData, 
        \tArrayList<LocationDataPoint> locDataPoint, 
        \tArrayList<TrackData> trackData, 
        \tString[] nextSatellites)
        .. Use Case 1 ..
        + int locateRfidData()
        + LocationDataPoint getLocationDataPoint(int offset)
        + void storeLocationDataPoint(LocationDataPoint locationDataPoint)
        + TrackData getTrackData(int offset)
        + void storeTrackData(TrackData trackData)
        + String getMode()
        .. Use Case 2 ..
        + void storeMode(String mode)
        + String getNextSat(String currentSat)
    }
}


DatabasePersistentStorageImplementation .up.|> DatabasePersistentStorage

@enduml

PlantUML version 1.2020.02(Sun Mar 01 10:22:07 GMT 2020)
(GPL source distribution)
Java Runtime: OpenJDK Runtime Environment
JVM: OpenJDK 64-Bit Server VM
Java Version: 11.0.9+11-Ubuntu-0ubuntu1
Operating System: Linux
Default Encoding: ANSI_X3.4-1968
Language: en
Country: US
--></g></svg>