<?xml version="1.0" encoding="UTF-8" standalone="no"?><svg xmlns="http://www.w3.org/2000/svg" xmlns:xlink="http://www.w3.org/1999/xlink" contentScriptType="application/ecmascript" contentStyleType="text/css" height="451px" preserveAspectRatio="none" style="width:1403px;height:451px;" version="1.1" viewBox="0 0 1403 451" width="1403px" zoomAndPan="magnify"><defs><filter height="300%" id="f1dwkasfgstmiy" width="300%" x="-1" y="-1"><feGaussianBlur result="blurOut" stdDeviation="2.0"/><feColorMatrix in="blurOut" result="blurOut2" type="matrix" values="0 0 0 0 0 0 0 0 0 0 0 0 0 0 0 0 0 0 .4 0"/><feOffset dx="4.0" dy="4.0" in="blurOut2" result="blurOut3"/><feBlend in="SourceGraphic" in2="blurOut3" mode="normal"/></filter></defs><g><!--MD5=[3e281e6f49e0b185d62a106a5d994a08]
cluster edu.oakland.production.display01--><polygon fill="#FFFFFF" filter="url(#f1dwkasfgstmiy)" points="22,24,295,24,302,46.2969,1381,46.2969,1381,439,22,439,22,24" style="stroke: #000000; stroke-width: 1.5;"/><line style="stroke: #000000; stroke-width: 1.5;" x1="22" x2="302" y1="46.2969" y2="46.2969"/><text fill="#000000" font-family="sans-serif" font-size="14" font-weight="bold" lengthAdjust="spacingAndGlyphs" textLength="267" x="26" y="38.9951">edu.oakland.production.display01</text><!--MD5=[fa6248c05b5a852ecd50b5411f159754]
class DisplayGpsInterface--><rect fill="#FEFECE" filter="url(#f1dwkasfgstmiy)" height="132.8281" id="DisplayGpsInterface" style="stroke: #A80036; stroke-width: 1.5;" width="297" x="88.5" y="59"/><ellipse cx="170.75" cy="75" fill="#B4A7E5" rx="11" ry="11" style="stroke: #A80036; stroke-width: 1.0;"/><path d="M166.6719,70.7656 L166.6719,68.6094 L174.0625,68.6094 L174.0625,70.7656 L171.5938,70.7656 L171.5938,78.8438 L174.0625,78.8438 L174.0625,81 L166.6719,81 L166.6719,78.8438 L169.1406,78.8438 L169.1406,70.7656 L166.6719,70.7656 Z "/><text fill="#000000" font-family="sans-serif" font-size="12" font-style="italic" lengthAdjust="spacingAndGlyphs" textLength="124" x="191.25" y="79.1543">DisplayGpsInterface</text><line style="stroke: #A80036; stroke-width: 1.5;" x1="89.5" x2="384.5" y1="91" y2="91"/><line style="stroke: #A80036; stroke-width: 1.5;" x1="89.5" x2="384.5" y1="99" y2="99"/><ellipse cx="99.5" cy="126.8047" fill="#84BE84" rx="3" ry="3" style="stroke: #038048; stroke-width: 1.0;"/><text fill="#000000" font-family="sans-serif" font-size="11" font-style="italic" lengthAdjust="spacingAndGlyphs" textLength="261" x="108.5" y="130.0151">void receiveGpsSignal(Satellite satelliteSignal)</text><line style="stroke: #A80036; stroke-width: 1.0; stroke-dasharray: 1.0,2.0;" x1="89.5" x2="204" y1="113.4023" y2="113.4023"/><text fill="#000000" font-family="sans-serif" font-size="11" lengthAdjust="spacingAndGlyphs" textLength="66" x="204" y="116.7104">Use Case 1</text><line style="stroke: #A80036; stroke-width: 1.0; stroke-dasharray: 1.0,2.0;" x1="270" x2="384.5" y1="113.4023" y2="113.4023"/><ellipse cx="99.5" cy="156.4141" fill="#84BE84" rx="3" ry="3" style="stroke: #038048; stroke-width: 1.0;"/><text fill="#000000" font-family="sans-serif" font-size="11" font-style="italic" lengthAdjust="spacingAndGlyphs" textLength="266" x="108.5" y="159.6245">void reportGpsSignalLoss(String satelliteName)</text><ellipse cx="99.5" cy="169.2188" fill="#84BE84" rx="3" ry="3" style="stroke: #038048; stroke-width: 1.0;"/><text fill="#000000" font-family="sans-serif" font-size="11" font-style="italic" lengthAdjust="spacingAndGlyphs" textLength="271" x="108.5" y="172.4292">void recheckSignalStength(String satelliteName)</text><ellipse cx="99.5" cy="182.0234" fill="#84BE84" rx="3" ry="3" style="stroke: #038048; stroke-width: 1.0;"/><text fill="#000000" font-family="sans-serif" font-size="11" font-style="italic" lengthAdjust="spacingAndGlyphs" textLength="259" x="108.5" y="185.2339">void checkSignalStength(String satelliteName)</text><line style="stroke: #A80036; stroke-width: 1.0; stroke-dasharray: 1.0,2.0;" x1="89.5" x2="204" y1="143.0117" y2="143.0117"/><text fill="#000000" font-family="sans-serif" font-size="11" lengthAdjust="spacingAndGlyphs" textLength="66" x="204" y="146.3198">Use Case 2</text><line style="stroke: #A80036; stroke-width: 1.0; stroke-dasharray: 1.0,2.0;" x1="270" x2="384.5" y1="143.0117" y2="143.0117"/><!--MD5=[319273309e4c56bac150542a32321bb2]
class DisplayGpsReceiver--><rect fill="#FEFECE" filter="url(#f1dwkasfgstmiy)" height="107.2188" id="DisplayGpsReceiver" style="stroke: #A80036; stroke-width: 1.5;" width="395" x="420.5" y="72"/><ellipse cx="553.75" cy="88" fill="#B4A7E5" rx="11" ry="11" style="stroke: #A80036; stroke-width: 1.0;"/><path d="M549.6719,83.7656 L549.6719,81.6094 L557.0625,81.6094 L557.0625,83.7656 L554.5938,83.7656 L554.5938,91.8438 L557.0625,91.8438 L557.0625,94 L549.6719,94 L549.6719,91.8438 L552.1406,91.8438 L552.1406,83.7656 L549.6719,83.7656 Z "/><text fill="#000000" font-family="sans-serif" font-size="12" font-style="italic" lengthAdjust="spacingAndGlyphs" textLength="120" x="574.25" y="92.1543">DisplayGpsReceiver</text><line style="stroke: #A80036; stroke-width: 1.5;" x1="421.5" x2="814.5" y1="104" y2="104"/><line style="stroke: #A80036; stroke-width: 1.5;" x1="421.5" x2="814.5" y1="112" y2="112"/><ellipse cx="431.5" cy="139.8047" fill="#84BE84" rx="3" ry="3" style="stroke: #038048; stroke-width: 1.0;"/><text fill="#000000" font-family="sans-serif" font-size="11" font-style="italic" lengthAdjust="spacingAndGlyphs" textLength="326" x="440.5" y="143.0151">String measureGpsSignalStrength(Satellite satelliteSignal)</text><line style="stroke: #A80036; stroke-width: 1.0; stroke-dasharray: 1.0,2.0;" x1="421.5" x2="585" y1="126.4023" y2="126.4023"/><text fill="#000000" font-family="sans-serif" font-size="11" lengthAdjust="spacingAndGlyphs" textLength="66" x="585" y="129.7104">Use Case 1</text><line style="stroke: #A80036; stroke-width: 1.0; stroke-dasharray: 1.0,2.0;" x1="651" x2="814.5" y1="126.4023" y2="126.4023"/><ellipse cx="431.5" cy="169.4141" fill="#84BE84" rx="3" ry="3" style="stroke: #038048; stroke-width: 1.0;"/><text fill="#000000" font-family="sans-serif" font-size="11" font-style="italic" lengthAdjust="spacingAndGlyphs" textLength="369" x="440.5" y="172.6245">SatelliteSignalCheckRequest measureSignal(String satelliteName)</text><line style="stroke: #A80036; stroke-width: 1.0; stroke-dasharray: 1.0,2.0;" x1="421.5" x2="585" y1="156.0117" y2="156.0117"/><text fill="#000000" font-family="sans-serif" font-size="11" lengthAdjust="spacingAndGlyphs" textLength="66" x="585" y="159.3198">Use Case 2</text><line style="stroke: #A80036; stroke-width: 1.0; stroke-dasharray: 1.0,2.0;" x1="651" x2="814.5" y1="156.0117" y2="156.0117"/><!--MD5=[31cbac78761b59e73153a97a452ed09a]
class DisplayGpsManager--><rect fill="#FEFECE" filter="url(#f1dwkasfgstmiy)" height="107.2188" id="DisplayGpsManager" style="stroke: #A80036; stroke-width: 1.5;" width="441" x="850.5" y="72"/><ellipse cx="1005.75" cy="88" fill="#B4A7E5" rx="11" ry="11" style="stroke: #A80036; stroke-width: 1.0;"/><path d="M1001.6719,83.7656 L1001.6719,81.6094 L1009.0625,81.6094 L1009.0625,83.7656 L1006.5938,83.7656 L1006.5938,91.8438 L1009.0625,91.8438 L1009.0625,94 L1001.6719,94 L1001.6719,91.8438 L1004.1406,91.8438 L1004.1406,83.7656 L1001.6719,83.7656 Z "/><text fill="#000000" font-family="sans-serif" font-size="12" font-style="italic" lengthAdjust="spacingAndGlyphs" textLength="122" x="1026.25" y="92.1543">DisplayGpsManager</text><line style="stroke: #A80036; stroke-width: 1.5;" x1="851.5" x2="1290.5" y1="104" y2="104"/><line style="stroke: #A80036; stroke-width: 1.5;" x1="851.5" x2="1290.5" y1="112" y2="112"/><ellipse cx="861.5" cy="139.8047" fill="#84BE84" rx="3" ry="3" style="stroke: #038048; stroke-width: 1.0;"/><text fill="#000000" font-family="sans-serif" font-size="11" font-style="italic" lengthAdjust="spacingAndGlyphs" textLength="318" x="870.5" y="143.0151">String receiveGpsSignalStrength(Satellite satelliteSignal)</text><line style="stroke: #A80036; stroke-width: 1.0; stroke-dasharray: 1.0,2.0;" x1="851.5" x2="1038" y1="126.4023" y2="126.4023"/><text fill="#000000" font-family="sans-serif" font-size="11" lengthAdjust="spacingAndGlyphs" textLength="66" x="1038" y="129.7104">Use Case 1</text><line style="stroke: #A80036; stroke-width: 1.0; stroke-dasharray: 1.0,2.0;" x1="1104" x2="1290.5" y1="126.4023" y2="126.4023"/><ellipse cx="861.5" cy="169.4141" fill="#84BE84" rx="3" ry="3" style="stroke: #038048; stroke-width: 1.0;"/><text fill="#000000" font-family="sans-serif" font-size="11" font-style="italic" lengthAdjust="spacingAndGlyphs" textLength="415" x="870.5" y="172.6245">SatelliteSignalCheckRequest passGpsSignalStrength(String satelliteName)</text><line style="stroke: #A80036; stroke-width: 1.0; stroke-dasharray: 1.0,2.0;" x1="851.5" x2="1038" y1="156.0117" y2="156.0117"/><text fill="#000000" font-family="sans-serif" font-size="11" lengthAdjust="spacingAndGlyphs" textLength="66" x="1038" y="159.3198">Use Case 2</text><line style="stroke: #A80036; stroke-width: 1.0; stroke-dasharray: 1.0,2.0;" x1="1104" x2="1290.5" y1="156.0117" y2="156.0117"/><!--MD5=[6376794c08ca75f6fa530286e1e32b13]
class DisplayGpsInterfaceImplementation--><rect fill="#FEFECE" filter="url(#f1dwkasfgstmiy)" height="171.2422" id="DisplayGpsInterfaceImplementation" style="stroke: #A80036; stroke-width: 1.5;" width="398" x="38" y="252"/><ellipse cx="122.25" cy="268" fill="#ADD1B2" rx="11" ry="11" style="stroke: #A80036; stroke-width: 1.0;"/><path d="M125.2188,273.6406 Q124.6406,273.9375 124,274.0781 Q123.3594,274.2344 122.6563,274.2344 Q120.1563,274.2344 118.8281,272.5938 Q117.5156,270.9375 117.5156,267.8125 Q117.5156,264.6875 118.8281,263.0313 Q120.1563,261.375 122.6563,261.375 Q123.3594,261.375 124,261.5313 Q124.6563,261.6875 125.2188,261.9844 L125.2188,264.7031 Q124.5938,264.125 124,263.8594 Q123.4063,263.5781 122.7813,263.5781 Q121.4375,263.5781 120.75,264.6563 Q120.0625,265.7188 120.0625,267.8125 Q120.0625,269.9063 120.75,270.9844 Q121.4375,272.0469 122.7813,272.0469 Q123.4063,272.0469 124,271.7813 Q124.5938,271.5 125.2188,270.9219 L125.2188,273.6406 Z "/><text fill="#000000" font-family="sans-serif" font-size="12" lengthAdjust="spacingAndGlyphs" textLength="221" x="142.75" y="272.1543">DisplayGpsInterfaceImplementation</text><line style="stroke: #A80036; stroke-width: 1.5;" x1="39" x2="435" y1="284" y2="284"/><rect fill="none" height="6" style="stroke: #C82930; stroke-width: 1.0;" width="6" x="46" y="292"/><text fill="#000000" font-family="sans-serif" font-size="11" lengthAdjust="spacingAndGlyphs" textLength="162" x="58" y="298.2104">DisplayGpsReciever reciever</text><line style="stroke: #A80036; stroke-width: 1.5;" x1="39" x2="435" y1="304.8047" y2="304.8047"/><ellipse cx="49" cy="315.8047" fill="#84BE84" rx="3" ry="3" style="stroke: #038048; stroke-width: 1.0;"/><text fill="#000000" font-family="sans-serif" font-size="11" lengthAdjust="spacingAndGlyphs" textLength="372" x="58" y="319.0151">DisplayGpsInterfaceImplementation(DisplayGpsReciever reciever)</text><ellipse cx="49" cy="345.4141" fill="#84BE84" rx="3" ry="3" style="stroke: #038048; stroke-width: 1.0;"/><text fill="#000000" font-family="sans-serif" font-size="11" lengthAdjust="spacingAndGlyphs" textLength="264" x="58" y="348.6245">void receiveGpsSignal(Satellite satelliteSignal)</text><line style="stroke: #A80036; stroke-width: 1.0; stroke-dasharray: 1.0,2.0;" x1="39" x2="204" y1="332.0117" y2="332.0117"/><text fill="#000000" font-family="sans-serif" font-size="11" lengthAdjust="spacingAndGlyphs" textLength="66" x="204" y="335.3198">Use Case 1</text><line style="stroke: #A80036; stroke-width: 1.0; stroke-dasharray: 1.0,2.0;" x1="270" x2="435" y1="332.0117" y2="332.0117"/><ellipse cx="49" cy="375.0234" fill="#84BE84" rx="3" ry="3" style="stroke: #038048; stroke-width: 1.0;"/><text fill="#000000" font-family="sans-serif" font-size="11" lengthAdjust="spacingAndGlyphs" textLength="271" x="58" y="378.2339">void reportGpsSignalLoss(String satelliteName)</text><ellipse cx="49" cy="387.8281" fill="#84BE84" rx="3" ry="3" style="stroke: #038048; stroke-width: 1.0;"/><text fill="#000000" font-family="sans-serif" font-size="11" lengthAdjust="spacingAndGlyphs" textLength="274" x="58" y="391.0386">void recheckSignalStength(String satelliteName)</text><ellipse cx="49" cy="400.6328" fill="#84BE84" rx="3" ry="3" style="stroke: #038048; stroke-width: 1.0;"/><text fill="#000000" font-family="sans-serif" font-size="11" lengthAdjust="spacingAndGlyphs" textLength="262" x="58" y="403.8433">void checkSignalStength(String satelliteName)</text><rect fill="#F24D5C" height="6" style="stroke: #C82930; stroke-width: 1.0;" width="6" x="46" y="410.4375"/><text fill="#000000" font-family="sans-serif" font-size="11" lengthAdjust="spacingAndGlyphs" textLength="261" x="58" y="416.6479">int reportSignalStrength(String satelliteName)</text><line style="stroke: #A80036; stroke-width: 1.0; stroke-dasharray: 1.0,2.0;" x1="39" x2="204" y1="361.6211" y2="361.6211"/><text fill="#000000" font-family="sans-serif" font-size="11" lengthAdjust="spacingAndGlyphs" textLength="66" x="204" y="364.9292">Use Case 2</text><line style="stroke: #A80036; stroke-width: 1.0; stroke-dasharray: 1.0,2.0;" x1="270" x2="435" y1="361.6211" y2="361.6211"/><!--MD5=[02b25ee3f711f666678619f4b81f3681]
class DisplayGpsReceiverImplementation--><rect fill="#FEFECE" filter="url(#f1dwkasfgstmiy)" height="158.4375" id="DisplayGpsReceiverImplementation" style="stroke: #A80036; stroke-width: 1.5;" width="402" x="471" y="258.5"/><ellipse cx="558.75" cy="274.5" fill="#ADD1B2" rx="11" ry="11" style="stroke: #A80036; stroke-width: 1.0;"/><path d="M561.7188,280.1406 Q561.1406,280.4375 560.5,280.5781 Q559.8594,280.7344 559.1563,280.7344 Q556.6563,280.7344 555.3281,279.0938 Q554.0156,277.4375 554.0156,274.3125 Q554.0156,271.1875 555.3281,269.5313 Q556.6563,267.875 559.1563,267.875 Q559.8594,267.875 560.5,268.0313 Q561.1563,268.1875 561.7188,268.4844 L561.7188,271.2031 Q561.0938,270.625 560.5,270.3594 Q559.9063,270.0781 559.2813,270.0781 Q557.9375,270.0781 557.25,271.1563 Q556.5625,272.2188 556.5625,274.3125 Q556.5625,276.4063 557.25,277.4844 Q557.9375,278.5469 559.2813,278.5469 Q559.9063,278.5469 560.5,278.2813 Q561.0938,278 561.7188,277.4219 L561.7188,280.1406 Z "/><text fill="#000000" font-family="sans-serif" font-size="12" lengthAdjust="spacingAndGlyphs" textLength="218" x="579.25" y="278.6543">DisplayGpsReceiverImplementation</text><line style="stroke: #A80036; stroke-width: 1.5;" x1="472" x2="872" y1="290.5" y2="290.5"/><rect fill="none" height="6" style="stroke: #C82930; stroke-width: 1.0;" width="6" x="479" y="298.5"/><text fill="#000000" font-family="sans-serif" font-size="11" lengthAdjust="spacingAndGlyphs" textLength="168" x="491" y="304.7104">DisplayGpsManager manager</text><line style="stroke: #A80036; stroke-width: 1.5;" x1="472" x2="872" y1="311.3047" y2="311.3047"/><ellipse cx="482" cy="322.3047" fill="#84BE84" rx="3" ry="3" style="stroke: #038048; stroke-width: 1.0;"/><text fill="#000000" font-family="sans-serif" font-size="11" lengthAdjust="spacingAndGlyphs" textLength="376" x="491" y="325.5151">DisplayGpsReceiverImplementation(DisplayGpsManager manager)</text><ellipse cx="482" cy="351.9141" fill="#84BE84" rx="3" ry="3" style="stroke: #038048; stroke-width: 1.0;"/><text fill="#000000" font-family="sans-serif" font-size="11" lengthAdjust="spacingAndGlyphs" textLength="334" x="491" y="355.1245">String measureGpsSignalStrength(Satellite satelliteSignal)</text><rect fill="#F24D5C" height="6" style="stroke: #C82930; stroke-width: 1.0;" width="6" x="479" y="361.7188"/><text fill="#000000" font-family="sans-serif" font-size="11" lengthAdjust="spacingAndGlyphs" textLength="248" x="491" y="367.9292">void passSignalStrength(int signalStrength)</text><line style="stroke: #A80036; stroke-width: 1.0; stroke-dasharray: 1.0,2.0;" x1="472" x2="639" y1="338.5117" y2="338.5117"/><text fill="#000000" font-family="sans-serif" font-size="11" lengthAdjust="spacingAndGlyphs" textLength="66" x="639" y="341.8198">Use Case 1</text><line style="stroke: #A80036; stroke-width: 1.0; stroke-dasharray: 1.0,2.0;" x1="705" x2="872" y1="338.5117" y2="338.5117"/><ellipse cx="482" cy="394.3281" fill="#84BE84" rx="3" ry="3" style="stroke: #038048; stroke-width: 1.0;"/><text fill="#000000" font-family="sans-serif" font-size="11" lengthAdjust="spacingAndGlyphs" textLength="334" x="491" y="397.5386">String measureGpsSignalStrength(Satellite satelliteSignal)</text><ellipse cx="482" cy="407.1328" fill="#84BE84" rx="3" ry="3" style="stroke: #038048; stroke-width: 1.0;"/><text fill="#000000" font-family="sans-serif" font-size="11" lengthAdjust="spacingAndGlyphs" textLength="375" x="491" y="410.3433">SatelliteSignalCheckRequest measureSignal(String satelliteName)</text><line style="stroke: #A80036; stroke-width: 1.0; stroke-dasharray: 1.0,2.0;" x1="472" x2="639" y1="380.9258" y2="380.9258"/><text fill="#000000" font-family="sans-serif" font-size="11" lengthAdjust="spacingAndGlyphs" textLength="66" x="639" y="384.2339">Use Case 2</text><line style="stroke: #A80036; stroke-width: 1.0; stroke-dasharray: 1.0,2.0;" x1="705" x2="872" y1="380.9258" y2="380.9258"/><!--MD5=[85db0a5b69c4b55d7b0101612d8a7890]
class DisplayGpsManagerImplementation--><rect fill="#FEFECE" filter="url(#f1dwkasfgstmiy)" height="171.2422" id="DisplayGpsManagerImplementation" style="stroke: #A80036; stroke-width: 1.5;" width="457" x="908.5" y="252"/><ellipse cx="1022.75" cy="268" fill="#ADD1B2" rx="11" ry="11" style="stroke: #A80036; stroke-width: 1.0;"/><path d="M1025.7188,273.6406 Q1025.1406,273.9375 1024.5,274.0781 Q1023.8594,274.2344 1023.1563,274.2344 Q1020.6563,274.2344 1019.3281,272.5938 Q1018.0156,270.9375 1018.0156,267.8125 Q1018.0156,264.6875 1019.3281,263.0313 Q1020.6563,261.375 1023.1563,261.375 Q1023.8594,261.375 1024.5,261.5313 Q1025.1563,261.6875 1025.7188,261.9844 L1025.7188,264.7031 Q1025.0938,264.125 1024.5,263.8594 Q1023.9063,263.5781 1023.2813,263.5781 Q1021.9375,263.5781 1021.25,264.6563 Q1020.5625,265.7188 1020.5625,267.8125 Q1020.5625,269.9063 1021.25,270.9844 Q1021.9375,272.0469 1023.2813,272.0469 Q1023.9063,272.0469 1024.5,271.7813 Q1025.0938,271.5 1025.7188,270.9219 L1025.7188,273.6406 Z "/><text fill="#000000" font-family="sans-serif" font-size="12" lengthAdjust="spacingAndGlyphs" textLength="220" x="1043.25" y="272.1543">DisplayGpsManagerImplementation</text><line style="stroke: #A80036; stroke-width: 1.5;" x1="909.5" x2="1364.5" y1="284" y2="284"/><rect fill="none" height="6" style="stroke: #C82930; stroke-width: 1.0;" width="6" x="916.5" y="292"/><text fill="#000000" font-family="sans-serif" font-size="11" lengthAdjust="spacingAndGlyphs" textLength="222" x="928.5" y="298.2104">MiddlewareGisInterface middlewareGis</text><line style="stroke: #A80036; stroke-width: 1.5;" x1="909.5" x2="1364.5" y1="304.8047" y2="304.8047"/><ellipse cx="919.5" cy="315.8047" fill="#84BE84" rx="3" ry="3" style="stroke: #038048; stroke-width: 1.0;"/><text fill="#000000" font-family="sans-serif" font-size="11" lengthAdjust="spacingAndGlyphs" textLength="431" x="928.5" y="319.0151">DisplayGpsManagerImplementation(MiddlewareGisInterface middlewareGis)</text><ellipse cx="919.5" cy="345.4141" fill="#84BE84" rx="3" ry="3" style="stroke: #038048; stroke-width: 1.0;"/><text fill="#000000" font-family="sans-serif" font-size="11" lengthAdjust="spacingAndGlyphs" textLength="324" x="928.5" y="348.6245">String receiveGpsSignalStrength(Satellite satelliteSignal)</text><ellipse cx="919.5" cy="358.2188" fill="#84BE84" rx="3" ry="3" style="stroke: #038048; stroke-width: 1.0;"/><text fill="#000000" font-family="sans-serif" font-size="11" lengthAdjust="spacingAndGlyphs" textLength="316" x="928.5" y="361.4292">boolean EvaluateGpsSignalStrengths(int signalStrengh)</text><ellipse cx="919.5" cy="371.0234" fill="#84BE84" rx="3" ry="3" style="stroke: #038048; stroke-width: 1.0;"/><text fill="#000000" font-family="sans-serif" font-size="11" lengthAdjust="spacingAndGlyphs" textLength="271" x="928.5" y="374.2339">void passGpsSignalStrength(int signalStrength)</text><line style="stroke: #A80036; stroke-width: 1.0; stroke-dasharray: 1.0,2.0;" x1="909.5" x2="1104" y1="332.0117" y2="332.0117"/><text fill="#000000" font-family="sans-serif" font-size="11" lengthAdjust="spacingAndGlyphs" textLength="66" x="1104" y="335.3198">Use Case 1</text><line style="stroke: #A80036; stroke-width: 1.0; stroke-dasharray: 1.0,2.0;" x1="1170" x2="1364.5" y1="332.0117" y2="332.0117"/><ellipse cx="919.5" cy="400.6328" fill="#84BE84" rx="3" ry="3" style="stroke: #038048; stroke-width: 1.0;"/><text fill="#000000" font-family="sans-serif" font-size="11" lengthAdjust="spacingAndGlyphs" textLength="278" x="928.5" y="403.8433">String receiveGpsSignalStrength(Satellite signal)</text><ellipse cx="919.5" cy="413.4375" fill="#84BE84" rx="3" ry="3" style="stroke: #038048; stroke-width: 1.0;"/><text fill="#000000" font-family="sans-serif" font-size="11" lengthAdjust="spacingAndGlyphs" textLength="424" x="928.5" y="416.6479">SatelliteSignalCheckRequest passGpsSignalStrength(String satelliteName)</text><line style="stroke: #A80036; stroke-width: 1.0; stroke-dasharray: 1.0,2.0;" x1="909.5" x2="1104" y1="387.2305" y2="387.2305"/><text fill="#000000" font-family="sans-serif" font-size="11" lengthAdjust="spacingAndGlyphs" textLength="66" x="1104" y="390.5386">Use Case 2</text><line style="stroke: #A80036; stroke-width: 1.0; stroke-dasharray: 1.0,2.0;" x1="1170" x2="1364.5" y1="387.2305" y2="387.2305"/><!--MD5=[f1009660389b69d8f1dd83b0564feed6]
link DisplayGpsInterface to DisplayGpsReceiver--><!--MD5=[8fefac4f596013478990c66256fd14b0]
link DisplayGpsReceiver to DisplayGpsManager--><!--MD5=[ee24dc14e505e67481c4b4ac6c5a51a1]
link DisplayGpsInterface to DisplayGpsInterfaceImplementation--><!--MD5=[7c0fe609e5df7a41ca62865333c5d149]
link DisplayGpsInterfaceImplementation to DisplayGpsReceiverImplementation--><!--MD5=[ef9a99f365d30152cb0c651116fa1b3a]
link DisplayGpsReceiverImplementation to DisplayGpsManagerImplementation--><!--MD5=[6036d10780812f06d7e92eb459df6b06]
@startuml Display01ProductionPackage

package edu.oakland.production.display01 {

}


package edu.oakland.production.display01 {
    interface DisplayGpsInterface {
        __
        .. Use Case 1 ..
        {abstract} + void receiveGpsSignal(Satellite satelliteSignal)
        .. Use Case 2 ..
        {abstract} + void reportGpsSignalLoss(String satelliteName)
        {abstract} + void recheckSignalStength(String satelliteName)
        {abstract} + void checkSignalStength(String satelliteName)
    }
}


package edu.oakland.production.display01 {
    interface DisplayGpsReceiver {
        __
        .. Use Case 1 ..
        {abstract} + String measureGpsSignalStrength(Satellite satelliteSignal)
        .. Use Case 2 ..
        {abstract} + SatelliteSignalCheckRequest measureSignal(String satelliteName)
    }
}


package edu.oakland.production.display01 {
    interface DisplayGpsManager {
        __
        .. Use Case 1 ..
        {abstract} + String receiveGpsSignalStrength(Satellite satelliteSignal)
        .. Use Case 2 ..
        {abstract} + SatelliteSignalCheckRequest passGpsSignalStrength(String satelliteName)
    }
}



package edu.oakland.production.display01 {
    class DisplayGpsInterfaceImplementation {
        - DisplayGpsReciever reciever
        __
        + DisplayGpsInterfaceImplementation(DisplayGpsReciever reciever)
        .. Use Case 1 ..
        + void receiveGpsSignal(Satellite satelliteSignal)
        .. Use Case 2 ..
        + void reportGpsSignalLoss(String satelliteName)
        + void recheckSignalStength(String satelliteName)
        + void checkSignalStength(String satelliteName)
        - int reportSignalStrength(String satelliteName)
    }
}


package edu.oakland.production.display01 {
    class DisplayGpsReceiverImplementation {
        - DisplayGpsManager manager
        __
        + DisplayGpsReceiverImplementation(DisplayGpsManager manager)
        .. Use Case 1 ..
        + String measureGpsSignalStrength(Satellite satelliteSignal)
        - void passSignalStrength(int signalStrength)
        .. Use Case 2 ..
        + String measureGpsSignalStrength(Satellite satelliteSignal)
        + SatelliteSignalCheckRequest measureSignal(String satelliteName)
    }
}


package edu.oakland.production.display01 {
  class DisplayGpsManagerImplementation {
    - MiddlewareGisInterface middlewareGis
   __
    + DisplayGpsManagerImplementation(MiddlewareGisInterface middlewareGis)
    .. Use Case 1 ..
    + String receiveGpsSignalStrength(Satellite satelliteSignal)
    + boolean EvaluateGpsSignalStrengths(int signalStrengh)
    + void passGpsSignalStrength(int signalStrength)
    .. Use Case 2 ..
    + String receiveGpsSignalStrength(Satellite signal)
    + SatelliteSignalCheckRequest passGpsSignalStrength(String satelliteName)
    }
}


@enduml

PlantUML version 1.2020.02(Sun Mar 01 10:22:07 GMT 2020)
(GPL source distribution)
Java Runtime: OpenJDK Runtime Environment
JVM: OpenJDK 64-Bit Server VM
Java Version: 11.0.9+11-Ubuntu-0ubuntu1
Operating System: Linux
Default Encoding: ANSI_X3.4-1968
Language: en
Country: US
--></g></svg>