<?xml version="1.0" encoding="UTF-8" standalone="no"?><svg xmlns="http://www.w3.org/2000/svg" xmlns:xlink="http://www.w3.org/1999/xlink" contentScriptType="application/ecmascript" contentStyleType="text/css" height="400px" preserveAspectRatio="none" style="width:1793px;height:400px;" version="1.1" viewBox="0 0 1793 400" width="1793px" zoomAndPan="magnify"><defs><filter height="300%" id="f1lt82ridw87ae" width="300%" x="-1" y="-1"><feGaussianBlur result="blurOut" stdDeviation="2.0"/><feColorMatrix in="blurOut" result="blurOut2" type="matrix" values="0 0 0 0 0 0 0 0 0 0 0 0 0 0 0 0 0 0 .4 0"/><feOffset dx="4.0" dy="4.0" in="blurOut2" result="blurOut3"/><feBlend in="SourceGraphic" in2="blurOut3" mode="normal"/></filter></defs><g><!--MD5=[ba602463a52c9ed4bf670ea327ccdb8b]
cluster edu.oakland.production.database01--><polygon fill="#FFFFFF" filter="url(#f1lt82ridw87ae)" points="578.5,24,868.5,24,875.5,46.2969,1771.5,46.2969,1771.5,388,578.5,388,578.5,24" style="stroke: #000000; stroke-width: 1.5;"/><line style="stroke: #000000; stroke-width: 1.5;" x1="578.5" x2="875.5" y1="46.2969" y2="46.2969"/><text fill="#000000" font-family="sans-serif" font-size="14" font-weight="bold" lengthAdjust="spacingAndGlyphs" textLength="284" x="582.5" y="38.9951">edu.oakland.production.database01</text><!--MD5=[3bff7e01a405ec7c4802abd699e27172]
class DatabaseGisInterface--><rect fill="#FEFECE" filter="url(#f1lt82ridw87ae)" height="120.0234" id="DatabaseGisInterface" style="stroke: #A80036; stroke-width: 1.5;" width="383" x="594" y="59"/><ellipse cx="713.75" cy="75" fill="#B4A7E5" rx="11" ry="11" style="stroke: #A80036; stroke-width: 1.0;"/><path d="M709.6719,70.7656 L709.6719,68.6094 L717.0625,68.6094 L717.0625,70.7656 L714.5938,70.7656 L714.5938,78.8438 L717.0625,78.8438 L717.0625,81 L709.6719,81 L709.6719,78.8438 L712.1406,78.8438 L712.1406,70.7656 L709.6719,70.7656 Z "/><text fill="#000000" font-family="sans-serif" font-size="12" font-style="italic" lengthAdjust="spacingAndGlyphs" textLength="135" x="734.25" y="79.1543">DatabaseGisInterface</text><line style="stroke: #A80036; stroke-width: 1.5;" x1="595" x2="976" y1="91" y2="91"/><line style="stroke: #A80036; stroke-width: 1.5;" x1="595" x2="976" y1="99" y2="99"/><ellipse cx="605" cy="126.8047" fill="#84BE84" rx="3" ry="3" style="stroke: #038048; stroke-width: 1.0;"/><text fill="#000000" font-family="sans-serif" font-size="11" font-style="italic" lengthAdjust="spacingAndGlyphs" textLength="357" x="614" y="130.0151">void recieveStoreRequest(LocationDataPoint locationDataPoint)</text><line style="stroke: #A80036; stroke-width: 1.0; stroke-dasharray: 1.0,2.0;" x1="595" x2="752.5" y1="113.4023" y2="113.4023"/><text fill="#000000" font-family="sans-serif" font-size="11" lengthAdjust="spacingAndGlyphs" textLength="66" x="752.5" y="116.7104">Use Case 1</text><line style="stroke: #A80036; stroke-width: 1.0; stroke-dasharray: 1.0,2.0;" x1="818.5" x2="976" y1="113.4023" y2="113.4023"/><ellipse cx="605" cy="156.4141" fill="#84BE84" rx="3" ry="3" style="stroke: #038048; stroke-width: 1.0;"/><text fill="#000000" font-family="sans-serif" font-size="11" font-style="italic" lengthAdjust="spacingAndGlyphs" textLength="232" x="614" y="159.6245">String recieveModeRequest(String mode)</text><ellipse cx="605" cy="169.2188" fill="#84BE84" rx="3" ry="3" style="stroke: #038048; stroke-width: 1.0;"/><text fill="#000000" font-family="sans-serif" font-size="11" font-style="italic" lengthAdjust="spacingAndGlyphs" textLength="273" x="614" y="172.4292">String recieveNextSatRequest(String currentSat)</text><line style="stroke: #A80036; stroke-width: 1.0; stroke-dasharray: 1.0,2.0;" x1="595" x2="752.5" y1="143.0117" y2="143.0117"/><text fill="#000000" font-family="sans-serif" font-size="11" lengthAdjust="spacingAndGlyphs" textLength="66" x="752.5" y="146.3198">Use Case 2</text><line style="stroke: #A80036; stroke-width: 1.0; stroke-dasharray: 1.0,2.0;" x1="818.5" x2="976" y1="143.0117" y2="143.0117"/><!--MD5=[a9fcaa89db220a1b0201406d1ae34ee7]
class DatabaseGisManager--><rect fill="#FEFECE" filter="url(#f1lt82ridw87ae)" height="120.0234" id="DatabaseGisManager" style="stroke: #A80036; stroke-width: 1.5;" width="367" x="1012" y="59"/><ellipse cx="1124.75" cy="75" fill="#B4A7E5" rx="11" ry="11" style="stroke: #A80036; stroke-width: 1.0;"/><path d="M1120.6719,70.7656 L1120.6719,68.6094 L1128.0625,68.6094 L1128.0625,70.7656 L1125.5938,70.7656 L1125.5938,78.8438 L1128.0625,78.8438 L1128.0625,81 L1120.6719,81 L1120.6719,78.8438 L1123.1406,78.8438 L1123.1406,70.7656 L1120.6719,70.7656 Z "/><text fill="#000000" font-family="sans-serif" font-size="12" font-style="italic" lengthAdjust="spacingAndGlyphs" textLength="133" x="1145.25" y="79.1543">DatabaseGisManager</text><line style="stroke: #A80036; stroke-width: 1.5;" x1="1013" x2="1378" y1="91" y2="91"/><line style="stroke: #A80036; stroke-width: 1.5;" x1="1013" x2="1378" y1="99" y2="99"/><ellipse cx="1023" cy="126.8047" fill="#84BE84" rx="3" ry="3" style="stroke: #038048; stroke-width: 1.0;"/><text fill="#000000" font-family="sans-serif" font-size="11" font-style="italic" lengthAdjust="spacingAndGlyphs" textLength="341" x="1032" y="130.0151">void passStoreRequest(LocationDataPoint locationDataPoint)</text><line style="stroke: #A80036; stroke-width: 1.0; stroke-dasharray: 1.0,2.0;" x1="1013" x2="1162.5" y1="113.4023" y2="113.4023"/><text fill="#000000" font-family="sans-serif" font-size="11" lengthAdjust="spacingAndGlyphs" textLength="66" x="1162.5" y="116.7104">Use Case 1</text><line style="stroke: #A80036; stroke-width: 1.0; stroke-dasharray: 1.0,2.0;" x1="1228.5" x2="1378" y1="113.4023" y2="113.4023"/><ellipse cx="1023" cy="156.4141" fill="#84BE84" rx="3" ry="3" style="stroke: #038048; stroke-width: 1.0;"/><text fill="#000000" font-family="sans-serif" font-size="11" font-style="italic" lengthAdjust="spacingAndGlyphs" textLength="207" x="1032" y="159.6245">void passModeRequest(String mode)</text><ellipse cx="1023" cy="169.2188" fill="#84BE84" rx="3" ry="3" style="stroke: #038048; stroke-width: 1.0;"/><text fill="#000000" font-family="sans-serif" font-size="11" font-style="italic" lengthAdjust="spacingAndGlyphs" textLength="257" x="1032" y="172.4292">String passNextSatRequest(String currentSat)</text><line style="stroke: #A80036; stroke-width: 1.0; stroke-dasharray: 1.0,2.0;" x1="1013" x2="1162.5" y1="143.0117" y2="143.0117"/><text fill="#000000" font-family="sans-serif" font-size="11" lengthAdjust="spacingAndGlyphs" textLength="66" x="1162.5" y="146.3198">Use Case 2</text><line style="stroke: #A80036; stroke-width: 1.0; stroke-dasharray: 1.0,2.0;" x1="1228.5" x2="1378" y1="143.0117" y2="143.0117"/><!--MD5=[682ad4bb5de8181c75770070b57ba99f]
class DatabaseGisPersistentStorage--><rect fill="#FEFECE" filter="url(#f1lt82ridw87ae)" height="120.0234" id="DatabaseGisPersistentStorage" style="stroke: #A80036; stroke-width: 1.5;" width="341" x="1414" y="59"/><ellipse cx="1485.75" cy="75" fill="#B4A7E5" rx="11" ry="11" style="stroke: #A80036; stroke-width: 1.0;"/><path d="M1481.6719,70.7656 L1481.6719,68.6094 L1489.0625,68.6094 L1489.0625,70.7656 L1486.5938,70.7656 L1486.5938,78.8438 L1489.0625,78.8438 L1489.0625,81 L1481.6719,81 L1481.6719,78.8438 L1484.1406,78.8438 L1484.1406,70.7656 L1481.6719,70.7656 Z "/><text fill="#000000" font-family="sans-serif" font-size="12" font-style="italic" lengthAdjust="spacingAndGlyphs" textLength="189" x="1506.25" y="79.1543">DatabaseGisPersistentStorage</text><line style="stroke: #A80036; stroke-width: 1.5;" x1="1415" x2="1754" y1="91" y2="91"/><line style="stroke: #A80036; stroke-width: 1.5;" x1="1415" x2="1754" y1="99" y2="99"/><ellipse cx="1425" cy="126.8047" fill="#84BE84" rx="3" ry="3" style="stroke: #038048; stroke-width: 1.0;"/><text fill="#000000" font-family="sans-serif" font-size="11" font-style="italic" lengthAdjust="spacingAndGlyphs" textLength="315" x="1434" y="130.0151">void storeLocation(LocationDataPoint locationDataPoint)</text><line style="stroke: #A80036; stroke-width: 1.0; stroke-dasharray: 1.0,2.0;" x1="1415" x2="1551.5" y1="113.4023" y2="113.4023"/><text fill="#000000" font-family="sans-serif" font-size="11" lengthAdjust="spacingAndGlyphs" textLength="66" x="1551.5" y="116.7104">Use Case 1</text><line style="stroke: #A80036; stroke-width: 1.0; stroke-dasharray: 1.0,2.0;" x1="1617.5" x2="1754" y1="113.4023" y2="113.4023"/><ellipse cx="1425" cy="156.4141" fill="#84BE84" rx="3" ry="3" style="stroke: #038048; stroke-width: 1.0;"/><text fill="#000000" font-family="sans-serif" font-size="11" font-style="italic" lengthAdjust="spacingAndGlyphs" textLength="164" x="1434" y="159.6245">void storeMode(String mode)</text><ellipse cx="1425" cy="169.2188" fill="#84BE84" rx="3" ry="3" style="stroke: #038048; stroke-width: 1.0;"/><text fill="#000000" font-family="sans-serif" font-size="11" font-style="italic" lengthAdjust="spacingAndGlyphs" textLength="203" x="1434" y="172.4292">String getNextSat(String currentSat)</text><line style="stroke: #A80036; stroke-width: 1.0; stroke-dasharray: 1.0,2.0;" x1="1415" x2="1551.5" y1="143.0117" y2="143.0117"/><text fill="#000000" font-family="sans-serif" font-size="11" lengthAdjust="spacingAndGlyphs" textLength="66" x="1551.5" y="146.3198">Use Case 2</text><line style="stroke: #A80036; stroke-width: 1.0; stroke-dasharray: 1.0,2.0;" x1="1617.5" x2="1754" y1="143.0117" y2="143.0117"/><!--MD5=[08068c224d75f5ca94e2833221bd6445]
class DatabaseGisInterfaceImplementation--><rect fill="#FEFECE" filter="url(#f1lt82ridw87ae)" height="132.8281" id="DatabaseGisInterfaceImplementation" style="stroke: #A80036; stroke-width: 1.5;" width="382" x="594.5" y="239"/><ellipse cx="664.75" cy="255" fill="#ADD1B2" rx="11" ry="11" style="stroke: #A80036; stroke-width: 1.0;"/><path d="M667.7188,260.6406 Q667.1406,260.9375 666.5,261.0781 Q665.8594,261.2344 665.1563,261.2344 Q662.6563,261.2344 661.3281,259.5938 Q660.0156,257.9375 660.0156,254.8125 Q660.0156,251.6875 661.3281,250.0313 Q662.6563,248.375 665.1563,248.375 Q665.8594,248.375 666.5,248.5313 Q667.1563,248.6875 667.7188,248.9844 L667.7188,251.7031 Q667.0938,251.125 666.5,250.8594 Q665.9063,250.5781 665.2813,250.5781 Q663.9375,250.5781 663.25,251.6563 Q662.5625,252.7188 662.5625,254.8125 Q662.5625,256.9063 663.25,257.9844 Q663.9375,259.0469 665.2813,259.0469 Q665.9063,259.0469 666.5,258.7813 Q667.0938,258.5 667.7188,257.9219 L667.7188,260.6406 Z "/><text fill="#000000" font-family="sans-serif" font-size="12" lengthAdjust="spacingAndGlyphs" textLength="233" x="685.25" y="259.1543">DatabaseGisInterfaceImplementation</text><line style="stroke: #A80036; stroke-width: 1.5;" x1="595.5" x2="975.5" y1="271" y2="271"/><line style="stroke: #A80036; stroke-width: 1.5;" x1="595.5" x2="975.5" y1="279" y2="279"/><ellipse cx="605.5" cy="306.8047" fill="#84BE84" rx="3" ry="3" style="stroke: #038048; stroke-width: 1.0;"/><text fill="#000000" font-family="sans-serif" font-size="11" lengthAdjust="spacingAndGlyphs" textLength="356" x="614.5" y="310.0151">void recieveStoreRequest(LocationDataPoint locationDataPoint)</text><line style="stroke: #A80036; stroke-width: 1.0; stroke-dasharray: 1.0,2.0;" x1="595.5" x2="752.5" y1="293.4023" y2="293.4023"/><text fill="#000000" font-family="sans-serif" font-size="11" lengthAdjust="spacingAndGlyphs" textLength="66" x="752.5" y="296.7104">Use Case 1</text><line style="stroke: #A80036; stroke-width: 1.0; stroke-dasharray: 1.0,2.0;" x1="818.5" x2="975.5" y1="293.4023" y2="293.4023"/><ellipse cx="605.5" cy="336.4141" fill="#84BE84" rx="3" ry="3" style="stroke: #038048; stroke-width: 1.0;"/><text fill="#000000" font-family="sans-serif" font-size="11" lengthAdjust="spacingAndGlyphs" textLength="222" x="614.5" y="339.6245">void recieveModeRequest(String mode)</text><ellipse cx="605.5" cy="349.2188" fill="#84BE84" rx="3" ry="3" style="stroke: #038048; stroke-width: 1.0;"/><text fill="#000000" font-family="sans-serif" font-size="11" lengthAdjust="spacingAndGlyphs" textLength="275" x="614.5" y="352.4292">String recieveNextSatRequest(String currentSat)</text><text fill="#000000" font-family="sans-serif" font-size="11" lengthAdjust="spacingAndGlyphs" textLength="0" x="618.5" y="365.2339"/><line style="stroke: #A80036; stroke-width: 1.0; stroke-dasharray: 1.0,2.0;" x1="595.5" x2="752.5" y1="323.0117" y2="323.0117"/><text fill="#000000" font-family="sans-serif" font-size="11" lengthAdjust="spacingAndGlyphs" textLength="66" x="752.5" y="326.3198">Use Case 2</text><line style="stroke: #A80036; stroke-width: 1.0; stroke-dasharray: 1.0,2.0;" x1="818.5" x2="975.5" y1="323.0117" y2="323.0117"/><!--MD5=[cb27e8f56b23a96be3f83add8518c141]
class DatabaseGisManagerImplementation--><rect fill="#FEFECE" filter="url(#f1lt82ridw87ae)" height="120.0234" id="DatabaseGisManagerImplementation" style="stroke: #A80036; stroke-width: 1.5;" width="369" x="1012" y="245.5"/><ellipse cx="1076.25" cy="261.5" fill="#ADD1B2" rx="11" ry="11" style="stroke: #A80036; stroke-width: 1.0;"/><path d="M1079.2188,267.1406 Q1078.6406,267.4375 1078,267.5781 Q1077.3594,267.7344 1076.6563,267.7344 Q1074.1563,267.7344 1072.8281,266.0938 Q1071.5156,264.4375 1071.5156,261.3125 Q1071.5156,258.1875 1072.8281,256.5313 Q1074.1563,254.875 1076.6563,254.875 Q1077.3594,254.875 1078,255.0313 Q1078.6563,255.1875 1079.2188,255.4844 L1079.2188,258.2031 Q1078.5938,257.625 1078,257.3594 Q1077.4063,257.0781 1076.7813,257.0781 Q1075.4375,257.0781 1074.75,258.1563 Q1074.0625,259.2188 1074.0625,261.3125 Q1074.0625,263.4063 1074.75,264.4844 Q1075.4375,265.5469 1076.7813,265.5469 Q1077.4063,265.5469 1078,265.2813 Q1078.5938,265 1079.2188,264.4219 L1079.2188,267.1406 Z "/><text fill="#000000" font-family="sans-serif" font-size="12" lengthAdjust="spacingAndGlyphs" textLength="232" x="1096.75" y="265.6543">DatabaseGisManagerImplementation</text><line style="stroke: #A80036; stroke-width: 1.5;" x1="1013" x2="1380" y1="277.5" y2="277.5"/><line style="stroke: #A80036; stroke-width: 1.5;" x1="1013" x2="1380" y1="285.5" y2="285.5"/><ellipse cx="1023" cy="313.3047" fill="#84BE84" rx="3" ry="3" style="stroke: #038048; stroke-width: 1.0;"/><text fill="#000000" font-family="sans-serif" font-size="11" lengthAdjust="spacingAndGlyphs" textLength="343" x="1032" y="316.5151">void passStoreRequest(LocationDataPoint locationDataPoint)</text><line style="stroke: #A80036; stroke-width: 1.0; stroke-dasharray: 1.0,2.0;" x1="1013" x2="1163.5" y1="299.9023" y2="299.9023"/><text fill="#000000" font-family="sans-serif" font-size="11" lengthAdjust="spacingAndGlyphs" textLength="66" x="1163.5" y="303.2104">Use Case 1</text><line style="stroke: #A80036; stroke-width: 1.0; stroke-dasharray: 1.0,2.0;" x1="1229.5" x2="1380" y1="299.9023" y2="299.9023"/><ellipse cx="1023" cy="342.9141" fill="#84BE84" rx="3" ry="3" style="stroke: #038048; stroke-width: 1.0;"/><text fill="#000000" font-family="sans-serif" font-size="11" lengthAdjust="spacingAndGlyphs" textLength="209" x="1032" y="346.1245">void passModeRequest(String mode)</text><ellipse cx="1023" cy="355.7188" fill="#84BE84" rx="3" ry="3" style="stroke: #038048; stroke-width: 1.0;"/><text fill="#000000" font-family="sans-serif" font-size="11" lengthAdjust="spacingAndGlyphs" textLength="262" x="1032" y="358.9292">String passNextSatRequest(String currentSat)</text><line style="stroke: #A80036; stroke-width: 1.0; stroke-dasharray: 1.0,2.0;" x1="1013" x2="1163.5" y1="329.5117" y2="329.5117"/><text fill="#000000" font-family="sans-serif" font-size="11" lengthAdjust="spacingAndGlyphs" textLength="66" x="1163.5" y="332.8198">Use Case 2</text><line style="stroke: #A80036; stroke-width: 1.0; stroke-dasharray: 1.0,2.0;" x1="1229.5" x2="1380" y1="329.5117" y2="329.5117"/><!--MD5=[d502c0abe7f4c115aa024d204bba6703]
class DatabaseGisPersistentStorageImplementation--><rect fill="#FEFECE" filter="url(#f1lt82ridw87ae)" height="107.2188" id="DatabaseGisPersistentStorageImplementation" style="stroke: #A80036; stroke-width: 1.5;" width="323" x="1423" y="252"/><ellipse cx="1438" cy="268" fill="#ADD1B2" rx="11" ry="11" style="stroke: #A80036; stroke-width: 1.0;"/><path d="M1440.9688,273.6406 Q1440.3906,273.9375 1439.75,274.0781 Q1439.1094,274.2344 1438.4063,274.2344 Q1435.9063,274.2344 1434.5781,272.5938 Q1433.2656,270.9375 1433.2656,267.8125 Q1433.2656,264.6875 1434.5781,263.0313 Q1435.9063,261.375 1438.4063,261.375 Q1439.1094,261.375 1439.75,261.5313 Q1440.4063,261.6875 1440.9688,261.9844 L1440.9688,264.7031 Q1440.3438,264.125 1439.75,263.8594 Q1439.1563,263.5781 1438.5313,263.5781 Q1437.1875,263.5781 1436.5,264.6563 Q1435.8125,265.7188 1435.8125,267.8125 Q1435.8125,269.9063 1436.5,270.9844 Q1437.1875,272.0469 1438.5313,272.0469 Q1439.1563,272.0469 1439.75,271.7813 Q1440.3438,271.5 1440.9688,270.9219 L1440.9688,273.6406 Z "/><text fill="#000000" font-family="sans-serif" font-size="12" lengthAdjust="spacingAndGlyphs" textLength="291" x="1452" y="272.1543">DatabaseGisPersistentStorageImplementation</text><line style="stroke: #A80036; stroke-width: 1.5;" x1="1424" x2="1745" y1="284" y2="284"/><line style="stroke: #A80036; stroke-width: 1.5;" x1="1424" x2="1745" y1="292" y2="292"/><text fill="#000000" font-family="sans-serif" font-size="11" lengthAdjust="spacingAndGlyphs" textLength="0" x="1433" y="323.0151"/><line style="stroke: #A80036; stroke-width: 1.0; stroke-dasharray: 1.0,2.0;" x1="1424" x2="1551.5" y1="306.4023" y2="306.4023"/><text fill="#000000" font-family="sans-serif" font-size="11" lengthAdjust="spacingAndGlyphs" textLength="66" x="1551.5" y="309.7104">Use Case 1</text><line style="stroke: #A80036; stroke-width: 1.0; stroke-dasharray: 1.0,2.0;" x1="1617.5" x2="1745" y1="306.4023" y2="306.4023"/><text fill="#000000" font-family="sans-serif" font-size="11" lengthAdjust="spacingAndGlyphs" textLength="0" x="1433" y="352.6245"/><line style="stroke: #A80036; stroke-width: 1.0; stroke-dasharray: 1.0,2.0;" x1="1424" x2="1551.5" y1="336.0117" y2="336.0117"/><text fill="#000000" font-family="sans-serif" font-size="11" lengthAdjust="spacingAndGlyphs" textLength="66" x="1551.5" y="339.3198">Use Case 2</text><line style="stroke: #A80036; stroke-width: 1.0; stroke-dasharray: 1.0,2.0;" x1="1617.5" x2="1745" y1="336.0117" y2="336.0117"/><polygon fill="#FFFFFF" filter="url(#f1lt82ridw87ae)" points="6,92.5,241,92.5,248,114.7969,255,114.7969,255,145.0938,6,145.0938,6,92.5" style="stroke: #000000; stroke-width: 1.5;"/><line style="stroke: #000000; stroke-width: 1.5;" x1="6" x2="248" y1="114.7969" y2="114.7969"/><text fill="#000000" font-family="sans-serif" font-size="14" font-weight="bold" lengthAdjust="spacingAndGlyphs" textLength="229" x="10" y="107.4951">edu.oakland.test.database01</text><polygon fill="#FFFFFF" filter="url(#f1lt82ridw87ae)" points="290,92.5,545,92.5,552,114.7969,559,114.7969,559,145.0938,290,145.0938,290,92.5" style="stroke: #000000; stroke-width: 1.5;"/><line style="stroke: #000000; stroke-width: 1.5;" x1="290" x2="552" y1="114.7969" y2="114.7969"/><text fill="#000000" font-family="sans-serif" font-size="14" font-weight="bold" lengthAdjust="spacingAndGlyphs" textLength="249" x="294" y="107.4951">edu.oakland.helper.database01</text><!--MD5=[8fafe5e46f3a559c7888846384f84dbe]
reverse link DatabaseGisInterface to DatabaseGisInterfaceImplementation--><path d="M785.5,199.42 C785.5,212.62 785.5,226.18 785.5,238.98 " fill="none" id="DatabaseGisInterface&lt;-DatabaseGisInterfaceImplementation" style="stroke: #A80036; stroke-width: 1.0; stroke-dasharray: 7.0,7.0;"/><polygon fill="none" points="778.5,199.14,785.5,179.14,792.5,199.14,778.5,199.14" style="stroke: #A80036; stroke-width: 1.0;"/><!--MD5=[4b9ab9aeff5ade3c5ddb67bcb023b127]
reverse link DatabaseGisManager to DatabaseGisManagerImplementation--><path d="M1195.93,199.36 C1196.01,214.8 1196.1,230.73 1196.18,245.38 " fill="none" id="DatabaseGisManager&lt;-DatabaseGisManagerImplementation" style="stroke: #A80036; stroke-width: 1.0; stroke-dasharray: 7.0,7.0;"/><polygon fill="none" points="1188.93,199.18,1195.82,179.14,1202.93,199.1,1188.93,199.18" style="stroke: #A80036; stroke-width: 1.0;"/><!--MD5=[e025a607e776f05335a4830ee56b7438]
reverse link DatabaseGisPersistentStorage to DatabaseGisPersistentStorageImplementation--><path d="M1584.5,199.21 C1584.5,217.03 1584.5,235.51 1584.5,251.93 " fill="none" id="DatabaseGisPersistentStorage&lt;-DatabaseGisPersistentStorageImplementation" style="stroke: #A80036; stroke-width: 1.0; stroke-dasharray: 7.0,7.0;"/><polygon fill="none" points="1577.5,199.14,1584.5,179.14,1591.5,199.14,1577.5,199.14" style="stroke: #A80036; stroke-width: 1.0;"/><!--MD5=[957d07c36cb367d4ae77ba39c9260584]
@startuml Database01Packages_InternalDependencies


package edu.oakland.production.database01 {
    
}


package edu.oakland.production.database01 {
    interface DatabaseGisInterface {
        __
        .. Use Case 1 ..
        {abstract} + void recieveStoreRequest(LocationDataPoint locationDataPoint)
        .. Use Case 2 ..
        {abstract} + String recieveModeRequest(String mode)
        {abstract} + String recieveNextSatRequest(String currentSat)
    }
}


package edu.oakland.production.database01 {
    interface DatabaseGisManager {
        __
        .. Use Case 1 ..
        {abstract} + void passStoreRequest(LocationDataPoint locationDataPoint)
        .. Use Case 2 ..
        {abstract} + void passModeRequest(String mode)
        {abstract} + String passNextSatRequest(String currentSat)
    }
}


package edu.oakland.production.database01 {
    interface DatabaseGisPersistentStorage {
        __
        .. Use Case 1 ..
        {abstract} + void storeLocation(LocationDataPoint locationDataPoint)
        .. Use Case 2 ..
        {abstract} + void storeMode(String mode)
        {abstract} + String getNextSat(String currentSat)
    }
}


package edu.oakland.production.database01 {
    class DatabaseGisInterfaceImplementation {
        __
        .. Use Case 1 ..
        + void recieveStoreRequest(LocationDataPoint locationDataPoint)
        .. Use Case 2 ..
        + void recieveModeRequest(String mode)
        + String recieveNextSatRequest(String currentSat)
        
    }
}


DatabaseGisInterfaceImplementation .up.|> DatabaseGisInterface

package edu.oakland.production.database01 {
    class DatabaseGisManagerImplementation {
        __
        .. Use Case 1 ..
        + void passStoreRequest(LocationDataPoint locationDataPoint)
        .. Use Case 2 ..
        + void passModeRequest(String mode)
        + String passNextSatRequest(String currentSat)
    }
}


DatabaseGisManagerImplementation .up.|> DatabaseGisManager

package edu.oakland.production.database01 {
    class DatabaseGisPersistentStorageImplementation {
        __
        .. Use Case 1 ..

        .. Use Case 2 ..

    }
}


DatabaseGisPersistentStorageImplementation .up.|> DatabaseGisPersistentStorage








package edu.oakland.test.database01 {
    
}


package edu.oakland.helper.database01 {
    
}


@enduml

PlantUML version 1.2020.02(Sun Mar 01 10:22:07 GMT 2020)
(GPL source distribution)
Java Runtime: OpenJDK Runtime Environment
JVM: OpenJDK 64-Bit Server VM
Java Version: 11.0.9+11-Ubuntu-0ubuntu1
Operating System: Linux
Default Encoding: ANSI_X3.4-1968
Language: en
Country: US
--></g></svg>