<?xml version="1.0" encoding="UTF-8" standalone="no"?><svg xmlns="http://www.w3.org/2000/svg" xmlns:xlink="http://www.w3.org/1999/xlink" contentScriptType="application/ecmascript" contentStyleType="text/css" height="387px" preserveAspectRatio="none" style="width:410px;height:387px;" version="1.1" viewBox="0 0 410 387" width="410px" zoomAndPan="magnify"><defs><filter height="300%" id="f1hn8fpj8ofoba" width="300%" x="-1" y="-1"><feGaussianBlur result="blurOut" stdDeviation="2.0"/><feColorMatrix in="blurOut" result="blurOut2" type="matrix" values="0 0 0 0 0 0 0 0 0 0 0 0 0 0 0 0 0 0 .4 0"/><feOffset dx="4.0" dy="4.0" in="blurOut2" result="blurOut3"/><feBlend in="SourceGraphic" in2="blurOut3" mode="normal"/></filter></defs><g><!--MD5=[3f116dbe56326f0321b4f8703f3bd2bd]
cluster edu.oakland.production.middleware01--><polygon fill="#FFFFFF" filter="url(#f1hn8fpj8ofoba)" points="22,24,332,24,339,46.2969,388,46.2969,388,375,22,375,22,24" style="stroke: #000000; stroke-width: 1.5;"/><line style="stroke: #000000; stroke-width: 1.5;" x1="22" x2="339" y1="46.2969" y2="46.2969"/><text fill="#000000" font-family="sans-serif" font-size="14" font-weight="bold" lengthAdjust="spacingAndGlyphs" textLength="304" x="26" y="38.9951">edu.oakland.production.middleware01</text><!--MD5=[95fb96a46a83d39a2e18236f313a92fb]
class MiddlewareGisManagerImplementation--><rect fill="#FEFECE" filter="url(#f1hn8fpj8ofoba)" height="107.2188" id="MiddlewareGisManagerImplementation" style="stroke: #A80036; stroke-width: 1.5;" width="273" x="68.5" y="252"/><ellipse cx="83.5" cy="268" fill="#ADD1B2" rx="11" ry="11" style="stroke: #A80036; stroke-width: 1.0;"/><path d="M86.4688,273.6406 Q85.8906,273.9375 85.25,274.0781 Q84.6094,274.2344 83.9063,274.2344 Q81.4063,274.2344 80.0781,272.5938 Q78.7656,270.9375 78.7656,267.8125 Q78.7656,264.6875 80.0781,263.0313 Q81.4063,261.375 83.9063,261.375 Q84.6094,261.375 85.25,261.5313 Q85.9063,261.6875 86.4688,261.9844 L86.4688,264.7031 Q85.8438,264.125 85.25,263.8594 Q84.6563,263.5781 84.0313,263.5781 Q82.6875,263.5781 82,264.6563 Q81.3125,265.7188 81.3125,267.8125 Q81.3125,269.9063 82,270.9844 Q82.6875,272.0469 84.0313,272.0469 Q84.6563,272.0469 85.25,271.7813 Q85.8438,271.5 86.4688,270.9219 L86.4688,273.6406 Z "/><text fill="#000000" font-family="sans-serif" font-size="12" lengthAdjust="spacingAndGlyphs" textLength="241" x="97.5" y="272.1543">MiddlewareGisManagerImplementation</text><line style="stroke: #A80036; stroke-width: 1.5;" x1="69.5" x2="340.5" y1="284" y2="284"/><line style="stroke: #A80036; stroke-width: 1.5;" x1="69.5" x2="340.5" y1="292" y2="292"/><text fill="#000000" font-family="sans-serif" font-size="11" lengthAdjust="spacingAndGlyphs" textLength="0" x="78.5" y="323.0151"/><line style="stroke: #A80036; stroke-width: 1.0; stroke-dasharray: 1.0,2.0;" x1="69.5" x2="172" y1="306.4023" y2="306.4023"/><text fill="#000000" font-family="sans-serif" font-size="11" lengthAdjust="spacingAndGlyphs" textLength="66" x="172" y="309.7104">Use Case 1</text><line style="stroke: #A80036; stroke-width: 1.0; stroke-dasharray: 1.0,2.0;" x1="238" x2="340.5" y1="306.4023" y2="306.4023"/><text fill="#000000" font-family="sans-serif" font-size="11" lengthAdjust="spacingAndGlyphs" textLength="0" x="78.5" y="352.6245"/><line style="stroke: #A80036; stroke-width: 1.0; stroke-dasharray: 1.0,2.0;" x1="69.5" x2="172" y1="336.0117" y2="336.0117"/><text fill="#000000" font-family="sans-serif" font-size="11" lengthAdjust="spacingAndGlyphs" textLength="66" x="172" y="339.3198">Use Case 2</text><line style="stroke: #A80036; stroke-width: 1.0; stroke-dasharray: 1.0,2.0;" x1="238" x2="340.5" y1="336.0117" y2="336.0117"/><!--MD5=[6b8f2796bf9a05cb61532ec918b7c92e]
class MiddlewareGisManager--><rect fill="#FEFECE" filter="url(#f1hn8fpj8ofoba)" height="132.8281" id="MiddlewareGisManager" style="stroke: #A80036; stroke-width: 1.5;" width="334" x="38" y="59"/><ellipse cx="128.75" cy="75" fill="#B4A7E5" rx="11" ry="11" style="stroke: #A80036; stroke-width: 1.0;"/><path d="M124.6719,70.7656 L124.6719,68.6094 L132.0625,68.6094 L132.0625,70.7656 L129.5938,70.7656 L129.5938,78.8438 L132.0625,78.8438 L132.0625,81 L124.6719,81 L124.6719,78.8438 L127.1406,78.8438 L127.1406,70.7656 L124.6719,70.7656 Z "/><text fill="#000000" font-family="sans-serif" font-size="12" font-style="italic" lengthAdjust="spacingAndGlyphs" textLength="144" x="149.25" y="79.1543">MiddlewareGisManager</text><line style="stroke: #A80036; stroke-width: 1.5;" x1="39" x2="371" y1="91" y2="91"/><line style="stroke: #A80036; stroke-width: 1.5;" x1="39" x2="371" y1="99" y2="99"/><ellipse cx="49" cy="126.8047" fill="#84BE84" rx="3" ry="3" style="stroke: #038048; stroke-width: 1.0;"/><text fill="#000000" font-family="sans-serif" font-size="11" font-style="italic" lengthAdjust="spacingAndGlyphs" textLength="282" x="58" y="130.0151">revieveGpsSignalStrength(Satellite satelliteSignal)</text><ellipse cx="49" cy="139.6094" fill="#84BE84" rx="3" ry="3" style="stroke: #038048; stroke-width: 1.0;"/><text fill="#000000" font-family="sans-serif" font-size="11" font-style="italic" lengthAdjust="spacingAndGlyphs" textLength="166" x="58" y="142.8198">void storeLocationDataPoint()</text><line style="stroke: #A80036; stroke-width: 1.0; stroke-dasharray: 1.0,2.0;" x1="39" x2="172" y1="113.4023" y2="113.4023"/><text fill="#000000" font-family="sans-serif" font-size="11" lengthAdjust="spacingAndGlyphs" textLength="66" x="172" y="116.7104">Use Case 1</text><line style="stroke: #A80036; stroke-width: 1.0; stroke-dasharray: 1.0,2.0;" x1="238" x2="371" y1="113.4023" y2="113.4023"/><ellipse cx="49" cy="169.2188" fill="#84BE84" rx="3" ry="3" style="stroke: #038048; stroke-width: 1.0;"/><text fill="#000000" font-family="sans-serif" font-size="11" font-style="italic" lengthAdjust="spacingAndGlyphs" textLength="303" x="58" y="172.4292">String attemptToRegainGpsLock(String satelliteName)</text><ellipse cx="49" cy="182.0234" fill="#84BE84" rx="3" ry="3" style="stroke: #038048; stroke-width: 1.0;"/><text fill="#000000" font-family="sans-serif" font-size="11" font-style="italic" lengthAdjust="spacingAndGlyphs" textLength="308" x="58" y="185.2339">String evaluateGpsSignalStrength(boolean signalValid)</text><line style="stroke: #A80036; stroke-width: 1.0; stroke-dasharray: 1.0,2.0;" x1="39" x2="172" y1="155.8164" y2="155.8164"/><text fill="#000000" font-family="sans-serif" font-size="11" lengthAdjust="spacingAndGlyphs" textLength="66" x="172" y="159.1245">Use Case 2</text><line style="stroke: #A80036; stroke-width: 1.0; stroke-dasharray: 1.0,2.0;" x1="238" x2="371" y1="155.8164" y2="155.8164"/><!--MD5=[ba88405600d0f63e318d28a37302bd2e]
reverse link MiddlewareGisManager to MiddlewareGisManagerImplementation--><path d="M205,212.3 C205,225.82 205,239.44 205,251.91 " fill="none" id="MiddlewareGisManager&lt;-MiddlewareGisManagerImplementation" style="stroke: #A80036; stroke-width: 1.0; stroke-dasharray: 7.0,7.0;"/><polygon fill="none" points="198,212.02,205,192.02,212,212.02,198,212.02" style="stroke: #A80036; stroke-width: 1.0;"/><!--MD5=[5801fcae631b2ed51083151020d7d7af]
@startuml MiddlewareGisManagerImplementation_DirectDependencies


package edu.oakland.production.middleware01 {
    class MiddlewareGisManagerImplementation {
        __
        .. Use Case 1 ..

        .. Use Case 2 ..

    }
}



package edu.oakland.production.middleware01 {
    interface MiddlewareGisManager {
        __
        .. Use Case 1 ..
        {abstract} + revieveGpsSignalStrength(Satellite satelliteSignal)
        {abstract} + void storeLocationDataPoint()
        .. Use Case 2 ..
        {abstract} + String attemptToRegainGpsLock(String satelliteName)
        {abstract} + String evaluateGpsSignalStrength(boolean signalValid)
    }
}

MiddlewareGisManagerImplementation .up.|> MiddlewareGisManager





@enduml

PlantUML version 1.2020.02(Sun Mar 01 10:22:07 GMT 2020)
(GPL source distribution)
Java Runtime: OpenJDK Runtime Environment
JVM: OpenJDK 64-Bit Server VM
Java Version: 11.0.9+11-Ubuntu-0ubuntu1
Operating System: Linux
Default Encoding: ANSI_X3.4-1968
Language: en
Country: US
--></g></svg>