<?xml version="1.0" encoding="UTF-8" standalone="no"?><svg xmlns="http://www.w3.org/2000/svg" xmlns:xlink="http://www.w3.org/1999/xlink" contentScriptType="application/ecmascript" contentStyleType="text/css" height="258px" preserveAspectRatio="none" style="width:580px;height:258px;" version="1.1" viewBox="0 0 580 258" width="580px" zoomAndPan="magnify"><defs><filter height="300%" id="ffz34oolbasqb" width="300%" x="-1" y="-1"><feGaussianBlur result="blurOut" stdDeviation="2.0"/><feColorMatrix in="blurOut" result="blurOut2" type="matrix" values="0 0 0 0 0 0 0 0 0 0 0 0 0 0 0 0 0 0 .4 0"/><feOffset dx="4.0" dy="4.0" in="blurOut2" result="blurOut3"/><feBlend in="SourceGraphic" in2="blurOut3" mode="normal"/></filter></defs><g><!--MD5=[3f116dbe56326f0321b4f8703f3bd2bd]
cluster edu.oakland.production.middleware01--><polygon fill="#FFFFFF" filter="url(#ffz34oolbasqb)" points="22,24,332,24,339,46.2969,558,46.2969,558,246,22,246,22,24" style="stroke: #000000; stroke-width: 1.5;"/><line style="stroke: #000000; stroke-width: 1.5;" x1="22" x2="339" y1="46.2969" y2="46.2969"/><text fill="#000000" font-family="sans-serif" font-size="14" font-weight="bold" lengthAdjust="spacingAndGlyphs" textLength="304" x="26" y="38.9951">edu.oakland.production.middleware01</text><!--MD5=[95fb96a46a83d39a2e18236f313a92fb]
class MiddlewareGisManagerImplementation--><rect fill="#FEFECE" filter="url(#ffz34oolbasqb)" height="171.2422" id="MiddlewareGisManagerImplementation" style="stroke: #A80036; stroke-width: 1.5;" width="503" x="38.5" y="59"/><ellipse cx="165.25" cy="75" fill="#ADD1B2" rx="11" ry="11" style="stroke: #A80036; stroke-width: 1.0;"/><path d="M168.2188,80.6406 Q167.6406,80.9375 167,81.0781 Q166.3594,81.2344 165.6563,81.2344 Q163.1563,81.2344 161.8281,79.5938 Q160.5156,77.9375 160.5156,74.8125 Q160.5156,71.6875 161.8281,70.0313 Q163.1563,68.375 165.6563,68.375 Q166.3594,68.375 167,68.5313 Q167.6563,68.6875 168.2188,68.9844 L168.2188,71.7031 Q167.5938,71.125 167,70.8594 Q166.4063,70.5781 165.7813,70.5781 Q164.4375,70.5781 163.75,71.6563 Q163.0625,72.7188 163.0625,74.8125 Q163.0625,76.9063 163.75,77.9844 Q164.4375,79.0469 165.7813,79.0469 Q166.4063,79.0469 167,78.7813 Q167.5938,78.5 168.2188,77.9219 L168.2188,80.6406 Z "/><text fill="#000000" font-family="sans-serif" font-size="12" lengthAdjust="spacingAndGlyphs" textLength="241" x="185.75" y="79.1543">MiddlewareGisManagerImplementation</text><line style="stroke: #A80036; stroke-width: 1.5;" x1="39.5" x2="540.5" y1="91" y2="91"/><rect fill="none" height="6" style="stroke: #C82930; stroke-width: 1.0;" width="6" x="46.5" y="99"/><text fill="#000000" font-family="sans-serif" font-size="11" lengthAdjust="spacingAndGlyphs" textLength="249" x="58.5" y="105.2104">DatabaseGisInterface databaseGisInterface</text><rect fill="none" height="6" style="stroke: #C82930; stroke-width: 1.0;" width="6" x="46.5" y="111.8047"/><text fill="#000000" font-family="sans-serif" font-size="11" lengthAdjust="spacingAndGlyphs" textLength="203" x="58.5" y="118.0151">LocationDataPoint locationDataPoint</text><line style="stroke: #A80036; stroke-width: 1.5;" x1="39.5" x2="540.5" y1="124.6094" y2="124.6094"/><ellipse cx="49.5" cy="135.6094" fill="#84BE84" rx="3" ry="3" style="stroke: #038048; stroke-width: 1.0;"/><text fill="#000000" font-family="sans-serif" font-size="11" lengthAdjust="spacingAndGlyphs" textLength="477" x="58.5" y="138.8198">MiddlewareGisManagerImplementation(DatabaseGisInterface databaseGisInterface)</text><ellipse cx="49.5" cy="165.2188" fill="#84BE84" rx="3" ry="3" style="stroke: #038048; stroke-width: 1.0;"/><text fill="#000000" font-family="sans-serif" font-size="11" lengthAdjust="spacingAndGlyphs" textLength="331" x="58.5" y="168.4292">String receieveGpsSignalStrength(Satellite satelliteSignal)</text><ellipse cx="49.5" cy="178.0234" fill="#84BE84" rx="3" ry="3" style="stroke: #038048; stroke-width: 1.0;"/><text fill="#000000" font-family="sans-serif" font-size="11" lengthAdjust="spacingAndGlyphs" textLength="166" x="58.5" y="181.2339">void storeLocationDataPoint()</text><line style="stroke: #A80036; stroke-width: 1.0; stroke-dasharray: 1.0,2.0;" x1="39.5" x2="257" y1="151.8164" y2="151.8164"/><text fill="#000000" font-family="sans-serif" font-size="11" lengthAdjust="spacingAndGlyphs" textLength="66" x="257" y="155.1245">Use Case 1</text><line style="stroke: #A80036; stroke-width: 1.0; stroke-dasharray: 1.0,2.0;" x1="323" x2="540.5" y1="151.8164" y2="151.8164"/><ellipse cx="49.5" cy="207.6328" fill="#84BE84" rx="3" ry="3" style="stroke: #038048; stroke-width: 1.0;"/><text fill="#000000" font-family="sans-serif" font-size="11" lengthAdjust="spacingAndGlyphs" textLength="306" x="58.5" y="210.8433">String attemptToRegainGpsLock(String satelliteName)</text><ellipse cx="49.5" cy="220.4375" fill="#84BE84" rx="3" ry="3" style="stroke: #038048; stroke-width: 1.0;"/><text fill="#000000" font-family="sans-serif" font-size="11" lengthAdjust="spacingAndGlyphs" textLength="311" x="58.5" y="223.6479">String evaluateGpsSignalStrength(boolean signalValid)</text><line style="stroke: #A80036; stroke-width: 1.0; stroke-dasharray: 1.0,2.0;" x1="39.5" x2="257" y1="194.2305" y2="194.2305"/><text fill="#000000" font-family="sans-serif" font-size="11" lengthAdjust="spacingAndGlyphs" textLength="66" x="257" y="197.5386">Use Case 2</text><line style="stroke: #A80036; stroke-width: 1.0; stroke-dasharray: 1.0,2.0;" x1="323" x2="540.5" y1="194.2305" y2="194.2305"/><!--MD5=[f5be797aaaa611846ac07fdb36982c21]
@startuml MiddlewareGisManagerImplementation

package edu.oakland.production.middleware01 {
    class MiddlewareGisManagerImplementation {
        - DatabaseGisInterface databaseGisInterface
        - LocationDataPoint locationDataPoint
        __
        + MiddlewareGisManagerImplementation(DatabaseGisInterface databaseGisInterface)
        .. Use Case 1 ..
        + String receieveGpsSignalStrength(Satellite satelliteSignal)
        + void storeLocationDataPoint()
        .. Use Case 2 ..
        + String attemptToRegainGpsLock(String satelliteName)
        + String evaluateGpsSignalStrength(boolean signalValid)
    }
}

@enduml

PlantUML version 1.2020.02(Sun Mar 01 10:22:07 GMT 2020)
(GPL source distribution)
Java Runtime: OpenJDK Runtime Environment
JVM: OpenJDK 64-Bit Server VM
Java Version: 11.0.9+11-Ubuntu-0ubuntu1
Operating System: Linux
Default Encoding: ANSI_X3.4-1968
Language: en
Country: US
--></g></svg>