<?xml version="1.0" encoding="UTF-8" standalone="no"?><svg xmlns="http://www.w3.org/2000/svg" xmlns:xlink="http://www.w3.org/1999/xlink" contentScriptType="application/ecmascript" contentStyleType="text/css" height="387px" preserveAspectRatio="none" style="width:1802px;height:387px;" version="1.1" viewBox="0 0 1802 387" width="1802px" zoomAndPan="magnify"><defs><filter height="300%" id="fx4j24tfac8dv" width="300%" x="-1" y="-1"><feGaussianBlur result="blurOut" stdDeviation="2.0"/><feColorMatrix in="blurOut" result="blurOut2" type="matrix" values="0 0 0 0 0 0 0 0 0 0 0 0 0 0 0 0 0 0 .4 0"/><feOffset dx="4.0" dy="4.0" in="blurOut2" result="blurOut3"/><feBlend in="SourceGraphic" in2="blurOut3" mode="normal"/></filter></defs><g><!--MD5=[3e281e6f49e0b185d62a106a5d994a08]
cluster edu.oakland.production.display01--><polygon fill="#FFFFFF" filter="url(#fx4j24tfac8dv)" points="544,24,817,24,824,46.2969,1780,46.2969,1780,375,544,375,544,24" style="stroke: #000000; stroke-width: 1.5;"/><line style="stroke: #000000; stroke-width: 1.5;" x1="544" x2="824" y1="46.2969" y2="46.2969"/><text fill="#000000" font-family="sans-serif" font-size="14" font-weight="bold" lengthAdjust="spacingAndGlyphs" textLength="267" x="548" y="38.9951">edu.oakland.production.display01</text><!--MD5=[fa6248c05b5a852ecd50b5411f159754]
class DisplayGpsInterface--><rect fill="#FEFECE" filter="url(#fx4j24tfac8dv)" height="132.8281" id="DisplayGpsInterface" style="stroke: #A80036; stroke-width: 1.5;" width="297" x="560.5" y="59"/><ellipse cx="642.75" cy="75" fill="#B4A7E5" rx="11" ry="11" style="stroke: #A80036; stroke-width: 1.0;"/><path d="M638.6719,70.7656 L638.6719,68.6094 L646.0625,68.6094 L646.0625,70.7656 L643.5938,70.7656 L643.5938,78.8438 L646.0625,78.8438 L646.0625,81 L638.6719,81 L638.6719,78.8438 L641.1406,78.8438 L641.1406,70.7656 L638.6719,70.7656 Z "/><text fill="#000000" font-family="sans-serif" font-size="12" font-style="italic" lengthAdjust="spacingAndGlyphs" textLength="124" x="663.25" y="79.1543">DisplayGpsInterface</text><line style="stroke: #A80036; stroke-width: 1.5;" x1="561.5" x2="856.5" y1="91" y2="91"/><line style="stroke: #A80036; stroke-width: 1.5;" x1="561.5" x2="856.5" y1="99" y2="99"/><ellipse cx="571.5" cy="126.8047" fill="#84BE84" rx="3" ry="3" style="stroke: #038048; stroke-width: 1.0;"/><text fill="#000000" font-family="sans-serif" font-size="11" font-style="italic" lengthAdjust="spacingAndGlyphs" textLength="269" x="580.5" y="130.0151">void revieveGPSSignals(Satellite satelliteSignal)</text><line style="stroke: #A80036; stroke-width: 1.0; stroke-dasharray: 1.0,2.0;" x1="561.5" x2="676" y1="113.4023" y2="113.4023"/><text fill="#000000" font-family="sans-serif" font-size="11" lengthAdjust="spacingAndGlyphs" textLength="66" x="676" y="116.7104">Use Case 1</text><line style="stroke: #A80036; stroke-width: 1.0; stroke-dasharray: 1.0,2.0;" x1="742" x2="856.5" y1="113.4023" y2="113.4023"/><ellipse cx="571.5" cy="156.4141" fill="#84BE84" rx="3" ry="3" style="stroke: #038048; stroke-width: 1.0;"/><text fill="#000000" font-family="sans-serif" font-size="11" font-style="italic" lengthAdjust="spacingAndGlyphs" textLength="266" x="580.5" y="159.6245">void reportGpsSignalLoss(String satelliteName)</text><ellipse cx="571.5" cy="169.2188" fill="#84BE84" rx="3" ry="3" style="stroke: #038048; stroke-width: 1.0;"/><text fill="#000000" font-family="sans-serif" font-size="11" font-style="italic" lengthAdjust="spacingAndGlyphs" textLength="271" x="580.5" y="172.4292">void recheckSignalStength(String satelliteName)</text><ellipse cx="571.5" cy="182.0234" fill="#84BE84" rx="3" ry="3" style="stroke: #038048; stroke-width: 1.0;"/><text fill="#000000" font-family="sans-serif" font-size="11" font-style="italic" lengthAdjust="spacingAndGlyphs" textLength="259" x="580.5" y="185.2339">void checkSignalStength(String satelliteName)</text><line style="stroke: #A80036; stroke-width: 1.0; stroke-dasharray: 1.0,2.0;" x1="561.5" x2="676" y1="143.0117" y2="143.0117"/><text fill="#000000" font-family="sans-serif" font-size="11" lengthAdjust="spacingAndGlyphs" textLength="66" x="676" y="146.3198">Use Case 2</text><line style="stroke: #A80036; stroke-width: 1.0; stroke-dasharray: 1.0,2.0;" x1="742" x2="856.5" y1="143.0117" y2="143.0117"/><!--MD5=[31cbac78761b59e73153a97a452ed09a]
class DisplayGpsManager--><rect fill="#FEFECE" filter="url(#fx4j24tfac8dv)" height="107.2188" id="DisplayGpsManager" style="stroke: #A80036; stroke-width: 1.5;" width="441" x="892.5" y="72"/><ellipse cx="1047.75" cy="88" fill="#B4A7E5" rx="11" ry="11" style="stroke: #A80036; stroke-width: 1.0;"/><path d="M1043.6719,83.7656 L1043.6719,81.6094 L1051.0625,81.6094 L1051.0625,83.7656 L1048.5938,83.7656 L1048.5938,91.8438 L1051.0625,91.8438 L1051.0625,94 L1043.6719,94 L1043.6719,91.8438 L1046.1406,91.8438 L1046.1406,83.7656 L1043.6719,83.7656 Z "/><text fill="#000000" font-family="sans-serif" font-size="12" font-style="italic" lengthAdjust="spacingAndGlyphs" textLength="122" x="1068.25" y="92.1543">DisplayGpsManager</text><line style="stroke: #A80036; stroke-width: 1.5;" x1="893.5" x2="1332.5" y1="104" y2="104"/><line style="stroke: #A80036; stroke-width: 1.5;" x1="893.5" x2="1332.5" y1="112" y2="112"/><ellipse cx="903.5" cy="139.8047" fill="#84BE84" rx="3" ry="3" style="stroke: #038048; stroke-width: 1.0;"/><text fill="#000000" font-family="sans-serif" font-size="11" font-style="italic" lengthAdjust="spacingAndGlyphs" textLength="324" x="912.5" y="143.0151">String receiveGpsSignalStrengths(Satellite satelliteSignal)</text><line style="stroke: #A80036; stroke-width: 1.0; stroke-dasharray: 1.0,2.0;" x1="893.5" x2="1080" y1="126.4023" y2="126.4023"/><text fill="#000000" font-family="sans-serif" font-size="11" lengthAdjust="spacingAndGlyphs" textLength="66" x="1080" y="129.7104">Use Case 1</text><line style="stroke: #A80036; stroke-width: 1.0; stroke-dasharray: 1.0,2.0;" x1="1146" x2="1332.5" y1="126.4023" y2="126.4023"/><ellipse cx="903.5" cy="169.4141" fill="#84BE84" rx="3" ry="3" style="stroke: #038048; stroke-width: 1.0;"/><text fill="#000000" font-family="sans-serif" font-size="11" font-style="italic" lengthAdjust="spacingAndGlyphs" textLength="415" x="912.5" y="172.6245">SatelliteSignalCheckRequest passGpsSignalStrength(String satelliteName)</text><line style="stroke: #A80036; stroke-width: 1.0; stroke-dasharray: 1.0,2.0;" x1="893.5" x2="1080" y1="156.0117" y2="156.0117"/><text fill="#000000" font-family="sans-serif" font-size="11" lengthAdjust="spacingAndGlyphs" textLength="66" x="1080" y="159.3198">Use Case 2</text><line style="stroke: #A80036; stroke-width: 1.0; stroke-dasharray: 1.0,2.0;" x1="1146" x2="1332.5" y1="156.0117" y2="156.0117"/><!--MD5=[319273309e4c56bac150542a32321bb2]
class DisplayGpsReceiver--><rect fill="#FEFECE" filter="url(#fx4j24tfac8dv)" height="107.2188" id="DisplayGpsReceiver" style="stroke: #A80036; stroke-width: 1.5;" width="395" x="1368.5" y="72"/><ellipse cx="1501.75" cy="88" fill="#B4A7E5" rx="11" ry="11" style="stroke: #A80036; stroke-width: 1.0;"/><path d="M1497.6719,83.7656 L1497.6719,81.6094 L1505.0625,81.6094 L1505.0625,83.7656 L1502.5938,83.7656 L1502.5938,91.8438 L1505.0625,91.8438 L1505.0625,94 L1497.6719,94 L1497.6719,91.8438 L1500.1406,91.8438 L1500.1406,83.7656 L1497.6719,83.7656 Z "/><text fill="#000000" font-family="sans-serif" font-size="12" font-style="italic" lengthAdjust="spacingAndGlyphs" textLength="120" x="1522.25" y="92.1543">DisplayGpsReceiver</text><line style="stroke: #A80036; stroke-width: 1.5;" x1="1369.5" x2="1762.5" y1="104" y2="104"/><line style="stroke: #A80036; stroke-width: 1.5;" x1="1369.5" x2="1762.5" y1="112" y2="112"/><ellipse cx="1379.5" cy="139.8047" fill="#84BE84" rx="3" ry="3" style="stroke: #038048; stroke-width: 1.0;"/><text fill="#000000" font-family="sans-serif" font-size="11" font-style="italic" lengthAdjust="spacingAndGlyphs" textLength="326" x="1388.5" y="143.0151">String measureGpsSignalStrength(Satellite satelliteSignal)</text><line style="stroke: #A80036; stroke-width: 1.0; stroke-dasharray: 1.0,2.0;" x1="1369.5" x2="1533" y1="126.4023" y2="126.4023"/><text fill="#000000" font-family="sans-serif" font-size="11" lengthAdjust="spacingAndGlyphs" textLength="66" x="1533" y="129.7104">Use Case 1</text><line style="stroke: #A80036; stroke-width: 1.0; stroke-dasharray: 1.0,2.0;" x1="1599" x2="1762.5" y1="126.4023" y2="126.4023"/><ellipse cx="1379.5" cy="169.4141" fill="#84BE84" rx="3" ry="3" style="stroke: #038048; stroke-width: 1.0;"/><text fill="#000000" font-family="sans-serif" font-size="11" font-style="italic" lengthAdjust="spacingAndGlyphs" textLength="369" x="1388.5" y="172.6245">SatelliteSignalCheckRequest measureSignal(String satelliteName)</text><line style="stroke: #A80036; stroke-width: 1.0; stroke-dasharray: 1.0,2.0;" x1="1369.5" x2="1533" y1="156.0117" y2="156.0117"/><text fill="#000000" font-family="sans-serif" font-size="11" lengthAdjust="spacingAndGlyphs" textLength="66" x="1533" y="159.3198">Use Case 2</text><line style="stroke: #A80036; stroke-width: 1.0; stroke-dasharray: 1.0,2.0;" x1="1599" x2="1762.5" y1="156.0117" y2="156.0117"/><!--MD5=[6376794c08ca75f6fa530286e1e32b13]
class DisplayGpsInterfaceImplementation--><rect fill="#FEFECE" filter="url(#fx4j24tfac8dv)" height="107.2188" id="DisplayGpsInterfaceImplementation" style="stroke: #A80036; stroke-width: 1.5;" width="253" x="582.5" y="252"/><ellipse cx="597.5" cy="268" fill="#ADD1B2" rx="11" ry="11" style="stroke: #A80036; stroke-width: 1.0;"/><path d="M600.4688,273.6406 Q599.8906,273.9375 599.25,274.0781 Q598.6094,274.2344 597.9063,274.2344 Q595.4063,274.2344 594.0781,272.5938 Q592.7656,270.9375 592.7656,267.8125 Q592.7656,264.6875 594.0781,263.0313 Q595.4063,261.375 597.9063,261.375 Q598.6094,261.375 599.25,261.5313 Q599.9063,261.6875 600.4688,261.9844 L600.4688,264.7031 Q599.8438,264.125 599.25,263.8594 Q598.6563,263.5781 598.0313,263.5781 Q596.6875,263.5781 596,264.6563 Q595.3125,265.7188 595.3125,267.8125 Q595.3125,269.9063 596,270.9844 Q596.6875,272.0469 598.0313,272.0469 Q598.6563,272.0469 599.25,271.7813 Q599.8438,271.5 600.4688,270.9219 L600.4688,273.6406 Z "/><text fill="#000000" font-family="sans-serif" font-size="12" lengthAdjust="spacingAndGlyphs" textLength="221" x="611.5" y="272.1543">DisplayGpsInterfaceImplementation</text><line style="stroke: #A80036; stroke-width: 1.5;" x1="583.5" x2="834.5" y1="284" y2="284"/><line style="stroke: #A80036; stroke-width: 1.5;" x1="583.5" x2="834.5" y1="292" y2="292"/><text fill="#000000" font-family="sans-serif" font-size="11" lengthAdjust="spacingAndGlyphs" textLength="0" x="592.5" y="323.0151"/><line style="stroke: #A80036; stroke-width: 1.0; stroke-dasharray: 1.0,2.0;" x1="583.5" x2="676" y1="306.4023" y2="306.4023"/><text fill="#000000" font-family="sans-serif" font-size="11" lengthAdjust="spacingAndGlyphs" textLength="66" x="676" y="309.7104">Use Case 1</text><line style="stroke: #A80036; stroke-width: 1.0; stroke-dasharray: 1.0,2.0;" x1="742" x2="834.5" y1="306.4023" y2="306.4023"/><text fill="#000000" font-family="sans-serif" font-size="11" lengthAdjust="spacingAndGlyphs" textLength="0" x="592.5" y="352.6245"/><line style="stroke: #A80036; stroke-width: 1.0; stroke-dasharray: 1.0,2.0;" x1="583.5" x2="676" y1="336.0117" y2="336.0117"/><text fill="#000000" font-family="sans-serif" font-size="11" lengthAdjust="spacingAndGlyphs" textLength="66" x="676" y="339.3198">Use Case 2</text><line style="stroke: #A80036; stroke-width: 1.0; stroke-dasharray: 1.0,2.0;" x1="742" x2="834.5" y1="336.0117" y2="336.0117"/><!--MD5=[85db0a5b69c4b55d7b0101612d8a7890]
class DisplayGpsManagerImplementation--><rect fill="#FEFECE" filter="url(#fx4j24tfac8dv)" height="107.2188" id="DisplayGpsManagerImplementation" style="stroke: #A80036; stroke-width: 1.5;" width="252" x="987" y="252"/><ellipse cx="1002" cy="268" fill="#ADD1B2" rx="11" ry="11" style="stroke: #A80036; stroke-width: 1.0;"/><path d="M1004.9688,273.6406 Q1004.3906,273.9375 1003.75,274.0781 Q1003.1094,274.2344 1002.4063,274.2344 Q999.9063,274.2344 998.5781,272.5938 Q997.2656,270.9375 997.2656,267.8125 Q997.2656,264.6875 998.5781,263.0313 Q999.9063,261.375 1002.4063,261.375 Q1003.1094,261.375 1003.75,261.5313 Q1004.4063,261.6875 1004.9688,261.9844 L1004.9688,264.7031 Q1004.3438,264.125 1003.75,263.8594 Q1003.1563,263.5781 1002.5313,263.5781 Q1001.1875,263.5781 1000.5,264.6563 Q999.8125,265.7188 999.8125,267.8125 Q999.8125,269.9063 1000.5,270.9844 Q1001.1875,272.0469 1002.5313,272.0469 Q1003.1563,272.0469 1003.75,271.7813 Q1004.3438,271.5 1004.9688,270.9219 L1004.9688,273.6406 Z "/><text fill="#000000" font-family="sans-serif" font-size="12" lengthAdjust="spacingAndGlyphs" textLength="220" x="1016" y="272.1543">DisplayGpsManagerImplementation</text><line style="stroke: #A80036; stroke-width: 1.5;" x1="988" x2="1238" y1="284" y2="284"/><line style="stroke: #A80036; stroke-width: 1.5;" x1="988" x2="1238" y1="292" y2="292"/><text fill="#000000" font-family="sans-serif" font-size="11" lengthAdjust="spacingAndGlyphs" textLength="0" x="997" y="323.0151"/><line style="stroke: #A80036; stroke-width: 1.0; stroke-dasharray: 1.0,2.0;" x1="988" x2="1080" y1="306.4023" y2="306.4023"/><text fill="#000000" font-family="sans-serif" font-size="11" lengthAdjust="spacingAndGlyphs" textLength="66" x="1080" y="309.7104">Use Case 1</text><line style="stroke: #A80036; stroke-width: 1.0; stroke-dasharray: 1.0,2.0;" x1="1146" x2="1238" y1="306.4023" y2="306.4023"/><text fill="#000000" font-family="sans-serif" font-size="11" lengthAdjust="spacingAndGlyphs" textLength="0" x="997" y="352.6245"/><line style="stroke: #A80036; stroke-width: 1.0; stroke-dasharray: 1.0,2.0;" x1="988" x2="1080" y1="336.0117" y2="336.0117"/><text fill="#000000" font-family="sans-serif" font-size="11" lengthAdjust="spacingAndGlyphs" textLength="66" x="1080" y="339.3198">Use Case 2</text><line style="stroke: #A80036; stroke-width: 1.0; stroke-dasharray: 1.0,2.0;" x1="1146" x2="1238" y1="336.0117" y2="336.0117"/><!--MD5=[02b25ee3f711f666678619f4b81f3681]
class DisplayGpsReceiverImplementation--><rect fill="#FEFECE" filter="url(#fx4j24tfac8dv)" height="107.2188" id="DisplayGpsReceiverImplementation" style="stroke: #A80036; stroke-width: 1.5;" width="250" x="1441" y="252"/><ellipse cx="1456" cy="268" fill="#ADD1B2" rx="11" ry="11" style="stroke: #A80036; stroke-width: 1.0;"/><path d="M1458.9688,273.6406 Q1458.3906,273.9375 1457.75,274.0781 Q1457.1094,274.2344 1456.4063,274.2344 Q1453.9063,274.2344 1452.5781,272.5938 Q1451.2656,270.9375 1451.2656,267.8125 Q1451.2656,264.6875 1452.5781,263.0313 Q1453.9063,261.375 1456.4063,261.375 Q1457.1094,261.375 1457.75,261.5313 Q1458.4063,261.6875 1458.9688,261.9844 L1458.9688,264.7031 Q1458.3438,264.125 1457.75,263.8594 Q1457.1563,263.5781 1456.5313,263.5781 Q1455.1875,263.5781 1454.5,264.6563 Q1453.8125,265.7188 1453.8125,267.8125 Q1453.8125,269.9063 1454.5,270.9844 Q1455.1875,272.0469 1456.5313,272.0469 Q1457.1563,272.0469 1457.75,271.7813 Q1458.3438,271.5 1458.9688,270.9219 L1458.9688,273.6406 Z "/><text fill="#000000" font-family="sans-serif" font-size="12" lengthAdjust="spacingAndGlyphs" textLength="218" x="1470" y="272.1543">DisplayGpsReceiverImplementation</text><line style="stroke: #A80036; stroke-width: 1.5;" x1="1442" x2="1690" y1="284" y2="284"/><line style="stroke: #A80036; stroke-width: 1.5;" x1="1442" x2="1690" y1="292" y2="292"/><text fill="#000000" font-family="sans-serif" font-size="11" lengthAdjust="spacingAndGlyphs" textLength="0" x="1451" y="323.0151"/><line style="stroke: #A80036; stroke-width: 1.0; stroke-dasharray: 1.0,2.0;" x1="1442" x2="1533" y1="306.4023" y2="306.4023"/><text fill="#000000" font-family="sans-serif" font-size="11" lengthAdjust="spacingAndGlyphs" textLength="66" x="1533" y="309.7104">Use Case 1</text><line style="stroke: #A80036; stroke-width: 1.0; stroke-dasharray: 1.0,2.0;" x1="1599" x2="1690" y1="306.4023" y2="306.4023"/><text fill="#000000" font-family="sans-serif" font-size="11" lengthAdjust="spacingAndGlyphs" textLength="0" x="1451" y="352.6245"/><line style="stroke: #A80036; stroke-width: 1.0; stroke-dasharray: 1.0,2.0;" x1="1442" x2="1533" y1="336.0117" y2="336.0117"/><text fill="#000000" font-family="sans-serif" font-size="11" lengthAdjust="spacingAndGlyphs" textLength="66" x="1533" y="339.3198">Use Case 2</text><line style="stroke: #A80036; stroke-width: 1.0; stroke-dasharray: 1.0,2.0;" x1="1599" x2="1690" y1="336.0117" y2="336.0117"/><polygon fill="#FFFFFF" filter="url(#fx4j24tfac8dv)" points="6,99,224,99,231,121.2969,238,121.2969,238,151.5938,6,151.5938,6,99" style="stroke: #000000; stroke-width: 1.5;"/><line style="stroke: #000000; stroke-width: 1.5;" x1="6" x2="231" y1="121.2969" y2="121.2969"/><text fill="#000000" font-family="sans-serif" font-size="14" font-weight="bold" lengthAdjust="spacingAndGlyphs" textLength="212" x="10" y="113.9951">edu.oakland.test.display01</text><polygon fill="#FFFFFF" filter="url(#fx4j24tfac8dv)" points="273,99,511,99,518,121.2969,525,121.2969,525,151.5938,273,151.5938,273,99" style="stroke: #000000; stroke-width: 1.5;"/><line style="stroke: #000000; stroke-width: 1.5;" x1="273" x2="518" y1="121.2969" y2="121.2969"/><text fill="#000000" font-family="sans-serif" font-size="14" font-weight="bold" lengthAdjust="spacingAndGlyphs" textLength="232" x="277" y="113.9951">edu.oakland.helper.display01</text><!--MD5=[5e11d977f08105e989255e48b5831e9e]
reverse link DisplayGpsInterface to DisplayGpsInterfaceImplementation--><path d="M709,212.3 C709,225.82 709,239.44 709,251.91 " fill="none" id="DisplayGpsInterface&lt;-DisplayGpsInterfaceImplementation" style="stroke: #A80036; stroke-width: 1.0; stroke-dasharray: 7.0,7.0;"/><polygon fill="none" points="702,212.02,709,192.02,716,212.02,702,212.02" style="stroke: #A80036; stroke-width: 1.0;"/><!--MD5=[6be1e14f889006c5f08853113ab490e0]
reverse link DisplayGpsManager to DisplayGpsManagerImplementation--><path d="M1113,199.44 C1113,216.98 1113,235.37 1113,251.78 " fill="none" id="DisplayGpsManager&lt;-DisplayGpsManagerImplementation" style="stroke: #A80036; stroke-width: 1.0; stroke-dasharray: 7.0,7.0;"/><polygon fill="none" points="1106,199.42,1113,179.42,1120,199.42,1106,199.42" style="stroke: #A80036; stroke-width: 1.0;"/><!--MD5=[8f7561e34aa0d27a53c807a3ed854e00]
reverse link DisplayGpsReceiver to DisplayGpsReceiverImplementation--><path d="M1566,199.44 C1566,216.98 1566,235.37 1566,251.78 " fill="none" id="DisplayGpsReceiver&lt;-DisplayGpsReceiverImplementation" style="stroke: #A80036; stroke-width: 1.0; stroke-dasharray: 7.0,7.0;"/><polygon fill="none" points="1559,199.42,1566,179.42,1573,199.42,1559,199.42" style="stroke: #A80036; stroke-width: 1.0;"/><!--MD5=[7be44679bb84d8cd892466faeeac3d42]
@startuml Display01Packages_DirectDependencies


package edu.oakland.production.display01 {
    
}


package edu.oakland.production.display01 {
    
}


package edu.oakland.production.display01 {
    interface DisplayGpsInterface {
        __
        .. Use Case 1 ..
        {abstract} + void revieveGPSSignals(Satellite satelliteSignal)
        .. Use Case 2 ..
        {abstract} + void reportGpsSignalLoss(String satelliteName)
        {abstract} + void recheckSignalStength(String satelliteName)
        {abstract} + void checkSignalStength(String satelliteName)
    }
}


package edu.oakland.production.display01 {
    interface DisplayGpsManager {
        __
        .. Use Case 1 ..
        {abstract} + String receiveGpsSignalStrengths(Satellite satelliteSignal)
        .. Use Case 2 ..
        {abstract} + SatelliteSignalCheckRequest passGpsSignalStrength(String satelliteName)
    }
}


package edu.oakland.production.display01 {
    interface DisplayGpsReceiver {
        __
        .. Use Case 1 ..
        {abstract} + String measureGpsSignalStrength(Satellite satelliteSignal)
        .. Use Case 2 ..
        {abstract} + SatelliteSignalCheckRequest measureSignal(String satelliteName)
    }
}


package edu.oakland.production.display01 {
    class DisplayGpsInterfaceImplementation {
        __
        .. Use Case 1 ..

        .. Use Case 2 ..

    }
}


DisplayGpsInterfaceImplementation .up.|> DisplayGpsInterface

package edu.oakland.production.display01 {
    class DisplayGpsManagerImplementation {
        __
        .. Use Case 1 ..

        .. Use Case 2 ..

    }
}


DisplayGpsManagerImplementation .up.|> DisplayGpsManager

package edu.oakland.production.display01 {
    class DisplayGpsReceiverImplementation {
        __
        .. Use Case 1 ..

        .. Use Case 2 ..

    }
}


DisplayGpsReceiverImplementation .up.|> DisplayGpsReceiver
















package edu.oakland.test.display01 {
    
}


package edu.oakland.test.display01 {
    
}



package edu.oakland.helper.display01 {
    
}


@enduml

PlantUML version 1.2020.02(Sun Mar 01 10:22:07 GMT 2020)
(GPL source distribution)
Java Runtime: OpenJDK Runtime Environment
JVM: OpenJDK 64-Bit Server VM
Java Version: 11.0.9+11-Ubuntu-0ubuntu1
Operating System: Linux
Default Encoding: ANSI_X3.4-1968
Language: en
Country: US
--></g></svg>