<?xml version="1.0" encoding="UTF-8" standalone="no"?><svg xmlns="http://www.w3.org/2000/svg" xmlns:xlink="http://www.w3.org/1999/xlink" contentScriptType="application/ecmascript" contentStyleType="text/css" height="612px" preserveAspectRatio="none" style="width:532px;height:612px;" version="1.1" viewBox="0 0 532 612" width="532px" zoomAndPan="magnify"><defs><filter height="300%" id="f1ddbg9kf6a926" width="300%" x="-1" y="-1"><feGaussianBlur result="blurOut" stdDeviation="2.0"/><feColorMatrix in="blurOut" result="blurOut2" type="matrix" values="0 0 0 0 0 0 0 0 0 0 0 0 0 0 0 0 0 0 .4 0"/><feOffset dx="4.0" dy="4.0" in="blurOut2" result="blurOut3"/><feBlend in="SourceGraphic" in2="blurOut3" mode="normal"/></filter></defs><g><!--MD5=[3e281e6f49e0b185d62a106a5d994a08]
cluster edu.oakland.production.display01--><polygon fill="#FFFFFF" filter="url(#f1ddbg9kf6a926)" points="22,24,295,24,302,46.2969,510,46.2969,510,413,22,413,22,24" style="stroke: #000000; stroke-width: 1.5;"/><line style="stroke: #000000; stroke-width: 1.5;" x1="22" x2="302" y1="46.2969" y2="46.2969"/><text fill="#000000" font-family="sans-serif" font-size="14" font-weight="bold" lengthAdjust="spacingAndGlyphs" textLength="267" x="26" y="38.9951">edu.oakland.production.display01</text><!--MD5=[d02020cdc9562d037d87b751d110dd8b]
cluster edu.oakland.helper.display01--><polygon fill="#FFFFFF" filter="url(#f1ddbg9kf6a926)" points="42,437,280,437,287,459.2969,490,459.2969,490,600,42,600,42,437" style="stroke: #000000; stroke-width: 1.5;"/><line style="stroke: #000000; stroke-width: 1.5;" x1="42" x2="287" y1="459.2969" y2="459.2969"/><text fill="#000000" font-family="sans-serif" font-size="14" font-weight="bold" lengthAdjust="spacingAndGlyphs" textLength="232" x="46" y="451.9951">edu.oakland.helper.display01</text><!--MD5=[85db0a5b69c4b55d7b0101612d8a7890]
class DisplayGpsManagerImplementation--><rect fill="#FEFECE" filter="url(#f1ddbg9kf6a926)" height="171.2422" id="DisplayGpsManagerImplementation" style="stroke: #A80036; stroke-width: 1.5;" width="457" x="37.5" y="226"/><ellipse cx="151.75" cy="242" fill="#ADD1B2" rx="11" ry="11" style="stroke: #A80036; stroke-width: 1.0;"/><path d="M154.7188,247.6406 Q154.1406,247.9375 153.5,248.0781 Q152.8594,248.2344 152.1563,248.2344 Q149.6563,248.2344 148.3281,246.5938 Q147.0156,244.9375 147.0156,241.8125 Q147.0156,238.6875 148.3281,237.0313 Q149.6563,235.375 152.1563,235.375 Q152.8594,235.375 153.5,235.5313 Q154.1563,235.6875 154.7188,235.9844 L154.7188,238.7031 Q154.0938,238.125 153.5,237.8594 Q152.9063,237.5781 152.2813,237.5781 Q150.9375,237.5781 150.25,238.6563 Q149.5625,239.7188 149.5625,241.8125 Q149.5625,243.9063 150.25,244.9844 Q150.9375,246.0469 152.2813,246.0469 Q152.9063,246.0469 153.5,245.7813 Q154.0938,245.5 154.7188,244.9219 L154.7188,247.6406 Z "/><text fill="#000000" font-family="sans-serif" font-size="12" lengthAdjust="spacingAndGlyphs" textLength="220" x="172.25" y="246.1543">DisplayGpsManagerImplementation</text><line style="stroke: #A80036; stroke-width: 1.5;" x1="38.5" x2="493.5" y1="258" y2="258"/><rect fill="none" height="6" style="stroke: #C82930; stroke-width: 1.0;" width="6" x="45.5" y="266"/><text fill="#000000" font-family="sans-serif" font-size="11" lengthAdjust="spacingAndGlyphs" textLength="222" x="57.5" y="272.2104">MiddlewareGisInterface middlewareGis</text><line style="stroke: #A80036; stroke-width: 1.5;" x1="38.5" x2="493.5" y1="278.8047" y2="278.8047"/><ellipse cx="48.5" cy="289.8047" fill="#84BE84" rx="3" ry="3" style="stroke: #038048; stroke-width: 1.0;"/><text fill="#000000" font-family="sans-serif" font-size="11" lengthAdjust="spacingAndGlyphs" textLength="431" x="57.5" y="293.0151">DisplayGpsManagerImplementation(MiddlewareGisInterface middlewareGis)</text><ellipse cx="48.5" cy="319.4141" fill="#84BE84" rx="3" ry="3" style="stroke: #038048; stroke-width: 1.0;"/><text fill="#000000" font-family="sans-serif" font-size="11" lengthAdjust="spacingAndGlyphs" textLength="324" x="57.5" y="322.6245">String receiveGpsSignalStrength(Satellite satelliteSignal)</text><ellipse cx="48.5" cy="332.2188" fill="#84BE84" rx="3" ry="3" style="stroke: #038048; stroke-width: 1.0;"/><text fill="#000000" font-family="sans-serif" font-size="11" lengthAdjust="spacingAndGlyphs" textLength="316" x="57.5" y="335.4292">boolean EvaluateGpsSignalStrengths(int signalStrengh)</text><ellipse cx="48.5" cy="345.0234" fill="#84BE84" rx="3" ry="3" style="stroke: #038048; stroke-width: 1.0;"/><text fill="#000000" font-family="sans-serif" font-size="11" lengthAdjust="spacingAndGlyphs" textLength="271" x="57.5" y="348.2339">void passGpsSignalStrength(int signalStrength)</text><line style="stroke: #A80036; stroke-width: 1.0; stroke-dasharray: 1.0,2.0;" x1="38.5" x2="233" y1="306.0117" y2="306.0117"/><text fill="#000000" font-family="sans-serif" font-size="11" lengthAdjust="spacingAndGlyphs" textLength="66" x="233" y="309.3198">Use Case 1</text><line style="stroke: #A80036; stroke-width: 1.0; stroke-dasharray: 1.0,2.0;" x1="299" x2="493.5" y1="306.0117" y2="306.0117"/><ellipse cx="48.5" cy="374.6328" fill="#84BE84" rx="3" ry="3" style="stroke: #038048; stroke-width: 1.0;"/><text fill="#000000" font-family="sans-serif" font-size="11" lengthAdjust="spacingAndGlyphs" textLength="278" x="57.5" y="377.8433">String receiveGpsSignalStrength(Satellite signal)</text><ellipse cx="48.5" cy="387.4375" fill="#84BE84" rx="3" ry="3" style="stroke: #038048; stroke-width: 1.0;"/><text fill="#000000" font-family="sans-serif" font-size="11" lengthAdjust="spacingAndGlyphs" textLength="424" x="57.5" y="390.6479">SatelliteSignalCheckRequest passGpsSignalStrength(String satelliteName)</text><line style="stroke: #A80036; stroke-width: 1.0; stroke-dasharray: 1.0,2.0;" x1="38.5" x2="233" y1="361.2305" y2="361.2305"/><text fill="#000000" font-family="sans-serif" font-size="11" lengthAdjust="spacingAndGlyphs" textLength="66" x="233" y="364.5386">Use Case 2</text><line style="stroke: #A80036; stroke-width: 1.0; stroke-dasharray: 1.0,2.0;" x1="299" x2="493.5" y1="361.2305" y2="361.2305"/><!--MD5=[31cbac78761b59e73153a97a452ed09a]
class DisplayGpsManager--><rect fill="#FEFECE" filter="url(#f1ddbg9kf6a926)" height="107.2188" id="DisplayGpsManager" style="stroke: #A80036; stroke-width: 1.5;" width="441" x="45.5" y="59"/><ellipse cx="200.75" cy="75" fill="#B4A7E5" rx="11" ry="11" style="stroke: #A80036; stroke-width: 1.0;"/><path d="M196.6719,70.7656 L196.6719,68.6094 L204.0625,68.6094 L204.0625,70.7656 L201.5938,70.7656 L201.5938,78.8438 L204.0625,78.8438 L204.0625,81 L196.6719,81 L196.6719,78.8438 L199.1406,78.8438 L199.1406,70.7656 L196.6719,70.7656 Z "/><text fill="#000000" font-family="sans-serif" font-size="12" font-style="italic" lengthAdjust="spacingAndGlyphs" textLength="122" x="221.25" y="79.1543">DisplayGpsManager</text><line style="stroke: #A80036; stroke-width: 1.5;" x1="46.5" x2="485.5" y1="91" y2="91"/><line style="stroke: #A80036; stroke-width: 1.5;" x1="46.5" x2="485.5" y1="99" y2="99"/><ellipse cx="56.5" cy="126.8047" fill="#84BE84" rx="3" ry="3" style="stroke: #038048; stroke-width: 1.0;"/><text fill="#000000" font-family="sans-serif" font-size="11" font-style="italic" lengthAdjust="spacingAndGlyphs" textLength="318" x="65.5" y="130.0151">String receiveGpsSignalStrength(Satellite satelliteSignal)</text><line style="stroke: #A80036; stroke-width: 1.0; stroke-dasharray: 1.0,2.0;" x1="46.5" x2="233" y1="113.4023" y2="113.4023"/><text fill="#000000" font-family="sans-serif" font-size="11" lengthAdjust="spacingAndGlyphs" textLength="66" x="233" y="116.7104">Use Case 1</text><line style="stroke: #A80036; stroke-width: 1.0; stroke-dasharray: 1.0,2.0;" x1="299" x2="485.5" y1="113.4023" y2="113.4023"/><ellipse cx="56.5" cy="156.4141" fill="#84BE84" rx="3" ry="3" style="stroke: #038048; stroke-width: 1.0;"/><text fill="#000000" font-family="sans-serif" font-size="11" font-style="italic" lengthAdjust="spacingAndGlyphs" textLength="415" x="65.5" y="159.6245">SatelliteSignalCheckRequest passGpsSignalStrength(String satelliteName)</text><line style="stroke: #A80036; stroke-width: 1.0; stroke-dasharray: 1.0,2.0;" x1="46.5" x2="233" y1="143.0117" y2="143.0117"/><text fill="#000000" font-family="sans-serif" font-size="11" lengthAdjust="spacingAndGlyphs" textLength="66" x="233" y="146.3198">Use Case 2</text><line style="stroke: #A80036; stroke-width: 1.0; stroke-dasharray: 1.0,2.0;" x1="299" x2="485.5" y1="143.0117" y2="143.0117"/><!--MD5=[b7db7f9e4ca1b2f55d32a1a48f9dd068]
class SatelliteSignalCheckRequest--><rect fill="#FEFECE" filter="url(#f1ddbg9kf6a926)" height="112.0234" id="SatelliteSignalCheckRequest" style="stroke: #A80036; stroke-width: 1.5;" width="416" x="58" y="472"/><ellipse cx="172.25" cy="488" fill="#ADD1B2" rx="11" ry="11" style="stroke: #A80036; stroke-width: 1.0;"/><path d="M175.2188,493.6406 Q174.6406,493.9375 174,494.0781 Q173.3594,494.2344 172.6563,494.2344 Q170.1563,494.2344 168.8281,492.5938 Q167.5156,490.9375 167.5156,487.8125 Q167.5156,484.6875 168.8281,483.0313 Q170.1563,481.375 172.6563,481.375 Q173.3594,481.375 174,481.5313 Q174.6563,481.6875 175.2188,481.9844 L175.2188,484.7031 Q174.5938,484.125 174,483.8594 Q173.4063,483.5781 172.7813,483.5781 Q171.4375,483.5781 170.75,484.6563 Q170.0625,485.7188 170.0625,487.8125 Q170.0625,489.9063 170.75,490.9844 Q171.4375,492.0469 172.7813,492.0469 Q173.4063,492.0469 174,491.7813 Q174.5938,491.5 175.2188,490.9219 L175.2188,493.6406 Z "/><text fill="#000000" font-family="sans-serif" font-size="12" lengthAdjust="spacingAndGlyphs" textLength="179" x="192.75" y="492.1543">SatelliteSignalCheckRequest</text><line style="stroke: #A80036; stroke-width: 1.5;" x1="59" x2="473" y1="504" y2="504"/><rect fill="none" height="6" style="stroke: #C82930; stroke-width: 1.0;" width="6" x="66" y="512"/><text fill="#000000" font-family="sans-serif" font-size="11" lengthAdjust="spacingAndGlyphs" textLength="116" x="78" y="518.2104">String satelliteName</text><rect fill="none" height="6" style="stroke: #C82930; stroke-width: 1.0;" width="6" x="66" y="524.8047"/><text fill="#000000" font-family="sans-serif" font-size="11" lengthAdjust="spacingAndGlyphs" textLength="97" x="78" y="531.0151">String checkType</text><line style="stroke: #A80036; stroke-width: 1.5;" x1="59" x2="473" y1="537.6094" y2="537.6094"/><ellipse cx="69" cy="548.6094" fill="#84BE84" rx="3" ry="3" style="stroke: #038048; stroke-width: 1.0;"/><text fill="#000000" font-family="sans-serif" font-size="11" lengthAdjust="spacingAndGlyphs" textLength="390" x="78" y="551.8198">SatelliteSignalCheckRequest(String satelliteName, String checkType)</text><ellipse cx="69" cy="561.4141" fill="#84BE84" rx="3" ry="3" style="stroke: #038048; stroke-width: 1.0;"/><text fill="#000000" font-family="sans-serif" font-size="11" lengthAdjust="spacingAndGlyphs" textLength="143" x="78" y="564.6245">String getSatelliteName()</text><ellipse cx="69" cy="574.2188" fill="#84BE84" rx="3" ry="3" style="stroke: #038048; stroke-width: 1.0;"/><text fill="#000000" font-family="sans-serif" font-size="11" lengthAdjust="spacingAndGlyphs" textLength="125" x="78" y="577.4292">String getCheckType()</text><!--MD5=[6be1e14f889006c5f08853113ab490e0]
reverse link DisplayGpsManager to DisplayGpsManagerImplementation--><path d="M266,186.25 C266,199.12 266,212.62 266,225.78 " fill="none" id="DisplayGpsManager&lt;-DisplayGpsManagerImplementation" style="stroke: #A80036; stroke-width: 1.0; stroke-dasharray: 7.0,7.0;"/><polygon fill="none" points="259,186.03,266,166.03,273,186.03,259,186.03" style="stroke: #A80036; stroke-width: 1.0;"/><!--MD5=[7c1409244f780a6c86a58e8dd70df14d]
link DisplayGpsManagerImplementation to SatelliteSignalCheckRequest--><path d="M266,397.28 C266,420.48 266,445.15 266,466.67 " fill="none" id="DisplayGpsManagerImplementation-&gt;SatelliteSignalCheckRequest" style="stroke: #A80036; stroke-width: 1.0; stroke-dasharray: 7.0,7.0;"/><polygon fill="#A80036" points="266,471.79,270,462.79,266,466.79,262,462.79,266,471.79" style="stroke: #A80036; stroke-width: 1.0;"/><!--MD5=[8bac0dad29dd328de559bc82d2215531]
@startuml DisplayGpsManagerImplementation_Closure


package edu.oakland.production.display01 {
  class DisplayGpsManagerImplementation {
    - MiddlewareGisInterface middlewareGis
   __
    + DisplayGpsManagerImplementation(MiddlewareGisInterface middlewareGis)
    .. Use Case 1 ..
    + String receiveGpsSignalStrength(Satellite satelliteSignal)
    + boolean EvaluateGpsSignalStrengths(int signalStrengh)
    + void passGpsSignalStrength(int signalStrength)
    .. Use Case 2 ..
    + String receiveGpsSignalStrength(Satellite signal)
    + SatelliteSignalCheckRequest passGpsSignalStrength(String satelliteName)
    }
}




package edu.oakland.production.display01 {
    interface DisplayGpsManager {
        __
        .. Use Case 1 ..
        {abstract} + String receiveGpsSignalStrength(Satellite satelliteSignal)
        .. Use Case 2 ..
        {abstract} + SatelliteSignalCheckRequest passGpsSignalStrength(String satelliteName)
    }
}






DisplayGpsManagerImplementation .up.|> DisplayGpsManager



package edu.oakland.helper.display01 {
    class SatelliteSignalCheckRequest {
        - String satelliteName
        - String checkType
        + SatelliteSignalCheckRequest(String satelliteName, String checkType)
        + String getSatelliteName()
        + String getCheckType()
    }
}






DisplayGpsManagerImplementation ..> SatelliteSignalCheckRequest



@enduml

PlantUML version 1.2020.02(Sun Mar 01 10:22:07 GMT 2020)
(GPL source distribution)
Java Runtime: OpenJDK Runtime Environment
JVM: OpenJDK 64-Bit Server VM
Java Version: 11.0.9+11-Ubuntu-0ubuntu1
Operating System: Linux
Default Encoding: ANSI_X3.4-1968
Language: en
Country: US
--></g></svg>