<?xml version="1.0" encoding="UTF-8" standalone="no"?><svg xmlns="http://www.w3.org/2000/svg" xmlns:xlink="http://www.w3.org/1999/xlink" contentScriptType="application/ecmascript" contentStyleType="text/css" height="361px" preserveAspectRatio="none" style="width:518px;height:361px;" version="1.1" viewBox="0 0 518 361" width="518px" zoomAndPan="magnify"><defs><filter height="300%" id="f3ea4m13nvv1t" width="300%" x="-1" y="-1"><feGaussianBlur result="blurOut" stdDeviation="2.0"/><feColorMatrix in="blurOut" result="blurOut2" type="matrix" values="0 0 0 0 0 0 0 0 0 0 0 0 0 0 0 0 0 0 .4 0"/><feOffset dx="4.0" dy="4.0" in="blurOut2" result="blurOut3"/><feBlend in="SourceGraphic" in2="blurOut3" mode="normal"/></filter></defs><g><!--MD5=[3e281e6f49e0b185d62a106a5d994a08]
cluster edu.oakland.production.display01--><polygon fill="#FFFFFF" filter="url(#f3ea4m13nvv1t)" points="22,24,295,24,302,46.2969,496,46.2969,496,349,22,349,22,24" style="stroke: #000000; stroke-width: 1.5;"/><line style="stroke: #000000; stroke-width: 1.5;" x1="22" x2="302" y1="46.2969" y2="46.2969"/><text fill="#000000" font-family="sans-serif" font-size="14" font-weight="bold" lengthAdjust="spacingAndGlyphs" textLength="267" x="26" y="38.9951">edu.oakland.production.display01</text><!--MD5=[85db0a5b69c4b55d7b0101612d8a7890]
class DisplayGpsManagerImplementation--><rect fill="#FEFECE" filter="url(#f3ea4m13nvv1t)" height="107.2188" id="DisplayGpsManagerImplementation" style="stroke: #A80036; stroke-width: 1.5;" width="252" x="133" y="226"/><ellipse cx="148" cy="242" fill="#ADD1B2" rx="11" ry="11" style="stroke: #A80036; stroke-width: 1.0;"/><path d="M150.9688,247.6406 Q150.3906,247.9375 149.75,248.0781 Q149.1094,248.2344 148.4063,248.2344 Q145.9063,248.2344 144.5781,246.5938 Q143.2656,244.9375 143.2656,241.8125 Q143.2656,238.6875 144.5781,237.0313 Q145.9063,235.375 148.4063,235.375 Q149.1094,235.375 149.75,235.5313 Q150.4063,235.6875 150.9688,235.9844 L150.9688,238.7031 Q150.3438,238.125 149.75,237.8594 Q149.1563,237.5781 148.5313,237.5781 Q147.1875,237.5781 146.5,238.6563 Q145.8125,239.7188 145.8125,241.8125 Q145.8125,243.9063 146.5,244.9844 Q147.1875,246.0469 148.5313,246.0469 Q149.1563,246.0469 149.75,245.7813 Q150.3438,245.5 150.9688,244.9219 L150.9688,247.6406 Z "/><text fill="#000000" font-family="sans-serif" font-size="12" lengthAdjust="spacingAndGlyphs" textLength="220" x="162" y="246.1543">DisplayGpsManagerImplementation</text><line style="stroke: #A80036; stroke-width: 1.5;" x1="134" x2="384" y1="258" y2="258"/><line style="stroke: #A80036; stroke-width: 1.5;" x1="134" x2="384" y1="266" y2="266"/><text fill="#000000" font-family="sans-serif" font-size="11" lengthAdjust="spacingAndGlyphs" textLength="0" x="143" y="297.0151"/><line style="stroke: #A80036; stroke-width: 1.0; stroke-dasharray: 1.0,2.0;" x1="134" x2="226" y1="280.4023" y2="280.4023"/><text fill="#000000" font-family="sans-serif" font-size="11" lengthAdjust="spacingAndGlyphs" textLength="66" x="226" y="283.7104">Use Case 1</text><line style="stroke: #A80036; stroke-width: 1.0; stroke-dasharray: 1.0,2.0;" x1="292" x2="384" y1="280.4023" y2="280.4023"/><text fill="#000000" font-family="sans-serif" font-size="11" lengthAdjust="spacingAndGlyphs" textLength="0" x="143" y="326.6245"/><line style="stroke: #A80036; stroke-width: 1.0; stroke-dasharray: 1.0,2.0;" x1="134" x2="226" y1="310.0117" y2="310.0117"/><text fill="#000000" font-family="sans-serif" font-size="11" lengthAdjust="spacingAndGlyphs" textLength="66" x="226" y="313.3198">Use Case 2</text><line style="stroke: #A80036; stroke-width: 1.0; stroke-dasharray: 1.0,2.0;" x1="292" x2="384" y1="310.0117" y2="310.0117"/><!--MD5=[31cbac78761b59e73153a97a452ed09a]
class DisplayGpsManager--><rect fill="#FEFECE" filter="url(#f3ea4m13nvv1t)" height="107.2188" id="DisplayGpsManager" style="stroke: #A80036; stroke-width: 1.5;" width="441" x="38.5" y="59"/><ellipse cx="193.75" cy="75" fill="#B4A7E5" rx="11" ry="11" style="stroke: #A80036; stroke-width: 1.0;"/><path d="M189.6719,70.7656 L189.6719,68.6094 L197.0625,68.6094 L197.0625,70.7656 L194.5938,70.7656 L194.5938,78.8438 L197.0625,78.8438 L197.0625,81 L189.6719,81 L189.6719,78.8438 L192.1406,78.8438 L192.1406,70.7656 L189.6719,70.7656 Z "/><text fill="#000000" font-family="sans-serif" font-size="12" font-style="italic" lengthAdjust="spacingAndGlyphs" textLength="122" x="214.25" y="79.1543">DisplayGpsManager</text><line style="stroke: #A80036; stroke-width: 1.5;" x1="39.5" x2="478.5" y1="91" y2="91"/><line style="stroke: #A80036; stroke-width: 1.5;" x1="39.5" x2="478.5" y1="99" y2="99"/><ellipse cx="49.5" cy="126.8047" fill="#84BE84" rx="3" ry="3" style="stroke: #038048; stroke-width: 1.0;"/><text fill="#000000" font-family="sans-serif" font-size="11" font-style="italic" lengthAdjust="spacingAndGlyphs" textLength="324" x="58.5" y="130.0151">String receiveGpsSignalStrengths(Satellite satelliteSignal)</text><line style="stroke: #A80036; stroke-width: 1.0; stroke-dasharray: 1.0,2.0;" x1="39.5" x2="226" y1="113.4023" y2="113.4023"/><text fill="#000000" font-family="sans-serif" font-size="11" lengthAdjust="spacingAndGlyphs" textLength="66" x="226" y="116.7104">Use Case 1</text><line style="stroke: #A80036; stroke-width: 1.0; stroke-dasharray: 1.0,2.0;" x1="292" x2="478.5" y1="113.4023" y2="113.4023"/><ellipse cx="49.5" cy="156.4141" fill="#84BE84" rx="3" ry="3" style="stroke: #038048; stroke-width: 1.0;"/><text fill="#000000" font-family="sans-serif" font-size="11" font-style="italic" lengthAdjust="spacingAndGlyphs" textLength="415" x="58.5" y="159.6245">SatelliteSignalCheckRequest passGpsSignalStrength(String satelliteName)</text><line style="stroke: #A80036; stroke-width: 1.0; stroke-dasharray: 1.0,2.0;" x1="39.5" x2="226" y1="143.0117" y2="143.0117"/><text fill="#000000" font-family="sans-serif" font-size="11" lengthAdjust="spacingAndGlyphs" textLength="66" x="226" y="146.3198">Use Case 2</text><line style="stroke: #A80036; stroke-width: 1.0; stroke-dasharray: 1.0,2.0;" x1="292" x2="478.5" y1="143.0117" y2="143.0117"/><!--MD5=[6be1e14f889006c5f08853113ab490e0]
reverse link DisplayGpsManager to DisplayGpsManagerImplementation--><path d="M259,186.48 C259,199.71 259,213.27 259,225.77 " fill="none" id="DisplayGpsManager&lt;-DisplayGpsManagerImplementation" style="stroke: #A80036; stroke-width: 1.0; stroke-dasharray: 7.0,7.0;"/><polygon fill="none" points="252,186.16,259,166.16,266,186.16,252,186.16" style="stroke: #A80036; stroke-width: 1.0;"/><!--MD5=[71cdf6d65e8d38da5186f3e71a2655c2]
@startuml DisplayGpsManagerImplementation_DirectDependencies


package edu.oakland.production.display01 {
    class DisplayGpsManagerImplementation {
        __
        .. Use Case 1 ..

        .. Use Case 2 ..

    }
}



package edu.oakland.production.display01 {
    interface DisplayGpsManager {
        __
        .. Use Case 1 ..
        {abstract} + String receiveGpsSignalStrengths(Satellite satelliteSignal)
        .. Use Case 2 ..
        {abstract} + SatelliteSignalCheckRequest passGpsSignalStrength(String satelliteName)
    }
}

DisplayGpsManagerImplementation .up.|> DisplayGpsManager





@enduml

PlantUML version 1.2020.02(Sun Mar 01 10:22:07 GMT 2020)
(GPL source distribution)
Java Runtime: OpenJDK Runtime Environment
JVM: OpenJDK 64-Bit Server VM
Java Version: 11.0.9+11-Ubuntu-0ubuntu1
Operating System: Linux
Default Encoding: ANSI_X3.4-1968
Language: en
Country: US
--></g></svg>