<?xml version="1.0" encoding="UTF-8" standalone="no"?><svg xmlns="http://www.w3.org/2000/svg" xmlns:xlink="http://www.w3.org/1999/xlink" contentScriptType="application/ecmascript" contentStyleType="text/css" height="532px" preserveAspectRatio="none" style="width:3256px;height:532px;" version="1.1" viewBox="0 0 3256 532" width="3256px" zoomAndPan="magnify"><defs><filter height="300%" id="f1bg5ikm8fw5h" width="300%" x="-1" y="-1"><feGaussianBlur result="blurOut" stdDeviation="2.0"/><feColorMatrix in="blurOut" result="blurOut2" type="matrix" values="0 0 0 0 0 0 0 0 0 0 0 0 0 0 0 0 0 0 .4 0"/><feOffset dx="4.0" dy="4.0" in="blurOut2" result="blurOut3"/><feBlend in="SourceGraphic" in2="blurOut3" mode="normal"/></filter></defs><g><!--MD5=[3f116dbe56326f0321b4f8703f3bd2bd]
cluster edu.oakland.production.middleware01--><polygon fill="#FFFFFF" filter="url(#f1bg5ikm8fw5h)" points="22,64.5,332,64.5,339,86.7969,1704,86.7969,1704,520,22,520,22,64.5" style="stroke: #000000; stroke-width: 1.5;"/><line style="stroke: #000000; stroke-width: 1.5;" x1="22" x2="339" y1="86.7969" y2="86.7969"/><text fill="#000000" font-family="sans-serif" font-size="14" font-weight="bold" lengthAdjust="spacingAndGlyphs" textLength="304" x="26" y="79.4951">edu.oakland.production.middleware01</text><!--MD5=[91c45ac7eb5545a65ecec592fddfa5fd]
cluster edu.oakland.test.middleware01--><polygon fill="#FFFFFF" filter="url(#f1bg5ikm8fw5h)" points="1728,24,1983,24,1990,46.2969,2930,46.2969,2930,501,1728,501,1728,24" style="stroke: #000000; stroke-width: 1.5;"/><line style="stroke: #000000; stroke-width: 1.5;" x1="1728" x2="1990" y1="46.2969" y2="46.2969"/><text fill="#000000" font-family="sans-serif" font-size="14" font-weight="bold" lengthAdjust="spacingAndGlyphs" textLength="249" x="1732" y="38.9951">edu.oakland.test.middleware01</text><!--MD5=[291cbaddec1abeb2a8a54e5a343c76e9]
class MiddlewareGisInterface--><rect fill="#FEFECE" filter="url(#f1bg5ikm8fw5h)" height="107.2188" id="MiddlewareGisInterface" style="stroke: #A80036; stroke-width: 1.5;" width="344" x="138" y="112.5"/><ellipse cx="232.75" cy="128.5" fill="#B4A7E5" rx="11" ry="11" style="stroke: #A80036; stroke-width: 1.0;"/><path d="M228.6719,124.2656 L228.6719,122.1094 L236.0625,122.1094 L236.0625,124.2656 L233.5938,124.2656 L233.5938,132.3438 L236.0625,132.3438 L236.0625,134.5 L228.6719,134.5 L228.6719,132.3438 L231.1406,132.3438 L231.1406,124.2656 L228.6719,124.2656 Z "/><text fill="#000000" font-family="sans-serif" font-size="12" font-style="italic" lengthAdjust="spacingAndGlyphs" textLength="146" x="253.25" y="132.6543">MiddlewareGisInterface</text><line style="stroke: #A80036; stroke-width: 1.5;" x1="139" x2="481" y1="144.5" y2="144.5"/><line style="stroke: #A80036; stroke-width: 1.5;" x1="139" x2="481" y1="152.5" y2="152.5"/><ellipse cx="149" cy="180.3047" fill="#84BE84" rx="3" ry="3" style="stroke: #038048; stroke-width: 1.0;"/><text fill="#000000" font-family="sans-serif" font-size="11" font-style="italic" lengthAdjust="spacingAndGlyphs" textLength="318" x="158" y="183.5151">String receiveGpsSignalStrength(Satellite satelliteSignal)</text><line style="stroke: #A80036; stroke-width: 1.0; stroke-dasharray: 1.0,2.0;" x1="139" x2="277" y1="166.9023" y2="166.9023"/><text fill="#000000" font-family="sans-serif" font-size="11" lengthAdjust="spacingAndGlyphs" textLength="66" x="277" y="170.2104">Use Case 1</text><line style="stroke: #A80036; stroke-width: 1.0; stroke-dasharray: 1.0,2.0;" x1="343" x2="481" y1="166.9023" y2="166.9023"/><ellipse cx="149" cy="209.9141" fill="#84BE84" rx="3" ry="3" style="stroke: #038048; stroke-width: 1.0;"/><text fill="#000000" font-family="sans-serif" font-size="11" font-style="italic" lengthAdjust="spacingAndGlyphs" textLength="318" x="158" y="213.1245">String receiveGpsSignalStrength(Satellite satelliteSignal)</text><line style="stroke: #A80036; stroke-width: 1.0; stroke-dasharray: 1.0,2.0;" x1="139" x2="277" y1="196.5117" y2="196.5117"/><text fill="#000000" font-family="sans-serif" font-size="11" lengthAdjust="spacingAndGlyphs" textLength="66" x="277" y="199.8198">Use Case 2</text><line style="stroke: #A80036; stroke-width: 1.0; stroke-dasharray: 1.0,2.0;" x1="343" x2="481" y1="196.5117" y2="196.5117"/><!--MD5=[8ee200b6efa8fed886485614c0f8779a]
class MiddlewareGisProcessor--><rect fill="#FEFECE" filter="url(#f1bg5ikm8fw5h)" height="107.2188" id="MiddlewareGisProcessor" style="stroke: #A80036; stroke-width: 1.5;" width="352" x="517" y="112.5"/><ellipse cx="614.25" cy="128.5" fill="#B4A7E5" rx="11" ry="11" style="stroke: #A80036; stroke-width: 1.0;"/><path d="M610.1719,124.2656 L610.1719,122.1094 L617.5625,122.1094 L617.5625,124.2656 L615.0938,124.2656 L615.0938,132.3438 L617.5625,132.3438 L617.5625,134.5 L610.1719,134.5 L610.1719,132.3438 L612.6406,132.3438 L612.6406,124.2656 L610.1719,124.2656 Z "/><text fill="#000000" font-family="sans-serif" font-size="12" font-style="italic" lengthAdjust="spacingAndGlyphs" textLength="149" x="634.75" y="132.6543">MiddlewareGisProcessor</text><line style="stroke: #A80036; stroke-width: 1.5;" x1="518" x2="868" y1="144.5" y2="144.5"/><line style="stroke: #A80036; stroke-width: 1.5;" x1="518" x2="868" y1="152.5" y2="152.5"/><ellipse cx="528" cy="180.3047" fill="#84BE84" rx="3" ry="3" style="stroke: #038048; stroke-width: 1.0;"/><text fill="#000000" font-family="sans-serif" font-size="11" font-style="italic" lengthAdjust="spacingAndGlyphs" textLength="325" x="537" y="183.5151">String evaluateGpsSignalStrength(Satellite satelliteSignal)</text><line style="stroke: #A80036; stroke-width: 1.0; stroke-dasharray: 1.0,2.0;" x1="518" x2="660" y1="166.9023" y2="166.9023"/><text fill="#000000" font-family="sans-serif" font-size="11" lengthAdjust="spacingAndGlyphs" textLength="66" x="660" y="170.2104">Use Case 1</text><line style="stroke: #A80036; stroke-width: 1.0; stroke-dasharray: 1.0,2.0;" x1="726" x2="868" y1="166.9023" y2="166.9023"/><ellipse cx="528" cy="209.9141" fill="#84BE84" rx="3" ry="3" style="stroke: #038048; stroke-width: 1.0;"/><text fill="#000000" font-family="sans-serif" font-size="11" font-style="italic" lengthAdjust="spacingAndGlyphs" textLength="326" x="537" y="213.1245">String measureGpsSignalStrength(Satellite satelliteSignal)</text><line style="stroke: #A80036; stroke-width: 1.0; stroke-dasharray: 1.0,2.0;" x1="518" x2="660" y1="196.5117" y2="196.5117"/><text fill="#000000" font-family="sans-serif" font-size="11" lengthAdjust="spacingAndGlyphs" textLength="66" x="660" y="199.8198">Use Case 2</text><line style="stroke: #A80036; stroke-width: 1.0; stroke-dasharray: 1.0,2.0;" x1="726" x2="868" y1="196.5117" y2="196.5117"/><!--MD5=[6b8f2796bf9a05cb61532ec918b7c92e]
class MiddlewareGisManager--><rect fill="#FEFECE" filter="url(#f1bg5ikm8fw5h)" height="132.8281" id="MiddlewareGisManager" style="stroke: #A80036; stroke-width: 1.5;" width="351" x="904.5" y="99.5"/><ellipse cx="1003.75" cy="115.5" fill="#B4A7E5" rx="11" ry="11" style="stroke: #A80036; stroke-width: 1.0;"/><path d="M999.6719,111.2656 L999.6719,109.1094 L1007.0625,109.1094 L1007.0625,111.2656 L1004.5938,111.2656 L1004.5938,119.3438 L1007.0625,119.3438 L1007.0625,121.5 L999.6719,121.5 L999.6719,119.3438 L1002.1406,119.3438 L1002.1406,111.2656 L999.6719,111.2656 Z "/><text fill="#000000" font-family="sans-serif" font-size="12" font-style="italic" lengthAdjust="spacingAndGlyphs" textLength="144" x="1024.25" y="119.6543">MiddlewareGisManager</text><line style="stroke: #A80036; stroke-width: 1.5;" x1="905.5" x2="1254.5" y1="131.5" y2="131.5"/><line style="stroke: #A80036; stroke-width: 1.5;" x1="905.5" x2="1254.5" y1="139.5" y2="139.5"/><ellipse cx="915.5" cy="167.3047" fill="#84BE84" rx="3" ry="3" style="stroke: #038048; stroke-width: 1.0;"/><text fill="#000000" font-family="sans-serif" font-size="11" font-style="italic" lengthAdjust="spacingAndGlyphs" textLength="325" x="924.5" y="170.5151">String receieveGpsSignalStrength(Satellite satelliteSignal)</text><ellipse cx="915.5" cy="180.1094" fill="#84BE84" rx="3" ry="3" style="stroke: #038048; stroke-width: 1.0;"/><text fill="#000000" font-family="sans-serif" font-size="11" font-style="italic" lengthAdjust="spacingAndGlyphs" textLength="166" x="924.5" y="183.3198">void storeLocationDataPoint()</text><line style="stroke: #A80036; stroke-width: 1.0; stroke-dasharray: 1.0,2.0;" x1="905.5" x2="1047" y1="153.9023" y2="153.9023"/><text fill="#000000" font-family="sans-serif" font-size="11" lengthAdjust="spacingAndGlyphs" textLength="66" x="1047" y="157.2104">Use Case 1</text><line style="stroke: #A80036; stroke-width: 1.0; stroke-dasharray: 1.0,2.0;" x1="1113" x2="1254.5" y1="153.9023" y2="153.9023"/><ellipse cx="915.5" cy="209.7188" fill="#84BE84" rx="3" ry="3" style="stroke: #038048; stroke-width: 1.0;"/><text fill="#000000" font-family="sans-serif" font-size="11" font-style="italic" lengthAdjust="spacingAndGlyphs" textLength="303" x="924.5" y="212.9292">String attemptToRegainGpsLock(String satelliteName)</text><ellipse cx="915.5" cy="222.5234" fill="#84BE84" rx="3" ry="3" style="stroke: #038048; stroke-width: 1.0;"/><text fill="#000000" font-family="sans-serif" font-size="11" font-style="italic" lengthAdjust="spacingAndGlyphs" textLength="308" x="924.5" y="225.7339">String evaluateGpsSignalStrength(boolean signalValid)</text><line style="stroke: #A80036; stroke-width: 1.0; stroke-dasharray: 1.0,2.0;" x1="905.5" x2="1047" y1="196.3164" y2="196.3164"/><text fill="#000000" font-family="sans-serif" font-size="11" lengthAdjust="spacingAndGlyphs" textLength="66" x="1047" y="199.6245">Use Case 2</text><line style="stroke: #A80036; stroke-width: 1.0; stroke-dasharray: 1.0,2.0;" x1="1113" x2="1254.5" y1="196.3164" y2="196.3164"/><!--MD5=[00cae90dad3d6433dbf28d238006c643]
class MiddlewareGisInterfaceImplementation--><rect fill="#FEFECE" filter="url(#f1bg5ikm8fw5h)" height="132.8281" id="MiddlewareGisInterfaceImplementation" style="stroke: #A80036; stroke-width: 1.5;" width="543" x="38.5" y="352"/><ellipse cx="184.75" cy="368" fill="#ADD1B2" rx="11" ry="11" style="stroke: #A80036; stroke-width: 1.0;"/><path d="M187.7188,373.6406 Q187.1406,373.9375 186.5,374.0781 Q185.8594,374.2344 185.1563,374.2344 Q182.6563,374.2344 181.3281,372.5938 Q180.0156,370.9375 180.0156,367.8125 Q180.0156,364.6875 181.3281,363.0313 Q182.6563,361.375 185.1563,361.375 Q185.8594,361.375 186.5,361.5313 Q187.1563,361.6875 187.7188,361.9844 L187.7188,364.7031 Q187.0938,364.125 186.5,363.8594 Q185.9063,363.5781 185.2813,363.5781 Q183.9375,363.5781 183.25,364.6563 Q182.5625,365.7188 182.5625,367.8125 Q182.5625,369.9063 183.25,370.9844 Q183.9375,372.0469 185.2813,372.0469 Q185.9063,372.0469 186.5,371.7813 Q187.0938,371.5 187.7188,370.9219 L187.7188,373.6406 Z "/><text fill="#000000" font-family="sans-serif" font-size="12" lengthAdjust="spacingAndGlyphs" textLength="242" x="205.25" y="372.1543">MiddlewareGisInterfaceImplementation</text><line style="stroke: #A80036; stroke-width: 1.5;" x1="39.5" x2="580.5" y1="384" y2="384"/><rect fill="none" height="6" style="stroke: #C82930; stroke-width: 1.0;" width="6" x="46.5" y="392"/><text fill="#000000" font-family="sans-serif" font-size="11" lengthAdjust="spacingAndGlyphs" textLength="288" x="58.5" y="398.2104">MiddlewareGisProcessor middlewareGisProcessor</text><line style="stroke: #A80036; stroke-width: 1.5;" x1="39.5" x2="580.5" y1="404.8047" y2="404.8047"/><ellipse cx="49.5" cy="415.8047" fill="#84BE84" rx="3" ry="3" style="stroke: #038048; stroke-width: 1.0;"/><text fill="#000000" font-family="sans-serif" font-size="11" lengthAdjust="spacingAndGlyphs" textLength="517" x="58.5" y="419.0151">MiddlewareGisInterfaceImplementation(MiddlewareGisProcessor middlewareGisProcessor)</text><ellipse cx="49.5" cy="445.4141" fill="#84BE84" rx="3" ry="3" style="stroke: #038048; stroke-width: 1.0;"/><text fill="#000000" font-family="sans-serif" font-size="11" lengthAdjust="spacingAndGlyphs" textLength="324" x="58.5" y="448.6245">String receiveGpsSignalStrength(Satellite satelliteSignal)</text><line style="stroke: #A80036; stroke-width: 1.0; stroke-dasharray: 1.0,2.0;" x1="39.5" x2="277" y1="432.0117" y2="432.0117"/><text fill="#000000" font-family="sans-serif" font-size="11" lengthAdjust="spacingAndGlyphs" textLength="66" x="277" y="435.3198">Use Case 1</text><line style="stroke: #A80036; stroke-width: 1.0; stroke-dasharray: 1.0,2.0;" x1="343" x2="580.5" y1="432.0117" y2="432.0117"/><ellipse cx="49.5" cy="475.0234" fill="#84BE84" rx="3" ry="3" style="stroke: #038048; stroke-width: 1.0;"/><text fill="#000000" font-family="sans-serif" font-size="11" lengthAdjust="spacingAndGlyphs" textLength="324" x="58.5" y="478.2339">String receiveGpsSignalStrength(Satellite satelliteSignal)</text><line style="stroke: #A80036; stroke-width: 1.0; stroke-dasharray: 1.0,2.0;" x1="39.5" x2="277" y1="461.6211" y2="461.6211"/><text fill="#000000" font-family="sans-serif" font-size="11" lengthAdjust="spacingAndGlyphs" textLength="66" x="277" y="464.9292">Use Case 2</text><line style="stroke: #A80036; stroke-width: 1.0; stroke-dasharray: 1.0,2.0;" x1="343" x2="580.5" y1="461.6211" y2="461.6211"/><!--MD5=[5617cf6c0203deaad7dbff4f5099a816]
class MiddlewareGisProcessorImplementation--><rect fill="#FEFECE" filter="url(#f1bg5ikm8fw5h)" height="132.8281" id="MiddlewareGisProcessorImplementation" style="stroke: #A80036; stroke-width: 1.5;" width="533" x="616.5" y="352"/><ellipse cx="754.25" cy="368" fill="#ADD1B2" rx="11" ry="11" style="stroke: #A80036; stroke-width: 1.0;"/><path d="M757.2188,373.6406 Q756.6406,373.9375 756,374.0781 Q755.3594,374.2344 754.6563,374.2344 Q752.1563,374.2344 750.8281,372.5938 Q749.5156,370.9375 749.5156,367.8125 Q749.5156,364.6875 750.8281,363.0313 Q752.1563,361.375 754.6563,361.375 Q755.3594,361.375 756,361.5313 Q756.6563,361.6875 757.2188,361.9844 L757.2188,364.7031 Q756.5938,364.125 756,363.8594 Q755.4063,363.5781 754.7813,363.5781 Q753.4375,363.5781 752.75,364.6563 Q752.0625,365.7188 752.0625,367.8125 Q752.0625,369.9063 752.75,370.9844 Q753.4375,372.0469 754.7813,372.0469 Q755.4063,372.0469 756,371.7813 Q756.5938,371.5 757.2188,370.9219 L757.2188,373.6406 Z "/><text fill="#000000" font-family="sans-serif" font-size="12" lengthAdjust="spacingAndGlyphs" textLength="249" x="774.75" y="372.1543">MiddlewareGisProcessorImplementation</text><line style="stroke: #A80036; stroke-width: 1.5;" x1="617.5" x2="1148.5" y1="384" y2="384"/><rect fill="none" height="6" style="stroke: #C82930; stroke-width: 1.0;" width="6" x="624.5" y="392"/><text fill="#000000" font-family="sans-serif" font-size="11" lengthAdjust="spacingAndGlyphs" textLength="270" x="636.5" y="398.2104">MiddlewareGisManager middlewareGisManager</text><line style="stroke: #A80036; stroke-width: 1.5;" x1="617.5" x2="1148.5" y1="404.8047" y2="404.8047"/><ellipse cx="627.5" cy="415.8047" fill="#84BE84" rx="3" ry="3" style="stroke: #038048; stroke-width: 1.0;"/><text fill="#000000" font-family="sans-serif" font-size="11" lengthAdjust="spacingAndGlyphs" textLength="507" x="636.5" y="419.0151">MiddlewareGisProcessorImplementation(MiddlewareGisManager middlewareGisManager)</text><ellipse cx="627.5" cy="445.4141" fill="#84BE84" rx="3" ry="3" style="stroke: #038048; stroke-width: 1.0;"/><text fill="#000000" font-family="sans-serif" font-size="11" lengthAdjust="spacingAndGlyphs" textLength="331" x="636.5" y="448.6245">String evaluateGpsSignalStrength(Satellite satelliteSignal)</text><line style="stroke: #A80036; stroke-width: 1.0; stroke-dasharray: 1.0,2.0;" x1="617.5" x2="850" y1="432.0117" y2="432.0117"/><text fill="#000000" font-family="sans-serif" font-size="11" lengthAdjust="spacingAndGlyphs" textLength="66" x="850" y="435.3198">Use Case 1</text><line style="stroke: #A80036; stroke-width: 1.0; stroke-dasharray: 1.0,2.0;" x1="916" x2="1148.5" y1="432.0117" y2="432.0117"/><ellipse cx="627.5" cy="475.0234" fill="#84BE84" rx="3" ry="3" style="stroke: #038048; stroke-width: 1.0;"/><text fill="#000000" font-family="sans-serif" font-size="11" lengthAdjust="spacingAndGlyphs" textLength="334" x="636.5" y="478.2339">String measureGpsSignalStrength(Satellite satelliteSignal)</text><line style="stroke: #A80036; stroke-width: 1.0; stroke-dasharray: 1.0,2.0;" x1="617.5" x2="850" y1="461.6211" y2="461.6211"/><text fill="#000000" font-family="sans-serif" font-size="11" lengthAdjust="spacingAndGlyphs" textLength="66" x="850" y="464.9292">Use Case 2</text><line style="stroke: #A80036; stroke-width: 1.0; stroke-dasharray: 1.0,2.0;" x1="916" x2="1148.5" y1="461.6211" y2="461.6211"/><!--MD5=[95fb96a46a83d39a2e18236f313a92fb]
class MiddlewareGisManagerImplementation--><rect fill="#FEFECE" filter="url(#f1bg5ikm8fw5h)" height="171.2422" id="MiddlewareGisManagerImplementation" style="stroke: #A80036; stroke-width: 1.5;" width="503" x="1184.5" y="333"/><ellipse cx="1311.25" cy="349" fill="#ADD1B2" rx="11" ry="11" style="stroke: #A80036; stroke-width: 1.0;"/><path d="M1314.2188,354.6406 Q1313.6406,354.9375 1313,355.0781 Q1312.3594,355.2344 1311.6563,355.2344 Q1309.1563,355.2344 1307.8281,353.5938 Q1306.5156,351.9375 1306.5156,348.8125 Q1306.5156,345.6875 1307.8281,344.0313 Q1309.1563,342.375 1311.6563,342.375 Q1312.3594,342.375 1313,342.5313 Q1313.6563,342.6875 1314.2188,342.9844 L1314.2188,345.7031 Q1313.5938,345.125 1313,344.8594 Q1312.4063,344.5781 1311.7813,344.5781 Q1310.4375,344.5781 1309.75,345.6563 Q1309.0625,346.7188 1309.0625,348.8125 Q1309.0625,350.9063 1309.75,351.9844 Q1310.4375,353.0469 1311.7813,353.0469 Q1312.4063,353.0469 1313,352.7813 Q1313.5938,352.5 1314.2188,351.9219 L1314.2188,354.6406 Z "/><text fill="#000000" font-family="sans-serif" font-size="12" lengthAdjust="spacingAndGlyphs" textLength="241" x="1331.75" y="353.1543">MiddlewareGisManagerImplementation</text><line style="stroke: #A80036; stroke-width: 1.5;" x1="1185.5" x2="1686.5" y1="365" y2="365"/><rect fill="none" height="6" style="stroke: #C82930; stroke-width: 1.0;" width="6" x="1192.5" y="373"/><text fill="#000000" font-family="sans-serif" font-size="11" lengthAdjust="spacingAndGlyphs" textLength="249" x="1204.5" y="379.2104">DatabaseGisInterface databaseGisInterface</text><rect fill="none" height="6" style="stroke: #C82930; stroke-width: 1.0;" width="6" x="1192.5" y="385.8047"/><text fill="#000000" font-family="sans-serif" font-size="11" lengthAdjust="spacingAndGlyphs" textLength="203" x="1204.5" y="392.0151">LocationDataPoint locationDataPoint</text><line style="stroke: #A80036; stroke-width: 1.5;" x1="1185.5" x2="1686.5" y1="398.6094" y2="398.6094"/><ellipse cx="1195.5" cy="409.6094" fill="#84BE84" rx="3" ry="3" style="stroke: #038048; stroke-width: 1.0;"/><text fill="#000000" font-family="sans-serif" font-size="11" lengthAdjust="spacingAndGlyphs" textLength="477" x="1204.5" y="412.8198">MiddlewareGisManagerImplementation(DatabaseGisInterface databaseGisInterface)</text><ellipse cx="1195.5" cy="439.2188" fill="#84BE84" rx="3" ry="3" style="stroke: #038048; stroke-width: 1.0;"/><text fill="#000000" font-family="sans-serif" font-size="11" lengthAdjust="spacingAndGlyphs" textLength="331" x="1204.5" y="442.4292">String receieveGpsSignalStrength(Satellite satelliteSignal)</text><ellipse cx="1195.5" cy="452.0234" fill="#84BE84" rx="3" ry="3" style="stroke: #038048; stroke-width: 1.0;"/><text fill="#000000" font-family="sans-serif" font-size="11" lengthAdjust="spacingAndGlyphs" textLength="166" x="1204.5" y="455.2339">void storeLocationDataPoint()</text><line style="stroke: #A80036; stroke-width: 1.0; stroke-dasharray: 1.0,2.0;" x1="1185.5" x2="1403" y1="425.8164" y2="425.8164"/><text fill="#000000" font-family="sans-serif" font-size="11" lengthAdjust="spacingAndGlyphs" textLength="66" x="1403" y="429.1245">Use Case 1</text><line style="stroke: #A80036; stroke-width: 1.0; stroke-dasharray: 1.0,2.0;" x1="1469" x2="1686.5" y1="425.8164" y2="425.8164"/><ellipse cx="1195.5" cy="481.6328" fill="#84BE84" rx="3" ry="3" style="stroke: #038048; stroke-width: 1.0;"/><text fill="#000000" font-family="sans-serif" font-size="11" lengthAdjust="spacingAndGlyphs" textLength="306" x="1204.5" y="484.8433">String attemptToRegainGpsLock(String satelliteName)</text><ellipse cx="1195.5" cy="494.4375" fill="#84BE84" rx="3" ry="3" style="stroke: #038048; stroke-width: 1.0;"/><text fill="#000000" font-family="sans-serif" font-size="11" lengthAdjust="spacingAndGlyphs" textLength="311" x="1204.5" y="497.6479">String evaluateGpsSignalStrength(boolean signalValid)</text><line style="stroke: #A80036; stroke-width: 1.0; stroke-dasharray: 1.0,2.0;" x1="1185.5" x2="1403" y1="468.2305" y2="468.2305"/><text fill="#000000" font-family="sans-serif" font-size="11" lengthAdjust="spacingAndGlyphs" textLength="66" x="1403" y="471.5386">Use Case 2</text><line style="stroke: #A80036; stroke-width: 1.0; stroke-dasharray: 1.0,2.0;" x1="1469" x2="1686.5" y1="468.2305" y2="468.2305"/><!--MD5=[1d62022545d33e2b298eed7e640a6861]
class MiddlewareGisInterfaceImplementationTests--><rect fill="#FEFECE" filter="url(#f1bg5ikm8fw5h)" height="60.8047" id="MiddlewareGisInterfaceImplementationTests" style="stroke: #A80036; stroke-width: 1.5;" width="308" x="1770" y="135.5"/><ellipse cx="1785" cy="151.5" fill="#ADD1B2" rx="11" ry="11" style="stroke: #A80036; stroke-width: 1.0;"/><path d="M1787.9688,157.1406 Q1787.3906,157.4375 1786.75,157.5781 Q1786.1094,157.7344 1785.4063,157.7344 Q1782.9063,157.7344 1781.5781,156.0938 Q1780.2656,154.4375 1780.2656,151.3125 Q1780.2656,148.1875 1781.5781,146.5313 Q1782.9063,144.875 1785.4063,144.875 Q1786.1094,144.875 1786.75,145.0313 Q1787.4063,145.1875 1787.9688,145.4844 L1787.9688,148.2031 Q1787.3438,147.625 1786.75,147.3594 Q1786.1563,147.0781 1785.5313,147.0781 Q1784.1875,147.0781 1783.5,148.1563 Q1782.8125,149.2188 1782.8125,151.3125 Q1782.8125,153.4063 1783.5,154.4844 Q1784.1875,155.5469 1785.5313,155.5469 Q1786.1563,155.5469 1786.75,155.2813 Q1787.3438,155 1787.9688,154.4219 L1787.9688,157.1406 Z "/><text fill="#000000" font-family="sans-serif" font-size="12" lengthAdjust="spacingAndGlyphs" textLength="276" x="1799" y="155.6543">MiddlewareGisInterfaceImplementationTests</text><line style="stroke: #A80036; stroke-width: 1.5;" x1="1771" x2="2077" y1="167.5" y2="167.5"/><line style="stroke: #A80036; stroke-width: 1.5;" x1="1771" x2="2077" y1="175.5" y2="175.5"/><ellipse cx="1781" cy="186.5" fill="#84BE84" rx="3" ry="3" style="stroke: #038048; stroke-width: 1.0;"/><text fill="#000000" font-family="sans-serif" font-size="11" lengthAdjust="spacingAndGlyphs" textLength="183" x="1790" y="189.7104">void receiveGpsSignalStrength()</text><!--MD5=[9d979fd86c0627804733ee7219a6151e]
class MiddlewareGisProcessorImplementationTests--><rect fill="#FEFECE" filter="url(#f1bg5ikm8fw5h)" height="73.6094" id="MiddlewareGisProcessorImplementationTests" style="stroke: #A80036; stroke-width: 1.5;" width="315" x="2113.5" y="129"/><ellipse cx="2128.5" cy="145" fill="#ADD1B2" rx="11" ry="11" style="stroke: #A80036; stroke-width: 1.0;"/><path d="M2131.4688,150.6406 Q2130.8906,150.9375 2130.25,151.0781 Q2129.6094,151.2344 2128.9063,151.2344 Q2126.4063,151.2344 2125.0781,149.5938 Q2123.7656,147.9375 2123.7656,144.8125 Q2123.7656,141.6875 2125.0781,140.0313 Q2126.4063,138.375 2128.9063,138.375 Q2129.6094,138.375 2130.25,138.5313 Q2130.9063,138.6875 2131.4688,138.9844 L2131.4688,141.7031 Q2130.8438,141.125 2130.25,140.8594 Q2129.6563,140.5781 2129.0313,140.5781 Q2127.6875,140.5781 2127,141.6563 Q2126.3125,142.7188 2126.3125,144.8125 Q2126.3125,146.9063 2127,147.9844 Q2127.6875,149.0469 2129.0313,149.0469 Q2129.6563,149.0469 2130.25,148.7813 Q2130.8438,148.5 2131.4688,147.9219 L2131.4688,150.6406 Z "/><text fill="#000000" font-family="sans-serif" font-size="12" lengthAdjust="spacingAndGlyphs" textLength="283" x="2142.5" y="149.1543">MiddlewareGisProcessorImplementationTests</text><line style="stroke: #A80036; stroke-width: 1.5;" x1="2114.5" x2="2427.5" y1="161" y2="161"/><line style="stroke: #A80036; stroke-width: 1.5;" x1="2114.5" x2="2427.5" y1="169" y2="169"/><ellipse cx="2124.5" cy="180" fill="#84BE84" rx="3" ry="3" style="stroke: #038048; stroke-width: 1.0;"/><text fill="#000000" font-family="sans-serif" font-size="11" lengthAdjust="spacingAndGlyphs" textLength="190" x="2133.5" y="183.2104">void evaluateGpsSignalStrength()</text><ellipse cx="2124.5" cy="192.8047" fill="#84BE84" rx="3" ry="3" style="stroke: #038048; stroke-width: 1.0;"/><text fill="#000000" font-family="sans-serif" font-size="11" lengthAdjust="spacingAndGlyphs" textLength="193" x="2133.5" y="196.0151">void measureGpsSignalStrength()</text><!--MD5=[d234de36885e20e607a6cce78b3173aa]
class MiddlewareGisManagerImplementationTests--><rect fill="#FEFECE" filter="url(#f1bg5ikm8fw5h)" height="214.4609" id="MiddlewareGisManagerImplementationTests" style="stroke: #A80036; stroke-width: 1.5;" width="307" x="2463.5" y="59"/><ellipse cx="2478.5" cy="75" fill="#ADD1B2" rx="11" ry="11" style="stroke: #A80036; stroke-width: 1.0;"/><path d="M2481.4688,80.6406 Q2480.8906,80.9375 2480.25,81.0781 Q2479.6094,81.2344 2478.9063,81.2344 Q2476.4063,81.2344 2475.0781,79.5938 Q2473.7656,77.9375 2473.7656,74.8125 Q2473.7656,71.6875 2475.0781,70.0313 Q2476.4063,68.375 2478.9063,68.375 Q2479.6094,68.375 2480.25,68.5313 Q2480.9063,68.6875 2481.4688,68.9844 L2481.4688,71.7031 Q2480.8438,71.125 2480.25,70.8594 Q2479.6563,70.5781 2479.0313,70.5781 Q2477.6875,70.5781 2477,71.6563 Q2476.3125,72.7188 2476.3125,74.8125 Q2476.3125,76.9063 2477,77.9844 Q2477.6875,79.0469 2479.0313,79.0469 Q2479.6563,79.0469 2480.25,78.7813 Q2480.8438,78.5 2481.4688,77.9219 L2481.4688,80.6406 Z "/><text fill="#000000" font-family="sans-serif" font-size="12" lengthAdjust="spacingAndGlyphs" textLength="275" x="2492.5" y="79.1543">MiddlewareGisManagerImplementationTests</text><line style="stroke: #A80036; stroke-width: 1.5;" x1="2464.5" x2="2769.5" y1="91" y2="91"/><line style="stroke: #A80036; stroke-width: 1.5;" x1="2464.5" x2="2769.5" y1="99" y2="99"/><ellipse cx="2474.5" cy="110" fill="#84BE84" rx="3" ry="3" style="stroke: #038048; stroke-width: 1.0;"/><text fill="#000000" font-family="sans-serif" font-size="11" lengthAdjust="spacingAndGlyphs" textLength="183" x="2483.5" y="113.2104">void receiveGpsSignalStrength()</text><ellipse cx="2474.5" cy="122.8047" fill="#84BE84" rx="3" ry="3" style="stroke: #038048; stroke-width: 1.0;"/><text fill="#000000" font-family="sans-serif" font-size="11" lengthAdjust="spacingAndGlyphs" textLength="166" x="2483.5" y="126.0151">void storeLocationDataPoint()</text><ellipse cx="2474.5" cy="135.6094" fill="#84BE84" rx="3" ry="3" style="stroke: #038048; stroke-width: 1.0;"/><text fill="#000000" font-family="sans-serif" font-size="11" lengthAdjust="spacingAndGlyphs" textLength="179" x="2483.5" y="138.8198">void attemptToRegainGpsLock()</text><ellipse cx="2474.5" cy="148.4141" fill="#84BE84" rx="3" ry="3" style="stroke: #038048; stroke-width: 1.0;"/><text fill="#000000" font-family="sans-serif" font-size="11" lengthAdjust="spacingAndGlyphs" textLength="190" x="2483.5" y="151.6245">void evaluateGpsSignalStrength()</text><ellipse cx="2474.5" cy="161.2188" fill="#84BE84" rx="3" ry="3" style="stroke: #038048; stroke-width: 1.0;"/><text fill="#000000" font-family="sans-serif" font-size="11" lengthAdjust="spacingAndGlyphs" textLength="150" x="2483.5" y="164.4292">void enterDegradedMode()</text><ellipse cx="2474.5" cy="174.0234" fill="#84BE84" rx="3" ry="3" style="stroke: #038048; stroke-width: 1.0;"/><text fill="#000000" font-family="sans-serif" font-size="11" lengthAdjust="spacingAndGlyphs" textLength="196" x="2483.5" y="177.2339">void degradedModeStoreRequest()</text><ellipse cx="2474.5" cy="186.8281" fill="#84BE84" rx="3" ry="3" style="stroke: #038048; stroke-width: 1.0;"/><text fill="#000000" font-family="sans-serif" font-size="11" lengthAdjust="spacingAndGlyphs" textLength="220" x="2483.5" y="190.0386">void gpsPrioritizeListRetrievalRequest()</text><ellipse cx="2474.5" cy="199.6328" fill="#84BE84" rx="3" ry="3" style="stroke: #038048; stroke-width: 1.0;"/><text fill="#000000" font-family="sans-serif" font-size="11" lengthAdjust="spacingAndGlyphs" textLength="116" x="2483.5" y="202.8433">void selectNewGps()</text><ellipse cx="2474.5" cy="212.4375" fill="#84BE84" rx="3" ry="3" style="stroke: #038048; stroke-width: 1.0;"/><text fill="#000000" font-family="sans-serif" font-size="11" lengthAdjust="spacingAndGlyphs" textLength="136" x="2483.5" y="215.6479">void enterNormalMode()</text><ellipse cx="2474.5" cy="225.2422" fill="#84BE84" rx="3" ry="3" style="stroke: #038048; stroke-width: 1.0;"/><text fill="#000000" font-family="sans-serif" font-size="11" lengthAdjust="spacingAndGlyphs" textLength="141" x="2483.5" y="228.4526">void enterStandbyMode()</text><ellipse cx="2474.5" cy="238.0469" fill="#84BE84" rx="3" ry="3" style="stroke: #038048; stroke-width: 1.0;"/><text fill="#000000" font-family="sans-serif" font-size="11" lengthAdjust="spacingAndGlyphs" textLength="182" x="2483.5" y="241.2573">void evaluateGpsPrioritizedList()</text><ellipse cx="2474.5" cy="250.8516" fill="#84BE84" rx="3" ry="3" style="stroke: #038048; stroke-width: 1.0;"/><text fill="#000000" font-family="sans-serif" font-size="11" lengthAdjust="spacingAndGlyphs" textLength="164" x="2483.5" y="254.062">void storeGpsPrioritizedList()</text><ellipse cx="2474.5" cy="263.6563" fill="#84BE84" rx="3" ry="3" style="stroke: #038048; stroke-width: 1.0;"/><text fill="#000000" font-family="sans-serif" font-size="11" lengthAdjust="spacingAndGlyphs" textLength="187" x="2483.5" y="266.8667">void standbyModeStoreRequest()</text><!--MD5=[51651d19c556f37aaa3859a830b9d09e]
class MiddlewareGisProcessorStub--><rect fill="#FEFECE" filter="url(#f1bg5ikm8fw5h)" height="107.2188" id="MiddlewareGisProcessorStub" style="stroke: #A80036; stroke-width: 1.5;" width="360" x="1744" y="365"/><ellipse cx="1829.25" cy="381" fill="#ADD1B2" rx="11" ry="11" style="stroke: #A80036; stroke-width: 1.0;"/><path d="M1832.2188,386.6406 Q1831.6406,386.9375 1831,387.0781 Q1830.3594,387.2344 1829.6563,387.2344 Q1827.1563,387.2344 1825.8281,385.5938 Q1824.5156,383.9375 1824.5156,380.8125 Q1824.5156,377.6875 1825.8281,376.0313 Q1827.1563,374.375 1829.6563,374.375 Q1830.3594,374.375 1831,374.5313 Q1831.6563,374.6875 1832.2188,374.9844 L1832.2188,377.7031 Q1831.5938,377.125 1831,376.8594 Q1830.4063,376.5781 1829.7813,376.5781 Q1828.4375,376.5781 1827.75,377.6563 Q1827.0625,378.7188 1827.0625,380.8125 Q1827.0625,382.9063 1827.75,383.9844 Q1828.4375,385.0469 1829.7813,385.0469 Q1830.4063,385.0469 1831,384.7813 Q1831.5938,384.5 1832.2188,383.9219 L1832.2188,386.6406 Z "/><text fill="#000000" font-family="sans-serif" font-size="12" lengthAdjust="spacingAndGlyphs" textLength="181" x="1849.75" y="385.1543">MiddlewareGisProcessorStub</text><line style="stroke: #A80036; stroke-width: 1.5;" x1="1745" x2="2103" y1="397" y2="397"/><line style="stroke: #A80036; stroke-width: 1.5;" x1="1745" x2="2103" y1="405" y2="405"/><ellipse cx="1755" cy="432.8047" fill="#84BE84" rx="3" ry="3" style="stroke: #038048; stroke-width: 1.0;"/><text fill="#000000" font-family="sans-serif" font-size="11" lengthAdjust="spacingAndGlyphs" textLength="331" x="1764" y="436.0151">String evaluateGpsSignalStrength(Satellite satelliteSignal)</text><line style="stroke: #A80036; stroke-width: 1.0; stroke-dasharray: 1.0,2.0;" x1="1745" x2="1891" y1="419.4023" y2="419.4023"/><text fill="#000000" font-family="sans-serif" font-size="11" lengthAdjust="spacingAndGlyphs" textLength="66" x="1891" y="422.7104">Use Case 1</text><line style="stroke: #A80036; stroke-width: 1.0; stroke-dasharray: 1.0,2.0;" x1="1957" x2="2103" y1="419.4023" y2="419.4023"/><ellipse cx="1755" cy="462.4141" fill="#84BE84" rx="3" ry="3" style="stroke: #038048; stroke-width: 1.0;"/><text fill="#000000" font-family="sans-serif" font-size="11" lengthAdjust="spacingAndGlyphs" textLength="334" x="1764" y="465.6245">String measureGpsSignalStrength(Satellite satelliteSignal)</text><line style="stroke: #A80036; stroke-width: 1.0; stroke-dasharray: 1.0,2.0;" x1="1745" x2="1891" y1="449.0117" y2="449.0117"/><text fill="#000000" font-family="sans-serif" font-size="11" lengthAdjust="spacingAndGlyphs" textLength="66" x="1891" y="452.3198">Use Case 2</text><line style="stroke: #A80036; stroke-width: 1.0; stroke-dasharray: 1.0,2.0;" x1="1957" x2="2103" y1="449.0117" y2="449.0117"/><!--MD5=[74a4f2264e7a0b184f8bb8bbbacbeff6]
class MiddlewareGisManagerStub--><rect fill="#FEFECE" filter="url(#f1bg5ikm8fw5h)" height="132.8281" id="MiddlewareGisManagerStub" style="stroke: #A80036; stroke-width: 1.5;" width="357" x="2139.5" y="352"/><ellipse cx="2227.25" cy="368" fill="#ADD1B2" rx="11" ry="11" style="stroke: #A80036; stroke-width: 1.0;"/><path d="M2230.2188,373.6406 Q2229.6406,373.9375 2229,374.0781 Q2228.3594,374.2344 2227.6563,374.2344 Q2225.1563,374.2344 2223.8281,372.5938 Q2222.5156,370.9375 2222.5156,367.8125 Q2222.5156,364.6875 2223.8281,363.0313 Q2225.1563,361.375 2227.6563,361.375 Q2228.3594,361.375 2229,361.5313 Q2229.6563,361.6875 2230.2188,361.9844 L2230.2188,364.7031 Q2229.5938,364.125 2229,363.8594 Q2228.4063,363.5781 2227.7813,363.5781 Q2226.4375,363.5781 2225.75,364.6563 Q2225.0625,365.7188 2225.0625,367.8125 Q2225.0625,369.9063 2225.75,370.9844 Q2226.4375,372.0469 2227.7813,372.0469 Q2228.4063,372.0469 2229,371.7813 Q2229.5938,371.5 2230.2188,370.9219 L2230.2188,373.6406 Z "/><text fill="#000000" font-family="sans-serif" font-size="12" lengthAdjust="spacingAndGlyphs" textLength="173" x="2247.75" y="372.1543">MiddlewareGisManagerStub</text><line style="stroke: #A80036; stroke-width: 1.5;" x1="2140.5" x2="2495.5" y1="384" y2="384"/><line style="stroke: #A80036; stroke-width: 1.5;" x1="2140.5" x2="2495.5" y1="392" y2="392"/><ellipse cx="2150.5" cy="419.8047" fill="#84BE84" rx="3" ry="3" style="stroke: #038048; stroke-width: 1.0;"/><text fill="#000000" font-family="sans-serif" font-size="11" lengthAdjust="spacingAndGlyphs" textLength="331" x="2159.5" y="423.0151">String receieveGpsSignalStrength(Satellite satelliteSignal)</text><ellipse cx="2150.5" cy="432.6094" fill="#84BE84" rx="3" ry="3" style="stroke: #038048; stroke-width: 1.0;"/><text fill="#000000" font-family="sans-serif" font-size="11" lengthAdjust="spacingAndGlyphs" textLength="166" x="2159.5" y="435.8198">void storeLocationDataPoint()</text><line style="stroke: #A80036; stroke-width: 1.0; stroke-dasharray: 1.0,2.0;" x1="2140.5" x2="2285" y1="406.4023" y2="406.4023"/><text fill="#000000" font-family="sans-serif" font-size="11" lengthAdjust="spacingAndGlyphs" textLength="66" x="2285" y="409.7104">Use Case 1</text><line style="stroke: #A80036; stroke-width: 1.0; stroke-dasharray: 1.0,2.0;" x1="2351" x2="2495.5" y1="406.4023" y2="406.4023"/><ellipse cx="2150.5" cy="462.2188" fill="#84BE84" rx="3" ry="3" style="stroke: #038048; stroke-width: 1.0;"/><text fill="#000000" font-family="sans-serif" font-size="11" lengthAdjust="spacingAndGlyphs" textLength="306" x="2159.5" y="465.4292">String attemptToRegainGpsLock(String satelliteName)</text><ellipse cx="2150.5" cy="475.0234" fill="#84BE84" rx="3" ry="3" style="stroke: #038048; stroke-width: 1.0;"/><text fill="#000000" font-family="sans-serif" font-size="11" lengthAdjust="spacingAndGlyphs" textLength="311" x="2159.5" y="478.2339">String evaluateGpsSignalStrength(boolean signalValid)</text><line style="stroke: #A80036; stroke-width: 1.0; stroke-dasharray: 1.0,2.0;" x1="2140.5" x2="2285" y1="448.8164" y2="448.8164"/><text fill="#000000" font-family="sans-serif" font-size="11" lengthAdjust="spacingAndGlyphs" textLength="66" x="2285" y="452.1245">Use Case 2</text><line style="stroke: #A80036; stroke-width: 1.0; stroke-dasharray: 1.0,2.0;" x1="2351" x2="2495.5" y1="448.8164" y2="448.8164"/><!--MD5=[ab27779a11d5209c16fcbeb03aa21929]
class DatabaseGisInterfaceStub--><rect fill="#FEFECE" filter="url(#f1bg5ikm8fw5h)" height="120.0234" id="DatabaseGisInterfaceStub" style="stroke: #A80036; stroke-width: 1.5;" width="382" x="2532" y="358.5"/><ellipse cx="2636.25" cy="374.5" fill="#ADD1B2" rx="11" ry="11" style="stroke: #A80036; stroke-width: 1.0;"/><path d="M2639.2188,380.1406 Q2638.6406,380.4375 2638,380.5781 Q2637.3594,380.7344 2636.6563,380.7344 Q2634.1563,380.7344 2632.8281,379.0938 Q2631.5156,377.4375 2631.5156,374.3125 Q2631.5156,371.1875 2632.8281,369.5313 Q2634.1563,367.875 2636.6563,367.875 Q2637.3594,367.875 2638,368.0313 Q2638.6563,368.1875 2639.2188,368.4844 L2639.2188,371.2031 Q2638.5938,370.625 2638,370.3594 Q2637.4063,370.0781 2636.7813,370.0781 Q2635.4375,370.0781 2634.75,371.1563 Q2634.0625,372.2188 2634.0625,374.3125 Q2634.0625,376.4063 2634.75,377.4844 Q2635.4375,378.5469 2636.7813,378.5469 Q2637.4063,378.5469 2638,378.2813 Q2638.5938,378 2639.2188,377.4219 L2639.2188,380.1406 Z "/><text fill="#000000" font-family="sans-serif" font-size="12" lengthAdjust="spacingAndGlyphs" textLength="165" x="2656.75" y="378.6543">DatabaseGisInterfaceStub</text><line style="stroke: #A80036; stroke-width: 1.5;" x1="2533" x2="2913" y1="390.5" y2="390.5"/><line style="stroke: #A80036; stroke-width: 1.5;" x1="2533" x2="2913" y1="398.5" y2="398.5"/><ellipse cx="2543" cy="426.3047" fill="#84BE84" rx="3" ry="3" style="stroke: #038048; stroke-width: 1.0;"/><text fill="#000000" font-family="sans-serif" font-size="11" lengthAdjust="spacingAndGlyphs" textLength="356" x="2552" y="429.5151">void recieveStoreRequest(LocationDataPoint locationDataPoint)</text><line style="stroke: #A80036; stroke-width: 1.0; stroke-dasharray: 1.0,2.0;" x1="2533" x2="2690" y1="412.9023" y2="412.9023"/><text fill="#000000" font-family="sans-serif" font-size="11" lengthAdjust="spacingAndGlyphs" textLength="66" x="2690" y="416.2104">Use Case 1</text><line style="stroke: #A80036; stroke-width: 1.0; stroke-dasharray: 1.0,2.0;" x1="2756" x2="2913" y1="412.9023" y2="412.9023"/><ellipse cx="2543" cy="455.9141" fill="#84BE84" rx="3" ry="3" style="stroke: #038048; stroke-width: 1.0;"/><text fill="#000000" font-family="sans-serif" font-size="11" lengthAdjust="spacingAndGlyphs" textLength="233" x="2552" y="459.1245">String recieveModeRequest(String mode)</text><ellipse cx="2543" cy="468.7188" fill="#84BE84" rx="3" ry="3" style="stroke: #038048; stroke-width: 1.0;"/><text fill="#000000" font-family="sans-serif" font-size="11" lengthAdjust="spacingAndGlyphs" textLength="275" x="2552" y="471.9292">String recieveNextSatRequest(String currentSat)</text><line style="stroke: #A80036; stroke-width: 1.0; stroke-dasharray: 1.0,2.0;" x1="2533" x2="2690" y1="442.5117" y2="442.5117"/><text fill="#000000" font-family="sans-serif" font-size="11" lengthAdjust="spacingAndGlyphs" textLength="66" x="2690" y="445.8198">Use Case 2</text><line style="stroke: #A80036; stroke-width: 1.0; stroke-dasharray: 1.0,2.0;" x1="2756" x2="2913" y1="442.5117" y2="442.5117"/><polygon fill="#FFFFFF" filter="url(#f1bg5ikm8fw5h)" points="2945.5,139.5,3220.5,139.5,3227.5,161.7969,3234.5,161.7969,3234.5,192.0938,2945.5,192.0938,2945.5,139.5" style="stroke: #000000; stroke-width: 1.5;"/><line style="stroke: #000000; stroke-width: 1.5;" x1="2945.5" x2="3227.5" y1="161.7969" y2="161.7969"/><text fill="#000000" font-family="sans-serif" font-size="14" font-weight="bold" lengthAdjust="spacingAndGlyphs" textLength="269" x="2949.5" y="154.4951">edu.oakland.helper.middleware01</text><!--MD5=[b7f9f61643177129a34bef2d42772173]
link MiddlewareGisInterface to MiddlewareGisProcessor--><!--MD5=[03ed72b80ae2e539149d41f6733cb2b6]
link MiddlewareGisProcessor to MiddlewareGisManager--><!--MD5=[65e8ae3be48d8b317df68a5ff25b225a]
link MiddlewareGisInterface to MiddlewareGisInterfaceImplementation--><!--MD5=[bfd30003311d14dcb404997a195ab642]
link MiddlewareGisInterfaceImplementation to MiddlewareGisProcessorImplementation--><!--MD5=[e58f60c707b124812ecd922950d23b3a]
link MiddlewareGisProcessorImplementation to MiddlewareGisManagerImplementation--><!--MD5=[66a075d8653edad79e5184ccbc7710ba]
link MiddlewareGisInterfaceImplementationTests to MiddlewareGisProcessorImplementationTests--><!--MD5=[caf97344b76f1f237682011bbbe3fff7]
link MiddlewareGisProcessorImplementationTests to MiddlewareGisManagerImplementationTests--><!--MD5=[973ed9568ae6a7304b1bd90c0eb4e200]
link MiddlewareGisInterfaceImplementationTests to MiddlewareGisProcessorStub--><!--MD5=[c90f2bbba516d9904fe974e55994d75f]
link MiddlewareGisProcessorStub to MiddlewareGisManagerStub--><!--MD5=[f67c056fc6717e6747b4e825179381c0]
link MiddlewareGisManagerStub to DatabaseGisInterfaceStub--><!--MD5=[db7261c9d4ebbe5d11e8507d742627e0]
@startuml Middleware01Packages


package edu.oakland.production.middleware01 {

}


package edu.oakland.production.middleware01 {
    interface MiddlewareGisInterface {
        __
        .. Use Case 1 ..
        {abstract} + String receiveGpsSignalStrength(Satellite satelliteSignal)
        .. Use Case 2 ..
        {abstract} + String receiveGpsSignalStrength(Satellite satelliteSignal)
    }
}


package edu.oakland.production.middleware01 {
    interface MiddlewareGisProcessor {
        __
        .. Use Case 1 ..
        {abstract} + String evaluateGpsSignalStrength(Satellite satelliteSignal)
        .. Use Case 2 ..
        {abstract} + String measureGpsSignalStrength(Satellite satelliteSignal)
    }
}


package edu.oakland.production.middleware01 {
    interface MiddlewareGisManager {
        __
        .. Use Case 1 ..
        {abstract} + String receieveGpsSignalStrength(Satellite satelliteSignal)
        {abstract} + void storeLocationDataPoint()
        .. Use Case 2 ..
        {abstract} + String attemptToRegainGpsLock(String satelliteName)
        {abstract} + String evaluateGpsSignalStrength(boolean signalValid)
    }
}


package edu.oakland.production.middleware01 {
    class MiddlewareGisInterfaceImplementation {
        - MiddlewareGisProcessor middlewareGisProcessor
        __
        + MiddlewareGisInterfaceImplementation(MiddlewareGisProcessor middlewareGisProcessor)
        .. Use Case 1 ..
        + String receiveGpsSignalStrength(Satellite satelliteSignal)
        .. Use Case 2 ..
        + String receiveGpsSignalStrength(Satellite satelliteSignal)
    }
}


package edu.oakland.production.middleware01 {
    class MiddlewareGisProcessorImplementation {
        - MiddlewareGisManager middlewareGisManager
        __
        + MiddlewareGisProcessorImplementation(MiddlewareGisManager middlewareGisManager)
        .. Use Case 1 ..
        + String evaluateGpsSignalStrength(Satellite satelliteSignal)
        .. Use Case 2 ..
        + String measureGpsSignalStrength(Satellite satelliteSignal)
    }
}


package edu.oakland.production.middleware01 {
    class MiddlewareGisManagerImplementation {
        - DatabaseGisInterface databaseGisInterface
        - LocationDataPoint locationDataPoint
        __
        + MiddlewareGisManagerImplementation(DatabaseGisInterface databaseGisInterface)
        .. Use Case 1 ..
        + String receieveGpsSignalStrength(Satellite satelliteSignal)
        + void storeLocationDataPoint()
        .. Use Case 2 ..
        + String attemptToRegainGpsLock(String satelliteName)
        + String evaluateGpsSignalStrength(boolean signalValid)
    }
}



package edu.oakland.test.middleware01 {
    
}


package edu.oakland.test.middleware01 {
  class MiddlewareGisInterfaceImplementationTests {
    + void receiveGpsSignalStrength()
  }
}


package edu.oakland.test.middleware01 {
  class MiddlewareGisProcessorImplementationTests {
    + void evaluateGpsSignalStrength()
    + void measureGpsSignalStrength()
  }
}


package edu.oakland.test.middleware01 {
  class MiddlewareGisManagerImplementationTests {
    + void receiveGpsSignalStrength()
    + void storeLocationDataPoint()
    + void attemptToRegainGpsLock()
    + void evaluateGpsSignalStrength()
    + void enterDegradedMode()
    + void degradedModeStoreRequest()
    + void gpsPrioritizeListRetrievalRequest()
    + void selectNewGps()
    + void enterNormalMode()
    + void enterStandbyMode()
    + void evaluateGpsPrioritizedList()
    + void storeGpsPrioritizedList()
    + void standbyModeStoreRequest()
  }
}


package edu.oakland.test.middleware01 {
    class MiddlewareGisProcessorStub {
        __
        .. Use Case 1 ..
        + String evaluateGpsSignalStrength(Satellite satelliteSignal)
        .. Use Case 2 ..
        + String measureGpsSignalStrength(Satellite satelliteSignal)
    }
}


package edu.oakland.test.middleware01 {
    class MiddlewareGisManagerStub {
        __
        .. Use Case 1 ..
        + String receieveGpsSignalStrength(Satellite satelliteSignal)
        + void storeLocationDataPoint()
        .. Use Case 2 ..
        + String attemptToRegainGpsLock(String satelliteName)
        + String evaluateGpsSignalStrength(boolean signalValid)
    }
}


package edu.oakland.test.middleware01 {
    class DatabaseGisInterfaceStub {
        __
        .. Use Case 1 ..
        + void recieveStoreRequest(LocationDataPoint locationDataPoint)
        .. Use Case 2 ..
        + String recieveModeRequest(String mode)
        + String recieveNextSatRequest(String currentSat)
    }
}



package edu.oakland.helper.middleware01 {
    
}


@enduml

PlantUML version 1.2020.02(Sun Mar 01 10:22:07 GMT 2020)
(GPL source distribution)
Java Runtime: OpenJDK Runtime Environment
JVM: OpenJDK 64-Bit Server VM
Java Version: 11.0.9+11-Ubuntu-0ubuntu1
Operating System: Linux
Default Encoding: ANSI_X3.4-1968
Language: en
Country: US
--></g></svg>