<?xml version="1.0" encoding="UTF-8" standalone="no"?><svg xmlns="http://www.w3.org/2000/svg" xmlns:xlink="http://www.w3.org/1999/xlink" contentScriptType="application/ecmascript" contentStyleType="text/css" height="545px" preserveAspectRatio="none" style="width:3256px;height:545px;" version="1.1" viewBox="0 0 3256 545" width="3256px" zoomAndPan="magnify"><defs><filter height="300%" id="f1h83ea0yxaivi" width="300%" x="-1" y="-1"><feGaussianBlur result="blurOut" stdDeviation="2.0"/><feColorMatrix in="blurOut" result="blurOut2" type="matrix" values="0 0 0 0 0 0 0 0 0 0 0 0 0 0 0 0 0 0 .4 0"/><feOffset dx="4.0" dy="4.0" in="blurOut2" result="blurOut3"/><feBlend in="SourceGraphic" in2="blurOut3" mode="normal"/></filter></defs><g><!--MD5=[3f116dbe56326f0321b4f8703f3bd2bd]
cluster edu.oakland.production.middleware01--><polygon fill="#FFFFFF" filter="url(#f1h83ea0yxaivi)" points="22,71,332,71,339,93.2969,1704,93.2969,1704,533,22,533,22,71" style="stroke: #000000; stroke-width: 1.5;"/><line style="stroke: #000000; stroke-width: 1.5;" x1="22" x2="339" y1="93.2969" y2="93.2969"/><text fill="#000000" font-family="sans-serif" font-size="14" font-weight="bold" lengthAdjust="spacingAndGlyphs" textLength="304" x="26" y="85.9951">edu.oakland.production.middleware01</text><!--MD5=[91c45ac7eb5545a65ecec592fddfa5fd]
cluster edu.oakland.test.middleware01--><polygon fill="#FFFFFF" filter="url(#f1h83ea0yxaivi)" points="1728,24,1983,24,1990,46.2969,2930,46.2969,2930,514,1728,514,1728,24" style="stroke: #000000; stroke-width: 1.5;"/><line style="stroke: #000000; stroke-width: 1.5;" x1="1728" x2="1990" y1="46.2969" y2="46.2969"/><text fill="#000000" font-family="sans-serif" font-size="14" font-weight="bold" lengthAdjust="spacingAndGlyphs" textLength="249" x="1732" y="38.9951">edu.oakland.test.middleware01</text><!--MD5=[291cbaddec1abeb2a8a54e5a343c76e9]
class MiddlewareGisInterface--><rect fill="#FEFECE" filter="url(#f1h83ea0yxaivi)" height="107.2188" id="MiddlewareGisInterface" style="stroke: #A80036; stroke-width: 1.5;" width="344" x="138" y="119"/><ellipse cx="232.75" cy="135" fill="#B4A7E5" rx="11" ry="11" style="stroke: #A80036; stroke-width: 1.0;"/><path d="M228.6719,130.7656 L228.6719,128.6094 L236.0625,128.6094 L236.0625,130.7656 L233.5938,130.7656 L233.5938,138.8438 L236.0625,138.8438 L236.0625,141 L228.6719,141 L228.6719,138.8438 L231.1406,138.8438 L231.1406,130.7656 L228.6719,130.7656 Z "/><text fill="#000000" font-family="sans-serif" font-size="12" font-style="italic" lengthAdjust="spacingAndGlyphs" textLength="146" x="253.25" y="139.1543">MiddlewareGisInterface</text><line style="stroke: #A80036; stroke-width: 1.5;" x1="139" x2="481" y1="151" y2="151"/><line style="stroke: #A80036; stroke-width: 1.5;" x1="139" x2="481" y1="159" y2="159"/><ellipse cx="149" cy="186.8047" fill="#84BE84" rx="3" ry="3" style="stroke: #038048; stroke-width: 1.0;"/><text fill="#000000" font-family="sans-serif" font-size="11" font-style="italic" lengthAdjust="spacingAndGlyphs" textLength="318" x="158" y="190.0151">String receiveGpsSignalStrength(Satellite satelliteSignal)</text><line style="stroke: #A80036; stroke-width: 1.0; stroke-dasharray: 1.0,2.0;" x1="139" x2="277" y1="173.4023" y2="173.4023"/><text fill="#000000" font-family="sans-serif" font-size="11" lengthAdjust="spacingAndGlyphs" textLength="66" x="277" y="176.7104">Use Case 1</text><line style="stroke: #A80036; stroke-width: 1.0; stroke-dasharray: 1.0,2.0;" x1="343" x2="481" y1="173.4023" y2="173.4023"/><ellipse cx="149" cy="216.4141" fill="#84BE84" rx="3" ry="3" style="stroke: #038048; stroke-width: 1.0;"/><text fill="#000000" font-family="sans-serif" font-size="11" font-style="italic" lengthAdjust="spacingAndGlyphs" textLength="318" x="158" y="219.6245">String receiveGpsSignalStrength(Satellite satelliteSignal)</text><line style="stroke: #A80036; stroke-width: 1.0; stroke-dasharray: 1.0,2.0;" x1="139" x2="277" y1="203.0117" y2="203.0117"/><text fill="#000000" font-family="sans-serif" font-size="11" lengthAdjust="spacingAndGlyphs" textLength="66" x="277" y="206.3198">Use Case 2</text><line style="stroke: #A80036; stroke-width: 1.0; stroke-dasharray: 1.0,2.0;" x1="343" x2="481" y1="203.0117" y2="203.0117"/><!--MD5=[8ee200b6efa8fed886485614c0f8779a]
class MiddlewareGisProcessor--><rect fill="#FEFECE" filter="url(#f1h83ea0yxaivi)" height="107.2188" id="MiddlewareGisProcessor" style="stroke: #A80036; stroke-width: 1.5;" width="352" x="517" y="119"/><ellipse cx="614.25" cy="135" fill="#B4A7E5" rx="11" ry="11" style="stroke: #A80036; stroke-width: 1.0;"/><path d="M610.1719,130.7656 L610.1719,128.6094 L617.5625,128.6094 L617.5625,130.7656 L615.0938,130.7656 L615.0938,138.8438 L617.5625,138.8438 L617.5625,141 L610.1719,141 L610.1719,138.8438 L612.6406,138.8438 L612.6406,130.7656 L610.1719,130.7656 Z "/><text fill="#000000" font-family="sans-serif" font-size="12" font-style="italic" lengthAdjust="spacingAndGlyphs" textLength="149" x="634.75" y="139.1543">MiddlewareGisProcessor</text><line style="stroke: #A80036; stroke-width: 1.5;" x1="518" x2="868" y1="151" y2="151"/><line style="stroke: #A80036; stroke-width: 1.5;" x1="518" x2="868" y1="159" y2="159"/><ellipse cx="528" cy="186.8047" fill="#84BE84" rx="3" ry="3" style="stroke: #038048; stroke-width: 1.0;"/><text fill="#000000" font-family="sans-serif" font-size="11" font-style="italic" lengthAdjust="spacingAndGlyphs" textLength="325" x="537" y="190.0151">String evaluateGpsSignalStrength(Satellite satelliteSignal)</text><line style="stroke: #A80036; stroke-width: 1.0; stroke-dasharray: 1.0,2.0;" x1="518" x2="660" y1="173.4023" y2="173.4023"/><text fill="#000000" font-family="sans-serif" font-size="11" lengthAdjust="spacingAndGlyphs" textLength="66" x="660" y="176.7104">Use Case 1</text><line style="stroke: #A80036; stroke-width: 1.0; stroke-dasharray: 1.0,2.0;" x1="726" x2="868" y1="173.4023" y2="173.4023"/><ellipse cx="528" cy="216.4141" fill="#84BE84" rx="3" ry="3" style="stroke: #038048; stroke-width: 1.0;"/><text fill="#000000" font-family="sans-serif" font-size="11" font-style="italic" lengthAdjust="spacingAndGlyphs" textLength="326" x="537" y="219.6245">String measureGpsSignalStrength(Satellite satelliteSignal)</text><line style="stroke: #A80036; stroke-width: 1.0; stroke-dasharray: 1.0,2.0;" x1="518" x2="660" y1="203.0117" y2="203.0117"/><text fill="#000000" font-family="sans-serif" font-size="11" lengthAdjust="spacingAndGlyphs" textLength="66" x="660" y="206.3198">Use Case 2</text><line style="stroke: #A80036; stroke-width: 1.0; stroke-dasharray: 1.0,2.0;" x1="726" x2="868" y1="203.0117" y2="203.0117"/><!--MD5=[6b8f2796bf9a05cb61532ec918b7c92e]
class MiddlewareGisManager--><rect fill="#FEFECE" filter="url(#f1h83ea0yxaivi)" height="132.8281" id="MiddlewareGisManager" style="stroke: #A80036; stroke-width: 1.5;" width="351" x="904.5" y="106"/><ellipse cx="1003.75" cy="122" fill="#B4A7E5" rx="11" ry="11" style="stroke: #A80036; stroke-width: 1.0;"/><path d="M999.6719,117.7656 L999.6719,115.6094 L1007.0625,115.6094 L1007.0625,117.7656 L1004.5938,117.7656 L1004.5938,125.8438 L1007.0625,125.8438 L1007.0625,128 L999.6719,128 L999.6719,125.8438 L1002.1406,125.8438 L1002.1406,117.7656 L999.6719,117.7656 Z "/><text fill="#000000" font-family="sans-serif" font-size="12" font-style="italic" lengthAdjust="spacingAndGlyphs" textLength="144" x="1024.25" y="126.1543">MiddlewareGisManager</text><line style="stroke: #A80036; stroke-width: 1.5;" x1="905.5" x2="1254.5" y1="138" y2="138"/><line style="stroke: #A80036; stroke-width: 1.5;" x1="905.5" x2="1254.5" y1="146" y2="146"/><ellipse cx="915.5" cy="173.8047" fill="#84BE84" rx="3" ry="3" style="stroke: #038048; stroke-width: 1.0;"/><text fill="#000000" font-family="sans-serif" font-size="11" font-style="italic" lengthAdjust="spacingAndGlyphs" textLength="325" x="924.5" y="177.0151">String receieveGpsSignalStrength(Satellite satelliteSignal)</text><ellipse cx="915.5" cy="186.6094" fill="#84BE84" rx="3" ry="3" style="stroke: #038048; stroke-width: 1.0;"/><text fill="#000000" font-family="sans-serif" font-size="11" font-style="italic" lengthAdjust="spacingAndGlyphs" textLength="166" x="924.5" y="189.8198">void storeLocationDataPoint()</text><line style="stroke: #A80036; stroke-width: 1.0; stroke-dasharray: 1.0,2.0;" x1="905.5" x2="1047" y1="160.4023" y2="160.4023"/><text fill="#000000" font-family="sans-serif" font-size="11" lengthAdjust="spacingAndGlyphs" textLength="66" x="1047" y="163.7104">Use Case 1</text><line style="stroke: #A80036; stroke-width: 1.0; stroke-dasharray: 1.0,2.0;" x1="1113" x2="1254.5" y1="160.4023" y2="160.4023"/><ellipse cx="915.5" cy="216.2188" fill="#84BE84" rx="3" ry="3" style="stroke: #038048; stroke-width: 1.0;"/><text fill="#000000" font-family="sans-serif" font-size="11" font-style="italic" lengthAdjust="spacingAndGlyphs" textLength="303" x="924.5" y="219.4292">String attemptToRegainGpsLock(String satelliteName)</text><ellipse cx="915.5" cy="229.0234" fill="#84BE84" rx="3" ry="3" style="stroke: #038048; stroke-width: 1.0;"/><text fill="#000000" font-family="sans-serif" font-size="11" font-style="italic" lengthAdjust="spacingAndGlyphs" textLength="308" x="924.5" y="232.2339">String evaluateGpsSignalStrength(boolean signalValid)</text><line style="stroke: #A80036; stroke-width: 1.0; stroke-dasharray: 1.0,2.0;" x1="905.5" x2="1047" y1="202.8164" y2="202.8164"/><text fill="#000000" font-family="sans-serif" font-size="11" lengthAdjust="spacingAndGlyphs" textLength="66" x="1047" y="206.1245">Use Case 2</text><line style="stroke: #A80036; stroke-width: 1.0; stroke-dasharray: 1.0,2.0;" x1="1113" x2="1254.5" y1="202.8164" y2="202.8164"/><!--MD5=[00cae90dad3d6433dbf28d238006c643]
class MiddlewareGisInterfaceImplementation--><rect fill="#FEFECE" filter="url(#f1h83ea0yxaivi)" height="132.8281" id="MiddlewareGisInterfaceImplementation" style="stroke: #A80036; stroke-width: 1.5;" width="543" x="38.5" y="365"/><ellipse cx="184.75" cy="381" fill="#ADD1B2" rx="11" ry="11" style="stroke: #A80036; stroke-width: 1.0;"/><path d="M187.7188,386.6406 Q187.1406,386.9375 186.5,387.0781 Q185.8594,387.2344 185.1563,387.2344 Q182.6563,387.2344 181.3281,385.5938 Q180.0156,383.9375 180.0156,380.8125 Q180.0156,377.6875 181.3281,376.0313 Q182.6563,374.375 185.1563,374.375 Q185.8594,374.375 186.5,374.5313 Q187.1563,374.6875 187.7188,374.9844 L187.7188,377.7031 Q187.0938,377.125 186.5,376.8594 Q185.9063,376.5781 185.2813,376.5781 Q183.9375,376.5781 183.25,377.6563 Q182.5625,378.7188 182.5625,380.8125 Q182.5625,382.9063 183.25,383.9844 Q183.9375,385.0469 185.2813,385.0469 Q185.9063,385.0469 186.5,384.7813 Q187.0938,384.5 187.7188,383.9219 L187.7188,386.6406 Z "/><text fill="#000000" font-family="sans-serif" font-size="12" lengthAdjust="spacingAndGlyphs" textLength="242" x="205.25" y="385.1543">MiddlewareGisInterfaceImplementation</text><line style="stroke: #A80036; stroke-width: 1.5;" x1="39.5" x2="580.5" y1="397" y2="397"/><rect fill="none" height="6" style="stroke: #C82930; stroke-width: 1.0;" width="6" x="46.5" y="405"/><text fill="#000000" font-family="sans-serif" font-size="11" lengthAdjust="spacingAndGlyphs" textLength="288" x="58.5" y="411.2104">MiddlewareGisProcessor middlewareGisProcessor</text><line style="stroke: #A80036; stroke-width: 1.5;" x1="39.5" x2="580.5" y1="417.8047" y2="417.8047"/><ellipse cx="49.5" cy="428.8047" fill="#84BE84" rx="3" ry="3" style="stroke: #038048; stroke-width: 1.0;"/><text fill="#000000" font-family="sans-serif" font-size="11" lengthAdjust="spacingAndGlyphs" textLength="517" x="58.5" y="432.0151">MiddlewareGisInterfaceImplementation(MiddlewareGisProcessor middlewareGisProcessor)</text><ellipse cx="49.5" cy="458.4141" fill="#84BE84" rx="3" ry="3" style="stroke: #038048; stroke-width: 1.0;"/><text fill="#000000" font-family="sans-serif" font-size="11" lengthAdjust="spacingAndGlyphs" textLength="324" x="58.5" y="461.6245">String receiveGpsSignalStrength(Satellite satelliteSignal)</text><line style="stroke: #A80036; stroke-width: 1.0; stroke-dasharray: 1.0,2.0;" x1="39.5" x2="277" y1="445.0117" y2="445.0117"/><text fill="#000000" font-family="sans-serif" font-size="11" lengthAdjust="spacingAndGlyphs" textLength="66" x="277" y="448.3198">Use Case 1</text><line style="stroke: #A80036; stroke-width: 1.0; stroke-dasharray: 1.0,2.0;" x1="343" x2="580.5" y1="445.0117" y2="445.0117"/><ellipse cx="49.5" cy="488.0234" fill="#84BE84" rx="3" ry="3" style="stroke: #038048; stroke-width: 1.0;"/><text fill="#000000" font-family="sans-serif" font-size="11" lengthAdjust="spacingAndGlyphs" textLength="324" x="58.5" y="491.2339">String receiveGpsSignalStrength(Satellite satelliteSignal)</text><line style="stroke: #A80036; stroke-width: 1.0; stroke-dasharray: 1.0,2.0;" x1="39.5" x2="277" y1="474.6211" y2="474.6211"/><text fill="#000000" font-family="sans-serif" font-size="11" lengthAdjust="spacingAndGlyphs" textLength="66" x="277" y="477.9292">Use Case 2</text><line style="stroke: #A80036; stroke-width: 1.0; stroke-dasharray: 1.0,2.0;" x1="343" x2="580.5" y1="474.6211" y2="474.6211"/><!--MD5=[5617cf6c0203deaad7dbff4f5099a816]
class MiddlewareGisProcessorImplementation--><rect fill="#FEFECE" filter="url(#f1h83ea0yxaivi)" height="132.8281" id="MiddlewareGisProcessorImplementation" style="stroke: #A80036; stroke-width: 1.5;" width="533" x="616.5" y="365"/><ellipse cx="754.25" cy="381" fill="#ADD1B2" rx="11" ry="11" style="stroke: #A80036; stroke-width: 1.0;"/><path d="M757.2188,386.6406 Q756.6406,386.9375 756,387.0781 Q755.3594,387.2344 754.6563,387.2344 Q752.1563,387.2344 750.8281,385.5938 Q749.5156,383.9375 749.5156,380.8125 Q749.5156,377.6875 750.8281,376.0313 Q752.1563,374.375 754.6563,374.375 Q755.3594,374.375 756,374.5313 Q756.6563,374.6875 757.2188,374.9844 L757.2188,377.7031 Q756.5938,377.125 756,376.8594 Q755.4063,376.5781 754.7813,376.5781 Q753.4375,376.5781 752.75,377.6563 Q752.0625,378.7188 752.0625,380.8125 Q752.0625,382.9063 752.75,383.9844 Q753.4375,385.0469 754.7813,385.0469 Q755.4063,385.0469 756,384.7813 Q756.5938,384.5 757.2188,383.9219 L757.2188,386.6406 Z "/><text fill="#000000" font-family="sans-serif" font-size="12" lengthAdjust="spacingAndGlyphs" textLength="249" x="774.75" y="385.1543">MiddlewareGisProcessorImplementation</text><line style="stroke: #A80036; stroke-width: 1.5;" x1="617.5" x2="1148.5" y1="397" y2="397"/><rect fill="none" height="6" style="stroke: #C82930; stroke-width: 1.0;" width="6" x="624.5" y="405"/><text fill="#000000" font-family="sans-serif" font-size="11" lengthAdjust="spacingAndGlyphs" textLength="270" x="636.5" y="411.2104">MiddlewareGisManager middlewareGisManager</text><line style="stroke: #A80036; stroke-width: 1.5;" x1="617.5" x2="1148.5" y1="417.8047" y2="417.8047"/><ellipse cx="627.5" cy="428.8047" fill="#84BE84" rx="3" ry="3" style="stroke: #038048; stroke-width: 1.0;"/><text fill="#000000" font-family="sans-serif" font-size="11" lengthAdjust="spacingAndGlyphs" textLength="507" x="636.5" y="432.0151">MiddlewareGisProcessorImplementation(MiddlewareGisManager middlewareGisManager)</text><ellipse cx="627.5" cy="458.4141" fill="#84BE84" rx="3" ry="3" style="stroke: #038048; stroke-width: 1.0;"/><text fill="#000000" font-family="sans-serif" font-size="11" lengthAdjust="spacingAndGlyphs" textLength="331" x="636.5" y="461.6245">String evaluateGpsSignalStrength(Satellite satelliteSignal)</text><line style="stroke: #A80036; stroke-width: 1.0; stroke-dasharray: 1.0,2.0;" x1="617.5" x2="850" y1="445.0117" y2="445.0117"/><text fill="#000000" font-family="sans-serif" font-size="11" lengthAdjust="spacingAndGlyphs" textLength="66" x="850" y="448.3198">Use Case 1</text><line style="stroke: #A80036; stroke-width: 1.0; stroke-dasharray: 1.0,2.0;" x1="916" x2="1148.5" y1="445.0117" y2="445.0117"/><ellipse cx="627.5" cy="488.0234" fill="#84BE84" rx="3" ry="3" style="stroke: #038048; stroke-width: 1.0;"/><text fill="#000000" font-family="sans-serif" font-size="11" lengthAdjust="spacingAndGlyphs" textLength="334" x="636.5" y="491.2339">String measureGpsSignalStrength(Satellite satelliteSignal)</text><line style="stroke: #A80036; stroke-width: 1.0; stroke-dasharray: 1.0,2.0;" x1="617.5" x2="850" y1="474.6211" y2="474.6211"/><text fill="#000000" font-family="sans-serif" font-size="11" lengthAdjust="spacingAndGlyphs" textLength="66" x="850" y="477.9292">Use Case 2</text><line style="stroke: #A80036; stroke-width: 1.0; stroke-dasharray: 1.0,2.0;" x1="916" x2="1148.5" y1="474.6211" y2="474.6211"/><!--MD5=[95fb96a46a83d39a2e18236f313a92fb]
class MiddlewareGisManagerImplementation--><rect fill="#FEFECE" filter="url(#f1h83ea0yxaivi)" height="171.2422" id="MiddlewareGisManagerImplementation" style="stroke: #A80036; stroke-width: 1.5;" width="503" x="1184.5" y="346"/><ellipse cx="1311.25" cy="362" fill="#ADD1B2" rx="11" ry="11" style="stroke: #A80036; stroke-width: 1.0;"/><path d="M1314.2188,367.6406 Q1313.6406,367.9375 1313,368.0781 Q1312.3594,368.2344 1311.6563,368.2344 Q1309.1563,368.2344 1307.8281,366.5938 Q1306.5156,364.9375 1306.5156,361.8125 Q1306.5156,358.6875 1307.8281,357.0313 Q1309.1563,355.375 1311.6563,355.375 Q1312.3594,355.375 1313,355.5313 Q1313.6563,355.6875 1314.2188,355.9844 L1314.2188,358.7031 Q1313.5938,358.125 1313,357.8594 Q1312.4063,357.5781 1311.7813,357.5781 Q1310.4375,357.5781 1309.75,358.6563 Q1309.0625,359.7188 1309.0625,361.8125 Q1309.0625,363.9063 1309.75,364.9844 Q1310.4375,366.0469 1311.7813,366.0469 Q1312.4063,366.0469 1313,365.7813 Q1313.5938,365.5 1314.2188,364.9219 L1314.2188,367.6406 Z "/><text fill="#000000" font-family="sans-serif" font-size="12" lengthAdjust="spacingAndGlyphs" textLength="241" x="1331.75" y="366.1543">MiddlewareGisManagerImplementation</text><line style="stroke: #A80036; stroke-width: 1.5;" x1="1185.5" x2="1686.5" y1="378" y2="378"/><rect fill="none" height="6" style="stroke: #C82930; stroke-width: 1.0;" width="6" x="1192.5" y="386"/><text fill="#000000" font-family="sans-serif" font-size="11" lengthAdjust="spacingAndGlyphs" textLength="249" x="1204.5" y="392.2104">DatabaseGisInterface databaseGisInterface</text><rect fill="none" height="6" style="stroke: #C82930; stroke-width: 1.0;" width="6" x="1192.5" y="398.8047"/><text fill="#000000" font-family="sans-serif" font-size="11" lengthAdjust="spacingAndGlyphs" textLength="203" x="1204.5" y="405.0151">LocationDataPoint locationDataPoint</text><line style="stroke: #A80036; stroke-width: 1.5;" x1="1185.5" x2="1686.5" y1="411.6094" y2="411.6094"/><ellipse cx="1195.5" cy="422.6094" fill="#84BE84" rx="3" ry="3" style="stroke: #038048; stroke-width: 1.0;"/><text fill="#000000" font-family="sans-serif" font-size="11" lengthAdjust="spacingAndGlyphs" textLength="477" x="1204.5" y="425.8198">MiddlewareGisManagerImplementation(DatabaseGisInterface databaseGisInterface)</text><ellipse cx="1195.5" cy="452.2188" fill="#84BE84" rx="3" ry="3" style="stroke: #038048; stroke-width: 1.0;"/><text fill="#000000" font-family="sans-serif" font-size="11" lengthAdjust="spacingAndGlyphs" textLength="331" x="1204.5" y="455.4292">String receieveGpsSignalStrength(Satellite satelliteSignal)</text><ellipse cx="1195.5" cy="465.0234" fill="#84BE84" rx="3" ry="3" style="stroke: #038048; stroke-width: 1.0;"/><text fill="#000000" font-family="sans-serif" font-size="11" lengthAdjust="spacingAndGlyphs" textLength="166" x="1204.5" y="468.2339">void storeLocationDataPoint()</text><line style="stroke: #A80036; stroke-width: 1.0; stroke-dasharray: 1.0,2.0;" x1="1185.5" x2="1403" y1="438.8164" y2="438.8164"/><text fill="#000000" font-family="sans-serif" font-size="11" lengthAdjust="spacingAndGlyphs" textLength="66" x="1403" y="442.1245">Use Case 1</text><line style="stroke: #A80036; stroke-width: 1.0; stroke-dasharray: 1.0,2.0;" x1="1469" x2="1686.5" y1="438.8164" y2="438.8164"/><ellipse cx="1195.5" cy="494.6328" fill="#84BE84" rx="3" ry="3" style="stroke: #038048; stroke-width: 1.0;"/><text fill="#000000" font-family="sans-serif" font-size="11" lengthAdjust="spacingAndGlyphs" textLength="306" x="1204.5" y="497.8433">String attemptToRegainGpsLock(String satelliteName)</text><ellipse cx="1195.5" cy="507.4375" fill="#84BE84" rx="3" ry="3" style="stroke: #038048; stroke-width: 1.0;"/><text fill="#000000" font-family="sans-serif" font-size="11" lengthAdjust="spacingAndGlyphs" textLength="311" x="1204.5" y="510.6479">String evaluateGpsSignalStrength(boolean signalValid)</text><line style="stroke: #A80036; stroke-width: 1.0; stroke-dasharray: 1.0,2.0;" x1="1185.5" x2="1403" y1="481.2305" y2="481.2305"/><text fill="#000000" font-family="sans-serif" font-size="11" lengthAdjust="spacingAndGlyphs" textLength="66" x="1403" y="484.5386">Use Case 2</text><line style="stroke: #A80036; stroke-width: 1.0; stroke-dasharray: 1.0,2.0;" x1="1469" x2="1686.5" y1="481.2305" y2="481.2305"/><!--MD5=[1d62022545d33e2b298eed7e640a6861]
class MiddlewareGisInterfaceImplementationTests--><rect fill="#FEFECE" filter="url(#f1h83ea0yxaivi)" height="86.4141" id="MiddlewareGisInterfaceImplementationTests" style="stroke: #A80036; stroke-width: 1.5;" width="308" x="1770" y="129.5"/><ellipse cx="1785" cy="145.5" fill="#ADD1B2" rx="11" ry="11" style="stroke: #A80036; stroke-width: 1.0;"/><path d="M1787.9688,151.1406 Q1787.3906,151.4375 1786.75,151.5781 Q1786.1094,151.7344 1785.4063,151.7344 Q1782.9063,151.7344 1781.5781,150.0938 Q1780.2656,148.4375 1780.2656,145.3125 Q1780.2656,142.1875 1781.5781,140.5313 Q1782.9063,138.875 1785.4063,138.875 Q1786.1094,138.875 1786.75,139.0313 Q1787.4063,139.1875 1787.9688,139.4844 L1787.9688,142.2031 Q1787.3438,141.625 1786.75,141.3594 Q1786.1563,141.0781 1785.5313,141.0781 Q1784.1875,141.0781 1783.5,142.1563 Q1782.8125,143.2188 1782.8125,145.3125 Q1782.8125,147.4063 1783.5,148.4844 Q1784.1875,149.5469 1785.5313,149.5469 Q1786.1563,149.5469 1786.75,149.2813 Q1787.3438,149 1787.9688,148.4219 L1787.9688,151.1406 Z "/><text fill="#000000" font-family="sans-serif" font-size="12" lengthAdjust="spacingAndGlyphs" textLength="276" x="1799" y="149.6543">MiddlewareGisInterfaceImplementationTests</text><line style="stroke: #A80036; stroke-width: 1.5;" x1="1771" x2="2077" y1="161.5" y2="161.5"/><line style="stroke: #A80036; stroke-width: 1.5;" x1="1771" x2="2077" y1="169.5" y2="169.5"/><ellipse cx="1781" cy="180.5" fill="#84BE84" rx="3" ry="3" style="stroke: #038048; stroke-width: 1.0;"/><text fill="#000000" font-family="sans-serif" font-size="11" lengthAdjust="spacingAndGlyphs" textLength="202" x="1790" y="183.7104">void isGpsSignalStrengthReceived()</text><ellipse cx="1781" cy="193.3047" fill="#84BE84" rx="3" ry="3" style="stroke: #038048; stroke-width: 1.0;"/><text fill="#000000" font-family="sans-serif" font-size="11" lengthAdjust="spacingAndGlyphs" textLength="202" x="1790" y="196.5151">void passSignalStrengthToDisplay()</text><ellipse cx="1781" cy="206.1094" fill="#84BE84" rx="3" ry="3" style="stroke: #038048; stroke-width: 1.0;"/><text fill="#000000" font-family="sans-serif" font-size="11" lengthAdjust="spacingAndGlyphs" textLength="143" x="1790" y="209.3198">void processorIsNotNull()</text><!--MD5=[9d979fd86c0627804733ee7219a6151e]
class MiddlewareGisProcessorImplementationTests--><rect fill="#FEFECE" filter="url(#f1h83ea0yxaivi)" height="86.4141" id="MiddlewareGisProcessorImplementationTests" style="stroke: #A80036; stroke-width: 1.5;" width="315" x="2113.5" y="129.5"/><ellipse cx="2128.5" cy="145.5" fill="#ADD1B2" rx="11" ry="11" style="stroke: #A80036; stroke-width: 1.0;"/><path d="M2131.4688,151.1406 Q2130.8906,151.4375 2130.25,151.5781 Q2129.6094,151.7344 2128.9063,151.7344 Q2126.4063,151.7344 2125.0781,150.0938 Q2123.7656,148.4375 2123.7656,145.3125 Q2123.7656,142.1875 2125.0781,140.5313 Q2126.4063,138.875 2128.9063,138.875 Q2129.6094,138.875 2130.25,139.0313 Q2130.9063,139.1875 2131.4688,139.4844 L2131.4688,142.2031 Q2130.8438,141.625 2130.25,141.3594 Q2129.6563,141.0781 2129.0313,141.0781 Q2127.6875,141.0781 2127,142.1563 Q2126.3125,143.2188 2126.3125,145.3125 Q2126.3125,147.4063 2127,148.4844 Q2127.6875,149.5469 2129.0313,149.5469 Q2129.6563,149.5469 2130.25,149.2813 Q2130.8438,149 2131.4688,148.4219 L2131.4688,151.1406 Z "/><text fill="#000000" font-family="sans-serif" font-size="12" lengthAdjust="spacingAndGlyphs" textLength="283" x="2142.5" y="149.6543">MiddlewareGisProcessorImplementationTests</text><line style="stroke: #A80036; stroke-width: 1.5;" x1="2114.5" x2="2427.5" y1="161.5" y2="161.5"/><line style="stroke: #A80036; stroke-width: 1.5;" x1="2114.5" x2="2427.5" y1="169.5" y2="169.5"/><ellipse cx="2124.5" cy="180.5" fill="#84BE84" rx="3" ry="3" style="stroke: #038048; stroke-width: 1.0;"/><text fill="#000000" font-family="sans-serif" font-size="11" lengthAdjust="spacingAndGlyphs" textLength="173" x="2133.5" y="183.7104">void isGpsSignalStrengthNull()</text><ellipse cx="2124.5" cy="193.3047" fill="#84BE84" rx="3" ry="3" style="stroke: #038048; stroke-width: 1.0;"/><text fill="#000000" font-family="sans-serif" font-size="11" lengthAdjust="spacingAndGlyphs" textLength="205" x="2133.5" y="196.5151">void checkValueGpsSignalStrength()</text><ellipse cx="2124.5" cy="206.1094" fill="#84BE84" rx="3" ry="3" style="stroke: #038048; stroke-width: 1.0;"/><text fill="#000000" font-family="sans-serif" font-size="11" lengthAdjust="spacingAndGlyphs" textLength="136" x="2133.5" y="209.3198">void managerIsNotNull()</text><!--MD5=[d234de36885e20e607a6cce78b3173aa]
class MiddlewareGisManagerImplementationTests--><rect fill="#FEFECE" filter="url(#f1h83ea0yxaivi)" height="227.2656" id="MiddlewareGisManagerImplementationTests" style="stroke: #A80036; stroke-width: 1.5;" width="307" x="2463.5" y="59"/><ellipse cx="2478.5" cy="75" fill="#ADD1B2" rx="11" ry="11" style="stroke: #A80036; stroke-width: 1.0;"/><path d="M2481.4688,80.6406 Q2480.8906,80.9375 2480.25,81.0781 Q2479.6094,81.2344 2478.9063,81.2344 Q2476.4063,81.2344 2475.0781,79.5938 Q2473.7656,77.9375 2473.7656,74.8125 Q2473.7656,71.6875 2475.0781,70.0313 Q2476.4063,68.375 2478.9063,68.375 Q2479.6094,68.375 2480.25,68.5313 Q2480.9063,68.6875 2481.4688,68.9844 L2481.4688,71.7031 Q2480.8438,71.125 2480.25,70.8594 Q2479.6563,70.5781 2479.0313,70.5781 Q2477.6875,70.5781 2477,71.6563 Q2476.3125,72.7188 2476.3125,74.8125 Q2476.3125,76.9063 2477,77.9844 Q2477.6875,79.0469 2479.0313,79.0469 Q2479.6563,79.0469 2480.25,78.7813 Q2480.8438,78.5 2481.4688,77.9219 L2481.4688,80.6406 Z "/><text fill="#000000" font-family="sans-serif" font-size="12" lengthAdjust="spacingAndGlyphs" textLength="275" x="2492.5" y="79.1543">MiddlewareGisManagerImplementationTests</text><line style="stroke: #A80036; stroke-width: 1.5;" x1="2464.5" x2="2769.5" y1="91" y2="91"/><line style="stroke: #A80036; stroke-width: 1.5;" x1="2464.5" x2="2769.5" y1="99" y2="99"/><ellipse cx="2474.5" cy="110" fill="#84BE84" rx="3" ry="3" style="stroke: #038048; stroke-width: 1.0;"/><text fill="#000000" font-family="sans-serif" font-size="11" lengthAdjust="spacingAndGlyphs" textLength="202" x="2483.5" y="113.2104">void isGpsSignalStrengthReceived()</text><ellipse cx="2474.5" cy="122.8047" fill="#84BE84" rx="3" ry="3" style="stroke: #038048; stroke-width: 1.0;"/><text fill="#000000" font-family="sans-serif" font-size="11" lengthAdjust="spacingAndGlyphs" textLength="184" x="2483.5" y="126.0151">void isLocationDataPointStored()</text><ellipse cx="2474.5" cy="135.6094" fill="#84BE84" rx="3" ry="3" style="stroke: #038048; stroke-width: 1.0;"/><text fill="#000000" font-family="sans-serif" font-size="11" lengthAdjust="spacingAndGlyphs" textLength="145" x="2483.5" y="138.8198">void isGpsLockRegained()</text><ellipse cx="2474.5" cy="148.4141" fill="#84BE84" rx="3" ry="3" style="stroke: #038048; stroke-width: 1.0;"/><text fill="#000000" font-family="sans-serif" font-size="11" lengthAdjust="spacingAndGlyphs" textLength="200" x="2483.5" y="151.6245">void isGpsSignalStrengthEvaluate()</text><ellipse cx="2474.5" cy="161.2188" fill="#84BE84" rx="3" ry="3" style="stroke: #038048; stroke-width: 1.0;"/><text fill="#000000" font-family="sans-serif" font-size="11" lengthAdjust="spacingAndGlyphs" textLength="174" x="2483.5" y="164.4292">void isDegradedModeEntered()</text><ellipse cx="2474.5" cy="174.0234" fill="#84BE84" rx="3" ry="3" style="stroke: #038048; stroke-width: 1.0;"/><text fill="#000000" font-family="sans-serif" font-size="11" lengthAdjust="spacingAndGlyphs" textLength="214" x="2483.5" y="177.2339">void isDegradedModeRequestStored()</text><ellipse cx="2474.5" cy="186.8281" fill="#84BE84" rx="3" ry="3" style="stroke: #038048; stroke-width: 1.0;"/><text fill="#000000" font-family="sans-serif" font-size="11" lengthAdjust="spacingAndGlyphs" textLength="220" x="2483.5" y="190.0386">void gpsPrioritizeListRetrievalRequest()</text><ellipse cx="2474.5" cy="199.6328" fill="#84BE84" rx="3" ry="3" style="stroke: #038048; stroke-width: 1.0;"/><text fill="#000000" font-family="sans-serif" font-size="11" lengthAdjust="spacingAndGlyphs" textLength="116" x="2483.5" y="202.8433">void selectNewGps()</text><ellipse cx="2474.5" cy="212.4375" fill="#84BE84" rx="3" ry="3" style="stroke: #038048; stroke-width: 1.0;"/><text fill="#000000" font-family="sans-serif" font-size="11" lengthAdjust="spacingAndGlyphs" textLength="150" x="2483.5" y="215.6479">void enteredNormalMode()</text><ellipse cx="2474.5" cy="225.2422" fill="#84BE84" rx="3" ry="3" style="stroke: #038048; stroke-width: 1.0;"/><text fill="#000000" font-family="sans-serif" font-size="11" lengthAdjust="spacingAndGlyphs" textLength="155" x="2483.5" y="228.4526">void enteredStandbyMode()</text><ellipse cx="2474.5" cy="238.0469" fill="#84BE84" rx="3" ry="3" style="stroke: #038048; stroke-width: 1.0;"/><text fill="#000000" font-family="sans-serif" font-size="11" lengthAdjust="spacingAndGlyphs" textLength="165" x="2483.5" y="241.2573">void isGpsPrioritizedListNull()</text><ellipse cx="2474.5" cy="250.8516" fill="#84BE84" rx="3" ry="3" style="stroke: #038048; stroke-width: 1.0;"/><text fill="#000000" font-family="sans-serif" font-size="11" lengthAdjust="spacingAndGlyphs" textLength="182" x="2483.5" y="254.062">void isGpsPrioritizedListStored()</text><ellipse cx="2474.5" cy="263.6563" fill="#84BE84" rx="3" ry="3" style="stroke: #038048; stroke-width: 1.0;"/><text fill="#000000" font-family="sans-serif" font-size="11" lengthAdjust="spacingAndGlyphs" textLength="205" x="2483.5" y="266.8667">void isStandbyModeRequestStored()</text><ellipse cx="2474.5" cy="276.4609" fill="#84BE84" rx="3" ry="3" style="stroke: #038048; stroke-width: 1.0;"/><text fill="#000000" font-family="sans-serif" font-size="11" lengthAdjust="spacingAndGlyphs" textLength="188" x="2483.5" y="279.6714">void databaseInterfaceIsNotNull()</text><!--MD5=[51651d19c556f37aaa3859a830b9d09e]
class MiddlewareGisProcessorStub--><rect fill="#FEFECE" filter="url(#f1h83ea0yxaivi)" height="107.2188" id="MiddlewareGisProcessorStub" style="stroke: #A80036; stroke-width: 1.5;" width="360" x="1744" y="378"/><ellipse cx="1829.25" cy="394" fill="#ADD1B2" rx="11" ry="11" style="stroke: #A80036; stroke-width: 1.0;"/><path d="M1832.2188,399.6406 Q1831.6406,399.9375 1831,400.0781 Q1830.3594,400.2344 1829.6563,400.2344 Q1827.1563,400.2344 1825.8281,398.5938 Q1824.5156,396.9375 1824.5156,393.8125 Q1824.5156,390.6875 1825.8281,389.0313 Q1827.1563,387.375 1829.6563,387.375 Q1830.3594,387.375 1831,387.5313 Q1831.6563,387.6875 1832.2188,387.9844 L1832.2188,390.7031 Q1831.5938,390.125 1831,389.8594 Q1830.4063,389.5781 1829.7813,389.5781 Q1828.4375,389.5781 1827.75,390.6563 Q1827.0625,391.7188 1827.0625,393.8125 Q1827.0625,395.9063 1827.75,396.9844 Q1828.4375,398.0469 1829.7813,398.0469 Q1830.4063,398.0469 1831,397.7813 Q1831.5938,397.5 1832.2188,396.9219 L1832.2188,399.6406 Z "/><text fill="#000000" font-family="sans-serif" font-size="12" lengthAdjust="spacingAndGlyphs" textLength="181" x="1849.75" y="398.1543">MiddlewareGisProcessorStub</text><line style="stroke: #A80036; stroke-width: 1.5;" x1="1745" x2="2103" y1="410" y2="410"/><line style="stroke: #A80036; stroke-width: 1.5;" x1="1745" x2="2103" y1="418" y2="418"/><ellipse cx="1755" cy="445.8047" fill="#84BE84" rx="3" ry="3" style="stroke: #038048; stroke-width: 1.0;"/><text fill="#000000" font-family="sans-serif" font-size="11" lengthAdjust="spacingAndGlyphs" textLength="331" x="1764" y="449.0151">String evaluateGpsSignalStrength(Satellite satelliteSignal)</text><line style="stroke: #A80036; stroke-width: 1.0; stroke-dasharray: 1.0,2.0;" x1="1745" x2="1891" y1="432.4023" y2="432.4023"/><text fill="#000000" font-family="sans-serif" font-size="11" lengthAdjust="spacingAndGlyphs" textLength="66" x="1891" y="435.7104">Use Case 1</text><line style="stroke: #A80036; stroke-width: 1.0; stroke-dasharray: 1.0,2.0;" x1="1957" x2="2103" y1="432.4023" y2="432.4023"/><ellipse cx="1755" cy="475.4141" fill="#84BE84" rx="3" ry="3" style="stroke: #038048; stroke-width: 1.0;"/><text fill="#000000" font-family="sans-serif" font-size="11" lengthAdjust="spacingAndGlyphs" textLength="334" x="1764" y="478.6245">String measureGpsSignalStrength(Satellite satelliteSignal)</text><line style="stroke: #A80036; stroke-width: 1.0; stroke-dasharray: 1.0,2.0;" x1="1745" x2="1891" y1="462.0117" y2="462.0117"/><text fill="#000000" font-family="sans-serif" font-size="11" lengthAdjust="spacingAndGlyphs" textLength="66" x="1891" y="465.3198">Use Case 2</text><line style="stroke: #A80036; stroke-width: 1.0; stroke-dasharray: 1.0,2.0;" x1="1957" x2="2103" y1="462.0117" y2="462.0117"/><!--MD5=[74a4f2264e7a0b184f8bb8bbbacbeff6]
class MiddlewareGisManagerStub--><rect fill="#FEFECE" filter="url(#f1h83ea0yxaivi)" height="132.8281" id="MiddlewareGisManagerStub" style="stroke: #A80036; stroke-width: 1.5;" width="357" x="2139.5" y="365"/><ellipse cx="2227.25" cy="381" fill="#ADD1B2" rx="11" ry="11" style="stroke: #A80036; stroke-width: 1.0;"/><path d="M2230.2188,386.6406 Q2229.6406,386.9375 2229,387.0781 Q2228.3594,387.2344 2227.6563,387.2344 Q2225.1563,387.2344 2223.8281,385.5938 Q2222.5156,383.9375 2222.5156,380.8125 Q2222.5156,377.6875 2223.8281,376.0313 Q2225.1563,374.375 2227.6563,374.375 Q2228.3594,374.375 2229,374.5313 Q2229.6563,374.6875 2230.2188,374.9844 L2230.2188,377.7031 Q2229.5938,377.125 2229,376.8594 Q2228.4063,376.5781 2227.7813,376.5781 Q2226.4375,376.5781 2225.75,377.6563 Q2225.0625,378.7188 2225.0625,380.8125 Q2225.0625,382.9063 2225.75,383.9844 Q2226.4375,385.0469 2227.7813,385.0469 Q2228.4063,385.0469 2229,384.7813 Q2229.5938,384.5 2230.2188,383.9219 L2230.2188,386.6406 Z "/><text fill="#000000" font-family="sans-serif" font-size="12" lengthAdjust="spacingAndGlyphs" textLength="173" x="2247.75" y="385.1543">MiddlewareGisManagerStub</text><line style="stroke: #A80036; stroke-width: 1.5;" x1="2140.5" x2="2495.5" y1="397" y2="397"/><line style="stroke: #A80036; stroke-width: 1.5;" x1="2140.5" x2="2495.5" y1="405" y2="405"/><ellipse cx="2150.5" cy="432.8047" fill="#84BE84" rx="3" ry="3" style="stroke: #038048; stroke-width: 1.0;"/><text fill="#000000" font-family="sans-serif" font-size="11" lengthAdjust="spacingAndGlyphs" textLength="331" x="2159.5" y="436.0151">String receieveGpsSignalStrength(Satellite satelliteSignal)</text><ellipse cx="2150.5" cy="445.6094" fill="#84BE84" rx="3" ry="3" style="stroke: #038048; stroke-width: 1.0;"/><text fill="#000000" font-family="sans-serif" font-size="11" lengthAdjust="spacingAndGlyphs" textLength="166" x="2159.5" y="448.8198">void storeLocationDataPoint()</text><line style="stroke: #A80036; stroke-width: 1.0; stroke-dasharray: 1.0,2.0;" x1="2140.5" x2="2285" y1="419.4023" y2="419.4023"/><text fill="#000000" font-family="sans-serif" font-size="11" lengthAdjust="spacingAndGlyphs" textLength="66" x="2285" y="422.7104">Use Case 1</text><line style="stroke: #A80036; stroke-width: 1.0; stroke-dasharray: 1.0,2.0;" x1="2351" x2="2495.5" y1="419.4023" y2="419.4023"/><ellipse cx="2150.5" cy="475.2188" fill="#84BE84" rx="3" ry="3" style="stroke: #038048; stroke-width: 1.0;"/><text fill="#000000" font-family="sans-serif" font-size="11" lengthAdjust="spacingAndGlyphs" textLength="306" x="2159.5" y="478.4292">String attemptToRegainGpsLock(String satelliteName)</text><ellipse cx="2150.5" cy="488.0234" fill="#84BE84" rx="3" ry="3" style="stroke: #038048; stroke-width: 1.0;"/><text fill="#000000" font-family="sans-serif" font-size="11" lengthAdjust="spacingAndGlyphs" textLength="311" x="2159.5" y="491.2339">String evaluateGpsSignalStrength(boolean signalValid)</text><line style="stroke: #A80036; stroke-width: 1.0; stroke-dasharray: 1.0,2.0;" x1="2140.5" x2="2285" y1="461.8164" y2="461.8164"/><text fill="#000000" font-family="sans-serif" font-size="11" lengthAdjust="spacingAndGlyphs" textLength="66" x="2285" y="465.1245">Use Case 2</text><line style="stroke: #A80036; stroke-width: 1.0; stroke-dasharray: 1.0,2.0;" x1="2351" x2="2495.5" y1="461.8164" y2="461.8164"/><!--MD5=[ab27779a11d5209c16fcbeb03aa21929]
class DatabaseGisInterfaceStub--><rect fill="#FEFECE" filter="url(#f1h83ea0yxaivi)" height="120.0234" id="DatabaseGisInterfaceStub" style="stroke: #A80036; stroke-width: 1.5;" width="382" x="2532" y="371.5"/><ellipse cx="2636.25" cy="387.5" fill="#ADD1B2" rx="11" ry="11" style="stroke: #A80036; stroke-width: 1.0;"/><path d="M2639.2188,393.1406 Q2638.6406,393.4375 2638,393.5781 Q2637.3594,393.7344 2636.6563,393.7344 Q2634.1563,393.7344 2632.8281,392.0938 Q2631.5156,390.4375 2631.5156,387.3125 Q2631.5156,384.1875 2632.8281,382.5313 Q2634.1563,380.875 2636.6563,380.875 Q2637.3594,380.875 2638,381.0313 Q2638.6563,381.1875 2639.2188,381.4844 L2639.2188,384.2031 Q2638.5938,383.625 2638,383.3594 Q2637.4063,383.0781 2636.7813,383.0781 Q2635.4375,383.0781 2634.75,384.1563 Q2634.0625,385.2188 2634.0625,387.3125 Q2634.0625,389.4063 2634.75,390.4844 Q2635.4375,391.5469 2636.7813,391.5469 Q2637.4063,391.5469 2638,391.2813 Q2638.5938,391 2639.2188,390.4219 L2639.2188,393.1406 Z "/><text fill="#000000" font-family="sans-serif" font-size="12" lengthAdjust="spacingAndGlyphs" textLength="165" x="2656.75" y="391.6543">DatabaseGisInterfaceStub</text><line style="stroke: #A80036; stroke-width: 1.5;" x1="2533" x2="2913" y1="403.5" y2="403.5"/><line style="stroke: #A80036; stroke-width: 1.5;" x1="2533" x2="2913" y1="411.5" y2="411.5"/><ellipse cx="2543" cy="439.3047" fill="#84BE84" rx="3" ry="3" style="stroke: #038048; stroke-width: 1.0;"/><text fill="#000000" font-family="sans-serif" font-size="11" lengthAdjust="spacingAndGlyphs" textLength="356" x="2552" y="442.5151">void recieveStoreRequest(LocationDataPoint locationDataPoint)</text><line style="stroke: #A80036; stroke-width: 1.0; stroke-dasharray: 1.0,2.0;" x1="2533" x2="2690" y1="425.9023" y2="425.9023"/><text fill="#000000" font-family="sans-serif" font-size="11" lengthAdjust="spacingAndGlyphs" textLength="66" x="2690" y="429.2104">Use Case 1</text><line style="stroke: #A80036; stroke-width: 1.0; stroke-dasharray: 1.0,2.0;" x1="2756" x2="2913" y1="425.9023" y2="425.9023"/><ellipse cx="2543" cy="468.9141" fill="#84BE84" rx="3" ry="3" style="stroke: #038048; stroke-width: 1.0;"/><text fill="#000000" font-family="sans-serif" font-size="11" lengthAdjust="spacingAndGlyphs" textLength="233" x="2552" y="472.1245">String recieveModeRequest(String mode)</text><ellipse cx="2543" cy="481.7188" fill="#84BE84" rx="3" ry="3" style="stroke: #038048; stroke-width: 1.0;"/><text fill="#000000" font-family="sans-serif" font-size="11" lengthAdjust="spacingAndGlyphs" textLength="275" x="2552" y="484.9292">String recieveNextSatRequest(String currentSat)</text><line style="stroke: #A80036; stroke-width: 1.0; stroke-dasharray: 1.0,2.0;" x1="2533" x2="2690" y1="455.5117" y2="455.5117"/><text fill="#000000" font-family="sans-serif" font-size="11" lengthAdjust="spacingAndGlyphs" textLength="66" x="2690" y="458.8198">Use Case 2</text><line style="stroke: #A80036; stroke-width: 1.0; stroke-dasharray: 1.0,2.0;" x1="2756" x2="2913" y1="455.5117" y2="455.5117"/><polygon fill="#FFFFFF" filter="url(#f1h83ea0yxaivi)" points="2945.5,146,3220.5,146,3227.5,168.2969,3234.5,168.2969,3234.5,198.5938,2945.5,198.5938,2945.5,146" style="stroke: #000000; stroke-width: 1.5;"/><line style="stroke: #000000; stroke-width: 1.5;" x1="2945.5" x2="3227.5" y1="168.2969" y2="168.2969"/><text fill="#000000" font-family="sans-serif" font-size="14" font-weight="bold" lengthAdjust="spacingAndGlyphs" textLength="269" x="2949.5" y="160.9951">edu.oakland.helper.middleware01</text><!--MD5=[b7f9f61643177129a34bef2d42772173]
link MiddlewareGisInterface to MiddlewareGisProcessor--><!--MD5=[03ed72b80ae2e539149d41f6733cb2b6]
link MiddlewareGisProcessor to MiddlewareGisManager--><!--MD5=[65e8ae3be48d8b317df68a5ff25b225a]
link MiddlewareGisInterface to MiddlewareGisInterfaceImplementation--><!--MD5=[bfd30003311d14dcb404997a195ab642]
link MiddlewareGisInterfaceImplementation to MiddlewareGisProcessorImplementation--><!--MD5=[e58f60c707b124812ecd922950d23b3a]
link MiddlewareGisProcessorImplementation to MiddlewareGisManagerImplementation--><!--MD5=[66a075d8653edad79e5184ccbc7710ba]
link MiddlewareGisInterfaceImplementationTests to MiddlewareGisProcessorImplementationTests--><!--MD5=[caf97344b76f1f237682011bbbe3fff7]
link MiddlewareGisProcessorImplementationTests to MiddlewareGisManagerImplementationTests--><!--MD5=[973ed9568ae6a7304b1bd90c0eb4e200]
link MiddlewareGisInterfaceImplementationTests to MiddlewareGisProcessorStub--><!--MD5=[c90f2bbba516d9904fe974e55994d75f]
link MiddlewareGisProcessorStub to MiddlewareGisManagerStub--><!--MD5=[f67c056fc6717e6747b4e825179381c0]
link MiddlewareGisManagerStub to DatabaseGisInterfaceStub--><!--MD5=[67902cf7481756822a0332c062e6b79f]
@startuml Middleware01Packages


package edu.oakland.production.middleware01 {

}


package edu.oakland.production.middleware01 {
    interface MiddlewareGisInterface {
        __
        .. Use Case 1 ..
        {abstract} + String receiveGpsSignalStrength(Satellite satelliteSignal)
        .. Use Case 2 ..
        {abstract} + String receiveGpsSignalStrength(Satellite satelliteSignal)
    }
}


package edu.oakland.production.middleware01 {
    interface MiddlewareGisProcessor {
        __
        .. Use Case 1 ..
        {abstract} + String evaluateGpsSignalStrength(Satellite satelliteSignal)
        .. Use Case 2 ..
        {abstract} + String measureGpsSignalStrength(Satellite satelliteSignal)
    }
}


package edu.oakland.production.middleware01 {
    interface MiddlewareGisManager {
        __
        .. Use Case 1 ..
        {abstract} + String receieveGpsSignalStrength(Satellite satelliteSignal)
        {abstract} + void storeLocationDataPoint()
        .. Use Case 2 ..
        {abstract} + String attemptToRegainGpsLock(String satelliteName)
        {abstract} + String evaluateGpsSignalStrength(boolean signalValid)
    }
}


package edu.oakland.production.middleware01 {
    class MiddlewareGisInterfaceImplementation {
        - MiddlewareGisProcessor middlewareGisProcessor
        __
        + MiddlewareGisInterfaceImplementation(MiddlewareGisProcessor middlewareGisProcessor)
        .. Use Case 1 ..
        + String receiveGpsSignalStrength(Satellite satelliteSignal)
        .. Use Case 2 ..
        + String receiveGpsSignalStrength(Satellite satelliteSignal)
    }
}


package edu.oakland.production.middleware01 {
    class MiddlewareGisProcessorImplementation {
        - MiddlewareGisManager middlewareGisManager
        __
        + MiddlewareGisProcessorImplementation(MiddlewareGisManager middlewareGisManager)
        .. Use Case 1 ..
        + String evaluateGpsSignalStrength(Satellite satelliteSignal)
        .. Use Case 2 ..
        + String measureGpsSignalStrength(Satellite satelliteSignal)
    }
}


package edu.oakland.production.middleware01 {
    class MiddlewareGisManagerImplementation {
        - DatabaseGisInterface databaseGisInterface
        - LocationDataPoint locationDataPoint
        __
        + MiddlewareGisManagerImplementation(DatabaseGisInterface databaseGisInterface)
        .. Use Case 1 ..
        + String receieveGpsSignalStrength(Satellite satelliteSignal)
        + void storeLocationDataPoint()
        .. Use Case 2 ..
        + String attemptToRegainGpsLock(String satelliteName)
        + String evaluateGpsSignalStrength(boolean signalValid)
    }
}



package edu.oakland.test.middleware01 {
    
}


package edu.oakland.test.middleware01 {
  class MiddlewareGisInterfaceImplementationTests {
    + void isGpsSignalStrengthReceived()
    + void passSignalStrengthToDisplay()
    + void processorIsNotNull()
  }
}


package edu.oakland.test.middleware01 {
  class MiddlewareGisProcessorImplementationTests {
    + void isGpsSignalStrengthNull()
    + void checkValueGpsSignalStrength()
    + void managerIsNotNull()
  }
}


package edu.oakland.test.middleware01 {
  class MiddlewareGisManagerImplementationTests {
    + void isGpsSignalStrengthReceived()
    + void isLocationDataPointStored()
    + void isGpsLockRegained()
    + void isGpsSignalStrengthEvaluate()
    + void isDegradedModeEntered()
    + void isDegradedModeRequestStored()
    + void gpsPrioritizeListRetrievalRequest()
    + void selectNewGps()
    + void enteredNormalMode()
    + void enteredStandbyMode()
    + void isGpsPrioritizedListNull()
    + void isGpsPrioritizedListStored()
    + void isStandbyModeRequestStored()
    + void databaseInterfaceIsNotNull()
  }
}


package edu.oakland.test.middleware01 {
    class MiddlewareGisProcessorStub {
        __
        .. Use Case 1 ..
        + String evaluateGpsSignalStrength(Satellite satelliteSignal)
        .. Use Case 2 ..
        + String measureGpsSignalStrength(Satellite satelliteSignal)
    }
}


package edu.oakland.test.middleware01 {
    class MiddlewareGisManagerStub {
        __
        .. Use Case 1 ..
        + String receieveGpsSignalStrength(Satellite satelliteSignal)
        + void storeLocationDataPoint()
        .. Use Case 2 ..
        + String attemptToRegainGpsLock(String satelliteName)
        + String evaluateGpsSignalStrength(boolean signalValid)
    }
}


package edu.oakland.test.middleware01 {
    class DatabaseGisInterfaceStub {
        __
        .. Use Case 1 ..
        + void recieveStoreRequest(LocationDataPoint locationDataPoint)
        .. Use Case 2 ..
        + String recieveModeRequest(String mode)
        + String recieveNextSatRequest(String currentSat)
    }
}



package edu.oakland.helper.middleware01 {
    
}


@enduml

PlantUML version 1.2020.02(Sun Mar 01 10:22:07 GMT 2020)
(GPL source distribution)
Java Runtime: OpenJDK Runtime Environment
JVM: OpenJDK 64-Bit Server VM
Java Version: 11.0.9+11-Ubuntu-0ubuntu1
Operating System: Linux
Default Encoding: ANSI_X3.4-1968
Language: en
Country: US
--></g></svg>