<?xml version="1.0" encoding="UTF-8" standalone="no"?><svg xmlns="http://www.w3.org/2000/svg" xmlns:xlink="http://www.w3.org/1999/xlink" contentScriptType="application/ecmascript" contentStyleType="text/css" height="561px" preserveAspectRatio="none" style="width:2793px;height:561px;" version="1.1" viewBox="0 0 2793 561" width="2793px" zoomAndPan="magnify"><defs><filter height="300%" id="f1unj27qmdiirk" width="300%" x="-1" y="-1"><feGaussianBlur result="blurOut" stdDeviation="2.0"/><feColorMatrix in="blurOut" result="blurOut2" type="matrix" values="0 0 0 0 0 0 0 0 0 0 0 0 0 0 0 0 0 0 .4 0"/><feOffset dx="4.0" dy="4.0" in="blurOut2" result="blurOut3"/><feBlend in="SourceGraphic" in2="blurOut3" mode="normal"/></filter></defs><g><!--MD5=[33504725b8a69ba2207f0a836957a91c]
cluster edu.oakland.production.middleware02--><polygon fill="#FFFFFF" filter="url(#f1unj27qmdiirk)" points="1487,28,1797,28,1804,50.2969,2771,50.2969,2771,388,1487,388,1487,28" style="stroke: #000000; stroke-width: 1.5;"/><line style="stroke: #000000; stroke-width: 1.5;" x1="1487" x2="1804" y1="50.2969" y2="50.2969"/><text fill="#000000" font-family="sans-serif" font-size="14" font-weight="bold" lengthAdjust="spacingAndGlyphs" textLength="304" x="1491" y="42.9951">edu.oakland.production.middleware02</text><!--MD5=[73d4e355f259fb8d2c716d693a5be920]
cluster edu.oakland.helper.middleware02--><polygon fill="#FFFFFF" filter="url(#f1unj27qmdiirk)" points="927,412,1202,412,1209,434.2969,1477,434.2969,1477,549,927,549,927,412" style="stroke: #000000; stroke-width: 1.5;"/><line style="stroke: #000000; stroke-width: 1.5;" x1="927" x2="1209" y1="434.2969" y2="434.2969"/><text fill="#000000" font-family="sans-serif" font-size="14" font-weight="bold" lengthAdjust="spacingAndGlyphs" textLength="269" x="931" y="426.9951">edu.oakland.helper.middleware02</text><!--MD5=[def9027c776d62015452659d5d6059fb]
cluster edu.oakland.test.middleware02--><polygon fill="#FFFFFF" filter="url(#f1unj27qmdiirk)" points="22,24,277,24,284,46.2969,1463,46.2969,1463,369,22,369,22,24" style="stroke: #000000; stroke-width: 1.5;"/><line style="stroke: #000000; stroke-width: 1.5;" x1="22" x2="284" y1="46.2969" y2="46.2969"/><text fill="#000000" font-family="sans-serif" font-size="14" font-weight="bold" lengthAdjust="spacingAndGlyphs" textLength="249" x="26" y="38.9951">edu.oakland.test.middleware02</text><!--MD5=[d3cb230b9040bd9072bb1f490e167601]
class MiddlewareCommInterface--><rect fill="#FEFECE" filter="url(#f1unj27qmdiirk)" height="77.6094" id="MiddlewareCommInterface" style="stroke: #A80036; stroke-width: 1.5;" width="198" x="2479" y="63"/><ellipse cx="2494" cy="79" fill="#B4A7E5" rx="11" ry="11" style="stroke: #A80036; stroke-width: 1.0;"/><path d="M2489.9219,74.7656 L2489.9219,72.6094 L2497.3125,72.6094 L2497.3125,74.7656 L2494.8438,74.7656 L2494.8438,82.8438 L2497.3125,82.8438 L2497.3125,85 L2489.9219,85 L2489.9219,82.8438 L2492.3906,82.8438 L2492.3906,74.7656 L2489.9219,74.7656 Z "/><text fill="#000000" font-family="sans-serif" font-size="12" font-style="italic" lengthAdjust="spacingAndGlyphs" textLength="166" x="2508" y="83.1543">MiddlewareCommInterface</text><line style="stroke: #A80036; stroke-width: 1.5;" x1="2480" x2="2676" y1="95" y2="95"/><line style="stroke: #A80036; stroke-width: 1.5;" x1="2480" x2="2676" y1="103" y2="103"/><ellipse cx="2490" cy="130.8047" fill="#84BE84" rx="3" ry="3" style="stroke: #038048; stroke-width: 1.0;"/><text fill="#000000" font-family="sans-serif" font-size="11" font-style="italic" lengthAdjust="spacingAndGlyphs" textLength="171" x="2499" y="134.0151">TrackData requestRfid(int rfid)</text><line style="stroke: #A80036; stroke-width: 1.0; stroke-dasharray: 1.0,2.0;" x1="2480" x2="2545" y1="117.4023" y2="117.4023"/><text fill="#000000" font-family="sans-serif" font-size="11" lengthAdjust="spacingAndGlyphs" textLength="66" x="2545" y="120.7104">Use Case 1</text><line style="stroke: #A80036; stroke-width: 1.0; stroke-dasharray: 1.0,2.0;" x1="2611" x2="2676" y1="117.4023" y2="117.4023"/><!--MD5=[d01e667c21cf622da77e8a7601ca5c91]
class MiddlewareCommLinkManager--><rect fill="#FEFECE" filter="url(#f1unj27qmdiirk)" height="77.6094" id="MiddlewareCommLinkManager" style="stroke: #A80036; stroke-width: 1.5;" width="221" x="1919.5" y="63"/><ellipse cx="1934.5" cy="79" fill="#B4A7E5" rx="11" ry="11" style="stroke: #A80036; stroke-width: 1.0;"/><path d="M1930.4219,74.7656 L1930.4219,72.6094 L1937.8125,72.6094 L1937.8125,74.7656 L1935.3438,74.7656 L1935.3438,82.8438 L1937.8125,82.8438 L1937.8125,85 L1930.4219,85 L1930.4219,82.8438 L1932.8906,82.8438 L1932.8906,74.7656 L1930.4219,74.7656 Z "/><text fill="#000000" font-family="sans-serif" font-size="12" font-style="italic" lengthAdjust="spacingAndGlyphs" textLength="189" x="1948.5" y="83.1543">MiddlewareCommLinkManager</text><line style="stroke: #A80036; stroke-width: 1.5;" x1="1920.5" x2="2139.5" y1="95" y2="95"/><line style="stroke: #A80036; stroke-width: 1.5;" x1="1920.5" x2="2139.5" y1="103" y2="103"/><ellipse cx="1930.5" cy="130.8047" fill="#84BE84" rx="3" ry="3" style="stroke: #038048; stroke-width: 1.0;"/><text fill="#000000" font-family="sans-serif" font-size="11" font-style="italic" lengthAdjust="spacingAndGlyphs" textLength="160" x="1939.5" y="134.0151">TrackData parseRfid(int rfid)</text><line style="stroke: #A80036; stroke-width: 1.0; stroke-dasharray: 1.0,2.0;" x1="1920.5" x2="1997" y1="117.4023" y2="117.4023"/><text fill="#000000" font-family="sans-serif" font-size="11" lengthAdjust="spacingAndGlyphs" textLength="66" x="1997" y="120.7104">Use Case 1</text><line style="stroke: #A80036; stroke-width: 1.0; stroke-dasharray: 1.0,2.0;" x1="2063" x2="2139.5" y1="117.4023" y2="117.4023"/><!--MD5=[4915649770e9045e9ea9156a01fd67e8]
class MiddlewareCommDatabaseInterface--><rect fill="#FEFECE" filter="url(#f1unj27qmdiirk)" height="77.6094" id="MiddlewareCommDatabaseInterface" style="stroke: #A80036; stroke-width: 1.5;" width="258" x="1527" y="63"/><ellipse cx="1542" cy="79" fill="#B4A7E5" rx="11" ry="11" style="stroke: #A80036; stroke-width: 1.0;"/><path d="M1537.9219,74.7656 L1537.9219,72.6094 L1545.3125,72.6094 L1545.3125,74.7656 L1542.8438,74.7656 L1542.8438,82.8438 L1545.3125,82.8438 L1545.3125,85 L1537.9219,85 L1537.9219,82.8438 L1540.3906,82.8438 L1540.3906,74.7656 L1537.9219,74.7656 Z "/><text fill="#000000" font-family="sans-serif" font-size="12" font-style="italic" lengthAdjust="spacingAndGlyphs" textLength="226" x="1556" y="83.1543">MiddlewareCommDatabaseInterface</text><line style="stroke: #A80036; stroke-width: 1.5;" x1="1528" x2="1784" y1="95" y2="95"/><line style="stroke: #A80036; stroke-width: 1.5;" x1="1528" x2="1784" y1="103" y2="103"/><ellipse cx="1538" cy="130.8047" fill="#84BE84" rx="3" ry="3" style="stroke: #038048; stroke-width: 1.0;"/><text fill="#000000" font-family="sans-serif" font-size="11" font-style="italic" lengthAdjust="spacingAndGlyphs" textLength="123" x="1547" y="134.0151">int checkCurrentRfid()</text><line style="stroke: #A80036; stroke-width: 1.0; stroke-dasharray: 1.0,2.0;" x1="1528" x2="1623" y1="117.4023" y2="117.4023"/><text fill="#000000" font-family="sans-serif" font-size="11" lengthAdjust="spacingAndGlyphs" textLength="66" x="1623" y="120.7104">Use Case 1</text><line style="stroke: #A80036; stroke-width: 1.0; stroke-dasharray: 1.0,2.0;" x1="1689" x2="1784" y1="117.4023" y2="117.4023"/><!--MD5=[0a03c366ade61429da89cc477d567a32]
class MiddlewareCommInterfaceImplementation--><rect fill="#FEFECE" filter="url(#f1unj27qmdiirk)" height="116.0234" id="MiddlewareCommInterfaceImplementation" style="stroke: #A80036; stroke-width: 1.5;" width="353" x="2401.5" y="230.5"/><ellipse cx="2443.5" cy="246.5" fill="#ADD1B2" rx="11" ry="11" style="stroke: #A80036; stroke-width: 1.0;"/><path d="M2446.4688,252.1406 Q2445.8906,252.4375 2445.25,252.5781 Q2444.6094,252.7344 2443.9063,252.7344 Q2441.4063,252.7344 2440.0781,251.0938 Q2438.7656,249.4375 2438.7656,246.3125 Q2438.7656,243.1875 2440.0781,241.5313 Q2441.4063,239.875 2443.9063,239.875 Q2444.6094,239.875 2445.25,240.0313 Q2445.9063,240.1875 2446.4688,240.4844 L2446.4688,243.2031 Q2445.8438,242.625 2445.25,242.3594 Q2444.6563,242.0781 2444.0313,242.0781 Q2442.6875,242.0781 2442,243.1563 Q2441.3125,244.2188 2441.3125,246.3125 Q2441.3125,248.4063 2442,249.4844 Q2442.6875,250.5469 2444.0313,250.5469 Q2444.6563,250.5469 2445.25,250.2813 Q2445.8438,250 2446.4688,249.4219 L2446.4688,252.1406 Z "/><text fill="#000000" font-family="sans-serif" font-size="12" lengthAdjust="spacingAndGlyphs" textLength="261" x="2463.5" y="250.6543">MiddlewareCommInterfaceImplementation</text><line style="stroke: #A80036; stroke-width: 1.5;" x1="2402.5" x2="2753.5" y1="262.5" y2="262.5"/><rect fill="none" height="6" style="stroke: #C82930; stroke-width: 1.0;" width="6" x="2409.5" y="270.5"/><text fill="#000000" font-family="sans-serif" font-size="11" lengthAdjust="spacingAndGlyphs" textLength="291" x="2421.5" y="276.7104">MiddlewareCommLinkManager middlewareManager</text><line style="stroke: #A80036; stroke-width: 1.5;" x1="2402.5" x2="2753.5" y1="283.3047" y2="283.3047"/><ellipse cx="2412.5" cy="294.3047" fill="#84BE84" rx="3" ry="3" style="stroke: #038048; stroke-width: 1.0;"/><text fill="#000000" font-family="sans-serif" font-size="11" lengthAdjust="spacingAndGlyphs" textLength="243" x="2421.5" y="297.5151">MiddlewareCommInterfaceImplementation(</text><text fill="#000000" font-family="sans-serif" font-size="11" lengthAdjust="spacingAndGlyphs" textLength="295" x="2453.5" y="310.3198">MiddlewareCommLinkManager middlewareManager)</text><ellipse cx="2412.5" cy="336.7188" fill="#84BE84" rx="3" ry="3" style="stroke: #038048; stroke-width: 1.0;"/><text fill="#000000" font-family="sans-serif" font-size="11" lengthAdjust="spacingAndGlyphs" textLength="171" x="2421.5" y="339.9292">TrackData requestRfid(int rfid)</text><line style="stroke: #A80036; stroke-width: 1.0; stroke-dasharray: 1.0,2.0;" x1="2402.5" x2="2545" y1="323.3164" y2="323.3164"/><text fill="#000000" font-family="sans-serif" font-size="11" lengthAdjust="spacingAndGlyphs" textLength="66" x="2545" y="326.6245">Use Case 1</text><line style="stroke: #A80036; stroke-width: 1.0; stroke-dasharray: 1.0,2.0;" x1="2611" x2="2753.5" y1="323.3164" y2="323.3164"/><!--MD5=[d9ed64ee38938b46697008700ce69fba]
class MiddlewareCommLinkManagerImplementation--><rect fill="#FEFECE" filter="url(#f1unj27qmdiirk)" height="167.2422" id="MiddlewareCommLinkManagerImplementation" style="stroke: #A80036; stroke-width: 1.5;" width="474" x="1892" y="205"/><ellipse cx="1982.75" cy="221" fill="#ADD1B2" rx="11" ry="11" style="stroke: #A80036; stroke-width: 1.0;"/><path d="M1985.7188,226.6406 Q1985.1406,226.9375 1984.5,227.0781 Q1983.8594,227.2344 1983.1563,227.2344 Q1980.6563,227.2344 1979.3281,225.5938 Q1978.0156,223.9375 1978.0156,220.8125 Q1978.0156,217.6875 1979.3281,216.0313 Q1980.6563,214.375 1983.1563,214.375 Q1983.8594,214.375 1984.5,214.5313 Q1985.1563,214.6875 1985.7188,214.9844 L1985.7188,217.7031 Q1985.0938,217.125 1984.5,216.8594 Q1983.9063,216.5781 1983.2813,216.5781 Q1981.9375,216.5781 1981.25,217.6563 Q1980.5625,218.7188 1980.5625,220.8125 Q1980.5625,222.9063 1981.25,223.9844 Q1981.9375,225.0469 1983.2813,225.0469 Q1983.9063,225.0469 1984.5,224.7813 Q1985.0938,224.5 1985.7188,223.9219 L1985.7188,226.6406 Z "/><text fill="#000000" font-family="sans-serif" font-size="12" lengthAdjust="spacingAndGlyphs" textLength="284" x="2003.25" y="225.1543">MiddlewareCommLinkManagerImplementation</text><line style="stroke: #A80036; stroke-width: 1.5;" x1="1893" x2="2365" y1="237" y2="237"/><rect fill="none" height="6" style="stroke: #C82930; stroke-width: 1.0;" width="6" x="1900" y="245"/><text fill="#000000" font-family="sans-serif" font-size="11" lengthAdjust="spacingAndGlyphs" textLength="416" x="1912" y="251.2104">MiddlewareCommDatabaseInterface middlewareCommDatabaseInterface</text><rect fill="none" height="6" style="stroke: #C82930; stroke-width: 1.0;" width="6" x="1900" y="257.8047"/><text fill="#000000" font-family="sans-serif" font-size="11" lengthAdjust="spacingAndGlyphs" textLength="270" x="1912" y="264.0151">MiddlewareGisManager middlewareGisManager</text><line style="stroke: #A80036; stroke-width: 1.5;" x1="1893" x2="2365" y1="270.6094" y2="270.6094"/><ellipse cx="1903" cy="281.6094" fill="#84BE84" rx="3" ry="3" style="stroke: #038048; stroke-width: 1.0;"/><text fill="#000000" font-family="sans-serif" font-size="11" lengthAdjust="spacingAndGlyphs" textLength="264" x="1912" y="284.8198">MiddlewareCommLinkManagerImplementation(</text><text fill="#000000" font-family="sans-serif" font-size="11" lengthAdjust="spacingAndGlyphs" textLength="416" x="1944" y="297.6245">MiddlewareCommDatabaseInterface middlewareCommDatabaseInterface</text><text fill="#000000" font-family="sans-serif" font-size="11" lengthAdjust="spacingAndGlyphs" textLength="274" x="1944" y="310.4292">MiddlewareGisManager middlewareGisManager)</text><ellipse cx="1903" cy="336.8281" fill="#84BE84" rx="3" ry="3" style="stroke: #038048; stroke-width: 1.0;"/><text fill="#000000" font-family="sans-serif" font-size="11" lengthAdjust="spacingAndGlyphs" textLength="160" x="1912" y="340.0386">TrackData parseRfid(int rfid)</text><rect fill="#F24D5C" height="6" style="stroke: #C82930; stroke-width: 1.0;" width="6" x="1900" y="346.6328"/><text fill="#000000" font-family="sans-serif" font-size="11" lengthAdjust="spacingAndGlyphs" textLength="188" x="1912" y="352.8433">float calculateLocationDataPoint()</text><rect fill="#F24D5C" height="6" style="stroke: #C82930; stroke-width: 1.0;" width="6" x="1900" y="359.4375"/><text fill="#000000" font-family="sans-serif" font-size="11" lengthAdjust="spacingAndGlyphs" textLength="144" x="1912" y="365.6479">float calculateTrackData()</text><line style="stroke: #A80036; stroke-width: 1.0; stroke-dasharray: 1.0,2.0;" x1="1893" x2="2096" y1="323.4258" y2="323.4258"/><text fill="#000000" font-family="sans-serif" font-size="11" lengthAdjust="spacingAndGlyphs" textLength="66" x="2096" y="326.7339">Use Case 1</text><line style="stroke: #A80036; stroke-width: 1.0; stroke-dasharray: 1.0,2.0;" x1="2162" x2="2365" y1="323.4258" y2="323.4258"/><!--MD5=[1c4f9654f103878faf4a10c0361188b9]
class MiddlewareCommDatabaseInterfaceImplementation--><rect fill="#FEFECE" filter="url(#f1unj27qmdiirk)" height="116.0234" id="MiddlewareCommDatabaseInterfaceImplementation" style="stroke: #A80036; stroke-width: 1.5;" width="354" x="1503" y="230.5"/><ellipse cx="1518" cy="246.5" fill="#ADD1B2" rx="11" ry="11" style="stroke: #A80036; stroke-width: 1.0;"/><path d="M1520.9688,252.1406 Q1520.3906,252.4375 1519.75,252.5781 Q1519.1094,252.7344 1518.4063,252.7344 Q1515.9063,252.7344 1514.5781,251.0938 Q1513.2656,249.4375 1513.2656,246.3125 Q1513.2656,243.1875 1514.5781,241.5313 Q1515.9063,239.875 1518.4063,239.875 Q1519.1094,239.875 1519.75,240.0313 Q1520.4063,240.1875 1520.9688,240.4844 L1520.9688,243.2031 Q1520.3438,242.625 1519.75,242.3594 Q1519.1563,242.0781 1518.5313,242.0781 Q1517.1875,242.0781 1516.5,243.1563 Q1515.8125,244.2188 1515.8125,246.3125 Q1515.8125,248.4063 1516.5,249.4844 Q1517.1875,250.5469 1518.5313,250.5469 Q1519.1563,250.5469 1519.75,250.2813 Q1520.3438,250 1520.9688,249.4219 L1520.9688,252.1406 Z "/><text fill="#000000" font-family="sans-serif" font-size="12" lengthAdjust="spacingAndGlyphs" textLength="322" x="1532" y="250.6543">MiddlewareCommDatabaseInterfaceImplementation</text><line style="stroke: #A80036; stroke-width: 1.5;" x1="1504" x2="1856" y1="262.5" y2="262.5"/><ellipse cx="1514" cy="273.5" fill="none" rx="3" ry="3" style="stroke: #038048; stroke-width: 1.0;"/><text fill="#000000" font-family="sans-serif" font-size="11" lengthAdjust="spacingAndGlyphs" textLength="285" x="1523" y="276.7104">DatabaseCommInterface databaseCommInterface</text><line style="stroke: #A80036; stroke-width: 1.5;" x1="1504" x2="1856" y1="283.3047" y2="283.3047"/><ellipse cx="1514" cy="294.3047" fill="#84BE84" rx="3" ry="3" style="stroke: #038048; stroke-width: 1.0;"/><text fill="#000000" font-family="sans-serif" font-size="11" lengthAdjust="spacingAndGlyphs" textLength="297" x="1523" y="297.5151">MiddlewareCommDatabaseInterfaceImplementation(</text><text fill="#000000" font-family="sans-serif" font-size="11" lengthAdjust="spacingAndGlyphs" textLength="289" x="1555" y="310.3198">DatabaseCommInterface databaseCommInterface)</text><ellipse cx="1514" cy="336.7188" fill="#84BE84" rx="3" ry="3" style="stroke: #038048; stroke-width: 1.0;"/><text fill="#000000" font-family="sans-serif" font-size="11" lengthAdjust="spacingAndGlyphs" textLength="122" x="1523" y="339.9292">int checkCurrentRfid()</text><line style="stroke: #A80036; stroke-width: 1.0; stroke-dasharray: 1.0,2.0;" x1="1504" x2="1647" y1="323.3164" y2="323.3164"/><text fill="#000000" font-family="sans-serif" font-size="11" lengthAdjust="spacingAndGlyphs" textLength="66" x="1647" y="326.6245">Use Case 1</text><line style="stroke: #A80036; stroke-width: 1.0; stroke-dasharray: 1.0,2.0;" x1="1713" x2="1856" y1="323.3164" y2="323.3164"/><!--MD5=[8d86b1aa2030a05d452f78e2e1fb37ed]
class TrackDataCalculator--><rect fill="#FEFECE" filter="url(#f1unj27qmdiirk)" height="86.4141" id="TrackDataCalculator" style="stroke: #A80036; stroke-width: 1.5;" width="518" x="943" y="447"/><ellipse cx="1134.25" cy="463" fill="#ADD1B2" rx="11" ry="11" style="stroke: #A80036; stroke-width: 1.0;"/><path d="M1137.2188,468.6406 Q1136.6406,468.9375 1136,469.0781 Q1135.3594,469.2344 1134.6563,469.2344 Q1132.1563,469.2344 1130.8281,467.5938 Q1129.5156,465.9375 1129.5156,462.8125 Q1129.5156,459.6875 1130.8281,458.0313 Q1132.1563,456.375 1134.6563,456.375 Q1135.3594,456.375 1136,456.5313 Q1136.6563,456.6875 1137.2188,456.9844 L1137.2188,459.7031 Q1136.5938,459.125 1136,458.8594 Q1135.4063,458.5781 1134.7813,458.5781 Q1133.4375,458.5781 1132.75,459.6563 Q1132.0625,460.7188 1132.0625,462.8125 Q1132.0625,464.9063 1132.75,465.9844 Q1133.4375,467.0469 1134.7813,467.0469 Q1135.4063,467.0469 1136,466.7813 Q1136.5938,466.5 1137.2188,465.9219 L1137.2188,468.6406 Z "/><text fill="#000000" font-family="sans-serif" font-size="12" lengthAdjust="spacingAndGlyphs" textLength="127" x="1154.75" y="467.1543">TrackDataCalculator</text><line style="stroke: #A80036; stroke-width: 1.5;" x1="944" x2="1460" y1="479" y2="479"/><line style="stroke: #A80036; stroke-width: 1.5;" x1="944" x2="1460" y1="487" y2="487"/><ellipse cx="954" cy="498" fill="#84BE84" rx="3" ry="3" style="stroke: #038048; stroke-width: 1.0;"/><text fill="#000000" font-family="sans-serif" font-size="11" lengthAdjust="spacingAndGlyphs" text-decoration="underline" textLength="341" x="963" y="501.2104">float calculateSpeed(LocationDataPoint[] locationDataPoints)</text><ellipse cx="954" cy="510.8047" fill="#84BE84" rx="3" ry="3" style="stroke: #038048; stroke-width: 1.0;"/><text fill="#000000" font-family="sans-serif" font-size="11" lengthAdjust="spacingAndGlyphs" text-decoration="underline" textLength="355" x="963" y="514.0151">float calculateDirection(LocationDataPoint[] locationDataPoints)</text><rect fill="#F24D5C" height="6" style="stroke: #C82930; stroke-width: 1.0;" width="6" x="951" y="520.6094"/><text fill="#000000" font-family="sans-serif" font-size="11" lengthAdjust="spacingAndGlyphs" text-decoration="underline" textLength="492" x="963" y="526.8198">LocationDataPoint[] calculateRootMeanSquared(LocationDataPoint[] locationDataPoints)</text><!--MD5=[00b94da1af6b7f5503baa4bfd88b42e0]
class MiddlewareCommInterfaceImplementationTests--><rect fill="#FEFECE" filter="url(#f1unj27qmdiirk)" height="48" id="MiddlewareCommInterfaceImplementationTests" style="stroke: #A80036; stroke-width: 1.5;" width="327" x="1120.5" y="78"/><ellipse cx="1135.5" cy="94" fill="#ADD1B2" rx="11" ry="11" style="stroke: #A80036; stroke-width: 1.0;"/><path d="M1138.4688,99.6406 Q1137.8906,99.9375 1137.25,100.0781 Q1136.6094,100.2344 1135.9063,100.2344 Q1133.4063,100.2344 1132.0781,98.5938 Q1130.7656,96.9375 1130.7656,93.8125 Q1130.7656,90.6875 1132.0781,89.0313 Q1133.4063,87.375 1135.9063,87.375 Q1136.6094,87.375 1137.25,87.5313 Q1137.9063,87.6875 1138.4688,87.9844 L1138.4688,90.7031 Q1137.8438,90.125 1137.25,89.8594 Q1136.6563,89.5781 1136.0313,89.5781 Q1134.6875,89.5781 1134,90.6563 Q1133.3125,91.7188 1133.3125,93.8125 Q1133.3125,95.9063 1134,96.9844 Q1134.6875,98.0469 1136.0313,98.0469 Q1136.6563,98.0469 1137.25,97.7813 Q1137.8438,97.5 1138.4688,96.9219 L1138.4688,99.6406 Z "/><text fill="#000000" font-family="sans-serif" font-size="12" lengthAdjust="spacingAndGlyphs" textLength="295" x="1149.5" y="98.1543">MiddlewareCommInterfaceImplementationTests</text><line style="stroke: #A80036; stroke-width: 1.5;" x1="1121.5" x2="1446.5" y1="110" y2="110"/><line style="stroke: #A80036; stroke-width: 1.5;" x1="1121.5" x2="1446.5" y1="118" y2="118"/><!--MD5=[3bea4f8dbcd5725ad50d10553f2379e2]
class MiddlewareCommLinkManagerStub--><rect fill="#FEFECE" filter="url(#f1unj27qmdiirk)" height="77.6094" id="MiddlewareCommLinkManagerStub" style="stroke: #A80036; stroke-width: 1.5;" width="248" x="1179" y="249.5"/><ellipse cx="1194" cy="265.5" fill="#ADD1B2" rx="11" ry="11" style="stroke: #A80036; stroke-width: 1.0;"/><path d="M1196.9688,271.1406 Q1196.3906,271.4375 1195.75,271.5781 Q1195.1094,271.7344 1194.4063,271.7344 Q1191.9063,271.7344 1190.5781,270.0938 Q1189.2656,268.4375 1189.2656,265.3125 Q1189.2656,262.1875 1190.5781,260.5313 Q1191.9063,258.875 1194.4063,258.875 Q1195.1094,258.875 1195.75,259.0313 Q1196.4063,259.1875 1196.9688,259.4844 L1196.9688,262.2031 Q1196.3438,261.625 1195.75,261.3594 Q1195.1563,261.0781 1194.5313,261.0781 Q1193.1875,261.0781 1192.5,262.1563 Q1191.8125,263.2188 1191.8125,265.3125 Q1191.8125,267.4063 1192.5,268.4844 Q1193.1875,269.5469 1194.5313,269.5469 Q1195.1563,269.5469 1195.75,269.2813 Q1196.3438,269 1196.9688,268.4219 L1196.9688,271.1406 Z "/><text fill="#000000" font-family="sans-serif" font-size="12" lengthAdjust="spacingAndGlyphs" textLength="216" x="1208" y="269.6543">MiddlewareCommLinkManagerStub</text><line style="stroke: #A80036; stroke-width: 1.5;" x1="1180" x2="1426" y1="281.5" y2="281.5"/><line style="stroke: #A80036; stroke-width: 1.5;" x1="1180" x2="1426" y1="289.5" y2="289.5"/><ellipse cx="1190" cy="317.3047" fill="#84BE84" rx="3" ry="3" style="stroke: #038048; stroke-width: 1.0;"/><text fill="#000000" font-family="sans-serif" font-size="11" lengthAdjust="spacingAndGlyphs" textLength="160" x="1199" y="320.5151">TrackData parseRfid(int rfid)</text><line style="stroke: #A80036; stroke-width: 1.0; stroke-dasharray: 1.0,2.0;" x1="1180" x2="1270" y1="303.9023" y2="303.9023"/><text fill="#000000" font-family="sans-serif" font-size="11" lengthAdjust="spacingAndGlyphs" textLength="66" x="1270" y="307.2104">Use Case 1</text><line style="stroke: #A80036; stroke-width: 1.0; stroke-dasharray: 1.0,2.0;" x1="1336" x2="1426" y1="303.9023" y2="303.9023"/><!--MD5=[de2e25996fbf99af10f04f2aae2d0ec2]
class MiddlewareCommLinkManagerImplementationTests--><rect fill="#FEFECE" filter="url(#f1unj27qmdiirk)" height="48" id="MiddlewareCommLinkManagerImplementationTests" style="stroke: #A80036; stroke-width: 1.5;" width="350" x="735" y="78"/><ellipse cx="750" cy="94" fill="#ADD1B2" rx="11" ry="11" style="stroke: #A80036; stroke-width: 1.0;"/><path d="M752.9688,99.6406 Q752.3906,99.9375 751.75,100.0781 Q751.1094,100.2344 750.4063,100.2344 Q747.9063,100.2344 746.5781,98.5938 Q745.2656,96.9375 745.2656,93.8125 Q745.2656,90.6875 746.5781,89.0313 Q747.9063,87.375 750.4063,87.375 Q751.1094,87.375 751.75,87.5313 Q752.4063,87.6875 752.9688,87.9844 L752.9688,90.7031 Q752.3438,90.125 751.75,89.8594 Q751.1563,89.5781 750.5313,89.5781 Q749.1875,89.5781 748.5,90.6563 Q747.8125,91.7188 747.8125,93.8125 Q747.8125,95.9063 748.5,96.9844 Q749.1875,98.0469 750.5313,98.0469 Q751.1563,98.0469 751.75,97.7813 Q752.3438,97.5 752.9688,96.9219 L752.9688,99.6406 Z "/><text fill="#000000" font-family="sans-serif" font-size="12" lengthAdjust="spacingAndGlyphs" textLength="318" x="764" y="98.1543">MiddlewareCommLinkManagerImplementationTests</text><line style="stroke: #A80036; stroke-width: 1.5;" x1="736" x2="1084" y1="110" y2="110"/><line style="stroke: #A80036; stroke-width: 1.5;" x1="736" x2="1084" y1="118" y2="118"/><!--MD5=[d266ff1a021c6b2abe780212ea4bc90b]
class MiddlewareCommDatabaseInterfaceStub--><rect fill="#FEFECE" filter="url(#f1unj27qmdiirk)" height="77.6094" id="MiddlewareCommDatabaseInterfaceStub" style="stroke: #A80036; stroke-width: 1.5;" width="286" x="812" y="249.5"/><ellipse cx="827" cy="265.5" fill="#ADD1B2" rx="11" ry="11" style="stroke: #A80036; stroke-width: 1.0;"/><path d="M829.9688,271.1406 Q829.3906,271.4375 828.75,271.5781 Q828.1094,271.7344 827.4063,271.7344 Q824.9063,271.7344 823.5781,270.0938 Q822.2656,268.4375 822.2656,265.3125 Q822.2656,262.1875 823.5781,260.5313 Q824.9063,258.875 827.4063,258.875 Q828.1094,258.875 828.75,259.0313 Q829.4063,259.1875 829.9688,259.4844 L829.9688,262.2031 Q829.3438,261.625 828.75,261.3594 Q828.1563,261.0781 827.5313,261.0781 Q826.1875,261.0781 825.5,262.1563 Q824.8125,263.2188 824.8125,265.3125 Q824.8125,267.4063 825.5,268.4844 Q826.1875,269.5469 827.5313,269.5469 Q828.1563,269.5469 828.75,269.2813 Q829.3438,269 829.9688,268.4219 L829.9688,271.1406 Z "/><text fill="#000000" font-family="sans-serif" font-size="12" lengthAdjust="spacingAndGlyphs" textLength="254" x="841" y="269.6543">MiddlewareCommDatabaseInterfaceStub</text><line style="stroke: #A80036; stroke-width: 1.5;" x1="813" x2="1097" y1="281.5" y2="281.5"/><line style="stroke: #A80036; stroke-width: 1.5;" x1="813" x2="1097" y1="289.5" y2="289.5"/><ellipse cx="823" cy="317.3047" fill="#84BE84" rx="3" ry="3" style="stroke: #038048; stroke-width: 1.0;"/><text fill="#000000" font-family="sans-serif" font-size="11" lengthAdjust="spacingAndGlyphs" textLength="122" x="832" y="320.5151">int checkCurrentRfid()</text><line style="stroke: #A80036; stroke-width: 1.0; stroke-dasharray: 1.0,2.0;" x1="813" x2="922" y1="303.9023" y2="303.9023"/><text fill="#000000" font-family="sans-serif" font-size="11" lengthAdjust="spacingAndGlyphs" textLength="66" x="922" y="307.2104">Use Case 1</text><line style="stroke: #A80036; stroke-width: 1.0; stroke-dasharray: 1.0,2.0;" x1="988" x2="1097" y1="303.9023" y2="303.9023"/><!--MD5=[002ff5c7151dea29dff01f25b38dca5f]
class MiddlewareCommDatabaseInterfaceImplementationTests--><rect fill="#FEFECE" filter="url(#f1unj27qmdiirk)" height="48" id="MiddlewareCommDatabaseInterfaceImplementationTests" style="stroke: #A80036; stroke-width: 1.5;" width="388" x="312" y="78"/><ellipse cx="327" cy="94" fill="#ADD1B2" rx="11" ry="11" style="stroke: #A80036; stroke-width: 1.0;"/><path d="M329.9688,99.6406 Q329.3906,99.9375 328.75,100.0781 Q328.1094,100.2344 327.4063,100.2344 Q324.9063,100.2344 323.5781,98.5938 Q322.2656,96.9375 322.2656,93.8125 Q322.2656,90.6875 323.5781,89.0313 Q324.9063,87.375 327.4063,87.375 Q328.1094,87.375 328.75,87.5313 Q329.4063,87.6875 329.9688,87.9844 L329.9688,90.7031 Q329.3438,90.125 328.75,89.8594 Q328.1563,89.5781 327.5313,89.5781 Q326.1875,89.5781 325.5,90.6563 Q324.8125,91.7188 324.8125,93.8125 Q324.8125,95.9063 325.5,96.9844 Q326.1875,98.0469 327.5313,98.0469 Q328.1563,98.0469 328.75,97.7813 Q329.3438,97.5 329.9688,96.9219 L329.9688,99.6406 Z "/><text fill="#000000" font-family="sans-serif" font-size="12" lengthAdjust="spacingAndGlyphs" textLength="356" x="341" y="98.1543">MiddlewareCommDatabaseInterfaceImplementationTests</text><line style="stroke: #A80036; stroke-width: 1.5;" x1="313" x2="699" y1="110" y2="110"/><line style="stroke: #A80036; stroke-width: 1.5;" x1="313" x2="699" y1="118" y2="118"/><!--MD5=[e3f4175480349659b88084d56af4bbf1]
class DatabaseCommInterfaceStub--><rect fill="#FEFECE" filter="url(#f1unj27qmdiirk)" height="128.8281" id="DatabaseCommInterfaceStub" style="stroke: #A80036; stroke-width: 1.5;" width="398" x="307" y="224"/><ellipse cx="409.75" cy="240" fill="#ADD1B2" rx="11" ry="11" style="stroke: #A80036; stroke-width: 1.0;"/><path d="M412.7188,245.6406 Q412.1406,245.9375 411.5,246.0781 Q410.8594,246.2344 410.1563,246.2344 Q407.6563,246.2344 406.3281,244.5938 Q405.0156,242.9375 405.0156,239.8125 Q405.0156,236.6875 406.3281,235.0313 Q407.6563,233.375 410.1563,233.375 Q410.8594,233.375 411.5,233.5313 Q412.1563,233.6875 412.7188,233.9844 L412.7188,236.7031 Q412.0938,236.125 411.5,235.8594 Q410.9063,235.5781 410.2813,235.5781 Q408.9375,235.5781 408.25,236.6563 Q407.5625,237.7188 407.5625,239.8125 Q407.5625,241.9063 408.25,242.9844 Q408.9375,244.0469 410.2813,244.0469 Q410.9063,244.0469 411.5,243.7813 Q412.0938,243.5 412.7188,242.9219 L412.7188,245.6406 Z "/><text fill="#000000" font-family="sans-serif" font-size="12" lengthAdjust="spacingAndGlyphs" textLength="184" x="430.25" y="244.1543">DatabaseCommInterfaceStub</text><line style="stroke: #A80036; stroke-width: 1.5;" x1="308" x2="704" y1="256" y2="256"/><line style="stroke: #A80036; stroke-width: 1.5;" x1="308" x2="704" y1="264" y2="264"/><ellipse cx="318" cy="291.8047" fill="#84BE84" rx="3" ry="3" style="stroke: #038048; stroke-width: 1.0;"/><text fill="#000000" font-family="sans-serif" font-size="11" font-style="italic" lengthAdjust="spacingAndGlyphs" textLength="156" x="327" y="295.0151">int receiveGetRfidRequest()</text><ellipse cx="318" cy="304.6094" fill="#84BE84" rx="3" ry="3" style="stroke: #038048; stroke-width: 1.0;"/><text fill="#000000" font-family="sans-serif" font-size="11" font-style="italic" lengthAdjust="spacingAndGlyphs" textLength="372" x="327" y="307.8198">LocationDataPoint receiveGetLocationDataPointRequest(int offset)</text><ellipse cx="318" cy="317.4141" fill="#84BE84" rx="3" ry="3" style="stroke: #038048; stroke-width: 1.0;"/><text fill="#000000" font-family="sans-serif" font-size="11" font-style="italic" lengthAdjust="spacingAndGlyphs" textLength="284" x="327" y="320.6245">TrackData receiveGetTrackDataRequest(int offset)</text><ellipse cx="318" cy="330.2188" fill="#84BE84" rx="3" ry="3" style="stroke: #038048; stroke-width: 1.0;"/><text fill="#000000" font-family="sans-serif" font-size="11" font-style="italic" lengthAdjust="spacingAndGlyphs" textLength="283" x="327" y="333.4292">void storeTrackDataRequest(TrackData trackData)</text><ellipse cx="318" cy="343.0234" fill="#84BE84" rx="3" ry="3" style="stroke: #038048; stroke-width: 1.0;"/><text fill="#000000" font-family="sans-serif" font-size="11" font-style="italic" lengthAdjust="spacingAndGlyphs" textLength="183" x="327" y="346.2339">String receiveGetModeRequest()</text><line style="stroke: #A80036; stroke-width: 1.0; stroke-dasharray: 1.0,2.0;" x1="308" x2="473" y1="278.4023" y2="278.4023"/><text fill="#000000" font-family="sans-serif" font-size="11" lengthAdjust="spacingAndGlyphs" textLength="66" x="473" y="281.7104">Use Case 1</text><line style="stroke: #A80036; stroke-width: 1.0; stroke-dasharray: 1.0,2.0;" x1="539" x2="704" y1="278.4023" y2="278.4023"/><!--MD5=[4d30ae449f97cbb7dd3c9db2a55e1ec0]
class TrackDataCalculatorTests--><rect fill="#FEFECE" filter="url(#f1unj27qmdiirk)" height="86.4141" id="TrackDataCalculatorTests" style="stroke: #A80036; stroke-width: 1.5;" width="239" x="37.5" y="59"/><ellipse cx="73.2" cy="75" fill="#ADD1B2" rx="11" ry="11" style="stroke: #A80036; stroke-width: 1.0;"/><path d="M76.1688,80.6406 Q75.5906,80.9375 74.95,81.0781 Q74.3094,81.2344 73.6063,81.2344 Q71.1063,81.2344 69.7781,79.5938 Q68.4656,77.9375 68.4656,74.8125 Q68.4656,71.6875 69.7781,70.0313 Q71.1063,68.375 73.6063,68.375 Q74.3094,68.375 74.95,68.5313 Q75.6063,68.6875 76.1688,68.9844 L76.1688,71.7031 Q75.5438,71.125 74.95,70.8594 Q74.3563,70.5781 73.7313,70.5781 Q72.3875,70.5781 71.7,71.6563 Q71.0125,72.7188 71.0125,74.8125 Q71.0125,76.9063 71.7,77.9844 Q72.3875,79.0469 73.7313,79.0469 Q74.3563,79.0469 74.95,78.7813 Q75.5438,78.5 76.1688,77.9219 L76.1688,80.6406 Z "/><text fill="#000000" font-family="sans-serif" font-size="12" lengthAdjust="spacingAndGlyphs" textLength="161" x="91.8" y="79.1543">TrackDataCalculatorTests</text><line style="stroke: #A80036; stroke-width: 1.5;" x1="38.5" x2="275.5" y1="91" y2="91"/><line style="stroke: #A80036; stroke-width: 1.5;" x1="38.5" x2="275.5" y1="99" y2="99"/><ellipse cx="48.5" cy="110" fill="#84BE84" rx="3" ry="3" style="stroke: #038048; stroke-width: 1.0;"/><text fill="#000000" font-family="sans-serif" font-size="11" lengthAdjust="spacingAndGlyphs" textLength="146" x="57.5" y="113.2104">void calculateSpeedTest()</text><ellipse cx="48.5" cy="122.8047" fill="#84BE84" rx="3" ry="3" style="stroke: #038048; stroke-width: 1.0;"/><text fill="#000000" font-family="sans-serif" font-size="11" lengthAdjust="spacingAndGlyphs" textLength="160" x="57.5" y="126.0151">void calculateDirectionTest()</text><rect fill="#F24D5C" height="6" style="stroke: #C82930; stroke-width: 1.0;" width="6" x="45.5" y="132.6094"/><text fill="#000000" font-family="sans-serif" font-size="11" lengthAdjust="spacingAndGlyphs" textLength="213" x="57.5" y="138.8198">void calculateRootMeanSquaredTest()</text><!--MD5=[a6f6d6498f8ad0fd1149c5a16bc55d36]
reverse link MiddlewareCommInterface to MiddlewareCommInterfaceImplementation--><path d="M2578,161.27 C2578,183.34 2578,208.43 2578,230.39 " fill="none" id="MiddlewareCommInterface&lt;-MiddlewareCommInterfaceImplementation" style="stroke: #A80036; stroke-width: 1.0; stroke-dasharray: 7.0,7.0;"/><polygon fill="none" points="2571,161.23,2578,141.23,2585,161.23,2571,161.23" style="stroke: #A80036; stroke-width: 1.0;"/><!--MD5=[497c69cbff9542047faf5ca77780c8cb]
reverse link MiddlewareCommLinkManager to MiddlewareCommLinkManagerImplementation--><path d="M2060.16,159.21 C2067.89,173.6 2076.36,189.39 2084.63,204.82 " fill="none" id="MiddlewareCommLinkManager&lt;-MiddlewareCommLinkManagerImplementation" style="stroke: #A80036; stroke-width: 1.0; stroke-dasharray: 7.0,7.0;"/><polygon fill="none" points="2053.8,162.16,2050.51,141.23,2066.14,155.54,2053.8,162.16" style="stroke: #A80036; stroke-width: 1.0;"/><!--MD5=[8e69def7a54ed81078168d5d1d8487c9]
reverse link MiddlewareCommDatabaseInterface to MiddlewareCommDatabaseInterfaceImplementation--><path d="M1663.58,161.27 C1666.45,183.34 1669.71,208.43 1672.57,230.39 " fill="none" id="MiddlewareCommDatabaseInterface&lt;-MiddlewareCommDatabaseInterfaceImplementation" style="stroke: #A80036; stroke-width: 1.0; stroke-dasharray: 7.0,7.0;"/><polygon fill="none" points="1656.61,161.96,1660.97,141.23,1670.49,160.16,1656.61,161.96" style="stroke: #A80036; stroke-width: 1.0;"/><!--MD5=[07eefeefbddab6e40f3001aaadb4b811]
link MiddlewareCommLinkManagerImplementation to TrackDataCalculator--><path d="M1947.87,372.1 C1923.7,381.14 1898.98,389.44 1875,396 C1742.73,432.2 1591.79,454.71 1466.42,468.48 " fill="none" id="MiddlewareCommLinkManagerImplementation-&gt;TrackDataCalculator" style="stroke: #A80036; stroke-width: 1.0; stroke-dasharray: 7.0,7.0;"/><polygon fill="#A80036" points="1461.23,469.05,1470.611,472.0494,1466.2005,468.5072,1469.7426,464.0967,1461.23,469.05" style="stroke: #A80036; stroke-width: 1.0;"/><!--MD5=[7fa180022f459ef85d1acc77bc346e55]
link MiddlewareCommInterfaceImplementationTests to MiddlewareCommLinkManagerStub--><path d="M1286.41,126.37 C1289.44,155.85 1294.72,207.14 1298.51,243.94 " fill="none" id="MiddlewareCommInterfaceImplementationTests-&gt;MiddlewareCommLinkManagerStub" style="stroke: #A80036; stroke-width: 1.0; stroke-dasharray: 7.0,7.0;"/><polygon fill="#A80036" points="1299.06,249.26,1302.1393,239.9049,1298.5597,244.2851,1294.1794,240.7055,1299.06,249.26" style="stroke: #A80036; stroke-width: 1.0;"/><!--MD5=[2fd20703f0701fa98274185fc4989096]
link MiddlewareCommLinkManagerImplementationTests to MiddlewareCommDatabaseInterfaceStub--><path d="M915.7,126.37 C922.92,155.97 935.5,207.56 944.49,244.39 " fill="none" id="MiddlewareCommLinkManagerImplementationTests-&gt;MiddlewareCommDatabaseInterfaceStub" style="stroke: #A80036; stroke-width: 1.0; stroke-dasharray: 7.0,7.0;"/><polygon fill="#A80036" points="945.67,249.26,947.4215,239.5681,944.4842,244.4026,939.6497,241.4654,945.67,249.26" style="stroke: #A80036; stroke-width: 1.0;"/><!--MD5=[52509b0176968f875548ba7b6727e5db]
link MiddlewareCommDatabaseInterfaceImplementationTests to DatabaseCommInterfaceStub--><path d="M506,126.37 C506,149.56 506,186.25 506,218.77 " fill="none" id="MiddlewareCommDatabaseInterfaceImplementationTests-&gt;DatabaseCommInterfaceStub" style="stroke: #A80036; stroke-width: 1.0; stroke-dasharray: 7.0,7.0;"/><polygon fill="#A80036" points="506,223.95,510,214.95,506,218.95,502,214.95,506,223.95" style="stroke: #A80036; stroke-width: 1.0;"/><!--MD5=[b7be4b6db61c888b240eee15c81cfa97]
link MiddlewareCommInterfaceImplementationTests to MiddlewareCommInterfaceImplementation--><path d="M1381.62,126.03 C1414.89,133.12 1452.41,140.29 1487,145 C1882.9,198.94 1995.37,112.18 2384,205 C2408.11,210.76 2433.05,219.25 2456.68,228.61 " fill="none" id="MiddlewareCommInterfaceImplementationTests-&gt;MiddlewareCommInterfaceImplementation" style="stroke: #A80036; stroke-width: 1.0; stroke-dasharray: 7.0,7.0;"/><polygon fill="#A80036" points="2461.39,230.5,2454.5193,223.4436,2456.7476,228.643,2451.5481,230.8714,2461.39,230.5" style="stroke: #A80036; stroke-width: 1.0;"/><!--MD5=[103579e4ea01d223111d0dbd0a71b306]
link MiddlewareCommLinkManagerImplementationTests to MiddlewareCommLinkManagerImplementation--><path d="M1003.77,126.1 C1035.15,133.11 1070.43,140.21 1103,145 C1443.49,195.04 1537.43,138.04 1875,205 C1878.92,205.78 1882.86,206.6 1886.82,207.45 " fill="none" id="MiddlewareCommLinkManagerImplementationTests-&gt;MiddlewareCommLinkManagerImplementation" style="stroke: #A80036; stroke-width: 1.0; stroke-dasharray: 7.0,7.0;"/><polygon fill="#A80036" points="1891.84,208.55,1883.9057,202.715,1886.9561,207.479,1882.1921,210.5293,1891.84,208.55" style="stroke: #A80036; stroke-width: 1.0;"/><!--MD5=[43c3af790da194ec4c8637f83c23fde0]
link MiddlewareCommDatabaseInterfaceImplementationTests to MiddlewareCommDatabaseInterfaceImplementation--><path d="M609.65,126.01 C643.99,132.98 682.51,140.07 718,145 C1047.03,190.69 1138.96,131.91 1463,205 C1489.37,210.95 1516.82,219.44 1542.97,228.74 " fill="none" id="MiddlewareCommDatabaseInterfaceImplementationTests-&gt;MiddlewareCommDatabaseInterfaceImplementation" style="stroke: #A80036; stroke-width: 1.0; stroke-dasharray: 7.0,7.0;"/><polygon fill="#A80036" points="1547.84,230.49,1540.7123,223.6933,1543.1319,228.8065,1538.0187,231.2262,1547.84,230.49" style="stroke: #A80036; stroke-width: 1.0;"/><!--MD5=[b7f4c9447f2e238dc6bbfb46bebb205f]
link TrackDataCalculatorTests to TrackDataCalculator--><path d="M162.84,145.26 C174.34,210.89 206.53,336.01 290,396 C341.86,433.27 687.26,460.37 937.68,475.39 " fill="none" id="TrackDataCalculatorTests-&gt;TrackDataCalculator" style="stroke: #A80036; stroke-width: 1.0; stroke-dasharray: 7.0,7.0;"/><polygon fill="#A80036" points="942.84,475.7,934.0965,471.1667,937.849,475.3997,933.616,479.1522,942.84,475.7" style="stroke: #A80036; stroke-width: 1.0;"/><!--MD5=[a1cf72e0ac52b4d843c7c634d1a14535]
reverse link MiddlewareCommLinkManager to MiddlewareCommLinkManagerStub--><path d="M1899.49,127.13 C1742.01,156.29 1496.91,201.9 1487,205 C1449.75,216.67 1410.04,233.82 1377.09,249.47 " fill="none" id="MiddlewareCommLinkManager&lt;-MiddlewareCommLinkManagerStub" style="stroke: #A80036; stroke-width: 1.0; stroke-dasharray: 7.0,7.0;"/><polygon fill="none" points="1898.25,120.24,1919.19,123.48,1900.8,134,1898.25,120.24" style="stroke: #A80036; stroke-width: 1.0;"/><!--MD5=[bcb237fc50e7c64a2e386cbf2da92530]
reverse link MiddlewareCommDatabaseInterface to MiddlewareCommDatabaseInterfaceStub--><path d="M1507.24,135.65 C1492.3,138.84 1477.35,142.01 1463,145 C1329.46,172.84 1292.79,166.25 1162,205 C1121.2,217.09 1077.24,234.02 1040.37,249.4 " fill="none" id="MiddlewareCommDatabaseInterface&lt;-MiddlewareCommDatabaseInterfaceStub" style="stroke: #A80036; stroke-width: 1.0; stroke-dasharray: 7.0,7.0;"/><polygon fill="none" points="1505.79,128.8,1526.82,131.44,1508.73,142.49,1505.79,128.8" style="stroke: #A80036; stroke-width: 1.0;"/><!--MD5=[509dcc249970a7b92aade88604712caf]
@startuml Middleware02Packages_InternalDependencies


package edu.oakland.production.middleware02 {
    
}


package edu.oakland.production.middleware02 {
    interface MiddlewareCommInterface {
        __
        .. Use Case 1 ..
        {abstract} + TrackData requestRfid(int rfid)
    }
}


package edu.oakland.production.middleware02 {
    interface MiddlewareCommLinkManager {
        __
        .. Use Case 1 ..
        {abstract} + TrackData parseRfid(int rfid)
    }
}


package edu.oakland.production.middleware02 {
    interface MiddlewareCommDatabaseInterface {
        __
        .. Use Case 1 ..
        {abstract} + int checkCurrentRfid()
    }
}


package edu.oakland.production.middleware02 {
    class MiddlewareCommInterfaceImplementation {
        - MiddlewareCommLinkManager middlewareManager
        __
        + MiddlewareCommInterfaceImplementation(
        \tMiddlewareCommLinkManager middlewareManager)
        .. Use Case 1 ..
        + TrackData requestRfid(int rfid)
}


MiddlewareCommInterfaceImplementation .up.|> MiddlewareCommInterface

package edu.oakland.production.middleware02 {
    class MiddlewareCommLinkManagerImplementation {
        - MiddlewareCommDatabaseInterface middlewareCommDatabaseInterface
        - MiddlewareGisManager middlewareGisManager
        __
        + MiddlewareCommLinkManagerImplementation(
        \tMiddlewareCommDatabaseInterface middlewareCommDatabaseInterface
        \tMiddlewareGisManager middlewareGisManager)
        .. Use Case 1 ..
        + TrackData parseRfid(int rfid)
        - float calculateLocationDataPoint()
        - float calculateTrackData()
    }
}


MiddlewareCommLinkManagerImplementation .up.|> MiddlewareCommLinkManager

package edu.oakland.production.middleware02 {
    class MiddlewareCommDatabaseInterfaceImplementation {
        + DatabaseCommInterface databaseCommInterface
        __
        + MiddlewareCommDatabaseInterfaceImplementation(
        \tDatabaseCommInterface databaseCommInterface)
        .. Use Case 1 ..
        + int checkCurrentRfid()
    }
}


MiddlewareCommDatabaseInterfaceImplementation .up.|> MiddlewareCommDatabaseInterface






package edu.oakland.helper.middleware02 {
    class TrackDataCalculator {
        {static} + float calculateSpeed(LocationDataPoint[] locationDataPoints)
        {static} + float calculateDirection(LocationDataPoint[] locationDataPoints)
        {static} - LocationDataPoint[] calculateRootMeanSquared(LocationDataPoint[] locationDataPoints)
    }
}

MiddlewareCommLinkManagerImplementation ..> TrackDataCalculator


package edu.oakland.test.middleware02 {
    
}


package edu.oakland.test.middleware02 {
    class MiddlewareCommInterfaceImplementationTests {

    }
}



package edu.oakland.test.middleware02 {
    class MiddlewareCommLinkManagerStub {
        __
        .. Use Case 1 ..
        + TrackData parseRfid(int rfid)
    }
}

MiddlewareCommInterfaceImplementationTests ..> MiddlewareCommLinkManagerStub

package edu.oakland.test.middleware02 {
    class MiddlewareCommLinkManagerImplementationTests {

    }
}



package edu.oakland.test.middleware02 {
    class MiddlewareCommDatabaseInterfaceStub {
        __
        .. Use Case 1 ..
        + int checkCurrentRfid()
    }
}

MiddlewareCommLinkManagerImplementationTests ..> MiddlewareCommDatabaseInterfaceStub

package edu.oakland.test.middleware02 {
    class MiddlewareCommDatabaseInterfaceImplementationTests {

    }
}



package edu.oakland.test.middleware02 {
    class DatabaseCommInterfaceStub {
        __
        .. Use Case 1 ..
        {abstract} + int receiveGetRfidRequest()
        {abstract} + LocationDataPoint receiveGetLocationDataPointRequest(int offset)
        {abstract} + TrackData receiveGetTrackDataRequest(int offset)
        {abstract} + void storeTrackDataRequest(TrackData trackData)
        {abstract} + String receiveGetModeRequest()
    }
}

MiddlewareCommDatabaseInterfaceImplementationTests ..> DatabaseCommInterfaceStub

package edu.oakland.test.middleware02 {
    class TrackDataCalculatorTests {
      + void calculateSpeedTest()
      + void calculateDirectionTest()
      - void calculateRootMeanSquaredTest()
    }
}


MiddlewareCommInterfaceImplementationTests ..> MiddlewareCommInterfaceImplementation
MiddlewareCommLinkManagerImplementationTests ..> MiddlewareCommLinkManagerImplementation
MiddlewareCommDatabaseInterfaceImplementationTests ..> MiddlewareCommDatabaseInterfaceImplementation
TrackDataCalculatorTests ..> TrackDataCalculator
MiddlewareCommLinkManagerStub .up.|> MiddlewareCommLinkManager
MiddlewareCommDatabaseInterfaceStub .up.|> MiddlewareCommDatabaseInterface


package edu.oakland.helper.middleware02 {
    
}




@enduml

PlantUML version 1.2020.02(Sun Mar 01 10:22:07 GMT 2020)
(GPL source distribution)
Java Runtime: OpenJDK Runtime Environment
JVM: OpenJDK 64-Bit Server VM
Java Version: 11.0.9+11-Ubuntu-0ubuntu1
Operating System: Linux
Default Encoding: ANSI_X3.4-1968
Language: en
Country: US
--></g></svg>