<?xml version="1.0" encoding="UTF-8" standalone="no"?><svg xmlns="http://www.w3.org/2000/svg" xmlns:xlink="http://www.w3.org/1999/xlink" contentScriptType="application/ecmascript" contentStyleType="text/css" height="602px" preserveAspectRatio="none" style="width:3093px;height:602px;" version="1.1" viewBox="0 0 3093 602" width="3093px" zoomAndPan="magnify"><defs><filter height="300%" id="f1rtrnjzk3tf2c" width="300%" x="-1" y="-1"><feGaussianBlur result="blurOut" stdDeviation="2.0"/><feColorMatrix in="blurOut" result="blurOut2" type="matrix" values="0 0 0 0 0 0 0 0 0 0 0 0 0 0 0 0 0 0 .4 0"/><feOffset dx="4.0" dy="4.0" in="blurOut2" result="blurOut3"/><feBlend in="SourceGraphic" in2="blurOut3" mode="normal"/></filter></defs><g><!--MD5=[33504725b8a69ba2207f0a836957a91c]
cluster edu.oakland.production.middleware02--><polygon fill="#FFFFFF" filter="url(#f1rtrnjzk3tf2c)" points="22,34.5,332,34.5,339,56.7969,1306,56.7969,1306,401,22,401,22,34.5" style="stroke: #000000; stroke-width: 1.5;"/><line style="stroke: #000000; stroke-width: 1.5;" x1="22" x2="339" y1="56.7969" y2="56.7969"/><text fill="#000000" font-family="sans-serif" font-size="14" font-weight="bold" lengthAdjust="spacingAndGlyphs" textLength="304" x="26" y="49.4951">edu.oakland.production.middleware02</text><!--MD5=[def9027c776d62015452659d5d6059fb]
cluster edu.oakland.test.middleware02--><polygon fill="#FFFFFF" filter="url(#f1rtrnjzk3tf2c)" points="1330,24,1585,24,1592,46.2969,2497,46.2969,2497,590,1330,590,1330,24" style="stroke: #000000; stroke-width: 1.5;"/><line style="stroke: #000000; stroke-width: 1.5;" x1="1330" x2="1592" y1="46.2969" y2="46.2969"/><text fill="#000000" font-family="sans-serif" font-size="14" font-weight="bold" lengthAdjust="spacingAndGlyphs" textLength="249" x="1334" y="38.9951">edu.oakland.test.middleware02</text><!--MD5=[73d4e355f259fb8d2c716d693a5be920]
cluster edu.oakland.helper.middleware02--><polygon fill="#FFFFFF" filter="url(#f1rtrnjzk3tf2c)" points="2521,30.5,2796,30.5,2803,52.7969,3071,52.7969,3071,167.5,2521,167.5,2521,30.5" style="stroke: #000000; stroke-width: 1.5;"/><line style="stroke: #000000; stroke-width: 1.5;" x1="2521" x2="2803" y1="52.7969" y2="52.7969"/><text fill="#000000" font-family="sans-serif" font-size="14" font-weight="bold" lengthAdjust="spacingAndGlyphs" textLength="269" x="2525" y="45.4951">edu.oakland.helper.middleware02</text><!--MD5=[d3cb230b9040bd9072bb1f490e167601]
class MiddlewareCommInterface--><rect fill="#FEFECE" filter="url(#f1rtrnjzk3tf2c)" height="77.6094" id="MiddlewareCommInterface" style="stroke: #A80036; stroke-width: 1.5;" width="198" x="116" y="69.5"/><ellipse cx="131" cy="85.5" fill="#B4A7E5" rx="11" ry="11" style="stroke: #A80036; stroke-width: 1.0;"/><path d="M126.9219,81.2656 L126.9219,79.1094 L134.3125,79.1094 L134.3125,81.2656 L131.8438,81.2656 L131.8438,89.3438 L134.3125,89.3438 L134.3125,91.5 L126.9219,91.5 L126.9219,89.3438 L129.3906,89.3438 L129.3906,81.2656 L126.9219,81.2656 Z "/><text fill="#000000" font-family="sans-serif" font-size="12" font-style="italic" lengthAdjust="spacingAndGlyphs" textLength="166" x="145" y="89.6543">MiddlewareCommInterface</text><line style="stroke: #A80036; stroke-width: 1.5;" x1="117" x2="313" y1="101.5" y2="101.5"/><line style="stroke: #A80036; stroke-width: 1.5;" x1="117" x2="313" y1="109.5" y2="109.5"/><ellipse cx="127" cy="137.3047" fill="#84BE84" rx="3" ry="3" style="stroke: #038048; stroke-width: 1.0;"/><text fill="#000000" font-family="sans-serif" font-size="11" font-style="italic" lengthAdjust="spacingAndGlyphs" textLength="171" x="136" y="140.5151">TrackData requestRfid(int rfid)</text><line style="stroke: #A80036; stroke-width: 1.0; stroke-dasharray: 1.0,2.0;" x1="117" x2="182" y1="123.9023" y2="123.9023"/><text fill="#000000" font-family="sans-serif" font-size="11" lengthAdjust="spacingAndGlyphs" textLength="66" x="182" y="127.2104">Use Case 1</text><line style="stroke: #A80036; stroke-width: 1.0; stroke-dasharray: 1.0,2.0;" x1="248" x2="313" y1="123.9023" y2="123.9023"/><!--MD5=[d01e667c21cf622da77e8a7601ca5c91]
class MiddlewareCommLinkManager--><rect fill="#FEFECE" filter="url(#f1rtrnjzk3tf2c)" height="77.6094" id="MiddlewareCommLinkManager" style="stroke: #A80036; stroke-width: 1.5;" width="221" x="349.5" y="69.5"/><ellipse cx="364.5" cy="85.5" fill="#B4A7E5" rx="11" ry="11" style="stroke: #A80036; stroke-width: 1.0;"/><path d="M360.4219,81.2656 L360.4219,79.1094 L367.8125,79.1094 L367.8125,81.2656 L365.3438,81.2656 L365.3438,89.3438 L367.8125,89.3438 L367.8125,91.5 L360.4219,91.5 L360.4219,89.3438 L362.8906,89.3438 L362.8906,81.2656 L360.4219,81.2656 Z "/><text fill="#000000" font-family="sans-serif" font-size="12" font-style="italic" lengthAdjust="spacingAndGlyphs" textLength="189" x="378.5" y="89.6543">MiddlewareCommLinkManager</text><line style="stroke: #A80036; stroke-width: 1.5;" x1="350.5" x2="569.5" y1="101.5" y2="101.5"/><line style="stroke: #A80036; stroke-width: 1.5;" x1="350.5" x2="569.5" y1="109.5" y2="109.5"/><ellipse cx="360.5" cy="137.3047" fill="#84BE84" rx="3" ry="3" style="stroke: #038048; stroke-width: 1.0;"/><text fill="#000000" font-family="sans-serif" font-size="11" font-style="italic" lengthAdjust="spacingAndGlyphs" textLength="160" x="369.5" y="140.5151">TrackData parseRfid(int rfid)</text><line style="stroke: #A80036; stroke-width: 1.0; stroke-dasharray: 1.0,2.0;" x1="350.5" x2="427" y1="123.9023" y2="123.9023"/><text fill="#000000" font-family="sans-serif" font-size="11" lengthAdjust="spacingAndGlyphs" textLength="66" x="427" y="127.2104">Use Case 1</text><line style="stroke: #A80036; stroke-width: 1.0; stroke-dasharray: 1.0,2.0;" x1="493" x2="569.5" y1="123.9023" y2="123.9023"/><!--MD5=[4915649770e9045e9ea9156a01fd67e8]
class MiddlewareCommDatabaseInterface--><rect fill="#FEFECE" filter="url(#f1rtrnjzk3tf2c)" height="77.6094" id="MiddlewareCommDatabaseInterface" style="stroke: #A80036; stroke-width: 1.5;" width="258" x="606" y="69.5"/><ellipse cx="621" cy="85.5" fill="#B4A7E5" rx="11" ry="11" style="stroke: #A80036; stroke-width: 1.0;"/><path d="M616.9219,81.2656 L616.9219,79.1094 L624.3125,79.1094 L624.3125,81.2656 L621.8438,81.2656 L621.8438,89.3438 L624.3125,89.3438 L624.3125,91.5 L616.9219,91.5 L616.9219,89.3438 L619.3906,89.3438 L619.3906,81.2656 L616.9219,81.2656 Z "/><text fill="#000000" font-family="sans-serif" font-size="12" font-style="italic" lengthAdjust="spacingAndGlyphs" textLength="226" x="635" y="89.6543">MiddlewareCommDatabaseInterface</text><line style="stroke: #A80036; stroke-width: 1.5;" x1="607" x2="863" y1="101.5" y2="101.5"/><line style="stroke: #A80036; stroke-width: 1.5;" x1="607" x2="863" y1="109.5" y2="109.5"/><ellipse cx="617" cy="137.3047" fill="#84BE84" rx="3" ry="3" style="stroke: #038048; stroke-width: 1.0;"/><text fill="#000000" font-family="sans-serif" font-size="11" font-style="italic" lengthAdjust="spacingAndGlyphs" textLength="123" x="626" y="140.5151">int checkCurrentRfid()</text><line style="stroke: #A80036; stroke-width: 1.0; stroke-dasharray: 1.0,2.0;" x1="607" x2="702" y1="123.9023" y2="123.9023"/><text fill="#000000" font-family="sans-serif" font-size="11" lengthAdjust="spacingAndGlyphs" textLength="66" x="702" y="127.2104">Use Case 1</text><line style="stroke: #A80036; stroke-width: 1.0; stroke-dasharray: 1.0,2.0;" x1="768" x2="863" y1="123.9023" y2="123.9023"/><!--MD5=[0a03c366ade61429da89cc477d567a32]
class MiddlewareCommInterfaceImplementation--><rect fill="#FEFECE" filter="url(#f1rtrnjzk3tf2c)" height="116.0234" id="MiddlewareCommInterfaceImplementation" style="stroke: #A80036; stroke-width: 1.5;" width="353" x="38.5" y="243.5"/><ellipse cx="80.5" cy="259.5" fill="#ADD1B2" rx="11" ry="11" style="stroke: #A80036; stroke-width: 1.0;"/><path d="M83.4688,265.1406 Q82.8906,265.4375 82.25,265.5781 Q81.6094,265.7344 80.9063,265.7344 Q78.4063,265.7344 77.0781,264.0938 Q75.7656,262.4375 75.7656,259.3125 Q75.7656,256.1875 77.0781,254.5313 Q78.4063,252.875 80.9063,252.875 Q81.6094,252.875 82.25,253.0313 Q82.9063,253.1875 83.4688,253.4844 L83.4688,256.2031 Q82.8438,255.625 82.25,255.3594 Q81.6563,255.0781 81.0313,255.0781 Q79.6875,255.0781 79,256.1563 Q78.3125,257.2188 78.3125,259.3125 Q78.3125,261.4063 79,262.4844 Q79.6875,263.5469 81.0313,263.5469 Q81.6563,263.5469 82.25,263.2813 Q82.8438,263 83.4688,262.4219 L83.4688,265.1406 Z "/><text fill="#000000" font-family="sans-serif" font-size="12" lengthAdjust="spacingAndGlyphs" textLength="261" x="100.5" y="263.6543">MiddlewareCommInterfaceImplementation</text><line style="stroke: #A80036; stroke-width: 1.5;" x1="39.5" x2="390.5" y1="275.5" y2="275.5"/><rect fill="none" height="6" style="stroke: #C82930; stroke-width: 1.0;" width="6" x="46.5" y="283.5"/><text fill="#000000" font-family="sans-serif" font-size="11" lengthAdjust="spacingAndGlyphs" textLength="291" x="58.5" y="289.7104">MiddlewareCommLinkManager middlewareManager</text><line style="stroke: #A80036; stroke-width: 1.5;" x1="39.5" x2="390.5" y1="296.3047" y2="296.3047"/><ellipse cx="49.5" cy="307.3047" fill="#84BE84" rx="3" ry="3" style="stroke: #038048; stroke-width: 1.0;"/><text fill="#000000" font-family="sans-serif" font-size="11" lengthAdjust="spacingAndGlyphs" textLength="243" x="58.5" y="310.5151">MiddlewareCommInterfaceImplementation(</text><text fill="#000000" font-family="sans-serif" font-size="11" lengthAdjust="spacingAndGlyphs" textLength="295" x="90.5" y="323.3198">MiddlewareCommLinkManager middlewareManager)</text><ellipse cx="49.5" cy="349.7188" fill="#84BE84" rx="3" ry="3" style="stroke: #038048; stroke-width: 1.0;"/><text fill="#000000" font-family="sans-serif" font-size="11" lengthAdjust="spacingAndGlyphs" textLength="171" x="58.5" y="352.9292">TrackData requestRfid(int rfid)</text><line style="stroke: #A80036; stroke-width: 1.0; stroke-dasharray: 1.0,2.0;" x1="39.5" x2="182" y1="336.3164" y2="336.3164"/><text fill="#000000" font-family="sans-serif" font-size="11" lengthAdjust="spacingAndGlyphs" textLength="66" x="182" y="339.6245">Use Case 1</text><line style="stroke: #A80036; stroke-width: 1.0; stroke-dasharray: 1.0,2.0;" x1="248" x2="390.5" y1="336.3164" y2="336.3164"/><!--MD5=[d9ed64ee38938b46697008700ce69fba]
class MiddlewareCommLinkManagerImplementation--><rect fill="#FEFECE" filter="url(#f1rtrnjzk3tf2c)" height="167.2422" id="MiddlewareCommLinkManagerImplementation" style="stroke: #A80036; stroke-width: 1.5;" width="474" x="427" y="218"/><ellipse cx="517.75" cy="234" fill="#ADD1B2" rx="11" ry="11" style="stroke: #A80036; stroke-width: 1.0;"/><path d="M520.7188,239.6406 Q520.1406,239.9375 519.5,240.0781 Q518.8594,240.2344 518.1563,240.2344 Q515.6563,240.2344 514.3281,238.5938 Q513.0156,236.9375 513.0156,233.8125 Q513.0156,230.6875 514.3281,229.0313 Q515.6563,227.375 518.1563,227.375 Q518.8594,227.375 519.5,227.5313 Q520.1563,227.6875 520.7188,227.9844 L520.7188,230.7031 Q520.0938,230.125 519.5,229.8594 Q518.9063,229.5781 518.2813,229.5781 Q516.9375,229.5781 516.25,230.6563 Q515.5625,231.7188 515.5625,233.8125 Q515.5625,235.9063 516.25,236.9844 Q516.9375,238.0469 518.2813,238.0469 Q518.9063,238.0469 519.5,237.7813 Q520.0938,237.5 520.7188,236.9219 L520.7188,239.6406 Z "/><text fill="#000000" font-family="sans-serif" font-size="12" lengthAdjust="spacingAndGlyphs" textLength="284" x="538.25" y="238.1543">MiddlewareCommLinkManagerImplementation</text><line style="stroke: #A80036; stroke-width: 1.5;" x1="428" x2="900" y1="250" y2="250"/><rect fill="none" height="6" style="stroke: #C82930; stroke-width: 1.0;" width="6" x="435" y="258"/><text fill="#000000" font-family="sans-serif" font-size="11" lengthAdjust="spacingAndGlyphs" textLength="416" x="447" y="264.2104">MiddlewareCommDatabaseInterface middlewareCommDatabaseInterface</text><rect fill="none" height="6" style="stroke: #C82930; stroke-width: 1.0;" width="6" x="435" y="270.8047"/><text fill="#000000" font-family="sans-serif" font-size="11" lengthAdjust="spacingAndGlyphs" textLength="270" x="447" y="277.0151">MiddlewareGisManager middlewareGisManager</text><line style="stroke: #A80036; stroke-width: 1.5;" x1="428" x2="900" y1="283.6094" y2="283.6094"/><ellipse cx="438" cy="294.6094" fill="#84BE84" rx="3" ry="3" style="stroke: #038048; stroke-width: 1.0;"/><text fill="#000000" font-family="sans-serif" font-size="11" lengthAdjust="spacingAndGlyphs" textLength="264" x="447" y="297.8198">MiddlewareCommLinkManagerImplementation(</text><text fill="#000000" font-family="sans-serif" font-size="11" lengthAdjust="spacingAndGlyphs" textLength="416" x="479" y="310.6245">MiddlewareCommDatabaseInterface middlewareCommDatabaseInterface</text><text fill="#000000" font-family="sans-serif" font-size="11" lengthAdjust="spacingAndGlyphs" textLength="274" x="479" y="323.4292">MiddlewareGisManager middlewareGisManager)</text><ellipse cx="438" cy="349.8281" fill="#84BE84" rx="3" ry="3" style="stroke: #038048; stroke-width: 1.0;"/><text fill="#000000" font-family="sans-serif" font-size="11" lengthAdjust="spacingAndGlyphs" textLength="160" x="447" y="353.0386">TrackData parseRfid(int rfid)</text><rect fill="#F24D5C" height="6" style="stroke: #C82930; stroke-width: 1.0;" width="6" x="435" y="359.6328"/><text fill="#000000" font-family="sans-serif" font-size="11" lengthAdjust="spacingAndGlyphs" textLength="188" x="447" y="365.8433">float calculateLocationDataPoint()</text><rect fill="#F24D5C" height="6" style="stroke: #C82930; stroke-width: 1.0;" width="6" x="435" y="372.4375"/><text fill="#000000" font-family="sans-serif" font-size="11" lengthAdjust="spacingAndGlyphs" textLength="144" x="447" y="378.6479">float calculateTrackData()</text><line style="stroke: #A80036; stroke-width: 1.0; stroke-dasharray: 1.0,2.0;" x1="428" x2="631" y1="336.4258" y2="336.4258"/><text fill="#000000" font-family="sans-serif" font-size="11" lengthAdjust="spacingAndGlyphs" textLength="66" x="631" y="339.7339">Use Case 1</text><line style="stroke: #A80036; stroke-width: 1.0; stroke-dasharray: 1.0,2.0;" x1="697" x2="900" y1="336.4258" y2="336.4258"/><!--MD5=[1c4f9654f103878faf4a10c0361188b9]
class MiddlewareCommDatabaseInterfaceImplementation--><rect fill="#FEFECE" filter="url(#f1rtrnjzk3tf2c)" height="116.0234" id="MiddlewareCommDatabaseInterfaceImplementation" style="stroke: #A80036; stroke-width: 1.5;" width="354" x="936" y="243.5"/><ellipse cx="951" cy="259.5" fill="#ADD1B2" rx="11" ry="11" style="stroke: #A80036; stroke-width: 1.0;"/><path d="M953.9688,265.1406 Q953.3906,265.4375 952.75,265.5781 Q952.1094,265.7344 951.4063,265.7344 Q948.9063,265.7344 947.5781,264.0938 Q946.2656,262.4375 946.2656,259.3125 Q946.2656,256.1875 947.5781,254.5313 Q948.9063,252.875 951.4063,252.875 Q952.1094,252.875 952.75,253.0313 Q953.4063,253.1875 953.9688,253.4844 L953.9688,256.2031 Q953.3438,255.625 952.75,255.3594 Q952.1563,255.0781 951.5313,255.0781 Q950.1875,255.0781 949.5,256.1563 Q948.8125,257.2188 948.8125,259.3125 Q948.8125,261.4063 949.5,262.4844 Q950.1875,263.5469 951.5313,263.5469 Q952.1563,263.5469 952.75,263.2813 Q953.3438,263 953.9688,262.4219 L953.9688,265.1406 Z "/><text fill="#000000" font-family="sans-serif" font-size="12" lengthAdjust="spacingAndGlyphs" textLength="322" x="965" y="263.6543">MiddlewareCommDatabaseInterfaceImplementation</text><line style="stroke: #A80036; stroke-width: 1.5;" x1="937" x2="1289" y1="275.5" y2="275.5"/><ellipse cx="947" cy="286.5" fill="none" rx="3" ry="3" style="stroke: #038048; stroke-width: 1.0;"/><text fill="#000000" font-family="sans-serif" font-size="11" lengthAdjust="spacingAndGlyphs" textLength="285" x="956" y="289.7104">DatabaseCommInterface databaseCommInterface</text><line style="stroke: #A80036; stroke-width: 1.5;" x1="937" x2="1289" y1="296.3047" y2="296.3047"/><ellipse cx="947" cy="307.3047" fill="#84BE84" rx="3" ry="3" style="stroke: #038048; stroke-width: 1.0;"/><text fill="#000000" font-family="sans-serif" font-size="11" lengthAdjust="spacingAndGlyphs" textLength="297" x="956" y="310.5151">MiddlewareCommDatabaseInterfaceImplementation(</text><text fill="#000000" font-family="sans-serif" font-size="11" lengthAdjust="spacingAndGlyphs" textLength="289" x="988" y="323.3198">DatabaseCommInterface databaseCommInterface)</text><ellipse cx="947" cy="349.7188" fill="#84BE84" rx="3" ry="3" style="stroke: #038048; stroke-width: 1.0;"/><text fill="#000000" font-family="sans-serif" font-size="11" lengthAdjust="spacingAndGlyphs" textLength="122" x="956" y="352.9292">int checkCurrentRfid()</text><line style="stroke: #A80036; stroke-width: 1.0; stroke-dasharray: 1.0,2.0;" x1="937" x2="1080" y1="336.3164" y2="336.3164"/><text fill="#000000" font-family="sans-serif" font-size="11" lengthAdjust="spacingAndGlyphs" textLength="66" x="1080" y="339.6245">Use Case 1</text><line style="stroke: #A80036; stroke-width: 1.0; stroke-dasharray: 1.0,2.0;" x1="1146" x2="1289" y1="336.3164" y2="336.3164"/><!--MD5=[00b94da1af6b7f5503baa4bfd88b42e0]
class MiddlewareCommInterfaceImplementationTests--><rect fill="#FEFECE" filter="url(#f1rtrnjzk3tf2c)" height="48" id="MiddlewareCommInterfaceImplementationTests" style="stroke: #A80036; stroke-width: 1.5;" width="327" x="1345.5" y="84.5"/><ellipse cx="1360.5" cy="100.5" fill="#ADD1B2" rx="11" ry="11" style="stroke: #A80036; stroke-width: 1.0;"/><path d="M1363.4688,106.1406 Q1362.8906,106.4375 1362.25,106.5781 Q1361.6094,106.7344 1360.9063,106.7344 Q1358.4063,106.7344 1357.0781,105.0938 Q1355.7656,103.4375 1355.7656,100.3125 Q1355.7656,97.1875 1357.0781,95.5313 Q1358.4063,93.875 1360.9063,93.875 Q1361.6094,93.875 1362.25,94.0313 Q1362.9063,94.1875 1363.4688,94.4844 L1363.4688,97.2031 Q1362.8438,96.625 1362.25,96.3594 Q1361.6563,96.0781 1361.0313,96.0781 Q1359.6875,96.0781 1359,97.1563 Q1358.3125,98.2188 1358.3125,100.3125 Q1358.3125,102.4063 1359,103.4844 Q1359.6875,104.5469 1361.0313,104.5469 Q1361.6563,104.5469 1362.25,104.2813 Q1362.8438,104 1363.4688,103.4219 L1363.4688,106.1406 Z "/><text fill="#000000" font-family="sans-serif" font-size="12" lengthAdjust="spacingAndGlyphs" textLength="295" x="1374.5" y="104.6543">MiddlewareCommInterfaceImplementationTests</text><line style="stroke: #A80036; stroke-width: 1.5;" x1="1346.5" x2="1671.5" y1="116.5" y2="116.5"/><line style="stroke: #A80036; stroke-width: 1.5;" x1="1346.5" x2="1671.5" y1="124.5" y2="124.5"/><!--MD5=[de2e25996fbf99af10f04f2aae2d0ec2]
class MiddlewareCommLinkManagerImplementationTests--><rect fill="#FEFECE" filter="url(#f1rtrnjzk3tf2c)" height="99.2188" id="MiddlewareCommLinkManagerImplementationTests" style="stroke: #A80036; stroke-width: 1.5;" width="350" x="1708" y="59"/><ellipse cx="1723" cy="75" fill="#ADD1B2" rx="11" ry="11" style="stroke: #A80036; stroke-width: 1.0;"/><path d="M1725.9688,80.6406 Q1725.3906,80.9375 1724.75,81.0781 Q1724.1094,81.2344 1723.4063,81.2344 Q1720.9063,81.2344 1719.5781,79.5938 Q1718.2656,77.9375 1718.2656,74.8125 Q1718.2656,71.6875 1719.5781,70.0313 Q1720.9063,68.375 1723.4063,68.375 Q1724.1094,68.375 1724.75,68.5313 Q1725.4063,68.6875 1725.9688,68.9844 L1725.9688,71.7031 Q1725.3438,71.125 1724.75,70.8594 Q1724.1563,70.5781 1723.5313,70.5781 Q1722.1875,70.5781 1721.5,71.6563 Q1720.8125,72.7188 1720.8125,74.8125 Q1720.8125,76.9063 1721.5,77.9844 Q1722.1875,79.0469 1723.5313,79.0469 Q1724.1563,79.0469 1724.75,78.7813 Q1725.3438,78.5 1725.9688,77.9219 L1725.9688,80.6406 Z "/><text fill="#000000" font-family="sans-serif" font-size="12" lengthAdjust="spacingAndGlyphs" textLength="318" x="1737" y="79.1543">MiddlewareCommLinkManagerImplementationTests</text><line style="stroke: #A80036; stroke-width: 1.5;" x1="1709" x2="2057" y1="91" y2="91"/><line style="stroke: #A80036; stroke-width: 1.5;" x1="1709" x2="2057" y1="99" y2="99"/><ellipse cx="1719" cy="110" fill="#84BE84" rx="3" ry="3" style="stroke: #038048; stroke-width: 1.0;"/><text fill="#000000" font-family="sans-serif" font-size="11" lengthAdjust="spacingAndGlyphs" textLength="160" x="1728" y="113.2104">void verifyTrackLengthTest()</text><ellipse cx="1719" cy="122.8047" fill="#84BE84" rx="3" ry="3" style="stroke: #038048; stroke-width: 1.0;"/><text fill="#000000" font-family="sans-serif" font-size="11" lengthAdjust="spacingAndGlyphs" textLength="115" x="1728" y="126.0151">void rfidInIsRfidOut()</text><ellipse cx="1719" cy="135.6094" fill="#84BE84" rx="3" ry="3" style="stroke: #038048; stroke-width: 1.0;"/><text fill="#000000" font-family="sans-serif" font-size="11" lengthAdjust="spacingAndGlyphs" textLength="171" x="1728" y="138.8198">void gpsDataInIsGpsDataOut()</text><ellipse cx="1719" cy="148.4141" fill="#84BE84" rx="3" ry="3" style="stroke: #038048; stroke-width: 1.0;"/><text fill="#000000" font-family="sans-serif" font-size="11" lengthAdjust="spacingAndGlyphs" textLength="186" x="1728" y="151.6245">void trackDataInIsTrackDataOut()</text><!--MD5=[002ff5c7151dea29dff01f25b38dca5f]
class MiddlewareCommDatabaseInterfaceImplementationTests--><rect fill="#FEFECE" filter="url(#f1rtrnjzk3tf2c)" height="73.6094" id="MiddlewareCommDatabaseInterfaceImplementationTests" style="stroke: #A80036; stroke-width: 1.5;" width="388" x="2093" y="71.5"/><ellipse cx="2108" cy="87.5" fill="#ADD1B2" rx="11" ry="11" style="stroke: #A80036; stroke-width: 1.0;"/><path d="M2110.9688,93.1406 Q2110.3906,93.4375 2109.75,93.5781 Q2109.1094,93.7344 2108.4063,93.7344 Q2105.9063,93.7344 2104.5781,92.0938 Q2103.2656,90.4375 2103.2656,87.3125 Q2103.2656,84.1875 2104.5781,82.5313 Q2105.9063,80.875 2108.4063,80.875 Q2109.1094,80.875 2109.75,81.0313 Q2110.4063,81.1875 2110.9688,81.4844 L2110.9688,84.2031 Q2110.3438,83.625 2109.75,83.3594 Q2109.1563,83.0781 2108.5313,83.0781 Q2107.1875,83.0781 2106.5,84.1563 Q2105.8125,85.2188 2105.8125,87.3125 Q2105.8125,89.4063 2106.5,90.4844 Q2107.1875,91.5469 2108.5313,91.5469 Q2109.1563,91.5469 2109.75,91.2813 Q2110.3438,91 2110.9688,90.4219 L2110.9688,93.1406 Z "/><text fill="#000000" font-family="sans-serif" font-size="12" lengthAdjust="spacingAndGlyphs" textLength="356" x="2122" y="91.6543">MiddlewareCommDatabaseInterfaceImplementationTests</text><line style="stroke: #A80036; stroke-width: 1.5;" x1="2094" x2="2480" y1="103.5" y2="103.5"/><line style="stroke: #A80036; stroke-width: 1.5;" x1="2094" x2="2480" y1="111.5" y2="111.5"/><ellipse cx="2104" cy="122.5" fill="#84BE84" rx="3" ry="3" style="stroke: #038048; stroke-width: 1.0;"/><text fill="#000000" font-family="sans-serif" font-size="11" lengthAdjust="spacingAndGlyphs" textLength="115" x="2113" y="125.7104">void rfidInIsRfidOut()</text><ellipse cx="2104" cy="135.3047" fill="#84BE84" rx="3" ry="3" style="stroke: #038048; stroke-width: 1.0;"/><text fill="#000000" font-family="sans-serif" font-size="11" lengthAdjust="spacingAndGlyphs" textLength="225" x="2113" y="138.5151">void databaseCommInterfaceIsNotNull()</text><!--MD5=[4d30ae449f97cbb7dd3c9db2a55e1ec0]
class TrackDataCalculatorTests--><rect fill="#FEFECE" filter="url(#f1rtrnjzk3tf2c)" height="48" id="TrackDataCalculatorTests" style="stroke: #A80036; stroke-width: 1.5;" width="193" x="1430.5" y="277.5"/><ellipse cx="1445.5" cy="293.5" fill="#ADD1B2" rx="11" ry="11" style="stroke: #A80036; stroke-width: 1.0;"/><path d="M1448.4688,299.1406 Q1447.8906,299.4375 1447.25,299.5781 Q1446.6094,299.7344 1445.9063,299.7344 Q1443.4063,299.7344 1442.0781,298.0938 Q1440.7656,296.4375 1440.7656,293.3125 Q1440.7656,290.1875 1442.0781,288.5313 Q1443.4063,286.875 1445.9063,286.875 Q1446.6094,286.875 1447.25,287.0313 Q1447.9063,287.1875 1448.4688,287.4844 L1448.4688,290.2031 Q1447.8438,289.625 1447.25,289.3594 Q1446.6563,289.0781 1446.0313,289.0781 Q1444.6875,289.0781 1444,290.1563 Q1443.3125,291.2188 1443.3125,293.3125 Q1443.3125,295.4063 1444,296.4844 Q1444.6875,297.5469 1446.0313,297.5469 Q1446.6563,297.5469 1447.25,297.2813 Q1447.8438,297 1448.4688,296.4219 L1448.4688,299.1406 Z "/><text fill="#000000" font-family="sans-serif" font-size="12" lengthAdjust="spacingAndGlyphs" textLength="161" x="1459.5" y="297.6543">TrackDataCalculatorTests</text><line style="stroke: #A80036; stroke-width: 1.5;" x1="1431.5" x2="1622.5" y1="309.5" y2="309.5"/><line style="stroke: #A80036; stroke-width: 1.5;" x1="1431.5" x2="1622.5" y1="317.5" y2="317.5"/><!--MD5=[3bea4f8dbcd5725ad50d10553f2379e2]
class MiddlewareCommLinkManagerStub--><rect fill="#FEFECE" filter="url(#f1rtrnjzk3tf2c)" height="77.6094" id="MiddlewareCommLinkManagerStub" style="stroke: #A80036; stroke-width: 1.5;" width="248" x="1659" y="262.5"/><ellipse cx="1674" cy="278.5" fill="#ADD1B2" rx="11" ry="11" style="stroke: #A80036; stroke-width: 1.0;"/><path d="M1676.9688,284.1406 Q1676.3906,284.4375 1675.75,284.5781 Q1675.1094,284.7344 1674.4063,284.7344 Q1671.9063,284.7344 1670.5781,283.0938 Q1669.2656,281.4375 1669.2656,278.3125 Q1669.2656,275.1875 1670.5781,273.5313 Q1671.9063,271.875 1674.4063,271.875 Q1675.1094,271.875 1675.75,272.0313 Q1676.4063,272.1875 1676.9688,272.4844 L1676.9688,275.2031 Q1676.3438,274.625 1675.75,274.3594 Q1675.1563,274.0781 1674.5313,274.0781 Q1673.1875,274.0781 1672.5,275.1563 Q1671.8125,276.2188 1671.8125,278.3125 Q1671.8125,280.4063 1672.5,281.4844 Q1673.1875,282.5469 1674.5313,282.5469 Q1675.1563,282.5469 1675.75,282.2813 Q1676.3438,282 1676.9688,281.4219 L1676.9688,284.1406 Z "/><text fill="#000000" font-family="sans-serif" font-size="12" lengthAdjust="spacingAndGlyphs" textLength="216" x="1688" y="282.6543">MiddlewareCommLinkManagerStub</text><line style="stroke: #A80036; stroke-width: 1.5;" x1="1660" x2="1906" y1="294.5" y2="294.5"/><line style="stroke: #A80036; stroke-width: 1.5;" x1="1660" x2="1906" y1="302.5" y2="302.5"/><ellipse cx="1670" cy="330.3047" fill="#84BE84" rx="3" ry="3" style="stroke: #038048; stroke-width: 1.0;"/><text fill="#000000" font-family="sans-serif" font-size="11" lengthAdjust="spacingAndGlyphs" textLength="160" x="1679" y="333.5151">TrackData parseRfid(int rfid)</text><line style="stroke: #A80036; stroke-width: 1.0; stroke-dasharray: 1.0,2.0;" x1="1660" x2="1750" y1="316.9023" y2="316.9023"/><text fill="#000000" font-family="sans-serif" font-size="11" lengthAdjust="spacingAndGlyphs" textLength="66" x="1750" y="320.2104">Use Case 1</text><line style="stroke: #A80036; stroke-width: 1.0; stroke-dasharray: 1.0,2.0;" x1="1816" x2="1906" y1="316.9023" y2="316.9023"/><!--MD5=[d266ff1a021c6b2abe780212ea4bc90b]
class MiddlewareCommDatabaseInterfaceStub--><rect fill="#FEFECE" filter="url(#f1rtrnjzk3tf2c)" height="77.6094" id="MiddlewareCommDatabaseInterfaceStub" style="stroke: #A80036; stroke-width: 1.5;" width="286" x="1942" y="262.5"/><ellipse cx="1957" cy="278.5" fill="#ADD1B2" rx="11" ry="11" style="stroke: #A80036; stroke-width: 1.0;"/><path d="M1959.9688,284.1406 Q1959.3906,284.4375 1958.75,284.5781 Q1958.1094,284.7344 1957.4063,284.7344 Q1954.9063,284.7344 1953.5781,283.0938 Q1952.2656,281.4375 1952.2656,278.3125 Q1952.2656,275.1875 1953.5781,273.5313 Q1954.9063,271.875 1957.4063,271.875 Q1958.1094,271.875 1958.75,272.0313 Q1959.4063,272.1875 1959.9688,272.4844 L1959.9688,275.2031 Q1959.3438,274.625 1958.75,274.3594 Q1958.1563,274.0781 1957.5313,274.0781 Q1956.1875,274.0781 1955.5,275.1563 Q1954.8125,276.2188 1954.8125,278.3125 Q1954.8125,280.4063 1955.5,281.4844 Q1956.1875,282.5469 1957.5313,282.5469 Q1958.1563,282.5469 1958.75,282.2813 Q1959.3438,282 1959.9688,281.4219 L1959.9688,284.1406 Z "/><text fill="#000000" font-family="sans-serif" font-size="12" lengthAdjust="spacingAndGlyphs" textLength="254" x="1971" y="282.6543">MiddlewareCommDatabaseInterfaceStub</text><line style="stroke: #A80036; stroke-width: 1.5;" x1="1943" x2="2227" y1="294.5" y2="294.5"/><line style="stroke: #A80036; stroke-width: 1.5;" x1="1943" x2="2227" y1="302.5" y2="302.5"/><ellipse cx="1953" cy="330.3047" fill="#84BE84" rx="3" ry="3" style="stroke: #038048; stroke-width: 1.0;"/><text fill="#000000" font-family="sans-serif" font-size="11" lengthAdjust="spacingAndGlyphs" textLength="122" x="1962" y="333.5151">int checkCurrentRfid()</text><line style="stroke: #A80036; stroke-width: 1.0; stroke-dasharray: 1.0,2.0;" x1="1943" x2="2052" y1="316.9023" y2="316.9023"/><text fill="#000000" font-family="sans-serif" font-size="11" lengthAdjust="spacingAndGlyphs" textLength="66" x="2052" y="320.2104">Use Case 1</text><line style="stroke: #A80036; stroke-width: 1.0; stroke-dasharray: 1.0,2.0;" x1="2118" x2="2227" y1="316.9023" y2="316.9023"/><!--MD5=[e3f4175480349659b88084d56af4bbf1]
class DatabaseCommInterfaceStub--><rect fill="#FEFECE" filter="url(#f1rtrnjzk3tf2c)" height="128.8281" id="DatabaseCommInterfaceStub" style="stroke: #A80036; stroke-width: 1.5;" width="398" x="1346" y="445"/><ellipse cx="1448.75" cy="461" fill="#ADD1B2" rx="11" ry="11" style="stroke: #A80036; stroke-width: 1.0;"/><path d="M1451.7188,466.6406 Q1451.1406,466.9375 1450.5,467.0781 Q1449.8594,467.2344 1449.1563,467.2344 Q1446.6563,467.2344 1445.3281,465.5938 Q1444.0156,463.9375 1444.0156,460.8125 Q1444.0156,457.6875 1445.3281,456.0313 Q1446.6563,454.375 1449.1563,454.375 Q1449.8594,454.375 1450.5,454.5313 Q1451.1563,454.6875 1451.7188,454.9844 L1451.7188,457.7031 Q1451.0938,457.125 1450.5,456.8594 Q1449.9063,456.5781 1449.2813,456.5781 Q1447.9375,456.5781 1447.25,457.6563 Q1446.5625,458.7188 1446.5625,460.8125 Q1446.5625,462.9063 1447.25,463.9844 Q1447.9375,465.0469 1449.2813,465.0469 Q1449.9063,465.0469 1450.5,464.7813 Q1451.0938,464.5 1451.7188,463.9219 L1451.7188,466.6406 Z "/><text fill="#000000" font-family="sans-serif" font-size="12" lengthAdjust="spacingAndGlyphs" textLength="184" x="1469.25" y="465.1543">DatabaseCommInterfaceStub</text><line style="stroke: #A80036; stroke-width: 1.5;" x1="1347" x2="1743" y1="477" y2="477"/><line style="stroke: #A80036; stroke-width: 1.5;" x1="1347" x2="1743" y1="485" y2="485"/><ellipse cx="1357" cy="512.8047" fill="#84BE84" rx="3" ry="3" style="stroke: #038048; stroke-width: 1.0;"/><text fill="#000000" font-family="sans-serif" font-size="11" font-style="italic" lengthAdjust="spacingAndGlyphs" textLength="156" x="1366" y="516.0151">int receiveGetRfidRequest()</text><ellipse cx="1357" cy="525.6094" fill="#84BE84" rx="3" ry="3" style="stroke: #038048; stroke-width: 1.0;"/><text fill="#000000" font-family="sans-serif" font-size="11" font-style="italic" lengthAdjust="spacingAndGlyphs" textLength="372" x="1366" y="528.8198">LocationDataPoint receiveGetLocationDataPointRequest(int offset)</text><ellipse cx="1357" cy="538.4141" fill="#84BE84" rx="3" ry="3" style="stroke: #038048; stroke-width: 1.0;"/><text fill="#000000" font-family="sans-serif" font-size="11" font-style="italic" lengthAdjust="spacingAndGlyphs" textLength="284" x="1366" y="541.6245">TrackData receiveGetTrackDataRequest(int offset)</text><ellipse cx="1357" cy="551.2188" fill="#84BE84" rx="3" ry="3" style="stroke: #038048; stroke-width: 1.0;"/><text fill="#000000" font-family="sans-serif" font-size="11" font-style="italic" lengthAdjust="spacingAndGlyphs" textLength="283" x="1366" y="554.4292">void storeTrackDataRequest(TrackData trackData)</text><ellipse cx="1357" cy="564.0234" fill="#84BE84" rx="3" ry="3" style="stroke: #038048; stroke-width: 1.0;"/><text fill="#000000" font-family="sans-serif" font-size="11" font-style="italic" lengthAdjust="spacingAndGlyphs" textLength="183" x="1366" y="567.2339">String receiveGetModeRequest()</text><line style="stroke: #A80036; stroke-width: 1.0; stroke-dasharray: 1.0,2.0;" x1="1347" x2="1512" y1="499.4023" y2="499.4023"/><text fill="#000000" font-family="sans-serif" font-size="11" lengthAdjust="spacingAndGlyphs" textLength="66" x="1512" y="502.7104">Use Case 1</text><line style="stroke: #A80036; stroke-width: 1.0; stroke-dasharray: 1.0,2.0;" x1="1578" x2="1743" y1="499.4023" y2="499.4023"/><!--MD5=[8d86b1aa2030a05d452f78e2e1fb37ed]
class TrackDataCalculator--><rect fill="#FEFECE" filter="url(#f1rtrnjzk3tf2c)" height="86.4141" id="TrackDataCalculator" style="stroke: #A80036; stroke-width: 1.5;" width="518" x="2537" y="65.5"/><ellipse cx="2728.25" cy="81.5" fill="#ADD1B2" rx="11" ry="11" style="stroke: #A80036; stroke-width: 1.0;"/><path d="M2731.2188,87.1406 Q2730.6406,87.4375 2730,87.5781 Q2729.3594,87.7344 2728.6563,87.7344 Q2726.1563,87.7344 2724.8281,86.0938 Q2723.5156,84.4375 2723.5156,81.3125 Q2723.5156,78.1875 2724.8281,76.5313 Q2726.1563,74.875 2728.6563,74.875 Q2729.3594,74.875 2730,75.0313 Q2730.6563,75.1875 2731.2188,75.4844 L2731.2188,78.2031 Q2730.5938,77.625 2730,77.3594 Q2729.4063,77.0781 2728.7813,77.0781 Q2727.4375,77.0781 2726.75,78.1563 Q2726.0625,79.2188 2726.0625,81.3125 Q2726.0625,83.4063 2726.75,84.4844 Q2727.4375,85.5469 2728.7813,85.5469 Q2729.4063,85.5469 2730,85.2813 Q2730.5938,85 2731.2188,84.4219 L2731.2188,87.1406 Z "/><text fill="#000000" font-family="sans-serif" font-size="12" lengthAdjust="spacingAndGlyphs" textLength="127" x="2748.75" y="85.6543">TrackDataCalculator</text><line style="stroke: #A80036; stroke-width: 1.5;" x1="2538" x2="3054" y1="97.5" y2="97.5"/><line style="stroke: #A80036; stroke-width: 1.5;" x1="2538" x2="3054" y1="105.5" y2="105.5"/><ellipse cx="2548" cy="116.5" fill="#84BE84" rx="3" ry="3" style="stroke: #038048; stroke-width: 1.0;"/><text fill="#000000" font-family="sans-serif" font-size="11" lengthAdjust="spacingAndGlyphs" text-decoration="underline" textLength="341" x="2557" y="119.7104">float calculateSpeed(LocationDataPoint[] locationDataPoints)</text><ellipse cx="2548" cy="129.3047" fill="#84BE84" rx="3" ry="3" style="stroke: #038048; stroke-width: 1.0;"/><text fill="#000000" font-family="sans-serif" font-size="11" lengthAdjust="spacingAndGlyphs" text-decoration="underline" textLength="355" x="2557" y="132.5151">float calculateDirection(LocationDataPoint[] locationDataPoints)</text><rect fill="#F24D5C" height="6" style="stroke: #C82930; stroke-width: 1.0;" width="6" x="2545" y="139.1094"/><text fill="#000000" font-family="sans-serif" font-size="11" lengthAdjust="spacingAndGlyphs" text-decoration="underline" textLength="492" x="2557" y="145.3198">LocationDataPoint[] calculateRootMeanSquared(LocationDataPoint[] locationDataPoints)</text><!--MD5=[79aecf45dbeed97c47edbe657f491fed]
link MiddlewareCommInterface to MiddlewareCommLinkManager--><!--MD5=[3e31a8e5d6790d9de494b190b5cea52e]
link MiddlewareCommLinkManager to MiddlewareCommDatabaseInterface--><!--MD5=[1ada782ccdd2db703c66336b5f162fc3]
link MiddlewareCommInterface to MiddlewareCommInterfaceImplementation--><!--MD5=[6da0790ce05b99ca6092638cec9e90cf]
link MiddlewareCommInterfaceImplementation to MiddlewareCommLinkManagerImplementation--><!--MD5=[36e461af31e28567fecbe5ff60035690]
link MiddlewareCommLinkManagerImplementation to MiddlewareCommDatabaseInterfaceImplementation--><!--MD5=[ce6c844e7919a8f6f76001b7f296af78]
link MiddlewareCommInterfaceImplementationTests to MiddlewareCommLinkManagerImplementationTests--><!--MD5=[3a12c45484f2afe8107fcf684edf8632]
link MiddlewareCommLinkManagerImplementationTests to MiddlewareCommDatabaseInterfaceImplementationTests--><!--MD5=[a838cbddba67618560d21b534c15253a]
link MiddlewareCommInterfaceImplementationTests to TrackDataCalculatorTests--><!--MD5=[903a9875e449f16eb55177d9b4a91305]
link TrackDataCalculatorTests to MiddlewareCommLinkManagerStub--><!--MD5=[b940ce8b92caa55cf550a1d2b063f3f9]
link MiddlewareCommLinkManagerStub to MiddlewareCommDatabaseInterfaceStub--><!--MD5=[b54ff60b3a8e60754b9804127a777003]
link TrackDataCalculatorTests to DatabaseCommInterfaceStub--><!--MD5=[d5b48c72904f8ffa2b51bfbef28c44af]
@startuml Middleware02Packages


package edu.oakland.production.middleware02 {

}


package edu.oakland.production.middleware02 {
    interface MiddlewareCommInterface {
        __
        .. Use Case 1 ..
        {abstract} + TrackData requestRfid(int rfid)
    }
}


package edu.oakland.production.middleware02 {
    interface MiddlewareCommLinkManager {
        __
        .. Use Case 1 ..
        {abstract} + TrackData parseRfid(int rfid)
    }
}


package edu.oakland.production.middleware02 {
    interface MiddlewareCommDatabaseInterface {
        __
        .. Use Case 1 ..
        {abstract} + int checkCurrentRfid()
    }
}


package edu.oakland.production.middleware02 {
    class MiddlewareCommInterfaceImplementation {
        - MiddlewareCommLinkManager middlewareManager
        __
        + MiddlewareCommInterfaceImplementation(
        \tMiddlewareCommLinkManager middlewareManager)
        .. Use Case 1 ..
        + TrackData requestRfid(int rfid)
}


package edu.oakland.production.middleware02 {
    class MiddlewareCommLinkManagerImplementation {
        - MiddlewareCommDatabaseInterface middlewareCommDatabaseInterface
        - MiddlewareGisManager middlewareGisManager
        __
        + MiddlewareCommLinkManagerImplementation(
        \tMiddlewareCommDatabaseInterface middlewareCommDatabaseInterface
        \tMiddlewareGisManager middlewareGisManager)
        .. Use Case 1 ..
        + TrackData parseRfid(int rfid)
        - float calculateLocationDataPoint()
        - float calculateTrackData()
    }
}


package edu.oakland.production.middleware02 {
    class MiddlewareCommDatabaseInterfaceImplementation {
        + DatabaseCommInterface databaseCommInterface
        __
        + MiddlewareCommDatabaseInterfaceImplementation(
        \tDatabaseCommInterface databaseCommInterface)
        .. Use Case 1 ..
        + int checkCurrentRfid()
    }
}



package edu.oakland.test.middleware02 {
    
}


package edu.oakland.test.middleware02 {
    class MiddlewareCommInterfaceImplementationTests {

    }
}


package edu.oakland.test.middleware02 {
    class MiddlewareCommLinkManagerImplementationTests {
      + void verifyTrackLengthTest()
      + void rfidInIsRfidOut()
      + void gpsDataInIsGpsDataOut()
      + void trackDataInIsTrackDataOut()
    }
}


package edu.oakland.test.middleware02 {
    class MiddlewareCommDatabaseInterfaceImplementationTests {
        + void rfidInIsRfidOut()
        + void databaseCommInterfaceIsNotNull()
    }
}


package edu.oakland.test.middleware02 {
    class TrackDataCalculatorTests {

    }
}


package edu.oakland.test.middleware02 {
    class MiddlewareCommLinkManagerStub {
        __
        .. Use Case 1 ..
        + TrackData parseRfid(int rfid)
    }
}


package edu.oakland.test.middleware02 {
    class MiddlewareCommDatabaseInterfaceStub {
        __
        .. Use Case 1 ..
        + int checkCurrentRfid()
    }
}


package edu.oakland.test.middleware02 {
    class DatabaseCommInterfaceStub {
        __
        .. Use Case 1 ..
        {abstract} + int receiveGetRfidRequest()
        {abstract} + LocationDataPoint receiveGetLocationDataPointRequest(int offset)
        {abstract} + TrackData receiveGetTrackDataRequest(int offset)
        {abstract} + void storeTrackDataRequest(TrackData trackData)
        {abstract} + String receiveGetModeRequest()
    }
}



package edu.oakland.helper.middleware02 {
    
}


package edu.oakland.helper.middleware02 {
    class TrackDataCalculator {
        {static} + float calculateSpeed(LocationDataPoint[] locationDataPoints)
        {static} + float calculateDirection(LocationDataPoint[] locationDataPoints)
        {static} - LocationDataPoint[] calculateRootMeanSquared(LocationDataPoint[] locationDataPoints)
    }
}



@enduml

PlantUML version 1.2020.02(Sun Mar 01 10:22:07 GMT 2020)
(GPL source distribution)
Java Runtime: OpenJDK Runtime Environment
JVM: OpenJDK 64-Bit Server VM
Java Version: 11.0.9+11-Ubuntu-0ubuntu1
Operating System: Linux
Default Encoding: ANSI_X3.4-1968
Language: en
Country: US
--></g></svg>