<?xml version="1.0" encoding="UTF-8" standalone="no"?><svg xmlns="http://www.w3.org/2000/svg" xmlns:xlink="http://www.w3.org/1999/xlink" contentScriptType="application/ecmascript" contentStyleType="text/css" height="604px" preserveAspectRatio="none" style="width:3202px;height:604px;" version="1.1" viewBox="0 0 3202 604" width="3202px" zoomAndPan="magnify"><defs><filter height="300%" id="f1n44uh32bgt2x" width="300%" x="-1" y="-1"><feGaussianBlur result="blurOut" stdDeviation="2.0"/><feColorMatrix in="blurOut" result="blurOut2" type="matrix" values="0 0 0 0 0 0 0 0 0 0 0 0 0 0 0 0 0 0 .4 0"/><feOffset dx="4.0" dy="4.0" in="blurOut2" result="blurOut3"/><feBlend in="SourceGraphic" in2="blurOut3" mode="normal"/></filter></defs><g><!--MD5=[33504725b8a69ba2207f0a836957a91c]
cluster edu.oakland.production.middleware02--><polygon fill="#FFFFFF" filter="url(#f1n44uh32bgt2x)" points="1896,49.5,2206,49.5,2213,71.7969,3180,71.7969,3180,431,1896,431,1896,49.5" style="stroke: #000000; stroke-width: 1.5;"/><line style="stroke: #000000; stroke-width: 1.5;" x1="1896" x2="2213" y1="71.7969" y2="71.7969"/><text fill="#000000" font-family="sans-serif" font-size="14" font-weight="bold" lengthAdjust="spacingAndGlyphs" textLength="304" x="1900" y="64.4951">edu.oakland.production.middleware02</text><!--MD5=[73d4e355f259fb8d2c716d693a5be920]
cluster edu.oakland.helper.middleware02--><polygon fill="#FFFFFF" filter="url(#f1n44uh32bgt2x)" points="1297,455,1572,455,1579,477.2969,1847,477.2969,1847,592,1297,592,1297,455" style="stroke: #000000; stroke-width: 1.5;"/><line style="stroke: #000000; stroke-width: 1.5;" x1="1297" x2="1579" y1="477.2969" y2="477.2969"/><text fill="#000000" font-family="sans-serif" font-size="14" font-weight="bold" lengthAdjust="spacingAndGlyphs" textLength="269" x="1301" y="469.9951">edu.oakland.helper.middleware02</text><!--MD5=[def9027c776d62015452659d5d6059fb]
cluster edu.oakland.test.middleware02--><polygon fill="#FFFFFF" filter="url(#f1n44uh32bgt2x)" points="476,58,731,58,738,80.2969,1872,80.2969,1872,412,476,412,476,58" style="stroke: #000000; stroke-width: 1.5;"/><line style="stroke: #000000; stroke-width: 1.5;" x1="476" x2="738" y1="80.2969" y2="80.2969"/><text fill="#000000" font-family="sans-serif" font-size="14" font-weight="bold" lengthAdjust="spacingAndGlyphs" textLength="249" x="480" y="72.9951">edu.oakland.test.middleware02</text><!--MD5=[c2e276049abfe145c9906edb061abd32]
cluster edu.oakland.production.database--><polygon fill="#FFFFFF" filter="url(#f1n44uh32bgt2x)" points="22,24,292,24,299,46.2969,452,46.2969,452,204,22,204,22,24" style="stroke: #000000; stroke-width: 1.5;"/><line style="stroke: #000000; stroke-width: 1.5;" x1="22" x2="299" y1="46.2969" y2="46.2969"/><text fill="#000000" font-family="sans-serif" font-size="14" font-weight="bold" lengthAdjust="spacingAndGlyphs" textLength="264" x="26" y="38.9951">edu.oakland.production.database</text><!--MD5=[d3cb230b9040bd9072bb1f490e167601]
class MiddlewareCommInterface--><rect fill="#FEFECE" filter="url(#f1n44uh32bgt2x)" height="77.6094" id="MiddlewareCommInterface" style="stroke: #A80036; stroke-width: 1.5;" width="198" x="2888" y="84.5"/><ellipse cx="2903" cy="100.5" fill="#B4A7E5" rx="11" ry="11" style="stroke: #A80036; stroke-width: 1.0;"/><path d="M2898.9219,96.2656 L2898.9219,94.1094 L2906.3125,94.1094 L2906.3125,96.2656 L2903.8438,96.2656 L2903.8438,104.3438 L2906.3125,104.3438 L2906.3125,106.5 L2898.9219,106.5 L2898.9219,104.3438 L2901.3906,104.3438 L2901.3906,96.2656 L2898.9219,96.2656 Z "/><text fill="#000000" font-family="sans-serif" font-size="12" font-style="italic" lengthAdjust="spacingAndGlyphs" textLength="166" x="2917" y="104.6543">MiddlewareCommInterface</text><line style="stroke: #A80036; stroke-width: 1.5;" x1="2889" x2="3085" y1="116.5" y2="116.5"/><line style="stroke: #A80036; stroke-width: 1.5;" x1="2889" x2="3085" y1="124.5" y2="124.5"/><ellipse cx="2899" cy="152.3047" fill="#84BE84" rx="3" ry="3" style="stroke: #038048; stroke-width: 1.0;"/><text fill="#000000" font-family="sans-serif" font-size="11" font-style="italic" lengthAdjust="spacingAndGlyphs" textLength="171" x="2908" y="155.5151">TrackData requestRfid(int rfid)</text><line style="stroke: #A80036; stroke-width: 1.0; stroke-dasharray: 1.0,2.0;" x1="2889" x2="2954" y1="138.9023" y2="138.9023"/><text fill="#000000" font-family="sans-serif" font-size="11" lengthAdjust="spacingAndGlyphs" textLength="66" x="2954" y="142.2104">Use Case 1</text><line style="stroke: #A80036; stroke-width: 1.0; stroke-dasharray: 1.0,2.0;" x1="3020" x2="3085" y1="138.9023" y2="138.9023"/><!--MD5=[d01e667c21cf622da77e8a7601ca5c91]
class MiddlewareCommLinkManager--><rect fill="#FEFECE" filter="url(#f1n44uh32bgt2x)" height="77.6094" id="MiddlewareCommLinkManager" style="stroke: #A80036; stroke-width: 1.5;" width="221" x="2328.5" y="84.5"/><ellipse cx="2343.5" cy="100.5" fill="#B4A7E5" rx="11" ry="11" style="stroke: #A80036; stroke-width: 1.0;"/><path d="M2339.4219,96.2656 L2339.4219,94.1094 L2346.8125,94.1094 L2346.8125,96.2656 L2344.3438,96.2656 L2344.3438,104.3438 L2346.8125,104.3438 L2346.8125,106.5 L2339.4219,106.5 L2339.4219,104.3438 L2341.8906,104.3438 L2341.8906,96.2656 L2339.4219,96.2656 Z "/><text fill="#000000" font-family="sans-serif" font-size="12" font-style="italic" lengthAdjust="spacingAndGlyphs" textLength="189" x="2357.5" y="104.6543">MiddlewareCommLinkManager</text><line style="stroke: #A80036; stroke-width: 1.5;" x1="2329.5" x2="2548.5" y1="116.5" y2="116.5"/><line style="stroke: #A80036; stroke-width: 1.5;" x1="2329.5" x2="2548.5" y1="124.5" y2="124.5"/><ellipse cx="2339.5" cy="152.3047" fill="#84BE84" rx="3" ry="3" style="stroke: #038048; stroke-width: 1.0;"/><text fill="#000000" font-family="sans-serif" font-size="11" font-style="italic" lengthAdjust="spacingAndGlyphs" textLength="160" x="2348.5" y="155.5151">TrackData parseRfid(int rfid)</text><line style="stroke: #A80036; stroke-width: 1.0; stroke-dasharray: 1.0,2.0;" x1="2329.5" x2="2406" y1="138.9023" y2="138.9023"/><text fill="#000000" font-family="sans-serif" font-size="11" lengthAdjust="spacingAndGlyphs" textLength="66" x="2406" y="142.2104">Use Case 1</text><line style="stroke: #A80036; stroke-width: 1.0; stroke-dasharray: 1.0,2.0;" x1="2472" x2="2548.5" y1="138.9023" y2="138.9023"/><!--MD5=[4915649770e9045e9ea9156a01fd67e8]
class MiddlewareCommDatabaseInterface--><rect fill="#FEFECE" filter="url(#f1n44uh32bgt2x)" height="77.6094" id="MiddlewareCommDatabaseInterface" style="stroke: #A80036; stroke-width: 1.5;" width="258" x="1936" y="84.5"/><ellipse cx="1951" cy="100.5" fill="#B4A7E5" rx="11" ry="11" style="stroke: #A80036; stroke-width: 1.0;"/><path d="M1946.9219,96.2656 L1946.9219,94.1094 L1954.3125,94.1094 L1954.3125,96.2656 L1951.8438,96.2656 L1951.8438,104.3438 L1954.3125,104.3438 L1954.3125,106.5 L1946.9219,106.5 L1946.9219,104.3438 L1949.3906,104.3438 L1949.3906,96.2656 L1946.9219,96.2656 Z "/><text fill="#000000" font-family="sans-serif" font-size="12" font-style="italic" lengthAdjust="spacingAndGlyphs" textLength="226" x="1965" y="104.6543">MiddlewareCommDatabaseInterface</text><line style="stroke: #A80036; stroke-width: 1.5;" x1="1937" x2="2193" y1="116.5" y2="116.5"/><line style="stroke: #A80036; stroke-width: 1.5;" x1="1937" x2="2193" y1="124.5" y2="124.5"/><ellipse cx="1947" cy="152.3047" fill="#84BE84" rx="3" ry="3" style="stroke: #038048; stroke-width: 1.0;"/><text fill="#000000" font-family="sans-serif" font-size="11" font-style="italic" lengthAdjust="spacingAndGlyphs" textLength="123" x="1956" y="155.5151">int checkCurrentRfid()</text><line style="stroke: #A80036; stroke-width: 1.0; stroke-dasharray: 1.0,2.0;" x1="1937" x2="2032" y1="138.9023" y2="138.9023"/><text fill="#000000" font-family="sans-serif" font-size="11" lengthAdjust="spacingAndGlyphs" textLength="66" x="2032" y="142.2104">Use Case 1</text><line style="stroke: #A80036; stroke-width: 1.0; stroke-dasharray: 1.0,2.0;" x1="2098" x2="2193" y1="138.9023" y2="138.9023"/><!--MD5=[0a03c366ade61429da89cc477d567a32]
class MiddlewareCommInterfaceImplementation--><rect fill="#FEFECE" filter="url(#f1n44uh32bgt2x)" height="116.0234" id="MiddlewareCommInterfaceImplementation" style="stroke: #A80036; stroke-width: 1.5;" width="353" x="2810.5" y="273.5"/><ellipse cx="2852.5" cy="289.5" fill="#ADD1B2" rx="11" ry="11" style="stroke: #A80036; stroke-width: 1.0;"/><path d="M2855.4688,295.1406 Q2854.8906,295.4375 2854.25,295.5781 Q2853.6094,295.7344 2852.9063,295.7344 Q2850.4063,295.7344 2849.0781,294.0938 Q2847.7656,292.4375 2847.7656,289.3125 Q2847.7656,286.1875 2849.0781,284.5313 Q2850.4063,282.875 2852.9063,282.875 Q2853.6094,282.875 2854.25,283.0313 Q2854.9063,283.1875 2855.4688,283.4844 L2855.4688,286.2031 Q2854.8438,285.625 2854.25,285.3594 Q2853.6563,285.0781 2853.0313,285.0781 Q2851.6875,285.0781 2851,286.1563 Q2850.3125,287.2188 2850.3125,289.3125 Q2850.3125,291.4063 2851,292.4844 Q2851.6875,293.5469 2853.0313,293.5469 Q2853.6563,293.5469 2854.25,293.2813 Q2854.8438,293 2855.4688,292.4219 L2855.4688,295.1406 Z "/><text fill="#000000" font-family="sans-serif" font-size="12" lengthAdjust="spacingAndGlyphs" textLength="261" x="2872.5" y="293.6543">MiddlewareCommInterfaceImplementation</text><line style="stroke: #A80036; stroke-width: 1.5;" x1="2811.5" x2="3162.5" y1="305.5" y2="305.5"/><rect fill="none" height="6" style="stroke: #C82930; stroke-width: 1.0;" width="6" x="2818.5" y="313.5"/><text fill="#000000" font-family="sans-serif" font-size="11" lengthAdjust="spacingAndGlyphs" textLength="291" x="2830.5" y="319.7104">MiddlewareCommLinkManager middlewareManager</text><line style="stroke: #A80036; stroke-width: 1.5;" x1="2811.5" x2="3162.5" y1="326.3047" y2="326.3047"/><ellipse cx="2821.5" cy="337.3047" fill="#84BE84" rx="3" ry="3" style="stroke: #038048; stroke-width: 1.0;"/><text fill="#000000" font-family="sans-serif" font-size="11" lengthAdjust="spacingAndGlyphs" textLength="243" x="2830.5" y="340.5151">MiddlewareCommInterfaceImplementation(</text><text fill="#000000" font-family="sans-serif" font-size="11" lengthAdjust="spacingAndGlyphs" textLength="295" x="2862.5" y="353.3198">MiddlewareCommLinkManager middlewareManager)</text><ellipse cx="2821.5" cy="379.7188" fill="#84BE84" rx="3" ry="3" style="stroke: #038048; stroke-width: 1.0;"/><text fill="#000000" font-family="sans-serif" font-size="11" lengthAdjust="spacingAndGlyphs" textLength="171" x="2830.5" y="382.9292">TrackData requestRfid(int rfid)</text><line style="stroke: #A80036; stroke-width: 1.0; stroke-dasharray: 1.0,2.0;" x1="2811.5" x2="2954" y1="366.3164" y2="366.3164"/><text fill="#000000" font-family="sans-serif" font-size="11" lengthAdjust="spacingAndGlyphs" textLength="66" x="2954" y="369.6245">Use Case 1</text><line style="stroke: #A80036; stroke-width: 1.0; stroke-dasharray: 1.0,2.0;" x1="3020" x2="3162.5" y1="366.3164" y2="366.3164"/><!--MD5=[d9ed64ee38938b46697008700ce69fba]
class MiddlewareCommLinkManagerImplementation--><rect fill="#FEFECE" filter="url(#f1n44uh32bgt2x)" height="167.2422" id="MiddlewareCommLinkManagerImplementation" style="stroke: #A80036; stroke-width: 1.5;" width="474" x="2301" y="248"/><ellipse cx="2391.75" cy="264" fill="#ADD1B2" rx="11" ry="11" style="stroke: #A80036; stroke-width: 1.0;"/><path d="M2394.7188,269.6406 Q2394.1406,269.9375 2393.5,270.0781 Q2392.8594,270.2344 2392.1563,270.2344 Q2389.6563,270.2344 2388.3281,268.5938 Q2387.0156,266.9375 2387.0156,263.8125 Q2387.0156,260.6875 2388.3281,259.0313 Q2389.6563,257.375 2392.1563,257.375 Q2392.8594,257.375 2393.5,257.5313 Q2394.1563,257.6875 2394.7188,257.9844 L2394.7188,260.7031 Q2394.0938,260.125 2393.5,259.8594 Q2392.9063,259.5781 2392.2813,259.5781 Q2390.9375,259.5781 2390.25,260.6563 Q2389.5625,261.7188 2389.5625,263.8125 Q2389.5625,265.9063 2390.25,266.9844 Q2390.9375,268.0469 2392.2813,268.0469 Q2392.9063,268.0469 2393.5,267.7813 Q2394.0938,267.5 2394.7188,266.9219 L2394.7188,269.6406 Z "/><text fill="#000000" font-family="sans-serif" font-size="12" lengthAdjust="spacingAndGlyphs" textLength="284" x="2412.25" y="268.1543">MiddlewareCommLinkManagerImplementation</text><line style="stroke: #A80036; stroke-width: 1.5;" x1="2302" x2="2774" y1="280" y2="280"/><rect fill="none" height="6" style="stroke: #C82930; stroke-width: 1.0;" width="6" x="2309" y="288"/><text fill="#000000" font-family="sans-serif" font-size="11" lengthAdjust="spacingAndGlyphs" textLength="416" x="2321" y="294.2104">MiddlewareCommDatabaseInterface middlewareCommDatabaseInterface</text><rect fill="none" height="6" style="stroke: #C82930; stroke-width: 1.0;" width="6" x="2309" y="300.8047"/><text fill="#000000" font-family="sans-serif" font-size="11" lengthAdjust="spacingAndGlyphs" textLength="270" x="2321" y="307.0151">MiddlewareGisManager middlewareGisManager</text><line style="stroke: #A80036; stroke-width: 1.5;" x1="2302" x2="2774" y1="313.6094" y2="313.6094"/><ellipse cx="2312" cy="324.6094" fill="#84BE84" rx="3" ry="3" style="stroke: #038048; stroke-width: 1.0;"/><text fill="#000000" font-family="sans-serif" font-size="11" lengthAdjust="spacingAndGlyphs" textLength="264" x="2321" y="327.8198">MiddlewareCommLinkManagerImplementation(</text><text fill="#000000" font-family="sans-serif" font-size="11" lengthAdjust="spacingAndGlyphs" textLength="416" x="2353" y="340.6245">MiddlewareCommDatabaseInterface middlewareCommDatabaseInterface</text><text fill="#000000" font-family="sans-serif" font-size="11" lengthAdjust="spacingAndGlyphs" textLength="274" x="2353" y="353.4292">MiddlewareGisManager middlewareGisManager)</text><ellipse cx="2312" cy="379.8281" fill="#84BE84" rx="3" ry="3" style="stroke: #038048; stroke-width: 1.0;"/><text fill="#000000" font-family="sans-serif" font-size="11" lengthAdjust="spacingAndGlyphs" textLength="160" x="2321" y="383.0386">TrackData parseRfid(int rfid)</text><rect fill="#F24D5C" height="6" style="stroke: #C82930; stroke-width: 1.0;" width="6" x="2309" y="389.6328"/><text fill="#000000" font-family="sans-serif" font-size="11" lengthAdjust="spacingAndGlyphs" textLength="188" x="2321" y="395.8433">float calculateLocationDataPoint()</text><rect fill="#F24D5C" height="6" style="stroke: #C82930; stroke-width: 1.0;" width="6" x="2309" y="402.4375"/><text fill="#000000" font-family="sans-serif" font-size="11" lengthAdjust="spacingAndGlyphs" textLength="144" x="2321" y="408.6479">float calculateTrackData()</text><line style="stroke: #A80036; stroke-width: 1.0; stroke-dasharray: 1.0,2.0;" x1="2302" x2="2505" y1="366.4258" y2="366.4258"/><text fill="#000000" font-family="sans-serif" font-size="11" lengthAdjust="spacingAndGlyphs" textLength="66" x="2505" y="369.7339">Use Case 1</text><line style="stroke: #A80036; stroke-width: 1.0; stroke-dasharray: 1.0,2.0;" x1="2571" x2="2774" y1="366.4258" y2="366.4258"/><!--MD5=[1c4f9654f103878faf4a10c0361188b9]
class MiddlewareCommDatabaseInterfaceImplementation--><rect fill="#FEFECE" filter="url(#f1n44uh32bgt2x)" height="116.0234" id="MiddlewareCommDatabaseInterfaceImplementation" style="stroke: #A80036; stroke-width: 1.5;" width="354" x="1912" y="273.5"/><ellipse cx="1927" cy="289.5" fill="#ADD1B2" rx="11" ry="11" style="stroke: #A80036; stroke-width: 1.0;"/><path d="M1929.9688,295.1406 Q1929.3906,295.4375 1928.75,295.5781 Q1928.1094,295.7344 1927.4063,295.7344 Q1924.9063,295.7344 1923.5781,294.0938 Q1922.2656,292.4375 1922.2656,289.3125 Q1922.2656,286.1875 1923.5781,284.5313 Q1924.9063,282.875 1927.4063,282.875 Q1928.1094,282.875 1928.75,283.0313 Q1929.4063,283.1875 1929.9688,283.4844 L1929.9688,286.2031 Q1929.3438,285.625 1928.75,285.3594 Q1928.1563,285.0781 1927.5313,285.0781 Q1926.1875,285.0781 1925.5,286.1563 Q1924.8125,287.2188 1924.8125,289.3125 Q1924.8125,291.4063 1925.5,292.4844 Q1926.1875,293.5469 1927.5313,293.5469 Q1928.1563,293.5469 1928.75,293.2813 Q1929.3438,293 1929.9688,292.4219 L1929.9688,295.1406 Z "/><text fill="#000000" font-family="sans-serif" font-size="12" lengthAdjust="spacingAndGlyphs" textLength="322" x="1941" y="293.6543">MiddlewareCommDatabaseInterfaceImplementation</text><line style="stroke: #A80036; stroke-width: 1.5;" x1="1913" x2="2265" y1="305.5" y2="305.5"/><ellipse cx="1923" cy="316.5" fill="none" rx="3" ry="3" style="stroke: #038048; stroke-width: 1.0;"/><text fill="#000000" font-family="sans-serif" font-size="11" lengthAdjust="spacingAndGlyphs" textLength="285" x="1932" y="319.7104">DatabaseCommInterface databaseCommInterface</text><line style="stroke: #A80036; stroke-width: 1.5;" x1="1913" x2="2265" y1="326.3047" y2="326.3047"/><ellipse cx="1923" cy="337.3047" fill="#84BE84" rx="3" ry="3" style="stroke: #038048; stroke-width: 1.0;"/><text fill="#000000" font-family="sans-serif" font-size="11" lengthAdjust="spacingAndGlyphs" textLength="297" x="1932" y="340.5151">MiddlewareCommDatabaseInterfaceImplementation(</text><text fill="#000000" font-family="sans-serif" font-size="11" lengthAdjust="spacingAndGlyphs" textLength="289" x="1964" y="353.3198">DatabaseCommInterface databaseCommInterface)</text><ellipse cx="1923" cy="379.7188" fill="#84BE84" rx="3" ry="3" style="stroke: #038048; stroke-width: 1.0;"/><text fill="#000000" font-family="sans-serif" font-size="11" lengthAdjust="spacingAndGlyphs" textLength="122" x="1932" y="382.9292">int checkCurrentRfid()</text><line style="stroke: #A80036; stroke-width: 1.0; stroke-dasharray: 1.0,2.0;" x1="1913" x2="2056" y1="366.3164" y2="366.3164"/><text fill="#000000" font-family="sans-serif" font-size="11" lengthAdjust="spacingAndGlyphs" textLength="66" x="2056" y="369.6245">Use Case 1</text><line style="stroke: #A80036; stroke-width: 1.0; stroke-dasharray: 1.0,2.0;" x1="2122" x2="2265" y1="366.3164" y2="366.3164"/><!--MD5=[8d86b1aa2030a05d452f78e2e1fb37ed]
class TrackDataCalculator--><rect fill="#FEFECE" filter="url(#f1n44uh32bgt2x)" height="86.4141" id="TrackDataCalculator" style="stroke: #A80036; stroke-width: 1.5;" width="518" x="1313" y="490"/><ellipse cx="1504.25" cy="506" fill="#ADD1B2" rx="11" ry="11" style="stroke: #A80036; stroke-width: 1.0;"/><path d="M1507.2188,511.6406 Q1506.6406,511.9375 1506,512.0781 Q1505.3594,512.2344 1504.6563,512.2344 Q1502.1563,512.2344 1500.8281,510.5938 Q1499.5156,508.9375 1499.5156,505.8125 Q1499.5156,502.6875 1500.8281,501.0313 Q1502.1563,499.375 1504.6563,499.375 Q1505.3594,499.375 1506,499.5313 Q1506.6563,499.6875 1507.2188,499.9844 L1507.2188,502.7031 Q1506.5938,502.125 1506,501.8594 Q1505.4063,501.5781 1504.7813,501.5781 Q1503.4375,501.5781 1502.75,502.6563 Q1502.0625,503.7188 1502.0625,505.8125 Q1502.0625,507.9063 1502.75,508.9844 Q1503.4375,510.0469 1504.7813,510.0469 Q1505.4063,510.0469 1506,509.7813 Q1506.5938,509.5 1507.2188,508.9219 L1507.2188,511.6406 Z "/><text fill="#000000" font-family="sans-serif" font-size="12" lengthAdjust="spacingAndGlyphs" textLength="127" x="1524.75" y="510.1543">TrackDataCalculator</text><line style="stroke: #A80036; stroke-width: 1.5;" x1="1314" x2="1830" y1="522" y2="522"/><line style="stroke: #A80036; stroke-width: 1.5;" x1="1314" x2="1830" y1="530" y2="530"/><ellipse cx="1324" cy="541" fill="#84BE84" rx="3" ry="3" style="stroke: #038048; stroke-width: 1.0;"/><text fill="#000000" font-family="sans-serif" font-size="11" lengthAdjust="spacingAndGlyphs" text-decoration="underline" textLength="341" x="1333" y="544.2104">float calculateSpeed(LocationDataPoint[] locationDataPoints)</text><ellipse cx="1324" cy="553.8047" fill="#84BE84" rx="3" ry="3" style="stroke: #038048; stroke-width: 1.0;"/><text fill="#000000" font-family="sans-serif" font-size="11" lengthAdjust="spacingAndGlyphs" text-decoration="underline" textLength="355" x="1333" y="557.0151">float calculateDirection(LocationDataPoint[] locationDataPoints)</text><rect fill="#F24D5C" height="6" style="stroke: #C82930; stroke-width: 1.0;" width="6" x="1321" y="563.6094"/><text fill="#000000" font-family="sans-serif" font-size="11" lengthAdjust="spacingAndGlyphs" text-decoration="underline" textLength="492" x="1333" y="569.8198">LocationDataPoint[] calculateRootMeanSquared(LocationDataPoint[] locationDataPoints)</text><!--MD5=[00b94da1af6b7f5503baa4bfd88b42e0]
class MiddlewareCommInterfaceImplementationTests--><rect fill="#FEFECE" filter="url(#f1n44uh32bgt2x)" height="60.8047" id="MiddlewareCommInterfaceImplementationTests" style="stroke: #A80036; stroke-width: 1.5;" width="327" x="1529.5" y="93"/><ellipse cx="1544.5" cy="109" fill="#ADD1B2" rx="11" ry="11" style="stroke: #A80036; stroke-width: 1.0;"/><path d="M1547.4688,114.6406 Q1546.8906,114.9375 1546.25,115.0781 Q1545.6094,115.2344 1544.9063,115.2344 Q1542.4063,115.2344 1541.0781,113.5938 Q1539.7656,111.9375 1539.7656,108.8125 Q1539.7656,105.6875 1541.0781,104.0313 Q1542.4063,102.375 1544.9063,102.375 Q1545.6094,102.375 1546.25,102.5313 Q1546.9063,102.6875 1547.4688,102.9844 L1547.4688,105.7031 Q1546.8438,105.125 1546.25,104.8594 Q1545.6563,104.5781 1545.0313,104.5781 Q1543.6875,104.5781 1543,105.6563 Q1542.3125,106.7188 1542.3125,108.8125 Q1542.3125,110.9063 1543,111.9844 Q1543.6875,113.0469 1545.0313,113.0469 Q1545.6563,113.0469 1546.25,112.7813 Q1546.8438,112.5 1547.4688,111.9219 L1547.4688,114.6406 Z "/><text fill="#000000" font-family="sans-serif" font-size="12" lengthAdjust="spacingAndGlyphs" textLength="295" x="1558.5" y="113.1543">MiddlewareCommInterfaceImplementationTests</text><line style="stroke: #A80036; stroke-width: 1.5;" x1="1530.5" x2="1855.5" y1="125" y2="125"/><line style="stroke: #A80036; stroke-width: 1.5;" x1="1530.5" x2="1855.5" y1="133" y2="133"/><ellipse cx="1540.5" cy="144" fill="#84BE84" rx="3" ry="3" style="stroke: #038048; stroke-width: 1.0;"/><text fill="#000000" font-family="sans-serif" font-size="11" lengthAdjust="spacingAndGlyphs" textLength="117" x="1549.5" y="147.2104">void RfidInIsRfidOut()</text><!--MD5=[3bea4f8dbcd5725ad50d10553f2379e2]
class MiddlewareCommLinkManagerStub--><rect fill="#FEFECE" filter="url(#f1n44uh32bgt2x)" height="77.6094" id="MiddlewareCommLinkManagerStub" style="stroke: #A80036; stroke-width: 1.5;" width="248" x="1588" y="292.5"/><ellipse cx="1603" cy="308.5" fill="#ADD1B2" rx="11" ry="11" style="stroke: #A80036; stroke-width: 1.0;"/><path d="M1605.9688,314.1406 Q1605.3906,314.4375 1604.75,314.5781 Q1604.1094,314.7344 1603.4063,314.7344 Q1600.9063,314.7344 1599.5781,313.0938 Q1598.2656,311.4375 1598.2656,308.3125 Q1598.2656,305.1875 1599.5781,303.5313 Q1600.9063,301.875 1603.4063,301.875 Q1604.1094,301.875 1604.75,302.0313 Q1605.4063,302.1875 1605.9688,302.4844 L1605.9688,305.2031 Q1605.3438,304.625 1604.75,304.3594 Q1604.1563,304.0781 1603.5313,304.0781 Q1602.1875,304.0781 1601.5,305.1563 Q1600.8125,306.2188 1600.8125,308.3125 Q1600.8125,310.4063 1601.5,311.4844 Q1602.1875,312.5469 1603.5313,312.5469 Q1604.1563,312.5469 1604.75,312.2813 Q1605.3438,312 1605.9688,311.4219 L1605.9688,314.1406 Z "/><text fill="#000000" font-family="sans-serif" font-size="12" lengthAdjust="spacingAndGlyphs" textLength="216" x="1617" y="312.6543">MiddlewareCommLinkManagerStub</text><line style="stroke: #A80036; stroke-width: 1.5;" x1="1589" x2="1835" y1="324.5" y2="324.5"/><line style="stroke: #A80036; stroke-width: 1.5;" x1="1589" x2="1835" y1="332.5" y2="332.5"/><ellipse cx="1599" cy="360.3047" fill="#84BE84" rx="3" ry="3" style="stroke: #038048; stroke-width: 1.0;"/><text fill="#000000" font-family="sans-serif" font-size="11" lengthAdjust="spacingAndGlyphs" textLength="160" x="1608" y="363.5151">TrackData parseRfid(int rfid)</text><line style="stroke: #A80036; stroke-width: 1.0; stroke-dasharray: 1.0,2.0;" x1="1589" x2="1679" y1="346.9023" y2="346.9023"/><text fill="#000000" font-family="sans-serif" font-size="11" lengthAdjust="spacingAndGlyphs" textLength="66" x="1679" y="350.2104">Use Case 1</text><line style="stroke: #A80036; stroke-width: 1.0; stroke-dasharray: 1.0,2.0;" x1="1745" x2="1835" y1="346.9023" y2="346.9023"/><!--MD5=[de2e25996fbf99af10f04f2aae2d0ec2]
class MiddlewareCommLinkManagerImplementationTests--><rect fill="#FEFECE" filter="url(#f1n44uh32bgt2x)" height="48" id="MiddlewareCommLinkManagerImplementationTests" style="stroke: #A80036; stroke-width: 1.5;" width="350" x="1144" y="99.5"/><ellipse cx="1159" cy="115.5" fill="#ADD1B2" rx="11" ry="11" style="stroke: #A80036; stroke-width: 1.0;"/><path d="M1161.9688,121.1406 Q1161.3906,121.4375 1160.75,121.5781 Q1160.1094,121.7344 1159.4063,121.7344 Q1156.9063,121.7344 1155.5781,120.0938 Q1154.2656,118.4375 1154.2656,115.3125 Q1154.2656,112.1875 1155.5781,110.5313 Q1156.9063,108.875 1159.4063,108.875 Q1160.1094,108.875 1160.75,109.0313 Q1161.4063,109.1875 1161.9688,109.4844 L1161.9688,112.2031 Q1161.3438,111.625 1160.75,111.3594 Q1160.1563,111.0781 1159.5313,111.0781 Q1158.1875,111.0781 1157.5,112.1563 Q1156.8125,113.2188 1156.8125,115.3125 Q1156.8125,117.4063 1157.5,118.4844 Q1158.1875,119.5469 1159.5313,119.5469 Q1160.1563,119.5469 1160.75,119.2813 Q1161.3438,119 1161.9688,118.4219 L1161.9688,121.1406 Z "/><text fill="#000000" font-family="sans-serif" font-size="12" lengthAdjust="spacingAndGlyphs" textLength="318" x="1173" y="119.6543">MiddlewareCommLinkManagerImplementationTests</text><line style="stroke: #A80036; stroke-width: 1.5;" x1="1145" x2="1493" y1="131.5" y2="131.5"/><line style="stroke: #A80036; stroke-width: 1.5;" x1="1145" x2="1493" y1="139.5" y2="139.5"/><!--MD5=[d266ff1a021c6b2abe780212ea4bc90b]
class MiddlewareCommDatabaseInterfaceStub--><rect fill="#FEFECE" filter="url(#f1n44uh32bgt2x)" height="77.6094" id="MiddlewareCommDatabaseInterfaceStub" style="stroke: #A80036; stroke-width: 1.5;" width="286" x="1221" y="292.5"/><ellipse cx="1236" cy="308.5" fill="#ADD1B2" rx="11" ry="11" style="stroke: #A80036; stroke-width: 1.0;"/><path d="M1238.9688,314.1406 Q1238.3906,314.4375 1237.75,314.5781 Q1237.1094,314.7344 1236.4063,314.7344 Q1233.9063,314.7344 1232.5781,313.0938 Q1231.2656,311.4375 1231.2656,308.3125 Q1231.2656,305.1875 1232.5781,303.5313 Q1233.9063,301.875 1236.4063,301.875 Q1237.1094,301.875 1237.75,302.0313 Q1238.4063,302.1875 1238.9688,302.4844 L1238.9688,305.2031 Q1238.3438,304.625 1237.75,304.3594 Q1237.1563,304.0781 1236.5313,304.0781 Q1235.1875,304.0781 1234.5,305.1563 Q1233.8125,306.2188 1233.8125,308.3125 Q1233.8125,310.4063 1234.5,311.4844 Q1235.1875,312.5469 1236.5313,312.5469 Q1237.1563,312.5469 1237.75,312.2813 Q1238.3438,312 1238.9688,311.4219 L1238.9688,314.1406 Z "/><text fill="#000000" font-family="sans-serif" font-size="12" lengthAdjust="spacingAndGlyphs" textLength="254" x="1250" y="312.6543">MiddlewareCommDatabaseInterfaceStub</text><line style="stroke: #A80036; stroke-width: 1.5;" x1="1222" x2="1506" y1="324.5" y2="324.5"/><line style="stroke: #A80036; stroke-width: 1.5;" x1="1222" x2="1506" y1="332.5" y2="332.5"/><ellipse cx="1232" cy="360.3047" fill="#84BE84" rx="3" ry="3" style="stroke: #038048; stroke-width: 1.0;"/><text fill="#000000" font-family="sans-serif" font-size="11" lengthAdjust="spacingAndGlyphs" textLength="122" x="1241" y="363.5151">int checkCurrentRfid()</text><line style="stroke: #A80036; stroke-width: 1.0; stroke-dasharray: 1.0,2.0;" x1="1222" x2="1331" y1="346.9023" y2="346.9023"/><text fill="#000000" font-family="sans-serif" font-size="11" lengthAdjust="spacingAndGlyphs" textLength="66" x="1331" y="350.2104">Use Case 1</text><line style="stroke: #A80036; stroke-width: 1.0; stroke-dasharray: 1.0,2.0;" x1="1397" x2="1506" y1="346.9023" y2="346.9023"/><!--MD5=[002ff5c7151dea29dff01f25b38dca5f]
class MiddlewareCommDatabaseInterfaceImplementationTests--><rect fill="#FEFECE" filter="url(#f1n44uh32bgt2x)" height="48" id="MiddlewareCommDatabaseInterfaceImplementationTests" style="stroke: #A80036; stroke-width: 1.5;" width="388" x="721" y="99.5"/><ellipse cx="736" cy="115.5" fill="#ADD1B2" rx="11" ry="11" style="stroke: #A80036; stroke-width: 1.0;"/><path d="M738.9688,121.1406 Q738.3906,121.4375 737.75,121.5781 Q737.1094,121.7344 736.4063,121.7344 Q733.9063,121.7344 732.5781,120.0938 Q731.2656,118.4375 731.2656,115.3125 Q731.2656,112.1875 732.5781,110.5313 Q733.9063,108.875 736.4063,108.875 Q737.1094,108.875 737.75,109.0313 Q738.4063,109.1875 738.9688,109.4844 L738.9688,112.2031 Q738.3438,111.625 737.75,111.3594 Q737.1563,111.0781 736.5313,111.0781 Q735.1875,111.0781 734.5,112.1563 Q733.8125,113.2188 733.8125,115.3125 Q733.8125,117.4063 734.5,118.4844 Q735.1875,119.5469 736.5313,119.5469 Q737.1563,119.5469 737.75,119.2813 Q738.3438,119 738.9688,118.4219 L738.9688,121.1406 Z "/><text fill="#000000" font-family="sans-serif" font-size="12" lengthAdjust="spacingAndGlyphs" textLength="356" x="750" y="119.6543">MiddlewareCommDatabaseInterfaceImplementationTests</text><line style="stroke: #A80036; stroke-width: 1.5;" x1="722" x2="1108" y1="131.5" y2="131.5"/><line style="stroke: #A80036; stroke-width: 1.5;" x1="722" x2="1108" y1="139.5" y2="139.5"/><!--MD5=[e3f4175480349659b88084d56af4bbf1]
class DatabaseCommInterfaceStub--><rect fill="#FEFECE" filter="url(#f1n44uh32bgt2x)" height="128.8281" id="DatabaseCommInterfaceStub" style="stroke: #A80036; stroke-width: 1.5;" width="398" x="679" y="267"/><ellipse cx="781.75" cy="283" fill="#ADD1B2" rx="11" ry="11" style="stroke: #A80036; stroke-width: 1.0;"/><path d="M784.7188,288.6406 Q784.1406,288.9375 783.5,289.0781 Q782.8594,289.2344 782.1563,289.2344 Q779.6563,289.2344 778.3281,287.5938 Q777.0156,285.9375 777.0156,282.8125 Q777.0156,279.6875 778.3281,278.0313 Q779.6563,276.375 782.1563,276.375 Q782.8594,276.375 783.5,276.5313 Q784.1563,276.6875 784.7188,276.9844 L784.7188,279.7031 Q784.0938,279.125 783.5,278.8594 Q782.9063,278.5781 782.2813,278.5781 Q780.9375,278.5781 780.25,279.6563 Q779.5625,280.7188 779.5625,282.8125 Q779.5625,284.9063 780.25,285.9844 Q780.9375,287.0469 782.2813,287.0469 Q782.9063,287.0469 783.5,286.7813 Q784.0938,286.5 784.7188,285.9219 L784.7188,288.6406 Z "/><text fill="#000000" font-family="sans-serif" font-size="12" lengthAdjust="spacingAndGlyphs" textLength="184" x="802.25" y="287.1543">DatabaseCommInterfaceStub</text><line style="stroke: #A80036; stroke-width: 1.5;" x1="680" x2="1076" y1="299" y2="299"/><line style="stroke: #A80036; stroke-width: 1.5;" x1="680" x2="1076" y1="307" y2="307"/><ellipse cx="690" cy="334.8047" fill="#84BE84" rx="3" ry="3" style="stroke: #038048; stroke-width: 1.0;"/><text fill="#000000" font-family="sans-serif" font-size="11" font-style="italic" lengthAdjust="spacingAndGlyphs" textLength="156" x="699" y="338.0151">int receiveGetRfidRequest()</text><ellipse cx="690" cy="347.6094" fill="#84BE84" rx="3" ry="3" style="stroke: #038048; stroke-width: 1.0;"/><text fill="#000000" font-family="sans-serif" font-size="11" font-style="italic" lengthAdjust="spacingAndGlyphs" textLength="372" x="699" y="350.8198">LocationDataPoint receiveGetLocationDataPointRequest(int offset)</text><ellipse cx="690" cy="360.4141" fill="#84BE84" rx="3" ry="3" style="stroke: #038048; stroke-width: 1.0;"/><text fill="#000000" font-family="sans-serif" font-size="11" font-style="italic" lengthAdjust="spacingAndGlyphs" textLength="284" x="699" y="363.6245">TrackData receiveGetTrackDataRequest(int offset)</text><ellipse cx="690" cy="373.2188" fill="#84BE84" rx="3" ry="3" style="stroke: #038048; stroke-width: 1.0;"/><text fill="#000000" font-family="sans-serif" font-size="11" font-style="italic" lengthAdjust="spacingAndGlyphs" textLength="283" x="699" y="376.4292">void storeTrackDataRequest(TrackData trackData)</text><ellipse cx="690" cy="386.0234" fill="#84BE84" rx="3" ry="3" style="stroke: #038048; stroke-width: 1.0;"/><text fill="#000000" font-family="sans-serif" font-size="11" font-style="italic" lengthAdjust="spacingAndGlyphs" textLength="183" x="699" y="389.2339">String receiveGetModeRequest()</text><line style="stroke: #A80036; stroke-width: 1.0; stroke-dasharray: 1.0,2.0;" x1="680" x2="845" y1="321.4023" y2="321.4023"/><text fill="#000000" font-family="sans-serif" font-size="11" lengthAdjust="spacingAndGlyphs" textLength="66" x="845" y="324.7104">Use Case 1</text><line style="stroke: #A80036; stroke-width: 1.0; stroke-dasharray: 1.0,2.0;" x1="911" x2="1076" y1="321.4023" y2="321.4023"/><!--MD5=[4d30ae449f97cbb7dd3c9db2a55e1ec0]
class TrackDataCalculatorTests--><rect fill="#FEFECE" filter="url(#f1n44uh32bgt2x)" height="48" id="TrackDataCalculatorTests" style="stroke: #A80036; stroke-width: 1.5;" width="193" x="492.5" y="99.5"/><ellipse cx="507.5" cy="115.5" fill="#ADD1B2" rx="11" ry="11" style="stroke: #A80036; stroke-width: 1.0;"/><path d="M510.4688,121.1406 Q509.8906,121.4375 509.25,121.5781 Q508.6094,121.7344 507.9063,121.7344 Q505.4063,121.7344 504.0781,120.0938 Q502.7656,118.4375 502.7656,115.3125 Q502.7656,112.1875 504.0781,110.5313 Q505.4063,108.875 507.9063,108.875 Q508.6094,108.875 509.25,109.0313 Q509.9063,109.1875 510.4688,109.4844 L510.4688,112.2031 Q509.8438,111.625 509.25,111.3594 Q508.6563,111.0781 508.0313,111.0781 Q506.6875,111.0781 506,112.1563 Q505.3125,113.2188 505.3125,115.3125 Q505.3125,117.4063 506,118.4844 Q506.6875,119.5469 508.0313,119.5469 Q508.6563,119.5469 509.25,119.2813 Q509.8438,119 510.4688,118.4219 L510.4688,121.1406 Z "/><text fill="#000000" font-family="sans-serif" font-size="12" lengthAdjust="spacingAndGlyphs" textLength="161" x="521.5" y="119.6543">TrackDataCalculatorTests</text><line style="stroke: #A80036; stroke-width: 1.5;" x1="493.5" x2="684.5" y1="131.5" y2="131.5"/><line style="stroke: #A80036; stroke-width: 1.5;" x1="493.5" x2="684.5" y1="139.5" y2="139.5"/><!--MD5=[6d34700a22f737f940b471daa4ac1202]
class DatabaseCommInterface--><rect fill="#FEFECE" filter="url(#f1n44uh32bgt2x)" height="128.8281" id="DatabaseCommInterface" style="stroke: #A80036; stroke-width: 1.5;" width="398" x="38" y="59"/><ellipse cx="155.25" cy="75" fill="#B4A7E5" rx="11" ry="11" style="stroke: #A80036; stroke-width: 1.0;"/><path d="M151.1719,70.7656 L151.1719,68.6094 L158.5625,68.6094 L158.5625,70.7656 L156.0938,70.7656 L156.0938,78.8438 L158.5625,78.8438 L158.5625,81 L151.1719,81 L151.1719,78.8438 L153.6406,78.8438 L153.6406,70.7656 L151.1719,70.7656 Z "/><text fill="#000000" font-family="sans-serif" font-size="12" font-style="italic" lengthAdjust="spacingAndGlyphs" textLength="155" x="175.75" y="79.1543">DatabaseCommInterface</text><line style="stroke: #A80036; stroke-width: 1.5;" x1="39" x2="435" y1="91" y2="91"/><line style="stroke: #A80036; stroke-width: 1.5;" x1="39" x2="435" y1="99" y2="99"/><ellipse cx="49" cy="126.8047" fill="#84BE84" rx="3" ry="3" style="stroke: #038048; stroke-width: 1.0;"/><text fill="#000000" font-family="sans-serif" font-size="11" font-style="italic" lengthAdjust="spacingAndGlyphs" textLength="156" x="58" y="130.0151">int receiveGetRfidRequest()</text><ellipse cx="49" cy="139.6094" fill="#84BE84" rx="3" ry="3" style="stroke: #038048; stroke-width: 1.0;"/><text fill="#000000" font-family="sans-serif" font-size="11" font-style="italic" lengthAdjust="spacingAndGlyphs" textLength="372" x="58" y="142.8198">LocationDataPoint receiveGetLocationDataPointRequest(int offset)</text><ellipse cx="49" cy="152.4141" fill="#84BE84" rx="3" ry="3" style="stroke: #038048; stroke-width: 1.0;"/><text fill="#000000" font-family="sans-serif" font-size="11" font-style="italic" lengthAdjust="spacingAndGlyphs" textLength="284" x="58" y="155.6245">TrackData receiveGetTrackDataRequest(int offset)</text><ellipse cx="49" cy="165.2188" fill="#84BE84" rx="3" ry="3" style="stroke: #038048; stroke-width: 1.0;"/><text fill="#000000" font-family="sans-serif" font-size="11" font-style="italic" lengthAdjust="spacingAndGlyphs" textLength="283" x="58" y="168.4292">void storeTrackDataRequest(TrackData trackData)</text><ellipse cx="49" cy="178.0234" fill="#84BE84" rx="3" ry="3" style="stroke: #038048; stroke-width: 1.0;"/><text fill="#000000" font-family="sans-serif" font-size="11" font-style="italic" lengthAdjust="spacingAndGlyphs" textLength="183" x="58" y="181.2339">String receiveGetModeRequest()</text><line style="stroke: #A80036; stroke-width: 1.0; stroke-dasharray: 1.0,2.0;" x1="39" x2="204" y1="113.4023" y2="113.4023"/><text fill="#000000" font-family="sans-serif" font-size="11" lengthAdjust="spacingAndGlyphs" textLength="66" x="204" y="116.7104">Use Case 1</text><line style="stroke: #A80036; stroke-width: 1.0; stroke-dasharray: 1.0,2.0;" x1="270" x2="435" y1="113.4023" y2="113.4023"/><!--MD5=[a6f6d6498f8ad0fd1149c5a16bc55d36]
reverse link MiddlewareCommInterface to MiddlewareCommInterfaceImplementation--><path d="M2987,183.14 C2987,211.45 2987,245.27 2987,273.38 " fill="none" id="MiddlewareCommInterface&lt;-MiddlewareCommInterfaceImplementation" style="stroke: #A80036; stroke-width: 1.0; stroke-dasharray: 7.0,7.0;"/><polygon fill="none" points="2980,182.76,2987,162.76,2994,182.76,2980,182.76" style="stroke: #A80036; stroke-width: 1.0;"/><!--MD5=[497c69cbff9542047faf5ca77780c8cb]
reverse link MiddlewareCommLinkManager to MiddlewareCommLinkManagerImplementation--><path d="M2466.16,181.01 C2476.04,201.57 2487.42,225.26 2498.17,247.63 " fill="none" id="MiddlewareCommLinkManager&lt;-MiddlewareCommLinkManagerImplementation" style="stroke: #A80036; stroke-width: 1.0; stroke-dasharray: 7.0,7.0;"/><polygon fill="none" points="2459.74,183.82,2457.39,162.76,2472.36,177.76,2459.74,183.82" style="stroke: #A80036; stroke-width: 1.0;"/><!--MD5=[07eefeefbddab6e40f3001aaadb4b811]
link MiddlewareCommLinkManagerImplementation to TrackDataCalculator--><path d="M2357.61,415.01 C2333.22,424.13 2308.24,432.46 2284,439 C2138.58,478.22 1971.83,501.14 1836.28,514.4 " fill="none" id="MiddlewareCommLinkManagerImplementation-&gt;TrackDataCalculator" style="stroke: #A80036; stroke-width: 1.0; stroke-dasharray: 7.0,7.0;"/><polygon fill="#A80036" points="1831.06,514.91,1840.4054,518.0185,1836.0364,514.4252,1839.6297,510.0562,1831.06,514.91" style="stroke: #A80036; stroke-width: 1.0;"/><!--MD5=[8e69def7a54ed81078168d5d1d8487c9]
reverse link MiddlewareCommDatabaseInterface to MiddlewareCommDatabaseInterfaceImplementation--><path d="M2071.78,182.73 C2075.09,211.12 2079.05,245.14 2082.34,273.38 " fill="none" id="MiddlewareCommDatabaseInterface&lt;-MiddlewareCommDatabaseInterfaceImplementation" style="stroke: #A80036; stroke-width: 1.0; stroke-dasharray: 7.0,7.0;"/><polygon fill="none" points="2064.82,183.44,2069.46,162.76,2078.73,181.82,2064.82,183.44" style="stroke: #A80036; stroke-width: 1.0;"/><!--MD5=[a1cf72e0ac52b4d843c7c634d1a14535]
reverse link MiddlewareCommLinkManager to MiddlewareCommLinkManagerStub--><path d="M2336.85,170.23 C2298.4,185.74 2253.85,201.73 2212,212 C2074.72,245.69 2032.33,210.64 1896,248 C1857.34,258.59 1816.45,276.22 1783.07,292.46 " fill="none" id="MiddlewareCommLinkManager&lt;-MiddlewareCommLinkManagerStub" style="stroke: #A80036; stroke-width: 1.0; stroke-dasharray: 7.0,7.0;"/><polygon fill="none" points="2334.33,163.7,2355.49,162.56,2339.66,176.65,2334.33,163.7" style="stroke: #A80036; stroke-width: 1.0;"/><!--MD5=[7fa180022f459ef85d1acc77bc346e55]
link MiddlewareCommInterfaceImplementationTests to MiddlewareCommLinkManagerStub--><path d="M1695.72,154.01 C1698.93,188.83 1704.3,247.02 1707.99,287 " fill="none" id="MiddlewareCommInterfaceImplementationTests-&gt;MiddlewareCommLinkManagerStub" style="stroke: #A80036; stroke-width: 1.0; stroke-dasharray: 7.0,7.0;"/><polygon fill="#A80036" points="1708.47,292.28,1711.6315,282.9524,1708.0135,287.3009,1703.6649,283.6828,1708.47,292.28" style="stroke: #A80036; stroke-width: 1.0;"/><!--MD5=[b7be4b6db61c888b240eee15c81cfa97]
link MiddlewareCommInterfaceImplementationTests to MiddlewareCommInterfaceImplementation--><path d="M1746.72,154.13 C1786.61,174.5 1843.05,199.96 1896,212 C2285.06,300.45 2403.73,160.5 2793,248 C2817.61,253.53 2843.02,262.06 2867.03,271.58 " fill="none" id="MiddlewareCommInterfaceImplementationTests-&gt;MiddlewareCommInterfaceImplementation" style="stroke: #A80036; stroke-width: 1.0; stroke-dasharray: 7.0,7.0;"/><polygon fill="#A80036" points="2871.81,273.49,2864.9393,266.4336,2867.1676,271.633,2861.9681,273.8614,2871.81,273.49" style="stroke: #A80036; stroke-width: 1.0;"/><!--MD5=[bcb237fc50e7c64a2e386cbf2da92530]
reverse link MiddlewareCommDatabaseInterface to MiddlewareCommDatabaseInterfaceStub--><path d="M1976.71,171.4 C1944.56,186.62 1907.4,202.11 1872,212 C1742.23,248.24 1701.57,214.78 1571,248 C1528.45,258.83 1482.94,276.27 1445.46,292.33 " fill="none" id="MiddlewareCommDatabaseInterface&lt;-MiddlewareCommDatabaseInterfaceStub" style="stroke: #A80036; stroke-width: 1.0; stroke-dasharray: 7.0,7.0;"/><polygon fill="none" points="1973.97,164.95,1995.02,162.52,1980.08,177.55,1973.97,164.95" style="stroke: #A80036; stroke-width: 1.0;"/><!--MD5=[2fd20703f0701fa98274185fc4989096]
link MiddlewareCommLinkManagerImplementationTests to MiddlewareCommDatabaseInterfaceStub--><path d="M1324.07,147.73 C1331.45,181.5 1345.27,244.75 1354.55,287.25 " fill="none" id="MiddlewareCommLinkManagerImplementationTests-&gt;MiddlewareCommDatabaseInterfaceStub" style="stroke: #A80036; stroke-width: 1.0; stroke-dasharray: 7.0,7.0;"/><polygon fill="#A80036" points="1355.66,292.33,1357.6334,282.6809,1354.586,287.4467,1349.8201,284.3993,1355.66,292.33" style="stroke: #A80036; stroke-width: 1.0;"/><!--MD5=[103579e4ea01d223111d0dbd0a71b306]
link MiddlewareCommLinkManagerImplementationTests to MiddlewareCommLinkManagerImplementation--><path d="M1358.07,147.57 C1395.98,168.64 1455.84,198.49 1512,212 C1845.95,292.35 1946.09,186.4 2284,248 C2287.93,248.72 2291.88,249.48 2295.85,250.28 " fill="none" id="MiddlewareCommLinkManagerImplementationTests-&gt;MiddlewareCommLinkManagerImplementation" style="stroke: #A80036; stroke-width: 1.0; stroke-dasharray: 7.0,7.0;"/><polygon fill="#A80036" points="2300.89,251.32,2292.8749,245.5966,2295.9916,250.3174,2291.2707,253.4341,2300.89,251.32" style="stroke: #A80036; stroke-width: 1.0;"/><!--MD5=[d8431ecc5828041ae0ff652632b69c0c]
reverse link DatabaseCommInterface to DatabaseCommInterfaceStub--><path d="M425.71,194.86 C442.66,200.8 459.61,206.59 476,212 C541.64,233.67 613.92,255.57 678.88,274.55 " fill="none" id="DatabaseCommInterface&lt;-DatabaseCommInterfaceStub" style="stroke: #A80036; stroke-width: 1.0; stroke-dasharray: 7.0,7.0;"/><polygon fill="none" points="423.11,201.37,406.59,188.11,427.77,188.17,423.11,201.37" style="stroke: #A80036; stroke-width: 1.0;"/><!--MD5=[52509b0176968f875548ba7b6727e5db]
link MiddlewareCommDatabaseInterfaceImplementationTests to DatabaseCommInterfaceStub--><path d="M910.83,147.73 C905.89,175.22 897.44,222.25 890.35,261.72 " fill="none" id="MiddlewareCommDatabaseInterfaceImplementationTests-&gt;DatabaseCommInterfaceStub" style="stroke: #A80036; stroke-width: 1.0; stroke-dasharray: 7.0,7.0;"/><polygon fill="#A80036" points="889.41,266.98,894.9429,258.8322,890.2969,262.0593,887.0698,257.4132,889.41,266.98" style="stroke: #A80036; stroke-width: 1.0;"/><!--MD5=[43c3af790da194ec4c8637f83c23fde0]
link MiddlewareCommDatabaseInterfaceImplementationTests to MiddlewareCommDatabaseInterfaceImplementation--><path d="M958.22,147.52 C1000.08,168.55 1065.99,198.37 1127,212 C1450.52,284.3 1547.5,180.26 1872,248 C1899.02,253.64 1927.12,262.17 1953.77,271.63 " fill="none" id="MiddlewareCommDatabaseInterfaceImplementationTests-&gt;MiddlewareCommDatabaseInterfaceImplementation" style="stroke: #A80036; stroke-width: 1.0; stroke-dasharray: 7.0,7.0;"/><polygon fill="#A80036" points="1958.74,273.41,1951.6188,266.6064,1954.0336,271.722,1948.918,274.1367,1958.74,273.41" style="stroke: #A80036; stroke-width: 1.0;"/><!--MD5=[b7f4c9447f2e238dc6bbfb46bebb205f]
link TrackDataCalculatorTests to TrackDataCalculator--><path d="M586.27,147.93 C580.84,207.06 575.79,363.04 662,439 C709.89,481.2 1056.52,507.07 1307.79,520.48 " fill="none" id="TrackDataCalculatorTests-&gt;TrackDataCalculator" style="stroke: #A80036; stroke-width: 1.0; stroke-dasharray: 7.0,7.0;"/><polygon fill="#A80036" points="1312.96,520.76,1304.178,516.3017,1307.9666,520.5025,1303.7659,524.2911,1312.96,520.76" style="stroke: #A80036; stroke-width: 1.0;"/><!--MD5=[8df5939efbc0b8b81798653cf512ce74]
@startuml Middleware02Packages_Closure


package edu.oakland.production.middleware02 {
    
}



package edu.oakland.production.middleware02 {
    interface MiddlewareCommInterface {
        __
        .. Use Case 1 ..
        {abstract} + TrackData requestRfid(int rfid)
    }
}








package edu.oakland.production.middleware02 {
    interface MiddlewareCommLinkManager {
        __
        .. Use Case 1 ..
        {abstract} + TrackData parseRfid(int rfid)
    }
}








package edu.oakland.production.middleware02 {
    interface MiddlewareCommDatabaseInterface {
        __
        .. Use Case 1 ..
        {abstract} + int checkCurrentRfid()
    }
}








package edu.oakland.production.middleware02 {
    class MiddlewareCommInterfaceImplementation {
        - MiddlewareCommLinkManager middlewareManager
        __
        + MiddlewareCommInterfaceImplementation(
        \tMiddlewareCommLinkManager middlewareManager)
        .. Use Case 1 ..
        + TrackData requestRfid(int rfid)
}


MiddlewareCommInterfaceImplementation .up.|> MiddlewareCommInterface







package edu.oakland.production.middleware02 {
    class MiddlewareCommLinkManagerImplementation {
        - MiddlewareCommDatabaseInterface middlewareCommDatabaseInterface
        - MiddlewareGisManager middlewareGisManager
        __
        + MiddlewareCommLinkManagerImplementation(
        \tMiddlewareCommDatabaseInterface middlewareCommDatabaseInterface
        \tMiddlewareGisManager middlewareGisManager)
        .. Use Case 1 ..
        + TrackData parseRfid(int rfid)
        - float calculateLocationDataPoint()
        - float calculateTrackData()
    }
}


MiddlewareCommLinkManagerImplementation .up.|> MiddlewareCommLinkManager



package edu.oakland.helper.middleware02 {
    class TrackDataCalculator {
        {static} + float calculateSpeed(LocationDataPoint[] locationDataPoints)
        {static} + float calculateDirection(LocationDataPoint[] locationDataPoints)
        {static} - LocationDataPoint[] calculateRootMeanSquared(LocationDataPoint[] locationDataPoints)
    }
}






MiddlewareCommLinkManagerImplementation ..> TrackDataCalculator





package edu.oakland.production.middleware02 {
    class MiddlewareCommDatabaseInterfaceImplementation {
        + DatabaseCommInterface databaseCommInterface
        __
        + MiddlewareCommDatabaseInterfaceImplementation(
        \tDatabaseCommInterface databaseCommInterface)
        .. Use Case 1 ..
        + int checkCurrentRfid()
    }
}


MiddlewareCommDatabaseInterfaceImplementation .up.|> MiddlewareCommDatabaseInterface







package edu.oakland.test.middleware02 {
    
}



package edu.oakland.test.middleware02 {
    class MiddlewareCommInterfaceImplementationTests {
        + void RfidInIsRfidOut()
        
    }
}




package edu.oakland.test.middleware02 {
    class MiddlewareCommLinkManagerStub {
        __
        .. Use Case 1 ..
        + TrackData parseRfid(int rfid)
    }
}


MiddlewareCommLinkManagerStub .up.|> MiddlewareCommLinkManager



MiddlewareCommInterfaceImplementationTests ..> MiddlewareCommLinkManagerStub

MiddlewareCommInterfaceImplementationTests ..> MiddlewareCommInterfaceImplementation





package edu.oakland.test.middleware02 {
    class MiddlewareCommLinkManagerImplementationTests {

    }
}




package edu.oakland.test.middleware02 {
    class MiddlewareCommDatabaseInterfaceStub {
        __
        .. Use Case 1 ..
        + int checkCurrentRfid()
    }
}


MiddlewareCommDatabaseInterfaceStub .up.|> MiddlewareCommDatabaseInterface



MiddlewareCommLinkManagerImplementationTests ..> MiddlewareCommDatabaseInterfaceStub

MiddlewareCommLinkManagerImplementationTests ..> MiddlewareCommLinkManagerImplementation





package edu.oakland.test.middleware02 {
    class MiddlewareCommDatabaseInterfaceImplementationTests {

    }
}




package edu.oakland.test.middleware02 {
    class DatabaseCommInterfaceStub {
        __
        .. Use Case 1 ..
        {abstract} + int receiveGetRfidRequest()
        {abstract} + LocationDataPoint receiveGetLocationDataPointRequest(int offset)
        {abstract} + TrackData receiveGetTrackDataRequest(int offset)
        {abstract} + void storeTrackDataRequest(TrackData trackData)
        {abstract} + String receiveGetModeRequest()
    }
}






package edu.oakland.production.database {
    interface DatabaseCommInterface {
        __
        .. Use Case 1 ..
        {abstract} + int receiveGetRfidRequest()
        {abstract} + LocationDataPoint receiveGetLocationDataPointRequest(int offset)
        {abstract} + TrackData receiveGetTrackDataRequest(int offset)
        {abstract} + void storeTrackDataRequest(TrackData trackData)
        {abstract} + String receiveGetModeRequest()
    }
}






DatabaseCommInterfaceStub .up.|> DatabaseCommInterface

MiddlewareCommDatabaseInterfaceImplementationTests ..> DatabaseCommInterfaceStub

MiddlewareCommDatabaseInterfaceImplementationTests ..> MiddlewareCommDatabaseInterfaceImplementation





package edu.oakland.test.middleware02 {
    class TrackDataCalculatorTests {

    }
}


TrackDataCalculatorTests ..> TrackDataCalculator





package edu.oakland.helper.middleware02 {
    
}



@enduml

PlantUML version 1.2020.02(Sun Mar 01 10:22:07 GMT 2020)
(GPL source distribution)
Java Runtime: OpenJDK Runtime Environment
JVM: OpenJDK 64-Bit Server VM
Java Version: 11.0.9+11-Ubuntu-0ubuntu1
Operating System: Linux
Default Encoding: ANSI_X3.4-1968
Language: en
Country: US
--></g></svg>