<?xml version="1.0" encoding="UTF-8" standalone="no"?><svg xmlns="http://www.w3.org/2000/svg" xmlns:xlink="http://www.w3.org/1999/xlink" contentScriptType="application/ecmascript" contentStyleType="text/css" height="574px" preserveAspectRatio="none" style="width:2748px;height:574px;" version="1.1" viewBox="0 0 2748 574" width="2748px" zoomAndPan="magnify"><defs><filter height="300%" id="fa8xq0l9kseuw" width="300%" x="-1" y="-1"><feGaussianBlur result="blurOut" stdDeviation="2.0"/><feColorMatrix in="blurOut" result="blurOut2" type="matrix" values="0 0 0 0 0 0 0 0 0 0 0 0 0 0 0 0 0 0 .4 0"/><feOffset dx="4.0" dy="4.0" in="blurOut2" result="blurOut3"/><feBlend in="SourceGraphic" in2="blurOut3" mode="normal"/></filter></defs><g><!--MD5=[33504725b8a69ba2207f0a836957a91c]
cluster edu.oakland.production.middleware02--><polygon fill="#FFFFFF" filter="url(#fa8xq0l9kseuw)" points="1442,34.5,1752,34.5,1759,56.7969,2726,56.7969,2726,401,1442,401,1442,34.5" style="stroke: #000000; stroke-width: 1.5;"/><line style="stroke: #000000; stroke-width: 1.5;" x1="1442" x2="1759" y1="56.7969" y2="56.7969"/><text fill="#000000" font-family="sans-serif" font-size="14" font-weight="bold" lengthAdjust="spacingAndGlyphs" textLength="304" x="1446" y="49.4951">edu.oakland.production.middleware02</text><!--MD5=[73d4e355f259fb8d2c716d693a5be920]
cluster edu.oakland.helper.middleware02--><polygon fill="#FFFFFF" filter="url(#fa8xq0l9kseuw)" points="893,425,1168,425,1175,447.2969,1443,447.2969,1443,562,893,562,893,425" style="stroke: #000000; stroke-width: 1.5;"/><line style="stroke: #000000; stroke-width: 1.5;" x1="893" x2="1175" y1="447.2969" y2="447.2969"/><text fill="#000000" font-family="sans-serif" font-size="14" font-weight="bold" lengthAdjust="spacingAndGlyphs" textLength="269" x="897" y="439.9951">edu.oakland.helper.middleware02</text><!--MD5=[def9027c776d62015452659d5d6059fb]
cluster edu.oakland.test.middleware02--><polygon fill="#FFFFFF" filter="url(#fa8xq0l9kseuw)" points="22,24,277,24,284,46.2969,1418,46.2969,1418,382,22,382,22,24" style="stroke: #000000; stroke-width: 1.5;"/><line style="stroke: #000000; stroke-width: 1.5;" x1="22" x2="284" y1="46.2969" y2="46.2969"/><text fill="#000000" font-family="sans-serif" font-size="14" font-weight="bold" lengthAdjust="spacingAndGlyphs" textLength="249" x="26" y="38.9951">edu.oakland.test.middleware02</text><!--MD5=[d3cb230b9040bd9072bb1f490e167601]
class MiddlewareCommInterface--><rect fill="#FEFECE" filter="url(#fa8xq0l9kseuw)" height="77.6094" id="MiddlewareCommInterface" style="stroke: #A80036; stroke-width: 1.5;" width="198" x="2434" y="69.5"/><ellipse cx="2449" cy="85.5" fill="#B4A7E5" rx="11" ry="11" style="stroke: #A80036; stroke-width: 1.0;"/><path d="M2444.9219,81.2656 L2444.9219,79.1094 L2452.3125,79.1094 L2452.3125,81.2656 L2449.8438,81.2656 L2449.8438,89.3438 L2452.3125,89.3438 L2452.3125,91.5 L2444.9219,91.5 L2444.9219,89.3438 L2447.3906,89.3438 L2447.3906,81.2656 L2444.9219,81.2656 Z "/><text fill="#000000" font-family="sans-serif" font-size="12" font-style="italic" lengthAdjust="spacingAndGlyphs" textLength="166" x="2463" y="89.6543">MiddlewareCommInterface</text><line style="stroke: #A80036; stroke-width: 1.5;" x1="2435" x2="2631" y1="101.5" y2="101.5"/><line style="stroke: #A80036; stroke-width: 1.5;" x1="2435" x2="2631" y1="109.5" y2="109.5"/><ellipse cx="2445" cy="137.3047" fill="#84BE84" rx="3" ry="3" style="stroke: #038048; stroke-width: 1.0;"/><text fill="#000000" font-family="sans-serif" font-size="11" font-style="italic" lengthAdjust="spacingAndGlyphs" textLength="171" x="2454" y="140.5151">TrackData requestRfid(int rfid)</text><line style="stroke: #A80036; stroke-width: 1.0; stroke-dasharray: 1.0,2.0;" x1="2435" x2="2500" y1="123.9023" y2="123.9023"/><text fill="#000000" font-family="sans-serif" font-size="11" lengthAdjust="spacingAndGlyphs" textLength="66" x="2500" y="127.2104">Use Case 1</text><line style="stroke: #A80036; stroke-width: 1.0; stroke-dasharray: 1.0,2.0;" x1="2566" x2="2631" y1="123.9023" y2="123.9023"/><!--MD5=[d01e667c21cf622da77e8a7601ca5c91]
class MiddlewareCommLinkManager--><rect fill="#FEFECE" filter="url(#fa8xq0l9kseuw)" height="77.6094" id="MiddlewareCommLinkManager" style="stroke: #A80036; stroke-width: 1.5;" width="221" x="1874.5" y="69.5"/><ellipse cx="1889.5" cy="85.5" fill="#B4A7E5" rx="11" ry="11" style="stroke: #A80036; stroke-width: 1.0;"/><path d="M1885.4219,81.2656 L1885.4219,79.1094 L1892.8125,79.1094 L1892.8125,81.2656 L1890.3438,81.2656 L1890.3438,89.3438 L1892.8125,89.3438 L1892.8125,91.5 L1885.4219,91.5 L1885.4219,89.3438 L1887.8906,89.3438 L1887.8906,81.2656 L1885.4219,81.2656 Z "/><text fill="#000000" font-family="sans-serif" font-size="12" font-style="italic" lengthAdjust="spacingAndGlyphs" textLength="189" x="1903.5" y="89.6543">MiddlewareCommLinkManager</text><line style="stroke: #A80036; stroke-width: 1.5;" x1="1875.5" x2="2094.5" y1="101.5" y2="101.5"/><line style="stroke: #A80036; stroke-width: 1.5;" x1="1875.5" x2="2094.5" y1="109.5" y2="109.5"/><ellipse cx="1885.5" cy="137.3047" fill="#84BE84" rx="3" ry="3" style="stroke: #038048; stroke-width: 1.0;"/><text fill="#000000" font-family="sans-serif" font-size="11" font-style="italic" lengthAdjust="spacingAndGlyphs" textLength="160" x="1894.5" y="140.5151">TrackData parseRfid(int rfid)</text><line style="stroke: #A80036; stroke-width: 1.0; stroke-dasharray: 1.0,2.0;" x1="1875.5" x2="1952" y1="123.9023" y2="123.9023"/><text fill="#000000" font-family="sans-serif" font-size="11" lengthAdjust="spacingAndGlyphs" textLength="66" x="1952" y="127.2104">Use Case 1</text><line style="stroke: #A80036; stroke-width: 1.0; stroke-dasharray: 1.0,2.0;" x1="2018" x2="2094.5" y1="123.9023" y2="123.9023"/><!--MD5=[4915649770e9045e9ea9156a01fd67e8]
class MiddlewareCommDatabaseInterface--><rect fill="#FEFECE" filter="url(#fa8xq0l9kseuw)" height="77.6094" id="MiddlewareCommDatabaseInterface" style="stroke: #A80036; stroke-width: 1.5;" width="258" x="1482" y="69.5"/><ellipse cx="1497" cy="85.5" fill="#B4A7E5" rx="11" ry="11" style="stroke: #A80036; stroke-width: 1.0;"/><path d="M1492.9219,81.2656 L1492.9219,79.1094 L1500.3125,79.1094 L1500.3125,81.2656 L1497.8438,81.2656 L1497.8438,89.3438 L1500.3125,89.3438 L1500.3125,91.5 L1492.9219,91.5 L1492.9219,89.3438 L1495.3906,89.3438 L1495.3906,81.2656 L1492.9219,81.2656 Z "/><text fill="#000000" font-family="sans-serif" font-size="12" font-style="italic" lengthAdjust="spacingAndGlyphs" textLength="226" x="1511" y="89.6543">MiddlewareCommDatabaseInterface</text><line style="stroke: #A80036; stroke-width: 1.5;" x1="1483" x2="1739" y1="101.5" y2="101.5"/><line style="stroke: #A80036; stroke-width: 1.5;" x1="1483" x2="1739" y1="109.5" y2="109.5"/><ellipse cx="1493" cy="137.3047" fill="#84BE84" rx="3" ry="3" style="stroke: #038048; stroke-width: 1.0;"/><text fill="#000000" font-family="sans-serif" font-size="11" font-style="italic" lengthAdjust="spacingAndGlyphs" textLength="123" x="1502" y="140.5151">int checkCurrentRfid()</text><line style="stroke: #A80036; stroke-width: 1.0; stroke-dasharray: 1.0,2.0;" x1="1483" x2="1578" y1="123.9023" y2="123.9023"/><text fill="#000000" font-family="sans-serif" font-size="11" lengthAdjust="spacingAndGlyphs" textLength="66" x="1578" y="127.2104">Use Case 1</text><line style="stroke: #A80036; stroke-width: 1.0; stroke-dasharray: 1.0,2.0;" x1="1644" x2="1739" y1="123.9023" y2="123.9023"/><!--MD5=[0a03c366ade61429da89cc477d567a32]
class MiddlewareCommInterfaceImplementation--><rect fill="#FEFECE" filter="url(#fa8xq0l9kseuw)" height="116.0234" id="MiddlewareCommInterfaceImplementation" style="stroke: #A80036; stroke-width: 1.5;" width="353" x="2356.5" y="243.5"/><ellipse cx="2398.5" cy="259.5" fill="#ADD1B2" rx="11" ry="11" style="stroke: #A80036; stroke-width: 1.0;"/><path d="M2401.4688,265.1406 Q2400.8906,265.4375 2400.25,265.5781 Q2399.6094,265.7344 2398.9063,265.7344 Q2396.4063,265.7344 2395.0781,264.0938 Q2393.7656,262.4375 2393.7656,259.3125 Q2393.7656,256.1875 2395.0781,254.5313 Q2396.4063,252.875 2398.9063,252.875 Q2399.6094,252.875 2400.25,253.0313 Q2400.9063,253.1875 2401.4688,253.4844 L2401.4688,256.2031 Q2400.8438,255.625 2400.25,255.3594 Q2399.6563,255.0781 2399.0313,255.0781 Q2397.6875,255.0781 2397,256.1563 Q2396.3125,257.2188 2396.3125,259.3125 Q2396.3125,261.4063 2397,262.4844 Q2397.6875,263.5469 2399.0313,263.5469 Q2399.6563,263.5469 2400.25,263.2813 Q2400.8438,263 2401.4688,262.4219 L2401.4688,265.1406 Z "/><text fill="#000000" font-family="sans-serif" font-size="12" lengthAdjust="spacingAndGlyphs" textLength="261" x="2418.5" y="263.6543">MiddlewareCommInterfaceImplementation</text><line style="stroke: #A80036; stroke-width: 1.5;" x1="2357.5" x2="2708.5" y1="275.5" y2="275.5"/><rect fill="none" height="6" style="stroke: #C82930; stroke-width: 1.0;" width="6" x="2364.5" y="283.5"/><text fill="#000000" font-family="sans-serif" font-size="11" lengthAdjust="spacingAndGlyphs" textLength="291" x="2376.5" y="289.7104">MiddlewareCommLinkManager middlewareManager</text><line style="stroke: #A80036; stroke-width: 1.5;" x1="2357.5" x2="2708.5" y1="296.3047" y2="296.3047"/><ellipse cx="2367.5" cy="307.3047" fill="#84BE84" rx="3" ry="3" style="stroke: #038048; stroke-width: 1.0;"/><text fill="#000000" font-family="sans-serif" font-size="11" lengthAdjust="spacingAndGlyphs" textLength="243" x="2376.5" y="310.5151">MiddlewareCommInterfaceImplementation(</text><text fill="#000000" font-family="sans-serif" font-size="11" lengthAdjust="spacingAndGlyphs" textLength="295" x="2408.5" y="323.3198">MiddlewareCommLinkManager middlewareManager)</text><ellipse cx="2367.5" cy="349.7188" fill="#84BE84" rx="3" ry="3" style="stroke: #038048; stroke-width: 1.0;"/><text fill="#000000" font-family="sans-serif" font-size="11" lengthAdjust="spacingAndGlyphs" textLength="171" x="2376.5" y="352.9292">TrackData requestRfid(int rfid)</text><line style="stroke: #A80036; stroke-width: 1.0; stroke-dasharray: 1.0,2.0;" x1="2357.5" x2="2500" y1="336.3164" y2="336.3164"/><text fill="#000000" font-family="sans-serif" font-size="11" lengthAdjust="spacingAndGlyphs" textLength="66" x="2500" y="339.6245">Use Case 1</text><line style="stroke: #A80036; stroke-width: 1.0; stroke-dasharray: 1.0,2.0;" x1="2566" x2="2708.5" y1="336.3164" y2="336.3164"/><!--MD5=[d9ed64ee38938b46697008700ce69fba]
class MiddlewareCommLinkManagerImplementation--><rect fill="#FEFECE" filter="url(#fa8xq0l9kseuw)" height="167.2422" id="MiddlewareCommLinkManagerImplementation" style="stroke: #A80036; stroke-width: 1.5;" width="474" x="1847" y="218"/><ellipse cx="1937.75" cy="234" fill="#ADD1B2" rx="11" ry="11" style="stroke: #A80036; stroke-width: 1.0;"/><path d="M1940.7188,239.6406 Q1940.1406,239.9375 1939.5,240.0781 Q1938.8594,240.2344 1938.1563,240.2344 Q1935.6563,240.2344 1934.3281,238.5938 Q1933.0156,236.9375 1933.0156,233.8125 Q1933.0156,230.6875 1934.3281,229.0313 Q1935.6563,227.375 1938.1563,227.375 Q1938.8594,227.375 1939.5,227.5313 Q1940.1563,227.6875 1940.7188,227.9844 L1940.7188,230.7031 Q1940.0938,230.125 1939.5,229.8594 Q1938.9063,229.5781 1938.2813,229.5781 Q1936.9375,229.5781 1936.25,230.6563 Q1935.5625,231.7188 1935.5625,233.8125 Q1935.5625,235.9063 1936.25,236.9844 Q1936.9375,238.0469 1938.2813,238.0469 Q1938.9063,238.0469 1939.5,237.7813 Q1940.0938,237.5 1940.7188,236.9219 L1940.7188,239.6406 Z "/><text fill="#000000" font-family="sans-serif" font-size="12" lengthAdjust="spacingAndGlyphs" textLength="284" x="1958.25" y="238.1543">MiddlewareCommLinkManagerImplementation</text><line style="stroke: #A80036; stroke-width: 1.5;" x1="1848" x2="2320" y1="250" y2="250"/><rect fill="none" height="6" style="stroke: #C82930; stroke-width: 1.0;" width="6" x="1855" y="258"/><text fill="#000000" font-family="sans-serif" font-size="11" lengthAdjust="spacingAndGlyphs" textLength="416" x="1867" y="264.2104">MiddlewareCommDatabaseInterface middlewareCommDatabaseInterface</text><rect fill="none" height="6" style="stroke: #C82930; stroke-width: 1.0;" width="6" x="1855" y="270.8047"/><text fill="#000000" font-family="sans-serif" font-size="11" lengthAdjust="spacingAndGlyphs" textLength="270" x="1867" y="277.0151">MiddlewareGisManager middlewareGisManager</text><line style="stroke: #A80036; stroke-width: 1.5;" x1="1848" x2="2320" y1="283.6094" y2="283.6094"/><ellipse cx="1858" cy="294.6094" fill="#84BE84" rx="3" ry="3" style="stroke: #038048; stroke-width: 1.0;"/><text fill="#000000" font-family="sans-serif" font-size="11" lengthAdjust="spacingAndGlyphs" textLength="264" x="1867" y="297.8198">MiddlewareCommLinkManagerImplementation(</text><text fill="#000000" font-family="sans-serif" font-size="11" lengthAdjust="spacingAndGlyphs" textLength="416" x="1899" y="310.6245">MiddlewareCommDatabaseInterface middlewareCommDatabaseInterface</text><text fill="#000000" font-family="sans-serif" font-size="11" lengthAdjust="spacingAndGlyphs" textLength="274" x="1899" y="323.4292">MiddlewareGisManager middlewareGisManager)</text><ellipse cx="1858" cy="349.8281" fill="#84BE84" rx="3" ry="3" style="stroke: #038048; stroke-width: 1.0;"/><text fill="#000000" font-family="sans-serif" font-size="11" lengthAdjust="spacingAndGlyphs" textLength="160" x="1867" y="353.0386">TrackData parseRfid(int rfid)</text><rect fill="#F24D5C" height="6" style="stroke: #C82930; stroke-width: 1.0;" width="6" x="1855" y="359.6328"/><text fill="#000000" font-family="sans-serif" font-size="11" lengthAdjust="spacingAndGlyphs" textLength="188" x="1867" y="365.8433">float calculateLocationDataPoint()</text><rect fill="#F24D5C" height="6" style="stroke: #C82930; stroke-width: 1.0;" width="6" x="1855" y="372.4375"/><text fill="#000000" font-family="sans-serif" font-size="11" lengthAdjust="spacingAndGlyphs" textLength="144" x="1867" y="378.6479">float calculateTrackData()</text><line style="stroke: #A80036; stroke-width: 1.0; stroke-dasharray: 1.0,2.0;" x1="1848" x2="2051" y1="336.4258" y2="336.4258"/><text fill="#000000" font-family="sans-serif" font-size="11" lengthAdjust="spacingAndGlyphs" textLength="66" x="2051" y="339.7339">Use Case 1</text><line style="stroke: #A80036; stroke-width: 1.0; stroke-dasharray: 1.0,2.0;" x1="2117" x2="2320" y1="336.4258" y2="336.4258"/><!--MD5=[1c4f9654f103878faf4a10c0361188b9]
class MiddlewareCommDatabaseInterfaceImplementation--><rect fill="#FEFECE" filter="url(#fa8xq0l9kseuw)" height="116.0234" id="MiddlewareCommDatabaseInterfaceImplementation" style="stroke: #A80036; stroke-width: 1.5;" width="354" x="1458" y="243.5"/><ellipse cx="1473" cy="259.5" fill="#ADD1B2" rx="11" ry="11" style="stroke: #A80036; stroke-width: 1.0;"/><path d="M1475.9688,265.1406 Q1475.3906,265.4375 1474.75,265.5781 Q1474.1094,265.7344 1473.4063,265.7344 Q1470.9063,265.7344 1469.5781,264.0938 Q1468.2656,262.4375 1468.2656,259.3125 Q1468.2656,256.1875 1469.5781,254.5313 Q1470.9063,252.875 1473.4063,252.875 Q1474.1094,252.875 1474.75,253.0313 Q1475.4063,253.1875 1475.9688,253.4844 L1475.9688,256.2031 Q1475.3438,255.625 1474.75,255.3594 Q1474.1563,255.0781 1473.5313,255.0781 Q1472.1875,255.0781 1471.5,256.1563 Q1470.8125,257.2188 1470.8125,259.3125 Q1470.8125,261.4063 1471.5,262.4844 Q1472.1875,263.5469 1473.5313,263.5469 Q1474.1563,263.5469 1474.75,263.2813 Q1475.3438,263 1475.9688,262.4219 L1475.9688,265.1406 Z "/><text fill="#000000" font-family="sans-serif" font-size="12" lengthAdjust="spacingAndGlyphs" textLength="322" x="1487" y="263.6543">MiddlewareCommDatabaseInterfaceImplementation</text><line style="stroke: #A80036; stroke-width: 1.5;" x1="1459" x2="1811" y1="275.5" y2="275.5"/><ellipse cx="1469" cy="286.5" fill="none" rx="3" ry="3" style="stroke: #038048; stroke-width: 1.0;"/><text fill="#000000" font-family="sans-serif" font-size="11" lengthAdjust="spacingAndGlyphs" textLength="285" x="1478" y="289.7104">DatabaseCommInterface databaseCommInterface</text><line style="stroke: #A80036; stroke-width: 1.5;" x1="1459" x2="1811" y1="296.3047" y2="296.3047"/><ellipse cx="1469" cy="307.3047" fill="#84BE84" rx="3" ry="3" style="stroke: #038048; stroke-width: 1.0;"/><text fill="#000000" font-family="sans-serif" font-size="11" lengthAdjust="spacingAndGlyphs" textLength="297" x="1478" y="310.5151">MiddlewareCommDatabaseInterfaceImplementation(</text><text fill="#000000" font-family="sans-serif" font-size="11" lengthAdjust="spacingAndGlyphs" textLength="289" x="1510" y="323.3198">DatabaseCommInterface databaseCommInterface)</text><ellipse cx="1469" cy="349.7188" fill="#84BE84" rx="3" ry="3" style="stroke: #038048; stroke-width: 1.0;"/><text fill="#000000" font-family="sans-serif" font-size="11" lengthAdjust="spacingAndGlyphs" textLength="122" x="1478" y="352.9292">int checkCurrentRfid()</text><line style="stroke: #A80036; stroke-width: 1.0; stroke-dasharray: 1.0,2.0;" x1="1459" x2="1602" y1="336.3164" y2="336.3164"/><text fill="#000000" font-family="sans-serif" font-size="11" lengthAdjust="spacingAndGlyphs" textLength="66" x="1602" y="339.6245">Use Case 1</text><line style="stroke: #A80036; stroke-width: 1.0; stroke-dasharray: 1.0,2.0;" x1="1668" x2="1811" y1="336.3164" y2="336.3164"/><!--MD5=[8d86b1aa2030a05d452f78e2e1fb37ed]
class TrackDataCalculator--><rect fill="#FEFECE" filter="url(#fa8xq0l9kseuw)" height="86.4141" id="TrackDataCalculator" style="stroke: #A80036; stroke-width: 1.5;" width="518" x="909" y="460"/><ellipse cx="1100.25" cy="476" fill="#ADD1B2" rx="11" ry="11" style="stroke: #A80036; stroke-width: 1.0;"/><path d="M1103.2188,481.6406 Q1102.6406,481.9375 1102,482.0781 Q1101.3594,482.2344 1100.6563,482.2344 Q1098.1563,482.2344 1096.8281,480.5938 Q1095.5156,478.9375 1095.5156,475.8125 Q1095.5156,472.6875 1096.8281,471.0313 Q1098.1563,469.375 1100.6563,469.375 Q1101.3594,469.375 1102,469.5313 Q1102.6563,469.6875 1103.2188,469.9844 L1103.2188,472.7031 Q1102.5938,472.125 1102,471.8594 Q1101.4063,471.5781 1100.7813,471.5781 Q1099.4375,471.5781 1098.75,472.6563 Q1098.0625,473.7188 1098.0625,475.8125 Q1098.0625,477.9063 1098.75,478.9844 Q1099.4375,480.0469 1100.7813,480.0469 Q1101.4063,480.0469 1102,479.7813 Q1102.5938,479.5 1103.2188,478.9219 L1103.2188,481.6406 Z "/><text fill="#000000" font-family="sans-serif" font-size="12" lengthAdjust="spacingAndGlyphs" textLength="127" x="1120.75" y="480.1543">TrackDataCalculator</text><line style="stroke: #A80036; stroke-width: 1.5;" x1="910" x2="1426" y1="492" y2="492"/><line style="stroke: #A80036; stroke-width: 1.5;" x1="910" x2="1426" y1="500" y2="500"/><ellipse cx="920" cy="511" fill="#84BE84" rx="3" ry="3" style="stroke: #038048; stroke-width: 1.0;"/><text fill="#000000" font-family="sans-serif" font-size="11" lengthAdjust="spacingAndGlyphs" text-decoration="underline" textLength="341" x="929" y="514.2104">float calculateSpeed(LocationDataPoint[] locationDataPoints)</text><ellipse cx="920" cy="523.8047" fill="#84BE84" rx="3" ry="3" style="stroke: #038048; stroke-width: 1.0;"/><text fill="#000000" font-family="sans-serif" font-size="11" lengthAdjust="spacingAndGlyphs" text-decoration="underline" textLength="355" x="929" y="527.0151">float calculateDirection(LocationDataPoint[] locationDataPoints)</text><rect fill="#F24D5C" height="6" style="stroke: #C82930; stroke-width: 1.0;" width="6" x="917" y="533.6094"/><text fill="#000000" font-family="sans-serif" font-size="11" lengthAdjust="spacingAndGlyphs" text-decoration="underline" textLength="492" x="929" y="539.8198">LocationDataPoint[] calculateRootMeanSquared(LocationDataPoint[] locationDataPoints)</text><!--MD5=[00b94da1af6b7f5503baa4bfd88b42e0]
class MiddlewareCommInterfaceImplementationTests--><rect fill="#FEFECE" filter="url(#fa8xq0l9kseuw)" height="48" id="MiddlewareCommInterfaceImplementationTests" style="stroke: #A80036; stroke-width: 1.5;" width="327" x="1075.5" y="84.5"/><ellipse cx="1090.5" cy="100.5" fill="#ADD1B2" rx="11" ry="11" style="stroke: #A80036; stroke-width: 1.0;"/><path d="M1093.4688,106.1406 Q1092.8906,106.4375 1092.25,106.5781 Q1091.6094,106.7344 1090.9063,106.7344 Q1088.4063,106.7344 1087.0781,105.0938 Q1085.7656,103.4375 1085.7656,100.3125 Q1085.7656,97.1875 1087.0781,95.5313 Q1088.4063,93.875 1090.9063,93.875 Q1091.6094,93.875 1092.25,94.0313 Q1092.9063,94.1875 1093.4688,94.4844 L1093.4688,97.2031 Q1092.8438,96.625 1092.25,96.3594 Q1091.6563,96.0781 1091.0313,96.0781 Q1089.6875,96.0781 1089,97.1563 Q1088.3125,98.2188 1088.3125,100.3125 Q1088.3125,102.4063 1089,103.4844 Q1089.6875,104.5469 1091.0313,104.5469 Q1091.6563,104.5469 1092.25,104.2813 Q1092.8438,104 1093.4688,103.4219 L1093.4688,106.1406 Z "/><text fill="#000000" font-family="sans-serif" font-size="12" lengthAdjust="spacingAndGlyphs" textLength="295" x="1104.5" y="104.6543">MiddlewareCommInterfaceImplementationTests</text><line style="stroke: #A80036; stroke-width: 1.5;" x1="1076.5" x2="1401.5" y1="116.5" y2="116.5"/><line style="stroke: #A80036; stroke-width: 1.5;" x1="1076.5" x2="1401.5" y1="124.5" y2="124.5"/><!--MD5=[3bea4f8dbcd5725ad50d10553f2379e2]
class MiddlewareCommLinkManagerStub--><rect fill="#FEFECE" filter="url(#fa8xq0l9kseuw)" height="77.6094" id="MiddlewareCommLinkManagerStub" style="stroke: #A80036; stroke-width: 1.5;" width="248" x="1134" y="262.5"/><ellipse cx="1149" cy="278.5" fill="#ADD1B2" rx="11" ry="11" style="stroke: #A80036; stroke-width: 1.0;"/><path d="M1151.9688,284.1406 Q1151.3906,284.4375 1150.75,284.5781 Q1150.1094,284.7344 1149.4063,284.7344 Q1146.9063,284.7344 1145.5781,283.0938 Q1144.2656,281.4375 1144.2656,278.3125 Q1144.2656,275.1875 1145.5781,273.5313 Q1146.9063,271.875 1149.4063,271.875 Q1150.1094,271.875 1150.75,272.0313 Q1151.4063,272.1875 1151.9688,272.4844 L1151.9688,275.2031 Q1151.3438,274.625 1150.75,274.3594 Q1150.1563,274.0781 1149.5313,274.0781 Q1148.1875,274.0781 1147.5,275.1563 Q1146.8125,276.2188 1146.8125,278.3125 Q1146.8125,280.4063 1147.5,281.4844 Q1148.1875,282.5469 1149.5313,282.5469 Q1150.1563,282.5469 1150.75,282.2813 Q1151.3438,282 1151.9688,281.4219 L1151.9688,284.1406 Z "/><text fill="#000000" font-family="sans-serif" font-size="12" lengthAdjust="spacingAndGlyphs" textLength="216" x="1163" y="282.6543">MiddlewareCommLinkManagerStub</text><line style="stroke: #A80036; stroke-width: 1.5;" x1="1135" x2="1381" y1="294.5" y2="294.5"/><line style="stroke: #A80036; stroke-width: 1.5;" x1="1135" x2="1381" y1="302.5" y2="302.5"/><ellipse cx="1145" cy="330.3047" fill="#84BE84" rx="3" ry="3" style="stroke: #038048; stroke-width: 1.0;"/><text fill="#000000" font-family="sans-serif" font-size="11" lengthAdjust="spacingAndGlyphs" textLength="160" x="1154" y="333.5151">TrackData parseRfid(int rfid)</text><line style="stroke: #A80036; stroke-width: 1.0; stroke-dasharray: 1.0,2.0;" x1="1135" x2="1225" y1="316.9023" y2="316.9023"/><text fill="#000000" font-family="sans-serif" font-size="11" lengthAdjust="spacingAndGlyphs" textLength="66" x="1225" y="320.2104">Use Case 1</text><line style="stroke: #A80036; stroke-width: 1.0; stroke-dasharray: 1.0,2.0;" x1="1291" x2="1381" y1="316.9023" y2="316.9023"/><!--MD5=[de2e25996fbf99af10f04f2aae2d0ec2]
class MiddlewareCommLinkManagerImplementationTests--><rect fill="#FEFECE" filter="url(#fa8xq0l9kseuw)" height="99.2188" id="MiddlewareCommLinkManagerImplementationTests" style="stroke: #A80036; stroke-width: 1.5;" width="350" x="690" y="59"/><ellipse cx="705" cy="75" fill="#ADD1B2" rx="11" ry="11" style="stroke: #A80036; stroke-width: 1.0;"/><path d="M707.9688,80.6406 Q707.3906,80.9375 706.75,81.0781 Q706.1094,81.2344 705.4063,81.2344 Q702.9063,81.2344 701.5781,79.5938 Q700.2656,77.9375 700.2656,74.8125 Q700.2656,71.6875 701.5781,70.0313 Q702.9063,68.375 705.4063,68.375 Q706.1094,68.375 706.75,68.5313 Q707.4063,68.6875 707.9688,68.9844 L707.9688,71.7031 Q707.3438,71.125 706.75,70.8594 Q706.1563,70.5781 705.5313,70.5781 Q704.1875,70.5781 703.5,71.6563 Q702.8125,72.7188 702.8125,74.8125 Q702.8125,76.9063 703.5,77.9844 Q704.1875,79.0469 705.5313,79.0469 Q706.1563,79.0469 706.75,78.7813 Q707.3438,78.5 707.9688,77.9219 L707.9688,80.6406 Z "/><text fill="#000000" font-family="sans-serif" font-size="12" lengthAdjust="spacingAndGlyphs" textLength="318" x="719" y="79.1543">MiddlewareCommLinkManagerImplementationTests</text><line style="stroke: #A80036; stroke-width: 1.5;" x1="691" x2="1039" y1="91" y2="91"/><line style="stroke: #A80036; stroke-width: 1.5;" x1="691" x2="1039" y1="99" y2="99"/><ellipse cx="701" cy="110" fill="#84BE84" rx="3" ry="3" style="stroke: #038048; stroke-width: 1.0;"/><text fill="#000000" font-family="sans-serif" font-size="11" lengthAdjust="spacingAndGlyphs" textLength="160" x="710" y="113.2104">void verifyTrackLengthTest()</text><ellipse cx="701" cy="122.8047" fill="#84BE84" rx="3" ry="3" style="stroke: #038048; stroke-width: 1.0;"/><text fill="#000000" font-family="sans-serif" font-size="11" lengthAdjust="spacingAndGlyphs" textLength="115" x="710" y="126.0151">void rfidInIsRfidOut()</text><ellipse cx="701" cy="135.6094" fill="#84BE84" rx="3" ry="3" style="stroke: #038048; stroke-width: 1.0;"/><text fill="#000000" font-family="sans-serif" font-size="11" lengthAdjust="spacingAndGlyphs" textLength="171" x="710" y="138.8198">void gpsDataInIsGpsDataOut()</text><ellipse cx="701" cy="148.4141" fill="#84BE84" rx="3" ry="3" style="stroke: #038048; stroke-width: 1.0;"/><text fill="#000000" font-family="sans-serif" font-size="11" lengthAdjust="spacingAndGlyphs" textLength="186" x="710" y="151.6245">void trackDataInIsTrackDataOut()</text><!--MD5=[d266ff1a021c6b2abe780212ea4bc90b]
class MiddlewareCommDatabaseInterfaceStub--><rect fill="#FEFECE" filter="url(#fa8xq0l9kseuw)" height="77.6094" id="MiddlewareCommDatabaseInterfaceStub" style="stroke: #A80036; stroke-width: 1.5;" width="286" x="767" y="262.5"/><ellipse cx="782" cy="278.5" fill="#ADD1B2" rx="11" ry="11" style="stroke: #A80036; stroke-width: 1.0;"/><path d="M784.9688,284.1406 Q784.3906,284.4375 783.75,284.5781 Q783.1094,284.7344 782.4063,284.7344 Q779.9063,284.7344 778.5781,283.0938 Q777.2656,281.4375 777.2656,278.3125 Q777.2656,275.1875 778.5781,273.5313 Q779.9063,271.875 782.4063,271.875 Q783.1094,271.875 783.75,272.0313 Q784.4063,272.1875 784.9688,272.4844 L784.9688,275.2031 Q784.3438,274.625 783.75,274.3594 Q783.1563,274.0781 782.5313,274.0781 Q781.1875,274.0781 780.5,275.1563 Q779.8125,276.2188 779.8125,278.3125 Q779.8125,280.4063 780.5,281.4844 Q781.1875,282.5469 782.5313,282.5469 Q783.1563,282.5469 783.75,282.2813 Q784.3438,282 784.9688,281.4219 L784.9688,284.1406 Z "/><text fill="#000000" font-family="sans-serif" font-size="12" lengthAdjust="spacingAndGlyphs" textLength="254" x="796" y="282.6543">MiddlewareCommDatabaseInterfaceStub</text><line style="stroke: #A80036; stroke-width: 1.5;" x1="768" x2="1052" y1="294.5" y2="294.5"/><line style="stroke: #A80036; stroke-width: 1.5;" x1="768" x2="1052" y1="302.5" y2="302.5"/><ellipse cx="778" cy="330.3047" fill="#84BE84" rx="3" ry="3" style="stroke: #038048; stroke-width: 1.0;"/><text fill="#000000" font-family="sans-serif" font-size="11" lengthAdjust="spacingAndGlyphs" textLength="122" x="787" y="333.5151">int checkCurrentRfid()</text><line style="stroke: #A80036; stroke-width: 1.0; stroke-dasharray: 1.0,2.0;" x1="768" x2="877" y1="316.9023" y2="316.9023"/><text fill="#000000" font-family="sans-serif" font-size="11" lengthAdjust="spacingAndGlyphs" textLength="66" x="877" y="320.2104">Use Case 1</text><line style="stroke: #A80036; stroke-width: 1.0; stroke-dasharray: 1.0,2.0;" x1="943" x2="1052" y1="316.9023" y2="316.9023"/><!--MD5=[002ff5c7151dea29dff01f25b38dca5f]
class MiddlewareCommDatabaseInterfaceImplementationTests--><rect fill="#FEFECE" filter="url(#fa8xq0l9kseuw)" height="73.6094" id="MiddlewareCommDatabaseInterfaceImplementationTests" style="stroke: #A80036; stroke-width: 1.5;" width="388" x="267" y="71.5"/><ellipse cx="282" cy="87.5" fill="#ADD1B2" rx="11" ry="11" style="stroke: #A80036; stroke-width: 1.0;"/><path d="M284.9688,93.1406 Q284.3906,93.4375 283.75,93.5781 Q283.1094,93.7344 282.4063,93.7344 Q279.9063,93.7344 278.5781,92.0938 Q277.2656,90.4375 277.2656,87.3125 Q277.2656,84.1875 278.5781,82.5313 Q279.9063,80.875 282.4063,80.875 Q283.1094,80.875 283.75,81.0313 Q284.4063,81.1875 284.9688,81.4844 L284.9688,84.2031 Q284.3438,83.625 283.75,83.3594 Q283.1563,83.0781 282.5313,83.0781 Q281.1875,83.0781 280.5,84.1563 Q279.8125,85.2188 279.8125,87.3125 Q279.8125,89.4063 280.5,90.4844 Q281.1875,91.5469 282.5313,91.5469 Q283.1563,91.5469 283.75,91.2813 Q284.3438,91 284.9688,90.4219 L284.9688,93.1406 Z "/><text fill="#000000" font-family="sans-serif" font-size="12" lengthAdjust="spacingAndGlyphs" textLength="356" x="296" y="91.6543">MiddlewareCommDatabaseInterfaceImplementationTests</text><line style="stroke: #A80036; stroke-width: 1.5;" x1="268" x2="654" y1="103.5" y2="103.5"/><line style="stroke: #A80036; stroke-width: 1.5;" x1="268" x2="654" y1="111.5" y2="111.5"/><ellipse cx="278" cy="122.5" fill="#84BE84" rx="3" ry="3" style="stroke: #038048; stroke-width: 1.0;"/><text fill="#000000" font-family="sans-serif" font-size="11" lengthAdjust="spacingAndGlyphs" textLength="115" x="287" y="125.7104">void rfidInIsRfidOut()</text><ellipse cx="278" cy="135.3047" fill="#84BE84" rx="3" ry="3" style="stroke: #038048; stroke-width: 1.0;"/><text fill="#000000" font-family="sans-serif" font-size="11" lengthAdjust="spacingAndGlyphs" textLength="225" x="287" y="138.5151">void databaseCommInterfaceIsNotNull()</text><!--MD5=[e3f4175480349659b88084d56af4bbf1]
class DatabaseCommInterfaceStub--><rect fill="#FEFECE" filter="url(#fa8xq0l9kseuw)" height="128.8281" id="DatabaseCommInterfaceStub" style="stroke: #A80036; stroke-width: 1.5;" width="398" x="262" y="237"/><ellipse cx="364.75" cy="253" fill="#ADD1B2" rx="11" ry="11" style="stroke: #A80036; stroke-width: 1.0;"/><path d="M367.7188,258.6406 Q367.1406,258.9375 366.5,259.0781 Q365.8594,259.2344 365.1563,259.2344 Q362.6563,259.2344 361.3281,257.5938 Q360.0156,255.9375 360.0156,252.8125 Q360.0156,249.6875 361.3281,248.0313 Q362.6563,246.375 365.1563,246.375 Q365.8594,246.375 366.5,246.5313 Q367.1563,246.6875 367.7188,246.9844 L367.7188,249.7031 Q367.0938,249.125 366.5,248.8594 Q365.9063,248.5781 365.2813,248.5781 Q363.9375,248.5781 363.25,249.6563 Q362.5625,250.7188 362.5625,252.8125 Q362.5625,254.9063 363.25,255.9844 Q363.9375,257.0469 365.2813,257.0469 Q365.9063,257.0469 366.5,256.7813 Q367.0938,256.5 367.7188,255.9219 L367.7188,258.6406 Z "/><text fill="#000000" font-family="sans-serif" font-size="12" lengthAdjust="spacingAndGlyphs" textLength="184" x="385.25" y="257.1543">DatabaseCommInterfaceStub</text><line style="stroke: #A80036; stroke-width: 1.5;" x1="263" x2="659" y1="269" y2="269"/><line style="stroke: #A80036; stroke-width: 1.5;" x1="263" x2="659" y1="277" y2="277"/><ellipse cx="273" cy="304.8047" fill="#84BE84" rx="3" ry="3" style="stroke: #038048; stroke-width: 1.0;"/><text fill="#000000" font-family="sans-serif" font-size="11" font-style="italic" lengthAdjust="spacingAndGlyphs" textLength="156" x="282" y="308.0151">int receiveGetRfidRequest()</text><ellipse cx="273" cy="317.6094" fill="#84BE84" rx="3" ry="3" style="stroke: #038048; stroke-width: 1.0;"/><text fill="#000000" font-family="sans-serif" font-size="11" font-style="italic" lengthAdjust="spacingAndGlyphs" textLength="372" x="282" y="320.8198">LocationDataPoint receiveGetLocationDataPointRequest(int offset)</text><ellipse cx="273" cy="330.4141" fill="#84BE84" rx="3" ry="3" style="stroke: #038048; stroke-width: 1.0;"/><text fill="#000000" font-family="sans-serif" font-size="11" font-style="italic" lengthAdjust="spacingAndGlyphs" textLength="284" x="282" y="333.6245">TrackData receiveGetTrackDataRequest(int offset)</text><ellipse cx="273" cy="343.2188" fill="#84BE84" rx="3" ry="3" style="stroke: #038048; stroke-width: 1.0;"/><text fill="#000000" font-family="sans-serif" font-size="11" font-style="italic" lengthAdjust="spacingAndGlyphs" textLength="283" x="282" y="346.4292">void storeTrackDataRequest(TrackData trackData)</text><ellipse cx="273" cy="356.0234" fill="#84BE84" rx="3" ry="3" style="stroke: #038048; stroke-width: 1.0;"/><text fill="#000000" font-family="sans-serif" font-size="11" font-style="italic" lengthAdjust="spacingAndGlyphs" textLength="183" x="282" y="359.2339">String receiveGetModeRequest()</text><line style="stroke: #A80036; stroke-width: 1.0; stroke-dasharray: 1.0,2.0;" x1="263" x2="428" y1="291.4023" y2="291.4023"/><text fill="#000000" font-family="sans-serif" font-size="11" lengthAdjust="spacingAndGlyphs" textLength="66" x="428" y="294.7104">Use Case 1</text><line style="stroke: #A80036; stroke-width: 1.0; stroke-dasharray: 1.0,2.0;" x1="494" x2="659" y1="291.4023" y2="291.4023"/><!--MD5=[4d30ae449f97cbb7dd3c9db2a55e1ec0]
class TrackDataCalculatorTests--><rect fill="#FEFECE" filter="url(#fa8xq0l9kseuw)" height="48" id="TrackDataCalculatorTests" style="stroke: #A80036; stroke-width: 1.5;" width="193" x="38.5" y="84.5"/><ellipse cx="53.5" cy="100.5" fill="#ADD1B2" rx="11" ry="11" style="stroke: #A80036; stroke-width: 1.0;"/><path d="M56.4688,106.1406 Q55.8906,106.4375 55.25,106.5781 Q54.6094,106.7344 53.9063,106.7344 Q51.4063,106.7344 50.0781,105.0938 Q48.7656,103.4375 48.7656,100.3125 Q48.7656,97.1875 50.0781,95.5313 Q51.4063,93.875 53.9063,93.875 Q54.6094,93.875 55.25,94.0313 Q55.9063,94.1875 56.4688,94.4844 L56.4688,97.2031 Q55.8438,96.625 55.25,96.3594 Q54.6563,96.0781 54.0313,96.0781 Q52.6875,96.0781 52,97.1563 Q51.3125,98.2188 51.3125,100.3125 Q51.3125,102.4063 52,103.4844 Q52.6875,104.5469 54.0313,104.5469 Q54.6563,104.5469 55.25,104.2813 Q55.8438,104 56.4688,103.4219 L56.4688,106.1406 Z "/><text fill="#000000" font-family="sans-serif" font-size="12" lengthAdjust="spacingAndGlyphs" textLength="161" x="67.5" y="104.6543">TrackDataCalculatorTests</text><line style="stroke: #A80036; stroke-width: 1.5;" x1="39.5" x2="230.5" y1="116.5" y2="116.5"/><line style="stroke: #A80036; stroke-width: 1.5;" x1="39.5" x2="230.5" y1="124.5" y2="124.5"/><!--MD5=[a6f6d6498f8ad0fd1149c5a16bc55d36]
reverse link MiddlewareCommInterface to MiddlewareCommInterfaceImplementation--><path d="M2533,167.97 C2533,191.85 2533,219.39 2533,243.16 " fill="none" id="MiddlewareCommInterface&lt;-MiddlewareCommInterfaceImplementation" style="stroke: #A80036; stroke-width: 1.0; stroke-dasharray: 7.0,7.0;"/><polygon fill="none" points="2526,167.69,2533,147.69,2540,167.69,2526,167.69" style="stroke: #A80036; stroke-width: 1.0;"/><!--MD5=[497c69cbff9542047faf5ca77780c8cb]
reverse link MiddlewareCommLinkManager to MiddlewareCommLinkManagerImplementation--><path d="M2014.05,165.56 C2022.53,181.91 2031.98,200.14 2041.12,217.77 " fill="none" id="MiddlewareCommLinkManager&lt;-MiddlewareCommLinkManagerImplementation" style="stroke: #A80036; stroke-width: 1.0; stroke-dasharray: 7.0,7.0;"/><polygon fill="none" points="2007.79,168.67,2004.8,147.69,2020.21,162.23,2007.79,168.67" style="stroke: #A80036; stroke-width: 1.0;"/><!--MD5=[8e69def7a54ed81078168d5d1d8487c9]
reverse link MiddlewareCommDatabaseInterface to MiddlewareCommDatabaseInterfaceImplementation--><path d="M1618.3,167.61 C1621.31,191.57 1624.79,219.27 1627.8,243.16 " fill="none" id="MiddlewareCommDatabaseInterface&lt;-MiddlewareCommDatabaseInterfaceImplementation" style="stroke: #A80036; stroke-width: 1.0; stroke-dasharray: 7.0,7.0;"/><polygon fill="none" points="1611.35,168.41,1615.8,147.69,1625.24,166.66,1611.35,168.41" style="stroke: #A80036; stroke-width: 1.0;"/><!--MD5=[07eefeefbddab6e40f3001aaadb4b811]
link MiddlewareCommLinkManagerImplementation to TrackDataCalculator--><path d="M1902.86,385.05 C1878.69,394.1 1853.98,402.41 1830,409 C1701.41,444.35 1554.88,466.71 1432.43,480.61 " fill="none" id="MiddlewareCommLinkManagerImplementation-&gt;TrackDataCalculator" style="stroke: #A80036; stroke-width: 1.0; stroke-dasharray: 7.0,7.0;"/><polygon fill="#A80036" points="1427.35,481.18,1436.7395,484.1528,1432.3189,480.6231,1435.8485,476.2025,1427.35,481.18" style="stroke: #A80036; stroke-width: 1.0;"/><!--MD5=[7fa180022f459ef85d1acc77bc346e55]
link MiddlewareCommInterfaceImplementationTests to MiddlewareCommLinkManagerStub--><path d="M1241.29,132.54 C1244.35,163.3 1249.83,218.41 1253.68,257.09 " fill="none" id="MiddlewareCommInterfaceImplementationTests-&gt;MiddlewareCommLinkManagerStub" style="stroke: #A80036; stroke-width: 1.0; stroke-dasharray: 7.0,7.0;"/><polygon fill="#A80036" points="1254.19,262.2,1257.2985,252.8546,1253.7052,257.2236,1249.3362,253.6303,1254.19,262.2" style="stroke: #A80036; stroke-width: 1.0;"/><!--MD5=[2fd20703f0701fa98274185fc4989096]
link MiddlewareCommLinkManagerImplementationTests to MiddlewareCommDatabaseInterfaceStub--><path d="M876.47,158.19 C883.68,188.8 892.91,227.94 899.85,257.42 " fill="none" id="MiddlewareCommLinkManagerImplementationTests-&gt;MiddlewareCommDatabaseInterfaceStub" style="stroke: #A80036; stroke-width: 1.0; stroke-dasharray: 7.0,7.0;"/><polygon fill="#A80036" points="901.03,262.44,902.8686,252.7643,899.888,257.5722,895.0801,254.5915,901.03,262.44" style="stroke: #A80036; stroke-width: 1.0;"/><!--MD5=[52509b0176968f875548ba7b6727e5db]
link MiddlewareCommDatabaseInterfaceImplementationTests to DatabaseCommInterfaceStub--><path d="M461,145.88 C461,170.12 461,202.76 461,231.8 " fill="none" id="MiddlewareCommDatabaseInterfaceImplementationTests-&gt;DatabaseCommInterfaceStub" style="stroke: #A80036; stroke-width: 1.0; stroke-dasharray: 7.0,7.0;"/><polygon fill="#A80036" points="461,236.8,465,227.8,461,231.8,457,227.8,461,236.8" style="stroke: #A80036; stroke-width: 1.0;"/><!--MD5=[b7be4b6db61c888b240eee15c81cfa97]
link MiddlewareCommInterfaceImplementationTests to MiddlewareCommInterfaceImplementation--><path d="M1321.84,132.62 C1358.4,141.95 1402.06,151.94 1442,158 C1837.03,217.97 1950.37,125.18 2339,218 C2363.11,223.76 2388.05,232.25 2411.68,241.61 " fill="none" id="MiddlewareCommInterfaceImplementationTests-&gt;MiddlewareCommInterfaceImplementation" style="stroke: #A80036; stroke-width: 1.0; stroke-dasharray: 7.0,7.0;"/><polygon fill="#A80036" points="2416.39,243.5,2409.5193,236.4436,2411.7476,241.643,2406.5481,243.8714,2416.39,243.5" style="stroke: #A80036; stroke-width: 1.0;"/><!--MD5=[103579e4ea01d223111d0dbd0a71b306]
link MiddlewareCommLinkManagerImplementationTests to MiddlewareCommLinkManagerImplementation--><path d="M1040.14,154.86 C1046.15,155.99 1052.12,157.04 1058,158 C1397.65,213.47 1492.43,151.04 1830,218 C1833.92,218.78 1837.86,219.6 1841.82,220.45 " fill="none" id="MiddlewareCommLinkManagerImplementationTests-&gt;MiddlewareCommLinkManagerImplementation" style="stroke: #A80036; stroke-width: 1.0; stroke-dasharray: 7.0,7.0;"/><polygon fill="#A80036" points="1846.84,221.55,1838.9057,215.715,1841.9561,220.479,1837.1921,223.5293,1846.84,221.55" style="stroke: #A80036; stroke-width: 1.0;"/><!--MD5=[43c3af790da194ec4c8637f83c23fde0]
link MiddlewareCommDatabaseInterfaceImplementationTests to MiddlewareCommDatabaseInterfaceImplementation--><path d="M605.58,145.5 C628.05,150.25 651.08,154.63 673,158 C1001.32,208.51 1093.96,144.91 1418,218 C1444.37,223.95 1471.82,232.44 1497.97,241.74 " fill="none" id="MiddlewareCommDatabaseInterfaceImplementationTests-&gt;MiddlewareCommDatabaseInterfaceImplementation" style="stroke: #A80036; stroke-width: 1.0; stroke-dasharray: 7.0,7.0;"/><polygon fill="#A80036" points="1502.84,243.49,1495.7123,236.6933,1498.1319,241.8065,1493.0187,244.2262,1502.84,243.49" style="stroke: #A80036; stroke-width: 1.0;"/><!--MD5=[b7f4c9447f2e238dc6bbfb46bebb205f]
link TrackDataCalculatorTests to TrackDataCalculator--><path d="M135.7,132.56 C138.79,189.95 155.48,339.58 245,409 C296.33,448.81 649.52,475.38 903.73,489.58 " fill="none" id="TrackDataCalculatorTests-&gt;TrackDataCalculator" style="stroke: #A80036; stroke-width: 1.0; stroke-dasharray: 7.0,7.0;"/><polygon fill="#A80036" points="908.96,489.87,900.2036,485.3616,903.9682,489.5839,899.7459,493.3485,908.96,489.87" style="stroke: #A80036; stroke-width: 1.0;"/><!--MD5=[a1cf72e0ac52b4d843c7c634d1a14535]
reverse link MiddlewareCommLinkManager to MiddlewareCommLinkManagerStub--><path d="M1854.42,137.93 C1822.88,144.65 1789.26,151.69 1758,158 C1617.87,186.27 1578.37,175.13 1442,218 C1404.93,229.65 1365.41,246.71 1332.54,262.3 " fill="none" id="MiddlewareCommLinkManager&lt;-MiddlewareCommLinkManagerStub" style="stroke: #A80036; stroke-width: 1.0; stroke-dasharray: 7.0,7.0;"/><polygon fill="none" points="1853.24,131.03,1874.27,133.69,1856.17,144.72,1853.24,131.03" style="stroke: #A80036; stroke-width: 1.0;"/><!--MD5=[bcb237fc50e7c64a2e386cbf2da92530]
reverse link MiddlewareCommDatabaseInterface to MiddlewareCommDatabaseInterfaceStub--><path d="M1462.36,147.64 C1447.4,151.24 1432.41,154.75 1418,158 C1284.92,187.97 1247.79,179.25 1117,218 C1076.2,230.09 1032.24,247.02 995.37,262.4 " fill="none" id="MiddlewareCommDatabaseInterface&lt;-MiddlewareCommDatabaseInterfaceStub" style="stroke: #A80036; stroke-width: 1.0; stroke-dasharray: 7.0,7.0;"/><polygon fill="none" points="1460.87,140.79,1481.96,142.86,1464.18,154.4,1460.87,140.79" style="stroke: #A80036; stroke-width: 1.0;"/><!--MD5=[35279991ad8abf179c9736d1b75512cc]
@startuml Middleware02Packages_InternalDependencies


package edu.oakland.production.middleware02 {
    
}


package edu.oakland.production.middleware02 {
    interface MiddlewareCommInterface {
        __
        .. Use Case 1 ..
        {abstract} + TrackData requestRfid(int rfid)
    }
}


package edu.oakland.production.middleware02 {
    interface MiddlewareCommLinkManager {
        __
        .. Use Case 1 ..
        {abstract} + TrackData parseRfid(int rfid)
    }
}


package edu.oakland.production.middleware02 {
    interface MiddlewareCommDatabaseInterface {
        __
        .. Use Case 1 ..
        {abstract} + int checkCurrentRfid()
    }
}


package edu.oakland.production.middleware02 {
    class MiddlewareCommInterfaceImplementation {
        - MiddlewareCommLinkManager middlewareManager
        __
        + MiddlewareCommInterfaceImplementation(
        \tMiddlewareCommLinkManager middlewareManager)
        .. Use Case 1 ..
        + TrackData requestRfid(int rfid)
}


MiddlewareCommInterfaceImplementation .up.|> MiddlewareCommInterface

package edu.oakland.production.middleware02 {
    class MiddlewareCommLinkManagerImplementation {
        - MiddlewareCommDatabaseInterface middlewareCommDatabaseInterface
        - MiddlewareGisManager middlewareGisManager
        __
        + MiddlewareCommLinkManagerImplementation(
        \tMiddlewareCommDatabaseInterface middlewareCommDatabaseInterface
        \tMiddlewareGisManager middlewareGisManager)
        .. Use Case 1 ..
        + TrackData parseRfid(int rfid)
        - float calculateLocationDataPoint()
        - float calculateTrackData()
    }
}


MiddlewareCommLinkManagerImplementation .up.|> MiddlewareCommLinkManager

package edu.oakland.production.middleware02 {
    class MiddlewareCommDatabaseInterfaceImplementation {
        + DatabaseCommInterface databaseCommInterface
        __
        + MiddlewareCommDatabaseInterfaceImplementation(
        \tDatabaseCommInterface databaseCommInterface)
        .. Use Case 1 ..
        + int checkCurrentRfid()
    }
}


MiddlewareCommDatabaseInterfaceImplementation .up.|> MiddlewareCommDatabaseInterface






package edu.oakland.helper.middleware02 {
    class TrackDataCalculator {
        {static} + float calculateSpeed(LocationDataPoint[] locationDataPoints)
        {static} + float calculateDirection(LocationDataPoint[] locationDataPoints)
        {static} - LocationDataPoint[] calculateRootMeanSquared(LocationDataPoint[] locationDataPoints)
    }
}

MiddlewareCommLinkManagerImplementation ..> TrackDataCalculator


package edu.oakland.test.middleware02 {
    
}


package edu.oakland.test.middleware02 {
    class MiddlewareCommInterfaceImplementationTests {

    }
}



package edu.oakland.test.middleware02 {
    class MiddlewareCommLinkManagerStub {
        __
        .. Use Case 1 ..
        + TrackData parseRfid(int rfid)
    }
}

MiddlewareCommInterfaceImplementationTests ..> MiddlewareCommLinkManagerStub

package edu.oakland.test.middleware02 {
    class MiddlewareCommLinkManagerImplementationTests {
      + void verifyTrackLengthTest()
      + void rfidInIsRfidOut()
      + void gpsDataInIsGpsDataOut()
      + void trackDataInIsTrackDataOut()
    }
}



package edu.oakland.test.middleware02 {
    class MiddlewareCommDatabaseInterfaceStub {
        __
        .. Use Case 1 ..
        + int checkCurrentRfid()
    }
}

MiddlewareCommLinkManagerImplementationTests ..> MiddlewareCommDatabaseInterfaceStub

package edu.oakland.test.middleware02 {
    class MiddlewareCommDatabaseInterfaceImplementationTests {
        + void rfidInIsRfidOut()
        + void databaseCommInterfaceIsNotNull()
    }
}



package edu.oakland.test.middleware02 {
    class DatabaseCommInterfaceStub {
        __
        .. Use Case 1 ..
        {abstract} + int receiveGetRfidRequest()
        {abstract} + LocationDataPoint receiveGetLocationDataPointRequest(int offset)
        {abstract} + TrackData receiveGetTrackDataRequest(int offset)
        {abstract} + void storeTrackDataRequest(TrackData trackData)
        {abstract} + String receiveGetModeRequest()
    }
}

MiddlewareCommDatabaseInterfaceImplementationTests ..> DatabaseCommInterfaceStub

package edu.oakland.test.middleware02 {
    class TrackDataCalculatorTests {

    }
}


MiddlewareCommInterfaceImplementationTests ..> MiddlewareCommInterfaceImplementation
MiddlewareCommLinkManagerImplementationTests ..> MiddlewareCommLinkManagerImplementation
MiddlewareCommDatabaseInterfaceImplementationTests ..> MiddlewareCommDatabaseInterfaceImplementation
TrackDataCalculatorTests ..> TrackDataCalculator
MiddlewareCommLinkManagerStub .up.|> MiddlewareCommLinkManager
MiddlewareCommDatabaseInterfaceStub .up.|> MiddlewareCommDatabaseInterface


package edu.oakland.helper.middleware02 {
    
}




@enduml

PlantUML version 1.2020.02(Sun Mar 01 10:22:07 GMT 2020)
(GPL source distribution)
Java Runtime: OpenJDK Runtime Environment
JVM: OpenJDK 64-Bit Server VM
Java Version: 11.0.9+11-Ubuntu-0ubuntu1
Operating System: Linux
Default Encoding: ANSI_X3.4-1968
Language: en
Country: US
--></g></svg>