<?xml version="1.0" encoding="UTF-8" standalone="no"?><svg xmlns="http://www.w3.org/2000/svg" xmlns:xlink="http://www.w3.org/1999/xlink" contentScriptType="application/ecmascript" contentStyleType="text/css" height="361px" preserveAspectRatio="none" style="width:1702px;height:361px;" version="1.1" viewBox="0 0 1702 361" width="1702px" zoomAndPan="magnify"><defs><filter height="300%" id="f1asieidy1rarm" width="300%" x="-1" y="-1"><feGaussianBlur result="blurOut" stdDeviation="2.0"/><feColorMatrix in="blurOut" result="blurOut2" type="matrix" values="0 0 0 0 0 0 0 0 0 0 0 0 0 0 0 0 0 0 .4 0"/><feOffset dx="4.0" dy="4.0" in="blurOut2" result="blurOut3"/><feBlend in="SourceGraphic" in2="blurOut3" mode="normal"/></filter></defs><g><!--MD5=[33504725b8a69ba2207f0a836957a91c]
cluster edu.oakland.production.middleware02--><polygon fill="#FFFFFF" filter="url(#f1asieidy1rarm)" points="614.5,24,924.5,24,931.5,46.2969,1680.5,46.2969,1680.5,349,614.5,349,614.5,24" style="stroke: #000000; stroke-width: 1.5;"/><line style="stroke: #000000; stroke-width: 1.5;" x1="614.5" x2="931.5" y1="46.2969" y2="46.2969"/><text fill="#000000" font-family="sans-serif" font-size="14" font-weight="bold" lengthAdjust="spacingAndGlyphs" textLength="304" x="618.5" y="38.9951">edu.oakland.production.middleware02</text><!--MD5=[d3cb230b9040bd9072bb1f490e167601]
class MiddlewareCommInterface--><rect fill="#FEFECE" filter="url(#f1asieidy1rarm)" height="107.2188" id="MiddlewareCommInterface" style="stroke: #A80036; stroke-width: 1.5;" width="198" x="678.5" y="59"/><ellipse cx="693.5" cy="75" fill="#B4A7E5" rx="11" ry="11" style="stroke: #A80036; stroke-width: 1.0;"/><path d="M689.4219,70.7656 L689.4219,68.6094 L696.8125,68.6094 L696.8125,70.7656 L694.3438,70.7656 L694.3438,78.8438 L696.8125,78.8438 L696.8125,81 L689.4219,81 L689.4219,78.8438 L691.8906,78.8438 L691.8906,70.7656 L689.4219,70.7656 Z "/><text fill="#000000" font-family="sans-serif" font-size="12" font-style="italic" lengthAdjust="spacingAndGlyphs" textLength="166" x="707.5" y="79.1543">MiddlewareCommInterface</text><line style="stroke: #A80036; stroke-width: 1.5;" x1="679.5" x2="875.5" y1="91" y2="91"/><line style="stroke: #A80036; stroke-width: 1.5;" x1="679.5" x2="875.5" y1="99" y2="99"/><ellipse cx="689.5" cy="126.8047" fill="#84BE84" rx="3" ry="3" style="stroke: #038048; stroke-width: 1.0;"/><text fill="#000000" font-family="sans-serif" font-size="11" font-style="italic" lengthAdjust="spacingAndGlyphs" textLength="171" x="698.5" y="130.0151">TrackData requestRfid(int rfid)</text><line style="stroke: #A80036; stroke-width: 1.0; stroke-dasharray: 1.0,2.0;" x1="679.5" x2="744.5" y1="113.4023" y2="113.4023"/><text fill="#000000" font-family="sans-serif" font-size="11" lengthAdjust="spacingAndGlyphs" textLength="66" x="744.5" y="116.7104">Use Case 1</text><line style="stroke: #A80036; stroke-width: 1.0; stroke-dasharray: 1.0,2.0;" x1="810.5" x2="875.5" y1="113.4023" y2="113.4023"/><text fill="#000000" font-family="sans-serif" font-size="11" lengthAdjust="spacingAndGlyphs" textLength="0" x="688.5" y="159.6245"/><line style="stroke: #A80036; stroke-width: 1.0; stroke-dasharray: 1.0,2.0;" x1="679.5" x2="744.5" y1="143.0117" y2="143.0117"/><text fill="#000000" font-family="sans-serif" font-size="11" lengthAdjust="spacingAndGlyphs" textLength="66" x="744.5" y="146.3198">Use Case 2</text><line style="stroke: #A80036; stroke-width: 1.0; stroke-dasharray: 1.0,2.0;" x1="810.5" x2="875.5" y1="143.0117" y2="143.0117"/><!--MD5=[d01e667c21cf622da77e8a7601ca5c91]
class MiddlewareCommLinkManager--><rect fill="#FEFECE" filter="url(#f1asieidy1rarm)" height="107.2188" id="MiddlewareCommLinkManager" style="stroke: #A80036; stroke-width: 1.5;" width="221" x="1007" y="59"/><ellipse cx="1022" cy="75" fill="#B4A7E5" rx="11" ry="11" style="stroke: #A80036; stroke-width: 1.0;"/><path d="M1017.9219,70.7656 L1017.9219,68.6094 L1025.3125,68.6094 L1025.3125,70.7656 L1022.8438,70.7656 L1022.8438,78.8438 L1025.3125,78.8438 L1025.3125,81 L1017.9219,81 L1017.9219,78.8438 L1020.3906,78.8438 L1020.3906,70.7656 L1017.9219,70.7656 Z "/><text fill="#000000" font-family="sans-serif" font-size="12" font-style="italic" lengthAdjust="spacingAndGlyphs" textLength="189" x="1036" y="79.1543">MiddlewareCommLinkManager</text><line style="stroke: #A80036; stroke-width: 1.5;" x1="1008" x2="1227" y1="91" y2="91"/><line style="stroke: #A80036; stroke-width: 1.5;" x1="1008" x2="1227" y1="99" y2="99"/><ellipse cx="1018" cy="126.8047" fill="#84BE84" rx="3" ry="3" style="stroke: #038048; stroke-width: 1.0;"/><text fill="#000000" font-family="sans-serif" font-size="11" font-style="italic" lengthAdjust="spacingAndGlyphs" textLength="160" x="1027" y="130.0151">TrackData parseRfid(int rfid)</text><line style="stroke: #A80036; stroke-width: 1.0; stroke-dasharray: 1.0,2.0;" x1="1008" x2="1084.5" y1="113.4023" y2="113.4023"/><text fill="#000000" font-family="sans-serif" font-size="11" lengthAdjust="spacingAndGlyphs" textLength="66" x="1084.5" y="116.7104">Use Case 1</text><line style="stroke: #A80036; stroke-width: 1.0; stroke-dasharray: 1.0,2.0;" x1="1150.5" x2="1227" y1="113.4023" y2="113.4023"/><text fill="#000000" font-family="sans-serif" font-size="11" lengthAdjust="spacingAndGlyphs" textLength="0" x="1017" y="159.6245"/><line style="stroke: #A80036; stroke-width: 1.0; stroke-dasharray: 1.0,2.0;" x1="1008" x2="1084.5" y1="143.0117" y2="143.0117"/><text fill="#000000" font-family="sans-serif" font-size="11" lengthAdjust="spacingAndGlyphs" textLength="66" x="1084.5" y="146.3198">Use Case 2</text><line style="stroke: #A80036; stroke-width: 1.0; stroke-dasharray: 1.0,2.0;" x1="1150.5" x2="1227" y1="143.0117" y2="143.0117"/><!--MD5=[4915649770e9045e9ea9156a01fd67e8]
class MiddlewareCommDatabaseInterface--><rect fill="#FEFECE" filter="url(#f1asieidy1rarm)" height="107.2188" id="MiddlewareCommDatabaseInterface" style="stroke: #A80036; stroke-width: 1.5;" width="258" x="1358.5" y="59"/><ellipse cx="1373.5" cy="75" fill="#B4A7E5" rx="11" ry="11" style="stroke: #A80036; stroke-width: 1.0;"/><path d="M1369.4219,70.7656 L1369.4219,68.6094 L1376.8125,68.6094 L1376.8125,70.7656 L1374.3438,70.7656 L1374.3438,78.8438 L1376.8125,78.8438 L1376.8125,81 L1369.4219,81 L1369.4219,78.8438 L1371.8906,78.8438 L1371.8906,70.7656 L1369.4219,70.7656 Z "/><text fill="#000000" font-family="sans-serif" font-size="12" font-style="italic" lengthAdjust="spacingAndGlyphs" textLength="226" x="1387.5" y="79.1543">MiddlewareCommDatabaseInterface</text><line style="stroke: #A80036; stroke-width: 1.5;" x1="1359.5" x2="1615.5" y1="91" y2="91"/><line style="stroke: #A80036; stroke-width: 1.5;" x1="1359.5" x2="1615.5" y1="99" y2="99"/><ellipse cx="1369.5" cy="126.8047" fill="#84BE84" rx="3" ry="3" style="stroke: #038048; stroke-width: 1.0;"/><text fill="#000000" font-family="sans-serif" font-size="11" font-style="italic" lengthAdjust="spacingAndGlyphs" textLength="123" x="1378.5" y="130.0151">int checkCurrentRfid()</text><line style="stroke: #A80036; stroke-width: 1.0; stroke-dasharray: 1.0,2.0;" x1="1359.5" x2="1454.5" y1="113.4023" y2="113.4023"/><text fill="#000000" font-family="sans-serif" font-size="11" lengthAdjust="spacingAndGlyphs" textLength="66" x="1454.5" y="116.7104">Use Case 1</text><line style="stroke: #A80036; stroke-width: 1.0; stroke-dasharray: 1.0,2.0;" x1="1520.5" x2="1615.5" y1="113.4023" y2="113.4023"/><text fill="#000000" font-family="sans-serif" font-size="11" lengthAdjust="spacingAndGlyphs" textLength="0" x="1368.5" y="159.6245"/><line style="stroke: #A80036; stroke-width: 1.0; stroke-dasharray: 1.0,2.0;" x1="1359.5" x2="1454.5" y1="143.0117" y2="143.0117"/><text fill="#000000" font-family="sans-serif" font-size="11" lengthAdjust="spacingAndGlyphs" textLength="66" x="1454.5" y="146.3198">Use Case 2</text><line style="stroke: #A80036; stroke-width: 1.0; stroke-dasharray: 1.0,2.0;" x1="1520.5" x2="1615.5" y1="143.0117" y2="143.0117"/><!--MD5=[0a03c366ade61429da89cc477d567a32]
class MiddlewareCommInterfaceImplementation--><rect fill="#FEFECE" filter="url(#f1asieidy1rarm)" height="107.2188" id="MiddlewareCommInterfaceImplementation" style="stroke: #A80036; stroke-width: 1.5;" width="293" x="631" y="226"/><ellipse cx="646" cy="242" fill="#ADD1B2" rx="11" ry="11" style="stroke: #A80036; stroke-width: 1.0;"/><path d="M648.9688,247.6406 Q648.3906,247.9375 647.75,248.0781 Q647.1094,248.2344 646.4063,248.2344 Q643.9063,248.2344 642.5781,246.5938 Q641.2656,244.9375 641.2656,241.8125 Q641.2656,238.6875 642.5781,237.0313 Q643.9063,235.375 646.4063,235.375 Q647.1094,235.375 647.75,235.5313 Q648.4063,235.6875 648.9688,235.9844 L648.9688,238.7031 Q648.3438,238.125 647.75,237.8594 Q647.1563,237.5781 646.5313,237.5781 Q645.1875,237.5781 644.5,238.6563 Q643.8125,239.7188 643.8125,241.8125 Q643.8125,243.9063 644.5,244.9844 Q645.1875,246.0469 646.5313,246.0469 Q647.1563,246.0469 647.75,245.7813 Q648.3438,245.5 648.9688,244.9219 L648.9688,247.6406 Z "/><text fill="#000000" font-family="sans-serif" font-size="12" lengthAdjust="spacingAndGlyphs" textLength="261" x="660" y="246.1543">MiddlewareCommInterfaceImplementation</text><line style="stroke: #A80036; stroke-width: 1.5;" x1="632" x2="923" y1="258" y2="258"/><line style="stroke: #A80036; stroke-width: 1.5;" x1="632" x2="923" y1="266" y2="266"/><text fill="#000000" font-family="sans-serif" font-size="11" lengthAdjust="spacingAndGlyphs" textLength="0" x="641" y="297.0151"/><line style="stroke: #A80036; stroke-width: 1.0; stroke-dasharray: 1.0,2.0;" x1="632" x2="744.5" y1="280.4023" y2="280.4023"/><text fill="#000000" font-family="sans-serif" font-size="11" lengthAdjust="spacingAndGlyphs" textLength="66" x="744.5" y="283.7104">Use Case 1</text><line style="stroke: #A80036; stroke-width: 1.0; stroke-dasharray: 1.0,2.0;" x1="810.5" x2="923" y1="280.4023" y2="280.4023"/><text fill="#000000" font-family="sans-serif" font-size="11" lengthAdjust="spacingAndGlyphs" textLength="0" x="641" y="326.6245"/><line style="stroke: #A80036; stroke-width: 1.0; stroke-dasharray: 1.0,2.0;" x1="632" x2="744.5" y1="310.0117" y2="310.0117"/><text fill="#000000" font-family="sans-serif" font-size="11" lengthAdjust="spacingAndGlyphs" textLength="66" x="744.5" y="313.3198">Use Case 2</text><line style="stroke: #A80036; stroke-width: 1.0; stroke-dasharray: 1.0,2.0;" x1="810.5" x2="923" y1="310.0117" y2="310.0117"/><!--MD5=[d9ed64ee38938b46697008700ce69fba]
class MiddlewareCommLinkManagerImplementation--><rect fill="#FEFECE" filter="url(#f1asieidy1rarm)" height="107.2188" id="MiddlewareCommLinkManagerImplementation" style="stroke: #A80036; stroke-width: 1.5;" width="316" x="959.5" y="226"/><ellipse cx="974.5" cy="242" fill="#ADD1B2" rx="11" ry="11" style="stroke: #A80036; stroke-width: 1.0;"/><path d="M977.4688,247.6406 Q976.8906,247.9375 976.25,248.0781 Q975.6094,248.2344 974.9063,248.2344 Q972.4063,248.2344 971.0781,246.5938 Q969.7656,244.9375 969.7656,241.8125 Q969.7656,238.6875 971.0781,237.0313 Q972.4063,235.375 974.9063,235.375 Q975.6094,235.375 976.25,235.5313 Q976.9063,235.6875 977.4688,235.9844 L977.4688,238.7031 Q976.8438,238.125 976.25,237.8594 Q975.6563,237.5781 975.0313,237.5781 Q973.6875,237.5781 973,238.6563 Q972.3125,239.7188 972.3125,241.8125 Q972.3125,243.9063 973,244.9844 Q973.6875,246.0469 975.0313,246.0469 Q975.6563,246.0469 976.25,245.7813 Q976.8438,245.5 977.4688,244.9219 L977.4688,247.6406 Z "/><text fill="#000000" font-family="sans-serif" font-size="12" lengthAdjust="spacingAndGlyphs" textLength="284" x="988.5" y="246.1543">MiddlewareCommLinkManagerImplementation</text><line style="stroke: #A80036; stroke-width: 1.5;" x1="960.5" x2="1274.5" y1="258" y2="258"/><line style="stroke: #A80036; stroke-width: 1.5;" x1="960.5" x2="1274.5" y1="266" y2="266"/><text fill="#000000" font-family="sans-serif" font-size="11" lengthAdjust="spacingAndGlyphs" textLength="0" x="969.5" y="297.0151"/><line style="stroke: #A80036; stroke-width: 1.0; stroke-dasharray: 1.0,2.0;" x1="960.5" x2="1084.5" y1="280.4023" y2="280.4023"/><text fill="#000000" font-family="sans-serif" font-size="11" lengthAdjust="spacingAndGlyphs" textLength="66" x="1084.5" y="283.7104">Use Case 1</text><line style="stroke: #A80036; stroke-width: 1.0; stroke-dasharray: 1.0,2.0;" x1="1150.5" x2="1274.5" y1="280.4023" y2="280.4023"/><text fill="#000000" font-family="sans-serif" font-size="11" lengthAdjust="spacingAndGlyphs" textLength="0" x="969.5" y="326.6245"/><line style="stroke: #A80036; stroke-width: 1.0; stroke-dasharray: 1.0,2.0;" x1="960.5" x2="1084.5" y1="310.0117" y2="310.0117"/><text fill="#000000" font-family="sans-serif" font-size="11" lengthAdjust="spacingAndGlyphs" textLength="66" x="1084.5" y="313.3198">Use Case 2</text><line style="stroke: #A80036; stroke-width: 1.0; stroke-dasharray: 1.0,2.0;" x1="1150.5" x2="1274.5" y1="310.0117" y2="310.0117"/><!--MD5=[1c4f9654f103878faf4a10c0361188b9]
class MiddlewareCommDatabaseInterfaceImplementation--><rect fill="#FEFECE" filter="url(#f1asieidy1rarm)" height="107.2188" id="MiddlewareCommDatabaseInterfaceImplementation" style="stroke: #A80036; stroke-width: 1.5;" width="354" x="1310.5" y="226"/><ellipse cx="1325.5" cy="242" fill="#ADD1B2" rx="11" ry="11" style="stroke: #A80036; stroke-width: 1.0;"/><path d="M1328.4688,247.6406 Q1327.8906,247.9375 1327.25,248.0781 Q1326.6094,248.2344 1325.9063,248.2344 Q1323.4063,248.2344 1322.0781,246.5938 Q1320.7656,244.9375 1320.7656,241.8125 Q1320.7656,238.6875 1322.0781,237.0313 Q1323.4063,235.375 1325.9063,235.375 Q1326.6094,235.375 1327.25,235.5313 Q1327.9063,235.6875 1328.4688,235.9844 L1328.4688,238.7031 Q1327.8438,238.125 1327.25,237.8594 Q1326.6563,237.5781 1326.0313,237.5781 Q1324.6875,237.5781 1324,238.6563 Q1323.3125,239.7188 1323.3125,241.8125 Q1323.3125,243.9063 1324,244.9844 Q1324.6875,246.0469 1326.0313,246.0469 Q1326.6563,246.0469 1327.25,245.7813 Q1327.8438,245.5 1328.4688,244.9219 L1328.4688,247.6406 Z "/><text fill="#000000" font-family="sans-serif" font-size="12" lengthAdjust="spacingAndGlyphs" textLength="322" x="1339.5" y="246.1543">MiddlewareCommDatabaseInterfaceImplementation</text><line style="stroke: #A80036; stroke-width: 1.5;" x1="1311.5" x2="1663.5" y1="258" y2="258"/><line style="stroke: #A80036; stroke-width: 1.5;" x1="1311.5" x2="1663.5" y1="266" y2="266"/><text fill="#000000" font-family="sans-serif" font-size="11" lengthAdjust="spacingAndGlyphs" textLength="0" x="1320.5" y="297.0151"/><line style="stroke: #A80036; stroke-width: 1.0; stroke-dasharray: 1.0,2.0;" x1="1311.5" x2="1454.5" y1="280.4023" y2="280.4023"/><text fill="#000000" font-family="sans-serif" font-size="11" lengthAdjust="spacingAndGlyphs" textLength="66" x="1454.5" y="283.7104">Use Case 1</text><line style="stroke: #A80036; stroke-width: 1.0; stroke-dasharray: 1.0,2.0;" x1="1520.5" x2="1663.5" y1="280.4023" y2="280.4023"/><text fill="#000000" font-family="sans-serif" font-size="11" lengthAdjust="spacingAndGlyphs" textLength="0" x="1320.5" y="326.6245"/><line style="stroke: #A80036; stroke-width: 1.0; stroke-dasharray: 1.0,2.0;" x1="1311.5" x2="1454.5" y1="310.0117" y2="310.0117"/><text fill="#000000" font-family="sans-serif" font-size="11" lengthAdjust="spacingAndGlyphs" textLength="66" x="1454.5" y="313.3198">Use Case 2</text><line style="stroke: #A80036; stroke-width: 1.0; stroke-dasharray: 1.0,2.0;" x1="1520.5" x2="1663.5" y1="310.0117" y2="310.0117"/><polygon fill="#FFFFFF" filter="url(#f1asieidy1rarm)" points="6,86,261,86,268,108.2969,275,108.2969,275,138.5938,6,138.5938,6,86" style="stroke: #000000; stroke-width: 1.5;"/><line style="stroke: #000000; stroke-width: 1.5;" x1="6" x2="268" y1="108.2969" y2="108.2969"/><text fill="#000000" font-family="sans-serif" font-size="14" font-weight="bold" lengthAdjust="spacingAndGlyphs" textLength="249" x="10" y="100.9951">edu.oakland.test.middleware02</text><polygon fill="#FFFFFF" filter="url(#f1asieidy1rarm)" points="310,86,585,86,592,108.2969,599,108.2969,599,138.5938,310,138.5938,310,86" style="stroke: #000000; stroke-width: 1.5;"/><line style="stroke: #000000; stroke-width: 1.5;" x1="310" x2="592" y1="108.2969" y2="108.2969"/><text fill="#000000" font-family="sans-serif" font-size="14" font-weight="bold" lengthAdjust="spacingAndGlyphs" textLength="269" x="314" y="100.9951">edu.oakland.helper.middleware02</text><!--MD5=[a6f6d6498f8ad0fd1149c5a16bc55d36]
reverse link MiddlewareCommInterface to MiddlewareCommInterfaceImplementation--><path d="M777.5,186.48 C777.5,199.71 777.5,213.27 777.5,225.77 " fill="none" id="MiddlewareCommInterface&lt;-MiddlewareCommInterfaceImplementation" style="stroke: #A80036; stroke-width: 1.0; stroke-dasharray: 7.0,7.0;"/><polygon fill="none" points="770.5,186.16,777.5,166.16,784.5,186.16,770.5,186.16" style="stroke: #A80036; stroke-width: 1.0;"/><!--MD5=[497c69cbff9542047faf5ca77780c8cb]
reverse link MiddlewareCommLinkManager to MiddlewareCommLinkManagerImplementation--><path d="M1117.5,186.48 C1117.5,199.71 1117.5,213.27 1117.5,225.77 " fill="none" id="MiddlewareCommLinkManager&lt;-MiddlewareCommLinkManagerImplementation" style="stroke: #A80036; stroke-width: 1.0; stroke-dasharray: 7.0,7.0;"/><polygon fill="none" points="1110.5,186.16,1117.5,166.16,1124.5,186.16,1110.5,186.16" style="stroke: #A80036; stroke-width: 1.0;"/><!--MD5=[8e69def7a54ed81078168d5d1d8487c9]
reverse link MiddlewareCommDatabaseInterface to MiddlewareCommDatabaseInterfaceImplementation--><path d="M1487.5,186.48 C1487.5,199.71 1487.5,213.27 1487.5,225.77 " fill="none" id="MiddlewareCommDatabaseInterface&lt;-MiddlewareCommDatabaseInterfaceImplementation" style="stroke: #A80036; stroke-width: 1.0; stroke-dasharray: 7.0,7.0;"/><polygon fill="none" points="1480.5,186.16,1487.5,166.16,1494.5,186.16,1480.5,186.16" style="stroke: #A80036; stroke-width: 1.0;"/><!--MD5=[89e7bda13c75d6299aded24085687f55]
@startuml Middleware02Packages_InternalDependencies


package edu.oakland.production.middleware02 {
    
}


package edu.oakland.production.middleware02 {
    interface MiddlewareCommInterface {
        __
        .. Use Case 1 ..
        {abstract} + TrackData requestRfid(int rfid)
        .. Use Case 2 ..

    }
}


package edu.oakland.production.middleware02 {
    interface MiddlewareCommLinkManager {
        __
        .. Use Case 1 ..
        {abstract} + TrackData parseRfid(int rfid)
        .. Use Case 2 ..

    }
}


package edu.oakland.production.middleware02 {
    interface MiddlewareCommDatabaseInterface {
        __
        .. Use Case 1 ..
        {abstract} + int checkCurrentRfid()
        .. Use Case 2 ..

    }
}


package edu.oakland.production.middleware02 {
    class MiddlewareCommInterfaceImplementation {
        __
        .. Use Case 1 ..
        
        .. Use Case 2 ..

    }
}


MiddlewareCommInterfaceImplementation .up.|> MiddlewareCommInterface

package edu.oakland.production.middleware02 {
    class MiddlewareCommLinkManagerImplementation {
        __
        .. Use Case 1 ..

        .. Use Case 2 ..

    }
}


MiddlewareCommLinkManagerImplementation .up.|> MiddlewareCommLinkManager

package edu.oakland.production.middleware02 {
    class MiddlewareCommDatabaseInterfaceImplementation {
        __
        .. Use Case 1 ..

        .. Use Case 2 ..

    }
}


MiddlewareCommDatabaseInterfaceImplementation .up.|> MiddlewareCommDatabaseInterface








package edu.oakland.test.middleware02 {
    
}


package edu.oakland.helper.middleware02 {
    
}


@enduml

PlantUML version 1.2020.02(Sun Mar 01 10:22:07 GMT 2020)
(GPL source distribution)
Java Runtime: OpenJDK Runtime Environment
JVM: OpenJDK 64-Bit Server VM
Java Version: 11.0.9+11-Ubuntu-0ubuntu1
Operating System: Linux
Default Encoding: ANSI_X3.4-1968
Language: en
Country: US
--></g></svg>