<?xml version="1.0" encoding="UTF-8" standalone="no"?><svg xmlns="http://www.w3.org/2000/svg" xmlns:xlink="http://www.w3.org/1999/xlink" contentScriptType="application/ecmascript" contentStyleType="text/css" height="553px" preserveAspectRatio="none" style="width:2748px;height:553px;" version="1.1" viewBox="0 0 2748 553" width="2748px" zoomAndPan="magnify"><defs><filter height="300%" id="f10bmgnpa0ikmu" width="300%" x="-1" y="-1"><feGaussianBlur result="blurOut" stdDeviation="2.0"/><feColorMatrix in="blurOut" result="blurOut2" type="matrix" values="0 0 0 0 0 0 0 0 0 0 0 0 0 0 0 0 0 0 .4 0"/><feOffset dx="4.0" dy="4.0" in="blurOut2" result="blurOut3"/><feBlend in="SourceGraphic" in2="blurOut3" mode="normal"/></filter></defs><g><!--MD5=[33504725b8a69ba2207f0a836957a91c]
cluster edu.oakland.production.middleware02--><polygon fill="#FFFFFF" filter="url(#f10bmgnpa0ikmu)" points="1442,24,1752,24,1759,46.2969,2726,46.2969,2726,380,1442,380,1442,24" style="stroke: #000000; stroke-width: 1.5;"/><line style="stroke: #000000; stroke-width: 1.5;" x1="1442" x2="1759" y1="46.2969" y2="46.2969"/><text fill="#000000" font-family="sans-serif" font-size="14" font-weight="bold" lengthAdjust="spacingAndGlyphs" textLength="304" x="1446" y="38.9951">edu.oakland.production.middleware02</text><!--MD5=[73d4e355f259fb8d2c716d693a5be920]
cluster edu.oakland.helper.middleware02--><polygon fill="#FFFFFF" filter="url(#f10bmgnpa0ikmu)" points="893,404,1168,404,1175,426.2969,1443,426.2969,1443,541,893,541,893,404" style="stroke: #000000; stroke-width: 1.5;"/><line style="stroke: #000000; stroke-width: 1.5;" x1="893" x2="1175" y1="426.2969" y2="426.2969"/><text fill="#000000" font-family="sans-serif" font-size="14" font-weight="bold" lengthAdjust="spacingAndGlyphs" textLength="269" x="897" y="418.9951">edu.oakland.helper.middleware02</text><!--MD5=[def9027c776d62015452659d5d6059fb]
cluster edu.oakland.test.middleware02--><polygon fill="#FFFFFF" filter="url(#f10bmgnpa0ikmu)" points="22,32.5,277,32.5,284,54.7969,1418,54.7969,1418,361,22,361,22,32.5" style="stroke: #000000; stroke-width: 1.5;"/><line style="stroke: #000000; stroke-width: 1.5;" x1="22" x2="284" y1="54.7969" y2="54.7969"/><text fill="#000000" font-family="sans-serif" font-size="14" font-weight="bold" lengthAdjust="spacingAndGlyphs" textLength="249" x="26" y="47.4951">edu.oakland.test.middleware02</text><!--MD5=[d3cb230b9040bd9072bb1f490e167601]
class MiddlewareCommInterface--><rect fill="#FEFECE" filter="url(#f10bmgnpa0ikmu)" height="77.6094" id="MiddlewareCommInterface" style="stroke: #A80036; stroke-width: 1.5;" width="198" x="2434" y="59"/><ellipse cx="2449" cy="75" fill="#B4A7E5" rx="11" ry="11" style="stroke: #A80036; stroke-width: 1.0;"/><path d="M2444.9219,70.7656 L2444.9219,68.6094 L2452.3125,68.6094 L2452.3125,70.7656 L2449.8438,70.7656 L2449.8438,78.8438 L2452.3125,78.8438 L2452.3125,81 L2444.9219,81 L2444.9219,78.8438 L2447.3906,78.8438 L2447.3906,70.7656 L2444.9219,70.7656 Z "/><text fill="#000000" font-family="sans-serif" font-size="12" font-style="italic" lengthAdjust="spacingAndGlyphs" textLength="166" x="2463" y="79.1543">MiddlewareCommInterface</text><line style="stroke: #A80036; stroke-width: 1.5;" x1="2435" x2="2631" y1="91" y2="91"/><line style="stroke: #A80036; stroke-width: 1.5;" x1="2435" x2="2631" y1="99" y2="99"/><ellipse cx="2445" cy="126.8047" fill="#84BE84" rx="3" ry="3" style="stroke: #038048; stroke-width: 1.0;"/><text fill="#000000" font-family="sans-serif" font-size="11" font-style="italic" lengthAdjust="spacingAndGlyphs" textLength="171" x="2454" y="130.0151">TrackData requestRfid(int rfid)</text><line style="stroke: #A80036; stroke-width: 1.0; stroke-dasharray: 1.0,2.0;" x1="2435" x2="2500" y1="113.4023" y2="113.4023"/><text fill="#000000" font-family="sans-serif" font-size="11" lengthAdjust="spacingAndGlyphs" textLength="66" x="2500" y="116.7104">Use Case 1</text><line style="stroke: #A80036; stroke-width: 1.0; stroke-dasharray: 1.0,2.0;" x1="2566" x2="2631" y1="113.4023" y2="113.4023"/><!--MD5=[d01e667c21cf622da77e8a7601ca5c91]
class MiddlewareCommLinkManager--><rect fill="#FEFECE" filter="url(#f10bmgnpa0ikmu)" height="77.6094" id="MiddlewareCommLinkManager" style="stroke: #A80036; stroke-width: 1.5;" width="221" x="1874.5" y="59"/><ellipse cx="1889.5" cy="75" fill="#B4A7E5" rx="11" ry="11" style="stroke: #A80036; stroke-width: 1.0;"/><path d="M1885.4219,70.7656 L1885.4219,68.6094 L1892.8125,68.6094 L1892.8125,70.7656 L1890.3438,70.7656 L1890.3438,78.8438 L1892.8125,78.8438 L1892.8125,81 L1885.4219,81 L1885.4219,78.8438 L1887.8906,78.8438 L1887.8906,70.7656 L1885.4219,70.7656 Z "/><text fill="#000000" font-family="sans-serif" font-size="12" font-style="italic" lengthAdjust="spacingAndGlyphs" textLength="189" x="1903.5" y="79.1543">MiddlewareCommLinkManager</text><line style="stroke: #A80036; stroke-width: 1.5;" x1="1875.5" x2="2094.5" y1="91" y2="91"/><line style="stroke: #A80036; stroke-width: 1.5;" x1="1875.5" x2="2094.5" y1="99" y2="99"/><ellipse cx="1885.5" cy="126.8047" fill="#84BE84" rx="3" ry="3" style="stroke: #038048; stroke-width: 1.0;"/><text fill="#000000" font-family="sans-serif" font-size="11" font-style="italic" lengthAdjust="spacingAndGlyphs" textLength="160" x="1894.5" y="130.0151">TrackData parseRfid(int rfid)</text><line style="stroke: #A80036; stroke-width: 1.0; stroke-dasharray: 1.0,2.0;" x1="1875.5" x2="1952" y1="113.4023" y2="113.4023"/><text fill="#000000" font-family="sans-serif" font-size="11" lengthAdjust="spacingAndGlyphs" textLength="66" x="1952" y="116.7104">Use Case 1</text><line style="stroke: #A80036; stroke-width: 1.0; stroke-dasharray: 1.0,2.0;" x1="2018" x2="2094.5" y1="113.4023" y2="113.4023"/><!--MD5=[4915649770e9045e9ea9156a01fd67e8]
class MiddlewareCommDatabaseInterface--><rect fill="#FEFECE" filter="url(#f10bmgnpa0ikmu)" height="77.6094" id="MiddlewareCommDatabaseInterface" style="stroke: #A80036; stroke-width: 1.5;" width="258" x="1482" y="59"/><ellipse cx="1497" cy="75" fill="#B4A7E5" rx="11" ry="11" style="stroke: #A80036; stroke-width: 1.0;"/><path d="M1492.9219,70.7656 L1492.9219,68.6094 L1500.3125,68.6094 L1500.3125,70.7656 L1497.8438,70.7656 L1497.8438,78.8438 L1500.3125,78.8438 L1500.3125,81 L1492.9219,81 L1492.9219,78.8438 L1495.3906,78.8438 L1495.3906,70.7656 L1492.9219,70.7656 Z "/><text fill="#000000" font-family="sans-serif" font-size="12" font-style="italic" lengthAdjust="spacingAndGlyphs" textLength="226" x="1511" y="79.1543">MiddlewareCommDatabaseInterface</text><line style="stroke: #A80036; stroke-width: 1.5;" x1="1483" x2="1739" y1="91" y2="91"/><line style="stroke: #A80036; stroke-width: 1.5;" x1="1483" x2="1739" y1="99" y2="99"/><ellipse cx="1493" cy="126.8047" fill="#84BE84" rx="3" ry="3" style="stroke: #038048; stroke-width: 1.0;"/><text fill="#000000" font-family="sans-serif" font-size="11" font-style="italic" lengthAdjust="spacingAndGlyphs" textLength="123" x="1502" y="130.0151">int checkCurrentRfid()</text><line style="stroke: #A80036; stroke-width: 1.0; stroke-dasharray: 1.0,2.0;" x1="1483" x2="1578" y1="113.4023" y2="113.4023"/><text fill="#000000" font-family="sans-serif" font-size="11" lengthAdjust="spacingAndGlyphs" textLength="66" x="1578" y="116.7104">Use Case 1</text><line style="stroke: #A80036; stroke-width: 1.0; stroke-dasharray: 1.0,2.0;" x1="1644" x2="1739" y1="113.4023" y2="113.4023"/><!--MD5=[0a03c366ade61429da89cc477d567a32]
class MiddlewareCommInterfaceImplementation--><rect fill="#FEFECE" filter="url(#f10bmgnpa0ikmu)" height="116.0234" id="MiddlewareCommInterfaceImplementation" style="stroke: #A80036; stroke-width: 1.5;" width="353" x="2356.5" y="222.5"/><ellipse cx="2398.5" cy="238.5" fill="#ADD1B2" rx="11" ry="11" style="stroke: #A80036; stroke-width: 1.0;"/><path d="M2401.4688,244.1406 Q2400.8906,244.4375 2400.25,244.5781 Q2399.6094,244.7344 2398.9063,244.7344 Q2396.4063,244.7344 2395.0781,243.0938 Q2393.7656,241.4375 2393.7656,238.3125 Q2393.7656,235.1875 2395.0781,233.5313 Q2396.4063,231.875 2398.9063,231.875 Q2399.6094,231.875 2400.25,232.0313 Q2400.9063,232.1875 2401.4688,232.4844 L2401.4688,235.2031 Q2400.8438,234.625 2400.25,234.3594 Q2399.6563,234.0781 2399.0313,234.0781 Q2397.6875,234.0781 2397,235.1563 Q2396.3125,236.2188 2396.3125,238.3125 Q2396.3125,240.4063 2397,241.4844 Q2397.6875,242.5469 2399.0313,242.5469 Q2399.6563,242.5469 2400.25,242.2813 Q2400.8438,242 2401.4688,241.4219 L2401.4688,244.1406 Z "/><text fill="#000000" font-family="sans-serif" font-size="12" lengthAdjust="spacingAndGlyphs" textLength="261" x="2418.5" y="242.6543">MiddlewareCommInterfaceImplementation</text><line style="stroke: #A80036; stroke-width: 1.5;" x1="2357.5" x2="2708.5" y1="254.5" y2="254.5"/><rect fill="none" height="6" style="stroke: #C82930; stroke-width: 1.0;" width="6" x="2364.5" y="262.5"/><text fill="#000000" font-family="sans-serif" font-size="11" lengthAdjust="spacingAndGlyphs" textLength="291" x="2376.5" y="268.7104">MiddlewareCommLinkManager middlewareManager</text><line style="stroke: #A80036; stroke-width: 1.5;" x1="2357.5" x2="2708.5" y1="275.3047" y2="275.3047"/><ellipse cx="2367.5" cy="286.3047" fill="#84BE84" rx="3" ry="3" style="stroke: #038048; stroke-width: 1.0;"/><text fill="#000000" font-family="sans-serif" font-size="11" lengthAdjust="spacingAndGlyphs" textLength="243" x="2376.5" y="289.5151">MiddlewareCommInterfaceImplementation(</text><text fill="#000000" font-family="sans-serif" font-size="11" lengthAdjust="spacingAndGlyphs" textLength="295" x="2408.5" y="302.3198">MiddlewareCommLinkManager middlewareManager)</text><ellipse cx="2367.5" cy="328.7188" fill="#84BE84" rx="3" ry="3" style="stroke: #038048; stroke-width: 1.0;"/><text fill="#000000" font-family="sans-serif" font-size="11" lengthAdjust="spacingAndGlyphs" textLength="171" x="2376.5" y="331.9292">TrackData requestRfid(int rfid)</text><line style="stroke: #A80036; stroke-width: 1.0; stroke-dasharray: 1.0,2.0;" x1="2357.5" x2="2500" y1="315.3164" y2="315.3164"/><text fill="#000000" font-family="sans-serif" font-size="11" lengthAdjust="spacingAndGlyphs" textLength="66" x="2500" y="318.6245">Use Case 1</text><line style="stroke: #A80036; stroke-width: 1.0; stroke-dasharray: 1.0,2.0;" x1="2566" x2="2708.5" y1="315.3164" y2="315.3164"/><!--MD5=[d9ed64ee38938b46697008700ce69fba]
class MiddlewareCommLinkManagerImplementation--><rect fill="#FEFECE" filter="url(#f10bmgnpa0ikmu)" height="167.2422" id="MiddlewareCommLinkManagerImplementation" style="stroke: #A80036; stroke-width: 1.5;" width="474" x="1847" y="197"/><ellipse cx="1937.75" cy="213" fill="#ADD1B2" rx="11" ry="11" style="stroke: #A80036; stroke-width: 1.0;"/><path d="M1940.7188,218.6406 Q1940.1406,218.9375 1939.5,219.0781 Q1938.8594,219.2344 1938.1563,219.2344 Q1935.6563,219.2344 1934.3281,217.5938 Q1933.0156,215.9375 1933.0156,212.8125 Q1933.0156,209.6875 1934.3281,208.0313 Q1935.6563,206.375 1938.1563,206.375 Q1938.8594,206.375 1939.5,206.5313 Q1940.1563,206.6875 1940.7188,206.9844 L1940.7188,209.7031 Q1940.0938,209.125 1939.5,208.8594 Q1938.9063,208.5781 1938.2813,208.5781 Q1936.9375,208.5781 1936.25,209.6563 Q1935.5625,210.7188 1935.5625,212.8125 Q1935.5625,214.9063 1936.25,215.9844 Q1936.9375,217.0469 1938.2813,217.0469 Q1938.9063,217.0469 1939.5,216.7813 Q1940.0938,216.5 1940.7188,215.9219 L1940.7188,218.6406 Z "/><text fill="#000000" font-family="sans-serif" font-size="12" lengthAdjust="spacingAndGlyphs" textLength="284" x="1958.25" y="217.1543">MiddlewareCommLinkManagerImplementation</text><line style="stroke: #A80036; stroke-width: 1.5;" x1="1848" x2="2320" y1="229" y2="229"/><rect fill="none" height="6" style="stroke: #C82930; stroke-width: 1.0;" width="6" x="1855" y="237"/><text fill="#000000" font-family="sans-serif" font-size="11" lengthAdjust="spacingAndGlyphs" textLength="416" x="1867" y="243.2104">MiddlewareCommDatabaseInterface middlewareCommDatabaseInterface</text><rect fill="none" height="6" style="stroke: #C82930; stroke-width: 1.0;" width="6" x="1855" y="249.8047"/><text fill="#000000" font-family="sans-serif" font-size="11" lengthAdjust="spacingAndGlyphs" textLength="270" x="1867" y="256.0151">MiddlewareGisManager middlewareGisManager</text><line style="stroke: #A80036; stroke-width: 1.5;" x1="1848" x2="2320" y1="262.6094" y2="262.6094"/><ellipse cx="1858" cy="273.6094" fill="#84BE84" rx="3" ry="3" style="stroke: #038048; stroke-width: 1.0;"/><text fill="#000000" font-family="sans-serif" font-size="11" lengthAdjust="spacingAndGlyphs" textLength="264" x="1867" y="276.8198">MiddlewareCommLinkManagerImplementation(</text><text fill="#000000" font-family="sans-serif" font-size="11" lengthAdjust="spacingAndGlyphs" textLength="416" x="1899" y="289.6245">MiddlewareCommDatabaseInterface middlewareCommDatabaseInterface</text><text fill="#000000" font-family="sans-serif" font-size="11" lengthAdjust="spacingAndGlyphs" textLength="274" x="1899" y="302.4292">MiddlewareGisManager middlewareGisManager)</text><ellipse cx="1858" cy="328.8281" fill="#84BE84" rx="3" ry="3" style="stroke: #038048; stroke-width: 1.0;"/><text fill="#000000" font-family="sans-serif" font-size="11" lengthAdjust="spacingAndGlyphs" textLength="160" x="1867" y="332.0386">TrackData parseRfid(int rfid)</text><rect fill="#F24D5C" height="6" style="stroke: #C82930; stroke-width: 1.0;" width="6" x="1855" y="338.6328"/><text fill="#000000" font-family="sans-serif" font-size="11" lengthAdjust="spacingAndGlyphs" textLength="188" x="1867" y="344.8433">float calculateLocationDataPoint()</text><rect fill="#F24D5C" height="6" style="stroke: #C82930; stroke-width: 1.0;" width="6" x="1855" y="351.4375"/><text fill="#000000" font-family="sans-serif" font-size="11" lengthAdjust="spacingAndGlyphs" textLength="144" x="1867" y="357.6479">float calculateTrackData()</text><line style="stroke: #A80036; stroke-width: 1.0; stroke-dasharray: 1.0,2.0;" x1="1848" x2="2051" y1="315.4258" y2="315.4258"/><text fill="#000000" font-family="sans-serif" font-size="11" lengthAdjust="spacingAndGlyphs" textLength="66" x="2051" y="318.7339">Use Case 1</text><line style="stroke: #A80036; stroke-width: 1.0; stroke-dasharray: 1.0,2.0;" x1="2117" x2="2320" y1="315.4258" y2="315.4258"/><!--MD5=[1c4f9654f103878faf4a10c0361188b9]
class MiddlewareCommDatabaseInterfaceImplementation--><rect fill="#FEFECE" filter="url(#f10bmgnpa0ikmu)" height="116.0234" id="MiddlewareCommDatabaseInterfaceImplementation" style="stroke: #A80036; stroke-width: 1.5;" width="354" x="1458" y="222.5"/><ellipse cx="1473" cy="238.5" fill="#ADD1B2" rx="11" ry="11" style="stroke: #A80036; stroke-width: 1.0;"/><path d="M1475.9688,244.1406 Q1475.3906,244.4375 1474.75,244.5781 Q1474.1094,244.7344 1473.4063,244.7344 Q1470.9063,244.7344 1469.5781,243.0938 Q1468.2656,241.4375 1468.2656,238.3125 Q1468.2656,235.1875 1469.5781,233.5313 Q1470.9063,231.875 1473.4063,231.875 Q1474.1094,231.875 1474.75,232.0313 Q1475.4063,232.1875 1475.9688,232.4844 L1475.9688,235.2031 Q1475.3438,234.625 1474.75,234.3594 Q1474.1563,234.0781 1473.5313,234.0781 Q1472.1875,234.0781 1471.5,235.1563 Q1470.8125,236.2188 1470.8125,238.3125 Q1470.8125,240.4063 1471.5,241.4844 Q1472.1875,242.5469 1473.5313,242.5469 Q1474.1563,242.5469 1474.75,242.2813 Q1475.3438,242 1475.9688,241.4219 L1475.9688,244.1406 Z "/><text fill="#000000" font-family="sans-serif" font-size="12" lengthAdjust="spacingAndGlyphs" textLength="322" x="1487" y="242.6543">MiddlewareCommDatabaseInterfaceImplementation</text><line style="stroke: #A80036; stroke-width: 1.5;" x1="1459" x2="1811" y1="254.5" y2="254.5"/><ellipse cx="1469" cy="265.5" fill="none" rx="3" ry="3" style="stroke: #038048; stroke-width: 1.0;"/><text fill="#000000" font-family="sans-serif" font-size="11" lengthAdjust="spacingAndGlyphs" textLength="285" x="1478" y="268.7104">DatabaseCommInterface databaseCommInterface</text><line style="stroke: #A80036; stroke-width: 1.5;" x1="1459" x2="1811" y1="275.3047" y2="275.3047"/><ellipse cx="1469" cy="286.3047" fill="#84BE84" rx="3" ry="3" style="stroke: #038048; stroke-width: 1.0;"/><text fill="#000000" font-family="sans-serif" font-size="11" lengthAdjust="spacingAndGlyphs" textLength="297" x="1478" y="289.5151">MiddlewareCommDatabaseInterfaceImplementation(</text><text fill="#000000" font-family="sans-serif" font-size="11" lengthAdjust="spacingAndGlyphs" textLength="289" x="1510" y="302.3198">DatabaseCommInterface databaseCommInterface)</text><ellipse cx="1469" cy="328.7188" fill="#84BE84" rx="3" ry="3" style="stroke: #038048; stroke-width: 1.0;"/><text fill="#000000" font-family="sans-serif" font-size="11" lengthAdjust="spacingAndGlyphs" textLength="122" x="1478" y="331.9292">int checkCurrentRfid()</text><line style="stroke: #A80036; stroke-width: 1.0; stroke-dasharray: 1.0,2.0;" x1="1459" x2="1602" y1="315.3164" y2="315.3164"/><text fill="#000000" font-family="sans-serif" font-size="11" lengthAdjust="spacingAndGlyphs" textLength="66" x="1602" y="318.6245">Use Case 1</text><line style="stroke: #A80036; stroke-width: 1.0; stroke-dasharray: 1.0,2.0;" x1="1668" x2="1811" y1="315.3164" y2="315.3164"/><!--MD5=[8d86b1aa2030a05d452f78e2e1fb37ed]
class TrackDataCalculator--><rect fill="#FEFECE" filter="url(#f10bmgnpa0ikmu)" height="86.4141" id="TrackDataCalculator" style="stroke: #A80036; stroke-width: 1.5;" width="518" x="909" y="439"/><ellipse cx="1100.25" cy="455" fill="#ADD1B2" rx="11" ry="11" style="stroke: #A80036; stroke-width: 1.0;"/><path d="M1103.2188,460.6406 Q1102.6406,460.9375 1102,461.0781 Q1101.3594,461.2344 1100.6563,461.2344 Q1098.1563,461.2344 1096.8281,459.5938 Q1095.5156,457.9375 1095.5156,454.8125 Q1095.5156,451.6875 1096.8281,450.0313 Q1098.1563,448.375 1100.6563,448.375 Q1101.3594,448.375 1102,448.5313 Q1102.6563,448.6875 1103.2188,448.9844 L1103.2188,451.7031 Q1102.5938,451.125 1102,450.8594 Q1101.4063,450.5781 1100.7813,450.5781 Q1099.4375,450.5781 1098.75,451.6563 Q1098.0625,452.7188 1098.0625,454.8125 Q1098.0625,456.9063 1098.75,457.9844 Q1099.4375,459.0469 1100.7813,459.0469 Q1101.4063,459.0469 1102,458.7813 Q1102.5938,458.5 1103.2188,457.9219 L1103.2188,460.6406 Z "/><text fill="#000000" font-family="sans-serif" font-size="12" lengthAdjust="spacingAndGlyphs" textLength="127" x="1120.75" y="459.1543">TrackDataCalculator</text><line style="stroke: #A80036; stroke-width: 1.5;" x1="910" x2="1426" y1="471" y2="471"/><line style="stroke: #A80036; stroke-width: 1.5;" x1="910" x2="1426" y1="479" y2="479"/><ellipse cx="920" cy="490" fill="#84BE84" rx="3" ry="3" style="stroke: #038048; stroke-width: 1.0;"/><text fill="#000000" font-family="sans-serif" font-size="11" lengthAdjust="spacingAndGlyphs" text-decoration="underline" textLength="341" x="929" y="493.2104">float calculateSpeed(LocationDataPoint[] locationDataPoints)</text><ellipse cx="920" cy="502.8047" fill="#84BE84" rx="3" ry="3" style="stroke: #038048; stroke-width: 1.0;"/><text fill="#000000" font-family="sans-serif" font-size="11" lengthAdjust="spacingAndGlyphs" text-decoration="underline" textLength="355" x="929" y="506.0151">float calculateDirection(LocationDataPoint[] locationDataPoints)</text><rect fill="#F24D5C" height="6" style="stroke: #C82930; stroke-width: 1.0;" width="6" x="917" y="512.6094"/><text fill="#000000" font-family="sans-serif" font-size="11" lengthAdjust="spacingAndGlyphs" text-decoration="underline" textLength="492" x="929" y="518.8198">LocationDataPoint[] calculateRootMeanSquared(LocationDataPoint[] locationDataPoints)</text><!--MD5=[00b94da1af6b7f5503baa4bfd88b42e0]
class MiddlewareCommInterfaceImplementationTests--><rect fill="#FEFECE" filter="url(#f10bmgnpa0ikmu)" height="48" id="MiddlewareCommInterfaceImplementationTests" style="stroke: #A80036; stroke-width: 1.5;" width="327" x="1075.5" y="74"/><ellipse cx="1090.5" cy="90" fill="#ADD1B2" rx="11" ry="11" style="stroke: #A80036; stroke-width: 1.0;"/><path d="M1093.4688,95.6406 Q1092.8906,95.9375 1092.25,96.0781 Q1091.6094,96.2344 1090.9063,96.2344 Q1088.4063,96.2344 1087.0781,94.5938 Q1085.7656,92.9375 1085.7656,89.8125 Q1085.7656,86.6875 1087.0781,85.0313 Q1088.4063,83.375 1090.9063,83.375 Q1091.6094,83.375 1092.25,83.5313 Q1092.9063,83.6875 1093.4688,83.9844 L1093.4688,86.7031 Q1092.8438,86.125 1092.25,85.8594 Q1091.6563,85.5781 1091.0313,85.5781 Q1089.6875,85.5781 1089,86.6563 Q1088.3125,87.7188 1088.3125,89.8125 Q1088.3125,91.9063 1089,92.9844 Q1089.6875,94.0469 1091.0313,94.0469 Q1091.6563,94.0469 1092.25,93.7813 Q1092.8438,93.5 1093.4688,92.9219 L1093.4688,95.6406 Z "/><text fill="#000000" font-family="sans-serif" font-size="12" lengthAdjust="spacingAndGlyphs" textLength="295" x="1104.5" y="94.1543">MiddlewareCommInterfaceImplementationTests</text><line style="stroke: #A80036; stroke-width: 1.5;" x1="1076.5" x2="1401.5" y1="106" y2="106"/><line style="stroke: #A80036; stroke-width: 1.5;" x1="1076.5" x2="1401.5" y1="114" y2="114"/><!--MD5=[3bea4f8dbcd5725ad50d10553f2379e2]
class MiddlewareCommLinkManagerStub--><rect fill="#FEFECE" filter="url(#f10bmgnpa0ikmu)" height="77.6094" id="MiddlewareCommLinkManagerStub" style="stroke: #A80036; stroke-width: 1.5;" width="248" x="1134" y="241.5"/><ellipse cx="1149" cy="257.5" fill="#ADD1B2" rx="11" ry="11" style="stroke: #A80036; stroke-width: 1.0;"/><path d="M1151.9688,263.1406 Q1151.3906,263.4375 1150.75,263.5781 Q1150.1094,263.7344 1149.4063,263.7344 Q1146.9063,263.7344 1145.5781,262.0938 Q1144.2656,260.4375 1144.2656,257.3125 Q1144.2656,254.1875 1145.5781,252.5313 Q1146.9063,250.875 1149.4063,250.875 Q1150.1094,250.875 1150.75,251.0313 Q1151.4063,251.1875 1151.9688,251.4844 L1151.9688,254.2031 Q1151.3438,253.625 1150.75,253.3594 Q1150.1563,253.0781 1149.5313,253.0781 Q1148.1875,253.0781 1147.5,254.1563 Q1146.8125,255.2188 1146.8125,257.3125 Q1146.8125,259.4063 1147.5,260.4844 Q1148.1875,261.5469 1149.5313,261.5469 Q1150.1563,261.5469 1150.75,261.2813 Q1151.3438,261 1151.9688,260.4219 L1151.9688,263.1406 Z "/><text fill="#000000" font-family="sans-serif" font-size="12" lengthAdjust="spacingAndGlyphs" textLength="216" x="1163" y="261.6543">MiddlewareCommLinkManagerStub</text><line style="stroke: #A80036; stroke-width: 1.5;" x1="1135" x2="1381" y1="273.5" y2="273.5"/><line style="stroke: #A80036; stroke-width: 1.5;" x1="1135" x2="1381" y1="281.5" y2="281.5"/><ellipse cx="1145" cy="309.3047" fill="#84BE84" rx="3" ry="3" style="stroke: #038048; stroke-width: 1.0;"/><text fill="#000000" font-family="sans-serif" font-size="11" lengthAdjust="spacingAndGlyphs" textLength="160" x="1154" y="312.5151">TrackData parseRfid(int rfid)</text><line style="stroke: #A80036; stroke-width: 1.0; stroke-dasharray: 1.0,2.0;" x1="1135" x2="1225" y1="295.9023" y2="295.9023"/><text fill="#000000" font-family="sans-serif" font-size="11" lengthAdjust="spacingAndGlyphs" textLength="66" x="1225" y="299.2104">Use Case 1</text><line style="stroke: #A80036; stroke-width: 1.0; stroke-dasharray: 1.0,2.0;" x1="1291" x2="1381" y1="295.9023" y2="295.9023"/><!--MD5=[de2e25996fbf99af10f04f2aae2d0ec2]
class MiddlewareCommLinkManagerImplementationTests--><rect fill="#FEFECE" filter="url(#f10bmgnpa0ikmu)" height="60.8047" id="MiddlewareCommLinkManagerImplementationTests" style="stroke: #A80036; stroke-width: 1.5;" width="350" x="690" y="67.5"/><ellipse cx="705" cy="83.5" fill="#ADD1B2" rx="11" ry="11" style="stroke: #A80036; stroke-width: 1.0;"/><path d="M707.9688,89.1406 Q707.3906,89.4375 706.75,89.5781 Q706.1094,89.7344 705.4063,89.7344 Q702.9063,89.7344 701.5781,88.0938 Q700.2656,86.4375 700.2656,83.3125 Q700.2656,80.1875 701.5781,78.5313 Q702.9063,76.875 705.4063,76.875 Q706.1094,76.875 706.75,77.0313 Q707.4063,77.1875 707.9688,77.4844 L707.9688,80.2031 Q707.3438,79.625 706.75,79.3594 Q706.1563,79.0781 705.5313,79.0781 Q704.1875,79.0781 703.5,80.1563 Q702.8125,81.2188 702.8125,83.3125 Q702.8125,85.4063 703.5,86.4844 Q704.1875,87.5469 705.5313,87.5469 Q706.1563,87.5469 706.75,87.2813 Q707.3438,87 707.9688,86.4219 L707.9688,89.1406 Z "/><text fill="#000000" font-family="sans-serif" font-size="12" lengthAdjust="spacingAndGlyphs" textLength="318" x="719" y="87.6543">MiddlewareCommLinkManagerImplementationTests</text><line style="stroke: #A80036; stroke-width: 1.5;" x1="691" x2="1039" y1="99.5" y2="99.5"/><line style="stroke: #A80036; stroke-width: 1.5;" x1="691" x2="1039" y1="107.5" y2="107.5"/><ellipse cx="701" cy="118.5" fill="#84BE84" rx="3" ry="3" style="stroke: #038048; stroke-width: 1.0;"/><text fill="#000000" font-family="sans-serif" font-size="11" lengthAdjust="spacingAndGlyphs" textLength="160" x="710" y="121.7104">void verifyTrackLengthTest()</text><!--MD5=[d266ff1a021c6b2abe780212ea4bc90b]
class MiddlewareCommDatabaseInterfaceStub--><rect fill="#FEFECE" filter="url(#f10bmgnpa0ikmu)" height="77.6094" id="MiddlewareCommDatabaseInterfaceStub" style="stroke: #A80036; stroke-width: 1.5;" width="286" x="767" y="241.5"/><ellipse cx="782" cy="257.5" fill="#ADD1B2" rx="11" ry="11" style="stroke: #A80036; stroke-width: 1.0;"/><path d="M784.9688,263.1406 Q784.3906,263.4375 783.75,263.5781 Q783.1094,263.7344 782.4063,263.7344 Q779.9063,263.7344 778.5781,262.0938 Q777.2656,260.4375 777.2656,257.3125 Q777.2656,254.1875 778.5781,252.5313 Q779.9063,250.875 782.4063,250.875 Q783.1094,250.875 783.75,251.0313 Q784.4063,251.1875 784.9688,251.4844 L784.9688,254.2031 Q784.3438,253.625 783.75,253.3594 Q783.1563,253.0781 782.5313,253.0781 Q781.1875,253.0781 780.5,254.1563 Q779.8125,255.2188 779.8125,257.3125 Q779.8125,259.4063 780.5,260.4844 Q781.1875,261.5469 782.5313,261.5469 Q783.1563,261.5469 783.75,261.2813 Q784.3438,261 784.9688,260.4219 L784.9688,263.1406 Z "/><text fill="#000000" font-family="sans-serif" font-size="12" lengthAdjust="spacingAndGlyphs" textLength="254" x="796" y="261.6543">MiddlewareCommDatabaseInterfaceStub</text><line style="stroke: #A80036; stroke-width: 1.5;" x1="768" x2="1052" y1="273.5" y2="273.5"/><line style="stroke: #A80036; stroke-width: 1.5;" x1="768" x2="1052" y1="281.5" y2="281.5"/><ellipse cx="778" cy="309.3047" fill="#84BE84" rx="3" ry="3" style="stroke: #038048; stroke-width: 1.0;"/><text fill="#000000" font-family="sans-serif" font-size="11" lengthAdjust="spacingAndGlyphs" textLength="122" x="787" y="312.5151">int checkCurrentRfid()</text><line style="stroke: #A80036; stroke-width: 1.0; stroke-dasharray: 1.0,2.0;" x1="768" x2="877" y1="295.9023" y2="295.9023"/><text fill="#000000" font-family="sans-serif" font-size="11" lengthAdjust="spacingAndGlyphs" textLength="66" x="877" y="299.2104">Use Case 1</text><line style="stroke: #A80036; stroke-width: 1.0; stroke-dasharray: 1.0,2.0;" x1="943" x2="1052" y1="295.9023" y2="295.9023"/><!--MD5=[002ff5c7151dea29dff01f25b38dca5f]
class MiddlewareCommDatabaseInterfaceImplementationTests--><rect fill="#FEFECE" filter="url(#f10bmgnpa0ikmu)" height="48" id="MiddlewareCommDatabaseInterfaceImplementationTests" style="stroke: #A80036; stroke-width: 1.5;" width="388" x="267" y="74"/><ellipse cx="282" cy="90" fill="#ADD1B2" rx="11" ry="11" style="stroke: #A80036; stroke-width: 1.0;"/><path d="M284.9688,95.6406 Q284.3906,95.9375 283.75,96.0781 Q283.1094,96.2344 282.4063,96.2344 Q279.9063,96.2344 278.5781,94.5938 Q277.2656,92.9375 277.2656,89.8125 Q277.2656,86.6875 278.5781,85.0313 Q279.9063,83.375 282.4063,83.375 Q283.1094,83.375 283.75,83.5313 Q284.4063,83.6875 284.9688,83.9844 L284.9688,86.7031 Q284.3438,86.125 283.75,85.8594 Q283.1563,85.5781 282.5313,85.5781 Q281.1875,85.5781 280.5,86.6563 Q279.8125,87.7188 279.8125,89.8125 Q279.8125,91.9063 280.5,92.9844 Q281.1875,94.0469 282.5313,94.0469 Q283.1563,94.0469 283.75,93.7813 Q284.3438,93.5 284.9688,92.9219 L284.9688,95.6406 Z "/><text fill="#000000" font-family="sans-serif" font-size="12" lengthAdjust="spacingAndGlyphs" textLength="356" x="296" y="94.1543">MiddlewareCommDatabaseInterfaceImplementationTests</text><line style="stroke: #A80036; stroke-width: 1.5;" x1="268" x2="654" y1="106" y2="106"/><line style="stroke: #A80036; stroke-width: 1.5;" x1="268" x2="654" y1="114" y2="114"/><!--MD5=[e3f4175480349659b88084d56af4bbf1]
class DatabaseCommInterfaceStub--><rect fill="#FEFECE" filter="url(#f10bmgnpa0ikmu)" height="128.8281" id="DatabaseCommInterfaceStub" style="stroke: #A80036; stroke-width: 1.5;" width="398" x="262" y="216"/><ellipse cx="364.75" cy="232" fill="#ADD1B2" rx="11" ry="11" style="stroke: #A80036; stroke-width: 1.0;"/><path d="M367.7188,237.6406 Q367.1406,237.9375 366.5,238.0781 Q365.8594,238.2344 365.1563,238.2344 Q362.6563,238.2344 361.3281,236.5938 Q360.0156,234.9375 360.0156,231.8125 Q360.0156,228.6875 361.3281,227.0313 Q362.6563,225.375 365.1563,225.375 Q365.8594,225.375 366.5,225.5313 Q367.1563,225.6875 367.7188,225.9844 L367.7188,228.7031 Q367.0938,228.125 366.5,227.8594 Q365.9063,227.5781 365.2813,227.5781 Q363.9375,227.5781 363.25,228.6563 Q362.5625,229.7188 362.5625,231.8125 Q362.5625,233.9063 363.25,234.9844 Q363.9375,236.0469 365.2813,236.0469 Q365.9063,236.0469 366.5,235.7813 Q367.0938,235.5 367.7188,234.9219 L367.7188,237.6406 Z "/><text fill="#000000" font-family="sans-serif" font-size="12" lengthAdjust="spacingAndGlyphs" textLength="184" x="385.25" y="236.1543">DatabaseCommInterfaceStub</text><line style="stroke: #A80036; stroke-width: 1.5;" x1="263" x2="659" y1="248" y2="248"/><line style="stroke: #A80036; stroke-width: 1.5;" x1="263" x2="659" y1="256" y2="256"/><ellipse cx="273" cy="283.8047" fill="#84BE84" rx="3" ry="3" style="stroke: #038048; stroke-width: 1.0;"/><text fill="#000000" font-family="sans-serif" font-size="11" font-style="italic" lengthAdjust="spacingAndGlyphs" textLength="156" x="282" y="287.0151">int receiveGetRfidRequest()</text><ellipse cx="273" cy="296.6094" fill="#84BE84" rx="3" ry="3" style="stroke: #038048; stroke-width: 1.0;"/><text fill="#000000" font-family="sans-serif" font-size="11" font-style="italic" lengthAdjust="spacingAndGlyphs" textLength="372" x="282" y="299.8198">LocationDataPoint receiveGetLocationDataPointRequest(int offset)</text><ellipse cx="273" cy="309.4141" fill="#84BE84" rx="3" ry="3" style="stroke: #038048; stroke-width: 1.0;"/><text fill="#000000" font-family="sans-serif" font-size="11" font-style="italic" lengthAdjust="spacingAndGlyphs" textLength="284" x="282" y="312.6245">TrackData receiveGetTrackDataRequest(int offset)</text><ellipse cx="273" cy="322.2188" fill="#84BE84" rx="3" ry="3" style="stroke: #038048; stroke-width: 1.0;"/><text fill="#000000" font-family="sans-serif" font-size="11" font-style="italic" lengthAdjust="spacingAndGlyphs" textLength="283" x="282" y="325.4292">void storeTrackDataRequest(TrackData trackData)</text><ellipse cx="273" cy="335.0234" fill="#84BE84" rx="3" ry="3" style="stroke: #038048; stroke-width: 1.0;"/><text fill="#000000" font-family="sans-serif" font-size="11" font-style="italic" lengthAdjust="spacingAndGlyphs" textLength="183" x="282" y="338.2339">String receiveGetModeRequest()</text><line style="stroke: #A80036; stroke-width: 1.0; stroke-dasharray: 1.0,2.0;" x1="263" x2="428" y1="270.4023" y2="270.4023"/><text fill="#000000" font-family="sans-serif" font-size="11" lengthAdjust="spacingAndGlyphs" textLength="66" x="428" y="273.7104">Use Case 1</text><line style="stroke: #A80036; stroke-width: 1.0; stroke-dasharray: 1.0,2.0;" x1="494" x2="659" y1="270.4023" y2="270.4023"/><!--MD5=[4d30ae449f97cbb7dd3c9db2a55e1ec0]
class TrackDataCalculatorTests--><rect fill="#FEFECE" filter="url(#f10bmgnpa0ikmu)" height="48" id="TrackDataCalculatorTests" style="stroke: #A80036; stroke-width: 1.5;" width="193" x="38.5" y="74"/><ellipse cx="53.5" cy="90" fill="#ADD1B2" rx="11" ry="11" style="stroke: #A80036; stroke-width: 1.0;"/><path d="M56.4688,95.6406 Q55.8906,95.9375 55.25,96.0781 Q54.6094,96.2344 53.9063,96.2344 Q51.4063,96.2344 50.0781,94.5938 Q48.7656,92.9375 48.7656,89.8125 Q48.7656,86.6875 50.0781,85.0313 Q51.4063,83.375 53.9063,83.375 Q54.6094,83.375 55.25,83.5313 Q55.9063,83.6875 56.4688,83.9844 L56.4688,86.7031 Q55.8438,86.125 55.25,85.8594 Q54.6563,85.5781 54.0313,85.5781 Q52.6875,85.5781 52,86.6563 Q51.3125,87.7188 51.3125,89.8125 Q51.3125,91.9063 52,92.9844 Q52.6875,94.0469 54.0313,94.0469 Q54.6563,94.0469 55.25,93.7813 Q55.8438,93.5 56.4688,92.9219 L56.4688,95.6406 Z "/><text fill="#000000" font-family="sans-serif" font-size="12" lengthAdjust="spacingAndGlyphs" textLength="161" x="67.5" y="94.1543">TrackDataCalculatorTests</text><line style="stroke: #A80036; stroke-width: 1.5;" x1="39.5" x2="230.5" y1="106" y2="106"/><line style="stroke: #A80036; stroke-width: 1.5;" x1="39.5" x2="230.5" y1="114" y2="114"/><!--MD5=[a6f6d6498f8ad0fd1149c5a16bc55d36]
reverse link MiddlewareCommInterface to MiddlewareCommInterfaceImplementation--><path d="M2533,157.44 C2533,178.27 2533,201.69 2533,222.41 " fill="none" id="MiddlewareCommInterface&lt;-MiddlewareCommInterfaceImplementation" style="stroke: #A80036; stroke-width: 1.0; stroke-dasharray: 7.0,7.0;"/><polygon fill="none" points="2526,157.28,2533,137.28,2540,157.28,2526,157.28" style="stroke: #A80036; stroke-width: 1.0;"/><!--MD5=[497c69cbff9542047faf5ca77780c8cb]
reverse link MiddlewareCommLinkManager to MiddlewareCommLinkManagerImplementation--><path d="M2015.74,155.04 C2022.98,168.25 2030.85,182.6 2038.59,196.71 " fill="none" id="MiddlewareCommLinkManager&lt;-MiddlewareCommLinkManagerImplementation" style="stroke: #A80036; stroke-width: 1.0; stroke-dasharray: 7.0,7.0;"/><polygon fill="none" points="2009.48,158.18,2006,137.28,2021.75,151.45,2009.48,158.18" style="stroke: #A80036; stroke-width: 1.0;"/><!--MD5=[8e69def7a54ed81078168d5d1d8487c9]
reverse link MiddlewareCommDatabaseInterface to MiddlewareCommDatabaseInterfaceImplementation--><path d="M1618.73,157.11 C1621.51,178.02 1624.64,201.59 1627.41,222.41 " fill="none" id="MiddlewareCommDatabaseInterface&lt;-MiddlewareCommDatabaseInterfaceImplementation" style="stroke: #A80036; stroke-width: 1.0; stroke-dasharray: 7.0,7.0;"/><polygon fill="none" points="1611.79,158.03,1616.09,137.28,1625.66,156.18,1611.79,158.03" style="stroke: #A80036; stroke-width: 1.0;"/><!--MD5=[07eefeefbddab6e40f3001aaadb4b811]
link MiddlewareCommLinkManagerImplementation to TrackDataCalculator--><path d="M1902.86,364.05 C1878.69,373.1 1853.98,381.41 1830,388 C1701.41,423.35 1554.88,445.71 1432.43,459.61 " fill="none" id="MiddlewareCommLinkManagerImplementation-&gt;TrackDataCalculator" style="stroke: #A80036; stroke-width: 1.0; stroke-dasharray: 7.0,7.0;"/><polygon fill="#A80036" points="1427.35,460.18,1436.7395,463.1528,1432.3189,459.6231,1435.8485,455.2025,1427.35,460.18" style="stroke: #A80036; stroke-width: 1.0;"/><!--MD5=[7fa180022f459ef85d1acc77bc346e55]
link MiddlewareCommInterfaceImplementationTests to MiddlewareCommLinkManagerStub--><path d="M1241.45,122.23 C1244.46,150.91 1249.66,200.27 1253.43,236.05 " fill="none" id="MiddlewareCommInterfaceImplementationTests-&gt;MiddlewareCommLinkManagerStub" style="stroke: #A80036; stroke-width: 1.0; stroke-dasharray: 7.0,7.0;"/><polygon fill="#A80036" points="1253.97,241.23,1257.0227,231.8662,1253.4555,236.2565,1249.0651,232.6894,1253.97,241.23" style="stroke: #A80036; stroke-width: 1.0;"/><!--MD5=[2fd20703f0701fa98274185fc4989096]
link MiddlewareCommLinkManagerImplementationTests to MiddlewareCommDatabaseInterfaceStub--><path d="M872.43,128.81 C879.73,158.08 890.94,203.06 899.22,236.26 " fill="none" id="MiddlewareCommLinkManagerImplementationTests-&gt;MiddlewareCommDatabaseInterfaceStub" style="stroke: #A80036; stroke-width: 1.0; stroke-dasharray: 7.0,7.0;"/><polygon fill="#A80036" points="900.52,241.48,902.2446,231.7833,899.3208,236.6259,894.4781,233.7021,900.52,241.48" style="stroke: #A80036; stroke-width: 1.0;"/><!--MD5=[52509b0176968f875548ba7b6727e5db]
link MiddlewareCommDatabaseInterfaceImplementationTests to DatabaseCommInterfaceStub--><path d="M461,122.23 C461,144.46 461,179.12 461,210.25 " fill="none" id="MiddlewareCommDatabaseInterfaceImplementationTests-&gt;DatabaseCommInterfaceStub" style="stroke: #A80036; stroke-width: 1.0; stroke-dasharray: 7.0,7.0;"/><polygon fill="#A80036" points="461,215.62,465,206.62,461,210.62,457,206.62,461,215.62" style="stroke: #A80036; stroke-width: 1.0;"/><!--MD5=[b7be4b6db61c888b240eee15c81cfa97]
link MiddlewareCommInterfaceImplementationTests to MiddlewareCommInterfaceImplementation--><path d="M1348.99,122.04 C1379.04,127.67 1411.68,133.16 1442,137 C1838.39,187.18 1950.37,104.18 2339,197 C2363.11,202.76 2388.05,211.25 2411.68,220.61 " fill="none" id="MiddlewareCommInterfaceImplementationTests-&gt;MiddlewareCommInterfaceImplementation" style="stroke: #A80036; stroke-width: 1.0; stroke-dasharray: 7.0,7.0;"/><polygon fill="#A80036" points="2416.39,222.5,2409.5193,215.4436,2411.7476,220.643,2406.5481,222.8714,2416.39,222.5" style="stroke: #A80036; stroke-width: 1.0;"/><!--MD5=[103579e4ea01d223111d0dbd0a71b306]
link MiddlewareCommLinkManagerImplementationTests to MiddlewareCommLinkManagerImplementation--><path d="M1004.88,128.53 C1022.7,131.71 1040.74,134.64 1058,137 C1398.97,183.65 1492.43,130.04 1830,197 C1833.92,197.78 1837.86,198.6 1841.82,199.45 " fill="none" id="MiddlewareCommLinkManagerImplementationTests-&gt;MiddlewareCommLinkManagerImplementation" style="stroke: #A80036; stroke-width: 1.0; stroke-dasharray: 7.0,7.0;"/><polygon fill="#A80036" points="1846.84,200.55,1838.9057,194.715,1841.9561,199.479,1837.1921,202.5293,1846.84,200.55" style="stroke: #A80036; stroke-width: 1.0;"/><!--MD5=[43c3af790da194ec4c8637f83c23fde0]
link MiddlewareCommDatabaseInterfaceImplementationTests to MiddlewareCommDatabaseInterfaceImplementation--><path d="M577.87,122.04 C608.72,127.55 642.04,132.99 673,137 C1002.43,179.69 1093.96,123.91 1418,197 C1444.37,202.95 1471.82,211.44 1497.97,220.74 " fill="none" id="MiddlewareCommDatabaseInterfaceImplementationTests-&gt;MiddlewareCommDatabaseInterfaceImplementation" style="stroke: #A80036; stroke-width: 1.0; stroke-dasharray: 7.0,7.0;"/><polygon fill="#A80036" points="1502.84,222.49,1495.7123,215.6933,1498.1319,220.8065,1493.0187,223.2262,1502.84,222.49" style="stroke: #A80036; stroke-width: 1.0;"/><!--MD5=[b7f4c9447f2e238dc6bbfb46bebb205f]
link TrackDataCalculatorTests to TrackDataCalculator--><path d="M136.04,122.1 C139.92,178.13 158.28,321.56 245,388 C296.54,427.49 649.42,454.13 903.53,468.44 " fill="none" id="TrackDataCalculatorTests-&gt;TrackDataCalculator" style="stroke: #A80036; stroke-width: 1.0; stroke-dasharray: 7.0,7.0;"/><polygon fill="#A80036" points="908.76,468.74,900.0036,464.2316,903.7682,468.4539,899.5459,472.2185,908.76,468.74" style="stroke: #A80036; stroke-width: 1.0;"/><!--MD5=[a1cf72e0ac52b4d843c7c634d1a14535]
reverse link MiddlewareCommLinkManager to MiddlewareCommLinkManagerStub--><path d="M1854.4,120.86 C1706.46,145.89 1480.8,185 1442,197 C1404.71,208.54 1365,225.67 1332.05,241.34 " fill="none" id="MiddlewareCommLinkManager&lt;-MiddlewareCommLinkManagerStub" style="stroke: #A80036; stroke-width: 1.0; stroke-dasharray: 7.0,7.0;"/><polygon fill="none" points="1853.4,113.93,1874.29,117.5,1855.73,127.74,1853.4,113.93" style="stroke: #A80036; stroke-width: 1.0;"/><!--MD5=[bcb237fc50e7c64a2e386cbf2da92530]
reverse link MiddlewareCommDatabaseInterface to MiddlewareCommDatabaseInterfaceStub--><path d="M1461.83,128.43 C1317.95,156.83 1121.24,195.74 1117,197 C1076.1,209.1 1032.03,226.07 995.12,241.49 " fill="none" id="MiddlewareCommDatabaseInterface&lt;-MiddlewareCommDatabaseInterfaceStub" style="stroke: #A80036; stroke-width: 1.0; stroke-dasharray: 7.0,7.0;"/><polygon fill="none" points="1460.78,121.5,1481.76,124.49,1463.49,135.23,1460.78,121.5" style="stroke: #A80036; stroke-width: 1.0;"/><!--MD5=[6814784ef0bdef3fd5a7dfc4ff242705]
@startuml Middleware02Packages_InternalDependencies


package edu.oakland.production.middleware02 {
    
}


package edu.oakland.production.middleware02 {
    interface MiddlewareCommInterface {
        __
        .. Use Case 1 ..
        {abstract} + TrackData requestRfid(int rfid)
    }
}


package edu.oakland.production.middleware02 {
    interface MiddlewareCommLinkManager {
        __
        .. Use Case 1 ..
        {abstract} + TrackData parseRfid(int rfid)
    }
}


package edu.oakland.production.middleware02 {
    interface MiddlewareCommDatabaseInterface {
        __
        .. Use Case 1 ..
        {abstract} + int checkCurrentRfid()
    }
}


package edu.oakland.production.middleware02 {
    class MiddlewareCommInterfaceImplementation {
        - MiddlewareCommLinkManager middlewareManager
        __
        + MiddlewareCommInterfaceImplementation(
        \tMiddlewareCommLinkManager middlewareManager)
        .. Use Case 1 ..
        + TrackData requestRfid(int rfid)
}


MiddlewareCommInterfaceImplementation .up.|> MiddlewareCommInterface

package edu.oakland.production.middleware02 {
    class MiddlewareCommLinkManagerImplementation {
        - MiddlewareCommDatabaseInterface middlewareCommDatabaseInterface
        - MiddlewareGisManager middlewareGisManager
        __
        + MiddlewareCommLinkManagerImplementation(
        \tMiddlewareCommDatabaseInterface middlewareCommDatabaseInterface
        \tMiddlewareGisManager middlewareGisManager)
        .. Use Case 1 ..
        + TrackData parseRfid(int rfid)
        - float calculateLocationDataPoint()
        - float calculateTrackData()
    }
}


MiddlewareCommLinkManagerImplementation .up.|> MiddlewareCommLinkManager

package edu.oakland.production.middleware02 {
    class MiddlewareCommDatabaseInterfaceImplementation {
        + DatabaseCommInterface databaseCommInterface
        __
        + MiddlewareCommDatabaseInterfaceImplementation(
        \tDatabaseCommInterface databaseCommInterface)
        .. Use Case 1 ..
        + int checkCurrentRfid()
    }
}


MiddlewareCommDatabaseInterfaceImplementation .up.|> MiddlewareCommDatabaseInterface






package edu.oakland.helper.middleware02 {
    class TrackDataCalculator {
        {static} + float calculateSpeed(LocationDataPoint[] locationDataPoints)
        {static} + float calculateDirection(LocationDataPoint[] locationDataPoints)
        {static} - LocationDataPoint[] calculateRootMeanSquared(LocationDataPoint[] locationDataPoints)
    }
}

MiddlewareCommLinkManagerImplementation ..> TrackDataCalculator


package edu.oakland.test.middleware02 {
    
}


package edu.oakland.test.middleware02 {
    class MiddlewareCommInterfaceImplementationTests {

    }
}



package edu.oakland.test.middleware02 {
    class MiddlewareCommLinkManagerStub {
        __
        .. Use Case 1 ..
        + TrackData parseRfid(int rfid)
    }
}

MiddlewareCommInterfaceImplementationTests ..> MiddlewareCommLinkManagerStub

package edu.oakland.test.middleware02 {
    class MiddlewareCommLinkManagerImplementationTests {
      + void verifyTrackLengthTest()
    }
}



package edu.oakland.test.middleware02 {
    class MiddlewareCommDatabaseInterfaceStub {
        __
        .. Use Case 1 ..
        + int checkCurrentRfid()
    }
}

MiddlewareCommLinkManagerImplementationTests ..> MiddlewareCommDatabaseInterfaceStub

package edu.oakland.test.middleware02 {
    class MiddlewareCommDatabaseInterfaceImplementationTests {

    }
}



package edu.oakland.test.middleware02 {
    class DatabaseCommInterfaceStub {
        __
        .. Use Case 1 ..
        {abstract} + int receiveGetRfidRequest()
        {abstract} + LocationDataPoint receiveGetLocationDataPointRequest(int offset)
        {abstract} + TrackData receiveGetTrackDataRequest(int offset)
        {abstract} + void storeTrackDataRequest(TrackData trackData)
        {abstract} + String receiveGetModeRequest()
    }
}

MiddlewareCommDatabaseInterfaceImplementationTests ..> DatabaseCommInterfaceStub

package edu.oakland.test.middleware02 {
    class TrackDataCalculatorTests {

    }
}


MiddlewareCommInterfaceImplementationTests ..> MiddlewareCommInterfaceImplementation
MiddlewareCommLinkManagerImplementationTests ..> MiddlewareCommLinkManagerImplementation
MiddlewareCommDatabaseInterfaceImplementationTests ..> MiddlewareCommDatabaseInterfaceImplementation
TrackDataCalculatorTests ..> TrackDataCalculator
MiddlewareCommLinkManagerStub .up.|> MiddlewareCommLinkManager
MiddlewareCommDatabaseInterfaceStub .up.|> MiddlewareCommDatabaseInterface


package edu.oakland.helper.middleware02 {
    
}




@enduml

PlantUML version 1.2020.02(Sun Mar 01 10:22:07 GMT 2020)
(GPL source distribution)
Java Runtime: OpenJDK Runtime Environment
JVM: OpenJDK 64-Bit Server VM
Java Version: 11.0.9+11-Ubuntu-0ubuntu1
Operating System: Linux
Default Encoding: ANSI_X3.4-1968
Language: en
Country: US
--></g></svg>