<?xml version="1.0" encoding="UTF-8" standalone="no"?><svg xmlns="http://www.w3.org/2000/svg" xmlns:xlink="http://www.w3.org/1999/xlink" contentScriptType="application/ecmascript" contentStyleType="text/css" height="653px" preserveAspectRatio="none" style="width:827px;height:653px;" version="1.1" viewBox="0 0 827 653" width="827px" zoomAndPan="magnify"><defs><filter height="300%" id="fw984gp958zpu" width="300%" x="-1" y="-1"><feGaussianBlur result="blurOut" stdDeviation="2.0"/><feColorMatrix in="blurOut" result="blurOut2" type="matrix" values="0 0 0 0 0 0 0 0 0 0 0 0 0 0 0 0 0 0 .4 0"/><feOffset dx="4.0" dy="4.0" in="blurOut2" result="blurOut3"/><feBlend in="SourceGraphic" in2="blurOut3" mode="normal"/></filter></defs><g><!--MD5=[850b37b0b8d882ee2cad74ae2a956f48]
cluster edu.oakland.helper.admin--><polygon fill="#FFFFFF" filter="url(#fw984gp958zpu)" points="22,24,232,24,239,46.2969,805,46.2969,805,641,22,641,22,24" style="stroke: #000000; stroke-width: 1.5;"/><line style="stroke: #000000; stroke-width: 1.5;" x1="22" x2="239" y1="46.2969" y2="46.2969"/><text fill="#000000" font-family="sans-serif" font-size="14" font-weight="bold" lengthAdjust="spacingAndGlyphs" textLength="204" x="26" y="38.9951">edu.oakland.helper.admin</text><!--MD5=[478f5cd13d8e163685b267303d2bfb71]
class LocationDataPoint--><rect fill="#FEFECE" filter="url(#fw984gp958zpu)" height="176.0469" id="LocationDataPoint" style="stroke: #A80036; stroke-width: 1.5;" width="352" x="38" y="104"/><ellipse cx="152.25" cy="120" fill="#ADD1B2" rx="11" ry="11" style="stroke: #A80036; stroke-width: 1.0;"/><path d="M155.2188,125.6406 Q154.6406,125.9375 154,126.0781 Q153.3594,126.2344 152.6563,126.2344 Q150.1563,126.2344 148.8281,124.5938 Q147.5156,122.9375 147.5156,119.8125 Q147.5156,116.6875 148.8281,115.0313 Q150.1563,113.375 152.6563,113.375 Q153.3594,113.375 154,113.5313 Q154.6563,113.6875 155.2188,113.9844 L155.2188,116.7031 Q154.5938,116.125 154,115.8594 Q153.4063,115.5781 152.7813,115.5781 Q151.4375,115.5781 150.75,116.6563 Q150.0625,117.7188 150.0625,119.8125 Q150.0625,121.9063 150.75,122.9844 Q151.4375,124.0469 152.7813,124.0469 Q153.4063,124.0469 154,123.7813 Q154.5938,123.5 155.2188,122.9219 L155.2188,125.6406 Z "/><text fill="#000000" font-family="sans-serif" font-size="12" lengthAdjust="spacingAndGlyphs" textLength="115" x="172.75" y="124.1543">LocationDataPoint</text><line style="stroke: #A80036; stroke-width: 1.5;" x1="39" x2="389" y1="136" y2="136"/><rect fill="none" height="6" style="stroke: #C82930; stroke-width: 1.0;" width="6" x="46" y="144"/><text fill="#000000" font-family="sans-serif" font-size="11" lengthAdjust="spacingAndGlyphs" textLength="43" x="58" y="150.2104">float lat</text><rect fill="none" height="6" style="stroke: #C82930; stroke-width: 1.0;" width="6" x="46" y="156.8047"/><text fill="#000000" font-family="sans-serif" font-size="11" lengthAdjust="spacingAndGlyphs" textLength="46" x="58" y="163.0151">float lng</text><rect fill="none" height="6" style="stroke: #C82930; stroke-width: 1.0;" width="6" x="46" y="169.6094"/><text fill="#000000" font-family="sans-serif" font-size="11" lengthAdjust="spacingAndGlyphs" textLength="112" x="58" y="175.8198">LocalDateTime time</text><line style="stroke: #A80036; stroke-width: 1.5;" x1="39" x2="389" y1="182.4141" y2="182.4141"/><ellipse cx="49" cy="193.4141" fill="#84BE84" rx="3" ry="3" style="stroke: #038048; stroke-width: 1.0;"/><text fill="#000000" font-family="sans-serif" font-size="11" lengthAdjust="spacingAndGlyphs" textLength="326" x="58" y="196.6245">LocationDataPoint(float lat, float lng, LocalDateTime time)</text><ellipse cx="49" cy="206.2188" fill="#84BE84" rx="3" ry="3" style="stroke: #038048; stroke-width: 1.0;"/><text fill="#000000" font-family="sans-serif" font-size="11" lengthAdjust="spacingAndGlyphs" textLength="72" x="58" y="209.4292">float getLat()</text><ellipse cx="49" cy="219.0234" fill="#84BE84" rx="3" ry="3" style="stroke: #038048; stroke-width: 1.0;"/><text fill="#000000" font-family="sans-serif" font-size="11" lengthAdjust="spacingAndGlyphs" textLength="75" x="58" y="222.2339">float getLng()</text><ellipse cx="49" cy="231.8281" fill="#84BE84" rx="3" ry="3" style="stroke: #038048; stroke-width: 1.0;"/><text fill="#000000" font-family="sans-serif" font-size="11" lengthAdjust="spacingAndGlyphs" textLength="141" x="58" y="235.0386">LocalDateTime getTime()</text><rect fill="#F24D5C" height="6" style="stroke: #C82930; stroke-width: 1.0;" width="6" x="46" y="241.6328"/><text fill="#000000" font-family="sans-serif" font-size="11" lengthAdjust="spacingAndGlyphs" textLength="172" x="58" y="247.8433">boolean normalizeLat(float lat)</text><rect fill="#F24D5C" height="6" style="stroke: #C82930; stroke-width: 1.0;" width="6" x="46" y="254.4375"/><text fill="#000000" font-family="sans-serif" font-size="11" lengthAdjust="spacingAndGlyphs" textLength="175" x="58" y="260.6479">boolean normalizeLng(float lat)</text><rect fill="#F24D5C" height="6" style="stroke: #C82930; stroke-width: 1.0;" width="6" x="46" y="267.2422"/><text fill="#000000" font-family="sans-serif" font-size="11" lengthAdjust="spacingAndGlyphs" textLength="231" x="58" y="273.4526">boolean timeIsValid(LocalDateTime time)</text><!--MD5=[39a9b949d1787538902e1dfaac894da1]
class Satellite--><rect fill="#FEFECE" filter="url(#fw984gp958zpu)" height="265.6797" id="Satellite" style="stroke: #A80036; stroke-width: 1.5;" width="365" x="424.5" y="59"/><ellipse cx="577.25" cy="75" fill="#ADD1B2" rx="11" ry="11" style="stroke: #A80036; stroke-width: 1.0;"/><path d="M580.2188,80.6406 Q579.6406,80.9375 579,81.0781 Q578.3594,81.2344 577.6563,81.2344 Q575.1563,81.2344 573.8281,79.5938 Q572.5156,77.9375 572.5156,74.8125 Q572.5156,71.6875 573.8281,70.0313 Q575.1563,68.375 577.6563,68.375 Q578.3594,68.375 579,68.5313 Q579.6563,68.6875 580.2188,68.9844 L580.2188,71.7031 Q579.5938,71.125 579,70.8594 Q578.4063,70.5781 577.7813,70.5781 Q576.4375,70.5781 575.75,71.6563 Q575.0625,72.7188 575.0625,74.8125 Q575.0625,76.9063 575.75,77.9844 Q576.4375,79.0469 577.7813,79.0469 Q578.4063,79.0469 579,78.7813 Q579.5938,78.5 580.2188,77.9219 L580.2188,80.6406 Z "/><text fill="#000000" font-family="sans-serif" font-size="12" lengthAdjust="spacingAndGlyphs" textLength="51" x="597.75" y="79.1543">Satellite</text><line style="stroke: #A80036; stroke-width: 1.5;" x1="425.5" x2="788.5" y1="91" y2="91"/><rect fill="none" height="6" style="stroke: #C82930; stroke-width: 1.0;" width="6" x="432.5" y="99"/><text fill="#000000" font-family="sans-serif" font-size="11" lengthAdjust="spacingAndGlyphs" textLength="116" x="444.5" y="105.2104">String satelliteName</text><rect fill="none" height="6" style="stroke: #C82930; stroke-width: 1.0;" width="6" x="432.5" y="111.8047"/><text fill="#000000" font-family="sans-serif" font-size="11" lengthAdjust="spacingAndGlyphs" textLength="66" x="444.5" y="118.0151">int strength</text><rect fill="none" height="6" style="stroke: #C82930; stroke-width: 1.0;" width="6" x="432.5" y="124.6094"/><text fill="#000000" font-family="sans-serif" font-size="11" lengthAdjust="spacingAndGlyphs" textLength="146" x="444.5" y="130.8198">float incrementLatAmount</text><rect fill="none" height="6" style="stroke: #C82930; stroke-width: 1.0;" width="6" x="432.5" y="137.4141"/><text fill="#000000" font-family="sans-serif" font-size="11" lengthAdjust="spacingAndGlyphs" textLength="149" x="444.5" y="143.6245">float incrementLngAmount</text><rect fill="none" height="6" style="stroke: #C82930; stroke-width: 1.0;" width="6" x="432.5" y="150.2188"/><text fill="#000000" font-family="sans-serif" font-size="11" lengthAdjust="spacingAndGlyphs" textLength="223" x="444.5" y="156.4292">LocationDataPoint initLocationDataPoint</text><rect fill="none" height="6" style="stroke: #C82930; stroke-width: 1.0;" width="6" x="432.5" y="163.0234"/><text fill="#000000" font-family="sans-serif" font-size="11" lengthAdjust="spacingAndGlyphs" text-decoration="underline" textLength="144" x="444.5" y="169.2339">int countGetLocationCalls</text><line style="stroke: #A80036; stroke-width: 1.5;" x1="425.5" x2="788.5" y1="175.8281" y2="175.8281"/><ellipse cx="435.5" cy="186.8281" fill="#84BE84" rx="3" ry="3" style="stroke: #038048; stroke-width: 1.0;"/><text fill="#000000" font-family="sans-serif" font-size="11" lengthAdjust="spacingAndGlyphs" textLength="244" x="444.5" y="190.0386">Satellite(String satelliteName, int strength,</text><text fill="#000000" font-family="sans-serif" font-size="11" lengthAdjust="spacingAndGlyphs" textLength="307" x="476.5" y="202.8433">float incrementLatAmount, float incrementLngAmount,</text><text fill="#000000" font-family="sans-serif" font-size="11" lengthAdjust="spacingAndGlyphs" textLength="227" x="476.5" y="215.6479">LocationDataPoint initLocationDataPoint)</text><ellipse cx="435.5" cy="225.2422" fill="#84BE84" rx="3" ry="3" style="stroke: #038048; stroke-width: 1.0;"/><text fill="#000000" font-family="sans-serif" font-size="11" lengthAdjust="spacingAndGlyphs" textLength="143" x="444.5" y="228.4526">String getSatelliteName()</text><ellipse cx="435.5" cy="238.0469" fill="#84BE84" rx="3" ry="3" style="stroke: #038048; stroke-width: 1.0;"/><text fill="#000000" font-family="sans-serif" font-size="11" lengthAdjust="spacingAndGlyphs" textLength="93" x="444.5" y="241.2573">int getStrength()</text><ellipse cx="435.5" cy="250.8516" fill="#84BE84" rx="3" ry="3" style="stroke: #038048; stroke-width: 1.0;"/><text fill="#000000" font-family="sans-serif" font-size="11" lengthAdjust="spacingAndGlyphs" textLength="178" x="444.5" y="254.062">LocationDataPoint getLocation()</text><ellipse cx="435.5" cy="263.6563" fill="#84BE84" rx="3" ry="3" style="stroke: #038048; stroke-width: 1.0;"/><text fill="#000000" font-family="sans-serif" font-size="11" lengthAdjust="spacingAndGlyphs" textLength="168" x="444.5" y="266.8667">void setStrength(int strength)</text><rect fill="#F24D5C" height="6" style="stroke: #C82930; stroke-width: 1.0;" width="6" x="432.5" y="273.4609"/><text fill="#000000" font-family="sans-serif" font-size="11" lengthAdjust="spacingAndGlyphs" textLength="208" x="444.5" y="279.6714">boolean strengthIsValid(int strength)</text><rect fill="#F24D5C" height="6" style="stroke: #C82930; stroke-width: 1.0;" width="6" x="432.5" y="286.2656"/><text fill="#000000" font-family="sans-serif" font-size="11" lengthAdjust="spacingAndGlyphs" textLength="230" x="444.5" y="292.4761">float generateNewLocationDataPointLat()</text><rect fill="#F24D5C" height="6" style="stroke: #C82930; stroke-width: 1.0;" width="6" x="432.5" y="299.0703"/><text fill="#000000" font-family="sans-serif" font-size="11" lengthAdjust="spacingAndGlyphs" textLength="233" x="444.5" y="305.2808">float generateNewLocationDataPointLng()</text><rect fill="#F24D5C" height="6" style="stroke: #C82930; stroke-width: 1.0;" width="6" x="432.5" y="311.875"/><text fill="#000000" font-family="sans-serif" font-size="11" lengthAdjust="spacingAndGlyphs" textLength="241" x="444.5" y="318.0854">float generateNewLocationDataPointTime()</text><!--MD5=[a664fa1bf59865fa43f25e28dac38862]
class TrackData--><rect fill="#FEFECE" filter="url(#fw984gp958zpu)" height="240.0703" id="TrackData" style="stroke: #A80036; stroke-width: 1.5;" width="437" x="37.5" y="385"/><ellipse cx="219.75" cy="401" fill="#ADD1B2" rx="11" ry="11" style="stroke: #A80036; stroke-width: 1.0;"/><path d="M222.7188,406.6406 Q222.1406,406.9375 221.5,407.0781 Q220.8594,407.2344 220.1563,407.2344 Q217.6563,407.2344 216.3281,405.5938 Q215.0156,403.9375 215.0156,400.8125 Q215.0156,397.6875 216.3281,396.0313 Q217.6563,394.375 220.1563,394.375 Q220.8594,394.375 221.5,394.5313 Q222.1563,394.6875 222.7188,394.9844 L222.7188,397.7031 Q222.0938,397.125 221.5,396.8594 Q220.9063,396.5781 220.2813,396.5781 Q218.9375,396.5781 218.25,397.6563 Q217.5625,398.7188 217.5625,400.8125 Q217.5625,402.9063 218.25,403.9844 Q218.9375,405.0469 220.2813,405.0469 Q220.9063,405.0469 221.5,404.7813 Q222.0938,404.5 222.7188,403.9219 L222.7188,406.6406 Z "/><text fill="#000000" font-family="sans-serif" font-size="12" lengthAdjust="spacingAndGlyphs" textLength="64" x="240.25" y="405.1543">TrackData</text><line style="stroke: #A80036; stroke-width: 1.5;" x1="38.5" x2="473.5" y1="417" y2="417"/><rect fill="none" height="6" style="stroke: #C82930; stroke-width: 1.0;" width="6" x="45.5" y="425"/><text fill="#000000" font-family="sans-serif" font-size="11" lengthAdjust="spacingAndGlyphs" textLength="101" x="57.5" y="431.2104">boolean validData</text><rect fill="none" height="6" style="stroke: #C82930; stroke-width: 1.0;" width="6" x="45.5" y="437.8047"/><text fill="#000000" font-family="sans-serif" font-size="11" lengthAdjust="spacingAndGlyphs" textLength="118" x="57.5" y="444.0151">float courseDirection</text><rect fill="none" height="6" style="stroke: #C82930; stroke-width: 1.0;" width="6" x="45.5" y="450.6094"/><text fill="#000000" font-family="sans-serif" font-size="11" lengthAdjust="spacingAndGlyphs" textLength="64" x="57.5" y="456.8198">float speed</text><rect fill="none" height="6" style="stroke: #C82930; stroke-width: 1.0;" width="6" x="45.5" y="463.4141"/><text fill="#000000" font-family="sans-serif" font-size="11" lengthAdjust="spacingAndGlyphs" textLength="148" x="57.5" y="469.6245">LocationDataPoint[] points</text><rect fill="none" height="6" style="stroke: #C82930; stroke-width: 1.0;" width="6" x="45.5" y="476.2188"/><text fill="#000000" font-family="sans-serif" font-size="11" lengthAdjust="spacingAndGlyphs" textLength="125" x="57.5" y="482.4292">String statusMessage</text><line style="stroke: #A80036; stroke-width: 1.5;" x1="38.5" x2="473.5" y1="489.0234" y2="489.0234"/><ellipse cx="48.5" cy="500.0234" fill="#84BE84" rx="3" ry="3" style="stroke: #038048; stroke-width: 1.0;"/><text fill="#000000" font-family="sans-serif" font-size="11" lengthAdjust="spacingAndGlyphs" textLength="213" x="57.5" y="503.2339">TrackData(LocationDataPoint[] points)</text><ellipse cx="48.5" cy="512.8281" fill="#84BE84" rx="3" ry="3" style="stroke: #038048; stroke-width: 1.0;"/><text fill="#000000" font-family="sans-serif" font-size="11" lengthAdjust="spacingAndGlyphs" textLength="411" x="57.5" y="516.0386">TrackData(LocationDataPoint[] points, float courseDirection, float speed)</text><ellipse cx="48.5" cy="525.6328" fill="#84BE84" rx="3" ry="3" style="stroke: #038048; stroke-width: 1.0;"/><text fill="#000000" font-family="sans-serif" font-size="11" lengthAdjust="spacingAndGlyphs" textLength="151" x="57.5" y="528.8433">boolean isValidTrackData()</text><ellipse cx="48.5" cy="538.4375" fill="#84BE84" rx="3" ry="3" style="stroke: #038048; stroke-width: 1.0;"/><text fill="#000000" font-family="sans-serif" font-size="11" lengthAdjust="spacingAndGlyphs" textLength="146" x="57.5" y="541.6479">float getCourseDirection()</text><ellipse cx="48.5" cy="551.2422" fill="#84BE84" rx="3" ry="3" style="stroke: #038048; stroke-width: 1.0;"/><text fill="#000000" font-family="sans-serif" font-size="11" lengthAdjust="spacingAndGlyphs" textLength="91" x="57.5" y="554.4526">float getSpeed()</text><ellipse cx="48.5" cy="564.0469" fill="#84BE84" rx="3" ry="3" style="stroke: #038048; stroke-width: 1.0;"/><text fill="#000000" font-family="sans-serif" font-size="11" lengthAdjust="spacingAndGlyphs" textLength="247" x="57.5" y="567.2573">LocationDataPoint[] getLocationDataPoints()</text><ellipse cx="48.5" cy="576.8516" fill="#84BE84" rx="3" ry="3" style="stroke: #038048; stroke-width: 1.0;"/><text fill="#000000" font-family="sans-serif" font-size="11" lengthAdjust="spacingAndGlyphs" textLength="152" x="57.5" y="580.062">String getStatusMessage()</text><ellipse cx="48.5" cy="589.6563" fill="#84BE84" rx="3" ry="3" style="stroke: #038048; stroke-width: 1.0;"/><text fill="#000000" font-family="sans-serif" font-size="11" lengthAdjust="spacingAndGlyphs" textLength="266" x="57.5" y="592.8667">void setStatusMessage(String statusMessage)</text><rect fill="#F24D5C" height="6" style="stroke: #C82930; stroke-width: 1.0;" width="6" x="45.5" y="599.4609"/><text fill="#000000" font-family="sans-serif" font-size="11" lengthAdjust="spacingAndGlyphs" textLength="193" x="57.5" y="605.6714">boolean speedIsValid(float speed)</text><rect fill="#F24D5C" height="6" style="stroke: #C82930; stroke-width: 1.0;" width="6" x="45.5" y="612.2656"/><text fill="#000000" font-family="sans-serif" font-size="11" lengthAdjust="spacingAndGlyphs" textLength="301" x="57.5" y="618.4761">boolean courseDirectionIsValid(float courseDirection)</text><!--MD5=[8f08af1c28be44fd6832cb1896a0d097]
link LocationDataPoint to Satellite--><!--MD5=[e96b2763a3d50575f5bbc736cc72341f]
link LocationDataPoint to TrackData--><!--MD5=[90c45a5709493d290e698ff823d5d203]
@startuml AdminHelperPackage

package edu.oakland.helper.admin {
    
}


package edu.oakland.helper.admin {
    class LocationDataPoint {
        - float lat
        - float lng
        - LocalDateTime time
        + LocationDataPoint(float lat, float lng, LocalDateTime time)
        + float getLat()
        + float getLng()
        + LocalDateTime getTime()
        - boolean normalizeLat(float lat)
        - boolean normalizeLng(float lat)
        - boolean timeIsValid(LocalDateTime time)
    }
}


package edu.oakland.helper.admin {
    class Satellite {
        - String satelliteName
        - int strength
        - float incrementLatAmount
        - float incrementLngAmount
        - LocationDataPoint initLocationDataPoint
        {static} - int countGetLocationCalls
        __
        + Satellite(String satelliteName, int strength,
        \tfloat incrementLatAmount, float incrementLngAmount,
        \tLocationDataPoint initLocationDataPoint)
        + String getSatelliteName()
        + int getStrength()
        + LocationDataPoint getLocation()
        + void setStrength(int strength)
        - boolean strengthIsValid(int strength)
        - float generateNewLocationDataPointLat()
        - float generateNewLocationDataPointLng()
        - float generateNewLocationDataPointTime()
    }
}


package edu.oakland.helper.admin {
    class TrackData {
        - boolean validData
        - float courseDirection
        - float speed
        - LocationDataPoint[] points
        - String statusMessage
        + TrackData(LocationDataPoint[] points)
        + TrackData(LocationDataPoint[] points, float courseDirection, float speed)
        + boolean isValidTrackData()
        + float getCourseDirection()
        + float getSpeed()
        + LocationDataPoint[] getLocationDataPoints()
        + String getStatusMessage()
        + void setStatusMessage(String statusMessage)
        - boolean speedIsValid(float speed)
        - boolean courseDirectionIsValid(float courseDirection)
    }
}


@enduml

PlantUML version 1.2020.02(Sun Mar 01 10:22:07 GMT 2020)
(GPL source distribution)
Java Runtime: OpenJDK Runtime Environment
JVM: OpenJDK 64-Bit Server VM
Java Version: 11.0.9+11-Ubuntu-0ubuntu1
Operating System: Linux
Default Encoding: ANSI_X3.4-1968
Language: en
Country: US
--></g></svg>