<?xml version="1.0" encoding="UTF-8" standalone="no"?><svg xmlns="http://www.w3.org/2000/svg" xmlns:xlink="http://www.w3.org/1999/xlink" contentScriptType="application/ecmascript" contentStyleType="text/css" height="576px" preserveAspectRatio="none" style="width:912px;height:576px;" version="1.1" viewBox="0 0 912 576" width="912px" zoomAndPan="magnify"><defs><filter height="300%" id="f8tvofu5h0p3u" width="300%" x="-1" y="-1"><feGaussianBlur result="blurOut" stdDeviation="2.0"/><feColorMatrix in="blurOut" result="blurOut2" type="matrix" values="0 0 0 0 0 0 0 0 0 0 0 0 0 0 0 0 0 0 .4 0"/><feOffset dx="4.0" dy="4.0" in="blurOut2" result="blurOut3"/><feBlend in="SourceGraphic" in2="blurOut3" mode="normal"/></filter></defs><g><!--MD5=[850b37b0b8d882ee2cad74ae2a956f48]
cluster edu.oakland.helper.admin--><polygon fill="#FFFFFF" filter="url(#f8tvofu5h0p3u)" points="22,24,232,24,239,46.2969,890,46.2969,890,564,22,564,22,24" style="stroke: #000000; stroke-width: 1.5;"/><line style="stroke: #000000; stroke-width: 1.5;" x1="22" x2="239" y1="46.2969" y2="46.2969"/><text fill="#000000" font-family="sans-serif" font-size="14" font-weight="bold" lengthAdjust="spacingAndGlyphs" textLength="204" x="26" y="38.9951">edu.oakland.helper.admin</text><!--MD5=[478f5cd13d8e163685b267303d2bfb71]
class LocationDataPoint--><rect fill="#FEFECE" filter="url(#f8tvofu5h0p3u)" height="163.2422" id="LocationDataPoint" style="stroke: #A80036; stroke-width: 1.5;" width="352" x="298" y="385"/><ellipse cx="412.25" cy="401" fill="#ADD1B2" rx="11" ry="11" style="stroke: #A80036; stroke-width: 1.0;"/><path d="M415.2188,406.6406 Q414.6406,406.9375 414,407.0781 Q413.3594,407.2344 412.6563,407.2344 Q410.1563,407.2344 408.8281,405.5938 Q407.5156,403.9375 407.5156,400.8125 Q407.5156,397.6875 408.8281,396.0313 Q410.1563,394.375 412.6563,394.375 Q413.3594,394.375 414,394.5313 Q414.6563,394.6875 415.2188,394.9844 L415.2188,397.7031 Q414.5938,397.125 414,396.8594 Q413.4063,396.5781 412.7813,396.5781 Q411.4375,396.5781 410.75,397.6563 Q410.0625,398.7188 410.0625,400.8125 Q410.0625,402.9063 410.75,403.9844 Q411.4375,405.0469 412.7813,405.0469 Q413.4063,405.0469 414,404.7813 Q414.5938,404.5 415.2188,403.9219 L415.2188,406.6406 Z "/><text fill="#000000" font-family="sans-serif" font-size="12" lengthAdjust="spacingAndGlyphs" textLength="115" x="432.75" y="405.1543">LocationDataPoint</text><line style="stroke: #A80036; stroke-width: 1.5;" x1="299" x2="649" y1="417" y2="417"/><rect fill="none" height="6" style="stroke: #C82930; stroke-width: 1.0;" width="6" x="306" y="425"/><text fill="#000000" font-family="sans-serif" font-size="11" lengthAdjust="spacingAndGlyphs" textLength="43" x="318" y="431.2104">float lat</text><rect fill="none" height="6" style="stroke: #C82930; stroke-width: 1.0;" width="6" x="306" y="437.8047"/><text fill="#000000" font-family="sans-serif" font-size="11" lengthAdjust="spacingAndGlyphs" textLength="46" x="318" y="444.0151">float lng</text><rect fill="none" height="6" style="stroke: #C82930; stroke-width: 1.0;" width="6" x="306" y="450.6094"/><text fill="#000000" font-family="sans-serif" font-size="11" lengthAdjust="spacingAndGlyphs" textLength="112" x="318" y="456.8198">LocalDateTime time</text><line style="stroke: #A80036; stroke-width: 1.5;" x1="299" x2="649" y1="463.4141" y2="463.4141"/><ellipse cx="309" cy="474.4141" fill="#84BE84" rx="3" ry="3" style="stroke: #038048; stroke-width: 1.0;"/><text fill="#000000" font-family="sans-serif" font-size="11" lengthAdjust="spacingAndGlyphs" textLength="326" x="318" y="477.6245">LocationDataPoint(float lat, float lng, LocalDateTime time)</text><ellipse cx="309" cy="487.2188" fill="#84BE84" rx="3" ry="3" style="stroke: #038048; stroke-width: 1.0;"/><text fill="#000000" font-family="sans-serif" font-size="11" lengthAdjust="spacingAndGlyphs" textLength="72" x="318" y="490.4292">float getLat()</text><ellipse cx="309" cy="500.0234" fill="#84BE84" rx="3" ry="3" style="stroke: #038048; stroke-width: 1.0;"/><text fill="#000000" font-family="sans-serif" font-size="11" lengthAdjust="spacingAndGlyphs" textLength="75" x="318" y="503.2339">float getLng()</text><ellipse cx="309" cy="512.8281" fill="#84BE84" rx="3" ry="3" style="stroke: #038048; stroke-width: 1.0;"/><text fill="#000000" font-family="sans-serif" font-size="11" lengthAdjust="spacingAndGlyphs" textLength="141" x="318" y="516.0386">LocalDateTime getTime()</text><rect fill="#F24D5C" height="6" style="stroke: #C82930; stroke-width: 1.0;" width="6" x="306" y="522.6328"/><text fill="#000000" font-family="sans-serif" font-size="11" lengthAdjust="spacingAndGlyphs" textLength="255" x="318" y="528.8433">float[] normalizeLatAndLng(float lat, float lng)</text><rect fill="#F24D5C" height="6" style="stroke: #C82930; stroke-width: 1.0;" width="6" x="306" y="535.4375"/><text fill="#000000" font-family="sans-serif" font-size="11" lengthAdjust="spacingAndGlyphs" textLength="158" x="318" y="541.6479">float normalizeLng(float lng)</text><!--MD5=[39a9b949d1787538902e1dfaac894da1]
class Satellite--><rect fill="#FEFECE" filter="url(#f8tvofu5h0p3u)" height="265.6797" id="Satellite" style="stroke: #A80036; stroke-width: 1.5;" width="365" x="509.5" y="59"/><ellipse cx="662.25" cy="75" fill="#ADD1B2" rx="11" ry="11" style="stroke: #A80036; stroke-width: 1.0;"/><path d="M665.2188,80.6406 Q664.6406,80.9375 664,81.0781 Q663.3594,81.2344 662.6563,81.2344 Q660.1563,81.2344 658.8281,79.5938 Q657.5156,77.9375 657.5156,74.8125 Q657.5156,71.6875 658.8281,70.0313 Q660.1563,68.375 662.6563,68.375 Q663.3594,68.375 664,68.5313 Q664.6563,68.6875 665.2188,68.9844 L665.2188,71.7031 Q664.5938,71.125 664,70.8594 Q663.4063,70.5781 662.7813,70.5781 Q661.4375,70.5781 660.75,71.6563 Q660.0625,72.7188 660.0625,74.8125 Q660.0625,76.9063 660.75,77.9844 Q661.4375,79.0469 662.7813,79.0469 Q663.4063,79.0469 664,78.7813 Q664.5938,78.5 665.2188,77.9219 L665.2188,80.6406 Z "/><text fill="#000000" font-family="sans-serif" font-size="12" lengthAdjust="spacingAndGlyphs" textLength="51" x="682.75" y="79.1543">Satellite</text><line style="stroke: #A80036; stroke-width: 1.5;" x1="510.5" x2="873.5" y1="91" y2="91"/><rect fill="none" height="6" style="stroke: #C82930; stroke-width: 1.0;" width="6" x="517.5" y="99"/><text fill="#000000" font-family="sans-serif" font-size="11" lengthAdjust="spacingAndGlyphs" textLength="116" x="529.5" y="105.2104">String satelliteName</text><rect fill="none" height="6" style="stroke: #C82930; stroke-width: 1.0;" width="6" x="517.5" y="111.8047"/><text fill="#000000" font-family="sans-serif" font-size="11" lengthAdjust="spacingAndGlyphs" textLength="66" x="529.5" y="118.0151">int strength</text><rect fill="none" height="6" style="stroke: #C82930; stroke-width: 1.0;" width="6" x="517.5" y="124.6094"/><text fill="#000000" font-family="sans-serif" font-size="11" lengthAdjust="spacingAndGlyphs" textLength="146" x="529.5" y="130.8198">float incrementLatAmount</text><rect fill="none" height="6" style="stroke: #C82930; stroke-width: 1.0;" width="6" x="517.5" y="137.4141"/><text fill="#000000" font-family="sans-serif" font-size="11" lengthAdjust="spacingAndGlyphs" textLength="149" x="529.5" y="143.6245">float incrementLngAmount</text><rect fill="none" height="6" style="stroke: #C82930; stroke-width: 1.0;" width="6" x="517.5" y="150.2188"/><text fill="#000000" font-family="sans-serif" font-size="11" lengthAdjust="spacingAndGlyphs" textLength="223" x="529.5" y="156.4292">LocationDataPoint initLocationDataPoint</text><rect fill="none" height="6" style="stroke: #C82930; stroke-width: 1.0;" width="6" x="517.5" y="163.0234"/><text fill="#000000" font-family="sans-serif" font-size="11" lengthAdjust="spacingAndGlyphs" text-decoration="underline" textLength="144" x="529.5" y="169.2339">int countGetLocationCalls</text><line style="stroke: #A80036; stroke-width: 1.5;" x1="510.5" x2="873.5" y1="175.8281" y2="175.8281"/><ellipse cx="520.5" cy="186.8281" fill="#84BE84" rx="3" ry="3" style="stroke: #038048; stroke-width: 1.0;"/><text fill="#000000" font-family="sans-serif" font-size="11" lengthAdjust="spacingAndGlyphs" textLength="244" x="529.5" y="190.0386">Satellite(String satelliteName, int strength,</text><text fill="#000000" font-family="sans-serif" font-size="11" lengthAdjust="spacingAndGlyphs" textLength="307" x="561.5" y="202.8433">float incrementLatAmount, float incrementLngAmount,</text><text fill="#000000" font-family="sans-serif" font-size="11" lengthAdjust="spacingAndGlyphs" textLength="227" x="561.5" y="215.6479">LocationDataPoint initLocationDataPoint)</text><ellipse cx="520.5" cy="225.2422" fill="#84BE84" rx="3" ry="3" style="stroke: #038048; stroke-width: 1.0;"/><text fill="#000000" font-family="sans-serif" font-size="11" lengthAdjust="spacingAndGlyphs" textLength="143" x="529.5" y="228.4526">String getSatelliteName()</text><ellipse cx="520.5" cy="238.0469" fill="#84BE84" rx="3" ry="3" style="stroke: #038048; stroke-width: 1.0;"/><text fill="#000000" font-family="sans-serif" font-size="11" lengthAdjust="spacingAndGlyphs" textLength="93" x="529.5" y="241.2573">int getStrength()</text><ellipse cx="520.5" cy="250.8516" fill="#84BE84" rx="3" ry="3" style="stroke: #038048; stroke-width: 1.0;"/><text fill="#000000" font-family="sans-serif" font-size="11" lengthAdjust="spacingAndGlyphs" textLength="178" x="529.5" y="254.062">LocationDataPoint getLocation()</text><ellipse cx="520.5" cy="263.6563" fill="#84BE84" rx="3" ry="3" style="stroke: #038048; stroke-width: 1.0;"/><text fill="#000000" font-family="sans-serif" font-size="11" lengthAdjust="spacingAndGlyphs" textLength="168" x="529.5" y="266.8667">void setStrength(int strength)</text><rect fill="#F24D5C" height="6" style="stroke: #C82930; stroke-width: 1.0;" width="6" x="517.5" y="273.4609"/><text fill="#000000" font-family="sans-serif" font-size="11" lengthAdjust="spacingAndGlyphs" textLength="208" x="529.5" y="279.6714">boolean strengthIsValid(int strength)</text><rect fill="#F24D5C" height="6" style="stroke: #C82930; stroke-width: 1.0;" width="6" x="517.5" y="286.2656"/><text fill="#000000" font-family="sans-serif" font-size="11" lengthAdjust="spacingAndGlyphs" textLength="230" x="529.5" y="292.4761">float generateNewLocationDataPointLat()</text><rect fill="#F24D5C" height="6" style="stroke: #C82930; stroke-width: 1.0;" width="6" x="517.5" y="299.0703"/><text fill="#000000" font-family="sans-serif" font-size="11" lengthAdjust="spacingAndGlyphs" textLength="233" x="529.5" y="305.2808">float generateNewLocationDataPointLng()</text><rect fill="#F24D5C" height="6" style="stroke: #C82930; stroke-width: 1.0;" width="6" x="517.5" y="311.875"/><text fill="#000000" font-family="sans-serif" font-size="11" lengthAdjust="spacingAndGlyphs" textLength="241" x="529.5" y="318.0854">float generateNewLocationDataPointTime()</text><!--MD5=[a664fa1bf59865fa43f25e28dac38862]
class TrackData--><rect fill="#FEFECE" filter="url(#f8tvofu5h0p3u)" height="240.0703" id="TrackData" style="stroke: #A80036; stroke-width: 1.5;" width="437" x="37.5" y="72"/><ellipse cx="219.75" cy="88" fill="#ADD1B2" rx="11" ry="11" style="stroke: #A80036; stroke-width: 1.0;"/><path d="M222.7188,93.6406 Q222.1406,93.9375 221.5,94.0781 Q220.8594,94.2344 220.1563,94.2344 Q217.6563,94.2344 216.3281,92.5938 Q215.0156,90.9375 215.0156,87.8125 Q215.0156,84.6875 216.3281,83.0313 Q217.6563,81.375 220.1563,81.375 Q220.8594,81.375 221.5,81.5313 Q222.1563,81.6875 222.7188,81.9844 L222.7188,84.7031 Q222.0938,84.125 221.5,83.8594 Q220.9063,83.5781 220.2813,83.5781 Q218.9375,83.5781 218.25,84.6563 Q217.5625,85.7188 217.5625,87.8125 Q217.5625,89.9063 218.25,90.9844 Q218.9375,92.0469 220.2813,92.0469 Q220.9063,92.0469 221.5,91.7813 Q222.0938,91.5 222.7188,90.9219 L222.7188,93.6406 Z "/><text fill="#000000" font-family="sans-serif" font-size="12" lengthAdjust="spacingAndGlyphs" textLength="64" x="240.25" y="92.1543">TrackData</text><line style="stroke: #A80036; stroke-width: 1.5;" x1="38.5" x2="473.5" y1="104" y2="104"/><rect fill="none" height="6" style="stroke: #C82930; stroke-width: 1.0;" width="6" x="45.5" y="112"/><text fill="#000000" font-family="sans-serif" font-size="11" lengthAdjust="spacingAndGlyphs" textLength="101" x="57.5" y="118.2104">boolean validData</text><rect fill="none" height="6" style="stroke: #C82930; stroke-width: 1.0;" width="6" x="45.5" y="124.8047"/><text fill="#000000" font-family="sans-serif" font-size="11" lengthAdjust="spacingAndGlyphs" textLength="118" x="57.5" y="131.0151">float courseDirection</text><rect fill="none" height="6" style="stroke: #C82930; stroke-width: 1.0;" width="6" x="45.5" y="137.6094"/><text fill="#000000" font-family="sans-serif" font-size="11" lengthAdjust="spacingAndGlyphs" textLength="64" x="57.5" y="143.8198">float speed</text><rect fill="none" height="6" style="stroke: #C82930; stroke-width: 1.0;" width="6" x="45.5" y="150.4141"/><text fill="#000000" font-family="sans-serif" font-size="11" lengthAdjust="spacingAndGlyphs" textLength="148" x="57.5" y="156.6245">LocationDataPoint[] points</text><rect fill="none" height="6" style="stroke: #C82930; stroke-width: 1.0;" width="6" x="45.5" y="163.2188"/><text fill="#000000" font-family="sans-serif" font-size="11" lengthAdjust="spacingAndGlyphs" textLength="125" x="57.5" y="169.4292">String statusMessage</text><line style="stroke: #A80036; stroke-width: 1.5;" x1="38.5" x2="473.5" y1="176.0234" y2="176.0234"/><ellipse cx="48.5" cy="187.0234" fill="#84BE84" rx="3" ry="3" style="stroke: #038048; stroke-width: 1.0;"/><text fill="#000000" font-family="sans-serif" font-size="11" lengthAdjust="spacingAndGlyphs" textLength="213" x="57.5" y="190.2339">TrackData(LocationDataPoint[] points)</text><ellipse cx="48.5" cy="199.8281" fill="#84BE84" rx="3" ry="3" style="stroke: #038048; stroke-width: 1.0;"/><text fill="#000000" font-family="sans-serif" font-size="11" lengthAdjust="spacingAndGlyphs" textLength="411" x="57.5" y="203.0386">TrackData(LocationDataPoint[] points, float courseDirection, float speed)</text><ellipse cx="48.5" cy="212.6328" fill="#84BE84" rx="3" ry="3" style="stroke: #038048; stroke-width: 1.0;"/><text fill="#000000" font-family="sans-serif" font-size="11" lengthAdjust="spacingAndGlyphs" textLength="151" x="57.5" y="215.8433">boolean isValidTrackData()</text><ellipse cx="48.5" cy="225.4375" fill="#84BE84" rx="3" ry="3" style="stroke: #038048; stroke-width: 1.0;"/><text fill="#000000" font-family="sans-serif" font-size="11" lengthAdjust="spacingAndGlyphs" textLength="146" x="57.5" y="228.6479">float getCourseDirection()</text><ellipse cx="48.5" cy="238.2422" fill="#84BE84" rx="3" ry="3" style="stroke: #038048; stroke-width: 1.0;"/><text fill="#000000" font-family="sans-serif" font-size="11" lengthAdjust="spacingAndGlyphs" textLength="91" x="57.5" y="241.4526">float getSpeed()</text><ellipse cx="48.5" cy="251.0469" fill="#84BE84" rx="3" ry="3" style="stroke: #038048; stroke-width: 1.0;"/><text fill="#000000" font-family="sans-serif" font-size="11" lengthAdjust="spacingAndGlyphs" textLength="247" x="57.5" y="254.2573">LocationDataPoint[] getLocationDataPoints()</text><ellipse cx="48.5" cy="263.8516" fill="#84BE84" rx="3" ry="3" style="stroke: #038048; stroke-width: 1.0;"/><text fill="#000000" font-family="sans-serif" font-size="11" lengthAdjust="spacingAndGlyphs" textLength="152" x="57.5" y="267.062">String getStatusMessage()</text><ellipse cx="48.5" cy="276.6563" fill="#84BE84" rx="3" ry="3" style="stroke: #038048; stroke-width: 1.0;"/><text fill="#000000" font-family="sans-serif" font-size="11" lengthAdjust="spacingAndGlyphs" textLength="266" x="57.5" y="279.8667">void setStatusMessage(String statusMessage)</text><rect fill="#F24D5C" height="6" style="stroke: #C82930; stroke-width: 1.0;" width="6" x="45.5" y="286.4609"/><text fill="#000000" font-family="sans-serif" font-size="11" lengthAdjust="spacingAndGlyphs" textLength="193" x="57.5" y="292.6714">boolean speedIsValid(float speed)</text><rect fill="#F24D5C" height="6" style="stroke: #C82930; stroke-width: 1.0;" width="6" x="45.5" y="299.2656"/><text fill="#000000" font-family="sans-serif" font-size="11" lengthAdjust="spacingAndGlyphs" textLength="301" x="57.5" y="305.4761">boolean courseDirectionIsValid(float courseDirection)</text><!--MD5=[d62036522628f9b37a5d8c87f1934c41]
link Satellite to LocationDataPoint--><path d="M578.6937,334.6304 C578.6937,334.6304 556.82,361.97 546.83,374.47 " fill="none" id="Satellite-LocationDataPoint" style="stroke: #A80036; stroke-width: 1.0;"/><polygon fill="#A80036" points="538.54,384.82,547.2826,380.285,541.6608,380.9135,541.0322,375.2917,538.54,384.82" style="stroke: #A80036; stroke-width: 1.0;"/><line style="stroke: #A80036; stroke-width: 1.0;" x1="541.6608" x2="546.665" y1="380.9135" y2="374.67"/><polygon fill="#A80036" points="586.19,325.26,579.3184,327.4464,578.6937,334.6304,585.5653,332.444,586.19,325.26" style="stroke: #A80036; stroke-width: 1.0;"/><!--MD5=[a834184dfe29b3f363d293bc852e6e04]
link TrackData to LocationDataPoint--><path d="M358.8044,321.494 C358.8044,321.494 387.77,357.71 401.1,374.38 " fill="none" id="TrackData-LocationDataPoint" style="stroke: #A80036; stroke-width: 1.0;"/><polygon fill="#A80036" points="409.29,384.61,406.7912,375.0834,406.1665,380.7057,400.5443,380.081,409.29,384.61" style="stroke: #A80036; stroke-width: 1.0;"/><line style="stroke: #A80036; stroke-width: 1.0;" x1="406.1665" x2="401.17" y1="380.7057" y2="374.46"/><polygon fill="#FFFFFF" points="351.3,312.13,351.9309,319.3135,358.8044,321.494,358.1735,314.3105,351.3,312.13" style="stroke: #A80036; stroke-width: 1.0;"/><!--MD5=[f34d2429fc6a0af2a2c5c838bb9b667c]
@startuml AdminHelperPackage_InternalDependencies

package edu.oakland.helper.admin {
    
}


package edu.oakland.helper.admin {
    class LocationDataPoint {
        - float lat
        - float lng
        - LocalDateTime time
        + LocationDataPoint(float lat, float lng, LocalDateTime time)
        + float getLat()
        + float getLng()
        + LocalDateTime getTime()
        - float[] normalizeLatAndLng(float lat, float lng)
        - float normalizeLng(float lng)
    }
}


package edu.oakland.helper.admin {
    class Satellite {
        - String satelliteName
        - int strength
        - float incrementLatAmount
        - float incrementLngAmount
        - LocationDataPoint initLocationDataPoint
        {static} - int countGetLocationCalls
        __
        + Satellite(String satelliteName, int strength,
        \tfloat incrementLatAmount, float incrementLngAmount,
        \tLocationDataPoint initLocationDataPoint)
        + String getSatelliteName()
        + int getStrength()
        + LocationDataPoint getLocation()
        + void setStrength(int strength)
        - boolean strengthIsValid(int strength)
        - float generateNewLocationDataPointLat()
        - float generateNewLocationDataPointLng()
        - float generateNewLocationDataPointTime()
    }
}


Satellite *- -> LocationDataPoint

package edu.oakland.helper.admin {
    class TrackData {
        - boolean validData
        - float courseDirection
        - float speed
        - LocationDataPoint[] points
        - String statusMessage
        + TrackData(LocationDataPoint[] points)
        + TrackData(LocationDataPoint[] points, float courseDirection, float speed)
        + boolean isValidTrackData()
        + float getCourseDirection()
        + float getSpeed()
        + LocationDataPoint[] getLocationDataPoints()
        + String getStatusMessage()
        + void setStatusMessage(String statusMessage)
        - boolean speedIsValid(float speed)
        - boolean courseDirectionIsValid(float courseDirection)
    }
}


TrackData o- -> LocationDataPoint

@enduml

PlantUML version 1.2020.02(Sun Mar 01 10:22:07 GMT 2020)
(GPL source distribution)
Java Runtime: OpenJDK Runtime Environment
JVM: OpenJDK 64-Bit Server VM
Java Version: 11.0.9+11-Ubuntu-0ubuntu1
Operating System: Linux
Default Encoding: ANSI_X3.4-1968
Language: en
Country: US
--></g></svg>